<?xml version="1.0" encoding="UTF-8"?>
<!--
  tti-ux mark (light-mode (maroon)) — vector-traced from public/logo.png via potrace.
  Regenerate: node scripts/png-to-svg-logo.mjs
-->
<svg xmlns="http://www.w3.org/2000/svg" viewBox="0 0 1024 1024" role="img" aria-label="tti-ux">
  <title>tti-ux</title>
  <path d="M 353.939 224.428 C 339.304 234.810, 248.485 303.220, 247.250 304.792 C 246.563 305.666, 246.001 307.534, 246.002 308.941 L 246.004 311.500 250.252 314.169 C 252.588 315.637, 262.825 321.358, 273 326.884 C 283.175 332.409, 292.068 337.283, 292.763 337.715 L 294.026 338.500 268.400 360 C 242.633 381.619, 237 386.902, 237 389.452 C 237 391.653, 240.385 397.847, 268.991 448 C 289.107 483.269, 324.987 543.690, 342.329 571.500 C 380.478 632.676, 421.386 689.748, 476.211 758.282 L 496.036 783.064 495.141 784.782 C 493.761 787.432, 486 814.512, 486 816.679 C 486 819.190, 487.879 821, 490.488 821 L 492.576 821 495.678 818.250 C 502.450 812.247, 536.558 772.515, 561.134 742 C 623.094 665.066, 666.385 601.648, 722.236 506 C 739.294 476.787, 766.128 429.802, 780.825 403.413 L 787 392.325 787 389.718 L 787 387.112 784.750 384.609 C 782.879 382.529, 741.616 347.563, 733.474 341.158 C 732.113 340.088, 731 338.993, 731 338.725 C 731 338.457, 741.013 332.767, 753.250 326.079 C 778.282 312.401, 778.456 312.290, 779.378 309.386 L 780.046 307.279 778.273 305.253 C 776.066 302.732, 716.206 258.285, 672.530 226.737 L 661.560 218.814 660.936 221.157 C 660.592 222.446, 659.995 227.550, 659.608 232.500 C 656.229 275.742, 647.731 333.723, 638.870 374 C 617.753 469.979, 580.088 579.425, 524.417 706.577 C 518.138 720.919, 513 733.181, 513 733.827 C 513 734.472, 512.550 735, 512 735 C 511.450 735, 511 734.574, 511 734.054 C 511 733.534, 505.555 720.372, 498.900 704.804 C 471.982 641.841, 446.416 575.131, 426.350 515.500 C 391.586 412.189, 376.276 345.119, 366.545 253.500 C 365.143 240.300, 363.739 227.137, 363.426 224.250 C 363.113 221.363, 362.551 219.014, 362.178 219.032 C 361.805 219.049, 358.098 221.477, 353.939 224.428 M 391.766 221.918 L 388.500 224.836 388.761 241.668 C 388.904 250.926, 389.511 274.688, 390.109 294.473 L 391.198 330.446 392.349 333.877 L 393.500 337.309 396.122 339.254 L 398.745 341.200 402.346 341.200 L 405.948 341.200 439.724 323.638 C 458.301 313.978, 476.676 304.406, 480.557 302.365 L 487.614 298.655 490.887 301.077 L 494.160 303.500 511.074 303.816 L 527.988 304.132 532.761 301.534 L 537.534 298.936 546.017 303.552 C 550.683 306.091, 568.937 315.556, 586.583 324.584 L 618.666 341 622.433 341 L 626.200 341 629.600 337.600 L 633 334.200 633.003 329.850 C 633.005 327.457, 633.430 314.925, 633.948 302 C 634.465 289.075, 635.180 266.469, 635.536 251.764 L 636.182 225.029 633.045 221.891 L 629.908 218.754 625.204 219.238 L 620.500 219.721 609 225.195 C 602.675 228.205, 583.862 236.872, 567.193 244.455 L 536.885 258.241 534.693 256.187 C 533.487 255.057, 531.233 253.653, 529.685 253.067 L 526.870 252 513.185 252.006 L 499.500 252.011 495.743 253.054 C 493.677 253.628, 491.139 255.008, 490.103 256.120 L 488.219 258.142 468.859 249.446 C 458.212 244.664, 443.875 238.167, 437 235.009 C 430.125 231.851, 419.286 226.957, 412.912 224.133 L 401.325 219 398.178 219 L 395.032 219 391.766 221.918 M 505.193 371.350 C 503.374 372.009, 500.357 374.043, 498.489 375.869 L 495.093 379.190 493.408 383.602 L 491.723 388.014 492.343 393.250 L 492.963 398.487 495.745 402.494 L 498.527 406.500 502.975 408.750 L 507.424 411 512.147 411 C 514.744 411, 518.137 410.522, 519.685 409.939 C 523.189 408.617, 528.671 403.456, 530.713 399.554 L 532.254 396.607 532.299 390.554 L 532.343 384.500 530.722 381.398 C 528.827 377.769, 522.835 372.268, 519.324 370.933 C 516.028 369.680, 509.251 369.880, 505.193 371.350 M 505.500 470.222 C 503.850 470.807, 501.210 472.189, 499.634 473.293 L 496.769 475.301 494.394 480.401 L 492.020 485.500 492.010 489.101 C 491.997 493.824, 493.687 498.707, 496.772 502.859 L 499.268 506.218 503.384 508.087 L 507.500 509.956 512.538 509.978 L 517.576 510 522.030 507.750 L 526.484 505.500 528.744 502.099 C 529.987 500.228, 531.472 496.959, 532.045 494.834 L 533.085 490.970 532.407 487.235 C 529.943 473.655, 517.682 465.902, 505.500 470.222 M 506.764 568.996 C 505.259 569.449, 502.479 570.777, 500.585 571.948 L 497.141 574.076 494.571 579.234 L 492 584.393 492 588.500 L 492 592.607 494.493 597.611 C 499.156 606.968, 508.016 610.789, 518.377 607.912 L 522.253 606.836 526.215 603.140 L 530.178 599.444 531.558 594.125 L 532.937 588.806 531.838 583.653 L 530.739 578.500 526.616 574.365 L 522.493 570.230 518.497 569.121 C 513.927 567.852, 510.677 567.817, 506.764 568.996" fill="#5C0025"/>
</svg>
