<?xml version="1.0" encoding="UTF-8"?>

<svg xmlns="http://www.w3.org/2000/svg" style="display:none">
  <symbol id="tux-star" viewBox="0 0 32 32">
    <path d="M16 1.5 L19.55 11.42 L30 11.42 L21.55 17.6 L24.85 27.5 L16 21.4 L7.15 27.5 L10.45 17.6 L2 11.42 L12.45 11.42 Z" fill="currentColor"></path>
  </symbol>

  <symbol id="tux-chevron" viewBox="0 0 32 16">
    <path d="M2 2 L16 14 L30 2" fill="none" stroke="currentColor" stroke-width="3" stroke-linecap="square" stroke-linejoin="miter"></path>
  </symbol>

  <symbol id="tux-compass" viewBox="0 0 40 40">
    <circle cx="20" cy="20" r="18" fill="none" stroke="currentColor" stroke-width="1" opacity="0.4"></circle>
    <path d="M20 3 L23 18 L17 18 Z" fill="currentColor"></path>
    <path d="M20 37 L17 22 L23 22 Z" fill="none" stroke="currentColor" stroke-width="1"></path>
    <path d="M37 20 L29 18.5 L29 21.5 Z" fill="currentColor" opacity="0.55"></path>
    <path d="M3 20 L11 18.5 L11 21.5 Z" fill="currentColor" opacity="0.55"></path>
    <circle cx="20" cy="20" r="1.5" fill="currentColor"></circle>
    <text x="20" y="2.5" text-anchor="middle" font-family="Work Sans, sans-serif" font-weight="700" font-size="3.2" fill="currentColor">N</text>
  </symbol>

  <symbol id="tux-row-grid" viewBox="0 0 64 16">
    <line x1="2" y1="0" x2="2" y2="16" stroke="currentColor" stroke-width="1" opacity="0.18"></line>
    <line x1="10" y1="0" x2="10" y2="16" stroke="currentColor" stroke-width="1" opacity="0.30"></line>
    <line x1="18" y1="0" x2="18" y2="16" stroke="currentColor" stroke-width="1" opacity="0.45"></line>
    <line x1="25" y1="0" x2="25" y2="16" stroke="currentColor" stroke-width="1" opacity="0.55"></line>
    <line x1="31" y1="0" x2="31" y2="16" stroke="currentColor" stroke-width="1" opacity="0.65"></line>
    <line x1="36" y1="0" x2="36" y2="16" stroke="currentColor" stroke-width="1" opacity="0.72"></line>
    <line x1="40" y1="0" x2="40" y2="16" stroke="currentColor" stroke-width="1" opacity="0.78"></line>
    <line x1="44" y1="0" x2="44" y2="16" stroke="currentColor" stroke-width="1" opacity="0.84"></line>
    <line x1="47" y1="0" x2="47" y2="16" stroke="currentColor" stroke-width="1" opacity="0.88"></line>
    <line x1="50" y1="0" x2="50" y2="16" stroke="currentColor" stroke-width="1" opacity="0.92"></line>
    <line x1="53" y1="0" x2="53" y2="16" stroke="currentColor" stroke-width="1" opacity="0.95"></line>
    <line x1="56" y1="0" x2="56" y2="16" stroke="currentColor" stroke-width="1" opacity="0.97"></line>
    <line x1="59" y1="0" x2="59" y2="16" stroke="currentColor" stroke-width="1" opacity="0.98"></line>
    <line x1="62" y1="0" x2="62" y2="16" stroke="currentColor" stroke-width="1" opacity="1"></line>
  </symbol>
</svg>
