<?xml version="1.0" encoding="UTF-8"?>
<!--
  tti-ux mark (dark-mode (white)) — vector-traced from public/logo-dark.png via potrace.
  Regenerate: node scripts/png-to-svg-logo.mjs
-->
<svg xmlns="http://www.w3.org/2000/svg" viewBox="0 0 1024 1024" role="img" aria-label="tti-ux">
  <title>tti-ux</title>
  <path d="M 393.559 194.530 L 391.214 197.061 390.480 215.661 L 389.746 234.262 390.427 270.881 L 391.107 307.500 392.194 310.297 L 393.282 313.094 396.091 314.547 C 397.636 315.346, 399.825 316, 400.955 316 C 402.084 316, 423.341 305.832, 448.192 293.404 L 493.375 270.808 496.721 272.404 L 500.068 274 518.784 273.956 L 537.500 273.912 541.261 272.570 L 545.021 271.228 588.387 293.114 L 631.754 315 635.203 315 L 638.651 315 641.076 312.420 L 643.500 309.840 643.500 253.332 L 643.500 196.824 641.139 194.912 L 638.778 193 635.918 193 L 633.058 193 612.779 202.412 C 601.626 207.588, 586.200 214.838, 578.500 218.522 C 544.934 234.583, 546.450 234.044, 542 231.500 L 539.500 230.071 518.885 230.035 L 498.270 230 495.661 232.052 L 493.052 234.104 473.276 225.128 C 462.399 220.192, 441.611 210.718, 427.079 204.076 C 412.548 197.434, 399.589 192, 398.281 192 L 395.905 192 393.559 194.530 M 328.361 217.135 C 286.382 250.757, 247.591 282.287, 246.765 283.458 C 246.361 284.031, 246.024 285.015, 246.015 285.645 C 246.007 286.274, 255.756 293.196, 267.681 301.027 L 289.362 315.264 284.885 319.382 C 282.423 321.647, 270.145 332.437, 257.601 343.359 L 234.794 363.218 235.325 365.859 C 236.318 370.792, 275.117 444.431, 296.518 482 C 347.194 570.961, 391.861 637.712, 448.413 708.996 C 459.133 722.509, 490.701 760.328, 498.128 768.556 L 499.984 770.611 493.992 788.524 C 490.696 798.377, 488 807.599, 488 809.019 C 488 812.185, 489.681 814, 492.613 814 L 494.827 814 507.814 800.250 C 574.449 729.705, 646.316 634.791, 702.296 543.397 C 730.119 497.973, 771.878 422.781, 796.100 374.490 L 801.121 364.480 800.512 362.891 C 800.176 362.017, 787.988 350.997, 773.427 338.401 L 746.952 315.500 748.557 314.500 C 749.440 313.950, 759.238 307.425, 770.331 300 L 790.500 286.500 790.812 284.809 L 791.124 283.118 764.312 261.773 C 722.864 228.777, 689.155 202.704, 681.210 197.494 L 676.919 194.681 676.119 195.590 C 675.678 196.091, 674.777 204.825, 674.116 215 C 671.489 255.450, 667.712 285.247, 660.425 323 C 656.313 344.305, 647.115 383.839, 641.812 403 C 616.873 493.115, 589.044 573.867, 557.725 647 C 545.833 674.771, 516.027 738.934, 515 738.975 C 514.725 738.986, 512.387 734.384, 509.805 728.748 C 507.223 723.111, 500.558 708.600, 494.994 696.500 C 461.413 623.470, 428.742 536.332, 406.134 459.500 C 397.010 428.490, 395.111 421.608, 388.601 395.952 C 371.697 329.336, 362.079 270.890, 358.989 216 C 358.385 205.275, 357.515 196.122, 357.056 195.661 L 356.221 194.821 328.361 217.135 M 510.852 337.391 C 505.985 339.130, 502.080 342.299, 498.774 347.194 C 495.468 352.089, 494.642 356.039, 495.175 364.415 L 495.581 370.788 498.567 375.618 L 501.553 380.447 506.448 383.474 L 511.343 386.500 518.422 386.470 L 525.500 386.441 529.643 384.255 C 531.921 383.053, 535.351 380.239, 537.266 378.003 L 540.746 373.937 542.496 368.373 L 544.246 362.810 543.627 358.299 C 543.287 355.818, 541.809 351.583, 540.343 348.889 L 537.677 343.991 534.179 341.323 C 527.441 336.183, 518.467 334.671, 510.852 337.391 M 510.670 445.565 L 505.840 447.107 501.486 451.461 L 497.132 455.815 495.566 461.089 C 493.605 467.692, 493.604 470.302, 495.556 476.878 L 497.113 482.119 500.738 486.132 C 502.732 488.339, 506.064 491.012, 508.142 492.072 L 511.920 494 518.210 493.978 L 524.500 493.956 528.500 492.113 C 530.700 491.100, 534.135 488.664, 536.134 486.700 L 539.768 483.129 541.384 478.386 L 543 473.644 543 468.444 L 543 463.244 541.502 459.659 C 539.423 454.683, 534.432 449.261, 529.717 446.856 L 525.745 444.829 520.622 444.426 L 515.500 444.022 510.670 445.565 M 509.355 552.447 C 507.626 553.199, 504.417 555.435, 502.225 557.416 L 498.239 561.017 496 566.221 L 493.762 571.425 494.231 577.962 L 494.700 584.500 496.816 588.643 C 497.979 590.921, 500.765 594.355, 503.007 596.274 L 507.084 599.764 511.556 601.016 L 516.029 602.268 520.621 601.639 L 525.213 601.009 530.124 598.336 L 535.035 595.663 538.030 591.141 C 539.678 588.653, 541.519 584.792, 542.123 582.559 L 543.220 578.500 542.696 573.378 L 542.171 568.255 540.129 564.253 C 537.751 559.592, 533.148 555.442, 527.500 552.867 L 523.500 551.044 518 551.061 L 512.500 551.078 509.355 552.447" fill="#FFFFFF"/>
</svg>
