<svg xmlns="http://www.w3.org/2000/svg" data-name="Layer 1" viewBox="0 0 64 64">
  <path d="M55.68.29H8.2c-3.17 0-5.75 2.58-5.75 5.75v28.9c0 .83.67 1.5 1.5 1.5h7v25.77c0 .83.67 1.5 1.5 1.5s1.5-.67 1.5-1.5v-4.05h6.52v4.05c0 .83.67 1.5 1.5 1.5s1.5-.67 1.5-1.5v-4.05h6.52v4.05c0 .83.67 1.5 1.5 1.5s1.5-.67 1.5-1.5v-4.05h6.52v4.05c0 .83.67 1.5 1.5 1.5s1.5-.67 1.5-1.5v-4.05h6.52v4.05c0 .83.67 1.5 1.5 1.5s1.5-.67 1.5-1.5v-4.05h6.52v4.05c0 .83.67 1.5 1.5 1.5s1.5-.67 1.5-1.5V6.16A5.89 5.89 0 0 0 55.67.28ZM13.95 55.16v-3.3h44.6v3.3h-44.6Zm44.6-49v42.69h-44.6V6.04c0-1-.26-1.93-.7-2.75h42.43a2.88 2.88 0 0 1 2.88 2.88ZM5.44 6.04c0-1.52 1.24-2.75 2.75-2.75s2.75 1.24 2.75 2.75v27.4h-5.5V6.04Zm11.62 22.19s-.08-.03-.08-.08v-.88s.03-.08.08-.08h3.27s.08.03.08.08v.88s-.03.08-.08.08h-1.05v6.14s-.03.08-.08.08h-1.01s-.08-.03-.08-.08v-6.14h-1.05Zm4.36 5.98v-6.77c0-.13.11-.24.25-.24h2.34s.08.03.08.08v.88s-.03.08-.08.08h-1.43v2.01h1.38s.08.03.08.08v.87s-.03.08-.08.08h-1.38v2.16h1.45s.08.03.08.08v.88s-.03.08-.08.08h-2.37c-.14 0-.25-.11-.25-.24Zm3.62.14 1.15-3.51-1.13-3.54s0-.05.01-.07.04-.03.06-.03h.89c.11 0 .21.07.24.17l.62 2.13.65-2.25s.04-.05.07-.05h1s.05.01.06.03c.01.02.02.04.01.07l-1.13 3.52 1.15 3.52s0 .05-.01.07c-.01.02-.04.03-.06.03h-.89a.25.25 0 0 1-.24-.17l-.64-2.14-.67 2.26s-.04.05-.07.05h-1s-.05-.01-.06-.03c-.01-.02-.02-.04-.01-.07Zm4.43.1h.98s.07-.03.07-.06l.16-1.1h1.12l.17 1.1s.04.06.07.06h1.01s.04 0 .06-.03c.01-.02.02-.04.02-.06l-1.16-6.97a.258.258 0 0 0-.25-.2h-.93c-.12 0-.23.09-.25.2l-1.16 6.97s0 .04.02.06c.01.02.04.03.06.03Zm1.37-2.17.41-2.69.41 2.69h-.82Zm3.29.81v-1.53s.03-.08.08-.08h.99s.08.03.08.08v1.56c0 .28.11.38.42.38h.17c.3 0 .42-.1.42-.38v-1.04c0-.29-.09-.4-.31-.55l-1.05-.7c-.56-.37-.79-.77-.79-1.41v-.75c0-.84.74-1.53 1.65-1.53h.12c1 0 1.53.49 1.53 1.42v1.32s-.03.08-.08.08h-.99s-.08-.03-.08-.08v-1.35c0-.28-.11-.38-.42-.38h-.15c-.3 0-.42.1-.42.38v.87c0 .28.09.39.32.55l1.04.69c.58.39.79.76.79 1.41v.92c0 .84-.74 1.53-1.65 1.53h-.14c-1 0-1.53-.49-1.53-1.42Zm6.51 1.36h.98s.07-.03.07-.06l.16-1.1h1.12l.17 1.1s.04.06.07.06h1.01s.04 0 .06-.03c.01-.02.02-.04.02-.06l-1.16-6.97a.25.25 0 0 0-.25-.2h-.93c-.12 0-.23.09-.25.2l-1.16 6.97s0 .04.02.06c.01.02.04.03.06.03Zm1.37-2.17.41-2.69.41 2.69h-.82Zm4.77 2.23h.02c.86 0 1.21-.28 1.44-.73l.33.55c.04.07.13.12.22.12h1s.05-.01.07-.04c.01-.02.01-.05 0-.08l-1.08-1.82.81-2.38s0-.05-.01-.07c-.01-.02-.04-.03-.06-.03h-.96s-.06.02-.07.05l-.44 1.3-1.13-1.97c-.13-.24-.13-.39-.13-.62v-.31c0-.24.1-.33.36-.33h.08c.26 0 .36.09.36.33v1.08s.03.08.08.08h.98s.08-.03.08-.08v-1c0-.79-.69-1.43-1.54-1.43s-1.56.65-1.56 1.45v.21c0 .43.04.69.28 1.09l.18.31-.32.26c-.39.32-.56.71-.56 1.28v1.31c0 .8.7 1.45 1.56 1.45Zm.61-1.47c-.14.38-.2.45-.42.45h-.25c-.26 0-.36-.09-.36-.33v-1.44c0-.28.07-.42.27-.58s.89 1.51.89 1.51l-.14.39Zm3.3 1.41s-.08-.03-.08-.08v-6.93c0-.13.11-.24.25-.24h1.17c.12 0 .23.08.25.2l.79 4.54.79-4.54c.02-.12.13-.2.25-.2h1.15c.14 0 .25.11.25.24v6.93s-.03.08-.08.08h-.99s-.08-.03-.08-.08v-4.1l-.71 3.98a.25.25 0 0 1-.25.2h-.72c-.12 0-.23-.08-.25-.2l-.71-3.98v4.1s-.03.08-.08.08h-.97ZM16.97 38.9s-.08-.03-.08-.08v-.86s.03-.07.07-.07l.17-.02c.43-.05.64-.17.92-.51s.18-.22.18-.22c.01-.02.04-.03.06-.03h.63s.08.03.08.08v8.33s-.03.08-.08.08h-1.11s-.08-.03-.08-.08V38.9h-.76Zm3.64 6.44v-1.29c0-.64.18-1.07.72-1.68l1.42-1.65c.28-.33.36-.49.36-.79V38.7c0-.33-.14-.47-.49-.47h-.2c-.35 0-.49.14-.49.47v1.61s-.03.08-.08.08h-1.14s-.08-.03-.08-.08v-1.56c0-1.1.59-1.66 1.77-1.66h.25c1.16 0 1.77.57 1.77 1.66v1.05c0 .56-.11 1.02-.69 1.68l-1.42 1.65c-.31.35-.38.53-.38.99v.33h2.42s.08.03.08.08v1s-.03.08-.08.08h-3.47c-.15 0-.27-.11-.27-.25Zm8.84-8.19s.08.03.08.08v1s-.03.08-.08.08H28.2v7.21s-.03.08-.08.08h-1.16s-.08-.03-.08-.08v-7.21h-1.25s-.08-.03-.08-.08v-1s.03-.08.08-.08h3.81Zm2.64 3.55h1.33v-3.48s.03-.08.08-.08h1.16s.08.03.08.08v8.29s-.03.08-.08.08H33.5s-.08-.03-.08-.08v-3.65h-1.33v3.65s-.03.08-.08.08h-1.16s-.08-.03-.08-.08v-8.29s.03-.08.08-.08h1.16s.08.03.08.08v3.48Zm6.78 4.89s-.08-.03-.08-.08v-8.12c0-.14.12-.25.27-.25h1.38c.13 0 .24.09.26.21l.96 5.47.96-5.47a.26.26 0 0 1 .26-.21h1.35c.15 0 .27.11.27.25v8.12s-.03.08-.08.08h-1.14s-.08-.03-.08-.08v-5.1l-.89 4.96a.26.26 0 0 1-.26.21h-.84a.26.26 0 0 1-.26-.21l-.89-4.96v5.1s-.03.08-.08.08h-1.11Zm9.66-8.47h-1.09a.26.26 0 0 0-.26.21l-1.36 8.17s0 .04.02.06c.01.02.04.03.06.03h1.13s.07-.03.07-.06l.19-1.3h1.36l.2 1.3s.04.06.07.06h1.15s.04 0 .06-.03c.01-.02.02-.04.02-.06l-1.36-8.17a.26.26 0 0 0-.26-.21Zm-1.07 5.97.5-3.35.51 3.35h-1.02Zm8.06-5.95s.08.03.08.08v8.12c0 .14-.12.25-.27.25h-1.06a.27.27 0 0 1-.26-.19l-1.27-5.09v5.21s-.03.08-.08.08h-1.11s-.08-.03-.08-.08V37.4c0-.14.12-.25.27-.25h1.18c.12 0 .23.08.26.19l1.14 4.58v-4.7s.03-.08.08-.08h1.11Z" style="stroke-width:0"/>
</svg>
