<svg xmlns="http://www.w3.org/2000/svg" viewBox="0 0 64 64">
  <path d="M42.1 31.4H31c-3.5 0-6.5 2.2-7.5 5.5-1 3.2-1.9 12.5-2 12.9 0 .4.1.8.4 1.2.3.3.7.5 1.1.5h27.1c.4 0 .8-.2 1.1-.5s.4-.7.4-1.2c0-.4-1-9.6-2-12.9-1-3.3-4-5.5-7.5-5.5Zm-17.4 17c.3-2.8 1-8.4 1.7-10.6.6-2 2.5-3.4 4.6-3.4h11.1c2.1 0 4 1.4 4.6 3.4.7 2.2 1.4 7.8 1.7 10.6H24.7Zm11.9-18.9c4.7 0 8.5-3.8 8.5-8.5s-3.8-8.5-8.5-8.5-8.5 3.8-8.5 8.5 3.8 8.5 8.5 8.5Zm0-13.9c3 0 5.5 2.4 5.5 5.5s-2.5 5.5-5.5 5.5-5.5-2.5-5.5-5.5 2.4-5.5 5.5-5.5Zm23.5 1.2c.8 0 1.5-.7 1.5-1.5V7.1c0-.8-.7-1.5-1.5-1.5h-3.5v-4c0-.8-.7-1.5-1.5-1.5H7.9c-.8 0-1.5.7-1.5 1.5v4.3H3.9c-.8 0-1.5.7-1.5 1.5s.7 1.5 1.5 1.5h2.5v6.6H3.9c-.8 0-1.5.7-1.5 1.5s.7 1.5 1.5 1.5h2.5v6.6H3.9c-.8 0-1.5.7-1.5 1.5s.7 1.5 1.5 1.5h2.5v6.6H3.9c-.8 0-1.5.7-1.5 1.5s.7 1.5 1.5 1.5h2.5v6.6H3.9c-.8 0-1.5.7-1.5 1.5s.7 1.5 1.5 1.5h2.5v6.6H3.9c-.8 0-1.5.7-1.5 1.5s.7 1.5 1.5 1.5h2.5v5.4c0 .8.7 1.5 1.5 1.5H55c.8 0 1.5-.7 1.5-1.5v-4H60c.8 0 1.5-.7 1.5-1.5v-8.2c0-.8-.7-1.5-1.5-1.5h-3.5v-2.7H60c.8 0 1.5-.7 1.5-1.5v-8.2c0-.8-.7-1.5-1.5-1.5h-3.5v-2.7H60c.8 0 1.5-.7 1.5-1.5v-8.2c0-.8-.7-1.5-1.5-1.5h-3.5v-2.7H60Zm-1.5-8.2v5.2h-2V8.6h2ZM9.4 57h2.5c.8 0 1.5-.7 1.5-1.5s-.7-1.5-1.5-1.5H9.4v-6.6h2.5c.8 0 1.5-.7 1.5-1.5s-.7-1.5-1.5-1.5H9.4v-6.6h2.5c.8 0 1.5-.7 1.5-1.5s-.7-1.5-1.5-1.5H9.4v-6.6h2.5c.8 0 1.5-.7 1.5-1.5s-.7-1.5-1.5-1.5H9.4v-6.6h2.5c.8 0 1.5-.7 1.5-1.5s-.7-1.5-1.5-1.5H9.4V9h2.5c.8 0 1.5-.7 1.5-1.5S12.7 6 11.9 6H9.4V3.2h6.9V61H9.4v-3.9Zm44.1 3.9H19.4V3.1h34.2v57.8Zm5.1-10.7v5.2h-2v-5.2h2Zm0-13.9v5.2h-2v-5.2h2Zm0-13.8v5.2h-2v-5.2h2Z"/>
</svg>
