<svg xmlns="http://www.w3.org/2000/svg" data-name="Layer 1" viewBox="0 0 64 64">
  <path d="M62.03.32a1 1 0 0 0-1 .95v.05c-.19 1.2-7.11 5.72-15.55 5.72H2.97v-.08c0-.55-.45-1-1-1s-1 .45-1 1v6.92c0 .55.45 1 1 1s1-.45 1-1v-.08h2.41c-.07.39-.11.79-.11 1.2 0 4.39 4.06 7.95 9.04 7.95h.14v2.21h-1.71c-.55 0-1 .45-1 1v29.25c0 .39.22.74.57.9l15.36 7.27c.14.06.28.1.43.1s.29-.03.43-.1l15.36-7.27c.35-.17.57-.52.57-.9V26.16c0-.55-.45-1-1-1h-1.71v-2.21h.14c4.99 0 9.04-3.57 9.04-7.95 0-.2-.02-.39-.03-.58 5.65 1.26 9.89 4.09 10.13 5.09 0 .55.45 1 1 1s1-.45 1-1V1.32c0-.55-.45-1.01-1-1.01ZM44.21 14.99c0 .65-.8 1.2-1.74 1.2H13.73c-.94 0-1.74-.55-1.74-1.2s.8-1.2 1.74-1.2h28.74c.94 0 1.74.55 1.74 1.2Zm-27.77 7.95H27.1v2.21H16.44v-2.21Zm26.02 31.83L28.1 61.56l-14.36-6.79V27.15h28.73v27.62Zm-2.71-29.62H29.09v-2.21h10.66v2.21Zm2.14-4.21H14.31c-3.88 0-7.04-2.67-7.04-5.95 0-.41.05-.81.15-1.2h2.85c-.18.37-.28.78-.28 1.2 0 1.76 1.68 3.2 3.74 3.2h28.74c2.06 0 3.74-1.44 3.74-3.2s-1.68-3.2-3.74-3.2H2.97V9.04h38.92c3.88 0 7.04 2.67 7.04 5.96s-3.16 5.95-7.04 5.95Zm19.13-4.27c-2.26-1.79-6.21-3.58-10.65-4.4-.54-1.31-1.46-2.46-2.65-3.35 5.32-.47 10.55-2.5 13.3-4.67v12.43ZM38.98 30.78v5.03c0 .37-.3.67-.67.67h-2.44a.67.67 0 0 1-.67-.67v-1.92h-5.22v19.16h3.66c.37 0 .67.3.67.67v2.44c0 .37-.3.67-.67.67H22.55a.67.67 0 0 1-.67-.67v-2.44c0-.37.3-.67.67-.67h3.66V33.89h-5.22v1.92c0 .37-.3.67-.67.67h-2.44a.67.67 0 0 1-.67-.67v-5.03c0-.37.3-.67.67-.67h20.44c.37 0 .67.3.67.67Z" style="stroke-width:0"/>
</svg>
