<svg xmlns="http://www.w3.org/2000/svg" data-name="Layer 1" viewBox="0 0 64 64">
  <path d="M32 63.98c-17.06 0-30.94-13.88-30.94-30.94.15-7.9 3.23-14.99 9.68-22.34.47-.54 1.14-1.26 1.92-2.08.67-.7 1.55-1.18 2.5-1.36.15-.95.6-1.83 1.29-2.53 1.26-1.28 2.46-2.47 3.35-3.35C20.68.5 21.85.02 23.09.02h17.82c1.24 0 2.4.48 3.28 1.36.88.88 2.08 2.08 3.35 3.36.69.7 1.14 1.58 1.29 2.53.95.18 1.83.65 2.5 1.36.78.81 1.45 1.54 1.92 2.08 6.45 7.35 9.53 14.44 9.68 22.31 0 17.09-13.88 30.97-30.94 30.97ZM16.03 10.19c-.45 0-.89.19-1.2.51-.74.78-1.39 1.47-1.84 1.98-6.04 6.88-8.8 13.17-8.94 20.39 0 15.38 12.53 27.91 27.94 27.91s27.94-12.53 27.94-27.94c-.14-7.19-2.9-13.48-8.94-20.36-.45-.51-1.09-1.2-1.84-1.98-.31-.33-.75-.51-1.2-.51h-2.08V8.02c0-.43-.18-.86-.48-1.17-1.26-1.27-2.45-2.46-3.33-3.34-.31-.31-.73-.48-1.17-.48H23.07c-.44 0-.85.17-1.17.48-.88.88-2.07 2.07-3.33 3.34-.31.31-.48.74-.48 1.17v2.17h-2.08ZM32 18.55c9.9.09 17.95 8.2 17.95 18.1s-8.06 18.02-17.92 18.1c-9.91-.08-17.97-8.2-17.97-18.1s8.05-18.01 17.95-18.1m0-3c-11.6.09-20.95 9.48-20.95 21.1s9.38 21.01 20.95 21.1c11.56-.09 20.95-9.48 20.95-21.1s-9.34-21.01-20.95-21.1Z" style="stroke-width:0"/>
</svg>
