<svg xmlns="http://www.w3.org/2000/svg" data-name="Layer 1" viewBox="0 0 64 64">
  <path d="M32 10.48c-12.52 0-22.7 10.18-22.7 22.7s10.18 22.7 22.7 22.7 22.7-10.18 22.7-22.7-10.18-22.7-22.7-22.7Zm0 42.4c-10.86 0-19.7-8.84-19.7-19.7s8.84-19.7 19.7-19.7 19.7 8.84 19.7 19.7-8.84 19.7-19.7 19.7Zm12.52-19.7c0 .83-.67 1.5-1.5 1.5H32c-.83 0-1.5-.67-1.5-1.5V18.63c0-.83.67-1.5 1.5-1.5s1.5.67 1.5 1.5v13.05h9.52c.83 0 1.5.67 1.5 1.5Zm9.04 19.13c4.53-5.1 7.29-11.8 7.29-19.13 0-4.6-1.09-8.94-3.01-12.8.13-.14.27-.26.39-.41 2.79-3.27 4.01-6.54 3.61-9.74-.33-2.62-1.76-5.08-4.13-7.11-2.02-1.73-9.21-6.69-16.72 2.1-.13.15-.23.3-.34.45-2.73-.86-5.63-1.32-8.64-1.32s-5.91.46-8.64 1.32c-.11-.15-.22-.3-.34-.45C15.51-3.57 8.32 1.39 6.3 3.12.9 7.74.7 14.04 5.77 19.97c.13.15.26.28.4.42a28.68 28.68 0 0 0-3.01 12.8c0 7.34 2.76 14.04 7.29 19.13l-7.11 9.23c-.35.45-.41 1.06-.16 1.58s.77.84 1.35.84h9.86c.47 0 .9-.22 1.19-.58l3.43-4.45c3.91 1.98 8.32 3.1 12.99 3.1s9.08-1.12 12.99-3.1l3.43 4.45c.28.37.72.58 1.19.58h9.86c.57 0 1.09-.33 1.35-.84.25-.51.19-1.12-.16-1.58l-7.11-9.23Zm2.2-46.92c1.25 1.07 2.81 2.85 3.11 5.2.28 2.21-.61 4.57-2.59 7.02A29.007 29.007 0 0 0 43.62 6.78c5.21-5.75 9.83-3.37 12.15-1.39Zm-47.51 0c1.23-1.05 3.12-2.23 5.4-2.23 2 0 4.31.93 6.75 3.62-5.2 2.3-9.6 6.09-12.66 10.83-4.64-5.73-2.32-9.8.51-12.22Zm5.41 55.56H7.58l4.99-6.48a28.92 28.92 0 0 0 3.82 2.94l-2.73 3.55ZM6.17 33.17c0-14.25 11.59-25.84 25.84-25.84s25.84 11.59 25.84 25.84-11.59 25.84-25.84 25.84S6.16 47.44 6.16 33.19Zm44.19 27.78-2.73-3.55c1.35-.87 2.63-1.85 3.82-2.94l4.99 6.48h-6.08Z" style="stroke-width:0"/>
</svg>
