<svg xmlns="http://www.w3.org/2000/svg" data-name="Layer 1" viewBox="0 0 64 64">
  <path d="M60.9 38.31a3.497 3.497 0 0 0-1.58-2.88c-.98-.64-2.21-.75-3.28-.29l-11.11 4.69c-1.78.75-2.62 2.8-1.86 4.58s2.8 2.62 4.58 1.86l.2-.08c-2.17 5.19-6.82 9.06-12.35 10.23V29.04h11.7c1.93 0 3.5-1.57 3.5-3.5s-1.57-3.5-3.5-3.5H35.5V17.3c3.23-1.37 5.5-4.57 5.5-8.29 0-4.96-4.04-9-9-9s-9 4.04-9 9c0 3.72 2.27 6.92 5.5 8.29v4.74H16.8c-1.93 0-3.5 1.57-3.5 3.5s1.57 3.5 3.5 3.5h11.7v27.38c-5.52-1.17-10.18-5.04-12.35-10.23l.2.08c1.79.75 3.83-.08 4.59-1.86.75-1.78-.08-3.83-1.86-4.59L7.97 35.13c-1.07-.45-2.3-.34-3.28.29-.98.64-1.57 1.72-1.59 2.88l-.17 12.05a3.504 3.504 0 0 0 3.45 3.55h.05c1.91 0 3.47-1.54 3.5-3.45v-.97c3.85 8.47 12.44 14.3 22.06 14.3s18.25-5.7 22.05-14.22v.88c.04 1.92 1.6 3.45 3.51 3.45h.05a3.504 3.504 0 0 0 3.45-3.55l-.17-12.05ZM32 7c1.1 0 2 .9 2 2s-.9 2-2 2-2-.9-2-2 .9-2 2-2Z" style="stroke-width:0"/>
</svg>
