<svg xmlns="http://www.w3.org/2000/svg" data-name="Layer 1" viewBox="0 0 64 64">
  <path d="M32 63.95c-5.2 0-13.67-4.37-18.13-9.36-.77-.86-2.03-.98-2.94-.29-.42.32-.98.4-1.47.19-.49-.2-.84-.64-.92-1.17L6.5 39.83c-.08-.54.14-1.09.58-1.42s1.02-.4 1.52-.17l12.43 5.62c.48.22.81.67.87 1.2.06.53-.16 1.04-.58 1.36-.5.38-.5.9-.48 1.11.02.21.14.73.71 1l.3.14c1.17.53 2.51.42 3.58-.27a3.613 3.613 0 0 0 1.67-3.08V29.86h-5.67c-.79.49-1.67.75-2.6.75-1.51 0-2.93-.68-3.88-1.86s-1.31-2.72-.98-4.22c.39-1.81 1.82-3.27 3.62-3.72 1.32-.33 2.69-.11 3.83.59h5.67v-7.43c-1.85-1.48-2.94-3.71-2.94-6.11S25.19 3.31 27 1.81C28.81.32 31.19-.28 33.54.18c3.13.61 5.61 3.14 6.16 6.29.5 2.87-.6 5.72-2.82 7.5v7.44h5.67c.79-.49 1.67-.75 2.6-.75 1.51 0 2.93.68 3.88 1.86s1.31 2.72.98 4.22c-.39 1.81-1.82 3.27-3.63 3.72-1.32.33-2.69.11-3.83-.59h-5.67v15.52c0 1.24.62 2.39 1.67 3.08 1.02.67 2.24.78 3.35.31l.54-.24c.58-.27.69-.79.71-1 .02-.21.02-.73-.48-1.11a1.5 1.5 0 0 1 .29-2.56l12.43-5.62c.5-.22 1.08-.16 1.52.17.44.33.66.88.58 1.42l-2.04 13.49c-.08.52-.43.97-.92 1.17s-1.05.12-1.47-.19a2.16 2.16 0 0 0-2.94.29c-4.46 4.98-12.93 9.36-18.13 9.36Zm-19.75-13.1c1.42 0 2.83.59 3.86 1.74 3.84 4.29 11.56 8.36 15.89 8.36s12.05-4.06 15.89-8.36a5.197 5.197 0 0 1 4.89-1.62l1.34-8.85-8.25 3.73c.25.62.34 1.31.27 2a4.224 4.224 0 0 1-2.42 3.4c-.2.1-.41.19-.62.28-2.02.87-4.33.67-6.18-.55a6.668 6.668 0 0 1-3.02-5.59V28.37c0-.83.67-1.5 1.5-1.5h7.63c.33 0 .66.11.92.32.35.27.93.55 1.71.36.7-.18 1.27-.76 1.42-1.45.14-.62 0-1.22-.38-1.7-.38-.47-.94-.74-1.54-.74-.54 0-.96.23-1.21.43-.26.21-.59.32-.92.32H35.4c-.83 0-1.5-.67-1.5-1.5v-9.7c0-.51.26-.99.69-1.26 1.68-1.07 2.51-2.97 2.17-4.96-.33-1.9-1.88-3.49-3.77-3.86-1.48-.29-2.92.07-4.06 1a4.808 4.808 0 0 0-1.76 3.73c0 1.66.84 3.18 2.24 4.08.43.28.69.75.69 1.26v9.7c0 .83-.67 1.5-1.5 1.5h-7.64c-.33 0-.66-.11-.92-.32-.35-.27-.93-.56-1.71-.36-.7.18-1.27.76-1.42 1.45-.13.62 0 1.22.39 1.7.38.47.94.74 1.54.74.54 0 .96-.23 1.21-.43.26-.21.59-.32.92-.32h7.64c.83 0 1.5.67 1.5 1.5v16.96c0 2.27-1.14 4.36-3.04 5.59a6.74 6.74 0 0 1-6.44.49l-.35-.16a4.224 4.224 0 0 1-2.42-3.4c-.07-.7.02-1.38.27-2.01L9.88 42.1l1.34 8.83c.34-.07.69-.11 1.03-.11ZM32 6.23c-.91 0-1.64.74-1.64 1.64S31.1 9.51 32 9.51s1.64-.74 1.64-1.64S32.9 6.23 32 6.23Z" style="stroke-width:0"/>
</svg>
