<svg xmlns="http://www.w3.org/2000/svg" data-name="Layer 1" viewBox="0 0 64 64">
  <path d="M62.39 23.88h-5.56c-2.07-3.22-5.67-5.36-9.77-5.36H16.94c-4.1 0-7.7 2.14-9.77 5.36H1.61c-.83 0-1.5.67-1.5 1.5v10.43c0 .83.67 1.5 1.5 1.5h4.23c1.47 4.73 5.89 8.17 11.09 8.17h6.94c2.05 0 3.88-1.14 4.79-2.98.25-.51.85-.84 1.53-.84h3.62c.68 0 1.28.33 1.53.84.9 1.84 2.74 2.98 4.79 2.98h6.94c5.2 0 9.62-3.44 11.09-8.17h4.23c.83 0 1.5-.67 1.5-1.5V25.38c0-.83-.67-1.5-1.5-1.5ZM3.11 34.31v-7.43h2.68c-.3 1.03-.47 2.12-.47 3.25v3.73c0 .15.02.3.02.45H3.11Zm52.56-.45c0 4.75-3.86 8.61-8.61 8.61h-6.94c-.9 0-1.7-.5-2.09-1.3-.75-1.53-2.41-2.52-4.22-2.52h-3.62c-1.81 0-3.47.99-4.22 2.52-.39.8-1.2 1.3-2.09 1.3h-6.94c-4.75 0-8.61-3.86-8.61-8.61v-3.73c0-4.75 3.86-8.61 8.61-8.61h30.12c4.75 0 8.61 3.86 8.61 8.61v3.73Zm5.21.45h-2.23c0-.15.02-.3.02-.45v-3.73c0-1.13-.17-2.22-.47-3.25h2.68v7.43Zm-8.75-1.51c.83 0 1.5.67 1.5 1.5 0 3.6-3.12 6.54-6.95 6.54-.83 0-1.5-.67-1.5-1.5s.67-1.5 1.5-1.5c2.18 0 3.95-1.59 3.95-3.54 0-.83.67-1.5 1.5-1.5ZM18.8 24.67c0 .83-.67 1.5-1.5 1.5-2.18 0-3.95 1.59-3.95 3.54 0 .83-.67 1.5-1.5 1.5s-1.5-.67-1.5-1.5c0-3.61 3.12-6.54 6.95-6.54.83 0 1.5.67 1.5 1.5Z" style="stroke-width:0"/>
</svg>
