<svg xmlns="http://www.w3.org/2000/svg" viewBox="0 0 64 64">
  <path d="M56 33.8c-1.9 0-3.5 1.6-3.5 3.5v17.4c0 1.2-1 2.3-2.3 2.3H9.3C8.1 57 7 56 7 54.7V13.8c0-1.2 1-2.3 2.3-2.3h17.9c1.9 0 3.5-1.6 3.5-3.5s-1.6-3.5-3.5-3.5H9.3C4.2 4.5 0 8.7 0 13.8v40.9C0 59.8 4.2 64 9.3 64h40.9c5.1 0 9.3-4.2 9.3-9.3V37.3c0-1.9-1.6-3.5-3.5-3.5Zm7.9-31v-.3c0-.1 0-.2-.1-.3 0-.1-.1-.2-.2-.3 0 0 0-.2-.2-.3-.3-.4-.6-.7-1-1 0 0-.2 0-.3-.2-.1 0-.2-.1-.3-.2-.1 0-.2 0-.4-.1h-.3c-.2-.1-.4-.1-.6-.1H38.1c-2 0-3.6 1.6-3.6 3.5S36.1 7 38 7h14L29.5 29.5c-1.4 1.4-1.4 3.6 0 5 .7.7 1.6 1 2.5 1s1.8-.3 2.5-1L57 12v14c0 1.9 1.6 3.5 3.5 3.5S64 27.9 64 26V2.8Z"/>
</svg>
