<svg xmlns="http://www.w3.org/2000/svg" data-name="Layer 1" viewBox="0 0 64 64">
  <path d="M.88 16.06 16.05.89a3.018 3.018 0 0 1 4.27 0L35.5 16.07a2.988 2.988 0 0 1 0 4.23l-.04.04a2.988 2.988 0 0 1-4.23 0L21.21 10.32v50.69c0 1.65-1.34 2.99-2.99 2.99h-.05c-1.65 0-2.99-1.34-2.99-2.99v-50.7L5.16 20.33a2.988 2.988 0 0 1-4.23 0l-.04-.04a2.988 2.988 0 0 1 0-4.23Zm60.15 39.72H47.9l15.25-15.25c.86-.86 1.12-2.15.65-3.27a2.997 2.997 0 0 0-2.77-1.85H40.66c-1.66 0-3 1.34-3 3s1.34 3 3 3h13.13L38.54 56.66c-.86.86-1.12 2.15-.65 3.27a2.997 2.997 0 0 0 2.77 1.85h20.37c1.66 0 3-1.34 3-3s-1.34-3-3-3ZM37.96 24.24 48.14 3.87a3 3 0 0 1 2.68-1.66 3 3 0 0 1 2.68 1.66l10.19 20.37a3.01 3.01 0 0 1-1.34 4.03c-.43.21-.89.32-1.34.32-1.1 0-2.16-.61-2.69-1.66l-1.45-2.91h-12.1l-1.45 2.91a3.005 3.005 0 0 1-4.03 1.34 3.005 3.005 0 0 1-1.34-4.03Zm9.81-6.22h6.1l-3.05-6.1-3.05 6.1Z" style="stroke-width:0"/>
</svg>
