<svg xmlns="http://www.w3.org/2000/svg" data-name="Layer 1" viewBox="0 0 64 64">
  <path d="M1.86 35.6h-.11c-.88 0-1.62-.69-1.68-1.58-.93-14.46 8.04-27.78 21.8-32.37 13.65-4.55 28.66.59 36.66 12.49V5.4c0-.93.76-1.69 1.69-1.69s1.69.76 1.69 1.69v12.4c0 .93-.76 1.69-1.69 1.69h-12.4c-.93 0-1.69-.76-1.69-1.69s.76-1.69 1.69-1.69h7.98C48.66 5.4 35.19.76 22.94 4.85 10.63 8.96 2.6 20.87 3.43 33.81c.06.93-.65 1.73-1.58 1.79Zm62.08-5.63c-.06-.93-.88-1.64-1.79-1.58-.93.06-1.63.86-1.58 1.79.83 12.94-7.19 24.85-19.51 28.96-12.24 4.08-25.72-.55-32.86-11.27H17c.93 0 1.69-.76 1.69-1.69s-.75-1.69-1.69-1.69H4.6c-.93 0-1.69.76-1.69 1.69v12.4c0 .93.75 1.69 1.69 1.69s1.69-.76 1.69-1.69v-7.55c6.11 8.27 15.74 12.95 25.72 12.95 3.37 0 6.79-.53 10.12-1.65 13.77-4.59 22.74-17.91 21.81-32.38Z" style="stroke-width:0"/>
</svg>
