<svg xmlns="http://www.w3.org/2000/svg" data-name="Layer 1" viewBox="0 0 64 64">
  <path d="M.88 16.06 16.05.89a3.018 3.018 0 0 1 4.27 0L35.5 16.07a2.988 2.988 0 0 1 0 4.23l-.04.04a2.988 2.988 0 0 1-4.23 0L21.21 10.32v50.69c0 1.65-1.34 2.99-2.99 2.99h-.05c-1.65 0-2.99-1.34-2.99-2.99v-50.7L5.16 20.33a2.988 2.988 0 0 1-4.23 0l-.04-.04a2.988 2.988 0 0 1 0-4.23ZM63.13 43.7l-.04-.04a2.988 2.988 0 0 0-4.23 0L48.84 53.68V2.99a3.007 3.007 0 0 0-3-2.99h-.05c-1.65 0-2.99 1.34-2.99 2.99v50.69L32.78 43.66a2.988 2.988 0 0 0-4.23 0l-.04.04a2.988 2.988 0 0 0 0 4.23l15.18 15.18a3.018 3.018 0 0 0 4.27 0l15.18-15.18a2.988 2.988 0 0 0 0-4.23Z" style="stroke-width:0"/>
</svg>
