<svg xmlns="http://www.w3.org/2000/svg" data-name="Layer 1" viewBox="0 0 64 64">
  <path d="M32 26.84c-2.85 0-5.16 2.32-5.16 5.16s2.32 5.16 5.16 5.16 5.16-2.32 5.16-5.16-2.32-5.16-5.16-5.16Zm0 7.33c-1.19 0-2.16-.97-2.16-2.16s.97-2.16 2.16-2.16 2.16.97 2.16 2.16-.97 2.16-2.16 2.16Zm18.24-2.16c1.73-1.44 3.31-2.88 4.66-4.3 4.72-4.93 6.38-8.97 4.8-11.7-1.57-2.72-5.91-3.31-12.53-1.69-1.9.46-3.93 1.11-6.04 1.88-.12-.71-.25-1.4-.39-2.08 1.81-.8 3.09-2.61 3.09-4.72 0-2.85-2.32-5.16-5.16-5.16-.4 0-.78.06-1.16.14C36.01 1.65 34.17.01 32 .01c-4.48 0-7.55 6.93-9.14 16.18-2.11-.77-4.14-1.42-6.03-1.88C10.2 12.69 5.87 13.27 4.3 16c-2.24 3.88 2.22 10 9.43 16-.73.61-1.43 1.22-2.1 1.83-.75-.42-1.6-.68-2.52-.68-2.85 0-5.16 2.32-5.16 5.16 0 1.2.43 2.3 1.12 3.17-1.4 2.49-1.8 4.73-.77 6.5.99 1.72 3.08 2.58 6.15 2.58 1.8 0 3.93-.3 6.38-.9 1.89-.46 3.92-1.11 6.03-1.88 1.59 9.26 4.66 16.18 9.14 16.18s7.56-6.93 9.14-16.19c1.09.4 2.16.76 3.2 1.08.43 2.42 2.53 4.26 5.07 4.26 1.9 0 3.54-1.04 4.44-2.57 2.9-.06 4.89-.92 5.85-2.57 1.57-2.72-.09-6.77-4.8-11.7-1.35-1.41-2.93-2.85-4.66-4.3Zm-2.36-14.77c2.39-.58 4.27-.82 5.7-.82 2.06 0 3.18.49 3.53 1.09.59 1.02-.2 3.76-4.37 8.12-1.4 1.46-3.05 2.96-4.88 4.46a95.882 95.882 0 0 0-5.63-4 92.19 92.19 0 0 0-.63-6.87c2.21-.83 4.33-1.51 6.29-1.99ZM35.7 38.41c-1.24.71-2.47 1.38-3.7 2.03-1.23-.64-2.46-1.31-3.7-2.03-1.26-.73-2.45-1.46-3.61-2.19-.06-1.36-.09-2.76-.09-4.21s.03-2.85.09-4.21c1.16-.73 2.35-1.46 3.61-2.19 1.24-.71 2.47-1.38 3.7-2.02 1.23.64 2.46 1.31 3.7 2.02 1.24.71 2.43 1.45 3.6 2.19.06 1.36.09 2.76.09 4.21s-.03 2.85-.09 4.21c-1.17.74-2.37 1.48-3.61 2.19Zm3.39 1.47c-.1 1.3-.23 2.55-.38 3.74-1.13-.48-2.27-.98-3.44-1.54.64-.35 1.28-.7 1.92-1.07s1.27-.75 1.89-1.13Zm-10.37 2.2c-1.16.55-2.3 1.08-3.43 1.55-.15-1.2-.28-2.45-.38-3.75.63.38 1.26.75 1.89 1.12.64.37 1.28.72 1.92 1.07Zm-7.09-7.89c-1.06-.73-2.08-1.46-3.04-2.18.96-.73 1.97-1.46 3.04-2.2a79.961 79.961 0 0 0 0 4.38Zm3.28-10.06c.1-1.3.23-2.55.38-3.75 1.13.48 2.27 1 3.43 1.55-.64.35-1.28.7-1.92 1.07-.64.37-1.26.75-1.89 1.12Zm10.37-2.2c1.15-.55 2.3-1.07 3.42-1.55.15 1.2.28 2.44.38 3.75-.63-.38-1.25-.76-1.89-1.13-.64-.37-1.28-.72-1.92-1.07Zm7.09 7.88c1.06.73 2.08 1.46 3.06 2.19-.98.74-2 1.47-3.06 2.19a79.961 79.961 0 0 0 0-4.38Zm-1.54-20.4c0 1.19-.97 2.16-2.16 2.16s-2.16-.97-2.16-2.16.97-2.16 2.16-2.16 2.16.97 2.16 2.16ZM32 3.02c.9 0 1.91 1.02 2.9 2.89-.86.92-1.4 2.15-1.4 3.51 0 2.52 1.82 4.62 4.22 5.07.19.9.37 1.85.54 2.85-2.04.84-4.14 1.8-6.26 2.87a90.143 90.143 0 0 0-6.27-2.87c1.5-9.01 4.2-14.3 6.27-14.3ZM6.89 17.51c.35-.61 1.46-1.09 3.53-1.09 1.42 0 3.3.23 5.7.82 1.96.48 4.08 1.16 6.29 1.99-.29 2.22-.5 4.53-.64 6.88a91.817 91.817 0 0 0-5.63 3.98C9.09 24.29 5.86 19.3 6.89 17.52ZM9.1 36.16c1.19 0 2.16.97 2.16 2.16s-.97 2.16-2.16 2.16-2.16-.97-2.16-2.16.97-2.16 2.16-2.16Zm7.01 10.62c-5.86 1.43-8.63.75-9.22-.27-.39-.68-.15-1.82.66-3.28.49.16 1.01.27 1.55.27 2.85 0 5.16-2.32 5.16-5.16 0-.82-.21-1.59-.56-2.28.75-.69 1.57-1.39 2.43-2.1 1.77 1.35 3.66 2.69 5.62 3.98.13 2.35.35 4.66.63 6.87-2.21.83-4.33 1.51-6.29 1.99ZM31.99 61c-2.06 0-4.77-5.29-6.27-14.3 2.04-.85 4.14-1.8 6.27-2.87 2.13 1.07 4.22 2.02 6.27 2.87-1.5 9.02-4.2 14.31-6.27 14.31Zm17.42-10.85c-1.19 0-2.16-.97-2.16-2.16s.97-2.16 2.16-2.16 2.16.97 2.16 2.16-.97 2.16-2.16 2.16Zm7.69-3.64c-.29.5-1.12.92-2.57 1.05-.22-2.64-2.42-4.73-5.12-4.73-2.09 0-3.89 1.25-4.7 3.05-1.02-.32-2.06-.68-3.13-1.08.29-2.21.5-4.52.63-6.87 1.99-1.31 3.87-2.64 5.63-3.99 1.83 1.5 3.48 3 4.88 4.46 4.17 4.36 4.96 7.1 4.37 8.12Z" style="stroke-width:0"/>
</svg>
