<svg xmlns="http://www.w3.org/2000/svg" data-name="Layer 1" viewBox="0 0 64 64">
  <path d="m45.98 34.89 2.79-.51a1.51 1.51 0 0 0 1.22-1.68l-.82-6.21 4.31-4.54c.55-.58.55-1.49 0-2.07l-4.31-4.54.82-6.21c.1-.79-.43-1.53-1.22-1.68l-6.16-1.14L39.63.8c-.38-.71-1.25-.99-1.97-.64l-5.65 2.71L26.35.15c-.72-.35-1.59-.06-1.97.64L21.4 6.3l-6.16 1.14c-.79.14-1.32.88-1.22 1.68l.82 6.21-4.31 4.54c-.55.58-.55 1.49 0 2.07l4.31 4.54-.82 6.21c-.1.79.43 1.53 1.22 1.68l2.79.51-7.82 22.96a1.498 1.498 0 0 0 1.92 1.9l6.62-2.32 3.83 5.88c.28.43.76.68 1.26.68.06 0 .12 0 .19-.01.57-.07 1.05-.46 1.24-1.01l6.74-19.8 6.74 19.8c.19.55.67.94 1.24 1.01.06 0 .13.01.19.01.5 0 .98-.25 1.26-.68l3.83-5.88 6.62 2.32c.54.19 1.15.05 1.56-.35.41-.41.55-1.01.36-1.55l-7.82-22.96ZM17.5 24.94l-3.83-4.03 3.83-4.03c.31-.33.46-.78.4-1.23l-.73-5.51 5.47-1.01c.45-.08.83-.36 1.05-.76l2.64-4.89 5.01 2.4c.41.2.89.2 1.3 0l5.01-2.4 2.64 4.89c.22.4.6.68 1.05.76l5.47 1.01-.73 5.51c-.06.45.09.9.4 1.23l3.83 4.03-3.83 4.03c-.31.33-.46.78-.4 1.23l.73 5.51-5.47 1.01c-.45.08-.83.36-1.05.76l-2.64 4.89-5.01-2.4c-.41-.2-.89-.2-1.3 0l-5.01 2.4-2.64-4.89c-.22-.4-.6-.68-1.05-.76l-5.47-1.01.73-5.51c.06-.45-.09-.9-.4-1.23Zm5.9 34.15-2.79-4.28a1.482 1.482 0 0 0-1.76-.59l-4.82 1.69 6.96-20.46.38.07 2.98 5.51c.38.71 1.25.99 1.97.64l3.57-1.71-6.51 19.13Zm21.73-4.87a1.51 1.51 0 0 0-1.76.6l-2.79 4.28-6.51-19.13 3.57 1.71a1.496 1.496 0 0 0 1.97-.64l2.98-5.51.38-.07 6.96 20.46-4.82-1.69ZM31.99 32.57c6.44 0 11.66-5.22 11.66-11.66S38.43 9.25 31.99 9.25s-11.66 5.22-11.66 11.66 5.22 11.66 11.66 11.66Zm0-20.3c4.77 0 8.65 3.88 8.65 8.65s-3.88 8.65-8.65 8.65-8.65-3.88-8.65-8.65 3.88-8.65 8.65-8.65Zm-5.86 7.5c-.37-.36-.17-1 .35-1.07l3.42-.5 1.53-3.1a.63.63 0 0 1 1.13 0l1.53 3.1 3.42.5c.52.07.72.71.35 1.07l-2.47 2.41.58 3.4c.09.51-.45.91-.91.66L32 24.63l-3.06 1.61c-.46.24-1-.15-.91-.66l.58-3.4-2.47-2.41Z" style="stroke-width:0"/>
</svg>
