<svg xmlns="http://www.w3.org/2000/svg" data-name="Layer 1" viewBox="0 0 64 64">
  <path d="M41.93 35.59H22.07c-2.85 0-5.17 2.32-5.17 5.17v14.72c0 .84.68 1.52 1.52 1.52h27.17c.84 0 1.52-.68 1.52-1.52V40.76c0-2.85-2.32-5.17-5.17-5.17Zm-19.86 3.03h19.86c1.18 0 2.14.96 2.14 2.14v2.18H19.94v-2.18c0-1.18.96-2.14 2.14-2.14Zm-2.14 15.34v-7.99h24.13v7.99H19.93Zm5.71-26.82h12.71c.84 0 1.52-.68 1.52-1.52v-6.75c0-.84-.68-1.52-1.52-1.52H25.64c-.84 0-1.52.68-1.52 1.52v6.75c0 .84.68 1.52 1.52 1.52Zm1.52-6.75h9.68v3.71h-9.68v-3.71Zm28.98 15.2h-3.3l-.57-12.27c-.35-7.45-5.65-13.5-12.64-15.07C39.24 3.62 35.96 0 31.99 0s-7.24 3.62-7.64 8.25c-6.99 1.57-12.29 7.62-12.64 15.07l-.57 12.27H7.85c-.84 0-1.52.68-1.52 1.52v13.55c0 2.99 1.6 5.59 3.97 7.05.25 1.47.93 2.83 1.99 3.93A7.555 7.555 0 0 0 17.8 64h28.38c2.1 0 4.06-.84 5.51-2.36a7.582 7.582 0 0 0 1.99-3.93c2.37-1.46 3.97-4.07 3.97-7.05V37.11c0-.84-.68-1.52-1.52-1.52ZM32 3.03c2.22 0 4.07 2.07 4.53 4.83-.16 0-.32-.02-.48-.02h-8.11c-.16 0-.32.02-.48.02.46-2.76 2.31-4.83 4.53-4.83ZM9.38 38.62h1.64l-.7 15.02c-.59-.85-.94-1.87-.94-2.98V38.62Zm40.13 20.93c-.87.91-2.05 1.42-3.31 1.42H17.82c-1.26 0-2.44-.5-3.31-1.42a4.529 4.529 0 0 1-1.26-3.37l1.52-32.71c.33-7.06 6.12-12.59 13.19-12.59h8.11c7.07 0 12.86 5.53 13.19 12.59l1.52 32.71c.06 1.26-.39 2.46-1.26 3.37Zm5.12-8.89c0 1.11-.35 2.13-.94 2.98l-.7-15.02h1.64v12.04Z" style="stroke-width:0"/>
</svg>
