<svg xmlns="http://www.w3.org/2000/svg" data-name="Layer 1" viewBox="0 0 64 64">
  <path d="M58.83 64.07c-.92 0-1.83-.32-2.63-.93L22.76 37.16c-1.43-1.11-2.29-3.04-2.29-5.16s.85-4.05 2.29-5.16L56.2.86c1.33-1.03 2.99-1.22 4.44-.51 1.88.92 3.1 3.15 3.1 5.67v51.96c0 2.52-1.22 4.75-3.1 5.67-.58.29-1.2.43-1.81.43ZM24.6 34.79l33.44 25.98c.43.33.85.39 1.28.18.7-.34 1.42-1.4 1.42-2.97V6.02c0-1.58-.71-2.63-1.42-2.97-.43-.21-.85-.15-1.28.18L24.6 29.21c-.69.54-1.13 1.61-1.13 2.79s.43 2.25 1.13 2.79ZM9.68 64.07h-3.7C2.68 64.08 0 61.39 0 58.08V5.91C0 2.61 2.68-.08 5.99-.08h3.7a6 6 0 0 1 5.99 5.99v52.17a6 6 0 0 1-5.99 5.99ZM5.99 2.92C4.34 2.92 3 4.26 3 5.91v52.17c0 1.65 1.34 2.99 2.99 2.99h3.7c1.65 0 2.99-1.34 2.99-2.99V5.91c0-1.65-1.34-2.99-2.99-2.99h-3.7Z" style="stroke-width:0"/>
</svg>
