<svg xmlns="http://www.w3.org/2000/svg" data-name="Layer 1" viewBox="0 0 64 64">
  <path d="M28.47 41.18c.1.75.75 1.3 1.48 1.3.07 0 .13 0 .2-.01.82-.11 1.4-.87 1.29-1.69-.49-3.64-1.87-7.13-3.98-10.13.68-1.76 1.74-3.66 3.36-5.56l1.56 1.45a1.502 1.502 0 0 0 2.12-.08 1.5 1.5 0 0 0-.07-2.12l-1.51-1.41c1.67-1.53 3.77-3.03 6.36-4.45l1.39 1.95c.29.41.75.63 1.22.63a1.503 1.503 0 0 0 1.22-2.37l-1.12-1.57c.17-.08.33-.16.51-.24 1.74-.77 3.06-2.1 3.85-3.68l1.36.4a1.494 1.494 0 0 0 1.86-1.02 1.5 1.5 0 0 0-1.02-1.86l-1.39-.41c.11-1.29-.09-2.63-.65-3.9a7.663 7.663 0 0 0-2.49-3.08l.48-1.28c.29-.78-.1-1.64-.87-1.93-.77-.29-1.64.1-1.93.87l-.41 1.08c-1.59-.39-3.36-.33-5.12.27-1.42.49-2.84 1.08-4.26 1.77l-.52-1.68a1.493 1.493 0 0 0-1.87-.99c-.79.24-1.24 1.08-.99 1.88l.69 2.23a43.63 43.63 0 0 0-6.13 4.29L21.17 8.3c-.65-.52-1.59-.41-2.11.23-.52.65-.42 1.59.23 2.11l1.55 1.24c-2.25 2.18-4.24 4.63-5.85 7.28l-1.63-.82a1.498 1.498 0 0 0-1.34 2.68l1.54.77c-.9 1.86-1.6 3.79-2.07 5.8-3.47 1.72-6.23 4.84-7.45 8.51a1.512 1.512 0 0 0 1.42 1.98c.63 0 1.21-.4 1.42-1.03.73-2.2 2.16-4.15 4-5.57-.02.2-.04.4-.05.6-.13 2.57.55 4.66 2.04 6.22.58.61 1.24 1.07 1.92 1.44.02.08.04.17.08.25.54 1.26-.55 2.45-2.28 4.11-.52.5-1.02.98-1.44 1.48-1.76 2.06-1.53 4.21-1.35 5.93.19 1.76.32 3.04-1.22 4.48a1.5 1.5 0 0 0 2.04 2.2c2.64-2.46 2.38-4.97 2.16-6.99-.18-1.65-.23-2.64.65-3.67.33-.39.77-.81 1.24-1.26 1.38-1.32 3.31-3.19 3.35-5.53.25.03.49.04.71.04 3.64 0 6.68-2.49 7.67-6.14 1.06 2.04 1.78 4.25 2.08 6.54Zm-4.85-7.89c-.46 2.65-2.48 4.5-4.9 4.5-.83 0-2.53-.32-3.68-1.53-.89-.94-1.3-2.29-1.21-4C14.48 19.55 26.05 9.03 37.15 5.2c.72-.25 1.44-.37 2.12-.37 1.99 0 3.71 1.02 4.51 2.81 1.1 2.48-.02 5.4-2.5 6.5-12.82 5.71-16.67 13.56-17.65 19.15Zm6.93-19.06a1.81 1.81 0 1 1-3.62 0 1.81 1.81 0 0 1 3.62 0Zm-2.62 6.42a1.81 1.81 0 1 1-3.62 0 1.81 1.81 0 0 1 3.62 0ZM19.5 31.83a1.81 1.81 0 1 1-3.62 0 1.81 1.81 0 0 1 3.62 0Zm3.05-12.27c0 .6-.49 1.09-1.09 1.09s-1.09-.49-1.09-1.09.49-1.09 1.09-1.09 1.09.49 1.09 1.09Zm10.85-5.33c0-.6.49-1.09 1.09-1.09s1.09.49 1.09 1.09-.49 1.09-1.09 1.09-1.09-.49-1.09-1.09ZM20.23 25.44c0 .6-.49 1.09-1.09 1.09s-1.09-.49-1.09-1.09.49-1.09 1.09-1.09 1.09.49 1.09 1.09ZM37.87 8.79c0-.6.49-1.09 1.09-1.09s1.09.49 1.09 1.09-.49 1.09-1.09 1.09-1.09-.49-1.09-1.09Zm23.9 19.53c-.2-.8-1.02-1.29-1.82-1.09s-1.29 1.02-1.09 1.82c.97 3.9-.4 7.49-1.88 9.37-.36.46-.74.85-1.13 1.15-.02-1.04-.23-1.88-.53-2.57 2.19-1.92 1.58-4.46 1.12-6.35-.18-.73-.34-1.42-.37-2.03-.07-1.54.95-2.76 2.12-4.17 1.54-1.85 3.45-4.16 2.89-7.7a1.504 1.504 0 0 0-2.97.47c.35 2.2-.85 3.64-2.23 5.31-1.37 1.65-2.92 3.51-2.81 6.21.04.9.25 1.77.45 2.6.43 1.79.55 2.63-.09 3.3-.79-.58-1.66-.93-2.46-1.12-1.31-6.48-.93-8.55 4.05-13.23.6-.57.63-1.52.07-2.12a1.51 1.51 0 0 0-2.12-.07c-5.69 5.34-6.41 8.36-5.04 15.5-.88.25-1.68.68-2.37 1.28-.38-2.38-.45-5.47.12-8.69.15-.82-.4-1.59-1.21-1.74-.81-.14-1.59.4-1.74 1.21-.81 4.54-.53 9.63.67 12.93 0 .03-.02.07-.03.1-.26 1.27-.78 2.72-1.73 4.22l-.73-.72a1.5 1.5 0 0 0-2.11 2.13l.97.95c-.97 1.01-2.19 2.02-3.69 2.98l-.58-.86a1.5 1.5 0 0 0-2.49 1.67l.45.66c-.65.32-1.33.64-2.07.95-1.29.53-2.3 1.45-2.97 2.56L27.7 53a1.51 1.51 0 0 0-1.89.96c-.26.79.18 1.63.96 1.89l.74.24c-.06.93.08 1.88.45 2.79.38.93.97 1.71 1.68 2.32l-.28.68c-.31.77.05 1.64.82 1.96.19.08.38.11.57.11.59 0 1.15-.35 1.39-.93l.2-.5c.47.1.96.17 1.47.17.73 0 1.48-.11 2.24-.35.95-.3 1.9-.67 2.84-1.08l.23.85a1.503 1.503 0 0 0 1.84 1.05c.8-.22 1.27-1.05 1.04-1.85l-.39-1.4c1.44-.8 2.85-1.73 4.19-2.76l1.17.99a1.485 1.485 0 0 0 2.11-.17c.54-.63.46-1.58-.17-2.11l-.81-.69c1.53-1.45 2.9-3.05 4.06-4.78l.91.49a1.496 1.496 0 0 0 2.03-.61c.39-.73.12-1.64-.61-2.03l-.8-.43c.75-1.5 1.31-3.08 1.68-4.71 1.4-.37 2.78-1.35 3.95-2.85 1.98-2.54 3.66-7.01 2.42-11.95ZM35.16 59.51c-1.93.6-3.74-.11-4.42-1.74-.69-1.68.11-3.6 1.79-4.29 9.83-4.05 12.92-9.94 13.78-14.17.36-1.75 1.7-2.94 3.27-2.94h.09c.52.01 1.69.26 2.44 1.09.57.64.82 1.55.72 2.72-.74 9.29-9.45 16.76-17.68 19.33Zm.46-2.79c-.02.75-.64 1.33-1.39 1.31-.75-.02-1.33-.64-1.31-1.39.02-.75.64-1.33 1.39-1.31.75.02 1.33.64 1.31 1.39Zm9.5-7.6c-.02.75-.64 1.33-1.39 1.31s-1.33-.64-1.31-1.39c.02-.75.64-1.33 1.39-1.31s1.33.64 1.31 1.39Zm6.42-8.96c-.02.75-.64 1.33-1.39 1.31-.75-.02-1.33-.64-1.31-1.39.02-.75.64-1.33 1.39-1.31.75.02 1.33.64 1.31 1.39Zm-3 8.83c-.01.45-.39.8-.83.79a.813.813 0 0 1-.79-.83c.01-.45.39-.8.83-.79.45.01.8.39.79.83Zm-10.28 4.23c-.01.45-.39.8-.83.79a.813.813 0 0 1-.79-.83c.01-.45.39-.8.83-.79.45.01.8.39.79.83Zm10.63-8.68c-.01.45-.39.8-.83.79s-.8-.39-.79-.83c.01-.45.39-.8.83-.79.45.01.8.39.79.83Zm-5.29 9.02c-.01.45-.39.8-.83.79a.813.813 0 0 1-.79-.83c.01-.45.39-.8.83-.79s.8.39.79.83Z" style="stroke-width:0"/>
</svg>
