<svg xmlns="http://www.w3.org/2000/svg" data-name="Layer 1" viewBox="0 0 64 64">
  <path d="M57.28 56.27c.08-1.07.28-2.48.53-4.25 1.12-7.85 3.2-22.47-.97-43.45 0-.01 0-.02-.01-.03l1.67-6.62c.11-.45.01-.92-.27-1.29s-.72-.58-1.18-.58H6.94c-.46 0-.9.21-1.18.58s-.38.84-.27 1.29l1.67 6.62s0 .02-.01.03c-4.13 21-2.07 35.62-.97 43.47.25 1.77.44 3.16.52 4.23.05.7-.11 1.73-.27 2.74-.19 1.23-.39 2.49-.29 3.58.07.77.72 1.37 1.49 1.37 1.15 0 2.61-.31 4.01-.61.8-.17 1.55-.33 2.06-.39 9.06-1.03 27.51-1.03 36.57 0 .51.06 1.27.22 2.06.39 1.4.3 2.86.61 4.01.61.78 0 1.43-.59 1.49-1.37.1-1.09-.1-2.35-.29-3.58-.16-1-.32-2.04-.27-2.74ZM22.08 3.05l.53 4.31H17.8l-1.07-4.31h5.34Zm25.16 0-1.07 4.31h-4.81l.53-4.31h5.34Zm-8.9 4.31h-4.85V3.05h5.39l-.53 4.31Zm-7.85 0h-4.85l-.53-4.31h5.39v4.31Zm23.54 0h-4.76l1.07-4.31h4.78l-1.09 4.31ZM13.64 3.05l1.07 4.31H9.95L8.86 3.05h4.78ZM54.83 51.6c-.26 1.83-.47 3.28-.55 4.46-.07 1.03.12 2.24.3 3.41.07.44.14.89.19 1.31-.59-.1-1.22-.24-1.82-.36-.87-.18-1.69-.36-2.35-.43-4.61-.53-11.62-.79-18.62-.79s-14.01.26-18.62.79c-.66.07-1.48.25-2.35.43-.59.13-1.23.26-1.82.36.05-.42.12-.87.19-1.31.18-1.17.37-2.38.3-3.41-.08-1.17-.29-2.61-.54-4.44-1.06-7.52-3.01-21.4.71-41.25H54.1c3.76 19.83 1.78 33.7.71 41.23ZM31.99 15.27c-11.63 0-21.09 9.05-21.09 20.18 0 4.76 1.74 9.13 4.62 12.58.07.12.16.23.26.32 3.87 4.45 9.7 7.28 16.2 7.28s12.42-2.88 16.29-7.38c.04-.05.08-.09.11-.14 2.92-3.46 4.68-7.86 4.68-12.65 0-11.13-9.46-20.18-21.09-20.18ZM19.67 48c3.42-.85 7.75-1.32 12.32-1.32s8.9.48 12.32 1.32c-3.23 2.87-7.56 4.63-12.32 4.63S22.91 50.86 19.67 48Zm26.94-2.48c-3.52-1.07-8.17-1.71-13.12-1.82v-7.13c3.01-.67 5.66-2.45 7.39-5.02 1.69-2.51 2.29-5.46 1.59-7.9a1.5 1.5 0 0 0-1.44-1.09c-3.92 0-8.01 2.39-9.71 6.89-2.05-2.86-5.26-4.36-8.36-4.36a1.5 1.5 0 0 0-1.44 1.09c-.69 2.44-.1 5.39 1.59 7.9 1.73 2.57 4.38 4.35 7.39 5.02v4.6c-4.95.11-9.6.75-13.12 1.82-2.17-2.83-3.46-6.31-3.46-10.07 0-9.47 8.11-17.18 18.09-17.18S50.1 25.98 50.1 35.45c0 3.76-1.3 7.24-3.46 10.07Zm-13.1-12.06c.27-4.93 3.55-7.22 6.24-7.77.01 1.34-.47 2.85-1.36 4.18a9.025 9.025 0 0 1-4.88 3.59Zm-3.04 2.53a9.025 9.025 0 0 1-4.88-3.59c-.9-1.33-1.38-2.84-1.36-4.18 2.7.55 5.97 2.84 6.25 7.77Z" style="stroke-width:0"/>
</svg>
