<svg xmlns="http://www.w3.org/2000/svg" data-name="Layer 1" viewBox="0 0 64 64">
  <path d="M55.52.17H8.48c-.83 0-1.5.67-1.5 1.5v60.65c0 .83.67 1.5 1.5 1.5h47.04c.83 0 1.5-.67 1.5-1.5V1.67c0-.83-.67-1.5-1.5-1.5Zm-1.5 60.65H9.98V3.17h44.04v57.65ZM26.63 23.09c0-.83.67-1.5 1.5-1.5h16.09c.83 0 1.5.67 1.5 1.5s-.67 1.5-1.5 1.5H28.13c-.83 0-1.5-.67-1.5-1.5Zm0 8.91c0-.83.67-1.5 1.5-1.5h16.09c.83 0 1.5.67 1.5 1.5s-.67 1.5-1.5 1.5H28.13c-.83 0-1.5-.67-1.5-1.5Zm0 8.91c0-.83.67-1.5 1.5-1.5h16.09c.83 0 1.5.67 1.5 1.5s-.67 1.5-1.5 1.5H28.13c-.83 0-1.5-.67-1.5-1.5Zm0 8.91c0-.83.67-1.5 1.5-1.5h16.09c.83 0 1.5.67 1.5 1.5s-.67 1.5-1.5 1.5H28.13c-.83 0-1.5-.67-1.5-1.5Zm0-35.65c0-.83.67-1.5 1.5-1.5h16.09c.83 0 1.5.67 1.5 1.5s-.67 1.5-1.5 1.5H28.13c-.83 0-1.5-.67-1.5-1.5Zm-7.84 1.41v-2.82c0-.44.36-.8.8-.8h2.82c.44 0 .8.36.8.8v2.82c0 .44-.36.8-.8.8h-2.82c-.44 0-.8-.36-.8-.8Zm4.42 15.01v2.82c0 .44-.36.8-.8.8h-2.82c-.44 0-.8-.36-.8-.8v-2.82c0-.44.36-.8.8-.8h2.82c.44 0 .8.36.8.8Zm0 8.91v2.82c0 .44-.36.8-.8.8h-2.82c-.44 0-.8-.36-.8-.8V39.5c0-.44.36-.8.8-.8h2.82c.44 0 .8.36.8.8Zm0 8.91v2.82c0 .44-.36.8-.8.8h-2.82c-.44 0-.8-.36-.8-.8v-2.82c0-.44.36-.8.8-.8h2.82c.44 0 .8.36.8.8Zm-6.53-23.93a1.49 1.49 0 0 1 0-2.12 1.49 1.49 0 0 1 2.12 0l.75.75 3.65-3.65a1.49 1.49 0 0 1 2.12 0c.59.59.59 1.54 0 2.12l-4.71 4.71c-.29.29-.68.44-1.06.44s-.77-.15-1.06-.44l-1.81-1.81Z" style="stroke-width:0"/>
</svg>
