<svg xmlns="http://www.w3.org/2000/svg" data-name="Layer 1" viewBox="0 0 64 64">
  <path d="M63.8 17.76c-.85-2.1-2.85-6-7.2-10.35S48.35 1.05 46.24.2c-.3-.12-.61-.18-.93-.18-.69 0-1.38.28-1.91.81L.83 43.41c-.76.76-1.01 1.88-.63 2.83.85 2.1 2.85 6 7.2 10.35s8.25 6.35 10.35 7.2c.3.12.61.18.93.18.69 0 1.38-.28 1.91-.81l42.58-42.57c.76-.76 1.01-1.88.63-2.83ZM18.61 60.9c-1.84-.78-5.24-2.59-9.08-6.43s-5.65-7.25-6.43-9.08L45.39 3.1c1.84.78 5.24 2.59 9.08 6.43s5.65 7.25 6.43 9.08L18.61 60.9Zm18.42-42.65c-.59-.59-1.37-.89-2.15-.89s-1.56.3-2.15.89L18.25 32.73a3.036 3.036 0 0 0 0 4.3l8.72 8.72c.59.59 1.37.89 2.15.89s1.56-.3 2.15-.89l14.48-14.48a3.036 3.036 0 0 0 0-4.3l-8.72-8.72Zm6.59 10.89L29.14 43.62h-.06l-8.72-8.72c-.02-.02-.02-.04 0-.06l14.48-14.48s.01-.01.03-.01h.03l8.72 8.73c.02.02.02.04 0 .06Zm11.12-11.56c0 .86-.7 1.57-1.57 1.57s-1.57-.7-1.57-1.57.7-1.57 1.57-1.57 1.57.7 1.57 1.57Zm-3.91 3.91c0 .86-.7 1.57-1.57 1.57s-1.57-.7-1.57-1.57.7-1.57 1.57-1.57 1.57.7 1.57 1.57Zm-9.9-6.77c0-.86.7-1.57 1.57-1.57s1.57.7 1.57 1.57-.7 1.57-1.57 1.57-1.57-.7-1.57-1.57Zm7.04-3.91c0 .87-.7 1.57-1.57 1.57s-1.57-.7-1.57-1.57.7-1.57 1.57-1.57 1.57.7 1.57 1.57ZM23.06 49.26c0 .87-.7 1.57-1.57 1.57s-1.57-.7-1.57-1.57.7-1.57 1.57-1.57 1.57.7 1.57 1.57Zm-3.91 3.91c0 .86-.7 1.57-1.57 1.57s-1.57-.7-1.57-1.57.7-1.57 1.57-1.57 1.57.7 1.57 1.57Zm-6.77-6.77c0 .87-.7 1.57-1.57 1.57s-1.57-.7-1.57-1.57.7-1.57 1.57-1.57 1.57.7 1.57 1.57Zm3.91-3.91c0 .86-.7 1.57-1.57 1.57s-1.57-.7-1.57-1.57.7-1.57 1.57-1.57 1.57.7 1.57 1.57Z" style="stroke-width:0"/>
</svg>
