<svg xmlns="http://www.w3.org/2000/svg" data-name="Layer 1" viewBox="0 0 64 64">
  <path d="M32 .02C14.37.02.02 14.36.02 32S14.37 63.98 32 63.98 63.98 49.63 63.98 32 49.63.02 32 .02Zm0 3c7.6 0 14.52 2.94 19.7 7.75-.25.08-.48.25-.62.5-.31.54-.12 1.23.42 1.54.57.33 1.14.63 1.73.93-.85.39-1.73.76-2.62 1.1-1.03-.65-1.99-1.3-2.91-2-.49-.37-1.2-.27-1.58.22-.37.5-.27 1.2.22 1.58.52.39 1.04.76 1.58 1.13-.9.28-1.82.54-2.75.77-.87-.72-1.78-1.48-2.66-2.31-.45-.43-1.16-.41-1.59.04-.43.45-.41 1.16.04 1.59.48.45.96.88 1.44 1.3-.93.18-1.88.33-2.83.46-.74-.75-1.51-1.58-2.4-2.59-.41-.47-1.12-.51-1.59-.1-.47.41-.51 1.12-.1 1.59.45.52.87.98 1.28 1.42-.95.08-1.9.14-2.86.17-.74-.91-1.46-1.86-2.14-2.83-.36-.51-1.06-.63-1.57-.28-.51.36-.63 1.06-.28 1.57.37.53.77 1.05 1.17 1.57-.97-.02-1.94-.05-2.9-.12a53.36 53.36 0 0 1-1.83-3.03c-.3-.54-.99-.74-1.53-.44s-.74.99-.43 1.53c.3.53.62 1.08.98 1.68-.96-.12-1.9-.25-2.84-.41-.57-1.11-1.08-2.24-1.5-3.22-.25-.57-.91-.83-1.48-.59-.57.25-.83.91-.59 1.48.23.52.49 1.13.78 1.76-.94-.22-1.86-.46-2.76-.73-.4-1.07-.78-2.19-1.1-3.34-.17-.6-.8-.95-1.39-.78-.6.17-.95.79-.78 1.39.18.63.37 1.24.57 1.85-.9-.33-1.78-.68-2.64-1.05-.17-.74-.32-1.48-.44-2.22C16.46 6.41 23.84 3.02 32 3.02ZM6.87 17.6c.14 0 .27-.02.41-.08 1.19-.47 2.37-1.02 3.53-1.61.93.4 1.88.78 2.85 1.13-.53.34-1.08.67-1.65 1-.54.31-.72 1-.42 1.54a1.132 1.132 0 0 0 1.54.41c1.16-.67 2.22-1.34 3.26-2.06.97.28 1.95.54 2.95.78-.48.39-.98.78-1.53 1.2-.49.38-.59 1.08-.21 1.58a1.122 1.122 0 0 0 1.57.21c1.11-.85 2.05-1.6 2.97-2.4.99.17 2 .32 3.01.44-.47.48-.93.93-1.37 1.34-.45.43-.47 1.14-.05 1.59.22.24.52.35.82.35.28 0 .55-.1.77-.31a63.7 63.7 0 0 0 2.7-2.72c1 .07 2 .11 3.01.12-.4.5-.79 1-1.21 1.48-.41.47-.36 1.18.11 1.59.21.19.48.28.74.28.31 0 .63-.13.85-.39.83-.96 1.64-1.96 2.4-2.98 1.02-.03 2.03-.1 3.04-.18-.33.5-.68 1.03-1.09 1.62a1.123 1.123 0 0 0 .93 1.76c.36 0 .71-.17.93-.49.86-1.26 1.51-2.26 2.09-3.22 1.01-.14 2.01-.3 3-.49-.29.57-.58 1.14-.9 1.7-.31.54-.12 1.23.42 1.53.18.1.37.15.55.15.39 0 .77-.2.98-.57.66-1.16 1.25-2.36 1.75-3.43.99-.25 1.97-.52 2.93-.83-.23.61-.46 1.21-.7 1.79a1.125 1.125 0 0 0 1.04 1.56c.44 0 .86-.26 1.04-.69.48-1.14.93-2.35 1.34-3.6.97-.37 1.91-.77 2.83-1.19-.14.62-.3 1.23-.47 1.84a1.126 1.126 0 0 0 1.09 1.43c.49 0 .94-.32 1.08-.82.17-.6.32-1.2.46-1.81 2.98 4.55 4.72 9.99 4.72 15.83 0 5.24-1.41 10.16-3.85 14.41-.13 0-.27.02-.4.07-1.19.47-2.37 1.02-3.53 1.61-.93-.41-1.88-.78-2.85-1.13.53-.34 1.08-.67 1.65-1 .54-.31.72-1 .42-1.54-.31-.54-1-.72-1.54-.42-1.16.67-2.22 1.34-3.26 2.06-.97-.28-1.95-.54-2.95-.78.48-.39.98-.78 1.52-1.2.49-.38.59-1.08.21-1.58-.38-.49-1.08-.59-1.58-.21-1.11.85-2.05 1.6-2.97 2.4-.99-.17-2-.32-3.01-.44.48-.48.93-.94 1.37-1.34.45-.43.47-1.14.05-1.59-.42-.45-1.14-.47-1.59-.05-.82.77-1.68 1.64-2.7 2.72-1-.07-2-.11-3.01-.12.4-.5.79-1 1.21-1.48.41-.47.36-1.18-.11-1.59-.47-.41-1.18-.36-1.59.11-.83.96-1.64 1.96-2.4 2.98-1.02.03-2.03.1-3.04.18.33-.5.68-1.03 1.09-1.62.35-.51.22-1.21-.29-1.56-.51-.35-1.21-.22-1.56.29-.86 1.25-1.51 2.25-2.09 3.22-1.01.14-2.01.3-3 .49.29-.57.58-1.14.9-1.7.31-.54.12-1.23-.42-1.53-.54-.31-1.23-.12-1.53.42-.66 1.16-1.25 2.36-1.75 3.43-.99.25-1.97.52-2.93.83.23-.61.46-1.21.7-1.79.24-.57-.03-1.23-.6-1.47s-1.23.03-1.47.6c-.48 1.14-.93 2.35-1.34 3.6-.97.37-1.91.77-2.83 1.19.14-.62.29-1.23.47-1.84.17-.6-.18-1.22-.78-1.39-.6-.17-1.22.18-1.39.78-.17.6-.32 1.2-.46 1.81a28.805 28.805 0 0 1-4.72-15.83c0-5.24 1.41-10.16 3.85-14.4ZM32 60.99c-7.6 0-14.52-2.94-19.69-7.74.25-.08.48-.25.62-.5.31-.54.12-1.23-.42-1.54-.57-.33-1.14-.63-1.73-.93.85-.39 1.73-.76 2.62-1.1 1.02.65 1.99 1.3 2.91 2 .2.15.44.23.68.23.34 0 .68-.15.9-.45.37-.5.27-1.2-.22-1.58-.52-.39-1.04-.76-1.58-1.13.9-.28 1.82-.54 2.75-.77.87.71 1.78 1.48 2.66 2.31a1.121 1.121 0 0 0 1.59-.04c.43-.45.41-1.16-.04-1.59-.48-.45-.96-.88-1.44-1.3.93-.18 1.88-.33 2.83-.46.73.74 1.5 1.57 2.41 2.59.22.25.53.38.84.38a1.125 1.125 0 0 0 .85-1.87c-.46-.52-.87-.98-1.28-1.41.95-.08 1.9-.14 2.86-.17.74.91 1.46 1.86 2.14 2.83.22.31.57.48.92.48.22 0 .45-.07.64-.2.51-.36.63-1.06.28-1.57-.37-.53-.77-1.05-1.17-1.57.97.02 1.94.05 2.9.12.75 1.17 1.33 2.12 1.83 3.03.21.37.59.58.98.58.19 0 .37-.05.55-.14.54-.3.74-.99.43-1.53-.3-.53-.62-1.08-.98-1.68.96.11 1.9.25 2.84.41.58 1.13 1.1 2.3 1.5 3.22a1.117 1.117 0 0 0 1.47.59c.57-.25.83-.91.59-1.48-.23-.52-.49-1.13-.78-1.76.94.22 1.86.46 2.76.73.4 1.07.77 2.18 1.1 3.34.14.5.59.82 1.08.82a1.126 1.126 0 0 0 1.09-1.43c-.18-.63-.37-1.24-.57-1.85.9.33 1.78.68 2.64 1.05.17.74.32 1.48.44 2.22-5.27 5.45-12.65 8.85-20.82 8.85Z" style="stroke-width:0"/>
</svg>
