<svg xmlns="http://www.w3.org/2000/svg" data-name="Layer 1" viewBox="0 0 64 64">
  <path d="M22.2 35.37s0-.02-.02-.03c-.05-.06-.11-.11-.17-.18-.16-.17-.31-.34-.48-.5-.09-.08-.18-.17-.27-.25-.16-.14-.32-.28-.49-.41-.1-.08-.2-.15-.31-.23-.17-.12-.35-.24-.53-.35-.1-.07-.21-.13-.32-.19-.19-.11-.38-.21-.58-.31-.1-.05-.2-.1-.31-.15-.21-.09-.43-.18-.65-.26-.1-.04-.19-.07-.29-.11-.23-.08-.47-.14-.72-.2-.09-.02-.18-.05-.26-.07-.26-.06-.52-.09-.78-.13-.08-.01-.16-.03-.23-.04a8.937 8.937 0 0 0-2.08 0c-.08 0-.16.03-.24.04-.26.03-.52.07-.77.13-.09.02-.19.05-.28.07-.24.06-.47.12-.7.19-.1.03-.2.07-.31.11-.21.08-.42.16-.63.25-.11.05-.22.1-.33.16-.19.09-.38.19-.56.3-.11.06-.22.13-.33.2-.18.11-.35.23-.51.35-.11.08-.21.15-.31.23-.17.13-.33.27-.48.41-.09.08-.18.16-.27.25-.17.17-.33.34-.49.52-.05.06-.11.1-.15.16 0 0 0 .02-.01.02C5.88 37.06 5 39.27 5 41.68s.89 4.62 2.34 6.33c0 0 0 .02.01.02.05.06.1.1.15.16.16.18.33.36.5.52.09.08.18.16.26.24.16.14.32.28.49.42.1.08.2.15.3.23.17.12.34.24.52.35.11.07.21.13.32.2.19.11.38.21.57.3.11.05.21.11.32.15.21.09.42.17.63.25.1.04.2.08.31.11.23.07.46.14.7.19.09.02.19.05.28.07.25.05.5.09.76.12.09.01.17.03.26.04.32.03.64.05.97.05h.12c.33 0 .65-.02.97-.05.09 0 .17-.03.25-.04.26-.03.51-.07.76-.12.09-.02.19-.05.28-.07.24-.06.47-.12.7-.2.1-.03.2-.07.3-.11.22-.08.43-.16.64-.26.11-.05.21-.1.31-.15.2-.1.39-.2.58-.31.11-.06.21-.13.32-.19.18-.11.35-.23.53-.35.1-.07.2-.15.3-.23a9.662 9.662 0 0 0 .76-.66c.17-.16.33-.33.48-.51.05-.06.11-.11.16-.17 0 0 0-.02.01-.02 1.46-1.71 2.34-3.92 2.34-6.33s-.88-4.62-2.34-6.33Zm-3.39 11.75c-.55.41-1.16.74-1.8.96-.04.01-.07.03-.11.04-.31.1-.63.18-.95.24l-.18.03c-.33.05-.66.08-1 .08h-.02a6.4 6.4 0 0 1-.99-.08c-.06 0-.12-.02-.18-.03a7.77 7.77 0 0 1-.95-.24c-.04-.01-.08-.03-.11-.04a7.66 7.66 0 0 1-.93-.4c-.3-.16-.59-.35-.86-.56-.02-.01-.04-.03-.06-.04 1.17-.9 2.61-1.39 4.1-1.39s2.93.5 4.1 1.39c-.02.01-.04.03-.06.04Zm-4.04-4.44c-2.21 0-4.32.75-6.02 2.1-.47-.92-.75-1.97-.75-3.08s.27-2.15.75-3.08c1.71 1.34 3.82 2.09 6.02 2.09s4.32-.75 6.02-2.09c.47.92.75 1.97.75 3.08s-.27 2.15-.75 3.08a9.756 9.756 0 0 0-6.02-2.09Zm-4.05-6.4c.28-.21.56-.4.86-.56.3-.16.61-.29.93-.41.04-.01.07-.03.11-.04.31-.1.63-.18.95-.24l.18-.03c.33-.05.67-.08 1.01-.08s.67.03 1.01.08c.06 0 .12.02.18.03.32.06.64.14.95.24.04.01.07.03.11.04.32.11.64.25.94.41.3.16.59.35.86.56.02.01.04.03.06.04-1.17.9-2.61 1.39-4.1 1.39s-2.93-.5-4.1-1.39c.02-.01.04-.03.06-.04Zm52.24 18.64a1.49 1.49 0 0 0-2.12 0l-.5.5-13.8-13.8-5.67-9.54s-.05-.07-.07-.11C38 28.08 34.85 24.39 31.46 21L12.9 2.43A6.211 6.211 0 0 0 8.75.6c-1.58-.05-3.07.52-4.16 1.61L2.21 4.59C1.11 5.68.54 7.16.6 8.75c.05 1.55.7 3.02 1.83 4.15l18.56 18.56c3.39 3.39 7.08 6.53 10.97 9.34.04.03.07.05.11.07l9.54 5.67 13.8 13.8-.5.5a1.49 1.49 0 0 0 0 2.12c.29.29.68.44 1.06.44s.77-.15 1.06-.44l5.92-5.92c.59-.59.59-1.54 0-2.12ZM23.1 29.33 4.55 10.78c-.59-.59-.92-1.34-.95-2.13-.03-.75.24-1.44.74-1.94l2.38-2.38c.5-.5 1.2-.76 1.94-.74.79.03 1.54.37 2.13.95L29.35 23.1c3.26 3.26 6.29 6.82 8.99 10.55l5.14 8.65-1.16 1.16-8.64-5.14a88.753 88.753 0 0 1-10.56-8.99Zm22.25 15.33 12.88 12.88-.69.69-12.88-12.88.69-.69Z" style="stroke-width:0"/>
</svg>
