<svg xmlns="http://www.w3.org/2000/svg" data-name="Layer 1" viewBox="0 0 64 64">
  <path d="M63.98 32c0-9.33-4.01-17.73-10.4-23.58-.09-.11-.19-.2-.31-.28C47.61 3.09 40.16.02 32 .02S16.39 3.1 10.73 8.14c-.12.08-.22.17-.31.28C4.03 14.27.02 22.67.02 32s4.01 17.73 10.4 23.58c.09.11.19.2.31.28 5.66 5.05 13.11 8.12 21.27 8.12s15.61-3.08 21.27-8.12c.12-.08.22-.17.31-.28 6.39-5.85 10.4-14.26 10.4-23.58Zm-11.2 20.18c-.59-.95-1.27-1.91-1.99-2.9-2.73-3.81-6.09-8.48-6.5-15.78h16.65c-.37 7.24-3.42 13.79-8.17 18.68ZM33.5 30.5V3.06c6.46.33 12.37 2.79 17.04 6.69-.58.99-1.34 2.05-2.19 3.23-2.83 3.94-6.65 9.27-7.07 17.53h-7.79Zm-3 0h-7.79c-.42-8.26-4.23-13.58-7.07-17.52-.85-1.18-1.6-2.24-2.19-3.23 4.67-3.9 10.58-6.36 17.04-6.69V30.5Zm0 3v27.44a28.826 28.826 0 0 1-17.04-6.69c.58-.99 1.34-2.05 2.19-3.23 2.83-3.94 6.65-9.27 7.07-17.53h7.79Zm3 0h7.79c.42 8.26 4.23 13.58 7.07 17.53.85 1.18 1.6 2.23 2.19 3.23a28.826 28.826 0 0 1-17.04 6.69V33.51Zm27.44-3H44.29c.41-7.29 3.77-11.97 6.5-15.78.71-.99 1.39-1.95 1.99-2.9 4.75 4.89 7.8 11.43 8.17 18.68ZM11.22 11.82c.59.95 1.27 1.91 1.99 2.9 2.73 3.81 6.09 8.48 6.5 15.78H3.06c.37-7.24 3.42-13.79 8.17-18.68ZM3.06 33.5h16.66c-.41 7.29-3.77 11.97-6.5 15.78-.71.99-1.39 1.95-1.99 2.9-4.75-4.89-7.8-11.43-8.17-18.68ZM38.2 57.68c0 .87-.71 1.58-1.58 1.58s-1.58-.71-1.58-1.58.71-1.58 1.58-1.58 1.58.71 1.58 1.58Zm4.71-1.54c0 .87-.71 1.58-1.58 1.58s-1.58-.71-1.58-1.58.71-1.58 1.58-1.58 1.58.71 1.58 1.58Zm-3.59-2.96c0 .87-.71 1.58-1.58 1.58s-1.58-.71-1.58-1.58.71-1.58 1.58-1.58 1.58.71 1.58 1.58ZM25.81 6.32c0-.87.71-1.58 1.58-1.58s1.58.71 1.58 1.58-.71 1.58-1.58 1.58-1.58-.71-1.58-1.58ZM21.1 7.86c0-.87.71-1.58 1.58-1.58s1.58.71 1.58 1.58-.71 1.58-1.58 1.58-1.58-.71-1.58-1.58Zm3.59 2.96c0-.87.71-1.58 1.58-1.58s1.58.71 1.58 1.58-.71 1.58-1.58 1.58-1.58-.71-1.58-1.58Z" style="stroke-width:0"/>
</svg>
