<svg xmlns="http://www.w3.org/2000/svg" viewBox="0 0 64 64">
  <path d="M64 28.4c0-2-1.7-3.7-3.7-3.7h-6.7l-3.2-10.6c-.5-1.7-2.1-2.9-3.8-2.9h-3.3v-.7c0-.8-.7-1.5-1.5-1.5H22.5c-.8 0-1.5.7-1.5 1.5v.7h-3.3c-1.8 0-3.3 1.1-3.9 2.9l-3.2 10.6H3.7c-2 0-3.7 1.7-3.7 3.7s.9 2.9 2.3 3.4l4.3 25.9c.1.7.8 1.2 1.5 1.2h47.8c.7 0 1.4-.5 1.5-1.2l4.3-25.9c1.3-.5 2.3-1.9 2.3-3.4ZM23.9 12.1h16.3v1.4H23.9v-1.4ZM16.6 15c.1-.4.5-.7 1-.7h3.3v.7c0 .8.7 1.5 1.5 1.5h19.3c.8 0 1.5-.7 1.5-1.5v-.7h3.3c.5 0 .8.3 1 .7l3 9.7H13.6l3-9.7ZM3.7 27.7h56.5c.4 0 .7.3.7.7s-.3.7-.7.7H3.7c-.4 0-.7-.3-.7-.7s.3-.7.7-.7Zm50.9 28.2H9.4L5.5 32.1h53.2l-4 23.8Zm-34-4.4h22.8c.8 0 1.5-.7 1.5-1.5V38c0-.8-.7-1.5-1.5-1.5H20.6c-.8 0-1.5.7-1.5 1.5v12c0 .8.7 1.5 1.5 1.5Zm1.5-12h19.8v9H22.1v-9Z"/>
</svg>
