<svg xmlns="http://www.w3.org/2000/svg" data-name="Layer 1" viewBox="0 0 64 64">
  <path d="M45.25 0H18.76C9.44 0 1.86 7.58 1.86 16.9v24a4.66 4.66 0 0 0 4.65 4.65h11.54l1.54 17.08c.05.58.43 1.07.97 1.27.54.2 1.15.07 1.57-.33l4.32-4.18 4.53 4.21c.58.53 1.46.53 2.04 0l4.53-4.21 4.32 4.18c.29.28.66.42 1.04.42.18 0 .35-.03.52-.09.54-.2.92-.7.97-1.27l1.54-17.08h11.54a4.66 4.66 0 0 0 4.65-4.65v-24C62.14 7.58 54.56 0 45.25 0Zm-1.74 31.51H20.5V19.54h23.01v11.97Zm3.25 3c.83 0 1.51.68 1.51 1.51v.28c0 .83-.68 1.51-1.51 1.51H17.24c-.83 0-1.51-.68-1.51-1.51v-.28c0-.83.68-1.51 1.51-1.51h29.52Zm-9.27 20.64-3.34-3.24 3.82-3.71 3.65 3.53-4.13 3.41Zm-10.99 0-4.13-3.41 3.65-3.53 3.82 3.71-3.34 3.24Zm1.67-9.03 3.82-3.71 3.82 3.71-3.82 3.71-3.82-3.71Zm13.13-5.31-3.32 3.22-3.32-3.22h6.65Zm-11.96 0-3.32 3.22-3.32-3.22h6.65Zm10.79 5.31 3.01-2.92-.49 5.37-2.53-2.45Zm-16.27 0-2.53 2.45-.49-5.37 3.01 2.92Zm-1.92 9.15 2.4 1.98-2.04 1.98-.36-3.95ZM32 60.44l-3.39-3.15L32 54l3.39 3.29L32 60.44Zm9.7-1.22-2.04-1.98 2.4-1.98-.36 3.95Zm17.44-18.33c0 .91-.74 1.65-1.65 1.65H46.22l.16-1.74h.38c2.49 0 4.51-2.02 4.51-4.51v-.28c0-2.49-2.02-4.51-4.51-4.51h-.25V18.03c0-.83-.67-1.5-1.5-1.5H19c-.83 0-1.5.67-1.5 1.5V31.5h-.25c-2.49 0-4.51 2.02-4.51 4.51v.28c0 2.49 2.02 4.51 4.51 4.51h.38l.16 1.74H6.51c-.91 0-1.65-.74-1.65-1.65v-24C4.86 9.23 11.09 3 18.75 3h26.49c7.66 0 13.89 6.23 13.89 13.89v24Z" style="stroke-width:0"/>
</svg>
