<svg xmlns="http://www.w3.org/2000/svg" data-name="Layer 1" viewBox="0 0 64 64">
  <path d="M62.13 24.22c.49-.66 1.17-1.57 1.07-2.74-.11-1.17-.93-1.94-1.54-2.51-.2-.19-.51-.48-.58-.6-.06-.14-.06-.58-.06-.87 0-.81 0-1.92-.77-2.77-.76-.84-1.82-.99-2.68-1.1-.3-.04-.76-.1-.9-.18-.12-.07-.39-.43-.56-.66-.49-.65-1.16-1.54-2.29-1.79-.38-.08-1-.1-1.61-.09l-.03-.28c-.01-.14.12-.55.21-.82.24-.75.58-1.77.14-2.79-.45-1.04-1.45-1.5-2.18-1.85-.25-.12-.63-.3-.73-.39-.09-.1-.22-.5-.31-.75-.25-.75-.6-1.77-1.58-2.34-.96-.55-1.98-.38-2.8-.24-.29.05-.74.13-.88.09-.13-.03-.47-.27-.69-.43C42.71.65 41.8.02 40.67.12c-1.39.12-2.34.79-3.27 1.43l-.32.22c-.29.2-.66.24-1 .12-1.15-.42-2.01-.67-2.56-.75-1.13-.17-2.06.41-2.74.83-.23.14-.58.36-.71.39-.15.02-.59-.08-.88-.14-.82-.19-1.83-.42-2.81.08-1.01.51-1.41 1.51-1.71 2.25-.1.25-.26.64-.35.73-.1.09-.49.25-.75.35-.75.3-1.77.71-2.28 1.72-.5.99-.23 2.03-.02 2.79.07.28.18.69.17.83-.01.09-.03.19-.05.28-.61-.05-1.23-.06-1.62 0-1.14.18-1.86 1.04-2.39 1.66-.19.22-.47.56-.6.62-.14.07-.6.11-.91.13-.86.07-1.93.15-2.74.95-.81.81-.88 1.91-.93 2.72-.02.29-.05.73-.11.86-.07.12-.39.39-.61.57-.64.53-1.51 1.26-1.68 2.42-.17 1.16.45 2.11.91 2.8.15.23.38.59.42.72.02.14-.08.58-.15.86-.19.79-.44 1.87.11 2.87.54 1 1.54 1.39 2.35 1.7.29.11.72.28.83.39.1.1.28.5.39.77.32.75.76 1.77 1.8 2.28 1 .49 2.03.23 2.85.03.33-.08.76-.19.95-.16.18.03.58.26.86.43.73.43 1.63.97 2.73.79.24-.04.98-.16 3.35-1.12.31-.13.67-.09.95.1l.54.36c1.28.87 2.18 1.45 2.98 1.63.2.04.4.06.58.06.84 0 1.58-.38 2.19-.7.3-.15.71-.36.89-.38.2-.01.62.12.94.22.81.25 1.82.56 2.85.13.15-.06.29-.14.43-.22 3.29 8.88 3.6 17.91 3.54 27.66a1.499 1.499 0 0 0 1.5 1.51h7.67c.42 0 .83-.18 1.11-.49.28-.31.42-.73.38-1.15-.5-5.02-1.04-9.76-1.89-14.37 0 0 .01 0 .01-.02l3.55-4.57h4.07c.83 0 1.5-.67 1.5-1.5s-.67-1.5-1.5-1.5h-1.74l2.12-2.73c.51-.65.39-1.6-.26-2.1s-1.6-.39-2.1.27l-6.44 8.3c-.78-3.38-1.78-6.71-3.09-10.05.13.05.26.1.41.14 1.08.24 2.02-.25 2.78-.64.3-.15.71-.37.89-.38.18-.02.62.12.94.22.81.25 1.82.56 2.85.13 1.07-.45 1.57-1.44 1.93-2.17.13-.26.33-.65.44-.75.12-.1.56-.24.85-.34.82-.27 1.85-.6 2.44-1.56.6-.97.41-2.06.27-2.86-.05-.29-.13-.72-.1-.86.04-.14.29-.47.46-.7Zm-16.02 36.7c.02-9.8-.47-18.93-4.02-28.02l.14-.12c.22-.19.59-.46.98-.73.17-.12.37-.19.57-.24 4.36 9.43 5.78 18.67 6.85 29.1h-4.51Zm13.61-38.49c-.38.5-.8 1.08-.97 1.79-.17.74-.05 1.45.06 2.08.04.24.1.57.1.76-.17.1-.53.21-.78.29-.61.2-1.3.42-1.87.91-.57.49-.89 1.12-1.17 1.69-.11.22-.29.58-.41.72-.19-.02-.55-.13-.81-.21-.62-.19-1.33-.41-2.09-.34-.77.07-1.42.41-2 .7-.27.14-.68.35-.76.37-.2-.04-.4-.23-.73-.55-.31-.3-.69-.67-1.2-.96-.24-.14-.58-.31-.96-.49-1.5-.71-3.28-.56-4.65.4-.55.39-.95.68-1.21.9l-.28.24c-.65.56-1.38 1.19-1.95 1.44-.15.01-.59-.12-.88-.21-.62-.19-1.33-.41-2.09-.34-.77.07-1.42.41-2 .7-.27.14-.68.35-.75.37-.34-.09-1.35-.77-1.95-1.18l-.56-.38a4.004 4.004 0 0 0-3.73-.39c-1.91.77-2.55.91-2.62.93-.15-.02-.54-.25-.81-.41-.56-.33-1.19-.7-1.95-.82-.76-.11-1.47.06-2.11.22-.26.06-.63.15-.82.16-.11-.15-.27-.52-.37-.75-.25-.58-.53-1.24-1.08-1.75-.54-.52-1.22-.78-1.82-1.01-.24-.09-.59-.23-.76-.33.01-.19.09-.52.14-.75.15-.62.31-1.32.18-2.07-.13-.73-.52-1.32-.87-1.85-.13-.2-.34-.52-.42-.7.12-.15.42-.4.61-.55.48-.4 1.03-.86 1.36-1.52.34-.68.39-1.4.43-2.04.01-.24.04-.58.08-.76.19-.05.57-.08.83-.1.64-.05 1.36-.11 2.03-.44.67-.34 1.13-.88 1.54-1.37.18-.22.49-.58.56-.63.25-.03 1.24.04 2.12.15.72.09 1.42-.37 1.63-1.08.01-.04.3-1.05.42-1.88.11-.75-.07-1.44-.24-2.04-.05-.2-.13-.48-.15-.65.17-.1.46-.22.68-.3.57-.23 1.22-.49 1.74-1.01.53-.52.79-1.17 1.02-1.74.08-.21.2-.51.3-.66.19.01.53.09.76.14.61.14 1.3.3 2.03.18.71-.11 1.3-.48 1.82-.8.24-.15.63-.39.72-.42.26.04.92.22 1.98.6 1.24.45 2.63.28 3.71-.46l.34-.24c.8-.56 1.25-.85 1.77-.91.14.03.53.3.75.46.5.35 1.06.75 1.77.9.72.16 1.42.04 2.04-.07.24-.04.58-.1.77-.1.08.16.19.46.26.68.2.58.42 1.25.92 1.8.49.54 1.12.84 1.68 1.1.22.1.54.25.66.31-.03.17-.13.46-.19.67-.2.6-.42 1.27-.35 2.03.07.83.3 1.86.31 1.9.16.72.83 1.22 1.56 1.17.88-.06 1.88-.07 2.06-.05.13.07.42.45.59.68.38.5.81 1.07 1.45 1.45.65.38 1.37.47 2 .56.26.04.63.08.82.15.03.18.03.52.03.76 0 .64 0 1.36.31 2.06.3.68.82 1.16 1.27 1.59.18.17.46.43.57.59-.08.18-.31.48-.46.68Zm-23.07-6.41a1.502 1.502 0 0 1-2.22 2.02c-.16-.18-.38-.38-.55-.52-.07.05-.15.11-.21.16-.38.3-.87.67-1.49.83-.61.15-1.2.06-1.67-.01-.08-.01-.19-.03-.29-.04-.03.09-.06.2-.08.28-.13.46-.29 1.04-.68 1.53-.41.51-.94.79-1.37 1.02-.07.04-.16.08-.24.13.06.27.19.63.29.87a1.507 1.507 0 0 1-1.37 2.11c-.58 0-1.13-.34-1.38-.9-.4-.92-.81-2.22-.45-3.19.35-.94 1.19-1.38 1.74-1.67.16-.08.39-.21.46-.27 0 0 .06-.26.1-.42.17-.62.43-1.55 1.29-2.1.85-.55 1.81-.4 2.45-.3.17.03.42.07.51.06 0-.02.21-.18.35-.29.5-.38 1.26-.96 2.24-.89.98.07 1.94.91 2.57 1.61ZM9.7 43.15c0 .83-.67 1.5-1.5 1.5H8c-.83 0-1.5-.67-1.5-1.5v-.2c0-.83.67-1.5 1.5-1.5h.2c.83 0 1.5.67 1.5 1.5v.2Zm20.74 0v-.2c0-.83.67-1.5 1.5-1.5h.2c.83 0 1.5.67 1.5 1.5v.2c0 .83-.67 1.5-1.5 1.5h-.2c-.83 0-1.5-.67-1.5-1.5Zm7.41 7.29h-5.73v-1.65h4.55c.83 0 1.5-.67 1.5-1.5v-8.47c0-.83-.67-1.5-1.5-1.5H3.47c-.83 0-1.5.67-1.5 1.5v8.47c0 .83.67 1.5 1.5 1.5h4.55v1.65H2.29c-.83 0-1.5.67-1.5 1.5v4.56c0 .83.67 1.5 1.5 1.5h2.62v4.42c0 .83.67 1.5 1.5 1.5s1.5-.67 1.5-1.5V58h24.31v4.42c0 .83.67 1.5 1.5 1.5s1.5-.67 1.5-1.5V58h2.62c.83 0 1.5-.67 1.5-1.5v-4.56c0-.83-.67-1.5-1.5-1.5Zm-26.82 0v-1.65h18.08v1.65H11.03ZM4.98 40.32h30.19v5.47H4.97v-5.47ZM36.35 55H3.79v-1.56h32.55V55Z" style="stroke-width:0"/>
</svg>
