<svg xmlns="http://www.w3.org/2000/svg" data-name="Layer 1" viewBox="0 0 64 64">
  <path d="M52.33 28.96c-2.62 0-5.15.91-7.17 2.53l-5.63-5.42 2.56-5.14h1.67c.83 0 1.5-.67 1.5-1.5s-.67-1.5-1.5-1.5h-8.29c-.83 0-1.5.67-1.5 1.5s.67 1.5 1.5 1.5h3.26l-1.96 3.95-15.76-.12 4.97-10.08a1.502 1.502 0 0 0-1.34-2.17h-9.48c-3.42 0-5.3 2.22-5.6 4.29-.29 2.02.79 4.46 3.87 5.36.8.23 1.63-.22 1.86-1.01a1.5 1.5 0 0 0-1.02-1.86c-1.21-.36-1.88-1.14-1.75-2.06.12-.85.98-1.71 2.63-1.71h7.06l-6.94 14.07c-1.16-.4-2.4-.62-3.7-.62C5.24 28.96.08 34.12.08 40.47s5.16 11.51 11.51 11.51S23.1 46.82 23.1 40.47c0-3.98-2.03-7.5-5.12-9.56l.96-1.95 7.45 8.78c-.48.8-.78 1.74-.78 2.74 0 2.95 2.4 5.35 5.35 5.35 2.43 0 4.45-1.63 5.11-3.85h4.86c.74 5.64 5.56 10.01 11.4 10.01 6.35 0 11.51-5.16 11.51-11.51s-5.16-11.51-11.51-11.51ZM20.1 40.47c0 4.69-3.82 8.51-8.51 8.51s-8.51-3.82-8.51-8.51 3.82-8.51 8.51-8.51c.82 0 1.61.12 2.36.34l-3.7 7.51c-.37.74-.06 1.64.68 2.01.21.11.44.16.66.16.55 0 1.08-.31 1.35-.84l3.7-7.5a8.474 8.474 0 0 1 3.46 6.84Zm18.03-11.58 10.48 10.08H36.07c-.3-1.02-.89-1.9-1.68-2.57l3.74-7.51Zm-2.84-1.02-3.65 7.32c-.22-.03-.45-.07-.68-.07-.85 0-1.64.22-2.36.57l-6.72-7.93 13.41.1Zm-4.32 14.95c-1.3 0-2.35-1.05-2.35-2.35s1.05-2.35 2.35-2.35 2.35 1.05 2.35 2.35-1.05 2.35-2.35 2.35Zm21.37 6.16c-4.18 0-7.66-3.03-8.37-7.01h8.37c.61 0 1.16-.37 1.39-.94s.09-1.22-.35-1.64l-6.04-5.81a8.552 8.552 0 0 1 5-1.62c4.69 0 8.51 3.82 8.51 8.51s-3.82 8.51-8.51 8.51Z" style="stroke-width:0"/>
</svg>
