<svg xmlns="http://www.w3.org/2000/svg" data-name="Layer 1" viewBox="0 0 64 64">
  <path d="M23.78 64c-.21 0-.42-.04-.63-.14-.64-.29-.98-.98-.84-1.67l5.22-25.35H14.07c-.57 0-1.1-.33-1.35-.84s-.19-1.13.16-1.58L39.04.58c.43-.55 1.18-.74 1.81-.45.64.29.98.98.84 1.67l-5.22 25.35h13.46c.57 0 1.1.33 1.35.84s.19 1.13-.16 1.58L24.97 63.42c-.29.38-.73.58-1.19.58Zm-6.65-30.15h12.25c.45 0 .88.2 1.16.55.28.35.4.81.31 1.25l-4.29 20.8 20.32-26.29H34.64c-.45 0-.88-.2-1.16-.55-.28-.35-.4-.81-.31-1.25l4.28-20.8-20.32 26.3Z" style="stroke-width:0"/>
</svg>
