<svg xmlns="http://www.w3.org/2000/svg" data-name="Layer 1" viewBox="0 0 64 64">
  <path d="M59.51 25.63h2.83c.92 0 1.66-.75 1.66-1.66s-.75-1.66-1.66-1.66h-1.16V9.57h1.16c.92 0 1.66-.75 1.66-1.66s-.75-1.66-1.66-1.66h-49.3c-3.55 0-6.44 2.89-6.44 6.44v6.49c0 1.13.29 2.19.81 3.12h-.96A6.436 6.436 0 0 0 0 28.73v6.49c0 3.57 2.9 6.46 6.46 6.46h.95c-.52.93-.82 1.99-.82 3.13v6.49c0 3.56 2.9 6.46 6.46 6.46h49.28c.92 0 1.66-.75 1.66-1.66s-.75-1.66-1.66-1.66h-1.16V41.7h1.16c.92 0 1.66-.75 1.66-1.66s-.75-1.66-1.66-1.66h-6.44c-.05 0-.1-.02-.15-.02h-1.16V25.63h4.93ZM9.92 12.67c0-1.72 1.4-3.11 3.12-3.11h44.8v4.72H33.48c-.05 0-.1-.02-.15-.02H22.69c-.05 0-.1.01-.15.02h-5.29c-.92 0-1.66.75-1.66 1.66s.75 1.66 1.66 1.66h3.78v4.68h-8.11a3.124 3.124 0 0 1-2.98-3.12v-6.49Zm25.07 12.96h16.26v4.71H34.99v-4.71ZM29 29.92c-.3-.22-.65-.33-1-.33s-.7.11-1 .33l-2.66 2V17.6h7.31v14.32l-2.66-2ZM6.46 38.36c-1.73 0-3.13-1.41-3.13-3.13v-6.49c0-1.72 1.4-3.12 3.12-3.12h6.31c.1 0 .2.02.3.02h7.96v4.71H10.65c-.92 0-1.66.75-1.66 1.66s.75 1.66 1.66 1.66h10.37v1.58a1.66 1.66 0 0 0 2.66 1.33l3.88-2.91h.89l3.88 2.91c.29.22.65.33 1 .33a1.672 1.672 0 0 0 1.66-1.67v-1.58h16.26v4.69H6.46Zm51.38 3.34v4.72h-40.6c-.92 0-1.66.74-1.66 1.66s.75 1.66 1.66 1.66h40.6v4.69H13.06c-1.73 0-3.13-1.41-3.13-3.13v-6.49c0-1.72 1.4-3.11 3.12-3.11h44.8Zm-4.93-19.41H34.99v-4.68h22.85v4.69h-1.95c-.05 0-.1-.02-.15-.02h-2.83Z" style="stroke-width:0"/>
</svg>
