<svg xmlns="http://www.w3.org/2000/svg" data-name="Layer 1" viewBox="0 0 64 64">
  <path d="M24.49 13.31c0-.83.67-1.51 1.51-1.51h20.14c.83 0 1.51.67 1.51 1.51s-.67 1.51-1.51 1.51H26c-.83 0-1.51-.67-1.51-1.51Zm21.65 6.57H26c-.83 0-1.51.67-1.51 1.51s.67 1.51 1.51 1.51h20.14c.83 0 1.51-.67 1.51-1.51s-.67-1.51-1.51-1.51Zm9.28 32v9.1h1.05c.83 0 1.51.67 1.51 1.51S57.31 64 56.47 64H13.6c-4.17 0-7.56-3.39-7.56-7.56 0-.19.01-.38.03-.56-.02-.09-.03-.19-.03-.28V4.61C6.04 2.07 8.16 0 10.76 0h45.71c.83 0 1.51.67 1.51 1.51v48.88c0 .42-.17.79-.44 1.06-.2.2-.47.35-.76.41-.1.02-.2.03-.3.03h-1.05ZM54.97 3h-37.8v45.87h37.79V3.01ZM9.06 4.6v45.8a7.517 7.517 0 0 1 4.55-1.54h.56V3.01h-3.4c-.94 0-1.71.72-1.71 1.6Zm43.35 47.28H13.6c-2.51 0-4.55 2.04-4.55 4.55s2.04 4.55 4.55 4.55h38.8v-3.03H15.66c-.83 0-1.51-.67-1.51-1.51s.67-1.51 1.51-1.51h36.73v-3.06Z" style="stroke-width:0"/>
</svg>
