<svg xmlns="http://www.w3.org/2000/svg" data-name="Layer 1" viewBox="0 0 64 64">
  <path d="M62.5 12.91h-2.94V11c0-.83-.67-1.5-1.5-1.5H41.34c-4.29 0-6.91 0-9.34 1.93-2.43-1.93-5.05-1.93-9.34-1.93H5.94c-.83 0-1.5.67-1.5 1.5v1.91H1.5c-.83 0-1.5.67-1.5 1.5v36.71c0 .83.67 1.5 1.5 1.5h25.2c1.33 1.19 3.26 1.88 5.3 1.88s3.97-.69 5.3-1.88h25.2c.83 0 1.5-.67 1.5-1.5V14.41c0-.83-.67-1.5-1.5-1.5Zm-5.94-.41v32.33H41.35c-3.26 0-5.7.07-7.84 1.08V14.09c1.63-1.53 3.18-1.59 7.84-1.59h15.21Zm-49.11 0h15.21c4.66 0 6.21.07 7.84 1.59v31.82c-2.14-1.01-4.58-1.08-7.84-1.08H7.44V12.5ZM61 49.62H36.68c-.43 0-.84.19-1.13.51-.74.84-2.11 1.37-3.55 1.37s-2.81-.52-3.55-1.37c-.29-.32-.7-.51-1.13-.51H3v-33.7h1.44v30.42c0 .83.67 1.5 1.5 1.5h16.72c4.82 0 6.5.27 8.28 2.04.01.01.03.02.04.03.13.12.27.22.44.29h.01c.18.07.37.11.56.11.19 0 .38-.04.56-.11h.01c.17-.07.31-.17.44-.29.01-.01.03-.02.04-.03 1.79-1.77 3.46-2.04 8.28-2.04h16.72c.83 0 1.5-.67 1.5-1.5V15.92h1.44v33.7ZM37.56 39.01c0-.83.67-1.5 1.5-1.5h11.93c.83 0 1.5.67 1.5 1.5s-.67 1.5-1.5 1.5H39.06c-.83 0-1.5-.67-1.5-1.5Zm0-6.8c0-.83.67-1.5 1.5-1.5h11.93c.83 0 1.5.67 1.5 1.5s-.67 1.5-1.5 1.5H39.06c-.83 0-1.5-.67-1.5-1.5Zm0-6.8c0-.83.67-1.5 1.5-1.5h11.93c.83 0 1.5.67 1.5 1.5s-.67 1.5-1.5 1.5H39.06c-.83 0-1.5-.67-1.5-1.5Zm0-6.8c0-.83.67-1.5 1.5-1.5h11.93c.83 0 1.5.67 1.5 1.5s-.67 1.5-1.5 1.5H39.06c-.83 0-1.5-.67-1.5-1.5Zm-12.62 21.9H13.01c-.83 0-1.5-.67-1.5-1.5s.67-1.5 1.5-1.5h11.93c.83 0 1.5.67 1.5 1.5s-.67 1.5-1.5 1.5Zm-13.43-8.3c0-.83.67-1.5 1.5-1.5h11.93c.83 0 1.5.67 1.5 1.5s-.67 1.5-1.5 1.5H13.01c-.83 0-1.5-.67-1.5-1.5Zm0-6.8c0-.83.67-1.5 1.5-1.5h11.93c.83 0 1.5.67 1.5 1.5s-.67 1.5-1.5 1.5H13.01c-.83 0-1.5-.67-1.5-1.5Zm0-6.8c0-.83.67-1.5 1.5-1.5h11.93c.83 0 1.5.67 1.5 1.5s-.67 1.5-1.5 1.5H13.01c-.83 0-1.5-.67-1.5-1.5Z" style="stroke-width:0"/>
</svg>
