<svg xmlns="http://www.w3.org/2000/svg" data-name="Layer 1" viewBox="0 0 64 64">
  <path d="M55.41 51.89v9.1h1.05c.83 0 1.51.67 1.51 1.51s-.67 1.51-1.51 1.51H13.6c-4.17 0-7.56-3.39-7.56-7.56 0-.19.01-.38.03-.56-.02-.09-.03-.19-.03-.28v-51C6.04 2.07 8.16 0 10.76 0h45.71c.83 0 1.51.67 1.51 1.51v48.88c0 .42-.17.79-.44 1.06-.2.2-.47.35-.76.41-.1.02-.2.03-.3.03h-1.05Zm-.45-48.88H17.17v45.87h37.79V3.01ZM9.05 4.61v45.8a7.517 7.517 0 0 1 4.55-1.54h.56V3.01h-3.4c-.94 0-1.71.72-1.71 1.6ZM52.4 51.89H13.6c-2.51 0-4.55 2.04-4.55 4.55s2.04 4.55 4.55 4.55h38.8v-3.03H15.66c-.83 0-1.51-.67-1.51-1.51s.67-1.51 1.51-1.51h36.73v-3.06Z" style="stroke-width:0"/>
</svg>
