<svg xmlns="http://www.w3.org/2000/svg" data-name="Layer 1" viewBox="0 0 64 64">
  <path d="M62.39 8.34H42.9c-5.02 0-8.07 0-10.89 2.29-2.83-2.29-5.87-2.29-10.89-2.29H1.61C.72 8.34 0 9.06 0 9.95v41.21c0 .89.72 1.61 1.61 1.61H21.1c5.67 0 7.64.32 9.76 2.42.01.01.03.02.05.03.14.13.29.24.47.31h.02a1.567 1.567 0 0 0 1.2 0h.02c.18-.07.33-.19.47-.31.01-.01.03-.02.05-.03 2.12-2.1 4.09-2.42 9.76-2.42h19.49c.89 0 1.61-.72 1.61-1.61V9.95c0-.89-.72-1.61-1.61-1.61ZM3.23 49.55V11.57h17.88c5.23 0 7.22 0 9.28 1.94v37.36c-2.31-1.16-5.03-1.32-9.28-1.32H3.23Zm57.55 0H42.9c-4.25 0-6.97.16-9.28 1.32V13.51c2.06-1.94 4.05-1.94 9.28-1.94h17.88v37.98Zm-5.01-6.93c0 .89-.72 1.61-1.61 1.61H40.25a1.609 1.609 0 1 1 0-3.22h13.91c.89 0 1.61.72 1.61 1.61Zm0-7.93c0 .89-.72 1.61-1.61 1.61H40.25a1.609 1.609 0 1 1 0-3.22h13.91c.89 0 1.61.72 1.61 1.61Zm0-7.93c0 .89-.72 1.61-1.61 1.61H40.25a1.609 1.609 0 1 1 0-3.22h13.91c.89 0 1.61.72 1.61 1.61Zm-15.53-9.54h13.91a1.609 1.609 0 1 1 0 3.22H40.24a1.609 1.609 0 1 1 0-3.22ZM25.38 42.61c0 .89-.72 1.61-1.61 1.61H9.86a1.609 1.609 0 1 1 0-3.22h13.91c.89 0 1.61.72 1.61 1.61Zm0-7.93c0 .89-.72 1.61-1.61 1.61H9.86a1.609 1.609 0 1 1 0-3.22h13.91c.89 0 1.61.72 1.61 1.61Zm0-7.93c0 .89-.72 1.61-1.61 1.61H9.86a1.609 1.609 0 1 1 0-3.22h13.91c.89 0 1.61.72 1.61 1.61Zm0-7.93c0 .89-.72 1.61-1.61 1.61H9.86a1.609 1.609 0 1 1 0-3.22h13.91c.89 0 1.61.72 1.61 1.61Z" style="stroke-width:0"/>
</svg>
