<svg xmlns="http://www.w3.org/2000/svg" data-name="Layer 1" viewBox="0 0 64 64">
  <path d="M56.46 51.89c.83 0 1.51-.67 1.51-1.51V1.51C57.97.68 57.3 0 56.46 0H10.75c-2.6 0-4.72 2.07-4.72 4.61v50.98c0 .1.01.19.03.28-.01.19-.03.37-.03.56 0 4.17 3.39 7.56 7.56 7.56h42.87c.83 0 1.51-.67 1.51-1.51s-.67-1.51-1.51-1.51h-1.05v-9.1h1.05Zm-1.51-3.01H17.17V3.01H38.3v26.8c0 .55.3 1.05.78 1.32a1.5 1.5 0 0 0 1.53-.04l4.02-2.51 4.02 2.51c.24.15.52.23.8.23a1.514 1.514 0 0 0 1.51-1.51V3.01h4.02v45.86ZM47.93 3.01V27.1l-2.51-1.57c-.24-.15-.52-.23-.8-.23s-.55.08-.8.23l-2.51 1.57V3.01h6.62Zm-37.17 0h3.4v45.86h-.56c-1.71 0-3.28.58-4.55 1.54V4.61c0-.88.77-1.6 1.71-1.6ZM52.4 54.94H15.66c-.83 0-1.51.67-1.51 1.51s.67 1.51 1.51 1.51h36.73v3.03H13.6c-2.51 0-4.55-2.04-4.55-4.55s2.04-4.55 4.55-4.55h38.8v3.06Z" style="stroke-width:0"/>
</svg>
