<svg xmlns="http://www.w3.org/2000/svg" data-name="Layer 1" viewBox="0 0 64 64">
  <path d="M62.51 49.17c-.29-.28-.69-.46-1.09-.42-.09 0-9.3.25-15.17-1.3-10.18-2.69-15.13-9.24-15.13-20.04V2.92c0-.8-.38-1.56-1.02-2.03A2.56 2.56 0 0 0 27.86.5l-7.02 2.13v-1.1c0-.83-.67-1.5-1.5-1.5h-6.53c-.83 0-1.5.67-1.5 1.5v1.1L4.3.5C3.54.27 2.7.41 2.06.89c-.64.48-1.02 1.24-1.02 2.03v50.46c0 .04 0 .08.01.12 0 .07.02.14.03.2v.05l1.91 6.54a3.43 3.43 0 0 0 3.27 2.45h12.4c.83 0 1.5-.67 1.5-1.5v-6.41c6.04.06 7.85 1.99 9.92 4.22 2.15 2.3 4.58 4.91 11.41 4.91 10.32 0 21.47-3.39 21.47-8.88v-4.85c0-.41-.16-.79-.46-1.08ZM28.12 3.55v41.92c-2.56-.14-6.52-.62-10.54-1.56V38.8l4.38-4.39c.59-.59.59-1.54 0-2.12l-4.38-4.39v-4.79h1.76c.83 0 1.5-.67 1.5-1.5V5.76l7.28-2.21ZM16.08 30.64l2.7 2.7-2.7 2.7-2.7-2.7 2.7-2.7ZM14.32 3.02h3.53V20.1h-3.53V3.03Zm-10.28.52 7.28 2.21V21.6c0 .83.67 1.5 1.5 1.5h1.76v4.79l-4.39 4.39a1.49 1.49 0 0 0 0 2.12l4.39 4.39v4.32c-.1-.03-.21-.06-.32-.09-3.82-1.17-10.23-3.75-10.23-7.89V3.55Zm13.14 56.2H6.27c-.18 0-.34-.12-.39-.29l-1.35-4.62h12.64v4.92Zm42.79-4.66c0 2.31-7.93 5.88-18.47 5.88-5.52 0-7.23-1.83-9.21-3.96-2.26-2.43-4.83-5.18-12.42-5.18H4.03V41.2c6.57 5.88 21.92 7.29 25.59 7.29.83 0 1.5-.67 1.5-1.5v-6.81c2.82 4.96 7.61 8.37 14.36 10.15 4.84 1.28 11.52 1.43 14.48 1.42v3.33Z" style="stroke-width:0"/>
</svg>
