<svg xmlns="http://www.w3.org/2000/svg" data-name="Layer 1" viewBox="0 0 64 64">
  <path d="m44.38 16.53-6-8.79c-.12-.18-.27-.34-.43-.49.12-.33.2-.69.2-1.06V3.18A3.18 3.18 0 0 0 34.98 0H29.7c-1.75 0-3.17 1.42-3.17 3.17v3.01c0 .36.07.71.19 1.03-.14.13-.28.26-.39.41L19.8 16.4a7.83 7.83 0 0 0-1.54 4.64v10.53c0 .27.03.54.08.8.02.09.05.17.07.25.04.17.09.34.15.5.04.09.08.18.13.27.07.14.14.28.22.41.06.09.12.17.18.25.05.07.09.14.14.2-.61.73-.98 1.66-.98 2.68v3.8c0 1.02.37 1.96.98 2.68-.61.73-.98 1.66-.98 2.68v3.8c0 1.02.37 1.96.98 2.68-.61.73-.98 1.66-.98 2.68v2.65c0 3.34 2.72 6.06 6.06 6.06h15.35c3.34 0 6.06-2.72 6.06-6.06v-2.65c0-1.02-.37-1.96-.98-2.68.61-.73.98-1.66.98-2.68v-3.8c0-1.02-.37-1.96-.98-2.68.61-.73.98-1.66.98-2.68v-3.8c0-1.02-.37-1.96-.98-2.68.05-.06.09-.14.14-.2.06-.08.12-.17.18-.25.08-.13.15-.27.22-.41.04-.09.09-.18.13-.27.06-.16.11-.33.15-.5.02-.08.05-.16.07-.25.05-.26.08-.52.08-.8V20.89c0-1.57-.47-3.08-1.35-4.38ZM22.45 32.77c-.65 0-1.18-.53-1.18-1.18v-7.96h21.46v7.96c0 .65-.53 1.18-1.18 1.18h-19.1Zm7.09-29.6c0-.09.07-.17.17-.17h5.28c.09 0 .17.07.17.17v3.01c0 .09-.08.17-.17.17h-5.28c-.09 0-.17-.08-.17-.17V3.17Zm-.8 6.25s.08-.07.13-.07h6.89c.06 0 .11.03.14.07l6 8.79c.49.72.76 1.54.81 2.41H21.3c.08-.87.39-1.72.91-2.42l6.53-8.78Zm13.99 48.51a3.06 3.06 0 0 1-3.06 3.06H24.32a3.06 3.06 0 0 1-3.06-3.06v-2.65c0-.65.53-1.18 1.18-1.18.83 0 1.5-.67 1.5-1.5s-.67-1.5-1.5-1.5c-.65 0-1.18-.53-1.18-1.18v-3.8c0-.65.53-1.18 1.18-1.18h4.74c.83 0 1.5-.67 1.5-1.5s-.67-1.5-1.5-1.5h-4.74c-.65 0-1.18-.53-1.18-1.18v-3.8c0-.65.53-1.18 1.18-1.18h19.1c.65 0 1.18.53 1.18 1.18v3.8c0 .65-.53 1.18-1.18 1.18-.83 0-1.5.67-1.5 1.5s.67 1.5 1.5 1.5c.65 0 1.18.53 1.18 1.18v3.8c0 .65-.53 1.18-1.18 1.18H36.5c-.83 0-1.5.67-1.5 1.5s.67 1.5 1.5 1.5h5.04c.65 0 1.18.53 1.18 1.18v2.65Z" style="stroke-width:0"/>
</svg>
