<svg xmlns="http://www.w3.org/2000/svg" data-name="Layer 1" viewBox="0 0 64 64">
  <path d="M41.48 63.92h-20.2c-2.47 0-4.48-2.01-4.48-4.48V29.66c0-4.45 3.25-8.16 7.51-8.88v-3.69c0-3.62-.89-7.23-2.57-10.43l-2.25-4.3c-.24-.46-.23-1.02.04-1.47.27-.45.76-.72 1.28-.72h22.41c.55 0 1.06.3 1.32.79.26.49.24 1.07-.07 1.54l-2.32 3.54a22.381 22.381 0 0 0-3.68 12.32v2.43c4.25.72 7.51 4.43 7.51 8.88v29.78c0 2.47-2.01 4.48-4.48 4.48ZM23.28 3.15l1.1 2.1a25.49 25.49 0 0 1 2.91 11.83v5.07c0 .83-.67 1.5-1.5 1.5-3.31 0-6.01 2.69-6.01 6.01v29.78c0 .82.67 1.48 1.48 1.48h20.2c.82 0 1.48-.67 1.48-1.48V29.66c0-3.31-2.69-6.01-6.01-6.01-.83 0-1.5-.67-1.5-1.5v-3.81c0-4.98 1.44-9.81 4.17-13.97l.8-1.22H23.25Zm8.09 47.66c-3.25 0-5.9-2.81-5.9-6.27 0-3.16 2.88-8.55 4.6-11.49.27-.46.76-.74 1.29-.74s1.03.28 1.29.74c1.72 2.93 4.6 8.33 4.6 11.49 0 3.46-2.65 6.27-5.9 6.27Zm0-13.93c-1.8 3.38-2.9 6.26-2.9 7.66 0 1.81 1.3 3.27 2.9 3.27s2.9-1.47 2.9-3.27c0-1.4-1.1-4.28-2.9-7.66Z" style="stroke-width:0"/>
</svg>
