<svg xmlns="http://www.w3.org/2000/svg" data-name="Layer 1" viewBox="0 0 64 64">
  <path d="M60.01 19.21c.83 0 1.5-.67 1.5-1.5s-.67-1.5-1.5-1.5H26.19v-2.48l31.97-10.8c.79-.27 1.21-1.12.94-1.9a1.494 1.494 0 0 0-1.9-.94L25.15 10.9c-.83-1.01-2.07-1.66-3.47-1.66-1.77 0-3.28 1.03-4.02 2.51-.62-.32-1.3-.51-2.04-.51-2.49 0-4.51 2.02-4.51 4.51v.46h-1.5c-.83 0-1.5.67-1.5 1.5s.67 1.5 1.5 1.5h1.5v15.58H3.99a1.5 1.5 0 0 0-1.5 1.48c0 .5-.13 12.45 6.51 19.2 2.57 2.61 5.79 4.09 9.6 4.41v2.62c0 .83.67 1.5 1.5 1.5h22.74c.83 0 1.5-.67 1.5-1.5v-2.62c3.8-.32 7.03-1.79 9.6-4.4 6.62-6.72 6.51-18.7 6.51-19.21a1.5 1.5 0 0 0-1.5-1.48h-8.51c-2.56-6.25-8.69-10.66-15.84-10.66-3.05 0-5.91.82-8.39 2.23v-7.15h33.82Zm-38.33-6.97c.83 0 1.5.67 1.5 1.5v21.04h-3.01V13.74c0-.83.67-1.5 1.5-1.5Zm-7.57 3.51c0-.83.67-1.5 1.5-1.5s1.5.67 1.5 1.5v19.04H14.1V15.75ZM21.59 61v-1.05h19.73V61H21.59Zm30.2-7.63c-2.33 2.37-5.37 3.57-9.04 3.57H20.17c-3.66 0-6.7-1.2-9.03-3.57-4.5-4.57-5.42-12.34-5.6-15.57h51.85c-.19 3.24-1.1 11.01-5.6 15.57ZM28.46 34.79c1.6-1.51 3.75-2.45 6.12-2.45s4.52.94 6.12 2.45H28.47Zm6.12-7.66c5.45 0 10.17 3.12 12.52 7.66h-2.53c-2.12-3.28-5.8-5.46-9.99-5.46-3.28 0-6.24 1.33-8.39 3.48v-2.88c2.35-1.75 5.25-2.8 8.39-2.8Z" style="stroke-width:0"/>
</svg>
