<svg xmlns="http://www.w3.org/2000/svg" data-name="Layer 1" viewBox="0 0 64 64">
  <path d="M24.8 38.96c.08.71-.13 1.41-.58 1.97-.45.56-1.09.91-1.8.98-.1.01-.19.02-.29.02-.61 0-1.2-.21-1.68-.6-.56-.45-.91-1.09-.98-1.8-.07-.71.13-1.41.58-1.97.45-.56 1.09-.91 1.8-.98.71-.08 1.41.13 1.97.58s.9 1.09.98 1.8Zm-3.46-4.55c.09 0 .19 0 .28-.01a2.697 2.697 0 0 0 2.39-2.95 2.67 2.67 0 0 0-2.95-2.38 2.697 2.697 0 0 0-2.39 2.95c.15 1.38 1.31 2.4 2.67 2.4Zm-4.05-.37c-.56-.45-1.25-.66-1.97-.58a2.697 2.697 0 0 0-2.39 2.95c.08.71.42 1.35.98 1.8.48.39 1.07.6 1.68.6.09 0 .19 0 .29-.02a2.697 2.697 0 0 0 2.39-2.95c-.08-.71-.42-1.35-.98-1.8Zm38.73 28.58c-.86.92-1.66 1.36-2.44 1.36h-7.83c-.76 0-1.56-.45-2.42-1.36-1.09-1.16-2.37-3.19-3.41-5.85-3.54 4.01-8.37 6.53-13.73 7.09-.76.08-1.51.12-2.26.12-10.78 0-20.07-8.16-21.22-19.12-.6-5.67 1.05-11.24 4.64-15.67s8.69-7.21 14.36-7.8c8.01-.85 15.47 2.89 19.78 9.09.22-.69.43-1.36.63-1.99v-.01c.49-1.53.87-2.74 1.01-3.28.62-2.37.48-4.53.13-6.51-.15-.88-.34-1.72-.53-2.53-.13-.58-.26-1.14-.37-1.67-.22-1.13-.55-3.47-.55-4.76 0-5.24 3.52-9.53 7.84-9.56 4.35.03 7.87 4.32 7.87 9.56 0 1.29-.32 3.64-.55 4.76-.11.54-.23 1.09-.37 1.67-.19.81-.38 1.66-.53 2.54-.35 1.98-.49 4.14.13 6.51.14.54.53 1.75 1.02 3.29v.01c1.54 4.83 3.85 12.12 4.1 15.49.64 8.84-2.83 15.98-5.31 18.62Zm-9.9-37.06h7.11c-.32-1.36-.45-2.66-.44-3.88h-6.23c0 1.22-.12 2.52-.44 3.88Zm.19-6.88h6.74c.18-1.15.42-2.22.65-3.21.13-.55.25-1.08.35-1.58.22-1.12.49-3.23.49-4.18 0-3.6-2.18-6.54-4.87-6.56-2.66.02-4.84 2.96-4.84 6.56 0 .95.27 3.06.49 4.18.1.51.22 1.04.35 1.59.23.98.47 2.06.65 3.2Zm-7.48 34.65c-.69-2.75-1.06-5.92-.82-9.34.16-2.17 1.17-5.95 2.28-9.66-3.07-6.04-9.32-10.07-16.33-10.07-.64 0-1.29.03-1.94.1-4.88.51-9.26 2.9-12.34 6.71s-4.5 8.6-3.99 13.47c1.06 10.07 10.12 17.39 20.18 16.33 4.88-.51 9.26-2.9 12.34-6.71.22-.27.41-.55.61-.83Zm19.51-9.12c-.22-3.02-2.57-10.4-3.97-14.81-.1-.3-.18-.57-.27-.84h-8.87c-.09.27-.17.54-.27.84-1.4 4.41-3.75 11.79-3.97 14.81-.66 9.21 3.64 15.93 4.96 16.77h7.42c1.31-.84 5.62-7.56 4.96-16.77Z" style="stroke-width:0"/>
</svg>
