<svg xmlns="http://www.w3.org/2000/svg" data-name="Layer 1" viewBox="0 0 64 64">
  <path d="M62.49 4.02H1.51C.68 4.02 0 4.69 0 5.52v11.43c0 .83.67 1.5 1.5 1.5h.99v39.13c0 .83.67 1.5 1.5 1.5h56c.83 0 1.5-.67 1.5-1.5V18.45h.99c.83 0 1.5-.67 1.5-1.5V5.52c0-.83-.67-1.5-1.5-1.5Zm-59.48 3H61v8.43H3.01V7.02Zm55.5 49.06H5.5V18.45h53v37.63Zm-37.1-16.61h21.2c3.18 0 5.77-2.59 5.77-5.77v-6.25c0-.83-.67-1.5-1.5-1.5H41.6c-.83 0-1.5.67-1.5 1.5v4.06H23.92v-4.06c0-.83-.67-1.5-1.5-1.5h-5.28c-.83 0-1.5.67-1.5 1.5v6.25c0 3.18 2.59 5.77 5.77 5.77Zm-2.77-10.52h2.28v4.06c0 .83.67 1.5 1.5 1.5H41.6c.83 0 1.5-.67 1.5-1.5v-4.06h2.28v4.75a2.77 2.77 0 0 1-2.77 2.77h-21.2a2.77 2.77 0 0 1-2.77-2.77v-4.75Z" style="stroke-width:0"/>
</svg>
