<svg xmlns="http://www.w3.org/2000/svg" data-name="Layer 1" viewBox="0 0 64 64">
  <path d="M62.32 25.09c.34-3.84-1.07-7.6-4.03-10.66-2.27-2.35-5.22-4.03-7.5-4.36-.96-1.92-3.05-3.62-5.94-4.78-3.87-1.55-9.38-2.14-13.48-.16-1.83-1.08-4.49-1.43-7.5-.98-3.67.55-8.4 2.46-11.13 6.19-2.79.21-6.02 1.97-8.48 4.67C1.74 17.77.47 21.06.73 24.12-.19 26-.08 29 1.07 31.54c1.12 2.48 2.99 4.1 5.32 4.64 2.45 4.51 7.95 5.7 12.76 4.93.32.73.9 1.42 1.72 2 2.21 1.57 6.02 2.4 8.99 1.62 1.04 3.44 3.66 6.43 7.96 9.09 1.65 1.02 3.88 3.86 5.08 5.39.86 1.09 1.09 1.38 1.43 1.6.37.24.78.33 1.22.33 1.4 0 3.02-.99 4.01-1.71a2.95 2.95 0 0 0 1.2-2.08c.08-.83-.19-1.66-.77-2.29l-.45-.47c2-.34 4.49-1.23 6.64-3.38 3.39-3.4 3.62-7.65 3.5-9.71 2.07-1.16 3.42-3.22 3.95-6.02.71-3.76-.21-8.4-1.32-10.38ZM45.84 58.07c-.17-.21-.38-.47-.57-.72-1.41-1.79-3.76-4.78-5.86-6.08-4.25-2.63-6.53-5.51-6.97-8.81-.07-.51-.39-.95-.86-1.16-.47-.22-1.01-.18-1.44.1-1.85 1.18-5.68.59-7.53-.72-.16-.11-.31-.25-.45-.39 2.37-1.02 5.04-3.01 6.05-4.64.55-.88.42-3.52-.75-4.86-.45-.52-1.74-1.61-3.97-.61-.54.24-1.09.37-1.65.38h-.04c-1.82 0-3.76-1.57-3.84-2.15 0-2.06 5.16-4.72 10.63-4.72 5.78 0 13.12 2.99 14.33 5.19.07.38.52 3.67-2.94 5.65h-.01c-.13.08-.24.17-.34.28-.02.02-.04.04-.05.06-.09.11-.17.24-.23.37l-.01.02c-.02.04-.03.1-.05.15 0 .02-.01.03-.01.04-.68 1.9-.82 5.37.5 8.76 2.08 5.38 3.87 8.74 5.33 10.03v.01l2.63 2.79c-.8.57-1.5.89-1.9 1.03Zm8.22-8.98c-2.6 2.61-5.87 2.76-7.21 2.69-.57-.66-2-2.73-4.29-8.65-.93-2.39-.89-4.66-.66-5.95 7.31-.82 13.17 1.71 14.74 3.98.15 1.14.37 4.97-2.59 7.93Zm6.4-13.24c-.4 1.3-1.04 2.23-1.96 2.85-2.42-2.64-7.55-4.69-13.77-4.68.27-.44.49-.89.66-1.33.24.03.49.04.75.04.79 0 1.64-.13 2.47-.4 1.59-.52 2.81-1.49 3.55-2.75.84.32 1.71.5 2.55.5.59 0 1.16-.08 1.67-.25.79-.26 1.21-1.11.95-1.9s-1.11-1.21-1.9-.95c-.68.23-1.96.12-3.15-.66-.59-.39-1.59-1.25-1.72-2.71-.07-.83-.8-1.44-1.62-1.36-.83.07-1.44.8-1.36 1.63.14 1.59.85 3.01 2.01 4.12-.42.78-1.16 1.22-1.76 1.44-.7.26-1.36.32-1.85.3.01-.98-.15-1.75-.33-2.11-1.9-3.84-10.88-6.94-17.06-6.94s-13.63 3.17-13.63 7.72c0 .95.48 1.92 1.38 2.82 1.2 1.18 3.37 2.36 5.54 2.34.97-.01 1.93-.23 2.85-.64.32-.14.47-.15.48-.16.2.19.35 1 .33 1.51-.92 1.21-3.63 3.12-5.51 3.61-3.49.92-9.35.71-11.24-3.63-.21-.49-.67-.83-1.2-.89-2.09-.24-3.21-1.79-3.78-3.05-.96-2.12-.78-4.31-.3-5.01.19-.21 1.25-.67 2.66-.55 1 .09 2.37.49 3.24 1.91.28.46.78.72 1.28.72.27 0 .54-.07.78-.22.71-.43.93-1.36.49-2.06-.7-1.13-1.68-2-2.85-2.58-.15-.6-.03-1.37.36-2.1.43-.82 1.05-1.33 1.43-1.42a1.5 1.5 0 0 0 1.14-1.79c-.18-.81-.97-1.32-1.79-1.14-1.33.29-2.62 1.39-3.44 2.94-.48.9-.73 1.84-.77 2.74-.07 0-.13-.01-.2-.02-.64-.01-1.33.05-1.99.21.33-1.66 1.23-3.37 2.63-4.91 2.08-2.28 4.92-3.8 7-3.7.54.03 1.05-.24 1.34-.7 1.71-2.74 5.44-4.9 9.5-5.51 2.12-.32 4.02-.13 5.25.46-.39 1.91-.4 3.76-.01 5.54-.89.76-1.7 1.33-2.56 1.58-1.38.4-2.76-.03-3.67-.46-.74-.35-1.64-.03-2 .72-.35.75-.03 1.64.72 2 1.28.6 2.56.91 3.8.91.68 0 1.34-.09 1.98-.27 1.05-.3 1.96-.85 2.79-1.47.07.14.12.28.2.41.59 1.1 1.3 1.86 2.16 2.33a1.51 1.51 0 0 0 2.04-.6c.4-.73.13-1.64-.6-2.04-.33-.18-.66-.56-.96-1.12-1.2-2.23-1.48-4.58-.89-7.17 2.84-1.42 7.31-1.39 11.17.16 2.49 1 4.19 2.43 4.56 3.83.19.71.87 1.18 1.6 1.11 1.05-.11 3.89 1.07 6.23 3.5 1.74 1.8 3.69 4.77 3.15 8.75-.06.46.09.92.41 1.25.56.84 1.88 5.7.77 9.34Zm-6.22-18.62a1.5 1.5 0 0 1-2.14 2.1c-2.96-3.02-5.73-.52-6.04-.22-.72.69-1.11 1.48-1.17 2.32-.06.79-.71 1.39-1.49 1.39h-.11c-.83-.06-1.45-.78-1.39-1.6.11-1.58.83-3.06 2.08-4.27 2.48-2.39 6.75-3.32 10.27.28Zm-18.5 15.28c-1.13 3.28.35 7.73 1.5 9.3.49.67.34 1.61-.33 2.1a1.492 1.492 0 0 1-2.09-.32c-.92-1.25-1.86-3.46-2.27-5.91a10.879 10.879 0 0 1-2.47 1.86 1.51 1.51 0 0 1-2.04-.6c-.4-.73-.13-1.64.6-2.04.21-.12.42-.24.62-.38 1.89-1.27 3.31-3.45 3.88-5.96.08-.34.17-.96.24-1.54-2.81-.81-5.73-.99-8.63-.51a1.49 1.49 0 0 1-1.72-1.23c-.14-.82.42-1.59 1.23-1.73 5.37-.89 10.77.17 15.63 3.07.71.42.94 1.35.52 2.06a1.5 1.5 0 0 1-1.29.73c-.26 0-.53-.07-.77-.21a19.7 19.7 0 0 0-2.09-1.08c-.06.42-.13.83-.19 1.12-.07.3-.16.6-.25.9 0 .13-.03.26-.07.39Z" style="stroke-width:0"/>
</svg>
