<svg xmlns="http://www.w3.org/2000/svg" data-name="Layer 1" viewBox="0 0 64 64">
  <path d="M63.5 25.04c.28-.58.46-1.23.46-1.92 0-2.44-1.98-4.42-4.42-4.42s-4.42 1.98-4.42 4.42c0 .26.03.52.08.77-2.44-.88-5.55-1.59-9.06-2.12v-.41c0-.83-.67-1.5-1.5-1.5s-1.5.67-1.5 1.5v.02c-3.03-.34-6.28-.54-9.64-.58v-.59c0-.83-.67-1.5-1.5-1.5s-1.5.67-1.5 1.5v.59c-3.36.05-6.62.25-9.64.58v-.02c0-.83-.67-1.5-1.5-1.5s-1.5.67-1.5 1.5v.41c-3.49.52-6.58 1.23-9.01 2.1.04-.24.08-.49.08-.75 0-2.44-1.98-4.42-4.42-4.42S.07 20.68.07 23.12c0 .69.17 1.34.46 1.92-.28.27-.46.65-.46 1.07V43.8c0 .83.67 1.5 1.5 1.5h5.84c.33 0 .64-.11.88-.29 4.78-2.19 13.81-3.54 23.7-3.54s19.08 1.38 23.82 3.6c.23.15.51.24.81.24h5.84c.83 0 1.5-.67 1.5-1.5V26.12c0-.42-.18-.8-.46-1.08ZM8.91 33.53c2.27-.94 5.35-1.71 8.94-2.26v3.5c-3.46.52-6.51 1.22-8.94 2.07v-3.31Zm11.94-2.66c3-.34 6.26-.55 9.64-.6v3.52c-3.36.05-6.62.25-9.64.58v-3.51Zm12.64-.6c3.39.05 6.65.25 9.64.59v3.51c-3.03-.34-6.28-.54-9.64-.58v-3.52Zm12.64.99c3.61.56 6.71 1.34 8.98 2.28v3.31c-2.43-.86-5.51-1.57-8.98-2.09v-3.5Zm13.4-9.56c.78 0 1.42.64 1.42 1.42s-.64 1.42-1.42 1.42-1.42-.64-1.42-1.42.64-1.42 1.42-1.42Zm-4.42 5.37v3.27c-2.43-.86-5.51-1.57-8.98-2.09v-3.46c3.61.56 6.71 1.34 8.98 2.28Zm-11.98-2.68v3.47c-3.03-.34-6.28-.54-9.64-.58V23.8c3.39.05 6.65.25 9.64.59Zm-12.64-.59v3.48c-3.36.05-6.62.25-9.64.58v-3.47c3-.34 6.26-.55 9.64-.6Zm-12.64 4.45c-3.46.52-6.51 1.22-8.94 2.07v-3.27c2.27-.94 5.35-1.71 8.94-2.26v3.46ZM4.49 21.71c.78 0 1.42.64 1.42 1.42s-.64 1.42-1.42 1.42-1.42-.64-1.42-1.42.64-1.42 1.42-1.42Zm1.42 20.6H3.07V27.62h2.84v14.69Zm3-.77v-1.48c4.91-2.03 13.61-3.27 23.08-3.27s18.22 1.25 23.13 3.29v1.48c-5.4-1.92-13.95-3.08-23.13-3.08s-17.68 1.15-23.08 3.06Zm52.04.77h-2.84V27.62h2.84v14.69Z" style="stroke-width:0"/>
</svg>
