<svg xmlns="http://www.w3.org/2000/svg" data-name="Layer 1" viewBox="0 0 64 64">
  <path d="M62.49 15.45H49.37V10.7c0-3.18-2.59-5.77-5.77-5.77H20.4c-3.18 0-5.77 2.59-5.77 5.77v4.75H1.51c-.83 0-1.51.67-1.51 1.5v40.63c0 .83.67 1.5 1.5 1.5h60.99c.83 0 1.5-.67 1.5-1.5V16.95c0-.83-.67-1.5-1.5-1.5ZM17.62 10.7a2.77 2.77 0 0 1 2.77-2.77h23.2a2.77 2.77 0 0 1 2.77 2.77v4.75h-2.28v-4.06c0-.83-.67-1.5-1.5-1.5H21.4c-.83 0-1.5.67-1.5 1.5v4.06h-2.28V10.7Zm23.46 4.75H22.9v-2.56h18.18v2.56Zm-24.96 3h44.87v12.36h-6v-3.65c0-.83-.67-1.5-1.5-1.5h-5.62c-.83 0-1.5.67-1.5 1.5v3.65H17.62v-3.65c0-.83-.67-1.5-1.5-1.5H10.5c-.83 0-1.5.67-1.5 1.5v3.65H3.01V18.45h13.12Zm35.87 10.21v7.29h-2.62v-7.29h2.62Zm-37.37 0v7.29H12v-7.29h2.62ZM3.01 56.07V33.8h6v3.64c0 .83.67 1.5 1.5 1.5h5.62c.83 0 1.5-.67 1.5-1.5V33.8h28.75v3.64c0 .83.67 1.5 1.5 1.5h5.62c.83 0 1.5-.67 1.5-1.5V33.8h6v22.27H3.01Z" style="stroke-width:0"/>
</svg>
