<svg xmlns="http://www.w3.org/2000/svg" data-name="Layer 1" viewBox="0 0 64 64">
  <path d="M62.49 15.45H49.37V10.7c0-3.18-2.59-5.77-5.77-5.77H20.4c-3.18 0-5.77 2.59-5.77 5.77v4.75H1.51c-.83 0-1.51.67-1.51 1.5v40.63c0 .83.67 1.5 1.5 1.5h60.99c.83 0 1.5-.67 1.5-1.5V16.95c0-.83-.67-1.5-1.5-1.5ZM17.62 10.7a2.77 2.77 0 0 1 2.77-2.77h23.2a2.77 2.77 0 0 1 2.77 2.77v4.75h-2.28v-4.06c0-.83-.67-1.5-1.5-1.5H21.4c-.83 0-1.5.67-1.5 1.5v4.06h-2.28V10.7Zm23.46 4.75H22.9v-2.56h18.18v2.56Zm19.9 40.63H3.01V18.45H61v37.63Z" style="stroke-width:0"/>
</svg>
