<svg xmlns="http://www.w3.org/2000/svg" data-name="Layer 1" viewBox="0 0 64 64">
  <path d="M62.19 14.82H49.22v-4.68c0-3.16-2.57-5.73-5.73-5.73H20.52c-3.16 0-5.73 2.57-5.73 5.73v4.68H1.81c-.83 0-1.5.67-1.5 1.5v37.25c0 .83.67 1.5 1.5 1.5h60.38c.83 0 1.5-.67 1.5-1.5V16.32c0-.83-.67-1.5-1.5-1.5Zm-44.4-4.68c0-1.51 1.23-2.73 2.73-2.73h22.97c1.51 0 2.73 1.22 2.73 2.73v4.68h-2.23v-4c0-.83-.67-1.5-1.5-1.5H21.52c-.83 0-1.5.67-1.5 1.5v4h-2.23v-4.68Zm23.2 4.68H23.02v-2.5h17.97v2.5Zm19.7 37.25H3.31V17.82h57.38v34.25ZM40.91 29.7h-3.67v-3.67c0-.83-.67-1.5-1.5-1.5h-7.48c-.83 0-1.5.67-1.5 1.5v3.67h-3.67c-.83 0-1.5.67-1.5 1.5v7.48c0 .83.67 1.5 1.5 1.5h3.67v3.67c0 .83.67 1.5 1.5 1.5h7.48c.83 0 1.5-.67 1.5-1.5v-3.67h3.67c.83 0 1.5-.67 1.5-1.5V31.2c0-.83-.67-1.5-1.5-1.5Zm-1.5 7.48h-3.67c-.83 0-1.5.67-1.5 1.5v3.67h-4.48v-3.67c0-.83-.67-1.5-1.5-1.5h-3.67V32.7h3.67c.83 0 1.5-.67 1.5-1.5v-3.67h4.48v3.67c0 .83.67 1.5 1.5 1.5h3.67v4.48Z" style="stroke-width:0"/>
</svg>
