<svg xmlns="http://www.w3.org/2000/svg" data-name="Layer 1" viewBox="0 0 64 64">
  <path d="M61.63 52.09 39.5 31.64c-.75-.64-1.18-1.57-1.17-2.48.46-7.1.46-7.15.46-7.23a4.77 4.77 0 0 0-1.42-3.38l-.64-.64c-.05-.05-.11-.09-.16-.14-.05-.07-.1-.14-.16-.2l-3.32-3.32c-.09-.09-.2-.14-.31-.21L20.48.5c-.28-.3-.66-.48-1.07-.49-.42-.02-.81.15-1.1.44L.45 18.31c-.29.29-.45.69-.44 1.1.01.41.19.8.49 1.07L14 32.73c.07.13.15.25.25.35l3.32 3.32s.1.06.14.09c.06.08.12.16.19.23l.64.64c.9.9 2.1 1.41 3.4 1.42.06 0 .12 0 7.13-.46h.03c.97 0 1.9.42 2.57 1.21l20.38 22.04a6.731 6.731 0 0 0 5.13 2.38c1.47 0 2.94-.48 4.19-1.46.06-.05.53-.46.59-.53.07-.06.48-.53.53-.6 2.26-2.86 1.86-6.95-.87-9.28ZM17.44 32.02l14.59-14.59 1.2 1.2-14.59 14.59-1.2-1.2Zm-4.83-21.63 7.63 7.96a1.502 1.502 0 0 0 2.12.04c.6-.57.62-1.52.04-2.12l-7.67-8 .8-.8 8.3 8.9c.29.32.7.48 1.1.48.37 0 .73-.13 1.02-.4.61-.56.64-1.51.07-2.12l-8.38-8.98 1.67-1.67 10.57 11.65-7.28 7.28-7.28 7.28L3.68 19.32l8.92-8.92Zm47.55 49.1c-.05.06-.27.31-.29.33-.07.06-.31.28-.35.31-1.59 1.25-3.86 1.03-5.22-.55L33.92 37.54c-1.2-1.41-2.95-2.22-4.88-2.22h-.07s-6.79.44-7.01.45c-.45 0-.87-.16-1.2-.45l.82-.83 13.75-13.75c.29.33.45.74.45 1.12-.02.3-.46 7.09-.46 7.17-.02 1.88.79 3.65 2.17 4.83l22.12 20.45c1.54 1.32 1.77 3.59.53 5.16Zm-1.91-3.81c.71.71.71 1.85 0 2.56s-1.85.71-2.56 0-.71-1.85 0-2.56 1.85-.71 2.56 0Z" style="stroke-width:0"/>
</svg>
