<svg xmlns="http://www.w3.org/2000/svg" data-name="Layer 1" viewBox="0 0 64 64">
  <path d="m63.1 44.6-5.44-10.09c-.34-.63-1.07-.93-1.75-.73l-7.28 2.18c-.06-1.83-.67-4.66-1.74-7.39l8.48-3.82c.45-.2.77-.61.86-1.09l2.28-12.01a1.5 1.5 0 0 0-1.19-1.75 1.5 1.5 0 0 0-1.75 1.19l-2.13 11.24-7.79 3.51c-1.04-1.93-2.31-3.58-3.78-4.45-.43-.25-.94-.48-1.49-.68.9-1.09 1.49-2.35 1.49-3.75 0-2.06-1.33-3.76-2.56-4.47a6.85 6.85 0 0 0-1.02-.47c.54-1.86 2.14-6.56 5.2-9.41a1.5 1.5 0 0 0-2.04-2.2c-3.71 3.45-5.52 8.9-6.09 10.94-.97-.11-2.07-.17-3.34-.17s-2.37.06-3.34.17C28.11 9.31 26.3 3.87 22.59.41a1.501 1.501 0 0 0-2.04 2.2c3.06 2.84 4.66 7.55 5.2 9.41-.37.14-.71.29-1.02.47-1.23.71-2.56 2.4-2.56 4.46 0 1.39.58 2.66 1.48 3.75-.54.2-1.05.42-1.48.68-1.49.87-2.77 2.52-3.81 4.44l-7.76-3.49-2.13-11.24c-.15-.81-.94-1.35-1.75-1.19-.81.15-1.35.94-1.19 1.75L7.8 23.66c.09.48.41.89.86 1.09l8.45 3.8c-1.06 2.72-1.66 5.53-1.71 7.4l-7.28-2.18c-.68-.21-1.41.1-1.75.73L.9 44.6a1.499 1.499 0 0 0 2.64 1.42l4.86-9.01 7.08 2.12c.29 3.38 1.08 6.59 2.18 9.52l-5.44-.43c-.76-.06-1.43.45-1.59 1.19L8.08 61.52c-.17.81.35 1.61 1.16 1.78a1.515 1.515 0 0 0 1.78-1.16l2.27-10.82 5.7.45c3.56 7.3 9.01 12.19 12.99 12.19s9.43-4.89 12.99-12.19l5.7-.45 2.28 10.82c.15.71.77 1.19 1.47 1.19.1 0 .21-.01.31-.03.81-.17 1.33-.97 1.16-1.78l-2.55-12.11c-.16-.74-.81-1.25-1.59-1.19l-5.44.43c1.1-2.93 1.89-6.14 2.18-9.52l7.08-2.12 4.86 9.01c.27.5.79.79 1.32.79a1.499 1.499 0 0 0 1.32-2.21ZM25.15 16.98c0-.94.72-1.67 1.05-1.86 1.07-.61 2.97-.91 5.81-.91 2.83 0 4.73.3 5.8.91.33.19 1.05.92 1.05 1.86 0 1.02-.77 2.04-1.85 2.88-3.15-.53-6.87-.53-10.02 0-1.07-.85-1.84-1.87-1.84-2.88Zm-3.73 32.97c-.04-.16-.11-.3-.2-.43-1.69-3.77-2.86-8.28-2.86-13.26 0-1.94.78-5.05 1.97-7.69.03-.05.06-.09.09-.14.02-.05.04-.11.05-.16.9-1.93 2.02-3.58 3.19-4.27 1.46-.85 4.06-1.34 6.83-1.47V60.6c-2.69-1.16-6.46-5.03-9.08-10.65ZM33.5 60.6V22.52c2.78.13 5.38.62 6.83 1.47 2.74 1.61 5.3 8.82 5.3 12.26 0 4.98-1.17 9.49-2.86 13.26-.09.13-.15.27-.2.43-2.62 5.62-6.39 9.5-9.08 10.65Z" style="stroke-width:0"/>
</svg>
