<svg xmlns="http://www.w3.org/2000/svg" data-name="Layer 1" viewBox="0 0 64 64">
  <path d="M62.47 60.98h-1.54V7.76c0-.83-.67-1.5-1.5-1.5H18.79c-.83 0-1.5.67-1.5 1.5v16.16H4.36c-.83 0-1.5.67-1.5 1.5v35.56H1.53c-.83 0-1.5.67-1.5 1.5s.67 1.5 1.5 1.5h60.94c.83 0 1.5-.67 1.5-1.5s-.67-1.5-1.5-1.5ZM17.11 39.36h-4.2v-5.05h4.2v5.05Zm0 15.27h-4.2v-5.05h4.2v5.05ZM5.86 60.98V26.92h11.25v4.39h-5.7c-.83 0-1.5.67-1.5 1.5v8.05c0 .83.67 1.5 1.5 1.5h5.7v4.22h-5.7c-.83 0-1.5.67-1.5 1.5v8.05c0 .83.67 1.5 1.5 1.5h5.7v3.35H5.86Zm30.73 0v-11.4h5.05v11.4h-5.05Zm8.05 0v-12.9c0-.83-.67-1.5-1.5-1.5h-8.05c-.83 0-1.5.67-1.5 1.5v12.9h-13.3V9.26h37.64v51.72h-13.3ZM33.4 15.88h-7.2c-.83 0-1.5.67-1.5 1.5v8.05c0 .83.67 1.5 1.5 1.5h7.2c.83 0 1.5-.67 1.5-1.5v-8.05c0-.83-.67-1.5-1.5-1.5Zm-1.5 8.05h-4.2v-5.05h4.2v5.05Zm20.13-8.05h-7.2c-.83 0-1.5.67-1.5 1.5v8.05c0 .83.67 1.5 1.5 1.5h7.2c.83 0 1.5-.67 1.5-1.5v-8.05c0-.83-.67-1.5-1.5-1.5Zm-1.5 8.05h-4.2v-5.05h4.2v5.05ZM33.4 31.24h-7.2c-.83 0-1.5.67-1.5 1.5v8.05c0 .83.67 1.5 1.5 1.5h7.2c.83 0 1.5-.67 1.5-1.5v-8.05c0-.83-.67-1.5-1.5-1.5Zm-1.5 8.05h-4.2v-5.05h4.2v5.05Zm20.13-8.05h-7.2c-.83 0-1.5.67-1.5 1.5v8.05c0 .83.67 1.5 1.5 1.5h7.2c.83 0 1.5-.67 1.5-1.5v-8.05c0-.83-.67-1.5-1.5-1.5Zm-1.5 8.05h-4.2v-5.05h4.2v5.05Z" style="stroke-width:0"/>
</svg>
