<svg xmlns="http://www.w3.org/2000/svg" data-name="Layer 1" viewBox="0 0 64 64">
  <path d="M58.44 18.46 32.87.33c-.52-.37-1.21-.37-1.73 0L5.56 18.46c-.4.28-.63.74-.63 1.22v8.91c0 .83.67 1.5 1.5 1.5h.89v23.5h-.89c-.83 0-1.5.67-1.5 1.5v7.39c0 .83.67 1.5 1.5 1.5h51.14c.83 0 1.5-.67 1.5-1.5v-7.39c0-.83-.67-1.5-1.5-1.5h-.89v-23.5h.89c.83 0 1.5-.67 1.5-1.5v-8.91c0-.49-.24-.94-.63-1.22Zm-2.37 8.63H7.93V22.7h48.14v4.39ZM33.5 53.59v-23.5h8.59v23.5H33.5Zm-11.59 0v-23.5h8.59v23.5h-8.59ZM32 3.39l22.99 16.3H9.01L32 3.39Zm-21.68 26.7h8.59v23.5h-8.59v-23.5Zm45.75 30.89H7.93v-4.39h48.14v4.39Zm-2.39-7.39h-8.59v-23.5h8.59v23.5ZM32 9.37c-2.31 0-4.19 1.88-4.19 4.19s1.88 4.19 4.19 4.19 4.19-1.88 4.19-4.19S34.31 9.37 32 9.37Zm0 5.37c-.65 0-1.19-.53-1.19-1.19s.53-1.19 1.19-1.19 1.19.53 1.19 1.19-.53 1.19-1.19 1.19Z" style="stroke-width:0"/>
</svg>
