<svg xmlns="http://www.w3.org/2000/svg" data-name="Layer 1" viewBox="0 0 64 64">
  <path d="M17.61 22.7h8.02c.83 0 1.5-.67 1.5-1.5v-8.96c0-.83-.67-1.5-1.5-1.5h-8.02c-.83 0-1.5.67-1.5 1.5v8.96c0 .83.67 1.5 1.5 1.5Zm1.5-8.96h5.02v5.96h-5.02v-5.96Zm19.26 8.96h8.02c.83 0 1.5-.67 1.5-1.5v-8.96c0-.83-.67-1.5-1.5-1.5h-8.02c-.83 0-1.5.67-1.5 1.5v8.96c0 .83.67 1.5 1.5 1.5Zm1.5-8.96h5.02v5.96h-5.02v-5.96ZM17.61 39.8h8.02c.83 0 1.5-.67 1.5-1.5v-8.96c0-.83-.67-1.5-1.5-1.5h-8.02c-.83 0-1.5.67-1.5 1.5v8.96c0 .83.67 1.5 1.5 1.5Zm1.5-8.96h5.02v5.96h-5.02v-5.96Zm19.26 8.96h8.02c.83 0 1.5-.67 1.5-1.5v-8.96c0-.83-.67-1.5-1.5-1.5h-8.02c-.83 0-1.5.67-1.5 1.5v8.96c0 .83.67 1.5 1.5 1.5Zm1.5-8.96h5.02v5.96h-5.02v-5.96Zm18.27 30.14h-2.01V1.53c0-.83-.67-1.5-1.5-1.5H9.36c-.83 0-1.5.67-1.5 1.5v59.45H5.85c-.83 0-1.5.67-1.5 1.5s.67 1.5 1.5 1.5h52.29c.83 0 1.5-.67 1.5-1.5s-.67-1.5-1.5-1.5Zm-5-57.95v49.9H37.99v-4.99h.73c.83 0 1.5-.67 1.5-1.5s-.67-1.5-1.5-1.5H25.3c-.83 0-1.5.67-1.5 1.5s.67 1.5 1.5 1.5h.73v4.99H10.88V3.03h42.27ZM29.02 47.94h5.96v13.04h-5.96V47.94Zm-18.15 7.99h15.15v5.05H10.87v-5.05Zm27.12 5.05v-5.05h15.15v5.05H37.99Z" style="stroke-width:0"/>
</svg>
