<svg xmlns="http://www.w3.org/2000/svg" data-name="Layer 1" viewBox="0 0 64 64">
  <path d="M64 29.86a8.11 8.11 0 0 0-7.26-8.06V4.24c0-.83-.67-1.51-1.51-1.51s-1.51.67-1.51 1.51c0 3.44-14.14 12.85-35.5 14.3H7.46C3.35 18.54 0 21.89 0 26v7.73c0 4.11 3.35 7.46 7.46 7.46h.91v18.57c0 .83.67 1.51 1.51 1.51h8.37c.83 0 1.51-.67 1.51-1.51v-8.54c5.12-.06 9.44-3.47 10.88-8.14 14.36 3.4 23.11 10 23.11 12.4 0 .83.67 1.51 1.51 1.51s1.51-.67 1.51-1.51V37.92c4.07-.43 7.26-3.88 7.26-8.06Zm-44.25-8.42c10.56-.89 20.23-3.81 27.04-7.32v31.63c-6.87-3.55-16.6-6.54-27.04-7.46V21.44ZM3.01 33.73V26c0-2.45 1.99-4.45 4.45-4.45h9.28v16.62H7.46c-2.45 0-4.45-1.99-4.45-4.45Zm13.72 24.52h-5.36V41.19h5.36v17.06Zm3.01-10.04v-6.89c2.78.25 5.44.63 7.94 1.12-1.14 3.31-4.25 5.72-7.94 5.77Zm33.99 2.16c-1.08-.99-2.42-1.98-3.98-2.95.03-.11.04-.23.04-.35V12.85c0-.13-.02-.26-.06-.39 1.57-.98 2.92-1.98 3.99-2.99v40.9Zm3.01-15.49V24.83c2.41.41 4.24 2.51 4.24 5.03s-1.84 4.62-4.24 5.03Z" style="stroke-width:0"/>
</svg>
