<svg xmlns="http://www.w3.org/2000/svg" data-name="Layer 1" viewBox="0 0 64 64">
  <path d="M15.89 22.73a1.5 1.5 0 0 1 .4-2.09l3.05-2.07a1.5 1.5 0 0 1 2.09.4 1.5 1.5 0 0 1-.4 2.09l-3.05 2.07a1.49 1.49 0 0 1-2.08-.4Zm27.92.66c.29 0 .58-.08.84-.26l3.05-2.07c.69-.47.86-1.4.4-2.09-.47-.69-1.4-.86-2.09-.4l-3.05 2.07c-.69.47-.86 1.4-.4 2.09.29.43.76.66 1.24.66Zm-12.32-5.24c.29 0 .58-.08.84-.26l3.05-2.07c.69-.47.86-1.4.4-2.09s-1.4-.86-2.09-.4l-3.05 2.07c-.69.47-.86 1.4-.4 2.09.29.43.76.66 1.24.66Zm28.07 26.21v4.41c0 4.7-3.82 8.52-8.52 8.52H12.96c-4.7 0-8.52-3.82-8.52-8.52v-4.41C1.72 43.67 0 41.47 0 38.45s1.72-5.21 4.44-5.91v-2.08c0-12.65 12.04-23.75 25.75-23.75h3.61c13.72 0 25.76 11.1 25.76 23.75v2.08c2.72.69 4.44 2.89 4.44 5.91s-1.72 5.21-4.44 5.91ZM7.45 30.47v1.84h49.11v-1.84c0-10.86-10.84-20.75-22.75-20.75H30.2c-11.91 0-22.75 9.89-22.75 20.75Zm43.22 4.85H28.39l18.64 9.33 3.64-9.33ZM6.36 41.59h27.83l-12.53-6.27H6.36c-3.03 0-3.35 2.19-3.35 3.13s.33 3.13 3.35 3.13Zm50.2 3.01h-6.28l-1.05 2.68c-.15.39-.47.7-.86.86-.17.07-.36.1-.54.1-.23 0-.46-.05-.67-.16L40.2 44.6H7.45v4.17c0 3.04 2.47 5.51 5.51 5.51h38.08c3.04 0 5.51-2.47 5.51-5.51V44.6ZM61 38.46c0-.94-.33-3.13-3.35-3.13H53.9l-2.45 6.27h6.2c3.03 0 3.35-2.19 3.35-3.13Z" style="stroke-width:0"/>
</svg>
