<svg xmlns="http://www.w3.org/2000/svg" data-name="Layer 1" viewBox="0 0 64 64">
  <path d="M11.93 40.16c-.5-.74-.31-1.75.43-2.25l2.14-1.45c.74-.5 1.75-.31 2.25.43s.31 1.75-.43 2.25l-2.14 1.45a1.622 1.622 0 0 1-2.25-.43Zm19.25.71c.31 0 .63-.09.91-.28l2.14-1.45c.74-.5.93-1.51.43-2.25s-1.51-.93-2.25-.43l-2.14 1.45a1.622 1.622 0 0 0 .91 2.96Zm-8.25-3.67c.31 0 .63-.09.91-.28l2.14-1.45c.74-.5.93-1.51.43-2.25s-1.51-.93-2.25-.43l-2.14 1.45a1.622 1.622 0 0 0 .91 2.96ZM64 17.78v1.99c0 1.46-.96 2.69-2.29 3.12l-.95 15-.67 10.52-.52 8.22c-.05.85-.76 1.52-1.61 1.52H43.03c-.54 3.06-3.21 5.39-6.42 5.39H9.96c-3.6 0-6.53-2.93-6.53-6.53v-2.9c-2.03-.89-3.44-2.78-3.44-4.98s1.43-4.12 3.49-5c.58-8.95 8.03-16.06 17.13-16.06h5.33c2.99 0 5.81.77 8.26 2.12l-.1-1.7-.35-5.6a3.288 3.288 0 0 1-2.28-3.12v-1.99c0-1.82 1.48-3.29 3.29-3.29h11.48l.73-8.99a3.637 3.637 0 0 1 2.42-3.13L54.57.56c.84-.29 1.77.15 2.06.99.29.84-.15 1.77-.99 2.06l-5.18 1.81c-.15.05-.25.19-.26.34l-.71 8.72h11.22c1.82 0 3.29 1.48 3.29 3.29ZM6.77 43.61h33.04c-.82-6.92-6.72-12.31-13.85-12.31h-5.33c-7.14 0-13.04 5.39-13.85 12.31Zm-3.53 5.52c0 1.26 1.26 2.28 2.8 2.28h34.18c1.54 0 2.8-1.02 2.8-2.28 0-1.17-1.08-2.12-2.47-2.26H5.7c-1.39.14-2.47 1.09-2.47 2.26Zm36.67 5.52H6.67V57c0 1.81 1.48 3.29 3.29 3.29h26.65c1.81 0 3.29-1.48 3.29-3.29v-2.35Zm16.89-5.29-13.73-5.59.03.51c1.88.94 3.16 2.76 3.16 4.85s-1.26 3.88-3.11 4.82v.95h13.31l.35-5.54Zm.67-10.52L37.5 30.7l.12 1.95c2.13 1.97 3.77 4.47 4.69 7.3l14.72 5.99.45-7.11Zm1-15.78H37.02l.26 4.06 20.42 8.32.78-12.37Zm2.3-5.28-26-.06-.06 2.05 26 .06s.06-.03.06-.06v-1.99Z" style="stroke-width:0"/>
</svg>
