<svg xmlns="http://www.w3.org/2000/svg" data-name="Layer 1" viewBox="0 0 64 64">
  <path d="M59.65 16.98h-.83V10.3c0-2.79-1.93-5.27-5.04-6.46C47.33 1.37 39.8.06 32 .06S16.67 1.37 10.22 3.84C7.11 5.03 5.17 7.51 5.17 10.3v6.68h-.83a4.24 4.24 0 0 0-4.23 4.24v9.07c0 2.33 1.9 4.23 4.23 4.23h.83v16.51c0 2.04 1.25 3.8 3.02 4.55v3.89c0 2.47 2.01 4.48 4.48 4.48h4.92c2.47 0 4.48-2.01 4.48-4.48v-3.5h19.85v3.5c0 2.47 2.01 4.48 4.48 4.48h4.92c2.47 0 4.48-2.01 4.48-4.48v-3.89a4.953 4.953 0 0 0 3.02-4.55V34.52h.83c2.33 0 4.23-1.9 4.23-4.23v-9.07c0-2.33-1.9-4.23-4.23-4.23ZM11.3 6.64C17.4 4.3 24.56 3.06 32 3.06S46.6 4.3 52.7 6.64c1.89.73 3.12 2.17 3.12 3.66v5.07H8.18V10.3c0-1.5 1.22-2.94 3.12-3.66Zm44.52 26.49H33.5V18.38h22.32v14.75Zm-47.64 0V18.38H30.5v14.75H8.18Zm-3.83-1.61c-.68 0-1.23-.55-1.23-1.23v-9.07c0-.68.55-1.23 1.23-1.23h.83v11.53h-.83Zm14.73 27.95c0 .81-.66 1.48-1.48 1.48h-4.92c-.81 0-1.48-.66-1.48-1.48v-3.5h7.88v3.5Zm33.73 0c0 .81-.66 1.48-1.48 1.48h-4.92c-.81 0-1.48-.66-1.48-1.48v-3.5h7.87v3.5Zm1.09-6.5H10.11c-1.07 0-1.94-.87-1.94-1.94v-14.9h47.64v14.9c0 1.07-.87 1.94-1.93 1.94Zm7-22.68c0 .68-.55 1.23-1.23 1.23h-.83V19.99h.83c.68 0 1.23.55 1.23 1.23v9.07ZM22.27 14.28h19.47c1.76 0 3.19-1.43 3.19-3.19V8.25c0-1.76-1.43-3.19-3.19-3.19H22.27c-1.76 0-3.19 1.43-3.19 3.19v2.84c0 1.76 1.43 3.19 3.19 3.19Zm-.19-6.03c0-.1.09-.19.19-.19h19.47c.11 0 .19.09.19.19v2.84c0 .11-.09.19-.19.19H22.27c-.11 0-.19-.08-.19-.19V8.25Zm26.79 31.34c-2.9 0-5.25 2.36-5.25 5.25s2.36 5.25 5.25 5.25 5.25-2.36 5.25-5.25-2.36-5.25-5.25-5.25Zm0 7.5c-1.24 0-2.25-1.01-2.25-2.25s1.01-2.25 2.25-2.25 2.25 1.01 2.25 2.25-1.01 2.25-2.25 2.25Zm-33.73-7.5c-2.9 0-5.25 2.36-5.25 5.25s2.36 5.25 5.25 5.25 5.25-2.36 5.25-5.25-2.36-5.25-5.25-5.25Zm0 7.5c-1.24 0-2.25-1.01-2.25-2.25s1.01-2.25 2.25-2.25 2.25 1.01 2.25 2.25-1.01 2.25-2.25 2.25Zm25.35.84c0 .83-.67 1.5-1.5 1.5H25.01c-.83 0-1.5-.67-1.5-1.5s.67-1.5 1.5-1.5h13.98c.83 0 1.5.67 1.5 1.5Zm0-6.18c0 .83-.67 1.5-1.5 1.5H25.01c-.83 0-1.5-.67-1.5-1.5s.67-1.5 1.5-1.5h13.98c.83 0 1.5.67 1.5 1.5Z" style="stroke-width:0"/>
</svg>
