<svg xmlns="http://www.w3.org/2000/svg" data-name="Layer 1" viewBox="0 0 64 64">
  <path d="M61.22 16.97h-3.75v-6.68c0-2.78-1.84-5.25-4.8-6.45C46.56 1.36 39.41.05 32 .05S17.44 1.36 11.33 3.84c-2.96 1.2-4.8 3.67-4.8 6.45v6.68H2.78c-.83 0-1.5.67-1.5 1.5V33c0 .83.67 1.5 1.5 1.5h2.84c-1.04.74-2.1 1.87-2.1 3.37v13.32c0 2.6 2.1 4.71 4.69 4.75v3.51c0 2.47 2.01 4.48 4.48 4.48h4.92c2.47 0 4.48-2.01 4.48-4.48v-3.5h19.85v3.5c0 2.47 2.01 4.48 4.48 4.48h4.92c2.47 0 4.48-2.01 4.48-4.48v-3.51c2.59-.04 4.69-2.15 4.69-4.75V37.87c0-1.5-1.06-2.62-2.1-3.37h2.84c.83 0 1.5-.67 1.5-1.5V18.47c0-.83-.67-1.5-1.5-1.5Zm-56.95 3h2.25V31.5H4.27V19.97Zm14.8 39.48c0 .81-.66 1.48-1.48 1.48h-4.92c-.81 0-1.48-.66-1.48-1.48v-3.5h7.88v3.5Zm33.73 0c0 .81-.66 1.48-1.48 1.48H46.4c-.81 0-1.48-.66-1.48-1.48v-3.5h7.87v3.5Zm4.69-8.26c0 .97-.79 1.76-1.76 1.76H8.27c-.97 0-1.76-.79-1.76-1.76V37.87c0-.26.81-1.1 2.09-1.62.56-.23.93-.78.93-1.39V10.29c0-1.53 1.12-2.94 2.93-3.67 5.76-2.33 12.52-3.57 19.55-3.57s13.78 1.23 19.55 3.57c1.81.73 2.93 2.14 2.93 3.67v24.57c0 .61.37 1.15.93 1.39 1.27.53 2.09 1.36 2.09 1.62v13.32Zm2.23-19.69h-2.25V19.97h2.25V31.5Zm-43.34 4.61h31.23c2.88 0 5.21-2.34 5.21-5.21V20.57c0-2.88-2.34-5.21-5.21-5.21H16.38c-2.88 0-5.21 2.34-5.21 5.21V30.9c0 2.88 2.34 5.21 5.21 5.21Zm33.44-15.54V30.9c0 1.22-.99 2.21-2.21 2.21H33.5V18.36h14.11c1.22 0 2.21.99 2.21 2.21Zm-35.66 0c0-1.22.99-2.21 2.21-2.21h14.11v14.75H16.37a2.21 2.21 0 0 1-2.21-2.21V20.57Zm34.69 19c-2.9 0-5.25 2.36-5.25 5.25s2.36 5.25 5.25 5.25 5.25-2.36 5.25-5.25-2.36-5.25-5.25-5.25Zm0 7.5c-1.24 0-2.25-1.01-2.25-2.25s1.01-2.25 2.25-2.25 2.25 1.01 2.25 2.25-1.01 2.25-2.25 2.25Zm-33.73-7.5c-2.9 0-5.25 2.36-5.25 5.25s2.36 5.25 5.25 5.25 5.25-2.36 5.25-5.25-2.36-5.25-5.25-5.25Zm0 7.5c-1.24 0-2.25-1.01-2.25-2.25s1.01-2.25 2.25-2.25 2.25 1.01 2.25 2.25-1.01 2.25-2.25 2.25Zm25.35.84c0 .83-.67 1.5-1.5 1.5H24.99c-.83 0-1.5-.67-1.5-1.5s.67-1.5 1.5-1.5h13.98c.83 0 1.5.67 1.5 1.5Zm0-6.18c0 .83-.67 1.5-1.5 1.5H24.99c-.83 0-1.5-.67-1.5-1.5s.67-1.5 1.5-1.5h13.98c.83 0 1.5.67 1.5 1.5Zm-19.9-27.56c.1 0 .2 0 .29-.03 7.23-1.45 15.03-1.45 22.26 0 .44.09.9-.03 1.25-.31s.55-.71.55-1.16v-5c0-.71-.5-1.33-1.21-1.47-7.62-1.53-15.83-1.53-23.44 0-.7.14-1.21.76-1.21 1.47v5c0 .45.2.88.55 1.16.27.22.61.34.95.34Zm1.5-5.26a57.536 57.536 0 0 1 19.85 0v1.96a60.657 60.657 0 0 0-19.85 0V8.91Z" style="stroke-width:0"/>
</svg>
