<svg xmlns="http://www.w3.org/2000/svg" data-name="Layer 1" viewBox="0 0 64 64">
  <path d="M58.98 61.08c-.35-.18-8.59-4.36-11.54-5.6-2.09-.88-4.43-1.43-7.09-1.67v-7.03h6.28c4.85 0 8.8-3.95 8.8-8.8v-3.12h1.31c.83 0 1.5-.67 1.5-1.5s-.67-1.5-1.5-1.5h-1.31v-2.03c0-2.95-2.4-5.35-5.35-5.35s-5.35 2.4-5.35 5.35v6.02c0 .12-.1.22-.22.22h-4.16v-6.42h1.44c.83 0 1.5-.67 1.5-1.5s-.67-1.5-1.5-1.5h-1.44V13.58h1.44c.83 0 1.5-.67 1.5-1.5s-.67-1.5-1.5-1.5h-1.44v-1.8c0-4.65-3.66-8.56-8.16-8.69-2.3-.07-4.47.77-6.12 2.37a8.356 8.356 0 0 0-2.56 6.04v6.23H22.2c-.83 0-1.5.67-1.5 1.5s.67 1.5 1.5 1.5h1.31v4.97h-4.03c-.12 0-.22-.1-.22-.22v-6.02c0-2.95-2.4-5.35-5.35-5.35s-5.35 2.4-5.35 5.35v3.08H7.25c-.83 0-1.5.67-1.5 1.5s.67 1.5 1.5 1.5h1.31v2.07c0 4.85 3.95 8.8 8.8 8.8h6.15v4.64H22.2c-.83 0-1.5.67-1.5 1.5s.67 1.5 1.5 1.5h1.31v12.76c-2.66.24-5.01.79-7.11 1.67-2.95 1.24-11.19 5.42-11.54 5.6a1.5 1.5 0 0 0-.78 1.69c.16.67.77 1.15 1.46 1.15h52.75c.69 0 1.3-.48 1.46-1.15.16-.67-.16-1.37-.78-1.69ZM26.52 31.91c0-.83-.67-1.5-1.5-1.5h-7.65c-3.2 0-5.8-2.6-5.8-5.8v-8.15c0-1.3 1.06-2.35 2.35-2.35s2.35 1.06 2.35 2.35v6.02c0 1.78 1.45 3.22 3.22 3.22h5.53c.83 0 1.5-.67 1.5-1.5V8.5c0-1.48.58-2.86 1.65-3.89a5.365 5.365 0 0 1 3.94-1.53c2.9.09 5.25 2.65 5.25 5.71v28.79c0 .83.67 1.5 1.5 1.5h5.66c1.78 0 3.22-1.45 3.22-3.22v-6.02c0-1.3 1.06-2.35 2.35-2.35s2.35 1.06 2.35 2.35v8.15c0 3.2-2.6 5.8-5.8 5.8h-7.78c-.83 0-1.5.67-1.5 1.5v8.39H26.52V31.91Zm-14.6 29.01c2.18-1.07 4.43-2.15 5.66-2.67 2.51-1.06 5.5-1.57 9.12-1.57h10.48c3.62 0 6.6.51 9.12 1.57 1.23.52 3.48 1.6 5.66 2.67H11.92Zm16.47-31.97v-6.07c0-.83.67-1.5 1.5-1.5s1.5.67 1.5 1.5v6.07c0 .83-.67 1.5-1.5 1.5s-1.5-.67-1.5-1.5Zm4.24 19.56v-5.36c0-.83.67-1.5 1.5-1.5s1.5.67 1.5 1.5v5.36c0 .83-.67 1.5-1.5 1.5s-1.5-.67-1.5-1.5Zm0-35.13v-3.27c0-.83.67-1.5 1.5-1.5s1.5.67 1.5 1.5v3.27c0 .83-.67 1.5-1.5 1.5s-1.5-.67-1.5-1.5Z" style="stroke-width:0"/>
</svg>
