<svg xmlns="http://www.w3.org/2000/svg" data-name="Layer 1" viewBox="0 0 64 64">
  <path d="M59.02 0H39.78c-2.71 0-4.91 2.2-4.91 4.91v19.24c0 2.71 2.2 4.91 4.91 4.91h19.24c2.71 0 4.91-2.2 4.91-4.91V4.91c0-2.71-2.2-4.91-4.91-4.91Zm1.91 24.15c0 1.05-.85 1.91-1.91 1.91H39.78a1.91 1.91 0 0 1-1.91-1.91V4.91c0-1.05.85-1.91 1.91-1.91h19.24c1.05 0 1.91.85 1.91 1.91v19.24ZM24.22 0H4.98C2.27 0 .07 2.2.07 4.91v19.24c0 2.71 2.2 4.91 4.91 4.91h19.24c2.71 0 4.91-2.2 4.91-4.91V4.91c0-2.71-2.2-4.91-4.91-4.91Zm1.91 24.15c0 1.05-.85 1.91-1.91 1.91H4.98a1.91 1.91 0 0 1-1.91-1.91V4.91C3.07 3.86 3.92 3 4.98 3h19.24c1.05 0 1.91.85 1.91 1.91v19.24Zm-1.91 10.78H4.98c-2.71 0-4.91 2.2-4.91 4.91v19.24c0 2.71 2.2 4.91 4.91 4.91h19.24c2.71 0 4.91-2.2 4.91-4.91V39.84c0-2.71-2.2-4.91-4.91-4.91Zm1.91 24.15c0 1.05-.85 1.91-1.91 1.91H4.98a1.91 1.91 0 0 1-1.91-1.91V39.84c0-1.05.85-1.91 1.91-1.91h19.24c1.05 0 1.91.85 1.91 1.91v19.24Zm32.9-24.15H39.79c-2.71 0-4.91 2.2-4.91 4.91v19.24c0 2.71 2.2 4.91 4.91 4.91h19.24c2.71 0 4.91-2.2 4.91-4.91V39.84c0-2.71-2.2-4.91-4.91-4.91Zm1.91 24.15c0 1.05-.85 1.91-1.91 1.91H39.79a1.91 1.91 0 0 1-1.91-1.91V39.84c0-1.05.85-1.91 1.91-1.91h19.24c1.05 0 1.91.85 1.91 1.91v19.24ZM22.59 14.53c0 .83-.67 1.5-1.5 1.5H8.1c-.83 0-1.5-.67-1.5-1.5s.67-1.5 1.5-1.5h12.99c.83 0 1.5.67 1.5 1.5Zm34.8 30.9c0 .83-.67 1.5-1.5 1.5H42.9c-.83 0-1.5-.67-1.5-1.5s.67-1.5 1.5-1.5h12.99c.83 0 1.5.67 1.5 1.5Zm0 8.07c0 .83-.67 1.5-1.5 1.5H42.9c-.83 0-1.5-.67-1.5-1.5s.67-1.5 1.5-1.5h12.99c.83 0 1.5.67 1.5 1.5Zm0-38.9c0 .83-.67 1.5-1.5 1.5H50.9v4.99c0 .83-.67 1.5-1.5 1.5s-1.5-.67-1.5-1.5V16.1h-4.99c-.83 0-1.5-.67-1.5-1.5s.67-1.5 1.5-1.5h4.99V8.11c0-.83.67-1.5 1.5-1.5s1.5.67 1.5 1.5v4.99h4.99c.83 0 1.5.67 1.5 1.5ZM20.24 45.93l-3.53 3.53 3.53 3.53c.59.59.59 1.54 0 2.12-.29.29-.68.44-1.06.44s-.77-.15-1.06-.44l-3.53-3.53-3.53 3.53c-.29.29-.68.44-1.06.44s-.77-.15-1.06-.44a1.49 1.49 0 0 1 0-2.12l3.53-3.53-3.53-3.53c-.59-.59-.59-1.54 0-2.12s1.54-.59 2.12 0l3.53 3.53 3.53-3.53c.59-.59 1.54-.59 2.12 0s.59 1.54 0 2.12Z" style="stroke-width:0"/>
</svg>
