<svg xmlns="http://www.w3.org/2000/svg" data-name="Layer 1" viewBox="0 0 64 64">
  <path d="M61.54 5.25h-7.53v-3.7c0-.83-.67-1.5-1.5-1.5h-7.46c-.83 0-1.5.67-1.5 1.5v3.7H20.44v-3.7c0-.83-.67-1.5-1.5-1.5h-7.46c-.83 0-1.5.67-1.5 1.5v3.7H2.46c-.83 0-1.5.67-1.5 1.5v55.7c0 .83.67 1.5 1.5 1.5h59.08c.83 0 1.5-.67 1.5-1.5V6.75c0-.83-.67-1.5-1.5-1.5Zm-14.99-2.2h4.46v7.4h-4.46v-7.4Zm-33.56 0h4.46v7.4h-4.46v-7.4Zm-9.03 5.2h6.03v3.7c0 .83.67 1.5 1.5 1.5h7.46c.83 0 1.5-.67 1.5-1.5v-3.7h23.11v3.7c0 .83.67 1.5 1.5 1.5h7.46c.83 0 1.5-.67 1.5-1.5v-3.7h6.03v10.66H3.96V8.25Zm56.08 52.7H3.96V21.91h56.08v39.04ZM10.83 37.42v-6.21c0-.57.46-1.02 1.02-1.02h6.21c.57 0 1.02.46 1.02 1.02v6.21c0 .57-.46 1.02-1.02 1.02h-6.21c-.57 0-1.02-.46-1.02-1.02Zm17.04 0v-6.21c0-.57.46-1.02 1.02-1.02h6.21c.57 0 1.02.46 1.02 1.02v6.21c0 .57-.46 1.02-1.02 1.02h-6.21c-.57 0-1.02-.46-1.02-1.02ZM10.83 52.87v-6.21c0-.57.46-1.02 1.02-1.02h6.21c.57 0 1.02.46 1.02 1.02v6.21c0 .57-.46 1.02-1.02 1.02h-6.21c-.57 0-1.02-.46-1.02-1.02Zm17.04 0v-6.21c0-.57.46-1.02 1.02-1.02h6.21c.57 0 1.02.46 1.02 1.02v6.21c0 .57-.46 1.02-1.02 1.02h-6.21c-.57 0-1.02-.46-1.02-1.02Zm17.04-15.45v-6.21c0-.57.46-1.02 1.02-1.02h6.21c.57 0 1.02.46 1.02 1.02v6.21c0 .57-.46 1.02-1.02 1.02h-6.21c-.57 0-1.02-.46-1.02-1.02Z" style="stroke-width:0"/>
</svg>
