<svg xmlns="http://www.w3.org/2000/svg" data-name="Layer 1" viewBox="0 0 64 64">
  <path d="M16.18 26.31v5.16c0 .47-.38.85-.85.85h-5.16a.85.85 0 0 1-.85-.85v-5.16c0-.47.38-.85.85-.85h5.16c.47 0 .85.38.85.85Zm8.15 6.01h5.16c.47 0 .85-.38.85-.85v-5.16a.85.85 0 0 0-.85-.85h-5.16a.85.85 0 0 0-.85.85v5.16c0 .47.38.85.85.85Zm-9 5.98h-5.16a.85.85 0 0 0-.85.85v5.16c0 .47.38.85.85.85h5.16c.47 0 .85-.38.85-.85v-5.16a.85.85 0 0 0-.85-.85Zm47.8 8.24c0 9.53-7.75 17.29-17.28 17.29-7.11 0-13.23-4.32-15.88-10.47H2.37c-.83 0-1.5-.67-1.5-1.5V5.85c0-.83.67-1.5 1.5-1.5h5.96v-2.8c0-.83.67-1.5 1.5-1.5h6.16c.83 0 1.5.67 1.5 1.5v2.8h18.56v-2.8c0-.83.67-1.5 1.5-1.5h6.16c.83 0 1.5.67 1.5 1.5v2.8h5.96c.83 0 1.5.67 1.5 1.5v24.8c6.15 2.65 10.47 8.77 10.47 15.88ZM39.05 8.64h3.16V3.05h-3.16v5.59Zm-27.72 0h3.16V3.05h-3.16v5.59Zm-7.46 6.98h45.79V7.35H45.2v2.8c0 .83-.67 1.5-1.5 1.5h-6.16c-.83 0-1.5-.67-1.5-1.5v-2.8H17.48v2.8c0 .83-.67 1.5-1.5 1.5H9.82c-.83 0-1.5-.67-1.5-1.5v-2.8H3.87v8.28ZM29 50.34c-.28-1.23-.44-2.5-.44-3.82 0-.47.03-.92.07-1.38h-4.31a.85.85 0 0 1-.85-.85v-5.16c0-.47.38-.85.85-.85h5.16c.42 0 .76.31.82.72 1.58-3.26 4.15-5.96 7.32-7.68V26.3c0-.47.38-.85.85-.85h5.16c.47 0 .85.38.85.85v3.01c.45-.04.9-.07 1.36-.07 1.31 0 2.59.16 3.82.44V18.62H3.87v31.72H29Zm31.13-3.82c0-7.88-6.41-14.28-14.28-14.28s-14.28 6.41-14.28 14.28 6.41 14.29 14.28 14.29 14.28-6.41 14.28-14.29Zm-7.92-1.5h-4.86v-7.58c0-.83-.67-1.5-1.5-1.5s-1.5.67-1.5 1.5v9.08c0 .83.67 1.5 1.5 1.5h6.36c.83 0 1.5-.67 1.5-1.5s-.67-1.5-1.5-1.5Z" style="stroke-width:0"/>
</svg>
