<svg xmlns="http://www.w3.org/2000/svg" data-name="Layer 1" viewBox="0 0 64 64">
  <path d="M63.85 15.94c-.19-.45-.59-.78-1.07-.89L13.42 4.47c-.38-.08-.79 0-1.13.21-.33.22-.57.56-.65.94l-2.4 11.2-1.46 6.82c-.08.39 0 .8.21 1.13s.56.57.95.65l8.33 1.79v2.36a3.383 3.383 0 0 0 2.67 3.32l2.1.45-.69 10.33c-1.41.4-2.54 1.46-3.02 2.83H9.36v-2.3c0-2.15-1.75-3.9-3.9-3.9H3.05v-2.38c0-.83-.67-1.5-1.5-1.5s-1.52.67-1.52 1.5v20.15c0 .83.67 1.5 1.5 1.5s1.5-.67 1.5-1.5v-2.38h2.41c2.15 0 3.9-1.75 3.9-3.9v-2.3h8.97a4.504 4.504 0 0 0 4.24 3.01c2.49 0 4.51-2.02 4.51-4.51 0-1.86-1.13-3.45-2.73-4.15l.66-9.87 1.67.36a3.41 3.41 0 0 0 3.8-1.93l.96-2.16 11.92 2.56 7.19 1.54c.1.02.21.03.31.03.29 0 .57-.08.81-.24.33-.22.57-.56.65-.94l1.15-5.35 2.15.46a1.505 1.505 0 0 0 1.58-.67l6.54-10.31c.26-.41.31-.93.12-1.38ZM6.34 51.79c0 .5-.4.9-.9.9H3.03v-9.4h2.41c.5 0 .9.4.9.9v7.6Zm16.21-2.28c-.83 0-1.51-.68-1.51-1.51s.68-1.51 1.51-1.51 1.51.68 1.51 1.51-.68 1.51-1.51 1.51Zm5.17-18.32c-.07.17-.26.26-.43.22l-6.74-1.45c-.18-.04-.3-.2-.3-.38v-1.73l8.18 1.75-.71 1.58ZM11.85 18.92l18.21 3.91 13.28 2.85-.83 3.89-11.65-2.5-7.14-1.53-12.7-2.73.83-3.89ZM49.7 31.11l-4.26-.91.83-3.89 4.26.91-.83 3.89Zm5.52-5.95-42.73-9.18 1.77-8.27 45.79 9.83-4.82 7.61Zm-39.46-12.8c.17-.81.98-1.32 1.78-1.15l4.2.9c.81.17 1.33.97 1.15 1.78a1.504 1.504 0 0 1-1.78 1.16l-4.2-.9a1.49 1.49 0 0 1-1.15-1.78Zm9.67 2.07c.17-.81.98-1.32 1.78-1.15l4.2.9c.81.17 1.33.97 1.15 1.78a1.504 1.504 0 0 1-1.78 1.16l-4.2-.9a1.49 1.49 0 0 1-1.15-1.78Z" style="stroke-width:0"/>
</svg>
