<svg xmlns="http://www.w3.org/2000/svg" data-name="Layer 1" viewBox="0 0 64 64">
  <path d="M60.15 15.62H44.03l-1.91-6.25c-.19-.63-.77-1.06-1.43-1.06H23.3c-.66 0-1.24.43-1.43 1.06l-1.91 6.25h-3.49V13c0-.83-.67-1.5-1.5-1.5H7.23c-.83 0-1.5.67-1.5 1.5v2.62H3.84c-2.09 0-3.8 1.71-3.8 3.81v32.45c0 2.1 1.71 3.81 3.81 3.81h56.3c2.1 0 3.81-1.71 3.81-3.81V19.43c0-2.1-1.71-3.81-3.81-3.81Zm-35.74-4.31h15.17l1.31 4.31h-17.8l1.31-4.31ZM8.73 14.5h4.74v1.12H8.73V14.5Zm-4.89 4.12h56.3c.44 0 .81.36.81.81v7.76H45.06c-2.78-4.28-7.59-7.12-13.07-7.12s-10.29 2.84-13.07 7.12H3.04v-7.76c0-.44.36-.81.81-.81Zm28.15 4.44c6.94 0 12.58 5.65 12.58 12.58s-5.65 12.58-12.58 12.58-12.58-5.65-12.58-12.58 5.65-12.58 12.58-12.58Zm28.15 29.61H3.85c-.44 0-.81-.36-.81-.81V30.17h14.38a15.49 15.49 0 0 0-1.01 5.47c0 8.59 6.99 15.58 15.58 15.58s15.58-6.99 15.58-15.58c0-1.93-.37-3.76-1.01-5.47h14.38v21.69c0 .44-.36.81-.81.81Zm-28.15-6.42c5.85 0 10.61-4.76 10.61-10.61s-4.76-10.61-10.61-10.61-10.61 4.76-10.61 10.61 4.76 10.61 10.61 10.61Zm0-18.22c4.2 0 7.61 3.41 7.61 7.61s-3.41 7.61-7.61 7.61-7.61-3.41-7.61-7.61 3.41-7.61 7.61-7.61Zm16.94-4.85c0-.83.67-1.5 1.5-1.5h5.3c.83 0 1.5.67 1.5 1.5s-.67 1.5-1.5 1.5h-5.3c-.83 0-1.5-.67-1.5-1.5Z" style="stroke-width:0"/>
</svg>
