<svg xmlns="http://www.w3.org/2000/svg" data-name="Layer 1" viewBox="0 0 64 64">
  <path d="M38.98 33.86H18.6c-.83 0-1.5.67-1.5 1.5v11.2c0 .83.67 1.5 1.5 1.5h20.38c.83 0 1.5-.67 1.5-1.5v-11.2c0-.83-.67-1.5-1.5-1.5Zm-1.5 11.2H20.1v-8.2h17.38v8.2Zm25.71-17.25c-.49-.26-1.08-.23-1.55.09l-10.75 7.32h-4.38v-5.01c4.99-2.1 8.5-7.04 8.5-12.78 0-7.65-6.22-13.86-13.86-13.86-1.5 0-2.94.25-4.3.69-.04.01-.08.02-.11.03l-.32.13c-.3.11-.59.22-.88.35l-21.88 8.65s-.03.02-.04.02c-3.46 1.33-5.93 4.69-5.93 8.61 0 2.91 1.36 5.51 3.48 7.21-.06.16-.1.34-.1.53v4.07H1.51c-.83 0-1.5.67-1.5 1.5v5.6c0 .83.67 1.5 1.5 1.5h9.55v11.59c0 .83.67 1.5 1.5 1.5h2.21l1.62 3.95c.23.56.78.93 1.39.93h22.03c.61 0 1.16-.37 1.39-.93l1.62-3.95h2.21c.83 0 1.5-.67 1.5-1.5V46.7h4.38l10.75 7.32c.25.17.55.26.84.26.24 0 .48-.06.7-.17.49-.26.8-.77.8-1.33V29.14c0-.56-.31-1.07-.8-1.33ZM52.02 17.42c0 5.99-4.87 10.86-10.86 10.86S30.3 23.41 30.3 17.42c0-4.4 2.64-8.19 6.41-9.9l.92-.36c1.11-.38 2.3-.6 3.54-.6 5.99 0 10.86 4.87 10.86 10.86Zm-31.07-3.67 8.2-3.25a13.735 13.735 0 0 0-1.86 6.91c0 4.4 2.07 8.32 5.28 10.86h-8.86c1.51-1.65 2.44-3.83 2.44-6.23 0-3.65-2.13-6.79-5.2-8.29Zm-4.03 2.06c3.44 0 6.23 2.8 6.23 6.23s-2.8 6.23-6.23 6.23-6.23-2.8-6.23-6.23 2.8-6.23 6.23-6.23ZM3.01 39.46v-2.6h8.05v2.6H3.01ZM38.8 57.43H18.78l-.77-1.88h21.56l-.77 1.88Zm4.72-4.88h-6.3v-1.01c0-.83-.67-1.5-1.5-1.5s-1.5.67-1.5 1.5v1.01h-3.93v-1.01c0-.83-.67-1.5-1.5-1.5s-1.5.67-1.5 1.5v1.01h-3.93v-1.01c0-.83-.67-1.5-1.5-1.5s-1.5.67-1.5 1.5v1.01h-6.3V31.29h29.46v21.26Zm3-14.33h3.34v5.48h-3.34v-5.48Zm14.47 11.72-8.13-5.54v-6.89l8.13-5.54v17.97ZM14.63 22.06c0-1.26 1.02-2.29 2.29-2.29s2.29 1.02 2.29 2.29-1.02 2.29-2.29 2.29-2.29-1.02-2.29-2.29Zm21.24-4.63c0 2.92 2.37 5.29 5.29 5.29s5.29-2.37 5.29-5.29-2.37-5.29-5.29-5.29-5.29 2.37-5.29 5.29Zm7.58 0c0 1.26-1.02 2.29-2.29 2.29s-2.29-1.02-2.29-2.29 1.02-2.29 2.29-2.29 2.29 1.02 2.29 2.29Z" style="stroke-width:0"/>
</svg>
