<svg xmlns="http://www.w3.org/2000/svg" data-name="Layer 1" viewBox="0 0 64 64">
  <path d="M59.01 23.86h-1.78c-1.23 0-2.33.51-3.14 1.32-.6-1.58-1.2-3.28-1.72-5.13-1.61-5.71-6.23-9.54-11.49-9.54H23.1c-5.26 0-9.87 3.83-11.49 9.54-.52 1.85-1.12 3.55-1.72 5.13-.8-.81-1.91-1.32-3.14-1.32H4.97c-2.45 0-4.45 2-4.45 4.45v.38c0 2.45 2 4.45 4.45 4.45h1.78c-.56 1.62-.99 3.19-1.18 4.8-.25 2.18-.02 8.38 0 8.59 0 2.96 2.13 5.37 4.75 5.37h.77v1.8c0 2.15 1.75 3.91 3.91 3.91h5.34c2.15 0 3.91-1.75 3.91-3.91v-1.8h15.5v1.8c0 2.15 1.75 3.91 3.91 3.91H49c2.15 0 3.91-1.75 3.91-3.91v-1.8h.77c2.62 0 4.75-2.41 4.75-5.31 0-.26.24-6.47 0-8.65-.19-1.61-.61-3.18-1.18-4.8h1.78c2.45 0 4.45-2 4.45-4.45v-.38c0-2.45-2-4.45-4.45-4.45Zm-35.9-10.35h17.78c2.14 0 4.15.9 5.73 2.43-4.55.39-9.55.6-14.61.6s-10.06-.21-14.61-.6c1.58-1.53 3.59-2.43 5.73-2.43Zm-8.6 7.36c.21-.75.49-1.45.82-2.11 4.31.43 9.06.69 13.93.76h-.37c-.83 0-1.5.67-1.5 1.5s.67 1.5 1.5 1.5h6.21c.83 0 1.5-.67 1.5-1.5s-.67-1.5-1.5-1.5h-.37c4.88-.07 9.63-.33 13.93-.76.33.66.61 1.36.82 2.11.73 2.58 1.58 4.86 2.4 6.92-5.93 1.17-12.76 1.78-19.89 1.78s-13.97-.62-19.89-1.78c.82-2.06 1.67-4.34 2.4-6.92Zm-6.3 8.52c-.1.25-.21.5-.31.75H4.98c-.8 0-1.45-.65-1.45-1.45v-.38c0-.8.65-1.45 1.45-1.45h1.78c.8 0 1.45.65 1.45 1.45v1.08ZM21.25 53.7c0 .5-.41.91-.91.91H15c-.5 0-.91-.41-.91-.91v-1.8h7.15v1.8Zm28.65 0c0 .5-.41.91-.91.91h-5.34c-.5 0-.91-.41-.91-.91v-1.8h7.15v1.8Zm5.52-7.17c0 1.28-.8 2.37-1.75 2.37H10.33c-.95 0-1.75-1.09-1.75-2.43-.07-1.73-.2-6.57 0-8.19.28-2.4 1.24-4.87 2.39-7.67 6.25 1.28 13.49 1.96 21.05 1.96s14.8-.68 21.05-1.96c1.15 2.8 2.11 5.27 2.39 7.67.19 1.62.06 6.46 0 8.25Zm5.04-17.84c0 .8-.65 1.45-1.45 1.45h-2.92c-.1-.25-.2-.5-.31-.75v-1.08c0-.8.65-1.45 1.45-1.45h1.78c.8 0 1.45.65 1.45 1.45v.38ZM38.4 45c0 .83-.67 1.5-1.5 1.5h-9.81c-.83 0-1.5-.67-1.5-1.5s.67-1.5 1.5-1.5h9.81c.83 0 1.5.67 1.5 1.5Zm-22.07-8.46h-3.35c-.83 0-1.5.67-1.5 1.5v4.1c0 2.73 2.22 4.95 4.95 4.95h2.89c2 0 3.63-1.63 3.63-3.63v-.3c0-3.65-2.97-6.62-6.62-6.62Zm3.62 6.92c0 .35-.28.63-.63.63h-2.89c-1.08 0-1.95-.88-1.95-1.95v-2.6h1.85c2 0 3.62 1.62 3.62 3.62v.3Zm31.06-6.92h-3.35c-3.65 0-6.62 2.97-6.62 6.62v.3c0 2 1.63 3.63 3.63 3.63h2.89c2.73 0 4.95-2.22 4.95-4.95v-4.1c0-.83-.67-1.5-1.5-1.5Zm-1.5 5.6c0 1.08-.88 1.95-1.95 1.95h-2.89c-.35 0-.63-.28-.63-.63v-.3c0-2 1.62-3.62 3.62-3.62h1.85v2.6ZM38.4 40.47c0 .83-.67 1.5-1.5 1.5h-9.81c-.83 0-1.5-.67-1.5-1.5s.67-1.5 1.5-1.5h9.81c.83 0 1.5.67 1.5 1.5Z" style="stroke-width:0"/>
</svg>
