<svg xmlns="http://www.w3.org/2000/svg" data-name="Layer 1" viewBox="0 0 64 64">
  <path d="M60.22 37.91h-1.31c-.91 0-1.74.35-2.38.9-.29-.76-.56-1.55-.81-2.41-1.24-4.37-4.78-7.3-8.82-7.3H34.3V1.55c0-.83-.67-1.5-1.5-1.5H3.7c-.83 0-1.5.67-1.5 1.5v37.67h-.67c-.83 0-1.5.67-1.5 1.5s.67 1.5 1.5 1.5h15.36c.18 1.85 1.73 3.31 3.63 3.31h.74c-.46 1.16-.81 2.31-.96 3.55-.19 1.6-.03 5.93 0 6.36 0 2.39 1.74 4.34 3.89 4.34h.43v.92c0 1.8 1.47 3.27 3.27 3.27h3.92c1.8 0 3.27-1.47 3.27-3.27v-.92h10.59v.92c0 1.8 1.47 3.27 3.27 3.27h3.92c1.8 0 3.27-1.47 3.27-3.27v-.92h.43c2.14 0 3.89-1.95 3.89-4.29.02-.49.18-4.81 0-6.41-.14-1.25-.5-2.4-.96-3.55h.74c2.02 0 3.67-1.65 3.67-3.67v-.28c0-2.02-1.65-3.67-3.67-3.67Zm-32.31-.69c.12-.44.29-.85.47-1.24 2.64.25 5.47.43 8.42.51-.12.22-.2.47-.2.74 0 .83.67 1.5 1.5 1.5h4.56c.83 0 1.5-.67 1.5-1.5 0-.27-.08-.52-.2-.74 2.94-.08 5.78-.25 8.42-.51.18.39.35.8.47 1.24.44 1.56.96 2.93 1.49 4.17-4.19.78-8.97 1.19-13.96 1.19s-9.77-.41-13.96-1.19c.53-1.24 1.05-2.6 1.49-4.17Zm22.18-4.05c-6.14.46-13.28.46-19.43 0 .94-.67 2.03-1.07 3.18-1.07H46.9c1.15 0 2.24.4 3.18 1.07Zm-37.43 6.05h-2.15v-7.31h2.15v7.31Zm1.5-10.31H9.01c-.83 0-1.5.67-1.5 1.5v8.81h-2.3V3.05h26.1v26.46c-2.93.94-5.31 3.47-6.28 6.89-.24.86-.52 1.65-.81 2.41-.64-.55-1.47-.9-2.38-.9h-1.31c-1.12 0-2.11.51-2.78 1.31h-2.08v-8.81c0-.83-.67-1.5-1.5-1.5Zm5.7 12.95v-.28c0-.37.3-.67.67-.67h1.31c.37 0 .67.3.67.67v.94h-1.97a.67.67 0 0 1-.67-.67ZM32.08 60.7c0 .15-.12.27-.27.27h-3.92c-.15 0-.27-.12-.27-.27v-.92h4.46v.92Zm21.05 0c0 .15-.12.27-.27.27h-3.92c-.15 0-.27-.12-.27-.27v-.92h4.46v.92Zm4.32-5.26c0 .79-.47 1.34-.89 1.34H24.18c-.42 0-.89-.55-.89-1.4-.05-1.26-.14-4.79 0-5.96.19-1.68.93-3.26 1.85-5.23 4.55.9 9.78 1.38 15.23 1.38s10.69-.48 15.23-1.38c.93 1.97 1.66 3.55 1.85 5.23.13 1.16.04 4.69 0 6.01Zm3.44-13.58c0 .37-.3.67-.67.67h-1.97v-.94c0-.37.3-.67.67-.67h1.31c.37 0 .67.3.67.67v.28ZM22.34 15.69h5.15c.83 0 1.5-.67 1.5-1.5V8.43c0-.83-.67-1.5-1.5-1.5h-5.15c-.83 0-1.5.67-1.5 1.5v5.76c0 .83.67 1.5 1.5 1.5Zm1.5-5.76h2.15v2.76h-2.15V9.93Zm-8.19 9.49c0-.83-.67-1.5-1.5-1.5H9c-.83 0-1.5.67-1.5 1.5v5.76c0 .83.67 1.5 1.5 1.5h5.15c.83 0 1.5-.67 1.5-1.5v-5.76Zm-3 4.26H10.5v-2.76h2.15v2.76Zm9.69 3h5.15c.83 0 1.5-.67 1.5-1.5v-5.76c0-.83-.67-1.5-1.5-1.5h-5.15c-.83 0-1.5.67-1.5 1.5v5.76c0 .83.67 1.5 1.5 1.5Zm1.5-5.76h2.15v2.76h-2.15v-2.76ZM9 15.69h5.15c.83 0 1.5-.67 1.5-1.5V8.43c0-.83-.67-1.5-1.5-1.5H9c-.83 0-1.5.67-1.5 1.5v5.76c0 .83.67 1.5 1.5 1.5Zm1.5-5.76h2.15v2.76H10.5V9.93Zm33.65 41.98c0 .83-.67 1.5-1.5 1.5h-4.56c-.83 0-1.5-.67-1.5-1.5s.67-1.5 1.5-1.5h4.56c.83 0 1.5.67 1.5 1.5Zm9.19-4.63h-2.46c-2.9 0-5.26 2.36-5.26 5.26v.22c0 1.69 1.38 3.07 3.07 3.07h2.12c2.23 0 4.04-1.81 4.04-4.04v-3.01c0-.83-.67-1.5-1.5-1.5Zm-1.5 4.51c0 .57-.47 1.04-1.04 1.04h-2.12l-.07-.07v-.22c0-1.25 1.02-2.26 2.26-2.26h.96v1.51Zm-21.98-4.51H27.4c-.83 0-1.5.67-1.5 1.5v3.01c0 2.23 1.81 4.04 4.04 4.04h2.12c1.69 0 3.07-1.38 3.07-3.07v-.22c0-2.9-2.36-5.26-5.26-5.26Zm2.26 5.48s-.03.07-.07.07h-2.12c-.57 0-1.04-.47-1.04-1.04v-1.51h.96c1.25 0 2.26 1.02 2.26 2.26v.22Z" style="stroke-width:0"/>
</svg>
