<svg xmlns="http://www.w3.org/2000/svg" data-name="Layer 1" viewBox="0 0 64 64">
  <path d="M13.07 28.15a2.311 2.311 0 1 1-4.622-.002 2.311 2.311 0 0 1 4.622.002Zm10.77.4h-7.41c-.83 0-1.5.67-1.5 1.5s.67 1.5 1.5 1.5h7.41c.83 0 1.5-.67 1.5-1.5s-.67-1.5-1.5-1.5Zm0-3.8h-7.41c-.83 0-1.5.67-1.5 1.5s.67 1.5 1.5 1.5h7.41c.83 0 1.5-.67 1.5-1.5s-.67-1.5-1.5-1.5Zm.59-19.68h-8.6c-.83 0-1.5.67-1.5 1.5s.67 1.5 1.5 1.5h8.6c.83 0 1.5-.67 1.5-1.5s-.67-1.5-1.5-1.5Zm39.45 36.52v.28c0 2.02-1.65 3.67-3.67 3.67h-.74c.46 1.16.81 2.31.96 3.55.19 1.6.03 5.93 0 6.41 0 2.34-1.74 4.29-3.89 4.29h-.43v.92c0 1.8-1.47 3.27-3.27 3.27h-3.92c-1.8 0-3.27-1.47-3.27-3.27v-.92H35.06v.92c0 1.8-1.47 3.27-3.27 3.27h-3.92c-1.8 0-3.27-1.47-3.27-3.27v-.92h-.43c-2.14 0-3.89-1.95-3.89-4.34-.02-.43-.18-4.76 0-6.36.14-1.25.5-2.4.96-3.55h-.74c-2.02 0-3.67-1.65-3.67-3.67v-.28c0-2.02 1.65-3.67 3.67-3.67h1.31c.91 0 1.74.35 2.38.9.17-.44.33-.91.48-1.38 0-.1-.03-.19-.03-.29v-1.58h-9.05v1.58c0 1.84-1.49 3.33-3.33 3.33H9.23c-1.84 0-3.33-1.49-3.33-3.33v-1.66a3.622 3.622 0 0 1-2.86-3.53v-9.58H1.6c-.83 0-1.5-.67-1.5-1.5v-8.94c0-.83.67-1.5 1.5-1.5h1.44V6.91c0-1.93 1.36-3.71 3.47-4.51C10.56.85 15.26.03 20.13.03s9.57.82 13.6 2.36c2.11.81 3.47 2.58 3.47 4.51v3.53h1.44c.83 0 1.5.67 1.5 1.5v8.94c0 .83-.67 1.5-1.5 1.5H37.2v6.73h9.69c4.04 0 7.59 2.93 8.82 7.3.24.86.52 1.65.81 2.41.64-.55 1.47-.9 2.38-.9h1.31c2.02 0 3.67 1.65 3.67 3.67Zm-11.52-5.6c-2.64.25-5.47.43-8.42.51.12.22.2.47.2.74 0 .83-.67 1.5-1.5 1.5h-4.56c-.83 0-1.5-.67-1.5-1.5 0-.27.08-.52.2-.74-2.94-.08-5.78-.25-8.42-.51-.18.39-.34.8-.47 1.24-.44 1.56-.96 2.93-1.49 4.17 4.19.78 8.97 1.19 13.96 1.19s9.77-.41 13.96-1.19c-.53-1.24-1.05-2.6-1.49-4.17-.12-.44-.29-.85-.47-1.24Zm-18.53-3.88c-1.15 0-2.24.4-3.18 1.07 6.14.46 13.28.46 19.43 0-.95-.67-2.03-1.07-3.18-1.07H33.84Zm.37-19.66H21.63v7.92H34.2v-7.92Zm-28.15-3H34.2V6.91c0-.68-.61-1.35-1.55-1.71-3.69-1.42-8.02-2.16-12.52-2.16s-8.84.75-12.52 2.16c-.94.36-1.55 1.03-1.55 1.71v2.54Zm0 10.92h12.57v-7.92H6.06v7.92Zm6.55 15.2H8.91v1.58c0 .18.15.33.33.33h3.03c.18 0 .33-.15.33-.33v-1.58Zm14.36-3a9.71 9.71 0 0 1 2.36-2.13 2.302 2.302 0 0 1-2.13-2.29 2.311 2.311 0 0 1 4.62 0c0 .5-.16.96-.44 1.34.79-.25 1.62-.38 2.47-.38h.37v-5.74H6.06v8.59c0 .34.27.61.61.61h20.3Zm-4.47 9.02c0-.37-.3-.67-.67-.67h-1.31c-.37 0-.67.3-.67.67v.28c0 .37.3.67.67.67h1.97v-.94Zm9.58 18.2h-4.46v.92c0 .15.12.27.27.27h3.92c.15 0 .27-.12.27-.27v-.92Zm21.05 0h-4.46v.92c0 .15.12.27.27.27h3.92c.15 0 .27-.12.27-.27v-.92Zm4.33-10.36c-.19-1.68-.93-3.26-1.85-5.23-4.55.9-9.78 1.38-15.23 1.38s-10.69-.48-15.23-1.38c-.93 1.97-1.66 3.55-1.85 5.23-.13 1.16-.04 4.69 0 5.96 0 .85.47 1.4.89 1.4h32.38c.42 0 .89-.55.89-1.34.05-1.32.14-4.85 0-6.01Zm3.43-7.84c0-.37-.3-.67-.67-.67H58.9c-.37 0-.67.3-.67.67v.94h1.97c.37 0 .67-.3.67-.67v-.28Zm-18.23 8.82h-4.56c-.83 0-1.5.67-1.5 1.5s.67 1.5 1.5 1.5h4.56c.83 0 1.5-.67 1.5-1.5s-.67-1.5-1.5-1.5Zm12.19-1.63v3.01c0 2.23-1.81 4.04-4.04 4.04h-2.12c-1.69 0-3.07-1.38-3.07-3.07v-.22c0-2.9 2.36-5.26 5.26-5.26h2.46c.83 0 1.5.67 1.5 1.5Zm-3 1.5h-.96c-1.25 0-2.26 1.02-2.26 2.26v.22l.07.07h2.12c.57 0 1.04-.47 1.04-1.04v-1.51Zm-16.72 2.26v.22c0 1.69-1.38 3.07-3.07 3.07h-2.12c-2.23 0-4.04-1.81-4.04-4.04v-3.01c0-.83.67-1.5 1.5-1.5h2.46c2.9 0 5.26 2.36 5.26 5.26Zm-3 0c0-1.25-1.02-2.26-2.26-2.26h-.96v1.51c0 .57.47 1.04 1.04 1.04h2.12s.07-.03.07-.07v-.22Z" style="stroke-width:0"/>
</svg>
