<svg xmlns="http://www.w3.org/2000/svg" data-name="Layer 1" viewBox="0 0 64 64">
  <path d="M63.13 13.53a4.042 4.042 0 0 0-3.14-1.47H15.6l-1.3-7.3c-.11-.62-.61-1.09-1.23-1.17L1.61 2.16A1.431 1.431 0 1 0 1.25 5l10.41 1.3 1.27 7.12c0 .11 0 .22.02.32l5.33 29.76 1.2 6.75c.12.68.72 1.18 1.41 1.18h2.67a5.465 5.465 0 0 0-3.17 4.95c0 3.01 2.45 5.47 5.47 5.47s5.47-2.45 5.47-5.47c0-2.19-1.3-4.08-3.17-4.95h19.77a5.465 5.465 0 0 0-3.17 4.95c0 3.01 2.45 5.47 5.47 5.47s5.47-2.45 5.47-5.47c0-2.19-1.3-4.08-3.17-4.95h2.68a1.43 1.43 0 1 0 0-2.86H22.09l-.69-3.88h33.61c1.92 0 3.57-1.32 3.93-3.14l4.98-24.88c.22-1.11-.07-2.26-.79-3.14ZM25.86 58.99c-1.44 0-2.6-1.17-2.6-2.6s1.17-2.6 2.6-2.6 2.6 1.17 2.6 2.6-1.17 2.6-2.6 2.6Zm24.37 0c-1.44 0-2.6-1.17-2.6-2.6s1.17-2.6 2.6-2.6 2.6 1.17 2.6 2.6-1.17 2.6-2.6 2.6Zm9.76-44.06c.37 0 .71.15.92.42.11.13.27.4.2.76l-.92 4.6H17.14l-1.03-5.78H60Zm-3.86 26.06c-.1.48-.57.83-1.12.83H20.89l-3.24-18.24h41.98l-3.49 17.41Z" style="stroke-width:0"/>
</svg>
