<svg xmlns="http://www.w3.org/2000/svg" data-name="Layer 1" viewBox="0 0 64 64">
  <path d="M59.14 8.34H5.21A5.22 5.22 0 0 0 0 13.55v36.91a5.22 5.22 0 0 0 5.21 5.21h53.58A5.22 5.22 0 0 0 64 50.46V13.2c0-2.68-2.18-4.86-4.86-4.86Zm1.57 42.12c0 1.06-.86 1.91-1.91 1.91H5.21a1.91 1.91 0 0 1-1.91-1.91V13.55c0-1.06.86-1.91 1.91-1.91h53.93c.87 0 1.57.7 1.57 1.57v37.25Zm-5.72-28.18c0 .91-.74 1.65-1.65 1.65H36.62c-.91 0-1.65-.74-1.65-1.65s.74-1.65 1.65-1.65h16.72c.91 0 1.65.74 1.65 1.65Zm0 9.72c0 .91-.74 1.65-1.65 1.65H36.62c-.91 0-1.65-.74-1.65-1.65s.74-1.65 1.65-1.65h16.72c.91 0 1.65.74 1.65 1.65Zm0 9.72c0 .91-.74 1.65-1.65 1.65H36.62c-.91 0-1.65-.74-1.65-1.65s.74-1.65 1.65-1.65h16.72c.91 0 1.65.74 1.65 1.65ZM18.94 16.61c-5.28 0-9.57 4.29-9.57 9.57 0 2.5.97 4.77 2.55 6.48v13.4c0 .56.3 1.07.79 1.34.23.12.48.18.73.18.29 0 .58-.08.83-.25l4.67-3.03 4.67 3.03a1.513 1.513 0 0 0 2.34-1.28V32.66a9.514 9.514 0 0 0 2.55-6.48c0-5.28-4.29-9.57-9.57-9.57Zm0 2.69c3.79 0 6.88 3.09 6.88 6.88s-3.09 6.88-6.88 6.88-6.88-3.09-6.88-6.88 3.09-6.88 6.88-6.88Zm.83 21.91c-.5-.33-1.15-.33-1.66 0l-3.15 2.05v-8.38c1.21.56 2.56.88 3.98.88s2.77-.32 3.98-.88v8.38l-3.15-2.05Z" style="stroke-width:0"/>
</svg>
