<svg xmlns="http://www.w3.org/2000/svg" data-name="Layer 1" viewBox="0 0 64 64">
  <path d="M55.69 21.96c-.28-.32-.69-.5-1.12-.5h-6.76c-.77 0-1.41.58-1.49 1.34l-.15 1.42c-.23-2.46-.48-5.21-.48-6.91s.23-5.12.68-9.99A6.549 6.549 0 0 0 39.85.18h-15.7c-1.83 0-3.59.78-4.83 2.13a6.574 6.574 0 0 0-1.69 5.01c.44 4.87.68 8.33.68 9.99s-.25 4.45-.48 6.91l-.15-1.42c-.08-.76-.72-1.34-1.49-1.34H9.43c-.43 0-.83.18-1.12.5s-.42.74-.38 1.16l1.33 12.47c.08.76.72 1.34 1.49 1.34h2.2a5.09 5.09 0 0 0-.24 4.55c.83 1.94 2.65 3.14 4.76 3.14h9.54v8.43l-8.25 1.21c-2.29.33-4.01 2.33-4.01 4.69l.1 3.4c.01.43.21.83.54 1.1.33.28.76.4 1.18.33l15.49-2.27 15.49 2.27a1.486 1.486 0 0 0 1.22-.36c.33-.3.51-.72.5-1.17l-.1-3.35c0-2.31-1.73-4.31-4.01-4.64l-8.14-1.19v-8.45h9.54c2.11 0 3.93-1.2 4.76-3.14a5.09 5.09 0 0 0-.24-4.55h2.2c.77 0 1.41-.58 1.49-1.34l1.33-12.47c.04-.42-.09-.85-.38-1.16Zm-10.92 6.66c.51-.56.89-1.22 1.13-1.92l-.67 6.32a7.93 7.93 0 0 0-.98-.07h-8.37v-2.53h4.81c1.54 0 3.03-.66 4.07-1.8Zm-13.67 1.8h1.79v2.53H31.1v-2.53ZM21.54 4.34c.68-.74 1.61-1.15 2.61-1.15h15.7c1.01 0 1.94.41 2.61 1.15.68.75 1 1.71.91 2.71-.31 3.46-.69 8.05-.69 10.26 0 1.74.22 4.25.51 7.36.07.71-.16 1.39-.64 1.92s-1.14.82-1.85.82H23.29c-.71 0-1.37-.29-1.85-.82s-.71-1.21-.64-1.92c.29-3.11.51-5.62.51-7.36 0-2.21-.37-6.8-.69-10.26-.09-1.01.23-1.97.91-2.71Zm-2.31 24.28a5.52 5.52 0 0 0 4.07 1.8h4.81v2.53h-8.37c-.33 0-.65.03-.98.07l-.67-6.32c.24.7.62 1.36 1.13 1.92Zm-8.13-4.16h3.75l1.01 9.47h-3.75l-1.01-9.47ZM34 52.64c-1.33-.16-2.67-.17-3.99-.01v-8.01H34v8.02Zm10.71 4.59c.83.12 1.45.84 1.45 1.72l.05 1.61-13.93-2.04a1.62 1.62 0 0 0-.44 0L17.8 60.58l-.05-1.67c0-.83.62-1.55 1.45-1.68l9.35-1.37c.12 0 .23-.02.34-.05l1.05-.15a13.598 13.598 0 0 1 4.02 0l10.74 1.57Zm3.83-16.93c-.35.83-1.1 1.32-2 1.32H17.47c-.9 0-1.64-.49-2-1.32-.35-.83-.19-1.71.42-2.36l.58-.61a4.54 4.54 0 0 1 3.27-1.4h24.52c1.23 0 2.42.51 3.27 1.4l.58.6c.62.65.78 1.53.43 2.36Zm3.37-6.37h-3.75l1.01-9.47h3.75l-1.01 9.47Z" style="stroke-width:0"/>
</svg>
