<svg xmlns="http://www.w3.org/2000/svg" data-name="Layer 1" viewBox="0 0 64 64">
  <path d="M62.49 54.09h-3.05V13.5c0-.83-.67-1.5-1.5-1.5h-7.83c-.83 0-1.5.67-1.5 1.5v40.59h-3.33V29.84c0-.83-.67-1.5-1.5-1.5h-7.83c-.83 0-1.5.67-1.5 1.5v24.25h-3.34V21.23c0-.83-.67-1.5-1.5-1.5h-7.83c-.83 0-1.5.67-1.5 1.5v32.85h-3.34v-13.6c0-.83-.67-1.5-1.5-1.5H7.61c-.83 0-1.5.67-1.5 1.5v13.6H3V8.41c0-.83-.67-1.5-1.5-1.5S0 7.59 0 8.41v47.17c0 .83.67 1.5 1.5 1.5h60.98c.83 0 1.5-.67 1.5-1.5s-.67-1.5-1.5-1.5Zm-53.38 0v-12.1h4.83v12.1H9.11Zm14.16 0V22.74h4.83v31.35h-4.83Zm14.16 0V31.34h4.83v22.75h-4.83Zm14.16 0V15h4.83v39.09h-4.83Z" style="stroke-width:0"/>
</svg>
