<svg xmlns="http://www.w3.org/2000/svg" data-name="Layer 1" viewBox="0 0 64 64">
  <path d="M28.08 41.55c.17.34.13.75-.11 1.05l-9.22 11.93a1 1 0 0 1-1.21.3.99.99 0 0 1-.56-1.11l1.72-8.37h-4.17c-.38 0-.73-.22-.9-.56a.98.98 0 0 1 .11-1.05l9.22-11.93c.28-.37.79-.49 1.21-.3.42.19.66.65.56 1.11l-1.72 8.37h4.16c.38 0 .73.22.9.56Zm2.41-29.85v11.91c0 .83-.67 1.5-1.5 1.5H12.73c-.83 0-1.5-.67-1.5-1.5V11.7c0-.83.67-1.5 1.5-1.5h16.25c.83 0 1.5.67 1.5 1.5Zm-3 1.5H14.24v8.91h13.25V13.2Zm36.45-.16v3.16c0 2.01-.8 3.89-2.26 5.28-1 .96-2.23 1.6-3.55 1.87v8.34c0 6.83-5.55 12.38-12.38 12.38h-8.26V60.5h2.71c.83 0 1.5.67 1.5 1.5s-.67 1.5-1.5 1.5H1.53c-.83 0-1.5-.67-1.5-1.5s.67-1.5 1.5-1.5h2.71V10.93c0-4.83 3.93-8.76 8.76-8.76h15.71c4.83 0 8.76 3.93 8.76 8.76v30.14h8.26c5.17 0 9.38-4.21 9.38-9.38v-8.35c-3.29-.74-5.81-3.88-5.81-7.52v-2.78c0-1.52 1.02-2.8 2.42-3.21a1.5 1.5 0 0 1-.04-.37V6.15a1.71 1.71 0 1 1 3.42 0v3.31c0 .07-.01.14-.02.21h3.06c0-.07-.02-.14-.02-.21V6.15a1.71 1.71 0 1 1 3.42 0v3.31c0 .13-.02.25-.04.37 1.39.41 2.41 1.69 2.41 3.21ZM34.48 60.5V10.93c0-3.18-2.58-5.76-5.76-5.76H13.01c-3.18 0-5.76 2.58-5.76 5.76V60.5h27.23Zm26.45-47.46c0-.2-.16-.36-.36-.36h-7.91c-.2 0-.36.16-.36.36v2.78c0 2.48 1.85 4.59 4.12 4.69 1.19.05 2.32-.37 3.18-1.19.86-.82 1.33-1.93 1.33-3.12v-3.16Z" style="stroke-width:0"/>
</svg>
