<svg xmlns="http://www.w3.org/2000/svg" data-name="Layer 1" viewBox="0 0 64 64">
  <path d="M56.91 38.93c-2.16 0-4.1.98-5.39 2.52l-10.4-5.44c.36-1.04.57-2.16.57-3.32 0-2.16-.68-4.16-1.83-5.81l7.5-7.09c.8.47 1.72.76 2.71.76 2.97 0 5.39-2.42 5.39-5.39s-2.42-5.39-5.39-5.39-5.39 2.42-5.39 5.39c0 .89.24 1.71.62 2.45l-7.5 7.09c-1.73-1.36-3.9-2.18-6.27-2.18-.69 0-1.37.07-2.02.2l-2.89-7.96a7.025 7.025 0 0 0 3.28-5.94c0-3.88-3.15-7.03-7.03-7.03s-7.03 3.15-7.03 7.03 3.15 7.03 7.03 7.03c.32 0 .63-.03.93-.07l2.89 7.96a10.158 10.158 0 0 0-5.32 8.93c0 .68.07 1.35.2 1.99L9.8 38.89a5.364 5.364 0 0 0-4.35-2.23C2.48 36.68.06 39.1.06 42.07s2.42 5.39 5.39 5.39 5.39-2.42 5.39-5.39c0-.11-.03-.22-.03-.33l11.78-4.24c1.72 3.18 5.08 5.35 8.95 5.35.68 0 1.34-.07 1.98-.2l3.52 9.81a5.364 5.364 0 0 0-2.23 4.35c0 2.97 2.42 5.39 5.39 5.39s5.39-2.42 5.39-5.39-2.42-5.39-5.39-5.39c-.11 0-.22.03-.33.03l-3.53-9.82c1.34-.72 2.5-1.75 3.39-2.97l10.41 5.44c-.16.59-.26 1.21-.26 1.85 0 3.88 3.15 7.03 7.03 7.03s7.03-3.15 7.03-7.03-3.15-7.03-7.03-7.03ZM18.83 8.83c0-2.22 1.81-4.03 4.03-4.03s4.03 1.81 4.03 4.03-1.81 4.03-4.03 4.03-4.03-1.81-4.03-4.03ZM5.45 44.46a2.39 2.39 0 1 1 0-4.78 2.39 2.39 0 0 1 0 4.78Zm37.13 12.35a2.39 2.39 0 1 1-4.78 0 2.39 2.39 0 0 1 4.78 0Zm7.49-44.04a2.39 2.39 0 1 1 0 4.78 2.39 2.39 0 0 1 0-4.78ZM31.53 39.84c-3.95 0-7.16-3.21-7.16-7.16s3.21-7.16 7.16-7.16 7.16 3.21 7.16 7.16-3.21 7.16-7.16 7.16Zm25.39 10.14c-2.22 0-4.03-1.81-4.03-4.03s1.81-4.03 4.03-4.03 4.03 1.81 4.03 4.03-1.81 4.03-4.03 4.03Z" style="stroke-width:0"/>
</svg>
