<svg xmlns="http://www.w3.org/2000/svg" data-name="Layer 1" viewBox="0 0 64 64">
  <path d="M61.36 29.17H35.38c-.83 0-1.5-.67-1.5-1.5V1.69a1.499 1.499 0 0 1 1.5-1.5c15.15 0 27.48 12.33 27.48 27.48 0 .83-.67 1.5-1.5 1.5Zm-24.48-3h22.93C59.06 13.86 49.18 3.98 36.88 3.23v22.94Zm19.5 24.03c-.31 0-.62-.09-.88-.29l-21-15.29c-.53-.38-.74-1.06-.54-1.68.2-.62.78-1.04 1.43-1.04h25.98c.83 0 1.5.67 1.5 1.5 0 5.85-1.82 11.44-5.27 16.17-.29.4-.75.62-1.21.62ZM39.99 34.91l16.03 11.67c2.25-3.51 3.55-7.5 3.8-11.67H39.99Zm-11.38 28.9c-15.15 0-27.48-12.33-27.48-27.48S13.46 8.85 28.62 8.85c.83 0 1.5.67 1.5 1.5v25.22l20.39 14.84c.32.23.54.59.6.98.06.39-.04.79-.27 1.12-5.16 7.08-13.47 11.31-22.21 11.31Zm-1.5-51.92c-12.8.78-22.98 11.44-22.98 24.44s10.98 24.48 24.48 24.48c7.29 0 14.24-3.3 18.87-8.89L27.73 37.54c-.39-.28-.62-.73-.62-1.21V11.9Z" style="stroke-width:0"/>
</svg>
