<svg xmlns="http://www.w3.org/2000/svg" data-name="Layer 1" viewBox="0 0 64 64">
  <path d="M32 63.98C14.37 63.98.02 49.63.02 32S14.37.02 32 .02 63.98 14.36 63.98 32 49.63 63.98 32 63.98Zm0-60.96c-15.98 0-28.98 13-28.98 28.98s13 28.98 28.98 28.98 28.98-13 28.98-28.98S47.98 3.02 32 3.02Zm1.5 37.27V17.36c0-.83-.67-1.5-1.5-1.5s-1.5.67-1.5 1.5v22.93c0 .83.67 1.5 1.5 1.5s1.5-.67 1.5-1.5Zm0 6.35v-.74c0-.83-.67-1.5-1.5-1.5s-1.5.67-1.5 1.5v.74c0 .83.67 1.5 1.5 1.5s1.5-.67 1.5-1.5Z" style="stroke-width:0"/>
</svg>
