<svg xmlns="http://www.w3.org/2000/svg" data-name="Layer 1" viewBox="0 0 64 64">
  <path d="M32 63.94C14.39 63.94.06 49.61.06 32S14.39.06 32 .06 63.94 14.39 63.94 32 49.61 63.94 32 63.94Zm0-60.88C16.04 3.06 3.06 16.04 3.06 32S16.04 60.94 32 60.94 60.94 47.96 60.94 32 47.96 3.06 32 3.06Zm-8.94 45.93a5.98 5.98 0 0 1-5.97-5.97V20.98c0-3.29 2.68-5.97 5.97-5.97s5.97 2.68 5.97 5.97v22.04a5.98 5.98 0 0 1-5.97 5.97Zm0-30.98a2.97 2.97 0 0 0-2.97 2.97v22.04a2.97 2.97 0 0 0 5.94 0V20.98a2.97 2.97 0 0 0-2.97-2.97Zm17.88 30.98a5.98 5.98 0 0 1-5.97-5.97V20.98c0-3.29 2.68-5.97 5.97-5.97s5.97 2.68 5.97 5.97v22.04a5.98 5.98 0 0 1-5.97 5.97Zm0-30.98a2.97 2.97 0 0 0-2.97 2.97v22.04a2.97 2.97 0 0 0 5.94 0V20.98a2.97 2.97 0 0 0-2.97-2.97Z" style="stroke-width:0"/>
</svg>
