<svg xmlns="http://www.w3.org/2000/svg" data-name="Layer 1" viewBox="0 0 64 64">
  <path d="M32 3c15.99 0 29 13.01 29 29S47.99 61 32 61 3 47.99 3 32 16.01 3 32 3m0-3C14.33 0 0 14.33 0 32s14.33 32 32 32 32-14.33 32-32S49.67 0 32 0Zm-3.79 51.4h-6.55c-.85 0-1.54-.69-1.54-1.54V15.91c0-.85.69-1.54 1.54-1.54h13.79c4.16 0 7.34 1.08 9.55 3.24 2.21 2.16 3.32 5.21 3.32 9.14s-1.11 6.97-3.32 9.14c-2.21 2.16-5.39 3.71-9.55 3.71h-5.7v10.28c0 .85-.69 1.54-1.54 1.54Zm1.54-20.04h3.19c3.54 0 5.3-1.68 5.3-4.39s-1.77-4.38-5.3-4.38h-3.19v8.77Z" style="stroke-width:0"/>
</svg>
