<svg xmlns="http://www.w3.org/2000/svg" data-name="Layer 1" viewBox="0 0 64 64">
  <path d="M31.98-.02c-17.68 0-32 14.32-32 32s14.32 32 32 32 32-14.33 32-32-14.33-32-32-32Zm1.52 46.66c0 .83-.67 1.5-1.5 1.5s-1.5-.67-1.5-1.5v-.74c0-.83.67-1.5 1.5-1.5s1.5.67 1.5 1.5v.74Zm0-12.28v5.93c0 .83-.67 1.5-1.5 1.5s-1.5-.67-1.5-1.5v-7.31c0-.83.67-1.5 1.5-1.5 3.48 0 6.31-2.83 6.31-6.31s-2.83-6.31-6.31-6.31c-1.96 0-3.78.89-4.98 2.44a6.259 6.259 0 0 0-1.33 3.87c0 .83-.67 1.5-1.5 1.5s-1.5-.67-1.5-1.5c0-2.09.68-4.07 1.96-5.72A9.27 9.27 0 0 1 32 15.86c5.13 0 9.31 4.18 9.31 9.31 0 4.62-3.39 8.47-7.81 9.19Z" style="stroke-width:0"/>
</svg>
