<svg xmlns="http://www.w3.org/2000/svg" data-name="Layer 1" viewBox="0 0 64 64">
  <path d="M32 63.98C14.37 63.98.02 49.63.02 32S14.37.02 32 .02 63.98 14.36 63.98 32 49.64 63.98 32 63.98Zm0-60.96c-15.98 0-28.98 13-28.98 28.98s13 28.98 28.98 28.98 28.98-13 28.98-28.98S47.98 3.02 32 3.02Zm1.5 37.27v-5.93c4.42-.72 7.81-4.57 7.81-9.19 0-5.13-4.18-9.31-9.31-9.31a9.27 9.27 0 0 0-7.35 3.59 9.237 9.237 0 0 0-1.96 5.72c0 .83.67 1.5 1.5 1.5s1.5-.67 1.5-1.5c0-1.42.46-2.76 1.33-3.87A6.276 6.276 0 0 1 32 18.86c3.48 0 6.31 2.83 6.31 6.31s-2.83 6.31-6.31 6.31c-.83 0-1.5.67-1.5 1.5v7.31c0 .83.67 1.5 1.5 1.5s1.5-.67 1.5-1.5Zm0 6.35v-.74c0-.83-.67-1.5-1.5-1.5s-1.5.67-1.5 1.5v.74c0 .83.67 1.5 1.5 1.5s1.5-.67 1.5-1.5Z" style="stroke-width:0"/>
</svg>
