<svg xmlns="http://www.w3.org/2000/svg" data-name="Layer 1" viewBox="0 0 64 64">
  <path d="M32 .02C14.37.02.02 14.37.02 32S14.37 63.98 32 63.98 63.98 49.63 63.98 32 49.63.02 32 .02Zm0 60.96c-15.98 0-28.98-13-28.98-28.98S16.02 3.02 32 3.02s28.98 13 28.98 28.98-13 28.98-28.98 28.98Zm-1.5-39.87v-.74c0-.83.67-1.5 1.5-1.5s1.5.67 1.5 1.5v.74c0 .83-.67 1.5-1.5 1.5s-1.5-.67-1.5-1.5Zm6.89 22.54c0 .83-.67 1.5-1.5 1.5H28.1c-.83 0-1.5-.67-1.5-1.5s.67-1.5 1.5-1.5h2.39V28.22H28.1c-.83 0-1.5-.67-1.5-1.5s.67-1.5 1.5-1.5h3.89c.83 0 1.5.67 1.5 1.5v15.43h2.39c.83 0 1.5.67 1.5 1.5Z" style="stroke-width:0"/>
</svg>
