<svg xmlns="http://www.w3.org/2000/svg" data-name="Layer 1" viewBox="0 0 64 64">
  <path d="M32 0C14.36 0 0 14.36 0 32s14.35 32 32 32 32-14.36 32-32S49.64 0 32 0Zm0 61.01C16 61.01 2.99 48 2.99 32S16 2.99 32 2.99 61.01 16 61.01 32 48 61.01 32 61.01Zm-5.85-34.85c0 .71 0 2.88 6.2 4.38 2.1.51 8.49 2.06 8.49 7.29 0 3.62-3.18 6.63-7.35 7.22v9.66H30.5v-9.66c-4.17-.59-7.35-3.6-7.35-7.22h2.99c0 2.39 2.63 4.34 5.85 4.34s5.85-1.95 5.85-4.34c0-1.24-.64-3.03-6.21-4.38-5.63-1.37-8.49-3.82-8.49-7.29s3.18-6.63 7.35-7.22V9.28h2.99v9.66c4.17.59 7.35 3.6 7.35 7.22h-2.99c0-2.39-2.63-4.34-5.85-4.34s-5.85 1.95-5.85 4.34Z" style="stroke-width:0"/>
</svg>
