<svg xmlns="http://www.w3.org/2000/svg" data-name="Layer 1" viewBox="0 0 64 64">
  <path d="M32 0C14.33 0 0 14.33 0 32s14.33 32 32 32 32-14.33 32-32S49.67 0 32 0Zm0 61C16.01 61 3 47.99 3 32S16.01 3 32 3s29 13.01 29 29-13.01 29-29 29Zm17.75-44.59h-5.6v-1.59c0-1.48-1.21-2.69-2.69-2.69s-2.69 1.21-2.69 2.69v1.59H25.25v-1.59c0-1.48-1.21-2.69-2.69-2.69s-2.69 1.21-2.69 2.69v1.59h-5.6c-.89 0-1.61.72-1.61 1.61v31.73c0 .89.72 1.61 1.61 1.61h35.49c.89 0 1.61-.72 1.61-1.61V18.02c0-.89-.72-1.61-1.61-1.61Zm-1.39 3v4.39H15.64v-4.39h32.72ZM15.64 48.37V26.8h32.72v21.57H15.64Zm8.55-17.09v3.76c0 .34-.28.62-.62.62h-3.76c-.34 0-.62-.28-.62-.62v-3.76c0-.34.28-.62.62-.62h3.76c.34 0 .62.28.62.62Zm10.3 0v3.76c0 .34-.28.62-.62.62h-3.76c-.34 0-.62-.28-.62-.62v-3.76c0-.34.28-.62.62-.62h3.76c.34 0 .62.28.62.62Zm-10.3 9.34v3.76c0 .34-.28.62-.62.62h-3.76c-.34 0-.62-.28-.62-.62v-3.76c0-.34.28-.62.62-.62h3.76c.34 0 .62.28.62.62Zm10.3 0v3.76c0 .34-.28.62-.62.62h-3.76c-.34 0-.62-.28-.62-.62v-3.76c0-.34.28-.62.62-.62h3.76c.34 0 .62.28.62.62Zm10.3-9.34v3.76c0 .34-.28.62-.62.62h-3.76c-.34 0-.62-.28-.62-.62v-3.76c0-.34.28-.62.62-.62h3.76c.34 0 .62.28.62.62Z" style="stroke-width:0"/>
</svg>
