<svg xmlns="http://www.w3.org/2000/svg" data-name="Layer 1" viewBox="0 0 64 64">
  <path d="M32 .19C14.46.19.19 14.46.19 32c0 9.05 3.8 17.22 9.89 23.02a31.6 31.6 0 0 0 2.48 2.13c5.38 4.17 12.13 6.66 19.45 6.66s14.07-2.49 19.45-6.66c.86-.67 1.69-1.38 2.48-2.13 6.08-5.8 9.89-13.97 9.89-23.02C63.81 14.46 49.54.19 32 .19Zm0 60.62c-7.04 0-13.49-2.53-18.5-6.72l1.31-4.2a8.647 8.647 0 0 1 8.28-6.09h17.8a8.63 8.63 0 0 1 8.28 6.09l1.31 4.2c-5 4.2-11.45 6.72-18.49 6.72Zm20.92-9.02-.87-2.8a11.62 11.62 0 0 0-11.15-8.2H23.1c-5.14 0-9.62 3.3-11.15 8.2l-.87 2.8a28.692 28.692 0 0 1-7.89-19.8c0-15.9 12.9-28.8 28.81-28.8S60.81 16.09 60.81 32c0 7.67-3 14.63-7.89 19.8ZM32 9.63c-7.58 0-13.72 6.14-13.72 13.72S24.42 37.07 32 37.07s13.72-6.14 13.72-13.72S39.58 9.63 32 9.63Zm0 24.44c-5.91 0-10.72-4.81-10.72-10.72S26.09 12.63 32 12.63s10.72 4.81 10.72 10.72S37.91 34.07 32 34.07Z" style="stroke-width:0"/>
</svg>
