<svg xmlns="http://www.w3.org/2000/svg" data-name="Layer 1" viewBox="0 0 64 64">
  <path d="M24.26 48.99c-.66 0-1.31-.17-1.91-.52a3.776 3.776 0 0 1-1.91-3.31V18.84c0-1.38.71-2.62 1.91-3.31s2.63-.69 3.83 0l22.79 13.16c1.2.69 1.91 1.93 1.91 3.31s-.71 2.62-1.91 3.31L26.18 48.47c-.6.35-1.26.52-1.91.52Zm0-30.98c-.19 0-.34.07-.42.11-.12.07-.41.28-.41.72v26.32c0 .43.29.64.41.72.12.07.45.21.83 0l22.79-13.16c.37-.22.41-.57.41-.72s-.04-.5-.41-.72L24.67 18.12a.87.87 0 0 0-.41-.11ZM32 63.94C14.39 63.94.06 49.61.06 32S14.39.06 32 .06 63.94 14.39 63.94 32 49.61 63.94 32 63.94Zm0-60.88C16.04 3.06 3.06 16.04 3.06 32S16.04 60.94 32 60.94 60.94 47.96 60.94 32 47.96 3.06 32 3.06Z" style="stroke-width:0"/>
</svg>
