<svg xmlns="http://www.w3.org/2000/svg" data-name="Layer 1" viewBox="0 0 64 64">
  <path d="M32 3c15.99 0 29 13.01 29 29S47.99 61 32 61 3 47.99 3 32 16.01 3 32 3m0-3C14.33 0 0 14.33 0 32s14.33 32 32 32 32-14.33 32-32S49.67 0 32 0Zm-6.37 57.14c-.21 0-.42-.04-.62-.14-.63-.29-.98-.98-.84-1.67l3.96-19.24H18.11c-.57 0-1.09-.33-1.35-.84s-.19-1.13.16-1.58L37.19 7.45c.43-.55 1.18-.74 1.81-.45.63.29.98.98.84 1.67l-3.96 19.24H45.9c.57 0 1.09.33 1.35.84s.19 1.13-.16 1.58L26.82 56.56c-.29.38-.73.58-1.19.58ZM21.16 33.1h8.8c.45 0 .88.2 1.16.55.28.35.4.81.31 1.25L28.4 49.59l14.44-18.68h-8.8c-.45 0-.88-.2-1.16-.55-.28-.35-.4-.81-.31-1.25l3.03-14.69L21.16 33.1Z" style="stroke-width:0"/>
</svg>
