<svg xmlns="http://www.w3.org/2000/svg" data-name="Layer 1" viewBox="0 0 63.96 63.96">
  <path d="M31.98-.02c-17.68 0-32 14.32-32 32s14.32 32 32 32 32-14.33 32-32-14.33-32-32-32Zm12.21 42.09c.59.59.59 1.54 0 2.12-.29.29-.68.44-1.06.44s-.77-.15-1.06-.44L31.98 34.1 21.89 44.19c-.29.29-.68.44-1.06.44s-.77-.15-1.06-.44a1.49 1.49 0 0 1 0-2.12l10.09-10.09-10.09-10.09c-.59-.59-.59-1.54 0-2.12s1.54-.59 2.12 0l10.09 10.09 10.09-10.09c.59-.59 1.54-.59 2.12 0s.59 1.54 0 2.12L34.1 31.98l10.09 10.09Z" style="stroke-width:0"/>
</svg>
