<svg xmlns="http://www.w3.org/2000/svg" data-name="Layer 1" viewBox="0 0 63.96 63.96">
  <path d="M31.98 0C14.34 0 0 14.34 0 31.98s14.34 31.98 31.98 31.98 31.98-14.35 31.98-31.98S49.61 0 31.98 0Zm0 60.96C16 60.96 3 47.96 3 31.98S16 3 31.98 3s28.98 13 28.98 28.98-13 28.98-28.98 28.98Zm12.21-39.07L34.1 31.98l10.09 10.09c.59.59.59 1.54 0 2.12-.29.29-.68.44-1.06.44s-.77-.15-1.06-.44L31.98 34.1 21.89 44.19c-.29.29-.68.44-1.06.44s-.77-.15-1.06-.44a1.49 1.49 0 0 1 0-2.12l10.09-10.09-10.09-10.09c-.59-.59-.59-1.54 0-2.12s1.54-.59 2.12 0l10.09 10.09 10.09-10.09c.59-.59 1.54-.59 2.12 0s.59 1.54 0 2.12Z" style="stroke-width:0"/>
</svg>
