<svg xmlns="http://www.w3.org/2000/svg" data-name="Layer 1" viewBox="0 0 64 64">
  <path d="M62.47 60.98h-1.33V29.04c0-.67-.44-1.26-1.09-1.44l-10.32-2.95c-.19-.1-.39-.16-.62-.18l-3.79-1.08v-9.01c0-.83-.67-1.5-1.5-1.5h-2.74V9.49c0-.83-.67-1.5-1.5-1.5h-4.17v-2.4c0-.83-.67-1.5-1.5-1.5s-1.5.67-1.5 1.5v2.4h-4.17c-.83 0-1.5.67-1.5 1.5v3.39H24c-.83 0-1.5.67-1.5 1.5v2.35h-4.55c-.83 0-1.5.67-1.5 1.5v6.11h-1.8v-6.11c0-.83-.67-1.5-1.5-1.5H8c-.83 0-1.5.67-1.5 1.5v6.11H4.41c-.83 0-1.5.67-1.5 1.5v35.14H1.52c-.83 0-1.5.67-1.5 1.5s.67 1.5 1.5 1.5h60.94c.83 0 1.5-.67 1.5-1.5s-.67-1.5-1.5-1.5ZM42.33 36.93H25.51v-8.84h16.82v8.84Zm-16.82 3h16.82v9.22H25.51v-9.22Zm4.24-28.95h8.33v1.89h-8.33v-1.89Zm-1.5 4.89h14.08v9.22H25.51v-9.22h2.74Zm-8.79 3.85h2.15v4.61h-2.15v-4.61Zm-9.95 0h2.15v4.61H9.51v-4.61Zm-1.5 7.61h14.5v33.64h-3.47V32.23c0-.83-.67-1.5-1.5-1.5H5.92v-3.41h2.09Zm-2.09 6.41h10.12v7.08H5.92v-7.08Zm0 10.08h10.12v7.08H5.92v-7.08Zm0 17.16V53.9h10.12v7.08H5.92Zm19.59 0v-8.84h16.82v8.84H25.51Zm25.02 0v-4.25c0-.83-.67-1.5-1.5-1.5s-1.5.67-1.5 1.5v4.25h-2.19V26.51l2.19.63v22.14c0 .83.67 1.5 1.5 1.5s1.5-.67 1.5-1.5V27.99l2.42.69v23.59c0 .83.67 1.5 1.5 1.5s1.5-.67 1.5-1.5V29.54l2.19.63v30.81h-7.61Z" style="stroke-width:0"/>
</svg>
