<svg xmlns="http://www.w3.org/2000/svg" data-name="Layer 1" viewBox="0 0 64 64">
  <path d="M57.69 21.84H18.82l37.22-11.19a1.51 1.51 0 0 0 1.01-1.87l-2.32-7.71a1.498 1.498 0 0 0-1.87-1L5.88 14.19c-.79.24-1.24 1.08-1 1.87l2.26 7.5V62.5c0 .83.67 1.5 1.5 1.5h49.07c.83 0 1.5-.67 1.5-1.5V23.34c0-.83-.67-1.5-1.5-1.5Zm-1.5 8.05h-7.9l5.05-5.05h2.84v5.05Zm-17.68 0 5.05-5.05h5.54l-5.05 5.05h-5.54Zm-9.78 0 5.05-5.05h5.54l-5.05 5.05h-5.54Zm-9.78 0L24 24.84h5.54l-5.05 5.05h-5.54Zm-8.82 0v-5.05h9.63l-5.05 5.05h-4.57Zm11.8-17.4 6.3 3.38-5.31 1.6-6.3-3.38 5.31-1.6Zm9.37-2.82 6.3 3.38-5.31 1.6-6.3-3.38 5.31-1.6Zm9.37-2.82 6.3 3.38-5.31 1.6-6.3-3.38 5.31-1.6Zm13.08 1.34-2.72.82-6.3-3.38 7.56-2.27 1.46 4.84Zm-41.19 7.13 6.3 3.38-9.22 2.77-1.46-4.84 4.38-1.32ZM56.2 61H10.13V32.9H56.2V61ZM40.97 44.44l-10.64-6.15c-.91-.52-1.99-.52-2.89 0-.91.52-1.45 1.46-1.45 2.51v12.29c0 1.05.54 1.98 1.45 2.51.45.26.95.39 1.45.39s.99-.13 1.45-.39l10.64-6.15c.91-.52 1.45-1.46 1.45-2.51s-.54-1.98-1.45-2.5Zm-11.98 8.47V40.98l10.32 5.96-10.32 5.96Z" style="stroke-width:0"/>
</svg>
