<svg xmlns="http://www.w3.org/2000/svg" data-name="Layer 1" viewBox="0 0 64 64">
  <path d="M43.52 23.09c0 .83-.67 1.5-1.5 1.5H27.09c-.83 0-1.5-.67-1.5-1.5s.67-1.5 1.5-1.5h14.93c.83 0 1.5.67 1.5 1.5Zm-1.5 6.54H27.09c-.83 0-1.5.67-1.5 1.5s.67 1.5 1.5 1.5h14.93c.83 0 1.5-.67 1.5-1.5s-.67-1.5-1.5-1.5Zm0 8.04H27.09c-.83 0-1.5.67-1.5 1.5s.67 1.5 1.5 1.5h14.93c.83 0 1.5-.67 1.5-1.5s-.67-1.5-1.5-1.5Zm0 8.04H27.09c-.83 0-1.5.67-1.5 1.5s.67 1.5 1.5 1.5h14.93c.83 0 1.5-.67 1.5-1.5s-.67-1.5-1.5-1.5Zm14.54-34.76v48.4c0 2.56-2.08 4.65-4.65 4.65H12.08c-2.56 0-4.64-2.08-4.64-4.65v-48.4c0-2.56 2.08-4.65 4.64-4.65h8.73V5.07c0-1.65 1.34-3 3-3h3.92c.92-1.26 2.41-2.08 4.09-2.08s3.17.82 4.09 2.08h3.92c1.65 0 3 1.34 3 3V6.3h9.09c2.56 0 4.65 2.08 4.65 4.65ZM23.8 12.62h16.02V5.07h-5.93c0-1.15-.93-2.08-2.08-2.08s-2.08.93-2.08 2.08H23.8v7.55Zm29.76-1.67c0-.91-.74-1.65-1.65-1.65h-9.09v3.32c0 1.65-1.34 3-3 3H23.8c-1.65 0-3-1.34-3-3V9.3h-8.73c-.91 0-1.65.74-1.65 1.65v48.4c0 .91.74 1.65 1.65 1.65h39.84c.91 0 1.65-.74 1.65-1.65v-48.4ZM21.97 21.6c-.83 0-1.5.67-1.5 1.5s.67 1.5 1.5 1.5 1.5-.67 1.5-1.5-.67-1.5-1.5-1.5Zm0 8.04c-.83 0-1.5.67-1.5 1.5s.67 1.5 1.5 1.5 1.5-.67 1.5-1.5-.67-1.5-1.5-1.5Zm0 8.04c-.83 0-1.5.67-1.5 1.5s.67 1.5 1.5 1.5 1.5-.67 1.5-1.5-.67-1.5-1.5-1.5Zm0 8.04c-.83 0-1.5.67-1.5 1.5s.67 1.5 1.5 1.5 1.5-.67 1.5-1.5-.67-1.5-1.5-1.5Z" style="stroke-width:0"/>
</svg>
