<svg xmlns="http://www.w3.org/2000/svg" data-name="Layer 1" viewBox="0 0 64 64">
  <path d="M51.92 6.31h-9.09V5.08c0-1.65-1.34-3-3-3h-3.92C34.99.82 33.5 0 31.82 0s-3.17.82-4.09 2.08h-3.92c-1.65 0-3 1.34-3 3v1.23h-8.73c-2.56 0-4.65 2.08-4.65 4.64v48.4c0 2.56 2.08 4.64 4.65 4.64h39.84c2.56 0 4.64-2.08 4.64-4.64v-48.4c0-2.56-2.08-4.64-4.64-4.64ZM23.81 5.08h5.93c0-1.15.93-2.08 2.08-2.08s2.08.93 2.08 2.08h5.93v7.55H23.81V5.08Zm29.76 54.28c0 .91-.74 1.65-1.65 1.65H12.08c-.91 0-1.65-.74-1.65-1.65V10.95c0-.91.74-1.65 1.65-1.65h8.73v3.32c0 1.65 1.34 3 3 3h16.02c1.65 0 3-1.34 3-3V9.3h9.09c.91 0 1.65.74 1.65 1.65v48.4Z" style="stroke-width:0"/>
</svg>
