<svg xmlns="http://www.w3.org/2000/svg" data-name="Layer 1" viewBox="0 0 64 64">
  <path d="M51.92 6.31h-9.09V5.08c0-1.65-1.34-3-3-3h-3.92C34.99.82 33.5 0 31.82 0s-3.17.82-4.09 2.08h-3.92c-1.65 0-3 1.34-3 3v1.23h-8.73c-2.56 0-4.65 2.08-4.65 4.64v48.4c0 2.56 2.08 4.64 4.65 4.64h39.84c2.56 0 4.64-2.08 4.64-4.64v-48.4c0-2.56-2.08-4.64-4.64-4.64ZM23.81 5.08h5.93c0-1.15.93-2.08 2.08-2.08s2.08.93 2.08 2.08h5.93v7.55H23.81V5.08Zm29.76 54.28c0 .91-.74 1.65-1.65 1.65H12.08c-.91 0-1.65-.74-1.65-1.65V10.95c0-.91.74-1.65 1.65-1.65h8.73v3.32c0 1.65 1.34 3 3 3h16.02c1.65 0 3-1.34 3-3V9.3h9.09c.91 0 1.65.74 1.65 1.65v48.4ZM32.28 43.28c-5.66 0-10.26-4.6-10.26-10.26s4.6-10.26 10.26-10.26 10.26 4.6 10.26 10.26-4.6 10.26-10.26 10.26Zm0-17.53c-4.01 0-7.26 3.26-7.26 7.26s3.26 7.26 7.26 7.26 7.26-3.26 7.26-7.26-3.26-7.26-7.26-7.26Zm16.86 32.09H15.42c-.73 0-1.43-.35-1.87-.94a2.37 2.37 0 0 1-.37-2.06l.21-.7c1.28-5.29 6.06-9.03 11.61-9.03h14.54c5.54 0 10.33 3.76 11.64 9.14l.18.58c.21.7.07 1.47-.36 2.06-.44.59-1.14.94-1.87.94Zm-32.82-3h31.93c-1.07-4-4.61-6.72-8.69-6.72H25.02c-4.12 0-7.68 2.76-8.69 6.72Z" style="stroke-width:0"/>
</svg>
