<svg xmlns="http://www.w3.org/2000/svg" data-name="Layer 1" viewBox="0 0 64 64">
  <path d="M20.62 23.1c0 .09 0 .19-.03.29-.02.08-.05.18-.08.26-.03.09-.08.18-.13.26 0 .01-.02.02-.03.04-.05.06-.1.13-.15.18 0 0-.01 0-.02.01-.06.06-.13.11-.2.16 0 0-.01 0-.02.01-.24.16-.52.26-.83.26-.4 0-.77-.16-1.04-.42 0 0-.02-.01-.02-.02 0 0-.01-.02-.02-.02l-.06-.09c-.05-.06-.09-.12-.13-.18-.03-.05-.05-.09-.08-.14-.04-.08-.07-.17-.09-.25 0-.03-.02-.05-.03-.07-.01-.06-.01-.12-.02-.18 0-.04-.01-.07-.01-.11 0-.14.02-.27.06-.4 0-.02.01-.04.02-.06.07-.23.19-.44.36-.61.03-.02.06-.03.09-.06.12-.1.25-.19.39-.25.01 0 .02 0 .04-.01.17-.07.35-.11.54-.11.18 0 .35.04.52.1.04.01.07.03.11.05.12.05.22.13.32.21.03.03.08.04.11.07.28.28.44.67.44 1.07Zm-.18 7.34s0-.02-.01-.03c-.07-.12-.15-.24-.25-.34a.219.219 0 0 0-.05-.03c-.27-.25-.62-.4-1.01-.4s-.76.16-1.03.41c0 0-.02.01-.03.02-.16.16-.28.37-.35.59l-.03.09c-.03.13-.06.25-.06.38v.02a1.345 1.345 0 0 0 .09.47c.03.09.07.18.13.26l.03.06c.05.08.11.15.17.21 0 0 0 .01.01.02l.01.01c.07.06.14.12.21.17h.01c.01 0 .03.01.05.02.13.08.28.14.43.18.02 0 .03.02.05.02a1.526 1.526 0 0 0 .6 0c.03 0 .06-.02.09-.03.09-.02.17-.05.26-.09.05-.02.09-.04.14-.07.09-.05.17-.12.25-.19.02-.02.03-.03.05-.04.09-.09.16-.19.22-.3a.3.3 0 0 0 .04-.08c.11-.21.17-.44.17-.67s-.07-.48-.18-.69Zm18.72-8.85H24.23c-.83 0-1.5.67-1.5 1.5s.67 1.5 1.5 1.5h14.93c.83 0 1.5-.67 1.5-1.5s-.67-1.5-1.5-1.5Zm0 8.04H24.23c-.83 0-1.5.67-1.5 1.5s.67 1.5 1.5 1.5h14.93c.83 0 1.5-.67 1.5-1.5s-.67-1.5-1.5-1.5Zm0 8.04H24.23c-.83 0-1.5.67-1.5 1.5s.67 1.5 1.5 1.5h14.93c.83 0 1.5-.67 1.5-1.5s-.67-1.5-1.5-1.5Zm0 8.04H24.23c-.83 0-1.5.67-1.5 1.5s.67 1.5 1.5 1.5h14.93c.83 0 1.5-.67 1.5-1.5s-.67-1.5-1.5-1.5Zm-18.57-6.83c-.02-.1-.05-.19-.09-.29a.507.507 0 0 0-.09-.16c0-.02-.01-.03-.02-.04 0-.01-.01-.03-.02-.04-.06-.09-.12-.16-.19-.23a.219.219 0 0 0-.05-.03c-.27-.25-.62-.41-1.01-.41-.57 0-1.06.32-1.31.8-.02.04-.05.08-.07.13-.01.04-.02.09-.04.13-.04.14-.08.29-.08.45 0 .13.02.26.06.38 0 .03.02.06.03.09.07.22.19.42.35.58.28.28.66.44 1.06.44.24 0 .48-.07.7-.18h.01c.12-.07.24-.15.34-.25.1-.1.18-.22.25-.34 0 0 0-.02.01-.03.11-.21.18-.45.18-.69 0-.1 0-.2-.03-.29Zm-2.94 8.62s.02.08.03.11v.03c.01.05.02.09.04.14.04.09.09.18.14.26a1.499 1.499 0 0 0 2.5 0c.05-.08.1-.17.13-.26.04-.09.07-.19.09-.28.02-.1.03-.2.03-.29 0-.1 0-.2-.03-.3-.02-.09-.05-.19-.09-.28-.02-.05-.05-.1-.08-.16-.01-.02-.02-.05-.03-.07 0-.01-.01-.02-.02-.04-.06-.08-.12-.16-.19-.22 0 0-.02 0-.03-.02a1.5 1.5 0 0 0-1.04-.44c-.63 0-1.16.38-1.38.93 0 .01 0 .02-.01.04-.06.16-.1.34-.1.53 0 .09 0 .19.03.29Zm41.78 3.44c0 5.03-4.08 9.11-9.11 9.11s-9.11-4.08-9.11-9.11 4.08-9.11 9.11-9.11 9.11 4.08 9.11 9.11Zm-3.63-3.47a1.5 1.5 0 0 0-2.12.06l-4.65 4.93-2.13-2a1.5 1.5 0 0 0-2.06 2.18l3.22 3.03c.29.27.66.41 1.03.41.4 0 .8-.16 1.09-.47l5.68-6.02a1.5 1.5 0 0 0-.06-2.12Zm-5.48 13.58c1.13 0 2.21-.19 3.22-.53-.52 2-2.32 3.48-4.48 3.48H9.22c-2.56 0-4.64-2.08-4.64-4.64V10.95c0-2.56 2.08-4.65 4.64-4.65h8.73V5.07c0-1.65 1.34-3 3-3h3.92c.92-1.26 2.41-2.08 4.09-2.08s3.17.82 4.09 2.08h3.92c1.65 0 3 1.34 3 3V6.3h9.09c2.56 0 4.64 2.08 4.64 4.65v30.48c-.94-.34-1.95-.54-3-.58v-29.9c0-.91-.74-1.65-1.65-1.65h-9.09v3.32c0 1.65-1.34 3-3 3H20.94c-1.65 0-3-1.34-3-3V9.3H9.21c-.91 0-1.65.74-1.65 1.65v48.4c0 .91.74 1.65 1.65 1.65h39.84c.05 0 .1-.01.15-.02.36.04.73.06 1.11.06ZM20.94 12.62h16.02V5.07h-5.93c0-1.15-.93-2.08-2.08-2.08s-2.08.93-2.08 2.08h-5.93v7.55Z" style="stroke-width:0"/>
</svg>
