<svg xmlns="http://www.w3.org/2000/svg" data-name="Layer 1" viewBox="0 0 64 64">
  <path d="M32 64C14.36 64 0 49.64 0 32S14.36 0 32 0s32 14.35 32 32-14.35 32-32 32Zm0-60.99C16.01 3 3 16.01 3 32s13.01 29 29 29 29-13.01 29-29S47.99 3 32 3Zm0 54.14C18.13 57.15 6.85 45.87 6.85 32S18.13 6.85 32 6.85 57.15 18.13 57.15 32 45.87 57.15 32 57.15Zm0-47.29c-12.21 0-22.15 9.93-22.15 22.15S19.78 54.16 32 54.16s22.15-9.93 22.15-22.15S44.22 9.86 32 9.86Zm13.79 22.15c0-.83-.67-1.5-1.5-1.5H33.5V14.46c0-.83-.67-1.5-1.5-1.5s-1.5.67-1.5 1.5V32c0 .83.67 1.5 1.5 1.5h12.29c.83 0 1.5-.67 1.5-1.5Z" style="stroke-width:0"/>
</svg>
