<svg xmlns="http://www.w3.org/2000/svg" data-name="Layer 1" viewBox="0 0 64 64">
  <path d="M57.53 54.1H6.47c-3.54 0-6.43-2.88-6.43-6.43V16.38c0-3.55 2.89-6.43 6.43-6.43h51.05c3.55 0 6.43 2.89 6.43 6.43v31.29c0 3.55-2.89 6.43-6.43 6.43ZM6.47 12.95c-1.89 0-3.43 1.54-3.43 3.43v31.29c0 1.89 1.54 3.43 3.43 3.43h51.05c1.89 0 3.43-1.54 3.43-3.43V16.38c0-1.89-1.54-3.43-3.43-3.43H6.47Zm23.98 23.23c.33-.76 0-1.64-.77-1.98-.76-.33-1.64 0-1.98.77a7.33 7.33 0 0 1-6.69 4.37c-4.03 0-7.31-3.28-7.31-7.31s3.28-7.31 7.31-7.31c2.95 0 5.59 1.75 6.74 4.47.32.76 1.2 1.12 1.97.8.76-.32 1.12-1.2.8-1.97-1.62-3.83-5.35-6.3-9.5-6.3-5.69 0-10.31 4.63-10.31 10.31s4.63 10.31 10.31 10.31c4.09 0 7.79-2.42 9.44-6.16Zm22.67 0a1.502 1.502 0 1 0-2.75-1.21 7.33 7.33 0 0 1-6.69 4.37c-4.03 0-7.31-3.28-7.31-7.31s3.28-7.31 7.31-7.31c2.94 0 5.59 1.75 6.74 4.47.32.76 1.2 1.12 1.97.8.76-.32 1.12-1.2.8-1.97-1.62-3.83-5.35-6.3-9.5-6.3-5.69 0-10.31 4.63-10.31 10.31s4.63 10.31 10.31 10.31c4.09 0 7.79-2.42 9.44-6.16Z" style="stroke-width:0"/>
</svg>
