<svg xmlns="http://www.w3.org/2000/svg" data-name="Layer 1" viewBox="0 0 64 64">
  <path d="M11.32 51.85C5.78 51.85.04 47.87.04 41.21c0-5.23 4.01-9.59 9.38-10.5v-.31c0-5.89 5.14-10.69 11.46-10.69 1.34 0 2.67.22 3.92.64 2.39-4.97 7.69-8.21 13.66-8.21 8.26 0 14.97 6.25 14.97 13.93 0 .81-.08 1.62-.23 2.42 6.11.85 10.77 5.74 10.77 11.63 0 7.33-6.37 11.71-12.52 11.71H11.32Zm9.54-29.13c-4.66 0-8.46 3.45-8.46 7.69 0 .43.05.87.14 1.35.08.43-.02.88-.3 1.22-.27.34-.68.55-1.12.57-4.54.17-8.1 3.54-8.1 7.67 0 2.95 2.25 7.64 8.29 7.64h40.11c4.68 0 9.52-3.26 9.52-8.72 0-4.83-4.32-8.77-9.63-8.77-.49 0-.97-.23-1.25-.63s-.38-.9-.22-1.36c.37-1.07.56-2.18.56-3.29 0-6.03-5.37-10.93-11.97-10.93-5.26 0-9.85 3.08-11.42 7.65a1.493 1.493 0 0 1-2.09.85 9.101 9.101 0 0 0-4.06-.94Z" style="stroke-width:0"/>
</svg>
