<svg xmlns="http://www.w3.org/2000/svg" viewBox="0 0 64 64">
  <path d="M53.2 21.8c.1-.8.2-1.6.2-2.4 0-7.7-6.7-13.9-15-13.9s-11.3 3.2-13.7 8.2c-1.2-.4-2.6-.6-3.9-.6-6.3 0-11.5 4.8-11.5 10.7v.3C4 24.9 0 29.3 0 34.5s5.7 10.7 11.3 10.7h3.2L8.7 53c-.5.7-.4 1.6.3 2.1.2.2.5.3.8.3h5.8l-5.1 6.3c-.5.7-.4 1.6.3 2.1.3.2.6.3.9.3.5 0 .9-.2 1.2-.6l6.9-8.7c.5-.7.4-1.6-.3-2.1-.3-.2-.6-.3-.9-.3h-5.8l5.4-7.1h33.2c6.2 0 12.5-4.4 12.5-11.7S59.2 22.8 53.1 22Zm-1.8 20.4H11.3c-6 0-8.3-4.7-8.3-7.7s3.6-7.5 8.1-7.7c.4 0 .9-.2 1.1-.6.3-.3.4-.8.3-1.2 0-.5-.1-.9-.1-1.4 0-4.2 3.8-7.7 8.5-7.7 1.4 0 2.8.3 4.1.9.4.2.8.2 1.2 0 .4-.2.7-.5.8-.9 1.6-4.6 6.2-7.7 11.4-7.7s12 4.9 12 10.9-.2 2.2-.6 3.3c-.2.5 0 1 .2 1.4.3.4.8.6 1.2.6 5.3 0 9.6 3.9 9.6 8.8s-4.8 8.7-9.5 8.7ZM32 49l-7.8 10.4c-.3.4-.7.6-1.2.6s-.6 0-.9-.3c-.7-.5-.8-1.4-.3-2.1l7.8-10.4c.5-.7 1.4-.8 2.1-.3.7.5.8 1.4.3 2.1Zm20.8 0L45 59.4c-.3.4-.7.6-1.2.6s-.6 0-.9-.3c-.7-.5-.8-1.4-.3-2.1l7.8-10.4c.5-.7 1.4-.8 2.1-.3.7.5.8 1.4.3 2.1Zm-10.4 0-7.8 10.4c-.3.4-.7.6-1.2.6s-.6 0-.9-.3c-.7-.5-.8-1.4-.3-2.1L40 47.2c.5-.7 1.4-.8 2.1-.3.7.5.8 1.4.3 2.1Z"/>
</svg>
