<svg xmlns="http://www.w3.org/2000/svg" data-name="Layer 1" viewBox="0 0 64 64">
  <path d="M56.37 34.23c0-4.91-4.27-8.9-9.52-8.9-1.02 0-2.04.16-3 .45-1.67-3.27-4.89-5.6-8.67-6.31-.76-3.19-3.19-5.34-5.67-6.38-3.91-1.63-9.19-1.16-12 2.65-.85-.26-1.74-.4-2.64-.4-4.54 0-8.24 3.41-8.34 7.63-3.72.82-6.44 3.92-6.44 7.61s3.08 7.78 8.22 7.78h4.36c-.5 1.14-.79 2.39-.79 3.7 0 6.08 5.27 9.72 10.37 9.72h32.29c5.87 0 9.38-4.5 9.38-8.85s-3.21-7.85-7.54-8.69ZM8.31 35.36c-3.8 0-5.22-2.93-5.22-4.78 0-2.58 2.25-4.69 5.11-4.8.44-.02.85-.22 1.12-.57.27-.34.38-.79.3-1.22-.06-.3-.09-.58-.09-.84 0-2.65 2.4-4.81 5.34-4.81.9 0 1.79.21 2.58.6.73.37 1.62.08 2-.65 1.64-3.16 5.82-3.72 8.91-2.43.82.34 2.71 1.35 3.6 3.41-6.45.37-11.58 5.36-11.58 11.47 0 .57.04 1.13.13 1.69-2.25.37-4.25 1.43-5.75 2.92H8.32Zm46.23 13.42H22.25c-3.62 0-7.37-2.52-7.37-6.73 0-3.73 3.35-6.76 7.37-6.77.53.04 1.05-.2 1.36-.62.28-.4.35-.9.2-1.36a7.73 7.73 0 0 1-.43-2.56c0-4.69 4.19-8.5 9.34-8.5 4.11 0 7.69 2.4 8.92 5.96a1.493 1.493 0 0 0 2.09.85c.96-.48 2.04-.73 3.14-.73 3.59 0 6.52 2.64 6.52 5.89 0 .33-.04.67-.11 1.03-.08.43.02.88.29 1.22.27.34.68.55 1.12.57 3.5.13 6.24 2.72 6.24 5.88 0 2.26-1.73 5.85-6.38 5.85Z" style="stroke-width:0"/>
</svg>
