<svg xmlns="http://www.w3.org/2000/svg" data-name="Layer 1" viewBox="0 0 64 64">
  <path d="M11.31 43.78C5.75 43.78.01 39.8.01 33.14c0-5.24 4.01-9.6 9.39-10.51v-.31c0-5.9 5.14-10.69 11.47-10.69 1.34 0 2.67.22 3.92.64 2.39-4.97 7.69-8.21 13.67-8.21 8.26 0 14.98 6.25 14.98 13.94 0 .81-.08 1.62-.23 2.42 6.11.85 10.78 5.75 10.78 11.64 0 7.34-6.37 11.72-12.53 11.72H11.31Zm9.55-29.16c-4.67 0-8.47 3.45-8.47 7.69 0 .43.05.88.14 1.35.08.43-.02.88-.3 1.22-.27.34-.68.55-1.12.57C6.56 25.62 3 29 3 33.13c0 2.96 2.25 7.65 8.29 7.65h40.15c4.69 0 9.53-3.27 9.53-8.73 0-4.84-4.32-8.78-9.64-8.78-.49 0-.97-.23-1.25-.63s-.38-.9-.22-1.36c.37-1.07.56-2.18.56-3.3 0-6.03-5.38-10.94-11.98-10.94-5.26 0-9.86 3.08-11.44 7.66a1.493 1.493 0 0 1-2.09.85 9.12 9.12 0 0 0-4.07-.95Zm.17 45.32c-.31 0-.63-.1-.9-.3a1.51 1.51 0 0 1-.3-2.1l7.82-10.39c.5-.66 1.44-.79 2.1-.3.66.5.79 1.44.3 2.1l-7.82 10.39c-.29.39-.74.6-1.2.6Zm-12.14 0c-.31 0-.63-.1-.9-.3a1.51 1.51 0 0 1-.3-2.1l7.82-10.39c.5-.66 1.44-.79 2.1-.3.66.5.79 1.44.3 2.1l-7.82 10.39c-.29.39-.74.6-1.2.6Zm36.84 0c-.31 0-.63-.1-.9-.3a1.51 1.51 0 0 1-.3-2.1l7.82-10.39c.5-.66 1.44-.79 2.1-.3.66.5.79 1.44.3 2.1l-7.82 10.39c-.29.39-.74.6-1.2.6Zm-12.35 0c-.31 0-.63-.1-.9-.3a1.51 1.51 0 0 1-.3-2.1L40 47.15c.5-.66 1.44-.79 2.1-.3.66.5.79 1.44.3 2.1l-7.82 10.39c-.29.39-.74.6-1.2.6Z" style="stroke-width:0"/>
</svg>
