<svg xmlns="http://www.w3.org/2000/svg" data-name="Layer 1" viewBox="0 0 64 64">
  <path d="M50.21 13.63c.1-.59.15-1.18.15-1.78C50.35 5.35 44.69.07 37.72.07c-4.95 0-9.35 2.65-11.42 6.73-1-.31-2.05-.47-3.11-.47-5.37 0-9.73 4.08-9.73 9.09v.04c-4.45.85-7.75 4.51-7.75 8.89S9.3 33.4 15.3 33.4h33.15c5.21 0 10.61-3.72 10.61-9.94 0-4.9-3.81-8.99-8.86-9.83ZM48.46 30.4H15.31c-4.8 0-6.59-3.71-6.59-6.05 0-3.27 2.83-5.94 6.44-6.08.44-.02.85-.22 1.12-.57s.38-.79.3-1.22a5.89 5.89 0 0 1-.11-1.07c0-3.36 3.02-6.09 6.73-6.09 1.13 0 2.25.26 3.24.75.38.19.84.21 1.24.05.4-.16.71-.49.85-.9 1.26-3.68 4.96-6.15 9.19-6.15 5.31 0 9.63 3.93 9.63 8.77 0 .89-.15 1.78-.45 2.64-.16.46-.07.97.21 1.37s.75.62 1.25.62c4.25 0 7.7 3.13 7.7 6.98 0 4.34-3.87 6.94-7.61 6.94ZM11.89 49.16l-4.24 5.9c-.29.41-.75.62-1.22.62a1.492 1.492 0 0 1-1.22-2.37l4.24-5.9c.48-.67 1.42-.83 2.09-.34.67.48.83 1.42.34 2.09Zm8.08-11.62-5.25 7.3c-.29.41-.75.62-1.22.62a1.492 1.492 0 0 1-1.22-2.37l5.25-7.3c.48-.67 1.42-.83 2.09-.34.67.48.83 1.42.34 2.09Zm21.24 0L28.98 54.58c-.29.41-.75.63-1.22.63a1.492 1.492 0 0 1-1.21-2.37L38.78 35.8c.48-.67 1.42-.83 2.09-.34.67.48.83 1.42.34 2.09Zm-17.67 7.02c-.67-.48-.83-1.42-.34-2.09l4.8-6.68c.48-.67 1.42-.83 2.09-.34.67.48.83 1.42.34 2.09l-4.8 6.68c-.29.41-.75.62-1.22.62-.3 0-.61-.09-.87-.28Zm-6.29 11.69-5.07 7.05c-.29.41-.75.62-1.22.62a1.492 1.492 0 0 1-1.21-2.37l5.07-7.05c.48-.67 1.42-.83 2.09-.34.67.48.83 1.42.34 2.09Zm28.04-10.39-5.14 6.95c-.29.4-.75.61-1.21.61a1.49 1.49 0 0 1-1.2-2.39l5.14-6.95a1.49 1.49 0 0 1 2.1-.31c.67.49.81 1.43.31 2.1Zm-29.23 3.16a4.19 4.19 0 0 0 1.08 3.02c.75.83 1.78 1.32 2.9 1.37h.21c2.22 0 4.08-1.75 4.19-3.99a4.2 4.2 0 0 0-3.99-4.39 4.206 4.206 0 0 0-4.39 3.99Zm5.38.26a1.194 1.194 0 0 1-2.08.74c-.21-.24-.32-.54-.31-.86.03-.64.56-1.14 1.19-1.14h.06c.66.03 1.17.59 1.13 1.25Zm1.82 6.25c-2.31 0-4.19 1.88-4.19 4.19s1.88 4.19 4.19 4.19 4.19-1.88 4.19-4.19-1.88-4.19-4.19-4.19Zm0 5.39c-.66 0-1.19-.54-1.19-1.19s.54-1.19 1.19-1.19 1.19.54 1.19 1.19-.54 1.19-1.19 1.19Zm25.19-25.77c-2.31 0-4.19 1.88-4.19 4.19s1.88 4.19 4.19 4.19 4.19-1.88 4.19-4.19-1.88-4.19-4.19-4.19Zm0 5.39c-.66 0-1.19-.54-1.19-1.19s.54-1.19 1.19-1.19 1.19.54 1.19 1.19-.54 1.19-1.19 1.19ZM37.25 56.8l-4.81 6.51c-.29.4-.75.61-1.21.61a1.49 1.49 0 0 1-1.2-2.39l4.81-6.51a1.49 1.49 0 0 1 2.1-.31c.67.49.81 1.43.31 2.1Z" style="stroke-width:0"/>
</svg>
