<svg xmlns="http://www.w3.org/2000/svg" data-name="Layer 1" viewBox="0 0 64 64">
  <path d="M19.25 21.67 4.21 32.12l15.04 10.45c.68.47.85 1.41.38 2.09a1.491 1.491 0 0 1-2.08.37L.72 33.35a1.503 1.503 0 0 1 0-2.46l16.82-11.68c.68-.47 1.61-.31 2.09.38.47.68.3 1.61-.38 2.09Zm44.04 9.22L46.47 19.21c-.68-.47-1.62-.3-2.09.38-.47.68-.3 1.61.38 2.09L59.8 32.13 44.76 42.58c-.68.47-.85 1.41-.38 2.09a1.491 1.491 0 0 0 2.08.37l16.82-11.68a1.503 1.503 0 0 0 0-2.46ZM42.93 3.66c-.77-.29-1.64.09-1.93.87L21.63 55.52c-.29.77.1 1.64.87 1.93.17.07.35.1.53.1.6 0 1.17-.37 1.4-.97L43.8 5.6c.29-.77-.1-1.64-.87-1.94Z" style="stroke-width:0"/>
</svg>
