<svg xmlns="http://www.w3.org/2000/svg" data-name="Layer 1" viewBox="0 0 64 64">
  <path d="M62.48 10.64c0-5.96-9.4-10.63-21.4-10.63s-21.4 4.67-21.4 10.63v9.14c0 .14.03.28.04.42-.03.11-.04.22-.04.34v4.24c-10.14.77-18.15 9.24-18.15 19.58 0 10.84 8.82 19.65 19.65 19.65 8.73 0 16.13-5.72 18.69-13.61.4.01.81.02 1.22.02 12 0 21.4-4.67 21.4-10.64v-9.14c0-.13-.02-.26-.06-.39.02-.19.06-.38.06-.58v-9.14c0-.12-.02-.23-.04-.34.01-.14.04-.28.04-.42v-9.14ZM21.17 61.01c-9.19 0-16.66-7.47-16.66-16.66s7.47-16.66 16.66-16.66 16.66 7.47 16.66 16.66-7.47 16.66-16.66 16.66Zm38.32-21.23c0 3.61-7.56 7.64-18.41 7.64-.18 0-.34-.01-.52-.01.16-1 .26-2.02.26-3.06 0-1.39-.15-2.75-.43-4.06.23 0 .45.02.68.02 7.94 0 14.71-2.05 18.41-5.16v4.63Zm0-10.11c0 3.61-7.56 7.64-18.41 7.64-.54 0-1.07-.01-1.59-.04-1.1-2.84-2.85-5.36-5.06-7.39 2.09.33 4.31.53 6.65.53 7.94 0 14.71-2.05 18.41-5.16v4.41Zm0-9.89c0 3.61-7.56 7.64-18.41 7.64s-18.41-4.03-18.41-7.64v-3.66c3.7 3.11 10.47 5.16 18.41 5.16s14.71-2.05 18.41-5.16v3.66Zm-18.41-1.5c-10.85 0-18.41-4.03-18.41-7.64S30.23 3 41.08 3s18.41 4.03 18.41 7.64-7.56 7.64-18.41 7.64ZM18.74 41.23c0 .86 1.75 1.42 2.79 1.67 1.26.3 5.07 1.23 5.07 4.58 0 2.1-1.66 3.88-3.93 4.44v4.59h-2.99v-4.59c-2.27-.55-3.93-2.33-3.93-4.44h2.99c0 .87 1.14 1.63 2.43 1.63s2.43-.76 2.43-1.63c0-.82-1.52-1.36-2.79-1.67-3.37-.82-5.07-2.36-5.07-4.58 0-2.1 1.66-3.88 3.93-4.44V32.2h2.99v4.59c2.27.55 3.93 2.33 3.93 4.44H23.6c0-.87-1.14-1.63-2.43-1.63s-2.43.76-2.43 1.63Z" style="stroke-width:0"/>
</svg>
