<svg xmlns="http://www.w3.org/2000/svg" data-name="Layer 1" viewBox="0 0 64 64">
  <path d="M59.03 47.84c3.21-3.23 4.97-7.3 4.97-11.57 0-9.84-9.35-17.84-20.84-17.84-1 0-1.99.07-2.95.19C37.16 12 29.64 7.29 20.83 7.29 9.35 7.29 0 15.29 0 25.13c0 4.27 1.76 8.34 4.97 11.57l-2.4 6.88c-.2.57-.04 1.21.41 1.61.28.25.64.39 1.01.39.22 0 .43-.05.64-.14l8.15-3.84c2.56.92 5.26 1.39 8.06 1.39 1 0 1.98-.08 2.94-.2 3.04 6.63 10.58 11.33 19.38 11.33 2.79 0 5.5-.47 8.06-1.38l8.15 3.84c.2.1.42.14.64.14.36 0 .72-.13 1.01-.39.45-.4.61-1.04.41-1.61l-2.4-6.88Zm-45.77-9.27c-.38-.15-.81-.14-1.19.04L6.58 41.2l1.54-4.42c.2-.57.04-1.2-.41-1.61C4.67 32.42 3 28.86 3 25.13c0-8.18 8-14.84 17.83-14.84s17.83 6.66 17.83 14.84-8 14.84-17.83 14.84c-2.64 0-5.19-.47-7.57-1.41Zm38.66 11.18c-.2-.1-.42-.14-.64-.14-.19 0-.37.03-.55.1-2.38.93-4.93 1.41-7.57 1.41-7.29 0-13.56-3.67-16.32-8.9 8.57-2.21 14.83-9.03 14.83-17.08 0-1.24-.15-2.44-.43-3.61.63-.06 1.27-.1 1.92-.1 9.83 0 17.83 6.66 17.83 14.84 0 3.72-1.67 7.29-4.71 10.04-.45.4-.61 1.04-.41 1.61l1.54 4.42-5.49-2.59Z" style="stroke-width:0"/>
</svg>
