<svg xmlns="http://www.w3.org/2000/svg" data-name="Layer 1" viewBox="0 0 64 64">
  <path d="M58.37 61.35c-.25 0-.5-.05-.74-.17l-12.99-6.12c-4 1.47-8.25 2.22-12.64 2.22-17.64 0-32-12.25-32-27.31S14.36 2.65 32 2.65 64 14.9 64 29.97c0 6.64-2.79 12.97-7.87 17.94l3.88 11.13c.23.66.04 1.39-.48 1.86-.33.29-.74.45-1.16.45Zm-13.66-9.91c.25 0 .51.06.74.17l9.92 4.67-2.89-8.29a1.75 1.75 0 0 1 .47-1.86c4.89-4.42 7.58-10.16 7.58-16.17 0-13.15-12.8-23.84-28.53-23.84S3.47 16.82 3.47 29.97 16.27 53.81 32 53.81c4.21 0 8.27-.76 12.08-2.25.2-.08.42-.12.63-.12Z" style="stroke-width:0"/>
</svg>
