<svg xmlns="http://www.w3.org/2000/svg" data-name="Layer 1" viewBox="0 0 64 64">
  <path d="M32 .02c-12.02 0-21.8 9.78-21.8 21.8v20.36c0 12.02 9.78 21.8 21.8 21.8s21.8-9.78 21.8-21.8V21.82C53.8 9.8 44.02.02 32 .02Zm18.8 21.8v4.8c-4.52 2.37-10.7 3.78-17.31 3.97V19.92c2.13-.61 3.71-2.56 3.71-4.88v-4.22c0-2.33-1.58-4.27-3.71-4.88V3.1c9.67.77 17.3 8.87 17.3 18.73ZM32.11 8.71c1.16 0 2.1.94 2.1 2.1v4.22a2.1 2.1 0 1 1-4.2 0v-4.22c0-1.16.94-2.1 2.1-2.1ZM30.5 3.09V6c-2.02.68-3.49 2.57-3.49 4.81v4.22c0 2.25 1.47 4.13 3.49 4.81v10.74c-6.61-.19-12.79-1.6-17.31-3.97v-4.8c0-9.86 7.64-17.96 17.3-18.73ZM32 60.98c-10.37 0-18.8-8.44-18.8-18.8v-12.2c5.13 2.33 11.82 3.65 18.8 3.65s13.67-1.32 18.8-3.65v12.2c0 10.37-8.44 18.8-18.8 18.8Z" style="stroke-width:0"/>
</svg>
