<svg xmlns="http://www.w3.org/2000/svg" data-name="Layer 1" viewBox="0 0 64 64">
  <path d="M62.26 10.68H45.13c-.83 0-1.5.67-1.5 1.5v37.14c0 .83.67 1.5 1.5 1.5h17.13c.83 0 1.5-.67 1.5-1.5V12.18c0-.83-.67-1.5-1.5-1.5Zm-1.5 37.14h-5.3V31.2c0-.83-.67-1.5-1.5-1.5s-1.5.67-1.5 1.5v16.62H51V31.2c0-.83-.67-1.5-1.5-1.5s-1.5.67-1.5 1.5v16.62h-1.37V13.68h14.13v34.14ZM39.99 10.68H1.68c-.83 0-1.5.67-1.5 1.5v27.77c0 .83.67 1.5 1.5 1.5h17.66v6.37H11c-.83 0-1.5.67-1.5 1.5s.67 1.5 1.5 1.5h19.67c.83 0 1.5-.67 1.5-1.5s-.67-1.5-1.5-1.5h-8.33v-6.37H40c.83 0 1.5-.67 1.5-1.5V12.18c0-.83-.67-1.5-1.5-1.5ZM9.49 38.45v-1.26h22.69v1.26H9.49Zm29 0h-3.31v-2.76c0-.83-.67-1.5-1.5-1.5H7.99c-.83 0-1.5.67-1.5 1.5v2.76H3.18V13.68h35.31v24.77ZM29.7 17.78c0-.83.67-1.5 1.5-1.5h2.48c.83 0 1.5.67 1.5 1.5s-.67 1.5-1.5 1.5H31.2c-.83 0-1.5-.67-1.5-1.5Zm0 4.86c0-.83.67-1.5 1.5-1.5h2.48c.83 0 1.5.67 1.5 1.5s-.67 1.5-1.5 1.5H31.2c-.83 0-1.5-.67-1.5-1.5Zm-7.96-4.86c0-.83.67-1.5 1.5-1.5h2.48c.83 0 1.5.67 1.5 1.5s-.67 1.5-1.5 1.5h-2.48c-.83 0-1.5-.67-1.5-1.5Zm26.94 1.1c-.28-.28-.44-.67-.44-1.06s.16-.78.44-1.06c.57-.57 1.56-.56 2.12 0a1.499 1.499 0 1 1-2.12 2.12Zm4.02-1.1c0-.83.67-1.5 1.5-1.5h3.44c.83 0 1.5.67 1.5 1.5s-.67 1.5-1.5 1.5H54.2c-.83 0-1.5-.67-1.5-1.5Zm0 4.25c0-.83.67-1.5 1.5-1.5h3.44c.83 0 1.5.67 1.5 1.5s-.67 1.5-1.5 1.5H54.2c-.83 0-1.5-.67-1.5-1.5Z" style="stroke-width:0"/>
</svg>
