<svg xmlns="http://www.w3.org/2000/svg" data-name="Layer 1" viewBox="0 0 64 64">
  <path d="M32 0C14.36 0 0 14.36 0 32s14.35 31.99 32 31.99S64 49.64 64 32 49.64 0 32 0Zm1.5 60.95v-5.11c0-.83-.67-1.5-1.5-1.5s-1.5.67-1.5 1.5v5.11C15.7 60.19 3.8 48.29 3.04 33.49h5.11c.83 0 1.5-.67 1.5-1.5s-.67-1.5-1.5-1.5H3.04C3.8 15.7 15.7 3.8 30.5 3.04v5.11c0 .83.67 1.5 1.5 1.5s1.5-.67 1.5-1.5V3.04C48.3 3.8 60.2 15.7 60.96 30.5h-5.11c-.83 0-1.5.67-1.5 1.5s.67 1.5 1.5 1.5h5.11C60.2 48.3 48.3 60.2 33.5 60.96Zm6.24-33.25c-.17-.49-.47-.94-.86-1.28l-17.34-15.1c-.56-.49-1.26-.74-1.97-.74-.58 0-1.17.17-1.68.51-1.13.76-1.6 2.18-1.16 3.47l7.53 21.73c.17.49.47.94.86 1.28l17.34 15.1c.56.49 1.26.74 1.97.74.58 0 1.17-.17 1.68-.51 1.13-.76 1.6-2.18 1.16-3.47L39.75 27.7Zm-6.82 5.66c-.75.51-1.78.31-2.29-.44s-.31-1.78.44-2.29 1.78-.31 2.29.44.31 1.78-.44 2.29ZM19.57 13.58l16.17 14.09-.94.64c-1.54-1.16-3.7-1.3-5.39-.16-1.69 1.14-2.37 3.2-1.87 5.06l-.94.64-7.02-20.26Zm8.7 22.75.93-.63a4.646 4.646 0 0 0 5.41.16c1.69-1.14 2.37-3.2 1.87-5.06l.94-.64 7.02 20.26-16.17-14.08Z" style="stroke-width:0"/>
</svg>
