<svg xmlns="http://www.w3.org/2000/svg" data-name="Layer 1" viewBox="0 0 64 64">
  <path d="M63.93 33.3c-.13-.7-.73-1.22-1.44-1.23-3.63-.09-7.07-.52-10.07-1.22.18-.24.35-.48.53-.72.11-.12.21-.24.28-.38 1.53-2.15 2.91-4.39 4.08-6.61l.61-1.2c3.34-6.84 4.45-13.41 1.11-16.83-.01-.01-.02-.03-.03-.04 0 0-.01-.02-.02-.02 0 0-.02-.01-.02-.02-.01-.01-.03-.02-.04-.03-3.44-3.35-10.04-2.22-16.91 1.15-.03.02-1.01.51-1.04.52a55.276 55.276 0 0 0-6.7 4.13c-.14.07-.26.16-.38.28-.24.18-.49.35-.73.53-.7-2.99-1.14-6.43-1.22-10.06-.02-.71-.53-1.31-1.23-1.44-.7-.12-1.39.26-1.66.92-.96 2.42-3.35 6.5-5.88 10.44-1.96-3.85-4.67-5.82-7.62-5.48-.48.06-.9.34-1.13.76-.23.42-.25.93-.05 1.36 2.46 5.33-1.44 10.53-5.96 16.55-6.36 8.48-14.2 18.95-1.58 31.75.07.08.15.15.22.23.13.13.26.26.39.4 5.06 5.06 9.76 6.93 14.11 6.93 6.73 0 12.65-4.44 17.83-8.32 6.02-4.52 11.23-8.42 16.55-5.96.44.2.94.18 1.36-.05.42-.23.7-.66.76-1.13.35-2.95-1.63-5.65-5.48-7.62 3.95-2.54 8.03-4.92 10.45-5.88.66-.26 1.05-.96.92-1.66Zm-12.12-6.7c-.87-1.05-1.76-2.09-2.69-3.12 1.11-1.46 2.16-2.91 3.14-4.33.81.95 1.58 1.91 2.32 2.89-.75 1.4-1.66 2.93-2.77 4.56ZM24.29 38.93c.13.13.25.27.38.4s.26.25.38.37c-.37.11-.74.24-1.11.36.12-.37.23-.75.35-1.13Zm4.19-.11c-.56-.54-1.13-1.06-1.69-1.62s-1.08-1.13-1.62-1.69c.25-1.15.45-2.3.6-3.44.58-.62 1.17-1.24 1.78-1.87a303.993 303.993 0 0 0 6.25 6.24c-.62.61-1.24 1.2-1.86 1.77-1.14.15-2.3.35-3.45.59Zm14.34-17.64c.83.83 1.63 1.66 2.42 2.5-1.11 1.41-2.27 2.81-3.46 4.2-.93-.95-1.86-1.9-2.81-2.85-.95-.95-1.9-1.89-2.85-2.81 1.39-1.19 2.79-2.34 4.2-3.46.84.79 1.68 1.59 2.5 2.42Zm-.09-4.27c1.48-1.11 2.95-2.17 4.39-3.15.54.5 1.07 1.01 1.59 1.53s1.03 1.06 1.53 1.59c-.98 1.44-2.04 2.91-3.15 4.39a111.285 111.285 0 0 0-4.36-4.36Zm-5.88 10.25c1 1 1.98 2 2.95 3-1.28 1.43-2.57 2.83-3.89 4.18a303.993 303.993 0 0 1-6.23-6.24c1.35-1.31 2.75-2.61 4.18-3.89 1 .97 1.99 1.95 2.99 2.95Zm5.38 10.9c-.85-.09-1.72-.15-2.6-.19-.53-.5-1.05-.98-1.58-1.49 1.29-1.33 2.57-2.7 3.82-4.09.98 1.03 1.94 2.04 2.88 3.06-.81.89-1.65 1.8-2.51 2.71Zm1.62-8.04c1.17-1.37 2.31-2.75 3.41-4.13.95 1.07 1.86 2.15 2.74 3.23-.62.82-1.29 1.65-2.01 2.51-.39.47-.81.96-1.25 1.46-.95-1.02-1.91-2.04-2.9-3.07Zm13.46-14.57c-.28 1-.69 2.2-1.26 3.55a77.49 77.49 0 0 0-2.04-2.44c1.57-2.42 2.9-4.7 3.92-6.76.17 1.4.05 3.27-.61 5.64Zm-5.37-1.14c-.37-.38-.73-.77-1.1-1.14-.38-.38-.76-.74-1.14-1.1 1.86-1.18 3.63-2.2 5.28-3.03-.83 1.65-1.85 3.42-3.03 5.28ZM53.11 6c.39 0 .76.03 1.11.07-2.06 1.02-4.35 2.35-6.78 3.93a66.03 66.03 0 0 0-2.41-2.02C48.24 6.62 51.01 6 53.11 6ZM41.99 9.43c.97.73 1.93 1.5 2.87 2.3-1.42.98-2.87 2.03-4.33 3.14-1.03-.92-2.07-1.81-3.11-2.67 1.58-1.07 3.11-1.99 4.57-2.77Zm-9.62 6.58c.85-.71 1.69-1.37 2.52-2 1.08.88 2.15 1.79 3.22 2.74-1.38 1.1-2.76 2.24-4.13 3.41-1.03-.99-2.05-1.95-3.07-2.9.5-.43.99-.85 1.46-1.25Zm-.66 6.13c-1.4 1.25-2.77 2.52-4.1 3.82-.51-.53-.99-1.05-1.49-1.58-.04-.89-.1-1.75-.19-2.6.91-.86 1.83-1.71 2.72-2.52 1.01.94 2.03 1.9 3.06 2.88ZM29.33 7.05c.24 2 .64 4.29 1.25 6.55l-.15.12c-1.55 1.29-3.27 2.83-5.05 4.46a30.45 30.45 0 0 0-.87-3.36c1.7-2.57 3.42-5.31 4.81-7.77ZM10.79 26.43c4.05-5.4 8.23-10.97 7.15-16.89 1.24.87 2.41 2.62 3.34 5.06 2.6 6.84 2.72 17.5-1.2 26.96-4.94 2.24-9.56 5.59-13.27 10.32-7.78-9.78-2.05-17.42 3.98-25.46Zm43.66 19.62c-5.93-1.07-11.49 3.1-16.89 7.15-8.91 6.68-17.34 13-28.72.96 10.32-13.62 29.99-15.47 40.54-11.45 2.44.93 4.19 2.1 5.06 3.34Zm-5.27-6.58a30.45 30.45 0 0 0-3.36-.87c1.64-1.77 3.17-3.5 4.46-5.04l.12-.15c2.26.61 4.54 1.01 6.55 1.25-2.45 1.39-5.2 3.11-7.77 4.81Z" style="stroke-width:0"/>
</svg>
