<svg xmlns="http://www.w3.org/2000/svg" data-name="Layer 1" viewBox="0 0 64 64">
  <path d="m63.5 21.08-8.36-9.92a7.736 7.736 0 0 0-5.92-2.76H44.9c-.74 0-1.37.54-1.48 1.27l-.2 1.27H40c-.83 0-1.5.67-1.5 1.5s.67 1.5 1.5 1.5h2.75l-.14.9a4.003 4.003 0 0 1-3.97 3.4H11.02C4.41 18.25.14 23.74.14 32.25c0 .83.67 1.5 1.5 1.5s1.5-.67 1.5-1.5c0-2.48.41-4.61 1.15-6.32-.03.31-.05.62-.05.93v27.23c0 .83.67 1.5 1.5 1.5h5.85c.83 0 1.5-.67 1.5-1.5v-1.34c-.02-1.78 0-3.15.11-4.22.52.19 1.05.33 1.59.43v.5c0 .83.67 1.5 1.5 1.5s1.5-.67 1.5-1.5v-.4c.55-.08 1.11-.2 1.65-.37v.77c0 .83.67 1.5 1.5 1.5s1.5-.67 1.5-1.5v-2.25c1.02-.72 1.9-1.61 2.53-2.63h5.67v9.5c0 .83.67 1.5 1.5 1.5h5.85c.83 0 1.5-.67 1.5-1.5v-1.34c-.03-4.81.06-7.57 2.27-8.23.99-.3 1.93-.77 2.78-1.36a8.8 8.8 0 0 0 3.47-4.4c.02-.04.03-.09.05-.13.08-.22.14-.45.2-.68v-.01c.17-.68.27-1.38.27-2.11v-.09c.02-.5.02-1.01.02-1.54v-.41s-.01-.1-.02-.15v-3.54c0-2.21 1.8-4.02 4.02-4.02h7.91c.47 0 .92-.22 1.2-.6l1.9-2.54c.42-.56.39-1.33-.06-1.86Zm-28.95.22h3.39v3.64c0 .49.4.89.89.89s.89.4.89.89c0 1.02-.82 1.84-1.84 1.84-.49 0-.89-.4-.89-.89a.97.97 0 0 0-.97-.97c-.81 0-1.46-.66-1.46-1.46V21.3Zm-18 24.86c-.74 0-1.51-.16-2.25-.43.28-.24.63-.42 1.06-.55a9.51 9.51 0 0 0 1.48-.59h4.12c-1.27.96-2.91 1.57-4.41 1.57Zm43.16-23.07h-7.16c-3.87 0-7.02 3.15-7.02 7.02v4.27h.02c0 1.78-.02 2.99-.76 4.25a6.86 6.86 0 0 1-3.88 3.03c-4.42 1.32-4.44 5.98-4.41 10.94h-2.84V39.52c0-.83-.67-1.5-1.5-1.5s-1.5.67-1.5 1.5v2.07H20.45c.19-.25.36-.51.52-.78.7-1.19 1.15-2.55 1.3-3.95.09-.82-.51-1.56-1.33-1.65-.82-.09-1.56.51-1.65 1.33-.1.97-.42 1.92-.9 2.74a6.86 6.86 0 0 1-3.88 3.03c-4.41 1.32-4.44 5.66-4.41 10.29H7.26V26.87c0-3.1 2.52-5.62 5.62-5.62h.31v1.28a5.956 5.956 0 0 0-4.11 5.65c0 2.27 1.85 4.12 4.12 4.12h5.41c1.59 0 2.98-.91 3.66-2.24h2.08c3.7 0 6.71-3.01 6.71-6.71v-2.11h.53v4c0 1.89 1.18 3.51 2.84 4.16a3.907 3.907 0 0 0 3.49 2.17c2.67 0 4.84-2.17 4.84-4.84 0-1.37-.71-2.57-1.78-3.27v-2.15c0-.15-.02-.29-.04-.43 2.43-.81 4.27-2.9 4.69-5.57l.61-3.9h3.03c1.4 0 2.73.62 3.63 1.69l7.59 9.01-.73.99ZM28.04 21.3v2.05c0 2.05-1.66 3.71-3.71 3.71h-3.5c-.62 0-1.12.5-1.12 1.12s-.5 1.12-1.12 1.12h-5.41c-.62 0-1.12-.5-1.12-1.12 0-1.62 1.32-2.94 2.94-2.94.65 0 1.17-.52 1.17-1.17v-2.76h11.87Z" style="stroke-width:0"/>
</svg>
