<svg xmlns="http://www.w3.org/2000/svg" data-name="Layer 1" viewBox="0 0 64 64">
  <path d="M63.78 39.89c-.27-.78-1.13-1.2-1.91-.93l-6.38 2.22L48.92 40c0-.6-.06-1.19-.2-1.77l7.92-2.52c.88-.28 1.58-.97 1.87-1.85.19-.59.18-1.21 0-1.79l4.21-7.69c.04-.08.08-.16.11-.24.17-.5.23-1.02.19-1.52.4-.27.66-.73.66-1.24v-4.36c0-7.4-6.02-13.42-13.42-13.42H39.35c-.61 0-1.15.36-1.39.92s-.1 1.2.32 1.63l5.19 5.21-5.38-.62c-.56-.07-1.11.19-1.42.66a1.51 1.51 0 0 0-.07 1.56l1.92 3.46c2.46 4.44 7.18 7.19 12.21 7.19.33 0 .67-.01 1-.04l1.9-.14-.52 4.56c-.46.12-.9.33-1.28.62l-6.44 5.1a7.05 7.05 0 0 0-1.03-.51l-3.27-1.28a27 27 0 0 0-1.66-.56l.36-1.04a4.074 4.074 0 0 0 3.69-2.73 4.1 4.1 0 0 0-3.87-5.44 4.08 4.08 0 0 0-3.86 2.75c-.57 1.63-.03 3.37 1.2 4.44l-.45 1.28c-2.99-.55-6.05-.55-9.03 0l-.45-1.28c1.23-1.06 1.77-2.81 1.2-4.44a4.094 4.094 0 0 0-3.86-2.75 4.1 4.1 0 0 0-3.86 5.44 4.084 4.084 0 0 0 3.69 2.73l.36 1.04c-.56.17-1.11.35-1.66.56l-3.27 1.28c-.36.14-.7.32-1.03.51l-6.44-5.1c-.38-.3-.82-.51-1.28-.62l-.52-4.56 1.9.14c.33.02.67.04 1 .04 5.03 0 9.75-2.75 12.21-7.19l1.92-3.46c.27-.49.25-1.09-.07-1.56-.31-.47-.86-.72-1.42-.66l-5.38.62 5.19-5.21c.43-.43.56-1.07.32-1.63s-.78-.92-1.39-.92H13.72C6.34 3.59.32 9.62.32 17.02v4.36c0 .52.26.97.66 1.24-.04.51.02 1.02.19 1.52.03.08.06.16.11.24l4.21 7.69c-.18.58-.2 1.2 0 1.79.29.88.99 1.57 1.87 1.85l7.92 2.52c-.14.57-.21 1.17-.2 1.77l-6.57 1.18-6.38-2.22a1.5 1.5 0 0 0-1.91.93 1.5 1.5 0 0 0 .93 1.91l6.75 2.34c.16.05.32.08.49.08.09 0 .18 0 .27-.02l7.04-1.27.25.76-.14.03-9.12 3.04c-.3.1-.55.29-.74.54l-4.41 6.03a1.503 1.503 0 0 0 1.21 2.39c.46 0 .92-.21 1.21-.62l4.12-5.65 8.67-2.89s.07-.03.11-.05l.18.54c-.14.05-.27.11-.4.19l-6.48 4.59c-.23.17-.41.39-.52.66l-2.22 5.47c-.31.77.06 1.64.83 1.95a1.499 1.499 0 0 0 1.95-.83l2.06-5.06 5.79-4.1c.13.3.28.59.44.87L15.23 54c-.4.4-.55.99-.38 1.53l1.23 3.82c.2.64.79 1.04 1.43 1.04.15 0 .31-.02.46-.07.79-.25 1.22-1.1.97-1.89l-.95-2.94 2.39-2.35A9.807 9.807 0 0 0 27 55.7h10.02c2.52 0 4.85-.95 6.62-2.56l2.38 2.35-.95 2.94c-.25.79.18 1.63.97 1.89a1.52 1.52 0 0 0 1.89-.97l1.23-3.82a1.5 1.5 0 0 0-.38-1.53l-3.26-3.21c.16-.28.31-.57.44-.87l5.79 4.1 2.06 5.06c.24.58.8.94 1.39.94a1.499 1.499 0 0 0 1.39-2.06l-2.22-5.47c-.11-.27-.29-.49-.52-.66l-6.48-4.59c-.12-.09-.26-.15-.4-.19l.18-.54s.07.04.11.05l8.67 2.89 4.12 5.65c.29.4.75.62 1.21.62.31 0 .62-.09.88-.29.67-.49.82-1.43.33-2.1l-4.41-6.03c-.18-.25-.44-.44-.74-.54l-9.12-3.04-.14-.03.25-.76 7.04 1.27c.09.02.18.02.27.02.17 0 .33-.03.49-.08l6.75-2.34c.78-.27 1.2-1.13.93-1.91ZM38.59 25.9a1.093 1.093 0 0 1 1.39-.67 1.09 1.09 0 0 1-.36 2.12 1.09 1.09 0 0 1-1.03-1.45Zm-15.25.72a1.09 1.09 0 0 1 1.03-1.45 1.09 1.09 0 1 1 0 2.18c-.45 0-.87-.28-1.03-.73Zm36.67-3.53-3.36 6.14c-.17-.23-.38-.42-.6-.59l.67-5.83c.06-.48.35-.74.53-.86.17-.12.53-.29 1-.15l1.19.35a.831.831 0 0 1 .58.95Zm-8.49-2.51c-4.25.3-8.31-1.9-10.37-5.61l-.5-.9 6.75.78a1.5 1.5 0 0 0 1.23-2.55l-5.67-5.7h7.3c5.75 0 10.42 4.68 10.42 10.42v2.4c-.13-.05-.26-.12-.4-.16l-1.19-.35a4.208 4.208 0 0 0-3.5.53c-.37.25-.68.56-.95.9l-3.12.23Zm2.18 10.4c.09-.07.18-.09.25-.09h.06c.08.01.19.05.28.17l1.32 1.84-7.26 2.31 5.35-4.23ZM3.32 19.42v-2.4C3.32 11.27 8 6.6 13.74 6.6h7.3l-5.68 5.7c-.45.45-.57 1.14-.29 1.71.28.57.89.91 1.52.84l6.75-.78-.5.9a10.963 10.963 0 0 1-10.37 5.61l-3.12-.23c-.27-.34-.58-.66-.95-.9a4.167 4.167 0 0 0-3.5-.53l-1.19.35c-.14.04-.27.11-.4.16Zm.74 3.13a.8.8 0 0 1 .5-.41l1.19-.35c.46-.14.82.04 1 .15.17.11.47.38.53.86l.67 5.83c-.22.17-.42.37-.6.59l-3.36-6.14c-.05-.24.02-.44.08-.54Zm5.65 8.51c.08-.12.2-.16.28-.17.08-.01.2 0 .31.08l5.35 4.23-7.26-2.31 1.32-1.84Zm27.3 21.67H26.99c-2.97 0-5.57-1.89-6.49-4.71l-2.22-6.83c-.68-2.1.39-4.36 2.44-5.16l3.27-1.28c2.58-1.01 5.29-1.51 8.01-1.51s5.43.5 8.01 1.51l3.27 1.28c2.05.8 3.13 3.07 2.44 5.16l-2.22 6.83a6.811 6.811 0 0 1-6.49 4.71Z" style="stroke-width:0"/>
</svg>
