<svg xmlns="http://www.w3.org/2000/svg" data-name="Layer 1" viewBox="0 0 64 64">
  <path d="M52.48 7.1H51.3l-2.14-4.43C48.56 1.07 47.03 0 45.31 0H18.67c-1.72 0-3.25 1.07-3.85 2.67L12.68 7.1H11.5c-2.21 0-4.01 1.8-4.01 4.01v2.27c0 2.05 1.55 3.73 3.55 3.96l.53 7.12a1.575 1.575 0 0 0-.94 1.57l1.67 22.48c.05.68.53 1.23 1.16 1.41l.94 12.59c.06.83.76 1.48 1.59 1.48h32c.84 0 1.53-.64 1.59-1.48l.94-12.59c.63-.18 1.11-.73 1.16-1.41l1.67-22.48a1.6 1.6 0 0 0-.42-1.2c-.15-.16-.32-.28-.52-.37l.53-7.12c1.99-.23 3.55-1.91 3.55-3.96v-2.27c0-2.21-1.8-4.01-4.01-4.01Zm-2.74 10.29-.52 6.93H14.77l-.52-6.93h35.49ZM15.39 46.8l-1.43-19.29h36.1L48.63 46.8H15.39Zm2.1 14.01L16.69 50h30.64l-.8 10.81H17.5ZM53.3 13.38c0 .45-.37.82-.82.82H11.52c-.45 0-.82-.37-.82-.82v-2.27c0-.45.37-.82.82-.82h2.18c.61 0 1.17-.35 1.44-.9l2.61-5.4c.03-.06.05-.11.07-.17.13-.37.48-.62.87-.62h26.64c.39 0 .74.25.87.62.02.06.04.12.07.17l2.61 5.4c.27.55.83.9 1.44.9h2.18c.45 0 .82.37.82.82v2.27ZM41.46 35.32v3.69c0 2.13-1.73 3.86-3.86 3.86H26.4c-2.13 0-3.86-1.73-3.86-3.86v-3.69c0-2.13 1.73-3.86 3.86-3.86h11.2c2.13 0 3.86 1.73 3.86 3.86Z" style="stroke-width:0"/>
</svg>
