<svg xmlns="http://www.w3.org/2000/svg" data-name="Layer 1" viewBox="0 0 64 64">
  <path d="M57.27 9.18c0 .83-.67 1.5-1.5 1.5h-4.55c-.83 0-1.5-.67-1.5-1.5s.67-1.5 1.5-1.5h4.55c.83 0 1.5.67 1.5 1.5Zm-1.5 5.2h-4.55c-.83 0-1.5.67-1.5 1.5s.67 1.5 1.5 1.5h4.55c.83 0 1.5-.67 1.5-1.5s-.67-1.5-1.5-1.5Zm-11.38-6.7h-4.54c-.83 0-1.5.67-1.5 1.5s.67 1.5 1.5 1.5h4.54c.83 0 1.5-.67 1.5-1.5s-.67-1.5-1.5-1.5Zm19.6-5.65V45.1c0 .83-.67 1.5-1.5 1.5h-26.1v8.46h10.55c.83 0 1.5.67 1.5 1.5v5.39c0 .83-.67 1.5-1.5 1.5H17.08c-.83 0-1.5-.67-1.5-1.5v-5.39c0-.83.67-1.5 1.5-1.5h10.55V46.6H1.51c-.83 0-1.5-.67-1.5-1.5V2.04c0-.1.01-.2.03-.3.06-.29.21-.55.41-.76C.72.71 1.1.54 1.51.54h60.98a1.505 1.505 0 0 1 1.5 1.5ZM3.01 36.84h57.98V3.54H3.01v33.3Zm42.42 21.23H18.57v2.39h26.86v-2.39ZM33.38 46.61h-2.77v8.46h2.77v-8.46Zm27.6-3v-3.77H3.01v3.77h57.98Zm-27.6-2.45c-.04-.09-.08-.17-.14-.26-.05-.08-.11-.15-.18-.22-.07-.07-.15-.14-.23-.19-.08-.05-.17-.1-.26-.14-.09-.03-.18-.06-.28-.08-.49-.1-1.01.06-1.36.41-.07.07-.13.14-.18.22a1.653 1.653 0 0 0-.23.54c-.02.1-.03.2-.03.3s0 .19.03.29c.02.1.05.19.09.28.04.09.08.18.14.26.05.08.11.16.18.23.07.07.15.13.23.19.08.05.17.1.26.13.09.04.19.07.28.09.1.02.2.03.3.03.09 0 .19 0 .29-.03s.19-.05.28-.09c.09-.03.18-.08.26-.13.08-.06.16-.12.23-.19s.13-.15.18-.23c.06-.08.1-.17.14-.26a1.428 1.428 0 0 0 .12-.57c0-.1 0-.2-.03-.3-.02-.09-.05-.19-.09-.28Z" style="stroke-width:0"/>
</svg>
