<svg xmlns="http://www.w3.org/2000/svg" data-name="Layer 1" viewBox="0 0 64 64">
  <path d="M63.38 18.85a1.51 1.51 0 0 0-1.65-.75c-.67.15-1.61.04-2.74-.35l1.41-1.41c.75-.75 1.33-2.27-.22-5.22-.94-1.8-2.51-3.84-4.41-5.74S51.83 1.91 50.03.97C47.08-.58 45.56 0 44.81.75L29.48 16.08l-.74-.74c-.59-.59-1.54-.59-2.13 0l-8 8a1.522 1.522 0 0 0 0 2.14l.74.74-2 2L1.33 44.23c-2.67 2.67 1.06 8.84 5.66 13.44C10.32 61 13.91 64 17.76 64c.66 0 1.33-.09 2.01-.28.25-.07.48-.2.66-.39l18.01-18.01 6.41 6.41c.29.29.67.44 1.07.44.15 0 .31-.02.46-.07.54-.17.93-.63 1.03-1.19l.98-5.79 5.79-.98a1.512 1.512 0 0 0 .82-2.56l-6.41-6.41 14.55-14.55c.47-.47.58-1.2.26-1.79ZM46.83 3.01c.8-.02 3.52 1.23 6.81 4.51 3.29 3.29 4.54 6.01 4.51 6.81L43.63 28.85c-1.03-3.73-4.29-6.54-8.26-6.87l-3.76-3.76L46.83 3ZM34.58 24.96c3.51 0 6.37 2.86 6.37 6.37s-2.86 6.37-6.37 6.37-6.37-2.86-6.37-6.37 2.86-6.37 6.37-6.37Zm-6.91-6.41 3.89 3.89a9.43 9.43 0 0 0-5.87 5.87l-3.89-3.89 5.87-5.87Zm-6.19 9.8 3.75 3.75c.33 3.97 3.14 7.24 6.87 8.27L17.61 54.86c-.11-.25-.24-.52-.38-.79-.94-1.8-2.51-3.84-4.41-5.74s-3.94-3.47-5.74-4.41c-.28-.14-.54-.27-.79-.38l15.19-15.19Zm-4.77 31.32c-.11.03-.22.06-.33.06.11 0 .22-.04.33-.06ZM3.99 45.84Zm3.31 5.15c.04.12.07.28.11.47.2.92.56 2.46 1.7 4.07-4.75-4.75-5.97-8.55-5.65-9.17l.41-.41c.7-.02 2.91.95 5.69 3.46-.35-.32-.7-.61-1.03-.88l-.88.88c-.41.41-.55 1.02-.35 1.57Zm3.09-.04.38-.38s-.06-.06-.09-.1c2.74 2.74 4.05 5.06 4.4 6.23-.64-.29-1.64-.92-2.8-2.07-1.32-1.32-1.67-2.71-1.89-3.68Zm8.21 9.95c-1.57.3-3.28-.25-5.43-1.8.17.1.35.2.51.28.84.4 1.52.55 2.07.55.81 0 1.33-.31 1.65-.6h-.01c.01-.01.03-.02.05-.03l17.49-17.49-17.44 17.44 17.44-17.44 1.38 1.38L18.6 60.9Zm28.22-18.56c-.63.11-1.13.6-1.24 1.24l-.67 3.96-7.32-7.32a9.454 9.454 0 0 0 5.87-5.87l7.32 7.32-3.96.67Zm-.38-9.28-1.38-1.38.2-.2 11.41-11.41c.7.32 1.38.58 2.01.75L46.44 33.06Z" style="stroke-width:0"/>
</svg>
