<svg xmlns="http://www.w3.org/2000/svg" data-name="Layer 1" viewBox="0 0 64 64">
  <path d="M22.58 11.53c.13-3.59-.76-7.31-4.19-10.74C17.1-.5 16-.04 15.03.92l-1.69 1.69s-.01.02-.02.03c0 0-.02.01-.03.02l-.47.47c-.68.68-.68 1.78 0 2.46l.38.38c1.26 1.26.76 4.27.05 7.28-3.02.71-6.03 1.21-7.29-.05l-.38-.38c-.68-.68-1.78-.68-2.46 0l-.47.47s-.01.02-.02.03c0 0-.02.01-.03.02L.91 15.03c-.96.96-1.42 2.07-.13 3.36 3.43 3.43 7.15 4.32 10.73 4.19-.12 3.59.78 7.32 4.21 10.75 3.43 3.43 7.15 4.32 10.73 4.19-.12 3.59.78 7.32 4.21 10.75 3.43 3.43 7.15 4.32 10.73 4.19-.12 3.59.77 7.31 4.2 10.74 1.29 1.29 2.4.83 3.36-.13l1.69-1.69s.01-.02.02-.03c0 0 .02-.01.03-.02l.47-.47c.68-.68.68-1.78 0-2.46l-.38-.38c-1.26-1.26-.76-4.27-.04-7.28 3.01-.71 6.02-1.21 7.28.05l.38.38c.68.68 1.78.68 2.46 0l.47-.47s.01-.02.02-.03c0 0 .02-.01.03-.02l1.69-1.69c.97-.97 1.42-2.07.13-3.36-3.43-3.43-7.15-4.32-10.75-4.19.13-3.59-.76-7.31-4.19-10.74s-7.15-4.33-10.75-4.2c.13-3.59-.76-7.31-4.19-10.74s-7.15-4.33-10.75-4.2ZM2.54 16.65l1.69-1.69c2.15 2.15 5.04 2.19 8.23 1.61-.24.98-.46 2.01-.62 3.06-3.3.34-6.5-.17-9.3-2.97Zm14.94 14.94c-2.81-2.81-3.31-6-2.98-9.3.06-.52.14-1.05.23-1.58.09-.54.2-1.08.31-1.63.2-.9.42-1.8.65-2.69.05-.19.09-.37.14-.56.14-.57.28-1.13.4-1.69.13-.56.25-1.12.33-1.67.58-3.19.54-6.08-1.61-8.23l1.69-1.69c2.8 2.8 3.31 6 2.97 9.3-.05.52-.13 1.05-.22 1.57-.1.55-.2 1.09-.33 1.63-.19.9-.41 1.8-.63 2.7-.05.19-.09.37-.14.56-.14.58-.28 1.14-.41 1.7-.13.57-.24 1.12-.34 1.67-.58 3.19-.54 6.08 1.62 8.23 2.15 2.15 5.04 2.19 8.23 1.61-.24.98-.46 2.01-.62 3.06-3.3.34-6.5-.17-9.3-2.97Zm2.73-5.06c-.22-1.51.17-3.59.66-5.67 2.08-.49 4.16-.88 5.67-.66l-6.33 6.33Zm8.65-4c.22 1.5-.17 3.58-.65 5.66-2.08.49-4.17.88-5.67.66l6.32-6.32Zm32.6 24.81-1.69 1.69c-2.15-2.15-5.03-2.19-8.22-1.61.24-.98.46-2.01.62-3.05 3.3-.34 6.5.17 9.3 2.97ZM46.53 32.41c2.8 2.8 3.31 6 2.97 9.3-.05.52-.13 1.05-.22 1.57-.09.55-.2 1.09-.33 1.63-.19.9-.41 1.8-.63 2.7-.05.19-.09.37-.14.56-.14.58-.28 1.14-.41 1.7-.13.57-.24 1.12-.34 1.67-.58 3.19-.54 6.08 1.61 8.22l-1.69 1.69c-2.8-2.8-3.3-5.99-2.98-9.3.06-.52.14-1.05.23-1.58.09-.54.2-1.08.31-1.63.2-.9.42-1.8.65-2.69.05-.19.09-.37.14-.56.14-.57.28-1.13.4-1.69.13-.56.24-1.12.34-1.67.58-3.19.54-6.08-1.61-8.22s-5.04-2.2-8.23-1.62c.24-.98.46-2.01.62-3.05 3.3-.34 6.5.17 9.31 2.98Zm-2.73 5.05c.22 1.5-.17 3.58-.66 5.66-2.08.49-4.16.89-5.67.66l6.33-6.33Zm-8.65 4c-.22-1.51.17-3.59.66-5.67 2.08-.49 4.16-.88 5.66-.66l-6.32 6.32Zm-.58-14.69c-.05.52-.13 1.05-.22 1.57-.1.55-.2 1.09-.33 1.63-.19.9-.41 1.8-.63 2.7-.05.19-.09.37-.14.56-.14.58-.28 1.14-.41 1.7-.13.57-.24 1.12-.34 1.67-.58 3.19-.54 6.08 1.62 8.23 2.15 2.15 5.04 2.19 8.22 1.61-.24.98-.46 2.01-.62 3.06-3.3.33-6.5-.18-9.3-2.98s-3.31-6-2.98-9.3c.06-.52.14-1.05.23-1.58.09-.54.2-1.08.31-1.63.2-.9.42-1.8.65-2.69.05-.19.09-.37.14-.56.14-.57.28-1.13.4-1.69s.25-1.12.33-1.67c.58-3.19.54-6.08-1.61-8.23-2.16-2.16-5.04-2.2-8.23-1.62.24-.98.46-2.01.62-3.05 3.3-.34 6.5.17 9.31 2.98s3.31 6 2.97 9.3Z" style="stroke-width:0"/>
</svg>
