<svg xmlns="http://www.w3.org/2000/svg" data-name="Layer 1" viewBox="0 0 64 64">
  <path d="M62.44 48.86a5.35 5.35 0 0 0-2.17-1.4c-.28-.81-.75-1.57-1.41-2.18a5.318 5.318 0 0 0-6.16-.82c2.41-3.66 4.01-7.9 4.53-12.46.58-.22.98-.78.97-1.43l-.1-4.92c0-.4-.17-.78-.46-1.05-.16-.16-.37-.27-.58-.34C54.87 10.64 42.92.11 28.77.11h-.61c-5.85.12-11.25 2-15.72 5.11-.52-.17-1.11-.06-1.52.35l-5.34 5.34c-.41.41-.52 1.01-.35 1.53C1.9 17.24-.02 23.09.12 29.37c.29 13.95 10.77 25.54 24.17 27.69.07.21.18.41.34.58.28.29.65.45 1.05.46l4.92.1h.03c.64 0 1.18-.4 1.4-.97 4.58-.52 8.82-2.14 12.48-4.56-1.05 1.98-.81 4.5.79 6.2.6.64 1.35 1.12 2.17 1.4.28.81.75 1.57 1.41 2.18.99.93 2.3 1.45 3.67 1.45s2.78-.55 3.79-1.56a5.346 5.346 0 0 0 1.55-4.31l.15-.15c.17.02.34.02.51.02 1.43 0 2.78-.56 3.8-1.57 2.02-2.03 2.07-5.38.11-7.46ZM11.98 8.76l2.29 2.29-3.21 3.21-2.29-2.29 3.21-3.21Zm.51 8.31 4.66-4.66c3.25-2.33 7.12-3.63 11.19-3.71h.43c9.6 0 17.75 6.93 19.64 16.05-.31.28-.51.69-.5 1.14l.1 4.92c0 .4.17.78.46 1.05.03.03.07.04.09.06-.5 3.15-1.74 6.11-3.64 8.69-.23.07-.44.17-.62.35l-3.35 3.35c-.18.18-.29.4-.36.63a19.857 19.857 0 0 1-8.68 3.62 1.5 1.5 0 0 0-1.12-.55l-4.92-.1c-.39 0-.78.14-1.07.42-.03.03-.05.06-.08.09-8.95-1.86-15.84-9.77-16.04-19.23-.09-4.4 1.25-8.6 3.79-12.12Zm31.65 28.29 1.22-1.22 4.44 4.44-1.23 1.22-4.44-4.44Zm3.42-3.27c2.04-2.88 3.44-6.24 3.99-9.87l2.62-.06c-.58 4.36-2.26 8.37-4.76 11.77l-1.84-1.84Zm7.56-14.86.04 1.92-4.19.09-.04-1.92 4.19-.09ZM29.23 50.98l-.09 4.18-1.92-.04.09-4.19 1.92.04Zm2.99.56c3.64-.55 7-1.94 9.87-3.98l1.85 1.85c-3.38 2.49-7.4 4.16-11.77 4.74l.05-2.61Zm-4-48.42h.55c12.55 0 23.1 9.1 25.24 21.15l-2.64.06C49.28 13.7 39.91 5.71 28.76 5.71h-.49c-4.28.09-8.26 1.35-11.65 3.46l-1.86-1.86c3.88-2.54 8.49-4.08 13.46-4.18ZM3.12 29.3a25.467 25.467 0 0 1 4.19-14.54l1.86 1.86c-2.28 3.66-3.56 8-3.47 12.63.23 11.02 8.21 20.08 18.61 22.12l-.06 2.61C12.47 51.88 3.37 41.71 3.11 29.3Zm57.09 24.9c-.46.46-1.07.69-1.67.69-.47 0-.95-.14-1.35-.42l-2.71 2.71c.64.92.55 2.2-.27 3.02-.45.45-1.06.68-1.67.68s-1.17-.21-1.62-.63a2.36 2.36 0 0 1-.66-2.34.358.358 0 0 0-.35-.45c-.03 0-.06 0-.1.01-.2.05-.41.08-.62.08-.63 0-1.26-.25-1.72-.75-.86-.92-.84-2.4.05-3.29.46-.46 1.07-.69 1.67-.69.47 0 .95.14 1.35.42l2.71-2.71c-.64-.92-.55-2.2.27-3.02a2.36 2.36 0 0 1 1.67-.68c.58 0 1.17.21 1.62.63.66.62.88 1.53.66 2.34-.06.24.12.45.35.45.03 0 .06 0 .1-.01.2-.05.41-.08.62-.08.63 0 1.26.25 1.72.75.86.92.84 2.4-.05 3.29Z" style="stroke-width:0"/>
</svg>
