<svg xmlns="http://www.w3.org/2000/svg" data-name="Layer 1" viewBox="0 0 64 64">
  <path d="M16.63 21.28c0 .88-.72 1.6-1.6 1.6s-1.6-.72-1.6-1.6.72-1.6 1.6-1.6 1.6.72 1.6 1.6Zm43.18 25.99.9-6.4c1.63-11.51-4.59-22.7-14.97-27.51 1.1-.69 2.85-1.39 5.41-1.39.59 0 1.13-.35 1.37-.89.24-.54.14-1.18-.26-1.62-.16-.18-4.06-4.41-9.43-4.43-2.92 0-5.71 1.23-8.23 3.68l-3.39-1.27c-5.13-1.92-11.05-1.47-16.24 1.24-5.06 2.65-8.72 7.11-10.01 12.19l-1.24 4.27-2.52 2.13C-.17 28.43-.57 30.29.22 31.9c.79 1.62 2.51 2.45 4.28 2.08 1.96-.42 3.87-1.02 5.71-1.61 2.09-.66 4.07-1.29 6.13-1.67 3.33-.62 5.7-.96 9.46-.52.95 3.46 3.55 7.53 10.4 9.06.19.04.38.06.57.06.77 0 1.5-.35 1.99-.97.62-.78.73-1.82.3-2.72-.32-.66-.64-1.51-.82-2.53 5.34 2.5 9.71 6.92 12.2 12.35-4.08 1.08-7.2 4.44-7.89 8.74-.16.98-.17 1.99-.05 3.01.08.66.59 1.2 1.25 1.3.66.1 1.31-.24 1.6-.85.4-.86 1.66-1.57 3.54-1.98 3.18-.7 6.46-.14 9 1.55.97.64 2.15 1.65 2.29 2.81a1.496 1.496 0 0 0 1.49 1.32c.58 0 1.11-.33 1.36-.87.43-.93.73-1.89.89-2.87.64-3.98-.98-7.94-4.15-10.33Zm-.21 7.44c-3.21-2.13-7.33-2.85-11.3-1.98-.93.2-1.75.47-2.47.79a7.788 7.788 0 0 1 6.87-5.42c.47-.04.9-.29 1.15-.69.25-.4.31-.89.14-1.34-2.65-7.06-8.05-12.85-14.82-15.9-.3-.13-.61-.26-.91-.39.01-.06.01-.12.03-.19.15-.81-.39-1.6-1.21-1.75-.81-.15-1.6.39-1.74 1.21a12.7 12.7 0 0 0 .69 7.03c-8.95-2.5-7.7-10.56-7.64-10.94.14-.81-.4-1.59-1.21-1.74-.81-.15-1.59.4-1.74 1.21 0 .03-.17 1.02-.1 2.47-3.71-.34-6.26.04-9.53.64-2.25.42-4.41 1.1-6.49 1.77-1.86.59-3.61 1.15-5.43 1.53-.6.13-.87-.28-.96-.46-.09-.18-.24-.63.22-1.02l2.87-2.42c.23-.19.39-.44.47-.73l1.38-4.75c1.1-4.31 4.19-8.07 8.5-10.32 4.44-2.32 9.47-2.72 13.8-1.09l4.31 1.61c.57.21 1.22.06 1.63-.39C38.21 9.16 40.46 8 42.81 8c1.77 0 3.37.65 4.61 1.39-3.94 1.03-5.61 3.45-5.7 3.58-.26.38-.32.87-.18 1.31.15.44.49.79.92.94C52.85 18.9 59.27 29.5 57.73 40.41l-1.03 7.32a1.5 1.5 0 0 0 .69 1.48 7.802 7.802 0 0 1 3.69 6.63c-.44-.41-.94-.8-1.5-1.17Z" style="stroke-width:0"/>
</svg>
