<svg xmlns="http://www.w3.org/2000/svg" data-name="Layer 1" viewBox="0 0 64 64">
  <path d="M33.28.77a1.506 1.506 0 0 0-2.56 0C30 1.95 12.99 29.78 12.99 43.56c0 11.24 8.53 20.39 19.01 20.39s19.01-9.15 19.01-20.39C51.01 29.78 34 1.95 33.28.77ZM32 60.95c-8.83 0-16.01-7.8-16.01-17.39C15.99 32.73 28 11.32 32 4.49c4 6.83 16.01 28.24 16.01 39.07 0 9.59-7.18 17.39-16.01 17.39Zm12.36-19.24v.34c-.02.82-.69 1.47-1.5 1.47h-.03c-.83-.02-1.49-.7-1.47-1.53v-.29c0-.83.67-1.5 1.5-1.5s1.5.67 1.5 1.5Zm-.88 5.33c-1.8 5.26-6.12 9.07-11.28 9.96-.09.01-.17.02-.26.02-.72 0-1.35-.52-1.48-1.25-.14-.82.41-1.59 1.23-1.73 4.07-.7 7.5-3.75 8.95-7.97a1.497 1.497 0 0 1 2.83.97Z" style="stroke-width:0"/>
</svg>
