<svg xmlns="http://www.w3.org/2000/svg" data-name="Layer 1" viewBox="0 0 64 64">
  <path d="M62.49 30.5h-1.45v-4.74c0-.83-.67-1.5-1.5-1.5h-3.25V23.1c0-.83-.67-1.5-1.5-1.5h-3.25v-.94c0-.83-.67-1.5-1.5-1.5h-4.75c-.83 0-1.5.67-1.5 1.5v7.47H20.21v-7.47c0-.83-.67-1.5-1.5-1.5h-4.75c-.83 0-1.5.67-1.5 1.5v.94H9.21c-.83 0-1.5.67-1.5 1.5v1.16H4.46c-.83 0-1.5.67-1.5 1.5v4.74H1.51c-.83 0-1.5.67-1.5 1.5s.67 1.5 1.5 1.5h1.45v4.74c0 .83.67 1.5 1.5 1.5h3.25v1.16c0 .83.67 1.5 1.5 1.5h3.25v.94c0 .83.67 1.5 1.5 1.5h4.75c.83 0 1.5-.67 1.5-1.5v-7.47h23.58v7.47c0 .83.67 1.5 1.5 1.5h4.75c.83 0 1.5-.67 1.5-1.5v-.94h3.25c.83 0 1.5-.67 1.5-1.5v-1.16h3.25c.83 0 1.5-.67 1.5-1.5V33.5h1.45c.83 0 1.5-.67 1.5-1.5s-.67-1.5-1.5-1.5ZM5.96 36.74v-9.48h1.75v9.48H5.96Zm4.75 2.66V24.6h1.75v14.8h-1.75Zm6.5 2.44h-1.75V22.16h1.75v19.68Zm3-8.97v-1.75h23.58v1.75H20.21Zm28.33 8.97h-1.75V22.16h1.75v19.68Zm4.75-2.44h-1.75V24.6h1.75v14.8Zm4.75-2.66h-1.75v-9.48h1.75v9.48Z" style="stroke-width:0"/>
</svg>
