<svg xmlns="http://www.w3.org/2000/svg" data-name="Layer 1" viewBox="0 0 64 64">
  <path d="M63.98 32c0-.47-.01-.96-.04-1.47 0-.08 0-.17-.01-.25-.01-.19-.03-.38-.04-.57l-.02-.2v-.12s-.01-.06-.02-.09c-.02-.26-.04-.52-.07-.77-.03-.29-.07-.57-.11-.85v-.11c-.07-.4-.13-.79-.2-1.18-.03-.16-.05-.32-.08-.47-.04-.19-.07-.39-.12-.58-.08-.36-.16-.7-.24-1.05-.18-.74-.4-1.47-.63-2.19v-.03c-.06-.14-.11-.29-.16-.43-.13-.39-.27-.77-.42-1.15 0 0 0-.02-.01-.03l-.05-.12-.07-.18-.21-.54a41.572 41.572 0 0 0-.74-1.62v-.01c-1.84-3.76-4.39-7.1-7.48-9.86-.27-.24-.54-.48-.81-.71l-.04-.03s-.07-.06-.1-.09l-.02-.02c-.33-.27-.67-.54-1.02-.8l-.03-.02c-.09-.07-.18-.13-.27-.2l-.04-.03c-.32-.24-.65-.47-.98-.7h-.01c-.1-.07-.2-.13-.3-.2-.01 0-.03-.02-.04-.03l-.13-.08s-.02-.01-.03-.02c-.42-.27-.84-.54-1.27-.79 0 0-.01 0-.02-.01 0 0-.04-.03-.05-.03-.05-.03-.11-.06-.16-.09-.27-.15-.53-.31-.8-.45-.05-.03-.1-.05-.15-.08A31.692 31.692 0 0 0 34.52.13h-.16c-.14-.02-.28-.04-.42-.04-.27-.02-.54-.02-.81-.03h-.26c-.28 0-.56-.02-.84-.02-2.5 0-4.93.3-7.27.84h-.01c-.49.12-.98.25-1.47.38l-.12.03c-.48.14-.95.29-1.42.45h-.02c-.42.14-.83.29-1.23.45l-.1.04c-.44.17-.87.35-1.3.55h-.01l-.12.06s-.03.02-.05.02c-.4.18-.79.37-1.18.57h-.02l-.1.05-.06.03s-.02 0-.03.01c-.38.19-.75.39-1.12.6 0 0-.02 0-.02.01l-.17.1s-.03.02-.04.03c-.35.2-.7.41-1.05.63 0 0-.02.01-.03.02l-.18.12-.07.04s-.02.02-.04.02c-.32.2-.63.41-.94.63 0 0-.01 0-.02.01-.09.06-.18.12-.27.19l-.06.04s-.04.03-.06.04c-.26.19-.53.38-.78.58 0 0-.02.01-.03.02-.11.09-.22.17-.33.26l-.09.07s-.04.04-.06.05c-.22.17-.44.35-.65.53 0 0-.02.01-.02.02-.18.15-.34.3-.51.44-.02.02-.05.04-.07.06-.17.15-.34.3-.51.46l-.02.02-.59.56-.06.06-.39.39s-.02.01-.02.02c-.22.22-.43.45-.65.68l-.08.09-.27.3s-.01.02-.02.02c-.23.25-.45.51-.67.77l-.06.08v.01c-.07.09-.15.17-.22.26l-.02.02c-.23.28-.45.56-.66.84l-.05.07c-.07.09-.14.18-.2.27 0 0-.01.02-.02.02-.21.28-.41.57-.61.86l-.04.06c-.08.11-.15.22-.23.33 0 0 0 .01-.01.02-.05.08-.1.15-.15.22l-.05.08v.01A31.19 31.19 0 0 0 .02 32C.02 49.63 14.37 63.97 32 63.97c10.46 0 19.77-5.05 25.6-12.84l.01-.01.16-.22.05-.07c.17-.23.33-.46.5-.7.15-.22.3-.44.45-.67.02-.02.03-.04.05-.07l.05-.08c.13-.2.26-.4.38-.6 0 0 0-.02.01-.02.32-.51.62-1.04.9-1.57v-.01c.16-.29.3-.58.45-.88 0-.01.01-.02.02-.04.16-.33.32-.66.47-.99 0-.02.02-.04.03-.06 0-.01.01-.03.02-.04.2-.44.38-.88.56-1.32 0-.01.01-.03.02-.04 0-.02.02-.05.03-.07.13-.33.26-.66.38-1v-.02c.12-.33.23-.67.34-1 .05-.15.09-.3.14-.45.11-.37.21-.72.3-1.06.02-.07.04-.14.06-.2.06-.22.1-.44.15-.66l.04-.19v-.03c.1-.46.2-.92.28-1.39v-.04l.03-.18.09-.49c.11-.69.19-1.38.25-2.08v-.02c.02-.17.03-.34.04-.52v-.13c.02-.3.04-.6.05-.9.02-.46.03-.89.03-1.3Zm-3 0c0 .69-.03 1.38-.08 2.06a29.851 29.851 0 0 1-.27 2.43c-.03.21-.07.41-.11.62-.08.44-.17.88-.27 1.31-.06.26-.11.52-.18.77-.13.52-.29 1.04-.45 1.56-.1.3-.2.61-.31.91-.12.33-.24.66-.37.98-.17.43-.35.85-.54 1.27-.15.33-.3.66-.47.99-.13.27-.27.53-.41.79-.27.49-.54.98-.84 1.46-.13.21-.26.41-.4.62-.29.44-.58.88-.9 1.3-.07.09-.13.18-.19.27-.17.01-.35.02-.52.02-.37 0-.75-.03-1.12-.08-.9-.32-1.57-1.1-1.73-2.04.51-1.02.55-3.43.55-6.48 0-.85.97-1.6 2.09-2.47a15.4 15.4 0 0 0 1.94-1.67c.5-.42.72-1.1.55-1.74-.3-.98-1.42-1.22-2.5-1.46-.4-.08-.8-.18-1.18-.31.1-.97-.19-1.94-.8-2.69a3.96 3.96 0 0 0-2.96-1.33h-.23c-.93 0-1.83-.35-2.04-2.92-.05-1.1-.75-2.06-1.78-2.44-.61-.21-1.06-.73-1.17-1.37-.32-1.2.29-1.64 2.56-2.54.31-.12.61-.24.9-.37.4-.17 1.3-.31 2.8-.31 1.07 0 2.45.07 4.15.24.52.05 1.04.08 1.56.08s1-.02 1.5-.07l.27-.03.03.06c.22.45.42.9.61 1.35.09.22.17.44.26.66.1.24.19.49.28.73.1.28.19.56.28.84.06.19.13.38.18.57.09.3.18.61.26.92.05.17.09.35.14.52.08.31.15.63.22.95.04.18.07.36.11.53.06.31.12.63.17.94l.09.61c.04.29.08.58.11.88.03.27.05.55.07.82.02.23.04.46.05.7.03.52.04 1.04.04 1.56Zm-9.73-21.64c-.75.3-1 .56-1.15.92-.46.75-1.25 1.23-2.12 1.29-.84.02-1.68.11-2.51.27-.55.12-1.1.19-1.66.19h-.37c-.91-.18-1.69-.74-2.16-1.54-.02-.11-.04-.77 1.8-3.23a8.16 8.16 0 0 1 2.46-1.86c.05.03.11.05.16.08.31.17.61.34.91.52.41.24.81.49 1.2.75l.43.28c.3.21.6.42.89.63.1.07.2.15.3.22.31.24.62.48.93.73.05.04.09.08.14.12.25.21.5.42.74.64Zm-13.6-6.79c-.92 1.29-1.98 2.47-3.17 3.52-.28.25-.48.29-.59.29h-.08c-.43-.06-1.02-.58-1.56-1.4-.11-.17-.27-1 .13-2.95.21 0 .41 0 .61.02.21 0 .42.01.62.02.22.01.44.03.66.05 1.09.08 2.18.23 3.25.44.04 0 .08.01.12.02Zm-22.6 19.67c.1.09.18.17.23.23.7.88 2.54 1.9 5.42 1.9.8 0 1.48-.05 2.02-.1.42-.03.74-.06.99-.06.63 0 .84.14 1.17.6.32.64.47 1.35.45 2.07.07 1.13.18 2.85 1.87 3.04h.02c.97 0 1.93-.23 2.79-.66.83-.33 1.74-.69 2.46-.69.22 0 .42.03.6.11 1.83.83 3.32 2.51 3.11 3.52-.06.31-.11.63-.16.95-.24 1.65-.45 2.6-1.97 3.11-3.11 1.04-3.87 2.7-4.07 5.06a4.552 4.552 0 0 1-2.69 3.57c-2.18 1.09-2.35 2.66-2.54 4.32l-.03.29c-.08.75-.03 1.5.15 2.23.1.47.11.61.07.71h-.13c-.29 0-.57-.08-.82-.22-.32-.14-.56-.41-.66-.74-.08-.93-.09-1.86-.05-2.79.04-2.68.02-4.51-.5-5.48-.31-.82-.54-1.67-.68-2.53-.24-1.53-.7-3.01-1.38-4.4a8.293 8.293 0 0 0-2.53-2.26c-1.07-.73-2.18-1.48-2.18-2.23 0-2.33 0-5.86-3.17-7.98-2.57-1.71-5.22-3.48-5.22-7.3 0-.43.04-.86.1-1.29.06-.09.12-.19.18-.28.08-.13.17-.25.26-.37.18-.26.36-.52.55-.78.08-.11.17-.22.26-.33.2-.26.39-.51.6-.76l.28-.34c.2-.24.4-.47.61-.7.11-.13.23-.25.35-.37.19-.21.39-.41.59-.62l.43-.43c.18-.17.35-.34.54-.51.18-.17.36-.33.55-.49l.46-.4c.22-.18.44-.36.67-.54.13-.1.25-.2.38-.3.26-.2.52-.39.79-.58l.3-.21c.3-.21.6-.41.9-.6.07-.05.15-.1.22-.14.33-.21.66-.4.99-.59.06-.03.12-.07.18-.1.35-.2.7-.39 1.06-.57.05-.03.1-.05.15-.08.36-.18.73-.36 1.1-.52.05-.02.1-.04.15-.07.37-.16.74-.32 1.12-.47.06-.02.11-.04.17-.07.37-.14.74-.28 1.12-.41.07-.02.14-.05.21-.07.37-.12.73-.24 1.11-.34.08-.02.16-.05.24-.07.37-.1.74-.2 1.11-.29.04 0 .08-.02.12-.03 0 .05-.02.1-.03.15-.06.41-.56 4.05.93 5.86 1.38 1.68 1.9 3.38 1.63 3.77-.52.87-1.4 1.45-2.4 1.58-.53-.08-1.04-.26-1.51-.51-.52-.24-1.16-.52-1.74-.52-.43 0-.83.15-1.14.59-.29.53-.45 1.13-.45 1.74-.04.39-.14 1.43-.35 1.58-.14 0-.29.01-.43.01-.54 0-1.08-.05-1.61-.14-.73-.09-1.53-.2-2.27-.2-1.28 0-2.4.31-2.73 1.49-.53 1.9 1 3.36 1.73 4.07ZM32 60.97C16 60.97 3.02 48 3.02 31.99c0-3.92.78-7.65 2.19-11.05 1.17 3.17 3.86 4.97 5.96 6.37 1.71 1.14 1.84 2.99 1.84 5.48 0 2.34 1.94 3.65 3.49 4.71.06.04.13.08.19.12.56.32 1.04.74 1.45 1.23.48 1.05.81 2.15.99 3.29.18 1.09.46 2.13.84 3.14.04.1.09.21.14.31.21.6.18 2.8.16 4.02-.04 1.04-.02 2.09.06 3.12.02.21.06.43.12.63a4.176 4.176 0 0 0 2.17 2.54c.67.36 1.42.55 2.19.55.12 0 .24 0 .36-.01 1.12-.09 2.1-.8 2.53-1.84.41-.98.23-1.84.1-2.47 0-.03-.01-.07-.02-.1-.1-.4-.12-.81-.08-1.21l.03-.27c.17-1.54.23-1.64.84-1.95a7.578 7.578 0 0 0 4.38-5.88c0-.05.01-.09.02-.14.12-1.37.25-1.88 2.03-2.47 3.35-1.12 3.75-3.88 3.99-5.53.04-.27.08-.54.13-.8.56-2.8-2-5.56-4.81-6.84-.56-.25-1.18-.38-1.84-.38-1.3 0-2.55.5-3.56.9-.08.03-.16.07-.24.11-.11.05-.22.1-.34.15 0-1.12-.26-2.24-.76-3.24-.07-.15-.16-.29-.26-.43-.92-1.28-2.03-1.84-3.6-1.84-.38 0-.8.03-1.23.07-.52.04-1.1.09-1.78.09-1.9 0-2.89-.59-3.09-.79-.18-.21-.32-.35-.44-.46l-.04-.04c-.13-.12-.24-.24-.34-.34.35.03.73.08 1.1.13.68.12 1.37.18 2.06.18.19 0 .38 0 .58-.01.56-.03 1.11-.21 1.57-.53 1.01-.7 1.35-1.78 1.51-2.77.48.18.98.31 1.49.39.16.02.31.04.47.04.13 0 .26 0 .39-.03a6.27 6.27 0 0 0 4.55-2.96c1.72-2.7-1.23-6.52-1.85-7.27-.31-.38-.5-1.95-.29-3.44 0-.03.01-.06.02-.09.07-.37.04-.74-.02-1.1.32-.04.65-.08.98-.11-.44 2.71.02 3.87.44 4.49 1.08 1.62 2.32 2.53 3.67 2.71h.05c.1.01.24.02.41.02.64 0 1.6-.18 2.57-1.04 1.35-1.2 2.57-2.55 3.62-4.02.22-.31.36-.66.45-1.02.6.18 1.18.39 1.76.61-.51.4-1 .84-1.44 1.33-.06.07-.12.14-.17.21-2.01 2.68-2.64 4.21-2.34 5.65.07.31.18.62.34.89a6.23 6.23 0 0 0 4.16 2.97c.15.03.29.05.44.06.17 0 .35.01.52.01.77 0 1.53-.08 2.28-.25.65-.12 1.31-.2 1.96-.21h.16a5.718 5.718 0 0 0 4.29-2.48c.34-.16.62-.39.88-.65 1.13 1.24 2.16 2.58 3.06 4.01h-.15c-.42 0-.84-.02-1.26-.06-1.69-.17-3.19-.25-4.45-.25-2.44 0-3.45.32-4 .56-.26.11-.53.22-.81.33-1.87.74-5.34 2.12-4.39 5.99a4.746 4.746 0 0 0 2.89 3.46c.43 4.88 3.33 5.61 5.03 5.61h.23c.25 0 .5.1.68.27.08.12.12.27.11.42-.15 1.4.69 2.71 2.02 3.16l.18.06c-1.43 1.1-3.12 2.48-3.12 4.74 0 1.43 0 4.41-.26 5.18-.27.56-.36 1.2-.25 1.81a5.642 5.642 0 0 0 3.69 4.35c.07.03.15.04.23.06-5.27 5.44-12.64 8.83-20.81 8.83Z" style="stroke-width:0"/>
</svg>
