<svg xmlns="http://www.w3.org/2000/svg" data-name="Layer 1" viewBox="0 0 64 64">
  <path d="M63.92 24.5s-.01-.04-.02-.07c-.02-.08-.05-.16-.08-.24-.01-.03-.03-.06-.05-.09-.04-.06-.07-.13-.12-.18-.02-.03-.05-.06-.07-.09-.05-.05-.1-.1-.16-.15-.02-.02-.03-.04-.05-.05l-7.07-5.42V7.35c0-.83-.67-1.5-1.5-1.5H40.16L32.91.31c-.54-.41-1.29-.41-1.83 0l-7.24 5.54H9.2c-.83 0-1.5.67-1.5 1.5v10.86L.63 23.63l-.05.05c-.06.05-.11.1-.16.15a.55.55 0 0 0-.07.09l-.12.18c-.02.03-.04.06-.05.09-.04.08-.06.16-.08.24 0 .02-.02.04-.02.07-.02.1-.04.21-.04.32v37.83c.01.12.04.24.08.35v.05c.05.13.12.24.2.35.02.02.04.05.06.07.08.1.17.19.28.26h.01c.11.07.23.13.36.17.03 0 .06.02.09.03.13.04.26.06.4.06h60.91c.14 0 .27-.03.4-.06.03 0 .06-.02.09-.03.13-.04.25-.1.36-.17h.01c.11-.07.2-.16.28-.26a1.513 1.513 0 0 0 .26-.42V63c.04-.11.06-.23.08-.35V24.82c0-.11-.01-.21-.04-.32ZM3.05 27.76l19.17 13.8L3.05 59.08V27.75Zm35.61 15.02 19.92 18.21H5.42l19.92-18.21h13.31Zm3.13-1.22 19.17-13.8v31.33L41.79 41.57Zm18.15-16.78L56.3 27.4V22l3.64 2.78Zm-6.64.41v4.38l-14.16 10.2H24.9l-14.16-10.2V8.86h42.57v16.33ZM32 3.4l3.2 2.45h-6.41l3.2-2.45ZM7.71 22v5.4l-3.64-2.62L7.71 22Zm9.09-1.88c0-.83.67-1.5 1.5-1.5h27.4c.83 0 1.5.67 1.5 1.5s-.67 1.5-1.5 1.5H18.3c-.83 0-1.5-.67-1.5-1.5Zm0 9.07c0-.83.67-1.5 1.5-1.5h27.4c.83 0 1.5.67 1.5 1.5s-.67 1.5-1.5 1.5H18.3c-.83 0-1.5-.67-1.5-1.5Z" style="stroke-width:0"/>
</svg>
