<svg xmlns="http://www.w3.org/2000/svg" data-name="Layer 1" viewBox="0 0 64 64">
  <path d="M64 13.14v-.16c-.01-.12-.04-.24-.08-.35v-.05c-.05-.13-.12-.24-.2-.35-.02-.02-.04-.05-.06-.07-.08-.1-.17-.19-.28-.26l-.01-.01c-.11-.07-.23-.13-.36-.17l-.09-.03c-.13-.04-.26-.06-.4-.06H1.51c-.14 0-.27.03-.4.06-.03 0-.06.02-.09.03-.13.04-.25.1-.36.17l-.01.01c-.1.07-.2.16-.28.26-.02.02-.04.05-.06.07-.08.11-.15.22-.2.35v.05c-.04.11-.06.23-.08.35v38.03c.01.12.04.24.08.35v.05c.05.13.12.24.2.35.02.02.04.05.06.07.08.1.17.18.28.26l.01.01c.11.07.23.13.35.17l.09.03c.13.04.26.06.4.06h60.99c.14 0 .27-.03.4-.06.03 0 .06-.02.09-.03.13-.04.25-.1.35-.17l.01-.01c.1-.07.2-.16.28-.26.02-.02.04-.05.06-.07.08-.11.15-.22.2-.35v-.05c.04-.11.06-.23.08-.35V13.14Zm-22.14 20.9 16.75 15.32H5.39l16.75-15.32 8.84 8.09c.29.26.65.39 1.02.39s.73-.13 1.02-.39l8.84-8.09ZM3.01 47.45V16.56l16.9 15.45-16.9 15.44ZM44.09 32l16.9-15.45v30.89l-16.9-15.45Zm14.52-17.36L32 38.97 5.39 14.64h53.23Z" style="stroke-width:0"/>
</svg>
