<svg xmlns="http://www.w3.org/2000/svg" data-name="Layer 1" viewBox="0 0 64 64">
  <path d="M54.86 37.13c-5.05 0-9.14 4.09-9.14 9.14s4.09 9.14 9.14 9.14S64 51.32 64 46.27s-4.09-9.14-9.14-9.14Zm5.56 7.78-5.7 6.05c-.3.31-.69.47-1.09.47-.37 0-.74-.14-1.03-.41l-3.23-3.04c-.6-.57-.63-1.52-.06-2.13.57-.6 1.52-.63 2.13-.06l2.13 2.01 4.67-4.95c.57-.6 1.52-.63 2.13-.06s.63 1.52.06 2.13Zm-15.7 1.36v-.01H5.38l16.73-15.29 8.83 8.07c.29.26.65.39 1.01.39s.73-.13 1.01-.39l8.83-8.07 7.49 6.84c.91-.6 1.92-1.05 3-1.34l-8.25-7.54L60.9 13.51v24.63c1.26.94 2.29 2.15 3.01 3.56V9.94c-.01-.12-.04-.24-.08-.35v-.05c-.05-.13-.12-.24-.2-.35-.02-.02-.04-.05-.06-.07-.08-.1-.17-.19-.28-.26l-.01-.01c-.11-.07-.23-.13-.36-.17l-.09-.03c-.13-.04-.26-.06-.4-.06H1.5c-.14 0-.27.03-.4.06-.03 0-.06.02-.09.03-.13.04-.25.1-.36.17l-.01.01c-.1.07-.2.16-.28.26-.02.02-.04.05-.06.07-.08.11-.15.22-.2.35v.05c-.04.11-.06.23-.08.35v37.97c.01.12.04.24.08.35v.05c.05.13.12.24.2.35.02.02.04.05.06.07.08.1.17.19.28.26h.01c.11.07.23.13.36.17.03 0 .06.02.09.03.13.04.26.06.4.06h43.66c-.29-.95-.45-1.95-.45-2.99ZM58.53 11.6 31.96 35.89 5.38 11.6h53.14ZM3.01 13.51l16.87 15.42L3.01 44.35V13.51Z" style="stroke-width:0"/>
</svg>
