<svg xmlns="http://www.w3.org/2000/svg" data-name="Layer 1" viewBox="0 0 64 64">
  <path d="M22.7 64.02H5.98c-3.3 0-6-2.69-6-6V41.3c0-3.31 2.69-6 6-6s6 2.69 6 6v10.72H22.7c3.31 0 6 2.69 6 6s-2.69 6-6 6ZM5.98 38.31c-1.65 0-3 1.35-3 3v16.72c0 1.65 1.35 3 3 3H22.7c1.65 0 3-1.35 3-3s-1.35-3-3-3H8.98V41.31c0-1.65-1.35-3-3-3Zm0-9.61c-3.3-.01-6-2.7-6-6.01V5.98c0-3.31 2.7-6 6-6H22.7c3.31 0 6 2.69 6 6s-2.69 6-6 6H11.98V22.7c0 3.31-2.69 6-6 6Zm0-25.72c-1.65 0-3 1.35-3 3V22.7c0 1.65 1.35 3 3 3s3-1.35 3-3V8.98H22.7c1.65 0 3-1.35 3-3s-1.35-3-3-3H5.98ZM57.94 28.7c-3.31 0-6-2.69-6-6V11.98H41.22c-3.31 0-6-2.69-6-6s2.7-6 6.01-6h16.72c3.31 0 6 2.69 6 6V22.7c0 3.31-2.69 6-6 6ZM41.23 2.98c-1.65 0-3 1.35-3 3s1.35 3 3 3h13.72V22.7c0 1.65 1.35 3 3 3s3-1.35 3-3V5.98c0-1.65-1.35-3-3-3H41.23Zm16.72 61.05H41.23c-3.31 0-6-2.69-6-6s2.69-6 6-6h10.72V41.31c0-3.31 2.69-6 6-6s6 2.69 6 6v16.72c0 3.31-2.69 6-6 6Zm-16.72-9c-1.65 0-3 1.35-3 3s1.35 3 3 3h16.72c1.65 0 3-1.35 3-3V41.31c0-1.65-1.35-3-3-3s-3 1.35-3 3v13.72H41.23Z" style="stroke-width:0"/>
</svg>
