<svg xmlns="http://www.w3.org/2000/svg" data-name="Layer 1" viewBox="0 0 64 64">
  <path d="M61.76 26.98c-6.4-8.82-16.99-13.99-29.07-14.21-12.28-.22-23.62 4.85-30.41 13.56-3.37 4.32-1.92 7.77-.06 10.58 5.91 8.9 16.26 14.2 28.39 14.54.39.01.78.02 1.17.02 12.12 0 23.53-5.26 29.98-13.89 2.55-3.42 2.55-7.08 0-10.6ZM32.01 47.1c-8.35 0-15.13-6.79-15.13-15.13s6.79-15.14 15.13-15.14 15.14 6.79 15.14 15.14S40.36 47.1 32.01 47.1ZM4.73 35.25c-1.71-2.57-2.19-4.37-.08-7.07 4.1-5.25 10.05-9.05 16.87-10.97-4.62 3.29-7.65 8.68-7.65 14.77 0 6.46 3.41 12.13 8.51 15.34-7.47-1.9-13.69-6.08-17.66-12.06Zm54.63.53C55.32 41.19 49.11 45.14 42 47.09c4.91-3.25 8.15-8.81 8.15-15.12s-3.01-11.44-7.6-14.73c6.9 2 12.77 5.96 16.79 11.5 1.78 2.45 1.78 4.68.02 7.04Zm-27.35-12.7c-.73 0-1.42.09-2.07.26-.53.14-.95.56-1.08 1.09-.13.53.04 1.1.45 1.47.41.38.64.89.64 1.44 0 1.05-.86 1.91-1.92 1.91-.65 0-1.25-.33-1.6-.87-.3-.47-.85-.73-1.4-.68-.56.05-1.04.41-1.25.93a8.868 8.868 0 0 0-.65 3.34c0 4.9 3.98 8.88 8.88 8.88s8.88-3.98 8.88-8.88-3.98-8.88-8.88-8.88Zm0 14.76a5.89 5.89 0 0 1-5.88-5.88v-.09c.59.25 1.24.38 1.91.38 2.71 0 4.92-2.2 4.92-4.91 0-.41-.05-.82-.15-1.21a5.89 5.89 0 0 1 5.09 5.83 5.89 5.89 0 0 1-5.88 5.88Z" style="stroke-width:0"/>
</svg>
