<svg xmlns="http://www.w3.org/2000/svg" data-name="Layer 1" viewBox="0 0 64 64">
  <path d="M21.19 14.21c3.92 0 7.1-3.18 7.1-7.1S25.11 0 21.19 0s-7.1 3.18-7.1 7.1 3.18 7.1 7.1 7.1Zm0-11.21c2.26 0 4.1 1.84 4.1 4.1s-1.84 4.1-4.1 4.1-4.1-1.84-4.1-4.1S18.93 3 21.19 3Zm22 11.21c3.92 0 7.1-3.18 7.1-7.1S47.11 0 43.19 0s-7.1 3.18-7.1 7.1 3.18 7.1 7.1 7.1Zm0-11.21c2.26 0 4.1 1.84 4.1 4.1s-1.84 4.1-4.1 4.1-4.1-1.84-4.1-4.1S40.93 3 43.19 3Zm14.43 31.84-2.27-12.08a8.937 8.937 0 0 0-8.78-7.28h-6.75c-1.47 0-2.86.37-4.1 1.01a7.24 7.24 0 0 0-5.95-.68 7.07 7.07 0 0 0-2.12-.33H14.73a7.16 7.16 0 0 0-7.17 6.54L6.3 35.68c-.16 1.7.41 3.4 1.56 4.66a6.111 6.111 0 0 0 4.5 1.99h.32v18.65c0 1.66 1.34 3 3 3H52.4c.43 0 .83-.18 1.12-.5.29-.32.42-.74.38-1.16l-2.14-20c1.76-.1 3.39-.9 4.52-2.27a6.289 6.289 0 0 0 1.35-5.21ZM37.76 47.3h-1.29v13.68H27.5V47.3h-1.26c-1.73 0-3.08-1.49-2.92-3.21l.76-8.18c.3-3.2 2.98-5.64 6.19-5.64h3.48c3.21 0 5.89 2.45 6.19 5.64l.76 8.18c.16 1.72-1.2 3.21-2.92 3.21ZM36.3 22.77c0 2.37-1.93 4.3-4.3 4.3s-4.3-1.93-4.3-4.3 1.93-4.3 4.3-4.3 4.3 1.93 4.3 4.3ZM15.68 60.98V30.07c0-.83-.67-1.5-1.5-1.5s-1.5.67-1.5 1.5v9.26h-.34c-1.82 0-3.24-1.56-3.08-3.37l1.26-13.66c.2-2.16 2.01-3.82 4.19-3.82h11.36c-.88 1.2-1.4 2.68-1.4 4.29 0 2.01.81 3.84 2.13 5.16a9.173 9.173 0 0 0-5.74 7.71l-.76 8.18c-.15 1.66.4 3.32 1.52 4.55.72.79 1.64 1.37 2.65 1.67v10.94h-8.82Zm35.75-21.65-1.01-9.42c-.09-.82-.84-1.42-1.65-1.33-.82.09-1.42.83-1.33 1.65l3.29 30.74H39.47V50.04c1.02-.31 1.95-.88 2.67-1.68a5.934 5.934 0 0 0 1.52-4.55l-.76-8.18a9.198 9.198 0 0 0-5.75-7.72 7.255 7.255 0 0 0 2.13-5.15c0-1.48-.45-2.86-1.21-4.02a5.85 5.85 0 0 1 1.73-.27h6.75c2.85 0 5.3 2.03 5.83 4.84l2.27 12.08a3.317 3.317 0 0 1-3.23 3.93Z" style="stroke-width:0"/>
</svg>
