<svg xmlns="http://www.w3.org/2000/svg" data-name="Layer 1" viewBox="0 0 64 64">
  <path d="M63.8 25.52v-.02c.04-.13.05-.26.06-.39v-.09c0-.13-.02-.27-.07-.4-.04-.14-.11-.26-.19-.37-.02-.02-.03-.05-.05-.07-.08-.11-.17-.21-.28-.29-.11-.08-.22-.14-.35-.19-.02 0-.05-.02-.07-.03-.13-.04-.26-.07-.4-.08h-.02l-21.44-1.03-7.6-20.07v-.02c-.05-.13-.12-.24-.2-.35a.18.18 0 0 1-.05-.07c-.08-.1-.17-.18-.27-.26l-.02-.02c-.11-.07-.23-.13-.36-.17l-.09-.03a1.336 1.336 0 0 0-.8 0c-.03 0-.06.02-.09.03-.13.04-.25.1-.36.17l-.02.02c-.1.07-.19.16-.27.26a.18.18 0 0 0-.05.07c-.08.11-.15.22-.2.35v.02l-7.6 20.07-21.44 1.03h-.02c-.13 0-.27.04-.39.08-.03 0-.05.02-.08.03-.12.05-.23.11-.33.18 0 0-.01 0-.02.01-.1.08-.19.18-.28.28-.02.02-.04.05-.05.07-.07.11-.14.23-.18.37-.04.13-.06.27-.07.4v.09c0 .13.02.27.06.39v.02c.04.12.09.23.16.34.02.02.03.05.05.07.08.11.17.21.27.3l.01.01 16.74 13.43-5.65 20.71v.02c-.03.13-.05.26-.05.4v.09c0 .12.03.25.07.37v.03c.04.12.11.24.19.35.02.02.03.05.05.07.08.11.18.21.29.29.13.09.27.16.41.21.07.02.15.03.22.04.08.01.15.03.23.04h.02c.13 0 .26-.02.38-.05.03 0 .06-.02.09-.03.1-.03.2-.08.3-.14.02-.01.04-.01.06-.03L32 50.26l17.95 11.77.06.03c.09.05.17.09.27.12.04.01.07.03.11.04.13.03.26.06.39.06.15 0 .31-.02.46-.07.15-.05.29-.12.42-.21.11-.08.21-.18.29-.29.02-.02.04-.05.05-.07.08-.11.14-.23.19-.35v-.03c.04-.12.06-.24.07-.36v-.09c0-.13-.01-.27-.05-.4v-.02l-5.65-20.71L63.3 26.25l.01-.01c.11-.09.19-.19.27-.3.02-.02.03-.05.05-.07.07-.11.12-.22.16-.34Zm-40.49.01 4.76 6.55-18.19-5.91 13.43-.64ZM33.5 11.2l4.76 12.57-4.76 6.55V11.2Zm-3 19.12-4.76-6.55L30.5 11.2v19.12Zm0 17.34-11.24 7.37L30.5 39.56v8.1Zm3-8.1 11.24 15.47-11.24-7.37v-8.1Zm7.19-14.02 13.43.64-18.19 5.91 4.76-6.55Zm-31.73 3.5 18.19 5.91-7.7 2.5-10.48-8.41Zm11.41 11.27 7.7-2.5-11.24 15.47 3.54-12.97Zm26.8 12.97L35.93 37.81l7.7 2.5 3.54 12.97Zm-2.61-15.82-7.7-2.5 18.19-5.91-10.48 8.41Z" style="stroke-width:0"/>
</svg>
