<svg xmlns="http://www.w3.org/2000/svg" data-name="Layer 1" viewBox="0 0 64 64">
  <path d="m63.72 32.27-7.95-11.41c-.2-.28-.49-.49-.82-.58l-14.82-4.24a1.43 1.43 0 0 0-.82 0l-12.99 3.72v-8.81C26.32 4.94 21.43.06 15.43.06h-2.04C7.38.05 2.5 4.94 2.5 10.94v50.47c0 .83.67 1.5 1.5 1.5h54.65c.83 0 1.5-.67 1.5-1.5V36.73l3.23-2.4c.65-.48.8-1.4.34-2.06ZM13.39 3.05h2.04c3.84 0 7.05 2.75 7.75 6.39H5.64c.7-3.64 3.91-6.39 7.75-6.39ZM5.5 12.44h17.82v8.93l-7.59 10.9c-.46.67-.31 1.58.34 2.06l3.23 2.4v23.18H5.5V12.44Zm34.22 40.81 7.35 6.67h-14.7l7.35-6.67Zm9.73 4.78-7.5-6.81 7.5-6.81v13.61Zm-9.73-8.83-7.35-6.67h14.7l-7.35 6.67Zm-2.23 2.03-7.5 6.81V44.43l7.5 6.81Zm19.66 8.69h-4.69V41.03c0-.16-.03-.31-.08-.45 0-.02-.01-.04-.02-.07-.06-.17-.16-.32-.27-.46 0 0-.01-.02-.02-.03 0 0-.01 0-.02-.01-.12-.13-.27-.24-.44-.32-.01 0-.03-.02-.04-.02-.16-.07-.33-.11-.51-.12H28.37c-.18.01-.35.05-.5.12-.01 0-.03.02-.04.02-.16.08-.31.19-.44.32 0 0-.01 0-.02.01 0 0-.01.02-.02.03-.12.13-.21.29-.27.46 0 .02-.01.04-.02.07-.05.14-.08.29-.08.45v18.89h-4.69V36.43L28.36 27l11.35-3.51L51.06 27l6.07 9.43v23.49Zm1.89-26.1-5.74-8.91c-.19-.3-.48-.52-.82-.62l-12.32-3.81a1.5 1.5 0 0 0-.89 0l-12.32 3.81c-.34.1-.63.32-.82.62l-5.74 8.91-1.38-1.03 6.81-9.78 13.89-3.97 13.89 3.97 6.81 9.78-1.38 1.03Zm-14.35-6.23h-9.94c-.83 0-1.5.67-1.5 1.5v6.09c0 .83.67 1.5 1.5 1.5h9.94c.83 0 1.5-.67 1.5-1.5v-6.09c0-.83-.67-1.5-1.5-1.5Zm-1.5 6.09h-6.94v-3.09h6.94v3.09Z" style="stroke-width:0"/>
</svg>
