<svg xmlns="http://www.w3.org/2000/svg" data-name="Layer 1" viewBox="0 0 64 64">
  <path d="M63.72 22.68 53.08 7.4c-.2-.28-.49-.49-.82-.58L32.41 1.14a1.43 1.43 0 0 0-.82 0L11.75 6.82c-.33.09-.62.3-.82.58L.28 22.68c-.46.67-.31 1.58.34 2.06l4.53 3.37v33.31c0 .83.67 1.5 1.5 1.5h50.69c.83 0 1.5-.67 1.5-1.5V28.11l4.53-3.37c.65-.48.8-1.4.34-2.06ZM45.55 58.03 34.24 47.77l11.31-10.26v20.53Zm-2.39 1.89H20.84L32 49.79l11.16 10.13ZM32 45.74 20.84 35.61h22.32L32 45.74Zm-2.23 2.03L18.46 58.03V37.5l11.31 10.26Zm26.08 12.15h-7.3v-25.8c0-.16-.03-.31-.08-.45 0-.02-.01-.04-.02-.07-.06-.17-.16-.32-.27-.46 0 0-.01-.02-.02-.03 0 0-.01 0-.02-.01-.12-.13-.27-.24-.44-.32-.01 0-.03-.02-.04-.02-.16-.07-.33-.11-.5-.12H16.85c-.18.01-.35.05-.5.12-.01 0-.03.02-.04.02-.16.08-.31.19-.44.32 0 0-.01 0-.02.01 0 0-.01.02-.02.03-.12.13-.21.29-.27.45 0 .02-.01.04-.02.07-.05.14-.08.29-.08.45v25.8h-7.3V27.8l8.31-12.91L32 10.08l15.53 4.8 8.31 12.91v32.12Zm1.89-34.72-7.98-12.39c-.19-.3-.48-.52-.82-.62l-16.5-5.1c-.14-.04-.29-.07-.44-.07s-.3.02-.44.07l-16.5 5.1c-.34.1-.63.32-.82.62L6.26 25.2l-2.68-2 9.51-13.65 18.92-5.41 18.92 5.41 9.51 13.65-2.68 2Zm-19.08-8.57H25.35c-.83 0-1.5.67-1.5 1.5v8.16c0 .83.67 1.5 1.5 1.5h13.31c.83 0 1.5-.67 1.5-1.5v-8.16c0-.83-.67-1.5-1.5-1.5Zm-1.5 8.16H26.85v-5.16h10.31v5.16Z" style="stroke-width:0"/>
</svg>
