<svg xmlns="http://www.w3.org/2000/svg" data-name="Layer 1" viewBox="0 0 64 64">
  <path d="M3.91 55.16c-.5 0-1-.11-1.48-.35C.95 54.08 0 52.35 0 50.4V13.6c0-1.95.95-3.68 2.44-4.41 1.18-.58 2.53-.43 3.61.41L29.73 28c1.12.87 1.79 2.37 1.79 4s-.67 3.13-1.79 4L6.04 54.4c-.64.5-1.38.75-2.13.75Zm0-43.31a.42.42 0 0 0-.16.04c-.38.18-.76.83-.76 1.71v36.8c0 .88.38 1.53.76 1.71.11.05.23.09.45-.08l23.68-18.4c.38-.3.63-.94.63-1.63s-.25-1.34-.63-1.63S4.2 11.97 4.2 11.97c-.12-.09-.21-.12-.29-.12Zm32.61 43.31c-.5 0-1-.11-1.48-.35-1.48-.72-2.44-2.46-2.44-4.41V13.6c0-1.95.96-3.68 2.44-4.41 1.18-.58 2.53-.43 3.61.41L62.33 28c1.12.87 1.79 2.37 1.79 4s-.67 3.13-1.79 4L38.65 54.4c-.64.5-1.38.75-2.13.75Zm0-43.31a.42.42 0 0 0-.16.04c-.38.18-.76.83-.76 1.71v36.8c0 .88.38 1.53.76 1.71.11.05.23.09.45-.08l23.68-18.4c.38-.3.63-.94.63-1.63s-.25-1.34-.63-1.63-23.68-18.4-23.68-18.4c-.12-.09-.21-.12-.29-.12Z" style="stroke-width:0"/>
</svg>
