<svg xmlns="http://www.w3.org/2000/svg" data-name="Layer 1" viewBox="0 0 64 64">
  <path d="M63.74 8.5c0-.83-.67-1.5-1.5-1.5H1.76c-.83 0-1.5.67-1.5 1.5v47c0 .83.67 1.5 1.5 1.5h45.47c.39 0 .77-.15 1.06-.44L63.3 41.55c.29-.29.43-.67.43-1.06h.01V8.5ZM47.23 38.99c-.83 0-1.5.67-1.5 1.5V54H3.26V10h57.49v28.99H47.24Zm1.5 12.89v-9.89h9.89l-9.89 9.89Zm6.12-37.75H9.15c-.83 0-1.5.67-1.5 1.5V48.2c0 .83.67 1.5 1.5 1.5h30.46c.83 0 1.5-.67 1.5-1.5V33.41h13.73c.83 0 1.5-.67 1.5-1.5V15.63c0-.83-.67-1.5-1.5-1.5Zm-1.5 8.14H41.12v-5.14h12.23v5.14ZM38.12 38.56H25.89v-5.14h12.23v5.14Zm-15.23-8.14H10.66v-5.14h12.23v5.14Zm-12.23 3h12.23v5.14H10.66v-5.14Zm15.23-3v-5.14h12.23v5.14H25.89Zm12.23-8.14H25.89v-5.14h12.23v5.14Zm-27.46-5.14h12.23v5.14H10.66v-5.14Zm0 24.43h12.23v5.14H10.66v-5.14Zm27.46 5.14H25.89v-5.14h12.23v5.14Zm15.23-16.29H41.12v-5.14h12.23v5.14Z" style="stroke-width:0"/>
</svg>
