<svg xmlns="http://www.w3.org/2000/svg" data-name="Layer 1" viewBox="0 0 64 64">
  <path d="M57.11 14.01h-5.4V8.56c0-.83-.67-1.5-1.5-1.5h-5.4V1.61c0-.83-.67-1.5-1.5-1.5H6.89c-.83 0-1.5.67-1.5 1.5v46.87c0 .83.67 1.5 1.5 1.5h5.39v5.45c0 .83.68 1.5 1.5 1.5h5.4v5.45c0 .83.67 1.5 1.5 1.5h36.43c.83 0 1.5-.67 1.5-1.5V15.51c0-.83-.67-1.5-1.5-1.5ZM15.28 49.98h28.03c.83 0 1.5-.67 1.5-1.5V10.06h3.9v43.87H15.28v-3.95ZM8.39 3.11h33.42v43.87H8.39V3.11Zm47.22 57.77H22.18v-3.95h28.03c.83 0 1.5-.67 1.5-1.5V17.01h3.9v43.87ZM14.28 11.95c0-.65.42-1.21 1-1.41.16-.06.32-.09.5-.09h18.64c.83 0 1.5.67 1.5 1.5s-.67 1.5-1.5 1.5H15.78c-.18 0-.34-.03-.5-.09-.58-.2-1-.76-1-1.41Zm0 6.57c0-.65.42-1.21 1-1.41.16-.06.32-.09.5-.09h18.64c.38 0 .73.14.99.38.31.27.51.67.51 1.12 0 .82-.67 1.5-1.5 1.5H15.78c-.18 0-.34-.03-.5-.09-.58-.2-1-.76-1-1.41Zm0 6.56c0-.65.42-1.21 1-1.41.16-.06.32-.09.5-.09h18.64c.39 0 .74.15 1 .39.13.1.23.24.3.38.13.22.2.46.2.73 0 .83-.67 1.5-1.5 1.5H15.78c-.18 0-.34-.03-.5-.09-.58-.2-1-.76-1-1.41Zm0 6.56c0-.65.42-1.21 1-1.41.16-.06.32-.09.5-.09h18.64c.39 0 .74.15 1 .39.13.11.24.24.3.39.13.21.2.46.2.72 0 .83-.67 1.5-1.5 1.5H15.78c-.18 0-.34-.03-.5-.09-.58-.2-1-.76-1-1.41Zm0 6.46c0-.65.42-1.21 1-1.41.16-.06.32-.09.5-.09h6.25c.05 0 .1 0 .15.02.38.03.71.2.95.47.25.26.4.62.4 1.01 0 .77-.59 1.41-1.35 1.49-.05.01-.1.01-.15.01h-6.25c-.18 0-.34-.03-.5-.09-.58-.2-1-.76-1-1.41Z" style="stroke-width:0"/>
</svg>
