<svg xmlns="http://www.w3.org/2000/svg" data-name="Layer 1" viewBox="0 0 64 64">
  <path d="M23.28 15.1c0-.83.67-1.5 1.5-1.5h13.75c.83 0 1.5.67 1.5 1.5s-.67 1.5-1.5 1.5H24.78c-.83 0-1.5-.67-1.5-1.5Zm-8.8 8.27h24.06c.83 0 1.5-.67 1.5-1.5s-.67-1.5-1.5-1.5H14.47c-.83 0-1.5.67-1.5 1.5s.67 1.5 1.5 1.5Zm0 6.77h24.06c.83 0 1.5-.67 1.5-1.5s-.67-1.5-1.5-1.5H14.47c-.83 0-1.5.67-1.5 1.5s.67 1.5 1.5 1.5Zm25.56 5.27c0-.83-.67-1.5-1.5-1.5H14.47c-.83 0-1.5.67-1.5 1.5s.67 1.5 1.5 1.5h24.06c.83 0 1.5-.67 1.5-1.5Zm22.03-4.16-5.28 5.28-5.28 5.27v20.44c0 .83-.67 1.5-1.5 1.5H21.19c-.39 0-.77-.15-1.06-.44L1.94 45.12c-.29-.29-.42-.67-.43-1.06H1.5V1.76c0-.83.67-1.5 1.5-1.5h47.01c.83 0 1.5.67 1.5 1.5V27l3.15-3.15a1.499 1.499 0 0 1 2.12 0l5.28 5.28c.59.59.59 1.54 0 2.12ZM19.69 45.56H6.62l13.07 13.07V45.56Zm28.82-.75-8.31 8.31c-.16.16-.34.27-.55.35l-8.3 3.02a1.491 1.491 0 0 1-1.57-.35 1.5 1.5 0 0 1-.35-1.57l3.02-8.3c.07-.21.19-.39.35-.55L48.52 30V3.26H4.5v39.3h16.69c.83 0 1.5.67 1.5 1.5v16.69h25.82V44.81Zm5.09-9.34-3.16-3.16L35.15 47.6l-1.8 4.97 4.97-1.8 15.29-15.29Zm5.28-5.28-3.16-3.16-3.16 3.16 3.16 3.16 3.16-3.16ZM16.03 18.57h-2.08l2.78-7.92h2.47l2.77 7.92h-2.12l-.55-1.79h-2.71l-.56 1.79Zm.95-3.19h1.94l-.97-3.2-.97 3.2Z" style="stroke-width:0"/>
</svg>
