<svg xmlns="http://www.w3.org/2000/svg" data-name="Layer 1" viewBox="0 0 64 64">
  <path d="M52.05 58.13v2.69H26.08V44.04c0-.83-.67-1.5-1.5-1.5H7.79V3.02h44.26v32.85h2.01c.34 0 .67.03.99.09V1.52c0-.83-.68-1.5-1.5-1.5H6.29c-.82 0-1.5.67-1.5 1.5v42.52h.02c0 .39.14.77.43 1.06l18.28 18.28c.29.29.67.44 1.06.44h28.97c.82 0 1.5-.67 1.5-1.5v-4.28c-.32.06-.65.09-.99.09h-2.01Zm-28.97.57L9.92 45.54h13.16V58.7Zm31.97-22.23c-.32-.07-.65-.1-.99-.1H35.09c-2.92 0-5.29 2.37-5.29 5.29v10.69c0 2.92 2.37 5.28 5.29 5.28h18.97c.34 0 .67-.03.99-.1 2.45-.45 4.3-2.6 4.3-5.18V41.66c0-2.58-1.85-4.73-4.3-5.19ZM39.79 47.25c-.25.4-.62.71-1.09.92-.48.22-1.06.32-1.74.32h-1.49v2.47h-2.44v-7.92h3.93c.68 0 1.26.11 1.74.32.47.21.84.52 1.09.93.25.4.38.89.38 1.48s-.13 1.08-.38 1.48Zm7.96 2.68c-.65.69-1.59 1.03-2.83 1.03h-3.64v-7.92h3.64c1.24 0 2.18.35 2.83 1.04.65.68.97 1.66.97 2.92s-.32 2.23-.97 2.93Zm8.51-5.05h-3.93v1.38h3.15v1.84h-3.15v2.86h-2.44v-7.92h6.37v1.84ZM43.51 14.93c0 .83-.67 1.5-1.5 1.5H17.83c-.83 0-1.5-.67-1.5-1.5s.67-1.5 1.5-1.5h24.18c.83 0 1.5.67 1.5 1.5Zm0 6.8c0 .83-.67 1.5-1.5 1.5H17.83c-.83 0-1.5-.67-1.5-1.5s.67-1.5 1.5-1.5h24.18c.83 0 1.5.67 1.5 1.5Zm-1.5 8.31H17.83c-.83 0-1.5-.67-1.5-1.5s.67-1.5 1.5-1.5h24.18c.83 0 1.5.67 1.5 1.5s-.67 1.5-1.5 1.5Zm-16.07 3.81c.83 0 1.5.67 1.5 1.5s-.67 1.5-1.5 1.5h-8.11c-.83 0-1.5-.67-1.5-1.5s.67-1.5 1.5-1.5h8.11Zm19.91 11.52c.24.35.35.9.35 1.63s-.11 1.29-.35 1.64c-.23.36-.64.54-1.23.54h-.89v-4.35h.89c.59 0 1 .18 1.23.54Zm-8.44-.32c.2.16.3.4.3.72s-.1.56-.3.71c-.2.16-.48.24-.84.24h-1.1v-1.9h1.1c.36 0 .64.08.84.23Z" style="stroke-width:0"/>
</svg>
