<svg xmlns="http://www.w3.org/2000/svg" data-name="Layer 1" viewBox="0 0 64 64">
  <path d="M54.05 55.33v5.49H28.08V44.04c0-.83-.67-1.5-1.5-1.5H9.79V3.02h44.26v35.65c1.21.77 2.23 1.81 3 3.02V1.52c0-.83-.68-1.5-1.5-1.5H8.29c-.82 0-1.5.67-1.5 1.5v42.52h.02c0 .39.14.77.43 1.06l18.28 18.28c.29.29.67.44 1.06.44h28.97c.82 0 1.5-.67 1.5-1.5V52.31a9.824 9.824 0 0 1-3 3.02ZM25.08 58.7 11.92 45.54h13.16V58.7Zm31.97-16.01a9.422 9.422 0 0 0-3-3.42 9.382 9.382 0 0 0-5.37-1.69c-5.2 0-9.42 4.23-9.42 9.42s4.22 9.42 9.42 9.42c1.99 0 3.85-.62 5.37-1.69a9.33 9.33 0 0 0 3-3.42c.67-1.29 1.05-2.76 1.05-4.31s-.38-3.02-1.05-4.31Zm-2.58 5.17c-.13.12-.27.22-.42.29-.2.1-.42.15-.64.15-.39 0-.77-.15-1.06-.44l-2.17-2.17v7.02c0 .83-.67 1.5-1.5 1.5s-1.5-.67-1.5-1.5v-7.02l-2.17 2.17c-.58.59-1.53.59-2.12 0-.58-.59-.58-1.54 0-2.12l4.73-4.73c.56-.56 1.56-.56 2.12 0l4.73 4.73c.58.58.58 1.53 0 2.12Zm-8.96-32.93c0 .83-.67 1.5-1.5 1.5H19.83c-.83 0-1.5-.67-1.5-1.5s.67-1.5 1.5-1.5h24.18c.83 0 1.5.67 1.5 1.5Zm0 6.8c0 .83-.67 1.5-1.5 1.5H19.83c-.83 0-1.5-.67-1.5-1.5s.67-1.5 1.5-1.5h24.18c.83 0 1.5.67 1.5 1.5Zm-1.5 8.31H19.83c-.83 0-1.5-.67-1.5-1.5s.67-1.5 1.5-1.5h24.18c.83 0 1.5.67 1.5 1.5s-.67 1.5-1.5 1.5Zm-16.07 3.81c.83 0 1.5.67 1.5 1.5s-.67 1.5-1.5 1.5h-8.11c-.83 0-1.5-.67-1.5-1.5s.67-1.5 1.5-1.5h8.11Z" style="stroke-width:0"/>
</svg>
