<svg xmlns="http://www.w3.org/2000/svg" data-name="Layer 1" viewBox="0 0 64 64">
  <path d="M55.5.26h-47C7.67.26 7 .93 7 1.76v42.3h.01c0 .39.14.77.43 1.06l18.19 18.19c.29.29.67.44 1.06.44h28.82c.83 0 1.5-.67 1.5-1.5V1.76c0-.83-.67-1.5-1.5-1.5ZM25.18 58.63 12.11 45.56h13.07v13.07ZM54 60.75H28.18V44.06c0-.83-.67-1.5-1.5-1.5H10V3.26h44.01v57.49ZM18.47 15.1c0-.83.67-1.5 1.5-1.5h24.06c.83 0 1.5.67 1.5 1.5s-.67 1.5-1.5 1.5H19.97c-.83 0-1.5-.67-1.5-1.5Zm0 6.77c0-.83.67-1.5 1.5-1.5h24.06c.83 0 1.5.67 1.5 1.5s-.67 1.5-1.5 1.5H19.97c-.83 0-1.5-.67-1.5-1.5Zm0 6.77c0-.83.67-1.5 1.5-1.5h24.06c.83 0 1.5.67 1.5 1.5s-.67 1.5-1.5 1.5H19.97c-.83 0-1.5-.67-1.5-1.5Zm0 6.77c0-.83.67-1.5 1.5-1.5h24.06c.83 0 1.5.67 1.5 1.5s-.67 1.5-1.5 1.5H19.97c-.83 0-1.5-.67-1.5-1.5Z" style="stroke-width:0"/>
</svg>
