<svg xmlns="http://www.w3.org/2000/svg" data-name="Layer 1" viewBox="0 0 64 64">
  <path d="M53.61 55.41v5.49H27.64V44.12c0-.83-.67-1.5-1.5-1.5H9.34V3.1H53.6v35.65c1.21.77 2.23 1.81 3 3.02V1.6c0-.83-.68-1.5-1.5-1.5H7.84c-.82 0-1.5.67-1.5 1.5v42.52h.02c0 .39.14.77.43 1.06l18.28 18.28c.29.29.67.44 1.06.44H55.1c.82 0 1.5-.67 1.5-1.5V52.39a9.824 9.824 0 0 1-3 3.02Zm-28.97 3.37L11.48 45.62h13.16v13.16Zm15.23-7.39a9.422 9.422 0 0 0 3 3.42 9.382 9.382 0 0 0 5.37 1.69c5.2 0 9.42-4.23 9.42-9.42 0-5.2-4.22-9.42-9.42-9.42-1.99 0-3.85.62-5.37 1.69a9.33 9.33 0 0 0-3 3.42 9.338 9.338 0 0 0-1.05 4.31c0 1.55.38 3.02 1.05 4.31Zm2.58-5.17c.13-.12.27-.22.42-.29.2-.1.42-.15.64-.15.39 0 .77.15 1.06.44l2.17 2.17v-7.02c0-.83.67-1.5 1.5-1.5s1.5.67 1.5 1.5v7.02l2.17-2.17a1.49 1.49 0 0 1 2.12 0c.58.59.58 1.54 0 2.12l-4.73 4.73c-.56.56-1.56.56-2.12 0l-4.73-4.73c-.58-.58-.58-1.53 0-2.12Zm2.62-31.21c0 .83-.67 1.5-1.5 1.5H19.39c-.83 0-1.5-.67-1.5-1.5s.67-1.5 1.5-1.5h24.18c.83 0 1.5.67 1.5 1.5Zm0 6.8c0 .83-.67 1.5-1.5 1.5H19.39c-.83 0-1.5-.67-1.5-1.5s.67-1.5 1.5-1.5h24.18c.83 0 1.5.67 1.5 1.5Zm-1.5 8.31H19.39c-.83 0-1.5-.67-1.5-1.5s.67-1.5 1.5-1.5h24.18c.83 0 1.5.67 1.5 1.5s-.67 1.5-1.5 1.5ZM27.5 33.93c.83 0 1.5.67 1.5 1.5s-.67 1.5-1.5 1.5h-8.11c-.83 0-1.5-.67-1.5-1.5s.67-1.5 1.5-1.5h8.11Z" style="stroke-width:0"/>
</svg>
