<svg xmlns="http://www.w3.org/2000/svg" data-name="Layer 1" viewBox="0 0 64 64">
  <path d="M19.07 14.2c0-.83.67-1.5 1.5-1.5h22.86c.83 0 1.5.67 1.5 1.5s-.67 1.5-1.5 1.5H20.57c-.83 0-1.5-.67-1.5-1.5Zm1.5 7.93h22.86c.83 0 1.5-.67 1.5-1.5s-.67-1.5-1.5-1.5H20.57c-.83 0-1.5.67-1.5 1.5s.67 1.5 1.5 1.5Zm0 6.43h22.86c.83 0 1.5-.67 1.5-1.5s-.67-1.5-1.5-1.5H20.57c-.83 0-1.5.67-1.5 1.5s.67 1.5 1.5 1.5Zm0 6.43h7.67c.83 0 1.5-.67 1.5-1.5s-.67-1.5-1.5-1.5h-7.67c-.83 0-1.5.67-1.5 1.5s.67 1.5 1.5 1.5ZM55.83 1.52V59c0 .83-.67 1.5-1.5 1.5h-6.57v1.95c0 .55-.3 1.06-.78 1.32a1.532 1.532 0 0 1-1.54-.06l-4.82-3.12-4.82 3.12a1.5 1.5 0 0 1-1.53.06c-.48-.26-.78-.77-.78-1.32V60.5h-6.55c-.39 0-.77-.15-1.06-.44L8.6 42.78c-.29-.29-.42-.67-.43-1.06h-.01V1.52c.01-.83.68-1.5 1.51-1.5h44.67c.83 0 1.5.67 1.5 1.5ZM25.45 43.21H13.29l12.16 12.16V43.21Zm22.27-1.11c0-3.91-3.18-7.09-7.09-7.09s-7.09 3.18-7.09 7.09 3.18 7.09 7.09 7.09 7.09-3.18 7.09-7.09Zm-2.96 17.58v-8.77c-1.26.59-2.65.93-4.13.93s-2.88-.34-4.13-.93v8.77l3.32-2.15c.5-.32 1.14-.32 1.63 0l3.32 2.15Zm8.07-56.66H11.17v37.19h15.78c.83 0 1.5.67 1.5 1.5v15.78h5.05v-8.78a9.673 9.673 0 0 1-2.61-6.62c0-5.37 4.37-9.75 9.75-9.75s9.75 4.37 9.75 9.75c0 2.56-1 4.88-2.61 6.62v8.78h5.07V3.02Z" style="stroke-width:0"/>
</svg>
