<svg xmlns="http://www.w3.org/2000/svg" data-name="Layer 1" viewBox="0 0 64 64">
  <path d="M47.98 34.81c0 .42-.17.79-.44 1.06h-5.93a1.498 1.498 0 0 1 1.06-2.56h3.81c.83 0 1.5.67 1.5 1.5Zm-5.31 24.32h3.81c.65 0 1.21-.42 1.41-1h-6.63c.2.58.76 1 1.41 1Zm5.31-35.73c0-.83-.67-1.5-1.5-1.5h-3.81c-.83 0-1.5.67-1.5 1.5s.67 1.5 1.5 1.5h3.81c.83 0 1.5-.67 1.5-1.5Zm0 5.71c0-.83-.67-1.5-1.5-1.5h-3.81c-.83 0-1.5.67-1.5 1.5s.67 1.5 1.5 1.5h3.81c.83 0 1.5-.67 1.5-1.5Zm5.75 6.76V3.25h-4.11c.23.45.41.93.49 1.45l1.35 8.1c.29 1.8-.23 3.65-1.43 5.07-1.33 1.57-3.32 2.46-5.45 2.46s-4.12-.89-5.45-2.46c-1.21-1.42-1.73-3.27-1.43-5.07l1.34-8.1c.09-.52.27-1 .49-1.45H9.72v39.3h16.69c.83 0 1.5.68 1.5 1.5v16.69h25.82v-2.61h.33c.96 0 1.87-.24 2.67-.66v4.77c0 .83-.67 1.5-1.5 1.5H26.41c-.39 0-.77-.15-1.06-.44L7.16 45.11c-.28-.28-.42-.67-.42-1.06h-.02V1.75c0-.82.67-1.5 1.5-1.5h36.12c.08 0 .16-.02.24-.02s.15.02.23.02h10.42c.83 0 1.5.68 1.5 1.5v34.78c-.8-.42-1.71-.66-2.67-.66h-.33Zm-41.89 9.68 13.07 13.07V45.55H11.84ZM48.5 13.29l-1.35-8.1c-.17-1.04-1.15-1.84-2.33-1.94h-.49c-1.17.1-2.16.9-2.33 1.94l-1.34 8.1c-.16.94.11 1.88.76 2.64.75.89 1.91 1.4 3.16 1.4s2.4-.51 3.16-1.4c.64-.76.91-1.7.76-2.64Zm-5.42.17v.97c0 .83.67 1.5 1.5 1.5s1.5-.67 1.5-1.5v-.97c0-.83-.67-1.5-1.5-1.5s-1.5.67-1.5 1.5Zm.5-8.13v4.1c0 .55.45 1 1 1s1-.45 1-1v-4.1c0-.55-.45-1-1-1s-1 .45-1 1Zm15.77 36.33v10.69a5.24 5.24 0 0 1-2.62 4.55c-.78.47-1.7.73-2.67.73H35.09c-2.92 0-5.29-2.36-5.29-5.28V41.66c0-2.92 2.37-5.29 5.29-5.29h18.97c.97 0 1.89.26 2.67.73 1.57.91 2.62 2.61 2.62 4.56ZM41.34 49.2H37l4.21-4.41v-1.72h-6.8v1.79h4.16l-4.22 4.41v1.72h6.99V49.2Zm4.15-6.13h-2.45v7.92h2.45v-7.92Zm9.3 2.72c0-.58-.13-1.07-.38-1.48-.17-.28-.4-.51-.68-.69-.12-.09-.26-.16-.41-.23-.48-.21-1.05-.32-1.73-.32h-3.94v7.92h2.45v-2.47h1.49c.68 0 1.25-.11 1.73-.32.15-.07.29-.14.41-.23.28-.18.51-.42.68-.7.25-.4.38-.89.38-1.48Zm-2.76-.71c-.2-.16-.48-.23-.84-.23H50.1v1.89h1.09c.36 0 .64-.08.84-.23.2-.16.3-.4.3-.72s-.1-.55-.3-.71Z" style="stroke-width:0"/>
</svg>
