<svg xmlns="http://www.w3.org/2000/svg" data-name="Layer 1" viewBox="0 0 64 64">
  <path d="M60.63 10.91c.83 0 1.5-.67 1.5-1.5V4.36c0-.83-.67-1.5-1.5-1.5H3.38c-.83 0-1.5.67-1.5 1.5v5.05c0 .83.67 1.5 1.5 1.5h.68v31.52h-.68c-.83 0-1.5.67-1.5 1.5v5.05c0 .83.67 1.5 1.5 1.5h27.13v1.76l-7.14 6.27c-.62.55-.68 1.49-.14 2.12a1.506 1.506 0 0 0 2.12.14l5.16-4.53v3.4c0 .83.67 1.5 1.5 1.5s1.5-.67 1.5-1.5v-3.4l5.16 4.53c.28.25.64.37.99.37.42 0 .83-.17 1.13-.51.55-.62.48-1.57-.14-2.12l-7.14-6.27v-1.76h27.12c.83 0 1.5-.67 1.5-1.5v-5.05c0-.83-.67-1.5-1.5-1.5h-.68V10.91h.68Zm-1.5 36.57H4.88v-2.05h54.25v2.05ZM7.06 42.43V10.92h49.89v31.52H7.06ZM4.88 5.87h54.25v2.05H4.88V5.87Zm23.3 27.62c0 .83-.67 1.5-1.5 1.5H12.54c-.83 0-1.5-.67-1.5-1.5s.67-1.5 1.5-1.5h.63V19.88c0-.83.67-1.5 1.5-1.5s1.5.67 1.5 1.5v12.11h1.95v-6.83c0-.83.67-1.5 1.5-1.5s1.5.67 1.5 1.5v6.83h1.95v-3.38c0-.83.67-1.5 1.5-1.5s1.5.67 1.5 1.5v3.38h.63c.83 0 1.5.67 1.5 1.5Zm24.03-13.61c0 .83-.67 1.5-1.5 1.5H36.33c-.83 0-1.5-.67-1.5-1.5s.67-1.5 1.5-1.5h14.38c.83 0 1.5.67 1.5 1.5Zm0 6.8c0 .83-.67 1.5-1.5 1.5H36.33c-.83 0-1.5-.67-1.5-1.5s.67-1.5 1.5-1.5h14.38c.83 0 1.5.67 1.5 1.5Zm0 6.81c0 .83-.67 1.5-1.5 1.5H36.33c-.83 0-1.5-.67-1.5-1.5s.67-1.5 1.5-1.5h14.38c.83 0 1.5.67 1.5 1.5Z" style="stroke-width:0"/>
</svg>
