<svg xmlns="http://www.w3.org/2000/svg" data-name="Layer 1" viewBox="0 0 64 64">
  <path d="M12.24 59.32a1.502 1.502 0 0 1-1.13-2.49c9.45-10.84 14.66-20.15 18.47-26.94 4.07-7.27 6.53-11.66 10.9-10.83 1.71.33 3.04 1.38 3.73 2.96 1.44 3.27.18 8.39-3.54 14.43a1.497 1.497 0 0 1-2.55-1.57c3.65-5.91 4.12-9.89 3.35-11.65-.3-.69-.8-1.08-1.55-1.22-2.15-.41-4.02 2.75-7.71 9.35-3.87 6.91-9.17 16.38-18.82 27.45-.3.34-.71.51-1.13.51Zm10.06 3.2c5.41-6.08 10.87-13.42 15.79-21.24.44-.7.23-1.63-.47-2.07-.7-.44-1.63-.23-2.07.47-4.83 7.68-10.19 14.89-15.49 20.84-.55.62-.5 1.57.12 2.12.29.25.64.38 1 .38.41 0 .82-.17 1.12-.5ZM7.12 51.45c3.52-3.86 6.51-7.88 10-13.45.44-.7.23-1.63-.48-2.07-.7-.44-1.63-.23-2.07.48-3.39 5.41-6.28 9.3-9.67 13.02-.56.61-.52 1.56.1 2.12.29.26.65.39 1.01.39.41 0 .81-.16 1.11-.49Zm12.81-18.49 1.17-1.82c5.06-7.89 11.35-17.71 17.4-18.86 2.9-.55 5.91.16 8.05 1.9 2.02 1.65 3.12 4.06 3.16 6.97 0 .62.11 1.68.12 1.79l2.99-.28s-.1-1.02-.1-1.56c-.06-3.77-1.57-7.06-4.27-9.25-2.82-2.3-6.74-3.24-10.5-2.52-7.32 1.39-13.72 11.38-19.37 20.19l-1.17 1.82c-.45.7-.25 1.62.45 2.07.25.16.53.24.81.24.49 0 .98-.24 1.26-.69Zm12.82 30.51c11.06-11.84 19.64-26.54 20.39-34.96.07-.82-.53-1.55-1.36-1.63-.81-.08-1.55.53-1.63 1.36-.69 7.7-9.12 21.96-19.6 33.18a1.5 1.5 0 0 0 .07 2.12 1.502 1.502 0 0 0 2.12-.08ZM3.51 41.63c2.83-3.89 5.57-8.53 8.21-13.01C17.96 18.03 24.42 7.08 32.6 5c.8-.2 1.29-1.02 1.08-1.82s-1.02-1.29-1.82-1.08c-9.39 2.39-16.17 13.88-22.72 25-2.61 4.42-5.3 8.99-8.05 12.76a1.503 1.503 0 0 0 1.21 2.39c.46 0 .92-.21 1.21-.62Zm57.48-5.85c.06-.12 5.58-13.01-1.02-24.74C53.54-.41 40.63.06 40.51.06c-1.95.09-2.81.33-3.46.55-.78.27-1.21 1.12-.94 1.9s1.12 1.21 1.9.94c.35-.12.94-.32 2.64-.4.11 0 11.27-.24 16.72 9.46 5.69 10.12 1.12 21.54.98 21.87-.37.72-.1 1.6.62 1.99a1.51 1.51 0 0 0 2.04-.6ZM46.95 60.19c5.72-6.82 9.26-13.46 11.96-19.05.36-.75.05-1.64-.7-2-.75-.36-1.64-.05-2 .7-2.62 5.43-6.05 11.86-11.55 18.43-.53.63-.45 1.58.18 2.11.28.24.62.35.96.35.43 0 .85-.18 1.15-.54Z" style="stroke-width:0"/>
</svg>
