<svg xmlns="http://www.w3.org/2000/svg" data-name="Layer 1" viewBox="0 0 64 64">
  <path d="M50.6 22.44a1.495 1.495 0 0 0-2.47 1.5c.98 3.36 1.02 8.35-.4 9.76-.17.17-.56.56-1.7.22-2.05-.61-2.77-4.5-3.59-9.01C40.9 16.48 38.78 4.95 25.88.25a1.495 1.495 0 0 0-1.9 1.98c4.48 10.88.29 16.21-4.56 22.38-4.15 5.28-8.86 11.26-7.28 21.19 1.67 10.49 10.03 17.51 20.79 17.86h.25c.2 0 .39.02.6.02.69 0 1.39-.03 2.1-.08 8.96-.7 19.01-7.36 20.88-18.75.88-5.35 1.25-15.38-6.14-22.44ZM26.51 55.87c-2.13-5.83.45-15.84 5.41-22.68.06 7.31 2.78 10.11 5.22 12.62 1.85 1.91 3.46 3.55 3.78 7.3.19 2.23-.42 4.14-1.77 5.53-1.21 1.24-2.91 1.94-4.86 2.04-.14 0-.28.01-.42.02-.21 0-.42 0-.64-.01h-.14c-3.29-.23-5.51-1.84-6.59-4.81Zm27.27-11.48c-1.12 6.85-5.68 11.72-10.97 14.26.9-1.69 1.29-3.67 1.11-5.8-.42-4.81-2.65-7.11-4.62-9.13-2.66-2.74-5.17-5.32-4.14-14.67.07-.63-.26-1.23-.83-1.51a1.49 1.49 0 0 0-1.7.27c-7.57 7.3-11.83 21.17-8.93 29.1.2.56.44 1.07.71 1.56-4.9-2.57-8.36-7.19-9.31-13.12-1.37-8.64 2.54-13.61 6.68-18.87 4.51-5.74 9.17-11.65 6.17-22.01 8.56 4.7 10.2 13.65 11.54 20.99 1 5.48 1.87 10.21 5.69 11.35 2.35.7 3.84-.14 4.67-.97 1.52-1.51 2.02-4.18 2-6.84 2.9 5.46 2.55 11.69 1.94 15.4Zm-7.4-23.9a1.496 1.496 0 0 0 1.22.25c.42-.1.78-.37.99-.75 3.01-5.61-.53-10.02-3.66-13.92l-.32-.4c-.29-.37-.72-.58-1.21-.56-.47.01-.91.24-1.18.63-3.8 5.31-.51 11.37 4.16 14.75Zm-2.65-11.1c2.12 2.75 3.38 4.92 2.89 7.35-1.58-1.56-3.71-4.34-2.89-7.35ZM16.6 21.42c.14.04.29.06.43.06.35 0 .69-.12.96-.35 2.7-2.27 8.32-6.98 3.39-17.26-.22-.47-.67-.79-1.19-.84-.52-.06-1.02.16-1.34.56-3.87 4.9-5.02 10.87-3.26 16.82.14.48.52.86 1.01 1.01ZM19.71 7.7c1.46 4.5.22 7.24-1.77 9.39-.44-3.27.16-6.49 1.77-9.39Z" style="stroke-width:0"/>
</svg>
