<svg xmlns="http://www.w3.org/2000/svg" data-name="Layer 1" viewBox="0 0 64 64">
  <path d="M58.09 4.2a4.484 4.484 0 0 0-3.23-1.66l-8.74-.5a4.46 4.46 0 0 0-4.41 2.84c-2.35-.3-4.61-.49-6.74-.57v-.04h-.14C33.89 1.78 31.45.02 28.71.02c-3.2 0-5.86 2.31-6.43 5.4C7.7 9.15 5.3 21 4.92 33.29c-.03.83.62 1.52 1.45 1.55h.05c.81 0 1.47-.64 1.5-1.45.32-10.21 1.76-21.31 14.53-24.91a6.657 6.657 0 0 0 1.99 3.04c-6.58 1.86-11.42 7.91-11.42 15.08v31.58c0 3.2 2.6 5.8 5.8 5.8h19.77c3.2 0 5.8-2.6 5.8-5.8V26.6c0-7.16-4.84-13.21-11.41-15.07a6.548 6.548 0 0 0 2.23-4.21c1.88.08 3.87.25 5.93.51a4.443 4.443 0 0 0 3.28 4.8l8.46 2.25a4.482 4.482 0 0 0 3.59-.57c1.06-.69 1.78-1.8 1.98-3.05l.57-3.56c.2-1.25-.14-2.53-.93-3.51ZM28.71 3.03c1.73 0 3.22 1.28 3.48 2.97l.05.33c0 .08.01.16.01.25 0 1.96-1.59 3.55-3.55 3.55s-3.53-1.57-3.55-3.55a3.55 3.55 0 0 1 3.55-3.55Zm-12.68 41.2h25.36v4.25H16.03v-4.25Zm22.56 16.75H18.82c-1.54 0-2.8-1.25-2.8-2.8v-6.71h25.36v6.71c0 1.54-1.25 2.8-2.8 2.8Zm2.8-34.38v14.63H16.03V26.6c0-6.99 5.69-12.68 12.68-12.68s12.68 5.69 12.68 12.68ZM56.06 7.24l-.57 3.56c-.07.42-.3.77-.65 1-.35.23-.77.3-1.18.19L45.2 9.74c-.73-.2-1.2-.91-1.08-1.66l.29-1.8c.12-.72.73-1.24 1.45-1.24h.09l8.74.5c.42.02.8.22 1.06.55.26.33.37.74.31 1.16Z" style="stroke-width:0"/>
</svg>
