<svg xmlns="http://www.w3.org/2000/svg" data-name="Layer 1" viewBox="0 0 64 64">
  <path d="M62.66 29.19c-2.97-3.72-8.84-9.48-17.84-11.5l-13.3-9.27a1.502 1.502 0 0 0-2.35 1.04l-1.18 9.16c-3.6 1.29-6.67 3.24-9.85 5.52-.86-.98-1.77-1.81-2.75-2.52-5.47-3.95-13.57-2.4-13.91-2.33-.69.14-1.19.73-1.21 1.43-.02.72 1.6 8.41 6.69 12.03C1.6 36.52.28 44.66.28 44.75c0 .72.51 1.33 1.21 1.47.34.07 8.45 1.62 13.91-2.33.95-.69 1.88-1.56 2.76-2.59 3.33 2.55 6.74 5.14 11.09 6.71l.86 6.63a1.502 1.502 0 0 0 2.35 1.04l9.18-6.4c10.92-1.33 17.86-8.57 21.16-13.07 1.54-2.1 1.49-4.99-.13-7.02Zm-30.82-16.9 6.71 4.68c-.15 0-.29-.02-.44-.02-2.59 0-4.88.27-6.97.74l.7-5.41Zm.55 36.62c1.18.26 2.43.44 3.77.53l-3.39 2.37-.37-2.9Zm27.99-14.48c-3.31 4.51-10.61 12.08-22.26 12.08-8.23 0-13.1-3.73-18.25-7.68l-1.06-.81c-.26-.2-.58-.31-.91-.31-.07 0-.14 0-.22.02-.4.06-.76.27-.99.6-.97 1.32-1.99 2.37-3.04 3.13-3.14 2.27-7.66 2.23-10.02 2.02.75-2.66 2.77-7.96 7.12-9.29.63-.19 1.06-.78 1.06-1.43s-.43-1.24-1.06-1.43c-4.33-1.32-6.37-6.65-7.12-9.29 2.35-.21 6.88-.25 10.01 2.02 1.1.79 2.1 1.79 3.06 3.04.5.65 1.42.78 2.08.3 5.94-4.35 10.8-7.43 19.33-7.43 11.6 0 18.89 6.96 22.2 11.11.78.97.8 2.36.06 3.38Zm-12.33-6.9c-.95 1.33-1.49 3.22-1.49 5.2s.54 3.87 1.49 5.2a1.503 1.503 0 0 1-1.22 2.37c-.47 0-.93-.22-1.22-.63-1.32-1.85-2.04-4.32-2.04-6.94s.73-5.08 2.04-6.93c.48-.67 1.42-.83 2.09-.35s.83 1.42.35 2.09Zm-6.87 1.19c-.53 1.02-.83 2.48-.83 4.01s.3 2.99.83 4.01c.38.74.1 1.64-.64 2.02a1.492 1.492 0 0 1-2.02-.64c-.76-1.45-1.17-3.37-1.17-5.39s.42-3.94 1.17-5.39c.38-.73 1.29-1.02 2.02-.64s1.02 1.29.64 2.02ZM56.1 31.5c0 1.04-.85 1.89-1.89 1.89s-1.89-.85-1.89-1.89.85-1.89 1.89-1.89 1.89.85 1.89 1.89Z" style="stroke-width:0"/>
</svg>
