<svg xmlns="http://www.w3.org/2000/svg" data-name="Layer 1" viewBox="0 0 64 64">
  <path d="M60.29 52.37 43.24 29.78a8.419 8.419 0 0 1-1.68-5.02V3.05h1.18c.83 0 1.5-.67 1.5-1.5s-.67-1.5-1.5-1.5H21.25c-.83 0-1.5.67-1.5 1.5s.67 1.5 1.5 1.5h1.18v21.7c0 1.8-.6 3.58-1.68 5.02L3.71 52.37a7.199 7.199 0 0 0-.7 7.58 7.192 7.192 0 0 0 6.47 4.01h45.05c2.76 0 5.24-1.53 6.47-4.01a7.2 7.2 0 0 0-.7-7.58ZM23.15 31.58c1.48-1.96 2.29-4.38 2.29-6.83V3.05h13.12v3.82h-2.49c-.83 0-1.5.67-1.5 1.5s.67 1.5 1.5 1.5h2.49v3.82h-2.49c-.83 0-1.5.67-1.5 1.5s.67 1.5 1.5 1.5h2.49v3.82h-2.49c-.83 0-1.5.67-1.5 1.5s.67 1.5 1.5 1.5h2.49v1.24c0 2.45.81 4.88 2.29 6.83l5.83 7.72c-2.39 1.13-8.43-.2-13.41-1.31-4.82-1.07-9.75-2.16-13.55-1.85l3.45-4.56Zm35.16 27.03c-.73 1.47-2.15 2.34-3.79 2.34H9.48c-1.64 0-3.05-.88-3.79-2.34-.73-1.47-.58-3.12.41-4.43l10.01-13.26c.18-.1.34-.24.47-.42 1.98-2.7 9.44-1.04 16.03.42 4.28.95 8.24 1.83 11.38 1.83 1.8 0 3.33-.3 4.51-1.03l9.4 12.46c.99 1.31 1.14 2.97.41 4.43Z" style="stroke-width:0"/>
</svg>
