<svg xmlns="http://www.w3.org/2000/svg" data-name="Layer 1" viewBox="0 0 64 64">
  <path d="M53.75 53.75c-.29-.37-.73-.58-1.19-.58-2.11 0-7.15.89-11.92 2.37-3.37 1.05-5.61 2.07-7.13 3v-2.63c.86-.33 1.61-.93 2.21-1.71.93.22 1.72.26 2.1.26 2.69 0 4.88-.96 6.53-2.86 3.8-4.38 3.2-12 2.77-15.07-.09-.66-.61-1.18-1.27-1.28-.66-.1-1.3.24-1.59.84-1.38 2.89-3.41 4.42-6.4 4.81-1.21.16-2.27.46-3.19.86-.07-.15-.13-.3-.2-.45.7-.51 1.29-1.23 1.71-2.09.35.04.65.06.83.06 2.34 0 4.35-.88 5.79-2.54 3.33-3.84 2.81-10.48 2.43-13.16-.09-.66-.61-1.18-1.27-1.28-.66-.1-1.31.24-1.59.84-1.16 2.42-2.86 3.7-5.35 4.03-.71.09-1.35.25-1.94.43.4-.44.73-.96.98-1.53 1.95-.01 3.61-.75 4.82-2.13 2.75-3.17 2.33-8.59 2.02-10.77-.09-.66-.61-1.18-1.27-1.28-.66-.1-1.3.24-1.59.84-.89 1.86-2.14 2.8-4.05 3.06-.57.08-1.1.2-1.59.35-.05-.11-.09-.21-.14-.31 1.73-1.11 4.44-3 5.66-4.62 1.76-2.34 1.94-5.17.43-6.59-.62-.58-1.46-.85-2.35-.78-.51.04-1.03.2-1.53.46C36 1.85 34.18.01 32.01.01s-3.99 1.84-4.46 4.29c-.51-.25-1.03-.41-1.53-.46-.9-.08-1.74.2-2.35.78-1.52 1.42-1.33 4.25.43 6.59 1.22 1.62 3.94 3.51 5.66 4.62-.04.1-.09.21-.14.31a8.25 8.25 0 0 0-1.59-.35c-1.91-.25-3.16-1.2-4.05-3.06-.29-.6-.94-.94-1.59-.84-.66.1-1.17.62-1.27 1.28-.31 2.18-.73 7.61 2.02 10.77 1.2 1.39 2.87 2.12 4.82 2.13.25.58.58 1.1.98 1.53-.6-.19-1.24-.34-1.94-.43-2.5-.33-4.2-1.61-5.35-4.03-.29-.6-.93-.94-1.59-.84-.66.1-1.17.62-1.27 1.28-.38 2.68-.9 9.32 2.43 13.16 1.44 1.66 3.44 2.54 5.79 2.54.18 0 .48-.02.83-.06.41.86 1 1.58 1.71 2.09-.06.14-.13.29-.2.45-.92-.4-1.98-.7-3.19-.86-2.98-.4-5.02-1.92-6.4-4.81-.29-.6-.93-.94-1.59-.84-.66.1-1.17.62-1.27 1.28-.43 3.07-1.03 10.69 2.77 15.07 1.65 1.9 3.85 2.86 6.53 2.86.38 0 1.17-.04 2.1-.26.6.78 1.35 1.38 2.21 1.71v2.63c-1.52-.92-3.77-1.95-7.13-3-4.77-1.49-9.8-2.37-11.92-2.37-.47 0-.91.22-1.19.58-.29.37-.39.85-.27 1.3 1.58 6.16 8.28 8.92 21.68 8.94h.69c13.4-.02 20.09-2.78 21.68-8.94.12-.45.02-.93-.27-1.3ZM35.71 9.61c.29-.63.59-1.16.87-1.54.73-.97 1.51-1.27 1.68-1.27h.01c.14.18.18 1.31-.77 2.58-.51.68-1.5 1.51-2.57 2.3.27-.66.54-1.36.78-2.07Zm-9.22-.23c-.95-1.27-.91-2.39-.83-2.54h.05c.26 0 1 .31 1.7 1.24.28.37.58.91.87 1.54.24.71.51 1.41.78 2.07-1.07-.79-2.06-1.62-2.57-2.3ZM32 18.21c.82 1.98 1.56 4.14 1.56 5.31 0 1.48-.82 2.51-1.56 2.51s-1.56-1.03-1.56-2.51c0-1.18.73-3.33 1.56-5.31Zm0 11.92c.9 2.12 1.83 4.68 1.83 6.13 0 1.69-.96 2.87-1.83 2.87s-1.83-1.18-1.83-2.87c0-1.44.93-4 1.83-6.13Zm6.26 13.76c2.45-.32 4.51-1.28 6.15-2.85-.01 3.29-.63 6.61-2.34 8.58-1.06 1.22-2.45 1.82-4.25 1.82-.27 0-.57-.03-.87-.07.08-.44.13-.9.13-1.36 0-1.49-.58-3.53-1.28-5.45.67-.3 1.48-.53 2.46-.66Zm-.84-13.73c1.99-.26 3.69-1 5.07-2.19-.07 2.95-.76 5.39-1.97 6.79-.88 1.01-2.02 1.5-3.51 1.5-.05 0-.12-.01-.17-.02 0-1.53-.64-3.65-1.38-5.59.54-.22 1.19-.39 1.95-.49Zm-1.04-11.39c1.41-.19 2.65-.66 3.69-1.41-.13 1.99-.64 3.63-1.47 4.59-.53.61-1.21.95-2.05 1.05-.1-1.19-.52-2.65-1.03-4.06.25-.06.53-.12.86-.17ZM32 3.01c.74 0 1.56 1.04 1.56 2.52 0 .72-.27 1.8-.67 2.98-.32.69-.62 1.42-.89 2.15-.28-.73-.58-1.47-.9-2.16-.4-1.18-.67-2.25-.67-2.97 0-1.49.82-2.52 1.56-2.52Zm-8.07 14.34c1.05.75 2.28 1.22 3.69 1.41.32.04.6.1.86.17-.51 1.41-.92 2.87-1.03 4.06-.84-.1-1.52-.44-2.05-1.05-.84-.96-1.34-2.6-1.47-4.59Zm-.45 17.39c-1.21-1.39-1.89-3.84-1.97-6.79 1.38 1.2 3.08 1.93 5.07 2.19.76.1 1.41.26 1.95.49-.73 1.93-1.37 4.05-1.38 5.59-.05 0-.12.02-.17.02-1.49 0-2.63-.49-3.51-1.5Zm2.71 16.68c-1.8 0-3.19-.6-4.25-1.82-1.71-1.97-2.33-5.29-2.34-8.58 1.64 1.57 3.7 2.53 6.15 2.85.98.13 1.79.36 2.46.66-.7 1.92-1.28 3.95-1.28 5.45 0 .47.05.92.13 1.36-.31.04-.61.07-.87.07Zm5.82-8.24c.99 2.32 2.05 5.2 2.05 6.8 0 1.69-.96 3.17-2.05 3.17s-2.05-1.48-2.05-3.17 1.06-4.48 2.05-6.8ZM13.9 56.38c4.36.63 11.21 2.55 14.75 4.52-7.97-.29-12.69-1.73-14.75-4.52Zm21.47 4.52c3.54-1.97 10.39-3.89 14.75-4.52-2.05 2.79-6.78 4.24-14.75 4.52Z" style="stroke-width:0"/>
</svg>
