<svg xmlns="http://www.w3.org/2000/svg" data-name="Layer 1" viewBox="0 0 64 64">
  <path d="M55.33 23.35c0-2.42-1.96-4.36-4.2-5.14.51-.58.95-1.26 1.24-2 .63-1.6.57-3.25-.16-4.53-.74-1.28-2.14-2.16-3.84-2.41-.79-.12-1.59-.08-2.35.08.45-2.33-.25-5-2.35-6.21-1.28-.74-2.93-.8-4.53-.16-.74.29-1.42.72-2.01 1.23C36.35 1.96 34.41.02 32 .02s-4.35 1.95-5.13 4.19c-.59-.51-1.27-.93-2.01-1.23-1.6-.63-3.25-.57-4.53.16-2.1 1.21-2.8 3.88-2.35 6.21-2.33-.45-4.98.24-6.19 2.33s-.49 4.74 1.06 6.53c-2.24.78-4.19 2.72-4.19 5.13s1.95 4.36 4.19 5.13c-1.55 1.79-2.27 4.44-1.06 6.53.98 1.69 2.91 2.48 4.85 2.48.45 0 .9-.06 1.34-.14-.45 2.33.26 4.99 2.35 6.2.73.42 1.53.61 2.33.61 1.51 0 3.03-.66 4.2-1.68.6 1.75 1.93 3.31 3.63 3.92v9.13c-5.25-6.31-15.08-10.77-18.66-10.77-.43 0-.84.18-1.12.51-.29.32-.42.75-.37 1.18 1.45 11.91 8.21 17.48 21.28 17.54h.74c13.07-.06 19.83-5.63 21.28-17.54.05-.43-.08-.85-.37-1.18s-.69-.51-1.12-.51c-3.58 0-13.41 4.46-18.66 10.77v-9.13c1.7-.6 3.02-2.16 3.63-3.92 1.17 1.01 2.69 1.68 4.2 1.68.81 0 1.6-.19 2.33-.61 2.09-1.21 2.8-3.87 2.35-6.2.43.09.88.14 1.33.14.34 0 .68-.02 1.02-.07 1.7-.25 3.1-1.13 3.84-2.41.74-1.28.8-2.93.16-4.53-.29-.74-.73-1.41-1.24-2 2.25-.77 4.2-2.72 4.2-5.14Zm-9.8-10.7c.5-.29 1.16-.45 1.82-.45.19 0 .39.01.57.04.79.12 1.4.46 1.68.94.28.48.27 1.18-.03 1.92-.31.78-.9 1.5-1.55 1.87-.64.37-1.81.87-3.18 1.37-2.44.39-5.45 1.03-7.59 2.03h-.14c.02-.04.06-.08.08-.12 1.94-1.35 3.99-3.63 5.55-5.56 1.12-.93 2.14-1.7 2.78-2.07Zm-7.16-5.33c.37-.65 1.09-1.24 1.87-1.55.38-.15.75-.23 1.09-.23.32 0 .6.07.83.2 1.12.64 1.25 2.84.53 4.08-1.09 1.89-5.7 7.18-7.74 8.41.05-2.39 2.32-9.02 3.41-10.91ZM32 3.02c1.29 0 2.5 1.84 2.5 3.26 0 .73-.15 1.97-.39 3.39-.4 1.09-.81 2.28-1.15 3.44-.5 1.71-.81 3.11-.92 4.25-.01.03-.03.06-.04.08-.02-.04-.04-.09-.06-.13-.2-2.36-1.15-5.28-2.04-7.58-.25-1.44-.4-2.71-.4-3.44 0-1.43 1.21-3.26 2.5-3.26ZM21.84 5.74c.23-.13.52-.2.83-.2.34 0 .71.08 1.09.23.78.31 1.5.9 1.87 1.55 1.09 1.89 3.37 8.52 3.41 10.91-2.05-1.23-6.65-6.52-7.74-8.41-.71-1.23-.58-3.43.53-4.08Zm-7.44 7.44c.38-.66 1.31-.97 2.25-.97.65 0 1.32.15 1.82.44.63.36 1.63 1.12 2.74 2.03.74.9 1.57 1.84 2.4 2.71 1.23 1.29 2.28 2.25 3.22 2.92.02.03.04.06.05.08h-.14c-2.14-1-5.15-1.64-7.59-2.03-1.37-.5-2.54-1.01-3.18-1.37-1.23-.71-2.22-2.68-1.58-3.8Zm-2.72 10.16c0-1.29 1.84-2.5 3.26-2.5 2.19 0 9.06 1.34 11.16 2.5-2.09 1.16-8.97 2.5-11.16 2.5-1.43 0-3.26-1.21-3.26-2.5Zm6.8 10.7c-1.23.71-3.43.58-4.08-.53-.64-1.12.34-3.08 1.58-3.8.64-.37 1.82-.87 3.18-1.37 2.44-.39 5.45-1.03 7.59-2.03h.14c-.01.02-.03.05-.05.07-.93.67-1.99 1.64-3.22 2.93-.83.87-1.66 1.81-2.4 2.71-1.1.92-2.11 1.67-2.74 2.03Zm7.16 5.33c-.71 1.23-2.68 2.22-3.8 1.58-1.12-.64-1.25-2.84-.53-4.08 1.09-1.89 5.7-7.18 7.74-8.41-.05 2.39-2.32 9.02-3.41 10.91ZM13.65 48.1c4.6 1.37 14.35 6.61 16.73 12.85-9.95-.34-15.08-4.26-16.73-12.85Zm36.71 0c-1.65 8.59-6.78 12.51-16.73 12.85 2.38-6.24 12.13-11.49 16.73-12.85ZM32 43.67c-1.29 0-2.5-1.84-2.5-3.26 0-.73.15-1.97.39-3.39.4-1.09.81-2.28 1.15-3.43.5-1.71.81-3.11.92-4.25.01-.03.03-.06.04-.08l.04.08c.12 1.14.42 2.54.92 4.25.34 1.16.74 2.34 1.15 3.44.24 1.41.39 2.66.39 3.39 0 1.43-1.21 3.26-2.5 3.26Zm0-16.33c-2.21 0-4-1.79-4-4s1.79-4 4-4 4 1.79 4 4-1.79 4-4 4Zm10.16 13.6c-1.12.64-3.08-.34-3.8-1.58-1.09-1.89-3.37-8.52-3.41-10.91 2.05 1.23 6.65 6.52 7.74 8.41.71 1.23.58 3.43-.53 4.08Zm7.44-7.44c-.28.48-.89.82-1.68.94-.83.12-1.75-.03-2.4-.41-.64-.37-1.66-1.14-2.78-2.07-1.56-1.92-3.61-4.2-5.55-5.56-.02-.04-.06-.08-.08-.12h.14c2.14 1 5.15 1.64 7.59 2.03 1.37.51 2.54 1.01 3.18 1.37.65.37 1.24 1.09 1.55 1.87.29.74.3 1.44.03 1.92Zm-.54-7.66c-2.19 0-9.06-1.35-11.16-2.5 2.09-1.16 8.97-2.5 11.16-2.5 1.43 0 3.26 1.21 3.26 2.5s-1.84 2.5-3.26 2.5Z" style="stroke-width:0"/>
</svg>
