<svg xmlns="http://www.w3.org/2000/svg" data-name="Layer 1" viewBox="0 0 64 64">
  <path d="M53.28 45.26c-.28-.32-.69-.51-1.12-.51-3.58 0-13.41 4.46-18.66 10.77V40.49h1.78c9.24 0 16.75-6.95 16.75-15.5S48.8 8.56 42.93 2.21l-.8-.86a1.49 1.49 0 0 0-1.34-.46c-.5.08-.92.4-1.13.85l-1.69 3.67c-.37-.56-.81-1.08-1.31-1.56L33.03.41c-.58-.55-1.49-.55-2.06 0l-3.95 3.74c-.38.36-.72.76-1.03 1.18l-1.65-3.59c-.21-.46-.63-.78-1.13-.85-.5-.08-1 .09-1.34.46l-.8.86c-5.87 6.35-9.1 14.44-9.1 22.78s7.51 15.5 16.75 15.5h1.77v15.03c-5.25-6.31-15.08-10.77-18.66-10.77-.43 0-.84.18-1.12.51-.29.32-.42.75-.37 1.18 1.45 11.91 8.21 17.48 21.28 17.54h.74c13.07-.06 19.83-5.63 21.28-17.54.05-.43-.08-.85-.37-1.18ZM41.44 5.06c4.9 5.66 7.59 12.7 7.59 19.94 0 5.25-3.59 9.75-8.66 11.6l-6.72-14.61 7.79-16.94ZM29.09 6.33l2.92-2.77 2.59 2.46c.89.85 1.46 1.89 1.71 3.02l-4.3 9.36-4.45-9.68c.31-.89.82-1.71 1.54-2.39ZM14.98 25c0-7.24 2.69-14.28 7.59-19.94l4.5 9.78 10.34 22.49c-.7.1-1.4.17-2.13.17h-6.55c-7.58 0-13.75-5.61-13.75-12.5Zm-1.33 23.1c4.6 1.37 14.35 6.61 16.73 12.85-9.95-.34-15.08-4.26-16.73-12.85Zm19.98 12.85c2.38-6.24 12.13-11.49 16.73-12.85-1.65 8.59-6.78 12.51-16.73 12.85Z" style="stroke-width:0"/>
</svg>
