<svg xmlns="http://www.w3.org/2000/svg" data-name="Layer 1" viewBox="0 0 64 64">
  <path d="M61.54 21.71h-3.39v-4.74c0-.83-.67-1.5-1.5-1.5h-5.32v-5.5c0-.83-.67-1.5-1.5-1.5H22.19l-1.44-3.13c-.25-.53-.78-.87-1.36-.87H2.46c-.83 0-1.5.67-1.5 1.5v45.67c0 4.35 3.54 7.89 7.89 7.89h49.42c2.63 0 4.78-2.19 4.78-4.89V23.21c0-.83-.67-1.5-1.5-1.5Zm-6.39 0H15.24c-.83 0-1.5.67-1.5 1.5v27.34h-3.39V18.47h44.81v3.24ZM3.96 51.64V7.47h14.48l1.44 3.13c.25.53.78.87 1.36.87h27.1v4H8.85c-.83 0-1.5.67-1.5 1.5v35.08c0 .83.67 1.5 1.5 1.5h4.51a4.886 4.886 0 0 1-4.51 2.99c-2.7 0-4.89-2.2-4.89-4.89Zm56.09 3c0 1.04-.8 1.89-1.78 1.89H15.04c.1-.12.18-.25.27-.37.03-.04.06-.08.09-.13.13-.2.25-.4.37-.6.03-.06.06-.12.09-.17.08-.15.16-.31.23-.47.04-.08.07-.16.1-.24.06-.14.11-.29.16-.43.03-.09.06-.18.08-.27.04-.15.08-.3.11-.45l.06-.27c.03-.16.05-.33.08-.5 0-.08.02-.16.03-.24v-.04c.02-.1.03-.2.03-.31 0-.04 0-.08-.01-.12 0-.09.01-.19.01-.28V24.71h43.3v29.93Z" style="stroke-width:0"/>
</svg>
