<svg xmlns="http://www.w3.org/2000/svg" data-name="Layer 1" viewBox="0 0 64 64">
  <path d="M61.54 15.47h-10.2v-5.5c0-.83-.67-1.5-1.5-1.5H22.2l-1.44-3.13c-.25-.53-.78-.87-1.36-.87H2.46c-.83 0-1.5.67-1.5 1.5v45.67c0 4.35 3.54 7.89 7.89 7.89h49.42c2.63 0 4.78-2.2 4.78-4.89V16.97c0-.83-.67-1.5-1.5-1.5ZM3.96 51.64V7.47h14.48l1.44 3.13c.25.53.78.87 1.36.87h27.1v4h-33.1c-.83 0-1.5.67-1.5 1.5v34.67c0 2.7-2.2 4.89-4.89 4.89s-4.89-2.2-4.89-4.89Zm56.09 3c0 1.04-.8 1.89-1.78 1.89H15.04c.09-.12.18-.25.27-.37l.1-.13c.13-.2.25-.4.37-.6l.09-.18c.08-.15.15-.3.22-.46.04-.08.07-.17.1-.25.06-.14.11-.28.16-.43.03-.09.06-.18.08-.27.04-.15.08-.29.11-.44l.06-.27c.03-.16.05-.33.08-.49l.03-.24c.02-.25.04-.5.04-.75V18.47h43.3v36.17Z" style="stroke-width:0"/>
</svg>
