<svg xmlns="http://www.w3.org/2000/svg" data-name="Layer 1" viewBox="0 0 64 64">
  <path d="M61.7 4.98a4 4 0 0 0-2.68-2.68c-15.58-4.69-33.26-.11-45.04 11.67C2.19 25.76-2.39 43.44 2.3 59.02a4 4 0 0 0 2.68 2.68c4.06 1.22 8.26 1.82 12.46 1.82 11.93 0 23.87-4.77 32.58-13.49C61.8 38.25 66.38 20.56 61.69 4.99Zm-3.55.19c.32.1.58.36.68.68 1.58 5.24 2.01 10.73 1.43 16.13L42.01 3.73c1.5-.16 3.02-.25 4.53-.25 3.92 0 7.83.55 11.62 1.69ZM5.85 58.83a.995.995 0 0 1-.67-.68C3.6 52.92 3.17 47.43 3.75 42.03l18.22 18.22c-5.4.58-10.88.14-16.12-1.43Zm42.06-10.92c-6.14 6.14-14 10.19-22.26 11.81-.01-.02-.02-.04-.03-.05L4.34 38.39s-.03-.02-.05-.03C5.91 30.09 9.95 22.24 16.1 16.1 22.24 9.96 30.09 5.92 38.35 4.29c.02.02.02.04.04.06l21.27 21.27s.04.02.06.04c-1.62 8.26-5.66 16.11-11.8 22.25Zm-3.52-26.18-3.72 3.73 3.39 3.39c.59.59.59 1.54 0 2.12-.29.29-.68.44-1.06.44s-.77-.15-1.06-.44l-3.39-3.39L34.13 32l3.36 3.36c.59.59.59 1.54 0 2.12-.29.29-.68.44-1.06.44s-.77-.15-1.06-.44l-3.36-3.36-4.42 4.42 3.36 3.36c.59.59.59 1.54 0 2.12-.29.29-.68.44-1.06.44s-.77-.15-1.06-.44l-3.36-3.36-3.72 3.72c-.29.29-.68.44-1.06.44s-.77-.15-1.06-.44a1.49 1.49 0 0 1 0-2.12l3.72-3.72-3.39-3.39a1.49 1.49 0 0 1 0-2.12 1.49 1.49 0 0 1 2.12 0l3.39 3.39L29.89 32l-3.39-3.39a1.49 1.49 0 0 1 0-2.12 1.49 1.49 0 0 1 2.12 0l3.39 3.39 4.42-4.42-3.36-3.36a1.49 1.49 0 0 1 0-2.12 1.49 1.49 0 0 1 2.12 0l3.36 3.36 3.72-3.73a1.49 1.49 0 0 1 2.12 0c.59.59.59 1.54 0 2.12Z" style="stroke-width:0"/>
</svg>
