<svg xmlns="http://www.w3.org/2000/svg" data-name="Layer 1" viewBox="0 0 64 64">
  <path d="M63.86 42.49c0-.15-.03-.3-.08-.44v-.04l-1.99-5.65c-.21-.6-.78-1-1.42-1H43.56l-.76-2.27c-.13-.4-.1-.83.1-1.2.2-.38.53-.64.94-.76l9.43-2.67s.02 0 .03-.01l2.6-.73c.39-.11.72-.38.92-.74.19-.36.23-.78.1-1.17l-1.91-5.88a1.5 1.5 0 0 0-1.84-.98l-2.57.74C42.76 7.63 32.71 5.57 26.8 5.57h-.21c-10.47.09-20.74 6.4-24.42 15.02-3.87 9.05-1.44 16.67.51 22.79.85 2.67 1.58 4.97 1.58 6.81 0 .83.67 1.5 1.5 1.5 4.51 0 19.57 4.81 24.99 6.66.16.05.32.08.49.08h6.13c3.24 0 6.19-1.5 8.09-4.13l16.14 2.1c.07 0 .13.01.19.01.35 0 .69-.12.96-.35.32-.27.52-.66.53-1.08l.55-12.41v-.09Zm-3.61-1.45-6 .09-.9-2.76h5.96l.94 2.68Zm-13.38 4.24-.35-1.04 5.14-.07.2 7.95-4.96-.65c.64-1.98.65-4.13-.04-6.19Zm3.32-6.91.92 2.81-5.58.08-.96-2.89h5.63Zm3.4-13.11-9.77 2.75-.9-2.98 9.7-2.78.98 3.01Zm-16.2 30.18h-5.88c-2.2-.75-17.58-5.9-24.31-6.65-.23-1.92-.89-3.99-1.64-6.31-1.8-5.65-4.04-12.67-.61-20.7 3.18-7.45 12.51-13.12 21.69-13.2h.2c8.2 0 15.37 4.21 20.74 11.99l-6.94 1.99c-.39.11-.71.37-.9.72s-.23.77-.12 1.15l1.5 4.94c-.33.32-.62.69-.84 1.11a4.51 4.51 0 0 0-.29 3.56l4.06 12.19c.72 2.16.37 4.46-.96 6.3a6.904 6.904 0 0 1-5.67 2.9Zm17.48-2.93-.21-8.38 6.13-.09-.4 9.19-5.51-.72ZM37.54 41.14l-8.26-4.46c-1.06-.57-2.3-.47-3.24.27-.95.74-1.35 1.92-1.05 3.08l1.18 4.61c.11.44.42.81.84.99l4.36 1.97a1.5 1.5 0 0 0 1.54-.19l4.84-3.78a1.498 1.498 0 0 0-.21-2.5Zm-5.76 3.36-2.88-1.3-.99-3.85 6.19 3.34-2.32 1.81Zm-10.6-30.76c.28.78-.13 1.64-.91 1.92-5.67 2.03-9.6 5.93-11.05 10.99-.19.66-.79 1.09-1.44 1.09a1.5 1.5 0 0 1-1.44-1.92c1.7-5.93 6.41-10.66 12.92-12.98.78-.28 1.64.13 1.92.91Z" style="stroke-width:0"/>
</svg>
