<svg xmlns="http://www.w3.org/2000/svg" data-name="Layer 1" viewBox="0 0 64 64">
  <path d="M4.9 64.07c-.61 0-1.23-.14-1.81-.43C1.21 62.72 0 60.5 0 57.98V6.02C0 3.5 1.21 1.27 3.09.35c1.45-.71 3.12-.52 4.44.51l33.44 25.98c1.43 1.11 2.29 3.04 2.29 5.16s-.85 4.05-2.29 5.16L7.53 63.14c-.79.62-1.71.93-2.63.93Zm0-61.15c-.17 0-.33.04-.5.12-.7.34-1.42 1.4-1.42 2.97v51.96c0 1.58.71 2.63 1.42 2.97.43.21.85.15 1.28-.18l33.44-25.98c.69-.54 1.13-1.61 1.13-2.79s-.43-2.25-1.13-2.79L5.69 3.23c-.26-.2-.52-.31-.78-.31Zm52.83 61.15h-3.7a6 6 0 0 1-5.99-5.99V5.92a6 6 0 0 1 5.99-5.99h3.7a6 6 0 0 1 5.99 5.99v52.17a6 6 0 0 1-5.99 5.99Zm-3.7-61.15c-1.65 0-2.99 1.34-2.99 2.99v52.17c0 1.65 1.34 2.99 2.99 2.99h3.7c1.65 0 2.99-1.34 2.99-2.99V5.92c0-1.65-1.34-2.99-2.99-2.99h-3.7Z" style="stroke-width:0"/>
</svg>
