<svg xmlns="http://www.w3.org/2000/svg" data-name="Layer 1" viewBox="0 0 64 64">
  <path d="M38.65 32.78c-1.03 0-1.99-.4-2.72-1.13l-3.58-3.58a3.85 3.85 0 0 1 0-5.44l12.48-12.48-2.89-2.89c-.96-.96-1.33-2.3-.95-3.42.33-.95 1.13-1.59 2.15-1.72L60.06 0a3.47 3.47 0 0 1 2.93 1.01c.78.78 1.14 1.85 1.01 2.93l-2.12 16.92c-.13 1.02-.77 1.82-1.72 2.15-1.12.38-2.46.01-3.42-.95l-2.89-2.89-12.48 12.48c-.73.73-1.69 1.13-2.72 1.13Zm5.32-27.73s.05.06.09.1l5.01 5.01-14.6 14.6c-.33.33-.33.87 0 1.2l3.58 3.58c.32.32.88.32 1.2 0l14.6-14.6 5.01 5.01s.07.06.1.09l2.07-16.46a.516.516 0 0 0-.15-.44.504.504 0 0 0-.44-.15L43.98 5.06Zm14.92 15.44ZM3.5 64.02c-.93 0-1.82-.36-2.49-1.03A3.521 3.521 0 0 1 0 60.06l2.12-16.92c.13-1.02.77-1.82 1.72-2.15 1.12-.38 2.46-.01 3.42.95l2.89 2.89 12.48-12.48a3.85 3.85 0 0 1 5.44 0l3.58 3.58c.73.73 1.13 1.69 1.13 2.72s-.4 1.99-1.13 2.72L19.17 53.85l2.89 2.89c.96.96 1.33 2.3.95 3.42-.33.95-1.13 1.59-2.15 1.72L3.94 64c-.15.02-.3.03-.45.03Zm1.55-20.05L2.98 60.43c-.03.22.08.37.15.44.07.07.21.18.44.15l16.46-2.07s-.05-.06-.09-.1l-5.01-5.01 14.6-14.6c.16-.16.25-.37.25-.6s-.09-.44-.25-.6l-3.58-3.58a.851.851 0 0 0-1.2 0l-14.6 14.6-5.01-5.01s-.07-.06-.1-.09Z" style="stroke-width:0"/>
</svg>
