<svg xmlns="http://www.w3.org/2000/svg" data-name="Layer 1" viewBox="0 0 64 64">
  <path d="M63.98 31.93c0-.75-.04-1.49-.09-2.23-.01-.21-.03-.41-.05-.62-.06-.7-.15-1.4-.25-2.09-.04-.25-.09-.5-.13-.74a33.821 33.821 0 0 0-.56-2.51c-.14-.51-.28-1.01-.44-1.5-.11-.34-.22-.68-.35-1.02-.16-.44-.32-.86-.5-1.29-.18-.43-.36-.85-.56-1.28-.16-.36-.34-.71-.51-1.06-.17-.34-.34-.67-.53-1-.27-.5-.56-.99-.87-1.47-.16-.25-.31-.5-.48-.74-.36-.54-.73-1.07-1.12-1.59-.06-.07-.1-.15-.16-.23-.02-.03-.06-.05-.08-.08A32.037 32.037 0 0 0 42.67 1.86c-.01 0-.02-.01-.04-.02-.06-.02-.12-.04-.19-.06-1.61-.56-3.29-.99-5.01-1.29-.03 0-.07-.01-.1-.02-.86-.15-1.74-.26-2.62-.33h-.06c-.88-.07-1.77-.12-2.67-.12s-1.78.05-2.66.12h-.07c-.88.08-1.75.19-2.61.33-.04 0-.08.01-.12.02-1.71.3-3.38.73-4.99 1.29-.06.02-.13.04-.19.06-.01 0-.02.01-.04.02A32.181 32.181 0 0 0 6.67 12.48c-.03.03-.06.05-.08.08-.06.07-.1.15-.16.22-.39.52-.77 1.06-1.13 1.6-.16.24-.32.49-.47.73-.31.49-.6.99-.88 1.5-.18.32-.34.64-.5.96-.18.36-.36.73-.53 1.1a32.315 32.315 0 0 0-1.05 2.56c-.12.33-.23.66-.34.99-.17.53-.33 1.06-.47 1.6-.08.31-.16.63-.23.95-.12.5-.22 1-.31 1.51-.04.23-.09.46-.12.7-.11.7-.19 1.41-.26 2.12-.02.19-.03.38-.04.57-.06.77-.09 1.54-.09 2.32h.01c0 .18 0 .36.01.54v.26c.16 6.39 2.19 12.32 5.59 17.26.02.03.02.06.04.08.09.13.2.26.3.39.34.48.7.96 1.07 1.42.19.23.37.46.57.69.39.46.8.91 1.21 1.35.17.18.33.35.5.52a34.707 34.707 0 0 0 2.04 1.88c.55.47 1.12.92 1.71 1.35l.42.3c.64.45 1.29.89 1.96 1.3.04.02.08.05.12.07.67.41 1.37.78 2.07 1.14.1.05.2.11.3.16a32.8 32.8 0 0 0 2.56 1.12c.75.29 1.52.56 2.3.79.03 0 .06.02.09.03h.04c2.88.85 5.93 1.32 9.08 1.32s6.2-.47 9.08-1.32h.04c.03 0 .06-.02.09-.03.78-.23 1.54-.5 2.29-.79.13-.05.25-.1.38-.15.74-.3 1.47-.62 2.18-.97.1-.05.2-.1.3-.16.71-.36 1.4-.73 2.07-1.14.04-.02.08-.05.13-.07.67-.41 1.32-.85 1.96-1.3.14-.1.28-.19.41-.29.59-.43 1.16-.89 1.72-1.36.17-.14.34-.29.5-.43.53-.47 1.05-.95 1.54-1.45.17-.17.32-.34.49-.51.42-.45.83-.9 1.23-1.37l.54-.66c.38-.47.74-.95 1.09-1.44.09-.13.2-.25.29-.38.02-.03.03-.06.04-.08a31.826 31.826 0 0 0 5.59-17.26v-.27c.01-.18.02-.36.02-.54v-.07Zm-7.7 15.86H45.33l-5.39-7.42 3.41-10.49 8.72-2.83 8.88 6.45a28.828 28.828 0 0 1-4.66 14.29Zm-37.61 0H7.72A28.795 28.795 0 0 1 3.06 33.5l8.88-6.45 8.72 2.84 3.41 10.49-5.39 7.42Zm35.85-34-3.38 10.42-8.72 2.83-8.92-6.48v-9.17l8.87-6.44c4.79 1.84 8.97 4.92 12.15 8.85ZM21.63 4.94l8.87 6.45v9.17l-8.92 6.48-8.72-2.84-3.38-10.42c3.18-3.92 7.36-7 12.15-8.84Zm2.85 55.05-3.39-10.44 5.39-7.41h11.03l5.39 7.42-3.39 10.43c-2.4.64-4.91.99-7.51.99s-5.12-.35-7.51-.99Z" style="stroke-width:0"/>
</svg>
