<svg xmlns="http://www.w3.org/2000/svg" data-name="Layer 1" viewBox="0 0 64 64">
  <path d="M59.31 14.71c-.02-.81-.68-1.47-1.5-1.47h-4.47c-.79 0-1.44.62-1.49 1.4h-39.7c-.05-.78-.7-1.4-1.49-1.4H6.19c-.82 0-1.48.65-1.5 1.47-2.62.33-4.66 2.56-4.66 5.27v23.05c0 2.94 2.39 5.33 5.33 5.33h53.27c2.94 0 5.33-2.39 5.33-5.33V19.98c0-2.71-2.04-4.93-4.66-5.26ZM3.03 43.02V19.97c0-1.29 1.05-2.33 2.33-2.33h5.79v27.71H8.59v-1.52c0-.83-.67-1.5-1.5-1.5s-1.5.67-1.5 1.5v1.52h-.23c-1.29 0-2.33-1.05-2.33-2.33Zm11.13 2.33V17.64h35.68v27.71H14.16Zm46.81-2.33c0 1.29-1.05 2.33-2.33 2.33h-.23v-1.52c0-.83-.67-1.5-1.5-1.5s-1.5.67-1.5 1.5v1.52h-2.56V17.64h5.79c1.29 0 2.33 1.05 2.33 2.33v23.05Zm-6.43-19.48c0-1.31 1.06-2.37 2.37-2.37s2.37 1.06 2.37 2.37-1.06 2.37-2.37 2.37-2.37-1.06-2.37-2.37Zm5.43 10.45c0 .69-.56 1.25-1.25 1.25h-.57v.57a1.25 1.25 0 0 1-2.5 0v-.57h-.57a1.25 1.25 0 0 1 0-2.5h.57v-.57a1.25 1.25 0 0 1 2.5 0v.57h.57c.69 0 1.25.56 1.25 1.25Zm-55.24.45c0-1.31 1.06-2.37 2.37-2.37s2.37 1.06 2.37 2.37-1.06 2.37-2.37 2.37-2.37-1.06-2.37-2.37Zm.55-9.2a1.25 1.25 0 0 1 0-2.5h.57v-.57a1.25 1.25 0 0 1 2.5 0v.57h.57a1.25 1.25 0 0 1 0 2.5h-.57v.57a1.25 1.25 0 0 1-2.5 0v-.57h-.57Zm40.52-5.57H18.2c-.83 0-1.5.67-1.5 1.5v20.64c0 .83.67 1.5 1.5 1.5h27.6c.83 0 1.5-.67 1.5-1.5V21.17c0-.83-.67-1.5-1.5-1.5Zm-1.5 20.64H19.7V22.67h24.6v17.64Z" style="stroke-width:0"/>
</svg>
