<svg xmlns="http://www.w3.org/2000/svg" data-name="Layer 1" viewBox="0 0 64 64">
  <path d="M56.54 14.4c-.9-1.81-9.25-5.36-24.48-5.36h-.11c-15.23 0-23.58 3.55-24.48 5.36-6.76 13.58-9.4 30.7-5.76 37.38.58 1.07 1.28 1.78 1.98 2.26.03.03.07.05.1.07.79.51 1.57.73 2.23.8 5.33.6 7.53-4.2 9.28-8.06 1.11-2.44 2.26-4.96 3.85-5.45 3.48-1.07 22.22-1.07 25.7 0 1.6.49 2.74 3.01 3.85 5.45 1.65 3.64 3.69 8.11 8.39 8.11.29 0 .58-.02.89-.05a5.13 5.13 0 0 0 2.23-.8l.1-.07c.7-.48 1.39-1.19 1.98-2.26 3.64-6.68 1-23.79-5.75-37.38Zm-24.48-2.36c1.89 0 3.63.06 5.26.15v4.54H26.8v-4.55c1.59-.09 3.3-.15 5.15-.15h.11ZM6.67 51.95c.2-.46.41-.92.61-1.39 1.74-4.05 3.39-7.87 5.98-8.71.37-.12.86-.23 1.42-.33-.81 1.23-1.48 2.66-2.12 4.09-1.82 4-3.17 6.46-5.9 6.34Zm44.77-6.34c-.65-1.42-1.31-2.86-2.12-4.09.57.1 1.06.21 1.42.33 2.59.84 4.24 4.66 5.99 8.71.2.46.41.92.61 1.38-2.74.12-4.08-2.33-5.9-6.34Zm8.35 4.46c-.1-.23-.21-.47-.31-.7-1.93-4.48-3.93-9.12-7.82-10.37-5.88-1.9-33.44-1.9-39.32 0-3.89 1.26-5.89 5.89-7.82 10.37-.1.23-.21.47-.31.7-2.89-5.93-.16-21.99 5.85-34.17.79-.61 5.06-2.64 13.74-3.48v5.81c0 .83.67 1.5 1.5 1.5h13.52c.83 0 1.5-.67 1.5-1.5v-5.8c8.6.85 12.83 2.87 13.62 3.47 6.01 12.18 8.74 28.24 5.85 34.17Zm-7.5-28.32c0 .83-.67 1.5-1.5 1.5h-2.02v2.02c0 .83-.67 1.5-1.5 1.5s-1.5-.67-1.5-1.5v-2.02h-2.02c-.83 0-1.5-.67-1.5-1.5s.67-1.5 1.5-1.5h2.02v-2.02c0-.83.67-1.5 1.5-1.5s1.5.67 1.5 1.5v2.02h2.02c.83 0 1.5.67 1.5 1.5Zm-23.88 9.71c0 .83-.67 1.5-1.5 1.5h-2.02v2.02c0 .83-.67 1.5-1.5 1.5s-1.5-.67-1.5-1.5v-2.02h-2.02c-.83 0-1.5-.67-1.5-1.5s.67-1.5 1.5-1.5h2.02v-2.02c0-.83.67-1.5 1.5-1.5s1.5.67 1.5 1.5v2.02h2.02c.83 0 1.5.67 1.5 1.5Zm15.84 0a3.82 3.82 0 1 1-7.64 0 3.82 3.82 0 0 1 7.64 0Zm-28.26-5.89a3.82 3.82 0 1 1 0-7.64 3.82 3.82 0 0 1 0 7.64Zm17.13-3.08c.28.28.44.66.44 1.06 0 .09 0 .19-.03.29-.02.09-.04.19-.08.28s-.08.18-.14.26c-.05.08-.12.16-.19.23-.06.06-.14.13-.22.18a1.612 1.612 0 0 1-.55.23 1.428 1.428 0 0 1-.86-.09c-.09-.04-.18-.08-.26-.14-.08-.05-.16-.12-.23-.18a2.11 2.11 0 0 1-.19-.23c-.05-.08-.1-.17-.13-.26-.04-.09-.07-.19-.09-.28a1.499 1.499 0 0 1 .64-1.54c.08-.06.17-.1.26-.14.09-.04.18-.07.28-.09.19-.04.39-.03.58 0a1.612 1.612 0 0 1 .55.23c.08.05.16.12.22.19Zm3.65 2.53c-.09-.02-.19-.05-.28-.09-.09-.04-.18-.08-.26-.14-.08-.05-.16-.12-.22-.18-.28-.28-.44-.67-.44-1.07s.16-.77.44-1.06c.06-.07.14-.13.22-.18.08-.06.17-.1.26-.14.09-.04.19-.07.28-.09.49-.09 1.01.07 1.36.41.28.29.44.67.44 1.06s-.16.79-.44 1.07-.67.43-1.06.43c-.1 0-.2 0-.3-.02Zm-8.76-2.53a1.499 1.499 0 0 1-1.07 2.56 1.499 1.499 0 0 1-1.06-2.56c.07-.07.15-.14.23-.19.08-.06.17-.1.26-.14s.19-.06.28-.08c.2-.04.39-.04.59 0 .09.02.19.04.28.08s.18.08.26.14c.08.05.16.12.23.19Z" style="stroke-width:0"/>
</svg>
