<svg xmlns="http://www.w3.org/2000/svg" data-name="Layer 1" viewBox="0 0 64 64">
  <path d="m35.09 3 1.19 6.26c.29 1.54 1.4 2.84 2.88 3.39.49.18.97.38 1.45.6.6.28 1.26.42 1.91.42.91 0 1.78-.27 2.52-.78l5.27-3.58 4.37 4.37-3.58 5.27c-.88 1.3-1.02 3-.35 4.44.22.47.42.96.6 1.45.55 1.48 1.85 2.59 3.39 2.88L61 28.91v6.19l-6.26 1.19c-1.54.29-2.84 1.4-3.39 2.88-.18.49-.38.97-.6 1.45-.66 1.44-.53 3.14.35 4.44l3.58 5.27-4.37 4.37-5.27-3.58c-.75-.51-1.62-.77-2.52-.77-.65 0-1.31.15-1.91.42-.47.22-.96.42-1.45.6a4.532 4.532 0 0 0-2.88 3.39l-1.19 6.26H28.9l-1.19-6.26c-.29-1.54-1.4-2.84-2.88-3.39-.49-.18-.97-.38-1.45-.6-.6-.27-1.26-.42-1.91-.42-.91 0-1.78.27-2.52.78l-5.27 3.58-4.37-4.37 3.58-5.27c.88-1.3 1.02-3 .35-4.44-.22-.47-.42-.96-.6-1.45a4.532 4.532 0 0 0-3.39-2.88l-6.26-1.19v-6.19l6.26-1.19c1.54-.29 2.84-1.4 3.39-2.88.18-.49.38-.97.6-1.45.66-1.44.53-3.14-.35-4.44l-3.58-5.27 4.37-4.37 5.27 3.58c.75.51 1.62.78 2.52.78.65 0 1.32-.15 1.91-.42.47-.22.96-.42 1.45-.6a4.532 4.532 0 0 0 2.88-3.39l1.19-6.26h6.19M36.33 0h-8.67c-.71 0-1.33.51-1.47 1.22L24.77 8.7c-.1.53-.48.95-.98 1.14-.56.21-1.12.44-1.66.69-.21.1-.43.15-.66.15-.29 0-.59-.08-.84-.26l-6.29-4.28a1.491 1.491 0 0 0-1.9.18l-6.13 6.13a1.5 1.5 0 0 0-.18 1.91l4.28 6.29c.3.44.33 1.01.11 1.5-.25.54-.48 1.09-.69 1.66-.19.5-.61.88-1.14.98l-7.48 1.42c-.71.13-1.22.75-1.22 1.47v8.67c0 .72.51 1.34 1.22 1.47l7.48 1.42c.53.1.95.48 1.14.98.21.56.44 1.12.69 1.66.22.49.19 1.05-.11 1.5l-4.28 6.29c-.41.6-.33 1.4.18 1.91l6.13 6.13a1.491 1.491 0 0 0 1.9.18l6.29-4.28c.25-.17.54-.26.84-.26.22 0 .45.05.66.15.54.25 1.09.48 1.66.69.5.19.88.61.98 1.14l1.42 7.48c.13.71.75 1.22 1.47 1.22h8.67c.72 0 1.34-.51 1.47-1.22l1.42-7.48c.1-.53.48-.95.98-1.14.56-.21 1.12-.44 1.66-.69.21-.1.43-.15.66-.15.29 0 .59.08.84.26l6.29 4.28a1.491 1.491 0 0 0 1.9-.18l6.13-6.13a1.5 1.5 0 0 0 .18-1.91l-4.28-6.29c-.3-.44-.33-1.01-.11-1.5.25-.54.48-1.09.69-1.66.19-.5.61-.88 1.14-.98l7.48-1.42A1.49 1.49 0 0 0 64 36.35v-8.67c0-.72-.51-1.34-1.22-1.47l-7.48-1.42c-.53-.1-.95-.48-1.14-.98-.21-.56-.44-1.12-.69-1.66-.22-.49-.19-1.05.11-1.5l4.28-6.29c.41-.6.33-1.4-.18-1.91l-6.13-6.13a1.491 1.491 0 0 0-1.9-.18l-6.29 4.28c-.25.17-.54.26-.84.26-.22 0-.45-.05-.66-.15-.54-.25-1.09-.48-1.66-.69-.5-.19-.88-.61-.98-1.14L37.8 1.22A1.49 1.49 0 0 0 36.33 0ZM32 22.26c5.37 0 9.74 4.37 9.74 9.74s-4.37 9.74-9.74 9.74-9.74-4.37-9.74-9.74 4.37-9.74 9.74-9.74m0-3c-7.04 0-12.74 5.71-12.74 12.74S24.97 44.74 32 44.74 44.74 39.03 44.74 32 39.03 19.26 32 19.26Z" style="stroke-width:0"/>
</svg>
