<svg xmlns="http://www.w3.org/2000/svg" data-name="Layer 1" viewBox="0 0 64 64">
  <path d="M58.65 46.1c-.73-1.31-1.83-2.21-3.15-2.66 1.65-2.8 1.02-7.43-1.56-8.53 2.28-.62 3.44-2.91 3.43-5.82-.01-2.91-2.57-5.82-5.82-5.82h-16c0-5.82 4.36-8.31 4.36-14.54 0-3.66 0-8.73-7.27-8.73-1.34 3.23-2.13 9.59-5.82 14.54-4.44 5.96-9.78 14.55-15.17 14.55h-2.3c-1.93 0-3.49 1.56-3.49 3.49v22.11c0 1.93 1.56 3.49 3.49 3.49h2.3C22.43 58.18 23.06 64 37 64h9.69c4.56 0 6.83-3.15 5.91-6.17.21.02.41.03.61.03 1.92 0 3.63-.88 4.82-2.51 1.87-2.56 2.13-6.54.61-9.24ZM51 55.29s.03-.01.04-.01c0 .01-.02.02-.03.03 0 0 0-.01-.02-.02Zm4.62-1.72c-.77 1.06-1.83 1.46-3.14 1.2-.15-.03-.29-.03-.44-.02 1.89-1.6 2.91-6.2 1.61-8.61 1.06.03 1.86.48 2.38 1.42.95 1.69.76 4.39-.42 6.01Z" style="stroke-width:0"/>
</svg>
