<svg xmlns="http://www.w3.org/2000/svg" data-name="Layer 1" viewBox="0 0 64 64">
  <path d="M63.97 44.12s-4.53-30.98-5.09-34.94c-.38-2.65-2.19-4.92-4.62-5.79-2.21-.79-4.53-.28-6.35 1.4A1.501 1.501 0 0 0 49.94 7c1.27-1.17 2.51-1.07 3.31-.79 1.37.49 2.44 1.85 2.66 3.39.41 2.9 2.96 20.35 4.29 29.44-2.04-4.66-6.7-7.93-12.11-7.93-6.58 0-12.03 4.84-13.04 11.14-.93-.33-1.98-.51-3.06-.51s-2.13.18-3.06.51c-1-6.3-6.46-11.14-13.04-11.14-5.41 0-10.06 3.27-12.11 7.93C5.11 29.95 7.66 12.5 8.07 9.59c.22-1.54 1.29-2.9 2.66-3.39.81-.29 2.04-.39 3.31.79a1.501 1.501 0 0 0 2.03-2.21c-1.83-1.68-4.14-2.19-6.35-1.4-2.43.86-4.24 3.14-4.62 5.79C4.55 13.14.03 44.12.03 44.12a1.5 1.5 0 0 0 1.48 1.72h1.27c.75 6.58 6.35 11.72 13.13 11.72s12.56-5.31 13.16-12.05c.62-.41 1.62-.76 2.94-.76s2.31.35 2.94.76c.6 6.74 6.27 12.05 13.16 12.05s12.38-5.13 13.13-11.72h1.27c.44 0 .85-.19 1.13-.52.28-.33.41-.77.35-1.2ZM15.9 54.55c-5.55 0-10.07-4.45-10.21-9.97.01-.08.02-.16.02-.25s-.01-.17-.02-.25c.13-5.52 4.65-9.97 10.21-9.97s10.22 4.58 10.22 10.22-4.58 10.22-10.22 10.22Zm32.19 0c-5.63 0-10.22-4.58-10.22-10.22s4.58-10.22 10.22-10.22 10.07 4.45 10.21 9.97c-.01.08-.03.16-.03.25s.01.17.03.25c-.13 5.52-4.65 9.97-10.21 9.97Zm7.73-10.22c0 .83-.67 1.5-1.5 1.5s-1.5-.67-1.5-1.5c0-2.61-2.12-4.73-4.73-4.73-.83 0-1.5-.67-1.5-1.5s.67-1.5 1.5-1.5c4.26 0 7.73 3.47 7.73 7.73Zm-32.19 0c0 .83-.67 1.5-1.5 1.5s-1.5-.67-1.5-1.5c0-2.61-2.12-4.73-4.73-4.73-.83 0-1.5-.67-1.5-1.5s.67-1.5 1.5-1.5c4.26 0 7.73 3.47 7.73 7.73Z" style="stroke-width:0"/>
</svg>
