<svg xmlns="http://www.w3.org/2000/svg" data-name="Layer 1" viewBox="0 0 64 64">
  <path d="m50.55 22.28 1.24-20.44a1.503 1.503 0 0 0-1.5-1.59H13.71c-.41 0-.81.17-1.09.47-.28.3-.43.71-.41 1.12l3.25 53.8v6.62c0 .83.67 1.5 1.5 1.5h30.07c.83 0 1.5-.67 1.5-1.5v-6.62l1.99-32.93c.03-.14.04-.28.03-.42Zm-4.93 31.81H18.38l-1.75-28.93c5.08-3.26 10.15-1.89 15.5-.42 3.02.83 6.1 1.67 9.21 1.67 2 0 4.02-.36 6.03-1.29L45.62 54.1ZM48.7 3.25l-1.11 18.33c-4.67 2.98-9.53 1.66-14.67.26-5.08-1.39-10.77-2.93-16.5-.02L15.3 3.25h33.39Zm-3.16 57.51H18.47v-3.67h27.07v3.67Z" style="stroke-width:0"/>
</svg>
