<svg xmlns="http://www.w3.org/2000/svg" data-name="Layer 1" viewBox="0 0 64 64">
  <path d="m63.02 47.56-2.11-1.96c1.9-4.02 2.99-8.49 3.05-13.21V32C63.98 14.37 49.63.02 32 .02S.02 14.37.02 32v.39c.21 17.46 14.46 31.6 31.97 31.6 6.61 0 12.75-2.04 17.85-5.49l1.6 3.68c.32.73.91 1.31 1.65 1.6a2.986 2.986 0 0 0 2.3-.04l3.26-1.42c.73-.32 1.3-.91 1.6-1.65.29-.74.28-1.57-.04-2.3L58 53.3l3.48-.59c1.13-.19 2.05-1 2.37-2.1.33-1.09 0-2.28-.83-3.06ZM22.41 4.66c-2.44 2.6-4.48 6.17-5.97 10.43H8.49c3.44-4.77 8.28-8.45 13.92-10.43ZM6.59 18.09h8.93c-1.03 3.84-1.64 8.13-1.74 12.69H3.05c.19-4.58 1.45-8.89 3.53-12.69Zm-3.5 15.69h10.7c.13 4.35.73 8.44 1.72 12.12H6.59c-2-3.64-3.24-7.75-3.5-12.12Zm5.4 15.12h7.95c1.49 4.26 3.53 7.84 5.97 10.43-5.64-1.98-10.48-5.67-13.92-10.43ZM30.5 60.82c-4.37-.86-8.26-5.4-10.78-11.92H30.5v11.92Zm0-14.92H18.7c-1.08-3.66-1.76-7.78-1.91-12.12H30.5V45.9Zm0-15.12H16.78c.1-4.55.79-8.87 1.92-12.69h11.8v12.69Zm0-15.69H19.72C22.24 8.57 26.13 4.02 30.5 3.17v11.92Zm19.63 20.43c.04-.58.07-1.15.08-1.74h10.7c-.21 3.41-1.02 6.66-2.31 9.65l-8.48-7.91Zm10.82-4.74H50.23c-.09-4.56-.7-8.85-1.74-12.69h8.93c2.09 3.8 3.34 8.11 3.53 12.69Zm-5.43-15.69h-7.95c-1.49-4.26-3.53-7.84-5.97-10.43 5.64 1.98 10.48 5.67 13.92 10.43ZM33.5 3.17c4.37.86 8.27 5.4 10.78 11.92H33.5V3.17Zm0 14.92h11.8c1.13 3.82 1.82 8.14 1.92 12.69H33.5V18.09Zm0 15.69h8.23c-.06.23-.09.47-.09.72v11.41h-8.13V33.79Zm0 27.04V48.9h8.13v5.35c-2.28 3.59-5.08 5.98-8.13 6.57Zm20.21-9.85 3.74 8.59-3.26 1.42-3.72-8.59-5.85 4.47V34.51l16.36 15.25-7.27 1.23Z" style="stroke-width:0"/>
</svg>
