<svg xmlns="http://www.w3.org/2000/svg" data-name="Layer 1" viewBox="0 0 64 64">
  <path d="M62.49 51.29h-.65V17.52c0-4.3-3.5-7.81-7.81-7.81H9.96c-4.3 0-7.81 3.5-7.81 7.81v33.77H1.5c-.83 0-1.5.67-1.5 1.5s.67 1.5 1.5 1.5h60.99c.83 0 1.5-.67 1.5-1.5s-.67-1.5-1.5-1.5ZM26.23 28.54v5.58h-5.54v-5.58h5.54Zm8.54 0v5.58h-5.54v-5.58h5.54Zm8.54 0v5.58h-5.54v-5.58h5.54Zm8.54 0v6.4l-5.54-.65v-5.75h5.54Zm-31.14 8.58h5.54v5.58h-5.54v-5.58Zm8.54 0h5.54v5.58h-5.54v-5.58Zm8.54 0h5.54v5.58h-5.54v-5.58Zm8.54.19 5.54.65v6.35l-5.54-1.3V37.3Zm-28.61-3.02-5.54.65v-6.4h5.54v5.75Zm-5.54 3.67 5.54-.65v5.71l-5.54 1.3v-6.35Zm8.54 7.75h5.54v5.58h-5.54v-5.58Zm8.54 0h5.54v5.58h-5.54v-5.58Zm8.54 0h5.54v5.58H37.8v-5.58Zm8.54.39 5.54 1.3v3.89h-5.54V46.1Zm5.54-20.55h-3.43l3.43-3.45v3.45Zm-7.66 0h-5.56l2.6-5.58h8.51l-5.55 5.58Zm-8.87 0h-6.62l-2.6-5.58h11.83l-2.6 5.58Zm-12.54-5.58 2.6 5.58h-5.56l-5.55-5.58h8.51Zm-7.19 5.58h-3.43V22.1l3.43 3.45ZM12.19 47.4l5.54-1.3v5.19h-5.54V47.4Zm42.68 3.89V18.46c0-.19-.04-.38-.11-.54v-.02c-.08-.18-.19-.35-.33-.49s-.3-.25-.49-.32h-.03a1.4 1.4 0 0 0-.54-.1H10.66c-.19 0-.37.04-.54.1h-.03c-.18.08-.35.19-.49.32-.14.14-.25.31-.33.49v.02c-.07.17-.11.35-.11.54v32.82H5.15V17.52c0-2.65 2.16-4.81 4.81-4.81h44.08c2.65 0 4.81 2.16 4.81 4.81v33.77h-4.01Z" style="stroke-width:0"/>
</svg>
