<svg xmlns="http://www.w3.org/2000/svg" data-name="Layer 1" viewBox="0 0 64 64">
  <path d="M57.38 48.8c3.93-2.18 4.86-4.53 4.86-6.27 0-7.23-15.58-11.12-30.24-11.12-2.02 0-4.05.08-6.06.22V18.19l14.56-6.32c.58-.25.95-.82.95-1.45s-.37-1.2-.95-1.45L25.94 2.65V1.58c0-.87-.71-1.58-1.58-1.58s-1.58.71-1.58 1.58v30.33c-11.3 1.28-21.02 4.9-21.02 10.61 0 3.67 4.15 6.82 11.5 8.86-1.02 1.19-1.3 2.32-1.3 3.19 0 6.19 12.65 9.42 25.14 9.42s25.14-3.24 25.14-9.42c0-1.65-.93-3.84-4.86-5.78ZM35.9 10.42l-9.96 4.32V6.1l9.96 4.32Zm1.2 50.42c-13.42 0-21.98-3.71-21.98-6.26 0-.77.89-1.71 2.43-2.59.57-.32.88-.97.78-1.62-.1-.65-.59-1.17-1.24-1.3C8.72 47.32 4.9 44.45 4.9 42.53c0-2.66 6.61-6.16 17.86-7.46v6.86c0 2.68 2.96 4.7 6.88 4.7s6.89-2.02 6.89-4.7-2.96-4.7-6.89-4.7c-1.39 0-2.66.26-3.72.71v-3.16c1.91-.14 3.93-.21 6.06-.21 16.78 0 27.08 4.64 27.08 7.96 0 1.6-2.35 3.43-6.29 4.89-.63.24-1.05.85-1.03 1.52a1.6 1.6 0 0 0 1.1 1.47c4.59 1.46 6.22 3.16 6.22 4.17 0 2.55-8.56 6.26-21.98 6.26ZM25.94 41.93c0-.53 1.45-1.54 3.72-1.54s3.72 1.01 3.72 1.54-1.45 1.54-3.72 1.54-3.72-1.01-3.72-1.54Zm18.13 10.01c0 1.72-1.39 3.12-3.12 3.12s-3.12-1.39-3.12-3.12 1.4-3.12 3.12-3.12 3.12 1.39 3.12 3.12Z" style="stroke-width:0"/>
</svg>
