<svg xmlns="http://www.w3.org/2000/svg" data-name="Layer 1" viewBox="0 0 64 64">
  <path d="M63.91 5.94c-.06-.39-.27-.75-.59-.98l-4.85-3.57c-.67-.49-1.61-.35-2.1.32L44.04 18.44c-.24.32-.33.72-.28 1.11s.27.75.59.98l1.23.91-21.19 28.93-19.1-7.14a3.865 3.865 0 0 0-3.63.49 3.87 3.87 0 0 0-1.6 3.29l.36 9.23a3.868 3.868 0 0 0 2.73 3.55l8.81 2.73c.85.26 1.71.39 2.56.39 2.71 0 5.34-1.28 7-3.55l4.61-6.3 21.85-29.83 1.2.88c.27.2.58.29.89.29.46 0 .92-.21 1.21-.61L63.61 7.06c.24-.32.33-.72.28-1.11ZM12.86 59.65l-8.81-2.73a.892.892 0 0 1-.62-.8l-.36-9.23a.86.86 0 0 1 .36-.74c.08-.06.27-.17.51-.17.09 0 .2.02.31.06l18.31 6.84-.99 1.36-8-2.95c-.77-.28-1.64.11-1.93.89a1.5 1.5 0 0 0 .89 1.93l7.2 2.65-.49.66L12.66 55a1.504 1.504 0 0 0-1.04 2.82l4.8 1.77c-1.12.4-2.37.44-3.56.07ZM49.78 20.8l-2.43-1.79L57.9 4.69l2.43 1.79L49.78 20.8Z" style="stroke-width:0"/>
</svg>
