<svg xmlns="http://www.w3.org/2000/svg" data-name="Layer 1" viewBox="0 0 64 64">
  <path d="M21.93 12.59c-.62-.56-.67-1.51-.11-2.13.56-.62 1.51-.67 2.13-.11.16.15.39.22.59.21.22-.01.42-.11.57-.27.15-.16.22-.37.21-.59s-.11-.42-.27-.57c-.62-.56-.67-1.51-.11-2.13.56-.62 1.51-.67 2.13-.11.76.69 1.21 1.63 1.26 2.65.05 1.02-.3 2.01-.99 2.77-.69.76-1.63 1.21-2.65 1.26h-.2c-.95 0-1.86-.35-2.57-.99Zm.23 3.38c-.62-.56-1.57-.51-2.13.11-.56.62-.51 1.57.11 2.13.16.15.26.35.27.57a.822.822 0 0 1-1.37.65c-.62-.56-1.57-.51-2.13.11-.56.62-.51 1.57.11 2.13.73.66 1.65.99 2.57.99 1.05 0 2.09-.43 2.85-1.26a3.81 3.81 0 0 0 .99-2.77c-.05-1.02-.5-1.97-1.26-2.65Zm4.59 3.56c-.56.62-.51 1.57.11 2.13.71.64 1.62.99 2.57.99h.2c1.02-.05 1.97-.5 2.65-1.26a3.81 3.81 0 0 0 .99-2.77c-.05-1.02-.5-1.97-1.26-2.65-.62-.56-1.57-.51-2.13.11-.56.62-.51 1.57.11 2.13.16.15.26.35.27.57.01.22-.06.43-.21.59-.15.16-.35.26-.57.27-.24 0-.43-.06-.59-.21-.62-.56-1.57-.51-2.13.11Zm37 43.46c-.22.62-.8 1.01-1.42 1.01-.17 0-.33-.03-.5-.09-7.42-2.6-18.3-4.1-29.83-4.1S9.6 61.3 2.17 63.9a1.505 1.505 0 1 1-.99-2.84c6.81-2.39 16.34-3.88 26.61-4.2l-1.23-8.11a5.912 5.912 0 0 1-5.46-5.89v-1.53s.01-.09.01-.14c-6.66-3.8-11.16-10.96-11.16-19.15C9.96 9.89 19.85 0 32 0s22.04 9.89 22.04 22.04c0 8.2-4.5 15.36-11.16 19.16 0 .05.01.09.01.14v1.53c0 3.11-2.41 5.66-5.46 5.89l-1.23 8.11c10.28.32 19.8 1.81 26.61 4.2.79.28 1.2 1.14.93 1.92ZM24.05 39.3h15.91c6.53-3.01 11.07-9.6 11.07-17.25C51.03 11.56 42.5 3.02 32 3.02s-19.02 8.53-19.02 19.02c0 7.65 4.54 14.24 11.07 17.25Zm2.97 6.46h9.96c1.6 0 2.9-1.3 2.9-2.9v-.55H24.12v.55c0 1.6 1.3 2.9 2.9 2.9ZM32 56.8h1.17l1.22-8.03h-4.76l1.21 8.03h1.17Z" style="stroke-width:0"/>
</svg>
