<svg xmlns="http://www.w3.org/2000/svg" data-name="Layer 1" viewBox="0 0 64 64">
  <path d="M63.81 21.73c-.3-.82-.98-1.45-1.79-1.77L33.27 8.58a3.038 3.038 0 0 0-2.22 0L1 20.48a1.577 1.577 0 1 0 1.17 2.93l30-12.03L61 22.79 32.17 35.2l-18.34-7.9c-.74-.32-1.63 0-1.98.79-.34.77.09 1.67.86 2l.24.1c.35 7.11-.55 15.98-1.88 18.45-.38.71-.14 1.59.55 2l.13.08c6.45 3.94 14.67 4.77 20.42 4.77s13.97-.83 20.42-4.77l.13-.08c.69-.41.93-1.3.55-2-1.34-2.49-2.23-11.25-1.88-18.45l10.8-4.65c1.42-.61 2.2-2.24 1.63-3.82ZM50.05 48.72c-4.55 2.47-10.71 3.77-17.89 3.77s-13.33-1.3-17.89-3.77c1.28-3.79 1.88-11.13 1.72-17.21l14.97 6.45c.38.16.78.24 1.19.24s.81-.08 1.19-.24l14.97-6.45c-.15 6.04.46 13.42 1.72 17.21Zm-39.51-8.09c0-1.86-1.18-3.44-2.83-4.05v-9.97l22.59-2.14c.53.24 1.16.39 1.86.39 1.78 0 3.22-.93 3.22-2.07s-1.44-2.07-3.22-2.07c-1.03 0-1.94.32-2.52.8L6.07 23.76c-.77.07-1.36.72-1.36 1.5v11.33a4.321 4.321 0 0 0-2.83 4.05c0 1.22.51 2.32 1.33 3.11L1.89 53.94c-.06.43.08.86.36 1.19.29.32.7.51 1.13.51h5.66c.43 0 .84-.19 1.13-.51.29-.32.42-.76.36-1.19L9.21 43.75c.82-.79 1.33-1.89 1.33-3.11Zm-5.66 0c0-.73.6-1.33 1.33-1.33s1.33.6 1.33 1.33-.6 1.33-1.33 1.33-1.33-.6-1.33-1.33Zm2.45 11.99H5.09l.99-7.67s.08.01.13.01.08-.01.13-.01l.99 7.67Z" style="stroke-width:0"/>
</svg>
