<svg xmlns="http://www.w3.org/2000/svg" data-name="Layer 1" viewBox="0 0 64 64">
  <path d="m63.62 24.4-4-4a1.49 1.49 0 0 0-2.12 0c-.19.19-.36.19-.55 0-.77-.77-.77-2.02 0-2.8.28-.28.44-.67.44-1.07s-.16-.78-.45-1.06c-.35-.35-8.71-8.53-12.15-10.63C39.1 1.36 28.88-.51 20.33 2.63c-.6.22-.99.79-.98 1.43 0 .64.42 1.2 1.02 1.4.1.03 9.63 3.26 14.89 6.9 1.37.95 1.78 2.78.95 4.25l-1.74 3.08c-.28.5-.23 1.1.08 1.57L1.97 50.67c-1 .91-1.57 2.17-1.6 3.54-.03 1.39.52 2.76 1.52 3.75l3.53 3.53c.97.97 2.29 1.52 3.64 1.52h.11c1.37-.03 2.62-.6 3.54-1.61L42.1 28.85c.4.35.96.47 1.46.3 1.66-.57 3.34-.39 4.18.45.09.09.11.2.11.27s-.02.18-.11.27a1.499 1.499 0 0 0 0 2.12l4 4a1.499 1.499 0 0 0 2.12 0l9.75-9.75c.59-.59.59-1.54 0-2.12ZM10.49 59.39c-.36.39-.85.61-1.39.62-.58.03-1.14-.21-1.56-.64l-3.53-3.53c-.42-.42-.65-.98-.64-1.56.01-.54.23-1.03.62-1.38l32.65-29.48 3.33 3.33-29.48 32.64Zm42.31-26.3-2.12-2.12c.12-.35.18-.71.18-1.09 0-.91-.35-1.76-.99-2.4-1.49-1.5-3.87-2.02-6.35-1.43l-.42-.42-5.34-5.34-.11-.11 1.18-2.08c1.6-2.83.8-6.35-1.85-8.19-3.21-2.22-7.72-4.24-11.08-5.58 6.48-.95 13.34.64 17.33 3.08 2.53 1.55 8.42 7.13 10.7 9.32a4.99 4.99 0 0 0 .91 5.8c.91.91 2.31 1.21 3.49.81l2.12 2.12-7.63 7.63Z" style="stroke-width:0"/>
</svg>
