<svg xmlns="http://www.w3.org/2000/svg" data-name="Layer 1" viewBox="0 0 64 64">
  <path d="M63 53.02 33.05 21.25l-2.57-4.95-.07-.1c-.01-.02-.01-.04-.02-.05l-5-7.28c.34-.57.28-1.31-.21-1.81l-2.95-2.95c-.28-.28-.66-.44-1.06-.44-.27 0-.54.08-.77.22l-3.89-2.67a6.4 6.4 0 0 0-8.16.75l-6.4 6.37a6.412 6.412 0 0 0-.75 8.16l2.69 3.91c-.34.57-.28 1.31.21 1.81l2.95 2.95c.28.28.66.44 1.06.44.27 0 .54-.08.77-.22l7.26 4.99.06.03c.03.02.06.05.09.06l4.95 2.57 31.75 29.93c.61.61 1.45.94 2.34.94.11 0 .21 0 .32-.01.93-.08 1.82-.51 2.51-1.2l4.53-4.53c1.49-1.49 1.62-3.8.29-5.15ZM16.81 27.21l-5.73-3.94 12.19-12.19 3.94 5.73-5.2 5.2-5.2 5.2Zm4.35-19.92.83.83L8.11 22l-.83-.83L21.16 7.29ZM4.07 10.47l6.39-6.39a3.4 3.4 0 0 1 4.34-.4l3.39 2.33L6 18.2l-2.33-3.39a3.41 3.41 0 0 1 .4-4.34Zm24.69 9.04 1.22 2.35-.3.3-7.83 7.83-2.35-1.22 9.26-9.26Zm.57 7.24 2.45-2.45 23.73 25.17-6.06 6.06L24.28 31.8l5.05-5.05Zm31.26 29.32-4.53 4.53c-.19.19-.43.32-.66.33-.06 0-.2 0-.3-.09l-3.46-3.26 5.94-5.94 3.26 3.46.03.03c.12.12.1.56-.27.93ZM34.51 34.52c-.29.29-.68.44-1.06.44s-.77-.15-1.06-.44l-1.8-1.8a1.49 1.49 0 0 1 0-2.12 1.49 1.49 0 0 1 2.12 0l1.8 1.8c.59.59.59 1.54 0 2.12Z" style="stroke-width:0"/>
</svg>
