<svg xmlns="http://www.w3.org/2000/svg" data-name="Layer 1" viewBox="0 0 64 64">
  <path d="m63.08 1.98-.22-.83-.83-.22c-.54-.15-13.27-3.49-20.94 4.18l-17.6 17.6c-.43.43-.63 1.05-.52 1.65.1.6.49 1.11 1.04 1.37.84.4 2.67 1.4 5.01 3.27l-1.27 1.27c-1.41-.72-3.17-.51-4.35.67l-1.17 1.17c-.98.98-1.32 2.38-.94 3.67-.06.04-.12.08-.19.12l-.2.12c-.48.29-1.05.58-1.69.88-.44.2-.88.43-1.35.69-.1.06-.49.28-.59.34-1.43.86-2.74 1.87-3.88 3.02l-11.3 11.3c-1.65 1.65-2.34 4-1.84 6.29.02.08.11.43.13.52.32 1.07.91 2.06 1.71 2.86.26.26.55.5.87.73.06.04.32.22.41.27a6.85 6.85 0 0 0 7.27-.11c.25-.16.91-.7 1.13-.92l11.28-11.28c1.44-1.44 2.66-3.11 3.63-4.98.02-.05.05-.09.07-.14.03-.06.07-.13.11-.22l.24-.48c.47-1.01.84-1.66 1.13-2.08.43.11.97.16 1.22.15.93-.05 1.8-.43 2.45-1.08l1.17-1.17c1.18-1.18 1.39-2.94.67-4.35l1.27-1.27c1.88 2.34 2.87 4.18 3.27 5.02.26.55.78.94 1.38 1.04.1.02.21.03.31.03.49 0 .97-.2 1.33-.55l17.6-17.6c7.67-7.67 4.32-20.4 4.18-20.94Zm-32.14 36.5-1.17 1.17c-.13.13-.3.2-.41.21-.08 0-.27-.03-.37-.05-.05-.02-.09-.04-.14-.06-.51-.32-1.53-.67-2.57.56-.59.7-1.23 1.78-1.9 3.22-.06.13-.13.26-.19.39l-.17.34a17 17 0 0 1-3.09 4.23L9.66 59.77c-.1.1-.54.45-.65.53-1.22.8-2.83.82-4.07.06-.05-.03-.19-.12-.24-.15a3.817 3.817 0 0 1-1.54-2.32 3.84 3.84 0 0 1 1.03-3.53l11.3-11.3c.97-.97 2.08-1.83 3.31-2.56a18.701 18.701 0 0 1 1.67-.89c.73-.34 1.39-.68 1.96-1.02l.26-.16c.39-.25.73-.49 1-.72 1.23-1.04.88-2.06.56-2.57a.74.74 0 0 1 .09-.92l1.17-1.17a.744.744 0 0 1 1.06 0l4.37 4.37c.29.29.29.77 0 1.06Zm.81-4.49L30 32.24l8.44-8.44a1.258 1.258 0 0 1 1.76 0c.48.48.48 1.27 0 1.75l-8.44 8.44Zm25.02-13.2L40.25 37.31c-.64-1.13-1.66-2.68-3.11-4.47l5.17-5.17a4.243 4.243 0 0 0 0-5.99c-.8-.8-1.86-1.24-3-1.24s-2.2.44-3 1.24l-5.17 5.17c-1.79-1.46-3.34-2.47-4.47-3.11L43.21 7.22c5.4-5.4 14.37-4.15 17.17-3.6.56 2.8 1.8 11.77-3.6 17.17Z" style="stroke-width:0"/>
</svg>
