<svg xmlns="http://www.w3.org/2000/svg" data-name="Layer 1" viewBox="0 0 64 64">
  <path d="m60.84 47.4-.92-1.19c-1.96-2.53-1.64-3.38-.68-5.92.32-.84.68-1.79 1-2.95.48-1.73.45-3.48.41-5.33-.04-2.19-.09-4.46.68-7.1.47-1.62 0-3.34-1.24-4.48a4.262 4.262 0 0 0-4.39-.87c-2.05.77-3.44 2.64-3.94 3.41-1.15 1.75-1.47 3.38-1.76 4.82-.2 1.02-.37 1.82-.77 2.52L34.69 11.52c-1.43-1.85-3.94-2.46-5.98-1.46-.95.47-1.71 1.22-2.18 2.14-.76-.53-1.68-.84-2.63-.87-1.45-.04-2.84.58-3.8 1.69-1.15 1.33-1.43 3.18-.83 4.81a4.84 4.84 0 0 0-2.63 1.58c-1.46 1.69-1.52 4.23-.15 6.07-.59.17-1.15.45-1.66.84a4.833 4.833 0 0 0-.86 6.77l4.72 6.1 5 6.46c.58.75 2.66 3.44 3.44 4.44l.29.37c3.16 4.09 5.69 5.43 7.92 6.61 1.82.97 3.4 1.81 5.22 4.16l.92 1.19a3.768 3.768 0 0 0 3 1.47c.83 0 1.64-.27 2.3-.79l13.41-10.38c1.65-1.27 1.95-3.65.68-5.3Zm-2.51 2.93L44.92 60.71c-.16.13-.37.18-.57.16a.775.775 0 0 1-.52-.3l-.92-1.19c-2.21-2.86-4.23-3.93-6.19-4.97-2.06-1.09-4.18-2.22-6.95-5.8l-8.73-11.28-4.72-6.1c-.62-.8-.47-1.94.33-2.56.63-.48 1.47-.53 2.05-.11.34.24.54.48.56.51l7.57 9.79a1.51 1.51 0 0 0 2.11.27c.66-.51.78-1.45.27-2.1l-7.55-9.76-.01-.02-.07-.08-2.67-3.45c-.55-.71-.56-1.73-.02-2.35.38-.44.88-.67 1.45-.66.55.02 1.06.27 1.39.71L32.09 34.8a1.51 1.51 0 0 0 2.11.27c.66-.51.78-1.45.27-2.1L22.96 18.09l-.58-.75c-.55-.71-.56-1.73-.02-2.35.38-.44.89-.67 1.45-.66.55.02 1.06.27 1.4.71l.64.82 11.51 14.88a1.51 1.51 0 0 0 2.11.27c.66-.51.78-1.45.27-2.1L29.38 15.53c-.34-.43-.46-.99-.33-1.53s.48-.99 1-1.24c.74-.37 1.72-.11 2.27.61l15.63 20.2c.51.66 1.45.77 2.1.27 2.13-1.65 2.53-3.66 2.89-5.44.26-1.28.5-2.49 1.33-3.76.71-1.08 1.64-1.92 2.49-2.24.65-.24 1.12.1 1.29.26.4.37.55.92.4 1.45-.89 3.08-.84 5.69-.79 8 .03 1.7.06 3.16-.3 4.46a28.96 28.96 0 0 1-.92 2.7c-1.04 2.77-1.87 4.96 1.11 8.81l.92 1.19c.26.34.2.83-.14 1.09ZM48.56 20.4c-.06 0-.12 0-.18-.01-.82-.1-1.41-.85-1.31-1.67.26-2.12-.48-4.47-2.02-6.46-1.54-1.99-3.64-3.3-5.75-3.57a1.498 1.498 0 1 1 .39-2.97c2.89.38 5.71 2.1 7.73 4.71 2.02 2.61 2.98 5.77 2.62 8.67-.09.76-.74 1.32-1.49 1.32Zm6.06-3.37h-.06a1.5 1.5 0 0 1-1.44-1.56c.09-2.39-.97-5.26-2.85-7.68-1.87-2.42-4.38-4.17-6.72-4.68a1.5 1.5 0 0 1-1.14-1.79A1.5 1.5 0 0 1 44.2.18c3.04.67 6.12 2.77 8.45 5.78 2.32 3 3.59 6.51 3.47 9.63a1.5 1.5 0 0 1-1.5 1.44ZM19 50.91c-.07 0-.13 0-.2-.01-2.89-.38-5.71-2.1-7.73-4.71-2.02-2.61-2.98-5.77-2.62-8.67.1-.82.85-1.41 1.67-1.31.82.1 1.41.85 1.31 1.67-.26 2.12.48 4.47 2.02 6.46 1.54 1.99 3.64 3.3 5.75 3.57a1.498 1.498 0 0 1-.19 2.98Zm-4.38 5.55c-.11 0-.21-.01-.32-.04-3.04-.67-6.12-2.77-8.45-5.78-2.32-3-3.59-6.51-3.47-9.63.03-.83.74-1.47 1.56-1.44a1.5 1.5 0 0 1 1.44 1.56c-.09 2.39.98 5.26 2.85 7.68s4.38 4.17 6.72 4.68a1.5 1.5 0 0 1 1.14 1.79c-.15.7-.77 1.18-1.46 1.18Z" style="stroke-width:0"/>
</svg>
