<svg xmlns="http://www.w3.org/2000/svg" data-name="Layer 1" viewBox="0 0 64 64">
  <path d="M63.63 39.09c-.94-2.36-3.58-3.62-6-2.85L43.2 40.76c.4-1.39.14-2.85-.72-4.02a4.567 4.567 0 0 0-3.71-1.87h-7.99c-.48 0-.95-.13-1.36-.38l-3.47-2.1a5.68 5.68 0 0 0-2.95-.82h-.16l-9.65 1.07c-.71-1.54-2.25-2.61-4.05-2.61H1.52c-.83 0-1.5.67-1.5 1.5v22.08c0 .83.67 1.5 1.5 1.5h7.6c1.5 0 2.83-.75 3.64-1.9l22.86 2.49c.27.04.54.05.82.05.87 0 1.73-.18 2.53-.54l22.1-9.85a4.87 4.87 0 0 0 2.55-6.28ZM9.13 52.11H3.02V33.03h6.1c.81 0 1.47.66 1.47 1.47v16.15c0 .81-.66 1.47-1.47 1.47Zm50.73-9.48-22.1 9.85c-.54.24-1.14.33-1.76.25l-22.4-2.44V35.61l9.47-1.05c.47.01.93.15 1.33.39l3.47 2.1c.88.53 1.89.81 2.91.81h7.99c.52 0 .99.24 1.3.66.31.42.4.94.24 1.43-.21.68-.83 1.14-1.54 1.14H28.64c-.83 0-1.5.67-1.5 1.5s.67 1.5 1.5 1.5h13.72c.15 0 .3-.02.45-.07l15.72-4.93c.93-.29 1.96.19 2.32 1.1.38.95-.06 2.01-.99 2.43ZM28.32 23.01c1.12 1.13 2.27 2.31 3.29 3.62.28.37.72.58 1.18.58s.9-.21 1.18-.58c1.02-1.31 2.17-2.48 3.29-3.62 2.32-2.36 4.51-4.59 5.19-7.68.89-4.08-1.21-6.67-3.69-7.43-1.91-.59-4.31-.18-5.97 1.47-1.66-1.65-4.06-2.05-5.97-1.47-2.48.76-4.59 3.36-3.69 7.43.68 3.09 2.87 5.32 5.19 7.68Zm-.61-12.24c.27-.08.55-.12.84-.12 1.11 0 2.3.61 2.85 1.97a1.499 1.499 0 0 0 2.78 0c.69-1.72 2.42-2.24 3.69-1.85 1.47.45 2.08 1.92 1.64 3.92-.49 2.25-2.3 4.09-4.4 6.22-.77.79-1.56 1.59-2.33 2.46-.77-.87-1.56-1.67-2.33-2.46-2.09-2.13-3.9-3.97-4.4-6.22-.44-2.01.18-3.47 1.64-3.92Z" style="stroke-width:0"/>
</svg>
