<svg xmlns="http://www.w3.org/2000/svg" data-name="Layer 1" viewBox="0 0 64 64">
  <path d="M63.65 42.26c-.94-2.35-3.56-3.59-5.97-2.84l-14.52 4.55c.43-1.4.17-2.88-.7-4.06a4.548 4.548 0 0 0-3.69-1.86h-8c-.49 0-.96-.13-1.38-.39l-3.48-2.11c-.89-.54-1.9-.82-2.94-.82h-.16l-9.69 1.07c-.7-1.54-2.24-2.62-4.04-2.62H1.46c-.81 0-1.46.66-1.46 1.46v22.12c0 .81.66 1.46 1.46 1.46h7.62c1.5 0 2.83-.75 3.63-1.9l22.92 2.5c.27.04.54.05.81.05.86 0 1.72-.18 2.52-.54l22.15-9.87a4.854 4.854 0 0 0 2.54-6.24ZM9.08 55.33H2.93V36.14h6.15c.83 0 1.51.68 1.51 1.51v16.18c0 .83-.68 1.51-1.51 1.51Zm50.84-9.5L37.77 55.7c-.55.25-1.16.33-1.79.25L13.51 53.5V38.73l9.52-1.05c.48.01.94.15 1.35.4l3.48 2.11c.87.53 1.88.81 2.9.81h8c.53 0 1.02.25 1.33.67.32.43.41.96.25 1.47-.22.7-.85 1.17-1.58 1.17H28.61c-.81 0-1.46.66-1.46 1.46s.66 1.46 1.46 1.46h13.75c.15 0 .3-.02.44-.07l15.75-4.94c.96-.3 2 .2 2.37 1.13.39.97-.06 2.06-1.01 2.48ZM35.88 21.35c0-.97-1.66-1.57-3.06-1.9-3.52-.84-5.31-2.43-5.31-4.75s1.78-4.07 4.18-4.62V5.09h2.93v4.99c2.4.55 4.18 2.41 4.18 4.62h-2.93c0-1.01-1.24-1.86-2.72-1.86s-2.72.85-2.72 1.86 1.91 1.63 3.06 1.9c3.52.84 5.31 2.43 5.31 4.75s-1.78 4.07-4.18 4.62v4.99h-2.93v-4.99c-2.4-.55-4.18-2.41-4.18-4.62h2.93c0 1.01 1.24 1.86 2.72 1.86s2.72-.85 2.72-1.86Z" style="stroke-width:0"/>
</svg>
