<svg xmlns="http://www.w3.org/2000/svg" data-name="Layer 1" viewBox="0 0 64 64">
  <path d="M57.25 13.83c0-2.94-2.39-5.33-5.33-5.33-.82 0-1.61.19-2.32.52v-.21c0-2.59-1.78-4.83-4.24-5.32a5.438 5.438 0 0 0-3.6.51C41.24 2.06 39.7.51 37.71.11c-1.6-.32-3.23.08-4.47 1.09a5.32 5.32 0 0 0-1.79 2.78 5.377 5.377 0 0 0-3.58-.5c-2.45.5-4.24 2.73-4.24 5.32v27.64c-1.04-.34-1.84-1.04-2.83-1.9-1.26-1.09-2.68-2.33-4.92-3.1-.98-.34-3.5-1.04-5.85-.32-1.7.52-2.94 1.94-3.23 3.7-.31 1.83.44 3.65 1.94 4.74 2.58 1.88 4.15 3.99 5.66 6.03 1.26 1.7 2.45 3.3 4.08 4.52 1.11.82 2.1 1.43 2.97 1.97 2.66 1.63 3.65 2.25 3.65 6.05v1.73c0 2.28 1.85 4.13 4.13 4.13h19.51c2.28 0 4.13-1.85 4.13-4.13v-1.73c0-3.47.85-5.36 1.84-7.54 1.19-2.63 2.53-5.6 2.53-11.5V13.82Zm-3.02 24.65v.63c0 5.25-1.15 7.79-2.26 10.26-1.04 2.3-2.11 4.67-2.11 8.79v1.73c0 .61-.5 1.11-1.11 1.11H29.24c-.61 0-1.11-.5-1.11-1.11v-1.73c0-5.49-2.24-6.87-5.08-8.61-.82-.51-1.75-1.08-2.75-1.82-1.27-.95-2.29-2.31-3.46-3.89-1.57-2.12-3.35-4.51-6.3-6.67-.69-.5-.83-1.26-.74-1.81.05-.31.27-1.05 1.15-1.32.4-.12.86-.18 1.35-.18.81 0 1.72.16 2.62.47 1.69.58 2.78 1.53 3.93 2.53 1.62 1.41 3.3 2.86 6.31 2.86.83 0 1.51-.67 1.51-1.51V8.8c0-1.16.76-2.15 1.82-2.37.72-.15 1.42.02 1.97.47.54.44.85 1.1.85 1.79v19.46c0 .83.67 1.51 1.51 1.51s1.51-.68 1.51-1.51V5.33c0-.7.31-1.35.85-1.79a2.29 2.29 0 0 1 1.96-.47c1.05.21 1.82 1.21 1.82 2.37v22.74c0 .83.67 1.51 1.51 1.51s1.51-.68 1.51-1.51V8.7c0-.7.31-1.35.85-1.79.55-.45 1.25-.62 1.96-.47 1.05.21 1.82 1.21 1.82 2.37v19.36c0 .83.67 1.51 1.51 1.51s1.51-.68 1.51-1.51V13.95s.01-.44.16-.94c.26-.88 1.15-1.5 2.15-1.5 1.28 0 2.32 1.04 2.32 2.32v24.65Z" style="stroke-width:0"/>
</svg>
