<svg xmlns="http://www.w3.org/2000/svg" data-name="Layer 1" viewBox="0 0 64 64">
  <path d="M63.63 28.2c-.94-2.36-3.58-3.61-6-2.85L43.2 29.87c.4-1.39.14-2.85-.72-4.02a4.567 4.567 0 0 0-3.71-1.87h-7.99c-.48 0-.95-.13-1.36-.38l-3.47-2.1a5.69 5.69 0 0 0-2.95-.83h-.16l-9.65 1.07c-.71-1.53-2.25-2.61-4.05-2.61H1.52c-.83 0-1.5.67-1.5 1.5v22.08c0 .83.67 1.5 1.5 1.5h7.6c1.5 0 2.83-.75 3.64-1.9l22.86 2.49c.27.04.54.05.82.05.87 0 1.73-.18 2.53-.54l22.1-9.85a4.87 4.87 0 0 0 2.55-6.28ZM9.13 41.22H3.02V22.14h6.1c.81 0 1.47.66 1.47 1.47v16.15c0 .81-.66 1.47-1.47 1.47Zm50.73-9.48-22.1 9.85c-.54.24-1.14.33-1.76.25L13.6 39.4V24.72l9.47-1.05c.47.01.93.15 1.33.39l3.47 2.1c.88.53 1.89.81 2.91.81h7.99c.52 0 .99.24 1.3.66s.4.94.24 1.43c-.21.68-.83 1.14-1.54 1.14H28.64c-.83 0-1.5.67-1.5 1.5s.67 1.5 1.5 1.5h13.72c.15 0 .3-.02.45-.07l15.72-4.93c.94-.29 1.96.19 2.32 1.1.38.95-.06 2.01-.99 2.43Z" style="stroke-width:0"/>
</svg>
