<svg xmlns="http://www.w3.org/2000/svg" data-name="Layer 1" viewBox="0 0 64 64">
  <path d="M58.82 19.64H48l-4.73-4.73a8.425 8.425 0 0 0-6-2.48c-1.93 0-3.77.64-5.27 1.84a8.387 8.387 0 0 0-5.27-1.84c-2.27 0-4.4.88-6 2.48L16 19.64H5.18C2.32 19.64 0 21.96 0 24.82v14.21c0 2.86 2.32 5.18 5.18 5.18h13.88l5.56 5.56c1.17 1.17 2.72 1.81 4.35 1.81s3.2-.64 4.35-1.81l.24-.23.1.1c2.4 2.4 6.31 2.4 8.71 0l.76-.76.22.22c1.03 1.03 2.39 1.6 3.85 1.6s2.83-.57 3.86-1.6a5.464 5.464 0 0 0 1.49-4.89h6.26c2.86 0 5.18-2.32 5.18-5.18V24.82c0-2.86-2.32-5.18-5.18-5.18ZM3.02 39.02V24.81c0-1.2.97-2.16 2.16-2.16h11.44c.4 0 .78-.16 1.07-.44l5.17-5.16a5.398 5.398 0 0 1 3.87-1.61c1.11 0 2.16.33 3.06.95l-7.49 7.49c-2.28 2.28-2.28 5.99 0 8.28.96.96 2.18 1.55 3.51 1.68.21.03.42.04.63.04 1.57 0 3.04-.61 4.14-1.72l3.5-3.5 12.54 12.53 2.32 2.32c.2.21.36.44.48.69.42.9.26 2.01-.48 2.76-.93.92-2.52.92-3.45 0l-.5-.5-.78-.78-1.47-1.47-3.02-3.02-1.5-1.5c-.58-.59-1.54-.59-2.13 0-.41.4-.53.99-.37 1.5.04.16.11.3.2.43.05.07.11.14.17.2l4.92 4.92-.76.76a3.145 3.145 0 0 1-4.45 0l-1.17-1.17-2.13-2.13-3.01-3.02-1.31-1.31c-.59-.58-1.55-.58-2.14 0a1.5 1.5 0 0 0-.41 1.31c.04.3.18.59.41.82l2.19 2.19 3.2 3.2-.24.23c-1.19 1.19-3.26 1.19-4.45 0l-3.43-3.43-2.57-2.57c-.28-.28-.66-.44-1.07-.44H5.18c-1.2 0-2.16-.97-2.16-2.16Zm57.97 0c0 1.2-.98 2.16-2.16 2.16H50.9L36.23 26.52l1.89-1.89c.21-.2.34-.44.39-.7.12-.44.03-.92-.26-1.28-.04-.05-.08-.1-.13-.15-.56-.56-1.47-.59-2.05-.07a.5.5 0 0 0-.08.07l-2.96 2.96-4.57 4.57c-1.08 1.08-2.95 1.08-4.02 0a2.84 2.84 0 0 1 0-4.01l7.57-7.56 1.4-1.4c.25-.25.52-.48.81-.66.9-.61 1.95-.95 3.06-.95 1.47 0 2.84.57 3.87 1.61l2.58 2.58 3.02 3.02 4.41 4.4 1.77 1.77c.59.59 1.54.59 2.13 0 .59-.58.59-1.54 0-2.13l-4.04-4.04h7.8c1.19 0 2.16.97 2.16 2.16v14.21Z" style="stroke-width:0"/>
</svg>
