<svg xmlns="http://www.w3.org/2000/svg" data-name="Layer 1" viewBox="0 0 64 64">
  <path d="M63.09 26.55c-1.57-1.27-4.63-.6-10.19.61-1.68.37-3.56.77-5.58 1.16-.48-1.62-.99-3.32-1.38-4.58-3.17-10.35-3.45-10.33-4.77-10.31-2.09.05-3.75.64-5.2 1.16-1.25.44-2.43.87-3.81.93-1.38-.07-2.56-.49-3.81-.93-1.46-.52-3.11-1.11-5.21-1.16-1.3-.02-1.6-.04-4.77 10.31-.39 1.27-.91 3-1.39 4.63-2.13-.41-4.12-.83-5.89-1.22-5.56-1.21-8.62-1.88-10.19-.61-.57.46-.89 1.14-.89 1.92 0 10.7 12.55 17.61 31.98 17.61s31.98-6.91 31.98-17.61c0-.78-.32-1.46-.89-1.92ZM23.94 16.49c1.23.15 2.29.52 3.41.92 1.42.51 2.89 1.03 4.75 1.11h.12c1.86-.08 3.33-.6 4.75-1.11 1.12-.4 2.18-.78 3.41-.92 1.1 2.66 3.9 12.07 5.02 15.93a56.178 56.178 0 0 1-26.48 0c1.11-3.86 3.92-13.27 5.02-15.93ZM32 43.08c-17.34 0-28.64-5.57-28.97-14.22 1.19-.13 4.49.59 7.43 1.23 1.71.37 3.62.78 5.67 1.18-.33 1.12-.55 1.92-.56 2.02-.1.75.38 1.47 1.11 1.66l.85.22c4.78 1.22 9.7 1.83 14.62 1.83s9.84-.61 14.62-1.83l.85-.22c.74-.19 1.22-.9 1.12-1.66-.01-.1-.25-.93-.58-2.08 1.94-.38 3.75-.77 5.37-1.12 2.94-.64 6.24-1.36 7.43-1.23-.33 8.65-11.63 14.22-28.97 14.22Z" style="stroke-width:0"/>
</svg>
