<svg xmlns="http://www.w3.org/2000/svg" data-name="Layer 1" viewBox="0 0 64 64">
  <path d="M62.22 37.02c-3.25-3.18-11.07-5.76-15.07-6.24-.9-5.01-1.93-10.75-2.11-11.83-.13-.76-.61-1.43-1.44-1.97-2.7-1.79-9.31-2.37-14.14-1.23-11.95 2.82-17.56 6.28-17.17 10.59.18 2.01.31 3.57.41 4.99-3.47 1.27-6.82 3.22-9.64 6.14C1.38 39.22-.91 43.8.5 46.73c.4.82 1.4 2.12 3.78 2.12.22 0 .45-.01.69-.03 2.92-.28 5.47-.66 8.17-1.07 4.59-.69 9.33-1.4 16.4-1.67l4.18-.15c12.18-.44 20.99-.75 28.14-3.1.41-.08.76-.22 1.05-.42.64-.44 1-1.12 1-1.93 0-1.18-.58-2.35-1.71-3.46ZM15.28 26.07c-.17-1.84 3.65-4.75 14.87-7.4 5.29-1.25 11.05 0 11.96.92.29 1.7 1.71 9.62 2.66 14.87-4.96-1.96-9.91-3.86-13.23-4.54-3.78-.78-9.82-1.07-15.89.49-.09-1.25-.21-2.63-.36-4.35Zm18.34 16.86-4.19.15c-7.24.27-12.07 1-16.74 1.7-2.66.4-5.17.78-8.01 1.05-.82.08-1.32-.06-1.49-.4-.56-1.15.54-4.33 2.02-5.87 5.48-5.69 13.51-7.24 19.65-7.24 2.39 0 4.49.24 6.05.55 3.39.69 8.88 2.87 14.19 4.97 3.94 1.56 7.08 2.77 9.57 3.62-5.68.93-12.53 1.17-21.07 1.48Zm14.42-7.17v-.06c-.1-.55-.21-1.16-.33-1.81 3.59.64 9.93 2.85 12.41 5.27.28.27.49.53.62.77-2.15-.1-7.99-2.32-12.7-4.17ZM33.11 24.74c-.07-.19-.11-.38-.11-.58a1.512 1.512 0 0 1 .93-1.39 1.5 1.5 0 0 1 1.14 0c.18.08.35.19.49.33.28.28.44.66.44 1.06 0 .2-.04.39-.11.58a1.582 1.582 0 0 1-.82.81c-.18.07-.37.11-.57.11s-.39-.04-.57-.11a1.582 1.582 0 0 1-.82-.81Zm-6.01.68c-.04-.83.58-1.53 1.41-1.58h.02c.85-.04 1.53.59 1.58 1.42.04.83-.59 1.53-1.42 1.58h-.08c-.79 0-1.46-.62-1.51-1.42Zm-2.92.89a1.5 1.5 0 0 1-1.27 1.7c-.07 0-.14.01-.21.01-.74 0-1.38-.54-1.49-1.29a1.5 1.5 0 0 1 1.27-1.7c.81-.12 1.58.45 1.7 1.27Z" style="stroke-width:0"/>
</svg>
