<svg xmlns="http://www.w3.org/2000/svg" data-name="Layer 1" viewBox="0 0 64 64">
  <path d="M59 31.67h-.09v-2.06c0-13.89-12.08-25.19-26.92-25.19S5.08 15.72 5.08 29.61v2.06h-.09c-2.72 0-4.95 2.22-4.95 4.95v13.49c0 2.73 2.22 4.95 4.95 4.95h.23a5.801 5.801 0 0 0 5.65 4.52h1.76a5.8 5.8 0 0 0 5.79-5.79V37.47a5.8 5.8 0 0 0-5.79-5.79H8.08v-2.06c0-6.6 3.12-12.53 8.07-16.6l.78.96c1.64 2.02 4.53 2.62 6.87 1.43 4.99-2.53 11.4-2.53 16.4 0 .81.41 1.68.61 2.54.61 1.64 0 3.25-.71 4.33-2.04l.78-.96c4.94 4.07 8.07 10 8.07 16.6v2.06h-4.55c-3.2 0-5.79 2.6-5.79 5.79v16.32a5.8 5.8 0 0 0 5.79 5.79h1.76c2.76 0 5.06-1.94 5.65-4.52h.23c2.73 0 4.95-2.22 4.95-4.95V36.62c0-2.73-2.22-4.95-4.95-4.95ZM3.04 50.11V36.62c0-1.08.88-1.95 1.95-1.95h.09v17.4h-.09c-1.08 0-1.95-.88-1.95-1.95Zm12.38-12.65v16.32c0 1.54-1.25 2.79-2.79 2.79h-1.76c-1.54 0-2.79-1.25-2.79-2.79V34.66h4.55c1.54 0 2.79 1.25 2.79 2.79Zm29.31-25.38c-.74.91-2.11 1.19-3.19.65-5.83-2.96-13.28-2.96-19.11 0-1.07.54-2.44.27-3.19-.65l-.68-.83c3.83-2.42 8.45-3.83 13.42-3.83s9.59 1.42 13.42 3.83l-.68.83Zm11.18 41.71c0 1.54-1.25 2.79-2.79 2.79h-1.76c-1.54 0-2.79-1.25-2.79-2.79V37.47c0-1.54 1.25-2.79 2.79-2.79h4.55V53.8Zm5.04-3.67c0 1.08-.88 1.95-1.95 1.95h-.09v-17.4H59c1.08 0 1.95.88 1.95 1.95v13.49Z" style="stroke-width:0"/>
</svg>
