<svg xmlns="http://www.w3.org/2000/svg" data-name="Layer 1" viewBox="0 0 64 64">
  <path d="M32 63.67c-.47 0-.9-.21-1.19-.58-3.85-4.95-8.13-9.31-12.28-13.52C10.49 41.4 2.9 33.68.68 23.54-2.22 10.3 4.66 3.17 11.43 1.09c6.86-2.11 15.87.1 20.57 7.96 4.7-7.86 13.71-10.06 20.57-7.96 6.77 2.08 13.65 9.21 10.75 22.44-2.22 10.15-9.81 17.86-17.85 26.03-4.14 4.21-8.43 8.57-12.28 13.52-.29.37-.73.58-1.19.58ZM16.55 3.35c-1.46 0-2.9.21-4.23.62-5.82 1.79-11.15 7.7-8.69 18.92 2.04 9.3 9 16.37 17.05 24.57 3.79 3.85 7.69 7.82 11.32 12.29 3.63-4.47 7.53-8.44 11.32-12.29 8.06-8.19 15.02-15.27 17.05-24.57 2.46-11.22-2.88-17.13-8.69-18.92-6.33-1.94-14.89.56-18.28 9.04-.23.57-.78.95-1.4.95-.62 0-1.17-.38-1.4-.95-2.68-6.69-8.57-9.66-14.05-9.66Z" style="stroke-width:0"/>
</svg>
