<svg xmlns="http://www.w3.org/2000/svg" data-name="Layer 1" viewBox="0 0 64 64">
  <path d="m63.59 10.66-.86-1.18 1.05-2.78a1.505 1.505 0 0 0-1.4-2.03h-5.01c-8.08 0-11.76 5.31-14.45 9.19-.84 1.21-1.64 2.36-2.41 3.08-.1-.14-.22-.26-.36-.36-.42-.28-.95-.33-1.41-.14-3.07 1.27-16.03 1.25-19.42.79-.43-.06-.86.07-1.19.36-.17.14-.29.32-.38.52-.22 0-.43.01-.66.02-.33 0-3.25.05-4.17.11C6.57 18.68.14 23.63.14 32.25v6c0 .83.67 1.5 1.5 1.5s1.5-.67 1.5-1.5v-6c0-3.64 1.37-6.36 3.34-8.18-1.25 2.46-1.6 5.24-.9 7.71l1 3.5-2.3 8.81c-.03.13-.05.27-.05.4s.02.27.06.4l4 13.63a1.5 1.5 0 0 0 1.44 1.08h5.85c.83 0 1.5-.67 1.5-1.5 0-2.17-.61-4.56-1.21-6.88-.62-2.43-1.48-5.75-.52-6.04 1.4-.42 2.7-1.17 3.78-2.16.04-.03.08-.06.11-.1.66-.62 1.24-1.34 1.7-2.12a7.487 7.487 0 0 0 .51-1.04c.02-.06.05-.11.07-.17h14.49l1.86 18.53c.08.77.72 1.35 1.49 1.35h5.85c.83 0 1.5-.67 1.5-1.5V39.21c3.38-1.06 5.79-4.24 5.79-7.87v-4.5c.02-.62.88-2.4 1.67-3.71.52 1.22 1.29 2.61 2.62 3.28.21.1.44.16.67.16h4.89c.83 0 1.5-.67 1.5-1.5V11.55c0-.32-.1-.63-.29-.89ZM22.26 31.81c-.1-.82-.86-1.4-1.67-1.3-.82.1-1.4.85-1.3 1.67 0 .02.3 2.49 0 4.27-.08.46-.17.86-.27 1.23-.08.3-.18.58-.28.83 0 .02-.02.04-.02.06-.1.26-.22.49-.34.7a6.88 6.88 0 0 1-2.71 2.56c-.37.19-.76.35-1.16.47-3.72 1.11-2.55 5.65-1.52 9.66.4 1.57.82 3.18 1.01 4.63h-3.12L7.31 44.44l2.3-8.8c.03-.12.04-.24.04-.36v-.1c0-.09-.02-.19-.04-.28v-.06l-1.12-3.9c-.6-2.09-.08-4.64 1.36-6.66 1.3-1.83 3.16-2.94 5.11-3.04.92-.05 1.81-.09 2.67-.12v2.86c0 3.23 2.42 5.91 5.64 6.22l5.51.54v5.84h-6.47c.28-2.15-.03-4.67-.04-4.78Zm1.29-4.59a3.24 3.24 0 0 1-2.93-3.24v-3.62c4.04.24 12.57.29 17.2-.58v5.25c0 .93-.38 1.79-1.07 2.41s-1.58.92-2.5.83l-10.7-1.05Zm37.33-3.66h-2.94c-.56-.5-1.02-1.7-1.31-2.45-.42-1.09-.86-2.22-2.1-2.22-2.07 0-4.99 6.33-4.99 7.94v4.5c0 2.59-1.93 4.82-4.5 5.19-.74.11-1.29.74-1.29 1.48v18.46h-2.99L38.9 37.93c-.08-.77-.72-1.35-1.49-1.35h-5.62v-5.55l2.18.21a6.241 6.241 0 0 0 4.81-1.59 6.27 6.27 0 0 0 2.05-4.63v-4.71c1.81-.79 3.1-2.62 4.57-4.75 2.57-3.7 5.48-7.9 11.98-7.9h2.84l-.57 1.51c-.18.47-.11 1.01.19 1.42l1.05 1.44v11.53Z" style="stroke-width:0"/>
</svg>
