<svg xmlns="http://www.w3.org/2000/svg" data-name="Layer 1" viewBox="0 0 64 64">
  <path d="M29.21 46.55h5.57c.83 0 1.5-.67 1.5-1.5v-5.78c0-.83-.67-1.5-1.5-1.5h-5.57c-.83 0-1.5.67-1.5 1.5v5.78c0 .83.67 1.5 1.5 1.5Zm1.5-5.78h2.57v2.78h-2.57v-2.78Zm9.63 5.78h5.57c.83 0 1.5-.67 1.5-1.5v-5.78c0-.83-.67-1.5-1.5-1.5h-5.57c-.83 0-1.5.67-1.5 1.5v5.78c0 .83.67 1.5 1.5 1.5Zm1.5-5.78h2.57v2.78h-2.57v-2.78Zm-23.76 5.78h5.57c.83 0 1.5-.67 1.5-1.5v-5.78c0-.83-.67-1.5-1.5-1.5h-5.57c-.83 0-1.5.67-1.5 1.5v5.78c0 .83.67 1.5 1.5 1.5Zm1.5-5.78h2.57v2.78h-2.57v-2.78Zm9.63-5.5h5.57c.83 0 1.5-.67 1.5-1.5v-5.78c0-.83-.67-1.5-1.5-1.5h-5.57c-.83 0-1.5.67-1.5 1.5v5.78c0 .83.67 1.5 1.5 1.5Zm1.5-5.78h2.57v2.78h-2.57v-2.78Zm9.63 5.78h5.57c.83 0 1.5-.67 1.5-1.5v-5.78c0-.83-.67-1.5-1.5-1.5h-5.57c-.83 0-1.5.67-1.5 1.5v5.78c0 .83.67 1.5 1.5 1.5Zm1.5-5.78h2.57v2.78h-2.57v-2.78Zm-23.76 5.78h5.57c.83 0 1.5-.67 1.5-1.5v-5.78c0-.83-.67-1.5-1.5-1.5h-5.57c-.83 0-1.5.67-1.5 1.5v5.78c0 .83.67 1.5 1.5 1.5Zm1.5-5.78h2.57v2.78h-2.57v-2.78Zm17.04-16.81c0 .83-.67 1.5-1.5 1.5h-1.63v1.63c0 .83-.67 1.5-1.5 1.5s-1.5-.67-1.5-1.5v-1.63h-1.63c-.83 0-1.5-.67-1.5-1.5s.67-1.5 1.5-1.5h1.63V9.55c0-.83.67-1.5 1.5-1.5s1.5.67 1.5 1.5v1.63h1.63c.83 0 1.5.67 1.5 1.5Zm25.83 48.3h-.67v-31.4c0-.83-.67-1.5-1.5-1.5h-7.47V16.23h.38c.83 0 1.5-.67 1.5-1.5V9.72c0-.83-.67-1.5-1.5-1.5H40.67V5.51c0-.83-.67-1.5-1.5-1.5H24.84c-.83 0-1.5.67-1.5 1.5v2.71H10.82c-.83 0-1.5.67-1.5 1.5v5.01c0 .83.67 1.5 1.5 1.5h.38v11.85H3.72c-.83 0-1.5.67-1.5 1.5v31.4h-.67c-.83 0-1.5.67-1.5 1.5s.67 1.5 1.5 1.5h60.9c.83 0 1.5-.67 1.5-1.5s-.67-1.5-1.5-1.5Zm-51.26-7.82H9.2v-2.78h1.99v2.78Zm0-11.47H9.2v-2.78h1.99v2.78Zm22.31 12.3h3.38v7H33.5v-7Zm19.31-15.08h1.99v2.78h-1.99v-2.78Zm0 11.47h1.99v2.78h-1.99v-2.78ZM30.5 60.98h-3.38v-7h3.38v7Zm28.28-29.9v29.9h-5.97v-4.82h3.49c.83 0 1.5-.67 1.5-1.5v-5.78c0-.83-.67-1.5-1.5-1.5h-3.49v-2.69h3.49c.83 0 1.5-.67 1.5-1.5v-5.78c0-.83-.67-1.5-1.5-1.5h-3.49v-4.82h5.97Zm-7.09-19.86v2.01H40.67v-2.01h11.02ZM26.34 7.01h11.33v11.33H26.34V7.02Zm-14.02 4.21h11.02v2.01H12.32v-2.01Zm11.02 5.01v3.61c0 .83.67 1.5 1.5 1.5h14.33c.83 0 1.5-.67 1.5-1.5v-3.61h9.14v44.74h-9.92v-8.5c0-.83-.67-1.5-1.5-1.5H25.62c-.83 0-1.5.67-1.5 1.5v8.5H14.2V16.24h9.14ZM5.22 31.08h5.97v4.82H7.7c-.83 0-1.5.67-1.5 1.5v5.78c0 .83.67 1.5 1.5 1.5h3.49v2.69H7.7c-.83 0-1.5.67-1.5 1.5v5.78c0 .83.67 1.5 1.5 1.5h3.49v4.82H5.22v-29.9Zm42.1 20.34v2.5c0 .83-.67 1.5-1.5 1.5s-1.5-.67-1.5-1.5v-2.5c0-.83.67-1.5 1.5-1.5s1.5.67 1.5 1.5Zm-27.64 0v2.5c0 .83-.67 1.5-1.5 1.5s-1.5-.67-1.5-1.5v-2.5c0-.83.67-1.5 1.5-1.5s1.5.67 1.5 1.5Z" style="stroke-width:0"/>
</svg>
