<svg xmlns="http://www.w3.org/2000/svg" data-name="Layer 1" viewBox="0 0 64 64">
  <path d="M18.18 31.5h5.57c.83 0 1.5-.67 1.5-1.5v-5.78c0-.83-.67-1.5-1.5-1.5h-5.57c-.83 0-1.5.67-1.5 1.5V30c0 .83.67 1.5 1.5 1.5Zm1.5-5.78h2.57v2.78h-2.57v-2.78Zm9.53 5.78h5.57c.83 0 1.5-.67 1.5-1.5v-5.78c0-.83-.67-1.5-1.5-1.5h-5.57c-.83 0-1.5.67-1.5 1.5V30c0 .83.67 1.5 1.5 1.5Zm1.5-5.78h2.57v2.78h-2.57v-2.78Zm9.53 5.78h5.57c.83 0 1.5-.67 1.5-1.5v-5.78c0-.83-.67-1.5-1.5-1.5h-5.57c-.83 0-1.5.67-1.5 1.5V30c0 .83.67 1.5 1.5 1.5Zm1.5-5.78h2.57v2.78h-2.57v-2.78ZM18.17 42.97h5.57c.83 0 1.5-.67 1.5-1.5v-5.78c0-.83-.67-1.5-1.5-1.5h-5.57c-.83 0-1.5.67-1.5 1.5v5.78c0 .83.67 1.5 1.5 1.5Zm1.5-5.78h2.57v2.78h-2.57v-2.78Zm9.53 5.78h5.57c.83 0 1.5-.67 1.5-1.5v-5.78c0-.83-.67-1.5-1.5-1.5H29.2c-.83 0-1.5.67-1.5 1.5v5.78c0 .83.67 1.5 1.5 1.5Zm1.5-5.78h2.57v2.78H30.7v-2.78Zm9.53 5.78h5.57c.83 0 1.5-.67 1.5-1.5v-5.78c0-.83-.67-1.5-1.5-1.5h-5.57c-.83 0-1.5.67-1.5 1.5v5.78c0 .83.67 1.5 1.5 1.5Zm1.5-5.78h2.57v2.78h-2.57v-2.78ZM18.16 20.02h5.57c.83 0 1.5-.67 1.5-1.5v-5.78c0-.83-.67-1.5-1.5-1.5h-5.57c-.83 0-1.5.67-1.5 1.5v5.78c0 .83.67 1.5 1.5 1.5Zm1.5-5.78h2.57v2.78h-2.57v-2.78Zm9.53 5.78h5.57c.83 0 1.5-.67 1.5-1.5v-5.78c0-.83-.67-1.5-1.5-1.5h-5.57c-.83 0-1.5.67-1.5 1.5v5.78c0 .83.67 1.5 1.5 1.5Zm1.5-5.78h2.57v2.78h-2.57v-2.78Zm9.53 5.78h5.57c.83 0 1.5-.67 1.5-1.5v-5.78c0-.83-.67-1.5-1.5-1.5h-5.57c-.83 0-1.5.67-1.5 1.5v5.78c0 .83.67 1.5 1.5 1.5Zm1.5-5.78h2.57v2.78h-2.57v-2.78Zm20.7 46.73h-.67V15.64c0-.83-.67-1.5-1.5-1.5h-7.47V7.39h.38c.83 0 1.5-.67 1.5-1.5V1.52c0-.83-.67-1.5-1.5-1.5H10.81c-.83 0-1.5.67-1.5 1.5v4.37c0 .83.67 1.5 1.5 1.5h.38v6.75H3.72c-.83 0-1.5.67-1.5 1.5v45.34h-.67c-.83 0-1.5.67-1.5 1.5s.67 1.5 1.5 1.5h60.9c.83 0 1.5-.67 1.5-1.5s-.67-1.5-1.5-1.5Zm-9.64-35.26h1.99v2.78h-1.99v-2.78Zm0 11.47h1.99v2.78h-1.99v-2.78Zm0 11.47h1.99v2.78h-1.99v-2.78ZM12.31 3.02h39.37v1.37H12.31V3.02Zm-1.12 48.43H9.2v-2.78h1.99v2.78Zm0-11.47H9.2V37.2h1.99v2.78Zm0-11.47H9.2v-2.78h1.99v2.78ZM5.22 17.15h5.97v5.58H7.7c-.83 0-1.5.67-1.5 1.5v5.78c0 .83.67 1.5 1.5 1.5h3.49v2.69H7.7c-.83 0-1.5.67-1.5 1.5v5.78c0 .83.67 1.5 1.5 1.5h3.49v2.69H7.7c-.83 0-1.5.67-1.5 1.5v5.78c0 .83.67 1.5 1.5 1.5h3.49v6.54H5.22V17.14Zm8.97 35.81V7.39H49.8v53.59h-9.92v-7h.64c.83 0 1.5-.67 1.5-1.5 0-4.44-4.5-8.05-10.02-8.05s-10.02 3.61-10.02 8.05c0 .83.67 1.5 1.5 1.5h.64v7H14.2v-8.04ZM25.29 51c.89-2.06 3.56-3.55 6.71-3.55s5.82 1.5 6.71 3.55H25.3Zm5.21 3v7h-3.38v-7h3.38Zm3 0h3.38v7H33.5v-7Zm19.31 7v-6.54h3.49c.83 0 1.5-.67 1.5-1.5v-5.78c0-.83-.67-1.5-1.5-1.5h-3.49v-2.69h3.49c.83 0 1.5-.67 1.5-1.5v-5.78c0-.83-.67-1.5-1.5-1.5h-3.49v-2.69h3.49c.83 0 1.5-.67 1.5-1.5v-5.78c0-.83-.67-1.5-1.5-1.5h-3.49v-5.58h5.97V61h-5.97Zm-5.49-9.56v2.5c0 .83-.67 1.5-1.5 1.5s-1.5-.67-1.5-1.5v-2.5c0-.83.67-1.5 1.5-1.5s1.5.67 1.5 1.5Zm-27.64 0v2.5c0 .83-.67 1.5-1.5 1.5s-1.5-.67-1.5-1.5v-2.5c0-.83.67-1.5 1.5-1.5s1.5.67 1.5 1.5Z" style="stroke-width:0"/>
</svg>
