<svg xmlns="http://www.w3.org/2000/svg" data-name="Layer 1" viewBox="0 0 64 64">
  <path d="M51.27 10.71h1.39c.83 0 1.5-.67 1.5-1.5V1.52c0-.83-.67-1.5-1.5-1.5H11.33c-.83 0-1.5.67-1.5 1.5v7.7c0 .83.67 1.5 1.5 1.5h1.39c.66 5.48 4.88 11.97 12.58 19.32.54.52.84 1.22.84 1.97s-.3 1.45-.84 1.97c-7.7 7.35-11.92 13.84-12.58 19.32h-1.39c-.83 0-1.5.67-1.5 1.5v7.7c0 .83.67 1.5 1.5 1.5h41.34c.83 0 1.5-.67 1.5-1.5v-7.7c0-.83-.67-1.5-1.5-1.5h-1.39c-.66-5.48-4.88-11.97-12.58-19.32-.54-.52-.84-1.22-.84-1.97s.3-1.45.84-1.97c7.7-7.35 11.92-13.84 12.58-19.32ZM12.83 3.02h38.34v4.7H12.83v-4.7Zm38.34 57.97H12.83v-4.7h38.34v4.7ZM36.63 27.87c-1.14 1.09-1.77 2.56-1.77 4.14s.63 3.05 1.77 4.14c6.92 6.61 10.91 12.49 11.63 17.15H15.74c.73-4.65 4.71-10.54 11.63-17.15 1.14-1.09 1.77-2.56 1.77-4.14s-.63-3.05-1.77-4.14c-6.92-6.61-10.91-12.49-11.63-17.15h32.51c-.73 4.65-4.71 10.54-11.63 17.15Z" style="stroke-width:0"/>
</svg>
