<svg xmlns="http://www.w3.org/2000/svg" data-name="Layer 1" viewBox="0 0 64 64">
  <path d="M45.85 29.24c-4.47 0-8.53 1.72-11.6 4.51-1.59-2.09-3.56-4.28-5.99-6.58-.32-.31-.5-.72-.5-1.17s.18-.86.5-1.17c6.25-5.92 9.73-11.17 10.37-15.64h.86c.83 0 1.5-.67 1.5-1.5V1.52c0-.83-.67-1.5-1.5-1.5H6.28c-.83 0-1.5.67-1.5 1.5v6.19c0 .83.67 1.5 1.5 1.5h.86c.65 4.47 4.12 9.72 10.37 15.64.32.31.5.72.5 1.17s-.18.86-.5 1.17c-6.25 5.92-9.73 11.17-10.37 15.64h-.86c-.83 0-1.5.67-1.5 1.5v6.19c0 .83.67 1.5 1.5 1.5h23.19c2.3 6.85 8.77 11.81 16.38 11.81 9.53 0 17.28-7.75 17.28-17.29s-7.75-17.28-17.28-17.28ZM7.78 6.2V3.01h30.21V6.2H7.78Zm11.8 23.16c.91-.87 1.44-2.08 1.44-3.35s-.52-2.48-1.44-3.35c-5.39-5.11-8.66-9.81-9.4-13.46h25.41c-.73 3.65-4.01 8.36-9.4 13.46-.91.87-1.44 2.08-1.44 3.35s.52 2.48 1.44 3.35c2.45 2.32 4.45 4.55 5.98 6.64a17.223 17.223 0 0 0-3.2 6.82H10.18c.73-3.65 4.01-8.36 9.4-13.46ZM7.78 49.01v-3.19H28.6c0 .24-.04.47-.04.71 0 .84.08 1.66.2 2.47H7.78Zm38.07 11.81c-7.88 0-14.28-6.41-14.28-14.29s6.41-14.28 14.28-14.28 14.28 6.41 14.28 14.28-6.41 14.29-14.28 14.29Zm7.86-14.29c0 .83-.67 1.5-1.5 1.5h-6.36c-.83 0-1.5-.67-1.5-1.5v-9.08c0-.83.67-1.5 1.5-1.5s1.5.67 1.5 1.5v7.58h4.86c.83 0 1.5.67 1.5 1.5Z" style="stroke-width:0"/>
</svg>
