<svg xmlns="http://www.w3.org/2000/svg" data-name="Layer 1" viewBox="0 0 64 64">
  <path d="M62.45 60.98h-4.6V34.05h4.6a1.499 1.499 0 0 0 1.01-2.61l-8.01-7.24V11c0-.83-.67-1.5-1.5-1.5h-8.99c-.83 0-1.5.67-1.5 1.5v2.36l-3.84-3.47c-.28-.25-.63-.39-1.01-.39H25.37c-.37 0-.73.14-1.01.39L.54 31.43c-.46.42-.62 1.07-.39 1.65.22.58.78.96 1.4.96h4.6v26.93h-4.6c-.83 0-1.5.67-1.5 1.5s.67 1.5 1.5 1.5h60.9c.83 0 1.5-.67 1.5-1.5s-.67-1.5-1.5-1.5ZM46.46 12.49h5.99v8.99l-5.99-5.41V12.5Zm-20.5 0h12.08l20.52 18.56H5.45l20.51-18.56ZM9.15 34.05h45.7v26.93H37.61V50.59c0-.83-.67-1.5-1.5-1.5h-8.23c-.83 0-1.5.67-1.5 1.5v10.39H9.15V34.05Zm20.24 26.93v-8.89h5.23v8.89h-5.23Zm12.03-11.47h9.23c.83 0 1.5-.67 1.5-1.5v-9.48c0-.83-.67-1.5-1.5-1.5h-9.23c-.83 0-1.5.67-1.5 1.5v9.48c0 .83.67 1.5 1.5 1.5Zm1.5-9.48h6.23v6.48h-6.23v-6.48Zm-20.32-3h-9.23c-.83 0-1.5.67-1.5 1.5v9.48c0 .83.67 1.5 1.5 1.5h9.23c.83 0 1.5-.67 1.5-1.5v-9.48c0-.83-.67-1.5-1.5-1.5Zm-1.5 9.48h-6.23v-6.48h6.23v6.48Z" style="stroke-width:0"/>
</svg>
