<svg xmlns="http://www.w3.org/2000/svg" data-name="Layer 1" viewBox="0 0 64 64">
  <path d="M49.44 21.6c0-2.29-1.17-4.3-2.94-5.49.05-.48.08-.96.08-1.44C46.57 6.63 40.03.1 32 .1S17.43 6.64 17.43 14.67c0 .48.03.96.08 1.44-1.77 1.19-2.94 3.2-2.94 5.49 0 3.18 2.26 5.84 5.26 6.46l9.8 34.67c.18.65.77 1.09 1.44 1.09h1.87a1.5 1.5 0 0 0 1.44-1.09l9.8-34.67c3-.62 5.26-3.28 5.26-6.46Zm-29.01-6.93C20.43 8.29 25.62 3.1 32 3.1s11.57 5.19 11.57 11.57c0 .12-.01.25-.02.37-.24-.03-.48-.04-.72-.04-1.3 0-2.55.37-3.61 1.07-2.13-1.4-5.09-1.4-7.22 0-2.13-1.4-5.09-1.4-7.22 0A6.53 6.53 0 0 0 21.17 15c-.24 0-.48.02-.72.04 0-.12-.02-.25-.02-.37Zm9.89 13.23 9.07 6.09-2.19 7.75-12.83-8.62-1.46-5.16c.66-.18 1.29-.45 1.87-.83 1.61 1.06 3.7 1.31 5.54.77Zm5.75.25c1.12-.07 2.22-.4 3.16-1.02.57.38 1.2.65 1.87.83l-.85 2.99-4.18-2.81Zm-10.43 9.44 10.71 7.19-2.11 7.48-5.49-3.69-3.1-10.98Zm6.37 22.54L30 53.03l3.37 2.27L32 60.13Zm10.83-34.92c-.96 0-1.87-.38-2.55-1.06a1.499 1.499 0 0 0-2.12 0c-1.36 1.37-3.74 1.37-5.1 0-.56-.56-1.56-.56-2.12 0-1.36 1.37-3.74 1.37-5.1 0-.56-.56-1.56-.56-2.12 0-.68.68-1.59 1.06-2.55 1.06-1.98 0-3.6-1.61-3.6-3.6s1.62-3.6 3.6-3.6c.96 0 1.87.38 2.55 1.06.56.56 1.56.56 2.12 0 1.36-1.37 3.74-1.37 5.1 0 .56.56 1.56.56 2.12 0 1.36-1.37 3.74-1.37 5.1 0 .56.56 1.56.56 2.12 0 .68-.68 1.59-1.06 2.55-1.06 1.98 0 3.6 1.62 3.6 3.6s-1.62 3.6-3.6 3.6Z" style="stroke-width:0"/>
</svg>
