<svg xmlns="http://www.w3.org/2000/svg" viewBox="0 0 64 64">
  <path d="M58.1 10.2H5.9c-3.2 0-5.9 2.6-5.9 5.9V48c0 3.2 2.6 5.9 5.9 5.9h52.3c3.2 0 5.9-2.6 5.9-5.9V16.1c0-3.2-2.6-5.9-5.9-5.9ZM61 16v11.9H40.6V13.1h17.6c1.6 0 2.9 1.3 2.9 2.9ZM3 20.4h28.1v5H3v-5ZM3 48V28.4h29.6c.8 0 1.5-.7 1.5-1.5v-8c0-.8-.7-1.5-1.5-1.5H3v-1.3c0-1.6 1.3-2.9 2.9-2.9h31.7v37.6H5.9c-1.6 0-2.9-1.3-2.9-2.9Zm41.4 2.8c.2-1.4.5-2.5.7-3.2.3-1 1.2-1.7 2.3-1.7h6.9c1.1 0 2 .7 2.3 1.7.2.7.5 1.8.7 3.1 0 .1-12.8.1-12.8.1ZM47 39.1c0-2.1 1.7-3.8 3.8-3.8s3.8 1.7 3.8 3.8-1.7 3.8-3.8 3.8-3.8-1.7-3.8-3.8ZM60.2 50c-.3-1.3-.5-2.4-.8-3.2-.5-1.6-1.7-2.9-3.2-3.5.9-1.2 1.4-2.6 1.4-4.2 0-3.8-3-6.8-6.8-6.8s-6.8 3-6.8 6.8.5 3 1.4 4.2c-1.5.6-2.7 1.8-3.2 3.5-.3.8-.5 2-.8 3.4v.7h-.7V31h20.4v17c0 .8-.3 1.5-.8 2ZM29.8 32.3H8c-.8 0-1.5.7-1.5 1.5s.7 1.5 1.5 1.5h21.9c.8 0 1.5-.7 1.5-1.5s-.7-1.5-1.5-1.5ZM8 41h11.6c.8 0 1.5-.7 1.5-1.5s-.7-1.5-1.5-1.5H8c-.8 0-1.5.7-1.5 1.5S7.2 41 8 41Zm21.8 2.7H8c-.8 0-1.5.7-1.5 1.5s.7 1.5 1.5 1.5h21.9c.8 0 1.5-.7 1.5-1.5s-.7-1.5-1.5-1.5Z"/>
</svg>
