<svg xmlns="http://www.w3.org/2000/svg" data-name="Layer 1" viewBox="0 0 64 64">
  <path d="M62.49 7.15H1.51C.68 7.15 0 7.83 0 8.66v46.69c0 .83.67 1.51 1.51 1.51h60.98c.83 0 1.51-.68 1.51-1.51V8.66c0-.83-.68-1.51-1.51-1.51Zm-1.51 3.02v31.5L43.34 24.03c-.59-.59-1.54-.59-2.13 0L24.14 41.1l-7.05-7.05c-.59-.59-1.54-.59-2.13 0L3.01 46V10.17h57.97ZM3.02 53.83v-3.57l13.02-13.02 7.05 7.05c.59.59 1.54.59 2.13 0l17.07-17.07L61 45.93v7.9H3.02Zm11.54-25.42c3.96 0 7.19-3.22 7.19-7.19a7.191 7.191 0 0 0-14.38 0c0 3.97 3.22 7.19 7.19 7.19Zm0-11.36c2.3 0 4.17 1.87 4.17 4.17s-1.87 4.17-4.17 4.17-4.17-1.87-4.17-4.17 1.87-4.17 4.17-4.17Z" style="stroke-width:0"/>
</svg>
