<svg xmlns="http://www.w3.org/2000/svg" data-name="Layer 1" viewBox="0 0 64 64">
  <path d="M45.58.06c-7.53 0-13.65 6.12-13.65 13.65 0 3.56 1.38 6.79 3.62 9.22L5.2 53.28a1.49 1.49 0 0 0 0 2.12l8.11 8.11c.29.29.68.44 1.06.44s.77-.15 1.06-.44c.59-.59.59-1.54 0-2.12l-7.05-7.05 3.71-3.71 7.05 7.05c.29.29.68.44 1.06.44s.77-.15 1.06-.44c.59-.59.59-1.54 0-2.12l-7.05-7.05 4.02-4.02 7.05 7.05c.29.29.68.44 1.06.44s.77-.15 1.06-.44c.59-.59.59-1.54 0-2.12l-7.05-7.05 17.46-17.46c2.21 1.54 4.89 2.45 7.78 2.45 7.53 0 13.65-6.12 13.65-13.65S53.11.06 45.58.06Zm0 24.31c-5.87 0-10.65-4.78-10.65-10.65S39.71 3.07 45.58 3.07s10.65 4.78 10.65 10.65-4.78 10.65-10.65 10.65Z" style="stroke-width:0"/>
</svg>
