<svg xmlns="http://www.w3.org/2000/svg" data-name="Layer 1" viewBox="0 0 64 64">
  <path d="M4.74 63.6c-1.27 0-2.49-.51-3.37-1.42-.9-.93-1.38-2.21-1.3-3.5l.34-6.43a4.63 4.63 0 0 1 1.38-3.06l21.77-21.51c-.71-2.11-1.07-4.32-1.07-6.57C22.5 9.69 31.79.4 43.21.4s20.73 9.29 20.73 20.71-9.3 20.71-20.73 20.71c-2.36 0-4.66-.39-6.86-1.17l-2.18 2.19c-.86.86-2.01 1.35-3.24 1.36l-3.62.04c-.91.01-1.63.74-1.65 1.65l-.04 2.4c-.04 2.21-1.85 4.01-4.04 4.03l-2.39.04c-.9.01-1.64.74-1.64 1.63l-.05 3.54c0 .08 0 .16-.02.24-.36 2.05-1.6 5.5-5.82 5.62l-6.8.2h-.12ZM43.21 3.4c-9.77 0-17.71 7.95-17.71 17.71 0 2.23.41 4.41 1.23 6.47.27.68.01 1.45-.61 1.83-.03.02-.08.06-.15.13L3.9 51.33c-.29.28-.47.68-.49 1.09l-.34 6.43c-.03.47.14.91.46 1.24.33.34.78.53 1.25.51l6.74-.2c.83-.02 2.43-.07 2.99-3.03l.05-3.41c.02-2.5 2.08-4.56 4.6-4.6l2.4-.04c.59 0 1.06-.49 1.07-1.08l.04-2.4a4.657 4.657 0 0 1 4.61-4.61l3.62-.04c.43 0 .85-.18 1.15-.48l2.54-2.55s.09-.1.13-.15c.4-.57 1.15-.79 1.8-.53 2.13.87 4.38 1.32 6.7 1.32 9.77 0 17.73-7.95 17.73-17.71S52.98 3.4 43.21 3.4Zm4.2 18.04c-3.14 0-5.69-2.55-5.69-5.69s2.55-5.69 5.69-5.69 5.69 2.55 5.69 5.69-2.55 5.69-5.69 5.69Zm0-8.38c-1.48 0-2.69 1.21-2.69 2.69s1.21 2.69 2.69 2.69 2.69-1.21 2.69-2.69-1.21-2.69-2.69-2.69Z" style="stroke-width:0"/>
</svg>
