<svg xmlns="http://www.w3.org/2000/svg" data-name="Layer 1" viewBox="0 0 64 64">
  <path d="M62.49 17.43H1.51c-.83 0-1.5.67-1.5 1.5v26.14c0 .83.67 1.5 1.5 1.5h60.97c.83 0 1.5-.67 1.5-1.5V18.93c0-.83-.67-1.5-1.5-1.5ZM46.97 37.04V33.5h3.65v3.54h-3.65Zm-26.86 0V33.5h3.64v3.54h-3.64Zm-3.03 0h-3.69V33.5h3.71v3.54h-.03Zm-8.03 0H3.01V33.5h7.37v3.54H9.04Zm3.09-10.07h1.92v3.54h-3.51v-3.54h1.59Zm6.63 0h1.86v3.54h-3.58v-3.54h1.71Zm6.56 0h1.81v3.54h-3.5v-3.54h1.69Zm8.54 0v3.54h-3.73v-3.54h3.73Zm4.8 0h1.7v3.54h-3.5v-3.54h1.8Zm6.63 0h1.65v3.54h-3.58v-3.54h1.93Zm15.69 0v3.54h-4.54v-3.54h4.54Zm-7.54 3.54h-3.51v-3.54h3.51v3.54Zm-5.01-6.54h-1.65v-3.54h3.56v3.54h-1.92ZM7.55 30.5H3.01v-3.54h4.53v3.54Zm19.19 3h3.87v3.54h-3.87V33.5Zm6.87 0h3.64v3.54h-3.64V33.5Zm6.64 0h3.71v3.54h-3.71V33.5Zm14.7 3.54h-1.34V33.5h7.38v3.54h-6.04Zm6.04-13.07h-7.63v-3.54h7.63v3.54Zm-17.19 0h-3.63v-3.54h3.63v3.54Zm-6.63 0h-3.56v-3.54h3.56v3.54Zm-6.56-3.54v3.54h-3.78v-3.54h3.78Zm-6.78 0v3.54h-3.56v-3.54h3.56Zm-6.56 0v3.54h-3.63v-3.54h3.63Zm-14.26 0h7.63v3.54H3.01v-3.54Zm0 19.61h4.53v3.54H3.01v-3.54Zm7.53 0h5.03v3.54h-5.03v-3.54Zm8.03 3.54v-3.54h26.85v3.54H18.57Zm29.85 0v-3.54h5.03v3.54h-5.03Zm12.56 0h-4.54v-3.54h4.54v3.54Z" style="stroke-width:0"/>
</svg>
