<svg xmlns="http://www.w3.org/2000/svg" data-name="Layer 1" viewBox="0 0 64 64">
  <path d="M61.5 1.8C59.64.78 57.73.27 55.82.27c-4.22 0-8.06 2.58-10.51 7.07L22.86 48.36 6.07 39.17c-.46-.25-.95-.37-1.44-.37-1.06 0-2.09.56-2.63 1.56C-2.18 47.99.63 57.6 8.27 61.78c2.32 1.27 4.93 1.94 7.56 1.94 5.77 0 11.08-3.14 13.85-8.21.03-.05.04-.1.06-.15l23.82-43.5c.36-.65 1.3-2.18 2.26-2.18.31 0 .71.13 1.16.37.69.38 1.47.58 2.26.58 1.72 0 3.3-.94 4.13-2.45 1.24-2.27.41-5.14-1.87-6.38ZM48.55 14.76l-2.99-1.63.52-.95 2.99 1.64-.52.95Zm-4.43 1 2.99 1.64-18.63 34.04-2.74-1.5-.25-.14 18.63-34.04ZM15.83 60.73c-2.07 0-4.18-.51-6.12-1.57-6.19-3.39-8.46-11.15-5.08-17.34 4.33 2.37 17.81 9.75 22.42 12.27-2.32 4.24-6.7 6.65-11.22 6.65Zm44.9-53.98a1.693 1.693 0 0 1-2.31.68c-.95-.52-1.82-.74-2.6-.74-2.29 0-3.88 1.88-4.89 3.74l-.42.76-2.99-1.63.42-.76c1.97-3.6 4.8-5.51 7.88-5.51 1.38 0 2.81.38 4.24 1.16.82.45 1.13 1.49.68 2.31Z" style="stroke-width:0"/>
</svg>
