<svg xmlns="http://www.w3.org/2000/svg" data-name="Layer 1" viewBox="0 0 64 64">
  <path d="M63.62 17.82c-.34-.51-3.38-5-4.73-6.22-2.1-1.9-4.78-2.91-7.5-2.94l-2.06-3.01c-1.83-2.48-5.19-3.35-8-2.07l-4.6 2.1c-2.65 1.21-4.15 4.05-3.73 6.94l-16.09 7.82a5.51 5.51 0 0 0-4.11-1.85c-3.04 0-5.51 2.47-5.51 5.52 0 2.52 1.7 4.65 4.01 5.3v20.21H7.74c-2.59 0-4.7 2.11-4.7 4.7v3.71H1.6c-.83 0-1.5.67-1.5 1.5s.67 1.5 1.5 1.5H24c.83 0 1.5-.67 1.5-1.5s-.67-1.5-1.5-1.5h-1.44v-3.71c0-2.59-2.11-4.7-4.7-4.7H14.3V29.41c2.31-.66 4.02-2.78 4.02-5.3 0-.33-.03-.65-.09-.97l15.49-7.53.26.99a11.362 11.362 0 0 0-2.69 7.59c.04 1.82 1.45 7.06 1.6 7.65.12.43.41.78.81.97.2.09.42.14.64.14s.42-.04.62-.14l7.36-3.36c1.4 1.9 3.61 3 5.92 3 1.02 0 2.06-.21 3.04-.66l.24-.11c3.22-1.47 4.87-4.99 4.12-8.31l7.34-3.35c.4-.18.7-.53.82-.96.12-.42.05-.88-.2-1.25ZM19.58 54.31v3.71H6.06v-3.71c0-.94.76-1.7 1.7-1.7h10.12c.94 0 1.7.76 1.7 1.7Zm-6.76-27.69c-1.39 0-2.51-1.13-2.51-2.52s1.13-2.52 2.51-2.52 2.52 1.13 2.52 2.52-1.13 2.52-2.52 2.52ZM37.99 8.4l4.6-2.1c1.52-.69 3.34-.22 4.3 1.07l1.18 1.74c-.52.15-1.03.34-1.53.57l-8.6 3.93c-.5.23-.98.49-1.43.78l-.52-1.98c-.36-1.63.47-3.32 1.99-4.01ZM50.3 28.95l-.24.11c-1.7.78-3.65.36-4.9-.9l7.67-3.5c.13 1.77-.83 3.51-2.53 4.29Zm2.9-7.75-10.89 4.97-6.93 3.17c-.5-2.01-1.04-4.38-1.05-5.22a8.361 8.361 0 0 1 4.88-7.79l8.6-3.93a8.326 8.326 0 0 1 9.08 1.41c.62.56 2.06 2.52 3.25 4.21l-6.93 3.17Z" style="stroke-width:0"/>
</svg>
