<svg xmlns="http://www.w3.org/2000/svg" data-name="Layer 1" viewBox="0 0 64 64">
  <path d="M62.4 53.12h-4.45V39.56l1.58-5.34s0-.04.01-.06l.03-.15c0-.05.01-.11.02-.16v-.13c0-.06 0-.11-.02-.17 0-.05-.02-.09-.03-.13-.01-.05-.03-.1-.05-.15-.02-.04-.03-.09-.06-.13-.02-.04-.04-.09-.07-.13-.02-.04-.05-.08-.08-.12-.03-.04-.06-.08-.09-.11s-.06-.07-.1-.1c-.04-.03-.07-.06-.11-.09a.834.834 0 0 0-.12-.08c-.04-.02-.08-.05-.12-.07l-.15-.06c-.02 0-.05-.02-.07-.03-.02 0-.04 0-.06-.01l-.15-.03c-.05 0-.1-.01-.15-.02h-1.33c-.1-2.66-.46-5.15-1.07-7.46v-.06c-.02-.11-.05-.21-.1-.31-2.58-9.38-9.22-15.65-18.54-17.3 0-.05.01-.09.01-.14 0-.83-.67-1.5-1.5-1.5h-7.24c-.83 0-1.5.67-1.5 1.5 0 .05 0 .1.01.14-9.33 1.65-15.96 7.91-18.54 17.3-.04.1-.07.2-.1.31v.06c-.6 2.31-.97 4.8-1.07 7.46H5.86c-.05 0-.1 0-.15.02-.05 0-.1.02-.16.03-.02 0-.04 0-.06.01-.03 0-.05.02-.07.03l-.15.06c-.04.02-.08.04-.12.07-.04.03-.08.05-.12.08-.04.03-.08.06-.11.09s-.07.06-.1.1c-.03.04-.06.07-.09.11-.03.04-.05.08-.08.12-.02.04-.05.08-.07.13-.02.04-.04.09-.06.13-.02.05-.03.09-.04.14l-.03.13c0 .05-.01.11-.02.17v.13c0 .05 0 .11.02.16 0 .05.02.1.03.14 0 .02 0 .04.01.06l1.59 5.34V53.1H1.6c-.83 0-1.5.67-1.5 1.5v7.86c0 .83.67 1.5 1.5 1.5h60.8c.83 0 1.5-.67 1.5-1.5V54.6c0-.83-.67-1.5-1.5-1.5Zm-9.42 0v-7.89c0-.83-.67-1.5-1.5-1.5s-1.5.67-1.5 1.5v7.89h-4.21V41.17c0-.12-.02-.23-.04-.33h9.22v12.28h-1.97Zm-15.6-9.39c-.83 0-1.5.67-1.5 1.5v7.89h-2.37v-7.89c0-.83-.67-1.5-1.5-1.5s-1.5.67-1.5 1.5v7.89h-2.37v-7.89c0-.83-.67-1.5-1.5-1.5s-1.5.67-1.5 1.5v7.89h-3.89V41.17c0-.12-.02-.23-.04-.33h21.61c-.02.11-.04.22-.04.33v11.95h-3.89v-7.89c0-.83-.67-1.5-1.5-1.5Zm-28.7-5.89-.76-2.55h48.16l-.76 2.55H8.68ZM32 9.72c6.76 0 9.94 11.1 10.2 22.57H21.81c.25-11.47 3.44-22.57 10.2-22.57Zm19.19 11.96c.03-.06.08-.13.13-.2.36.77.7 1.57.98 2.41-.27.02-.49-.1-.61-.18-.29-.2-.52-.54-.61-.93-.1-.39-.06-.79.11-1.11Zm-1.35-2.84c-.53.36-.98.84-1.3 1.45-.51.97-.64 2.12-.37 3.22.27 1.11.92 2.06 1.83 2.68.7.48 1.49.72 2.25.72.29 0 .57-.03.84-.1h.01c.38 1.72.61 3.56.69 5.49H45.2c-.19-10.63-2.39-17.41-5.4-21.29 4.21 1.46 7.62 4.15 10.03 7.84Zm-37.02 2.84c.17.32.21.72.11 1.11-.16.65-.67 1.11-1.23 1.1.29-.83.62-1.63.98-2.4.06.07.11.14.13.2Zm-1.91 5.12c.28.06.56.1.84.1 1.86 0 3.59-1.37 4.09-3.39.27-1.11.14-2.25-.37-3.22a3.97 3.97 0 0 0-1.3-1.45c2.41-3.69 5.82-6.38 10.03-7.84-3 3.89-5.21 10.66-5.4 21.29h-8.59c.08-1.93.31-3.77.69-5.49ZM9.06 40.84h9.22c-.02.11-.04.22-.04.33v11.95h-4.21v-7.89c0-.83-.67-1.5-1.5-1.5s-1.5.67-1.5 1.5v7.89H9.06V40.84ZM60.9 60.98H3.1v-4.86h57.78v4.86ZM32 26.91c2.42 0 4.39-1.97 4.39-4.39s-1.97-4.39-4.39-4.39-4.39 1.97-4.39 4.39 1.97 4.39 4.39 4.39Zm0-5.78c.77 0 1.39.62 1.39 1.39s-.62 1.39-1.39 1.39-1.39-.62-1.39-1.39.62-1.39 1.39-1.39Z" style="stroke-width:0"/>
</svg>
