<svg xmlns="http://www.w3.org/2000/svg" data-name="Layer 1" viewBox="0 0 64 64">
  <path d="M32 64c-.45 0-.88-.2-1.16-.55-.53-.65-13.03-16.03-18.59-26.81-.03-.07-.07-.14-.1-.21a24.799 24.799 0 0 1-3.27-12.31C8.88 10.82 19.25 0 32 0s23.12 10.81 23.12 24.11c0 4.33-1.14 8.6-3.29 12.35 0 .03-.04.1-.07.16-5.57 10.79-18.07 26.17-18.6 26.82a1.5 1.5 0 0 1-1.16.55Zm0-61c-11.1 0-20.12 9.47-20.12 21.11 0 3.81 1 7.56 2.89 10.86l.12.25C19.35 43.88 28.72 55.97 32 60.1c3.28-4.13 12.64-16.22 17.09-24.84l.1-.21c1.93-3.37 2.93-7.13 2.93-10.94C52.12 12.47 43.09 3 32 3Zm6.81 33.34c-.29 0-.57-.08-.82-.25l-5.98-3.92-5.98 3.92c-.52.34-1.2.33-1.7-.04s-.73-1.01-.57-1.61l1.88-6.9-5.58-4.48a1.494 1.494 0 0 1 .86-2.66l7.15-.34 2.54-6.69c.22-.58.78-.97 1.4-.97s1.18.39 1.4.97l2.54 6.69 7.15.34a1.494 1.494 0 0 1 .86 2.66l-5.58 4.48 1.88 6.9c.16.6-.06 1.24-.57 1.61-.26.19-.57.29-.88.29ZM32 28.88c.29 0 .57.08.82.25l3.5 2.29-1.1-4.03c-.16-.58.04-1.19.51-1.56l3.26-2.62-4.17-.2c-.6-.03-1.12-.41-1.33-.97l-1.48-3.91-1.48 3.91c-.21.56-.73.94-1.33.97l-4.17.2 3.26 2.62c.47.37.67.99.51 1.56l-1.1 4.03 3.5-2.29c.25-.16.54-.25.82-.25Z" style="stroke-width:0"/>
</svg>
