<svg xmlns="http://www.w3.org/2000/svg" data-name="Layer 1" viewBox="0 0 64 64">
  <path d="M62.44 45.52h-1.39V12.43c0-2.14-1.74-3.88-3.88-3.88H6.83c-2.14 0-3.88 1.74-3.88 3.88v33.09H1.56c-.83 0-1.5.67-1.5 1.5v2.99c0 3 2.44 5.44 5.44 5.44h52.99c3 0 5.44-2.44 5.44-5.44v-2.99c0-.83-.67-1.5-1.5-1.5ZM5.95 12.43c0-.49.39-.88.88-.88h50.33c.49 0 .88.39.88.88v33.09H38.01c-.83 0-1.5.67-1.5 1.5v.33h-9.04v-.33c0-.83-.67-1.5-1.5-1.5H5.95V12.43ZM60.93 50c0 1.35-1.1 2.44-2.44 2.44H5.51c-1.35 0-2.44-1.1-2.44-2.44v-1.49h21.57a2.715 2.715 0 0 0 2.57 1.83h9.6c1.19 0 2.2-.77 2.57-1.83h21.57V50ZM48.22 20.36c0-.83.67-1.5 1.5-1.5h3.36c.83 0 1.5.67 1.5 1.5s-.67 1.5-1.5 1.5h-3.36c-.83 0-1.5-.67-1.5-1.5Zm0 5.12c0-.83.67-1.5 1.5-1.5h3.36c.83 0 1.5.67 1.5 1.5s-.67 1.5-1.5 1.5h-3.36c-.83 0-1.5-.67-1.5-1.5Zm0 5.12c0-.83.67-1.5 1.5-1.5h3.36c.83 0 1.5.67 1.5 1.5s-.67 1.5-1.5 1.5h-3.36c-.83 0-1.5-.67-1.5-1.5Zm-6.65 7.31V18.94c0-.83-.67-1.5-1.5-1.5h-29.3c-.83 0-1.5.67-1.5 1.5v18.97c0 .83.67 1.5 1.5 1.5h29.31c.83 0 1.5-.67 1.5-1.5Zm-3-17.47v1.28h-26.3v-1.28h26.31Zm0 15.97h-26.3V24.72h26.31v11.69Z" style="stroke-width:0"/>
</svg>
