<svg xmlns="http://www.w3.org/2000/svg" data-name="Layer 1" viewBox="0 0 64 64">
  <path d="M63.43 6.42c-.05-.71-.6-1.29-1.31-1.38-.71-.09-1.39.34-1.61 1.02-1.2 3.68-11 5.51-19.64 7.13-7.89 1.47-16.05 3-21.15 6.06-6.23 3.74-9.85 9.87-9.46 16.01.29 4.45 2.67 8.29 6.64 10.9-6.22 2.39-11.76 3.61-14.87 3.02a1.5 1.5 0 1 0-.55 2.95c.68.13 1.44.19 2.26.19 4.07 0 9.76-1.52 15.82-4.01 2.97 6.59 9.48 10.67 16.72 10.67 1.32 0 2.67-.14 4.02-.42C53.11 55.9 65.91 40.81 63.44 6.42Zm-23.74 49.2c-7.34 1.52-14.44-2.02-17.39-8.5 11.1-5.01 22.78-12.94 27.67-20.59.45-.7.24-1.63-.46-2.07-.7-.45-1.63-.24-2.07.46-4.89 7.66-16.45 15.17-27.01 19.79-4.36-2.08-6.91-5.48-7.17-9.65-.32-5.01 2.75-10.08 8.01-13.24 4.64-2.78 12.53-4.26 20.16-5.68 8.07-1.51 15.32-2.86 19.22-5.68.65 19.51-4.39 41.73-20.95 45.17Z" style="stroke-width:0"/>
</svg>
