<svg xmlns="http://www.w3.org/2000/svg" data-name="Layer 1" viewBox="0 0 64 64">
  <path d="M61.29 40.42c.71-2.59 1.1-5.32 1.1-8.13s-.39-5.54-1.1-8.13c-.32-1.17-.71-2.32-1.16-3.44.06-.04.13-.07.18-.12 2.27-2.27 3.53-5.3 3.53-8.52s-1.25-6.24-3.53-8.52C58.03 1.3 55.01.04 51.79.04s-6.24 1.25-8.52 3.53c-.05.05-.08.12-.12.18-1.11-.45-2.26-.84-3.44-1.16-2.59-.71-5.32-1.1-8.13-1.1s-5.54.39-8.13 1.1c-.95.26-1.89.57-2.8.91C18.39 1.27 15.39.04 12.21.04S5.97 1.3 3.69 3.57a11.99 11.99 0 0 0-3.52 8.52c0 3.01 1.11 5.85 3.12 8.06-.56 1.29-1.02 2.63-1.4 4.01-.71 2.59-1.1 5.32-1.1 8.13s.39 5.54 1.1 8.13c.34 1.23.75 2.44 1.23 3.61-1.9 2.19-2.95 4.95-2.95 7.88 0 3.22 1.25 6.24 3.53 8.52 2.27 2.27 5.3 3.53 8.52 3.53 2.98 0 5.79-1.09 7.99-3.05a30.738 30.738 0 0 0 11.38 2.19c2.81 0 5.54-.39 8.13-1.1 1.31-.36 2.59-.8 3.83-1.32 2.24 2.11 5.15 3.28 8.25 3.28s6.24-1.25 8.52-3.53c4.7-4.7 4.7-12.34 0-17.03.38-.97.7-1.96.98-2.97ZM40.45 39.2c-.57.73-1.22 1.38-1.95 1.95-.84.65-1.77 1.19-2.77 1.59-1.28.51-2.68.8-4.14.8s-2.86-.29-4.14-.8c-1-.4-1.93-.94-2.77-1.59-.73-.57-1.38-1.22-1.95-1.95-.65-.84-1.19-1.77-1.59-2.77-.51-1.28-.8-2.68-.8-4.14s.29-2.86.8-4.14c.4-1 .94-1.93 1.59-2.77.57-.73 1.22-1.38 1.95-1.95.84-.65 1.77-1.19 2.77-1.59 1.28-.51 2.68-.8 4.14-.8s2.86.29 4.14.8c1 .4 1.93.94 2.77 1.59.73.57 1.38 1.22 1.95 1.95.65.84 1.19 1.77 1.59 2.77.51 1.28.8 2.68.8 4.14s-.29 2.86-.8 4.14c-.4 1-.94 1.93-1.59 2.77Zm-3.82 20.43c-1.64.3-3.32.47-5.04.47s-3.41-.17-5.04-.47l.74-13.75c1.36.43 2.81.67 4.31.67s2.95-.24 4.31-.67l.74 13.75ZM3.79 32.29c0-1.72.17-3.41.47-5.04l13.75.74c-.43 1.36-.67 2.81-.67 4.31s.24 2.95.67 4.31l-13.75.74c-.3-1.64-.47-3.32-.47-5.04ZM26.54 4.96c1.64-.3 3.32-.47 5.04-.47s3.41.17 5.04.47l-.74 13.75c-1.36-.43-2.81-.67-4.31-.67s-2.95.24-4.31.67l-.74-13.75Zm18.62 23.03 13.75-.74c.3 1.64.47 3.32.47 5.04s-.17 3.41-.47 5.04l-13.75-.74c.43-1.36.67-2.81.67-4.31s-.24-2.95-.67-4.31ZM58.18 5.7c3.32 3.32 3.51 8.59.59 12.14-2.88-5.4-7.33-9.84-12.73-12.73a9.046 9.046 0 0 1 12.14.59Zm.02 18.59-14.37.77a14.309 14.309 0 0 0-5.01-5.01l.77-14.37c8.9 2.68 15.93 9.71 18.61 18.61Zm-33.86-4.24a14.309 14.309 0 0 0-5.01 5.01l-14.37-.77c2.69-8.91 9.72-15.93 18.62-18.62l.77 14.37ZM3.17 12.09c0-2.42.94-4.69 2.65-6.4 3.22-3.21 8.27-3.49 11.81-.84A30.95 30.95 0 0 0 4.76 17.2a8.96 8.96 0 0 1-1.59-5.11Zm2.65 46.22a8.985 8.985 0 0 1-2.65-6.4c0-1.74.5-3.4 1.41-4.84 2.89 5.26 7.27 9.59 12.58 12.41-3.51 2.29-8.26 1.89-11.33-1.18ZM4.97 40.3l14.37-.77c1.22 2.06 2.95 3.79 5.01 5.01l-.77 14.37C14.68 56.23 7.65 49.2 4.97 40.3Zm33.86 4.24c2.06-1.22 3.79-2.95 5.01-5.01l14.37.77c-2.68 8.9-9.71 15.93-18.61 18.61l-.77-14.37Zm19.36 13.77c-3.18 3.18-8.16 3.48-11.69.92 5.31-2.95 9.66-7.43 12.46-12.83 2.73 3.54 2.48 8.66-.76 11.91Z" style="stroke-width:0"/>
</svg>
