<svg xmlns="http://www.w3.org/2000/svg" data-name="Layer 1" viewBox="0 0 64 64">
  <path d="M47.51 11.18C43.62 6.79 38.11 4.37 32 4.37s-11.63 2.42-15.51 6.81c-3.65 4.13-5.37 9.6-4.71 15.02.65 5.36 3.63 10.27 8.17 13.47.09.06.14.18.15.31 0 .09.02.17.04.26l1.33 5.53c.03.25.09.49.16.72-1.21.72-2.03 2.03-2.03 3.53v.32c0 1.68 1.01 3.12 2.45 3.76-.14.4-.23.83-.23 1.28v.31c0 2.23 1.82 4.05 4.05 4.05h.2c.51 2.43 2.97 4.27 5.94 4.27s5.43-1.85 5.94-4.27h.2c2.23 0 4.05-1.82 4.05-4.05v-.31c0-.45-.09-.87-.23-1.28a4.116 4.116 0 0 0 2.45-3.76v-.32c0-1.51-.82-2.82-2.04-3.53.08-.23.13-.47.16-.72l1.33-5.53c.02-.08.03-.17.04-.26 0-.13.07-.25.16-.31 4.53-3.21 7.51-8.12 8.16-13.47.66-5.42-1.06-10.89-4.71-15.02Zm-7.22 40.14H23.71c-.54 0-.99-.44-.99-.99v-.32c0-.54.44-.99.99-.99h16.58c.54 0 .99.44.99.99v.32c0 .54-.44.99-.99.99ZM32 60.86c-1.11 0-2.08-.47-2.57-1.14h5.14c-.49.67-1.46 1.14-2.57 1.14Zm7.05-5.19c0 .5-.41.91-.91.91H25.86c-.5 0-.91-.41-.91-.91v-.31c0-.5.41-.91.91-.91h12.28c.5 0 .91.41.91.91v.31Zm10.06-29.86c-.55 4.48-3.05 8.6-6.86 11.29-.82.58-1.35 1.49-1.46 2.51l-1.33 5.53c-.02.08-.03.17-.04.26-.02.23-.21.41-.44.41H25.02c-.23 0-.43-.18-.44-.41 0-.09-.02-.17-.04-.26l-1.33-5.53a3.502 3.502 0 0 0-1.46-2.5c-3.82-2.7-6.32-6.81-6.86-11.29-.55-4.53.89-9.1 3.94-12.56C22.11 9.55 26.79 7.51 32 7.51s9.88 2.04 13.17 5.75c3.06 3.46 4.5 8.03 3.94 12.56Zm-27.96-.59c-.87 0-1.57-.7-1.57-1.57 0-6.62 5.38-12 12-12 .87 0 1.57.7 1.57 1.57s-.7 1.57-1.57 1.57c-4.89 0-8.87 3.98-8.87 8.87 0 .87-.7 1.57-1.57 1.57ZM8.38 15.04a1.5 1.5 0 0 1-.62-.13l-5.91-2.56a1.562 1.562 0 0 1-.81-2.06c.34-.79 1.27-1.16 2.06-.81l5.91 2.56a1.567 1.567 0 0 1-.63 3Zm4.91-6.72c-.51 0-1.02-.25-1.32-.72L8.61 2.41c-.47-.73-.26-1.7.46-2.17.73-.47 1.7-.26 2.17.46l3.36 5.19c.47.73.26 1.7-.46 2.17-.26.17-.56.25-.85.25Zm42.32 6.72c-.61 0-1.18-.35-1.44-.94-.34-.79.02-1.72.81-2.06l5.91-2.56c.79-.34 1.72.02 2.06.81s-.02 1.72-.81 2.06l-5.91 2.56c-.2.09-.41.13-.62.13ZM50.7 8.32a1.566 1.566 0 0 1-1.31-2.42L52.75.71c.47-.73 1.44-.93 2.17-.46.73.47.93 1.44.46 2.17l-3.36 5.19c-.3.46-.8.72-1.32.72Z" style="stroke-width:0"/>
</svg>
