<svg xmlns="http://www.w3.org/2000/svg" data-name="Layer 1" viewBox="0 0 64 64">
  <path d="M48.62 7.29C44.46 2.59 38.56 0 32 0S19.54 2.59 15.38 7.29c-3.91 4.42-5.75 10.28-5.04 16.08.7 5.74 3.89 11 8.75 14.43.12.09.2.24.22.42 0 .09.02.18.04.26l1.43 5.97c.03.27.1.53.18.78-1.3.69-2.2 2.04-2.2 3.62v.74c0 1.73 1.08 3.21 2.6 3.82-.12.38-.21.78-.21 1.21v.72c0 2.23 1.81 4.04 4.04 4.04h.52c.49 2.61 3.12 4.6 6.29 4.6s5.81-2 6.29-4.6h.52c2.23 0 4.04-1.81 4.04-4.04v-.72c0-.42-.08-.82-.21-1.21 1.52-.6 2.6-2.08 2.6-3.82v-.74c0-1.57-.9-2.93-2.2-3.62.08-.25.15-.51.18-.78l1.43-5.97c.02-.09.03-.17.04-.26.01-.18.09-.34.22-.42 4.86-3.43 8.05-8.7 8.75-14.43.71-5.8-1.13-11.66-5.04-16.08Zm-9.81 43.29H22.86c-.54 0-.98-.44-.98-.98v-.74c0-.54.44-.98.98-.98h18.27c.54 0 .98.44.98.98v.74c0 .54-.44.98-.98.98H38.8ZM32 60.86c-1.34 0-2.52-.62-3.01-1.48h6.02c-.49.85-1.67 1.48-3.01 1.48Zm7.72-5.52c0 .5-.41.91-.91.91H25.19c-.5 0-.91-.41-.91-.91v-.72c0-.5.41-.91.91-.91h13.62c.5 0 .91.41.91.91v.72Zm10.84-32.36c-.59 4.86-3.31 9.33-7.45 12.26a3.66 3.66 0 0 0-1.52 2.62l-1.43 5.97c-.02.09-.03.17-.04.26-.02.31-.29.56-.6.56H24.48c-.32 0-.58-.25-.6-.56 0-.09-.02-.17-.04-.26l-1.43-5.97a3.66 3.66 0 0 0-1.52-2.62c-4.14-2.93-6.85-7.39-7.45-12.26-.6-4.91.96-9.88 4.28-13.63C21.28 5.33 26.35 3.11 32 3.11s10.72 2.22 14.28 6.24c3.32 3.75 4.88 8.72 4.28 13.63ZM33.12 9.39c0 .86-.7 1.56-1.56 1.56-5.34 0-9.68 4.34-9.68 9.68 0 .86-.7 1.56-1.56 1.56s-1.56-.7-1.56-1.56c0-7.06 5.75-12.81 12.81-12.81.86 0 1.56.7 1.56 1.56Z" style="stroke-width:0"/>
</svg>
