<svg xmlns="http://www.w3.org/2000/svg" data-name="Layer 1" viewBox="0 0 64 64">
  <path d="M64 32c0 8.19-6.66 14.84-14.84 14.84H37.5c-.35 0-.68-.03-1.02-.05 2.52-1.7 4.57-4.05 5.95-6.78h6.73c4.42 0 8.01-3.6 8.01-8.01s-3.6-8.02-8.01-8.02H37.5c-2.13 0-4.06.84-5.5 2.2-.36.34-.69.72-.99 1.13-.31.42-.57.88-.79 1.35a7.882 7.882 0 0 0 0 6.67c-.92 1.02-2.24 1.68-3.72 1.68h-2.96c-.57-1.57-.89-3.25-.89-5.01s.32-3.45.89-5.02c.19-.51.4-1.01.64-1.5.25-.52.53-1.02.84-1.5 1.66-2.58 4.1-4.61 6.98-5.76.69-.27 1.4-.5 2.13-.67a15 15 0 0 1 2.34-.35c.34-.02.68-.05 1.02-.05h11.66c8.19 0 14.84 6.66 14.84 14.85Zm-25.02 8.01c.31-.48.59-.98.84-1.5.24-.49.45-.99.64-1.5.57-1.57.89-3.25.89-5.01s-.32-3.45-.89-5.02H37.5c-1.48 0-2.8.66-3.72 1.68a7.882 7.882 0 0 1 0 6.67c-.22.48-.49.93-.79 1.35-.29.41-.62.78-.99 1.13a7.983 7.983 0 0 1-5.5 2.2H14.84c-4.42 0-8.01-3.6-8.01-8.01s3.6-8.02 8.01-8.02h6.73c1.38-2.73 3.43-5.07 5.95-6.78-.34-.02-.68-.05-1.02-.05H14.84C6.65 17.15 0 23.81 0 32s6.66 14.84 14.84 14.84H26.5c.35 0 .68-.03 1.02-.05a15 15 0 0 0 2.34-.35 14.877 14.877 0 0 0 9.11-6.43Z" style="stroke-width:0"/>
</svg>
