<svg xmlns="http://www.w3.org/2000/svg" data-name="Layer 1" viewBox="0 0 64 64">
  <path d="m58.94 29.55-9.61 9.61c-.79.79-1.64 1.47-2.53 2.08a20.313 20.313 0 0 0-.52-10.3l7.02-7.02c3.64-3.64 3.64-9.57 0-13.22-1.82-1.82-4.22-2.73-6.61-2.73s-4.79.91-6.61 2.73l-7.02 7.02-1.22 1.22-1.24 1.24-.13.13a9.315 9.315 0 0 0-2.69 7.47c.05.52.15 1.04.28 1.55.15.57.36 1.12.61 1.66.44.92 1.04 1.79 1.8 2.55.76.76 1.63 1.36 2.55 1.8.61 2.15.08 4.55-1.61 6.24l-1.22 1.22c-1.94-.84-3.77-2.04-5.35-3.62a17.374 17.374 0 0 1-4.21-6.89 17.462 17.462 0 0 1 .24-11.4c.23-.63.5-1.25.81-1.86.32-.62.68-1.23 1.08-1.81.6-.89 1.29-1.74 2.08-2.53l9.61-9.61C37.82 1.69 42.26 0 46.69 0c4.43 0 8.87 1.69 12.25 5.06 6.75 6.75 6.75 17.73 0 24.49Zm-15.57 2.18c-.17-.52-.36-1.04-.58-1.54-.84-1.94-2.04-3.77-3.62-5.35a17.374 17.374 0 0 0-5.35-3.63l-1.22 1.22a6.29 6.29 0 0 0-1.85 4.49c0 .6.09 1.19.25 1.75.92.44 1.79 1.04 2.55 1.8.76.76 1.35 1.63 1.8 2.55.26.54.46 1.09.61 1.66.14.51.23 1.03.28 1.55.24 2.67-.65 5.43-2.69 7.47l-.13.13-1.24 1.24-1.22 1.22-7.02 7.02c-1.82 1.82-4.22 2.73-6.61 2.73s-4.79-.91-6.61-2.73c-3.65-3.65-3.65-9.58 0-13.22l7.02-7.02a20.313 20.313 0 0 1-.52-10.3c-.89.6-1.74 1.29-2.53 2.08l-9.61 9.61c-6.75 6.75-6.75 17.73 0 24.49 3.38 3.38 7.81 5.06 12.24 5.06s8.87-1.69 12.24-5.06l9.61-9.61c.79-.79 1.47-1.64 2.08-2.53.4-.59.76-1.19 1.08-1.81.31-.6.57-1.23.81-1.86a17.373 17.373 0 0 0 .24-11.4Z" style="stroke-width:0"/>
</svg>
