<svg xmlns="http://www.w3.org/2000/svg" data-name="Layer 1" viewBox="0 0 64 64">
  <path d="M32 64c-.45 0-.88-.2-1.16-.55-.53-.65-13.03-16.03-18.6-26.81-.04-.08-.07-.14-.1-.21a24.808 24.808 0 0 1-3.27-12.32C8.88 10.82 19.25 0 32 0s23.12 10.82 23.12 24.11c0 4.33-1.14 8.6-3.29 12.35 0 .03-.04.1-.07.16-5.57 10.79-18.07 26.17-18.6 26.82a1.5 1.5 0 0 1-1.16.55Zm0-61c-11.1 0-20.12 9.47-20.12 21.11 0 3.81 1 7.56 2.89 10.86l.12.26C19.35 43.88 28.72 55.97 32 60.11c3.28-4.14 12.64-16.22 17.09-24.84l.09-.21c1.94-3.38 2.94-7.13 2.94-10.94 0-11.64-9.03-21.11-20.12-21.11Zm0 30.81c-5.15 0-9.35-4.19-9.35-9.35s4.19-9.35 9.35-9.35 9.35 4.19 9.35 9.35-4.19 9.35-9.35 9.35Zm0-15.69c-3.5 0-6.35 2.85-6.35 6.35s2.85 6.35 6.35 6.35 6.35-2.85 6.35-6.35-2.85-6.35-6.35-6.35Z" style="stroke-width:0"/>
</svg>
