<svg xmlns="http://www.w3.org/2000/svg" data-name="Layer 1" viewBox="0 0 64 64">
  <path d="M50.25 21.86H46.9v-6.91C46.9 6.73 40.22.05 32 .05s-14.9 6.68-14.9 14.9v6.91h-3.35c-2.88 0-5.23 2.34-5.23 5.23v31.6a5.24 5.24 0 0 0 5.23 5.23h36.5c2.88 0 5.23-2.34 5.23-5.23v-31.6c0-2.88-2.34-5.23-5.23-5.23ZM20.1 14.95c0-6.56 5.34-11.9 11.9-11.9s11.9 5.34 11.9 11.9v6.91H20.1v-6.91Zm32.38 43.74c0 1.23-1 2.23-2.23 2.23h-36.5c-1.23 0-2.23-1-2.23-2.23v-31.6c0-1.23 1-2.23 2.23-2.23h36.5c1.23 0 2.23 1 2.23 2.23v31.6ZM32 33.56a6.17 6.17 0 0 0-6.16 6.16c0 1.16.33 2.28.93 3.24l-.9 5.8c-.13.87.12 1.75.69 2.41s1.4 1.05 2.28 1.05h6.31c.88 0 1.71-.38 2.28-1.05s.82-1.55.69-2.41l-.9-5.8c.6-.97.93-2.09.93-3.24a6.17 6.17 0 0 0-6.16-6.16Zm3.16 15.66h-6.31l1.1-7.12c-.67-.58-1.1-1.42-1.1-2.38a3.16 3.16 0 0 1 6.32 0c0 .96-.43 1.8-1.1 2.38l1.1 7.12Z" style="stroke-width:0"/>
</svg>
