<svg xmlns="http://www.w3.org/2000/svg" data-name="Layer 1" viewBox="0 0 64 64">
  <path d="M49.39.82c-8.01 0-14.53 6.52-14.53 14.53v6.51H5.24a5.16 5.16 0 0 0-5.16 5.16v31.01c0 2.84 2.31 5.16 5.16 5.16h35.81c2.84 0 5.16-2.31 5.16-5.16V27.02c0-2.84-2.31-5.16-5.16-5.16h-3.18v-6.51c0-6.36 5.17-11.53 11.53-11.53s11.53 5.17 11.53 11.53v7.57c0 .83.67 1.5 1.5 1.5s1.5-.67 1.5-1.5v-7.57C63.93 7.34 57.41.82 49.4.82Zm-6.19 26.2v31.01c0 1.19-.97 2.16-2.16 2.16H5.24c-1.19 0-2.16-.97-2.16-2.16V27.02c0-1.19.97-2.16 2.16-2.16h35.81c1.19 0 2.16.97 2.16 2.16ZM17.08 48.27c-.13.87.12 1.75.69 2.41.57.67 1.4 1.05 2.28 1.05h6.19c.88 0 1.71-.38 2.28-1.05s.82-1.55.69-2.41l-.88-5.67c.59-.95.91-2.06.91-3.19 0-3.36-2.73-6.1-6.1-6.1s-6.1 2.73-6.1 6.1c0 1.14.32 2.24.91 3.19l-.88 5.67Zm2.96-8.86c0-1.71 1.39-3.1 3.1-3.1s3.1 1.39 3.1 3.1c0 .94-.43 1.77-1.08 2.33l1.08 6.99h-6.19l1.08-6.99a3.07 3.07 0 0 1-1.08-2.33Z" style="stroke-width:0"/>
</svg>
