<svg xmlns="http://www.w3.org/2000/svg" data-name="Layer 1" viewBox="0 0 64 64">
  <path d="M63.47 56.7 43.94 37.17l-3.64-3.64c4.39-6.96 4.68-16.11-.05-23.47C33.74-.08 20.2-3.03 10.06 3.48 5.15 6.63 1.76 11.51.52 17.21S.33 28.76 3.48 33.67C7.65 40.16 14.7 43.71 21.9 43.71c4 0 8.04-1.1 11.65-3.39l3.63 3.63 19.53 19.53a1.499 1.499 0 0 0 2.12 0l4.65-4.65c.59-.59.59-1.54 0-2.12ZM6 32.04c-2.72-4.24-3.63-9.28-2.55-14.2 1.07-4.92 4-9.13 8.24-11.85 3.14-2.02 6.67-2.98 10.15-2.98 6.21 0 12.3 3.06 15.89 8.66 4.76 7.42 3.63 16.95-2.16 23.09l-.89.89c-.81.75-1.67 1.45-2.63 2.06-8.75 5.62-20.43 3.07-26.04-5.68Zm30.77 5.78c.31-.29.61-.59.9-.9l.89-.89 2.21 2.21-1.92 1.92-.6.6-2.21-2.21.74-.74Zm20.99 22.47-17.41-17.4 1.92-1.92.6-.6 17.4 17.4-2.52 2.52ZM29.25 9.16c-.34.75-1.23 1.09-1.99.75-4.01-1.82-8.64-1.5-12.39.85-.25.16-.52.23-.8.23-.5 0-.99-.25-1.27-.7-.44-.7-.23-1.63.47-2.07 4.6-2.89 10.29-3.28 15.22-1.04.75.34 1.09 1.23.75 1.99Zm4.67 5.93c-.48 0-.95-.23-1.24-.65-.47-.68-1-1.32-1.6-1.91a1.5 1.5 0 0 1 2.11-2.13c.73.72 1.39 1.51 1.96 2.34a1.5 1.5 0 0 1-1.24 2.35Z"/>
</svg>
