<svg xmlns="http://www.w3.org/2000/svg" data-name="Layer 1" viewBox="0 0 64 64">
  <text style="fill:#fff;font-family:WorkSansRoman-Bold,&quot;GSSKA L+ Work Sans Roman&quot;;font-size:25px;font-weight:700" transform="rotate(-32.81 190.356 464.713)"><tspan x="0" y="0">b</tspan></text>
  <text style="fill:#fff;font-family:WorkSansRoman-Bold,&quot;GSSKA L+ Work Sans Roman&quot;;font-size:25px;font-weight:700" transform="rotate(-32.81 182.804 439.089)"><tspan x="0" y="0">a</tspan></text>
  <text style="fill:#fff;font-family:WorkSansRoman-Bold,&quot;GSSKA L+ Work Sans Roman&quot;;font-size:25px;font-weight:700" transform="rotate(-32.81 176.346 417.145)"><tspan x="0" y="0">r</tspan></text>
  <text style="fill:#fff;font-family:WorkSansRoman-Bold,&quot;GSSKA L+ Work Sans Roman&quot;;font-size:25px;font-weight:700" transform="rotate(-32.81 171.812 401.766)"><tspan x="0" y="0">s</tspan></text>
  <text style="fill:#fff;font-family:WorkSansRoman-Bold,&quot;GSSKA L+ Work Sans Roman&quot;;font-size:25px;font-weight:700" transform="rotate(-32.81 233.056 319.678)"><tspan x="0" y="0">l</tspan></text>
  <text style="fill:#fff;font-family:WorkSansRoman-Bold,&quot;GSSKA L+ Work Sans Roman&quot;;font-size:25px;font-weight:700" transform="rotate(-32.81 229.68 308.201)"><tspan x="0" y="0">i</tspan></text>
  <text style="fill:#fff;font-family:WorkSansRoman-Bold,&quot;GSSKA L+ Work Sans Roman&quot;;font-size:25px;font-weight:700" transform="rotate(-32.81 226.311 296.764)"><tspan x="0" y="0">n</tspan></text>
  <text style="fill:#fff;font-family:WorkSansRoman-Bold,&quot;GSSKA L+ Work Sans Roman&quot;;font-size:25px;font-weight:700" transform="rotate(-32.81 218.93 271.688)"><tspan x="0" y="0">k</tspan></text>
  <text style="fill:#fff;font-family:WorkSansRoman-Bold,&quot;GSSKA L+ Work Sans Roman&quot;;font-size:25px;font-weight:700" transform="rotate(-32.81 274.363 179.436)"><tspan x="0" y="0">l</tspan></text>
  <text style="fill:#fff;font-family:WorkSansRoman-Bold,&quot;GSSKA L+ Work Sans Roman&quot;;font-size:25px;font-weight:700" transform="rotate(-32.81 270.963 167.916)"><tspan x="0" y="0">i</tspan></text>
  <text style="fill:#fff;font-family:WorkSansRoman-Bold,&quot;GSSKA L+ Work Sans Roman&quot;;font-size:25px;font-weight:700" transform="rotate(-32.81 267.594 156.479)"><tspan x="0" y="0">n</tspan></text>
  <text style="fill:#fff;font-family:WorkSansRoman-Bold,&quot;GSSKA L+ Work Sans Roman&quot;;font-size:25px;font-weight:700" transform="rotate(-32.81 260.225 131.425)"><tspan x="0" y="0">k</tspan></text>
  <text style="fill:#fff;font-family:WorkSansRoman-Bold,&quot;GSSKA L+ Work Sans Roman&quot;;font-size:25px;font-weight:700" transform="rotate(-32.81 253.92 110.025)"><tspan x="0" y="0"> </tspan></text>
  <text style="fill:#fff;font-family:WorkSansRoman-Bold,&quot;GSSKA L+ Work Sans Roman&quot;;font-size:25px;font-weight:700" transform="rotate(-32.81 250.826 99.535)"><tspan x="0" y="0">f</tspan></text>
  <text style="fill:#fff;font-family:WorkSansRoman-Bold,&quot;GSSKA L+ Work Sans Roman&quot;;font-size:25px;font-weight:700" transform="rotate(-32.81 246.75 85.675)"><tspan x="0" y="0">l</tspan></text>
  <text style="fill:#fff;font-family:WorkSansRoman-Bold,&quot;GSSKA L+ Work Sans Roman&quot;;font-size:25px;font-weight:700" transform="rotate(-32.81 243.35 74.155)"><tspan x="0" y="0">a</tspan></text>
  <text style="fill:#fff;font-family:WorkSansRoman-Bold,&quot;GSSKA L+ Work Sans Roman&quot;;font-size:25px;font-weight:700" transform="rotate(-32.81 236.909 52.216)"><tspan x="0" y="0">t</tspan></text>
  <path d="m62.96 57.99-17.3-17.3c7.51-9.94 6.75-24.19-2.31-33.25C38.55 2.64 32.17 0 25.39 0S12.23 2.64 7.43 7.44c-9.9 9.9-9.9 26.01 0 35.91 4.8 4.8 11.17 7.44 17.96 7.44 5.6 0 10.91-1.8 15.3-5.12l17.3 17.3c.69.69 1.59 1.03 2.49 1.03s1.8-.34 2.49-1.03a3.53 3.53 0 0 0 0-4.98ZM12.41 38.37c-7.16-7.16-7.16-18.8 0-25.96 3.58-3.58 8.28-5.37 12.98-5.37s9.4 1.79 12.98 5.37c7.16 7.16 7.16 18.8 0 25.96s-18.8 7.16-25.96 0Z"/>
</svg>
