<svg xmlns="http://www.w3.org/2000/svg" data-name="Layer 1" viewBox="0 0 64 64">
  <path d="M60.09 14.73c-.07-.64-.54-1.17-1.17-1.3l-3.47-.76c.08-.52.12-1.04.12-1.56C55.57 5.34 51.05.64 45.49.64s-10.08 4.7-10.08 10.47c0 .5.04.99.11 1.48l-3.52.77-12.98-2.86c-.06-.01-.13-.02-.19-.02-.04 0-.08-.01-.12-.01-.1 0-.2.01-.29.03h-.04l-13.3 2.93c-.63.14-1.1.66-1.17 1.3L0 52.09a1.499 1.499 0 0 0 1.49 1.65c.09 0 .19 0 .28-.03l14.97-2.87 14.97 2.87c.09.02.19.03.28.03s.19 0 .28-.03l14.97-2.87 14.97 2.87c.09.02.19.03.28.03.37 0 .73-.14 1.01-.39.35-.32.52-.79.48-1.26l-3.9-37.36ZM15.32 48.07 3.19 50.4l3.58-34.29 10.33-2.27-1.79 34.23Zm15.19 2.36-12.2-2.34.51-9.82 1.28-24.48 10.41 2.29v34.35ZM45.5 3.61c3.91 0 7.09 3.36 7.09 7.49 0 1.36-.36 2.69-1.06 3.93l-.04.09c-1.48 2.87-4.38 6.74-5.99 8.82-1.61-2.08-4.5-5.95-5.97-8.79-.02-.05-.07-.14-.09-.19a7.799 7.799 0 0 1-1.03-3.86c0-4.13 3.18-7.49 7.09-7.49Zm-12 46.82V16.08l2.86-.63c.14.32.28.63.45.94.01.03.03.07.04.09 2.25 4.36 7.28 10.54 7.49 10.81.08.1.18.19.28.26l.56 10.72.51 9.82-12.2 2.34Zm15.19-2.36-1.14-21.9c1.58-2.02 4.89-6.37 6.59-9.66.02-.04.04-.08.06-.13.16-.28.28-.57.41-.85l2.63.58 3.58 34.29-12.13-2.33Zm-6.3-36.83c0-1.72 1.4-3.12 3.12-3.12s3.12 1.4 3.12 3.12-1.4 3.12-3.12 3.12-3.12-1.4-3.12-3.12Z" style="stroke-width:0"/>
</svg>
