<svg xmlns="http://www.w3.org/2000/svg" data-name="Layer 1" viewBox="0 0 64 64">
  <path d="M60.21 14.56a1.51 1.51 0 0 0-1.17-1.31l-13.36-2.94h-.03c-.1-.02-.2-.03-.3-.03-.04 0-.08 0-.11.01-.07 0-.13 0-.2.02L32 13.18l-13.04-2.87c-.06-.01-.13-.01-.19-.02-.04 0-.08-.01-.12-.01-.1 0-.2.01-.29.03h-.04L4.96 13.25c-.63.14-1.1.67-1.17 1.31L-.13 52.07c-.05.47.13.94.48 1.26.28.26.64.4 1.01.4.09 0 .19 0 .28-.03l15.03-2.88L31.7 53.7c.09.02.19.03.28.03s.19 0 .28-.03l15.03-2.88 15.03 2.88a1.464 1.464 0 0 0 1.29-.37c.35-.32.53-.79.48-1.26l-3.92-37.51ZM6.67 15.95l10.38-2.28-1.8 34.38-12.18 2.34 3.59-34.45Zm12.1 22.25 1.28-24.58 10.45 2.3v34.49l-12.25-2.35.51-9.86Zm14.74 12.21V15.92l10.45-2.3 1.28 24.58.51 9.86-12.25 2.35Zm15.25-2.37-1.8-34.38 10.38 2.28 3.6 34.43-12.18-2.34Z" style="stroke-width:0"/>
</svg>
