<svg xmlns="http://www.w3.org/2000/svg" data-name="Layer 1" viewBox="0 0 64 64">
  <path d="M63.71 10.91a3.28 3.28 0 0 0-1.03-2.31L54.59.9c-.64-.61-1.46-.93-2.36-.91-.88.02-1.7.39-2.31 1.03l-3.86 4.06-5.37 5.65-23 24.17-7.4 7.78c-.08.08-.15.18-.21.28l-5.9 10.23c-.35.6-.24 1.36.27 1.84l.15.14L.56 61c-.3.43-.35.97-.14 1.45s.64.81 1.16.89l4.44.65c.07.01.15.02.22.02.29 0 .58-.09.83-.25l3.86-2.57.22.21c.29.27.66.41 1.03.41.28 0 .56-.08.81-.24l9.91-6.41s.02-.01.02-.02c.07-.04.13-.1.19-.15.02-.02.04-.03.06-.05l35.77-37.6 3.86-4.06c.61-.64.93-1.48.91-2.36Zm-21.89 2.97L45 16.91l-20.93 22-3.18-3.03 20.93-22Zm-23 24.18 4.27 4.06c.29.28.66.41 1.03.41.4 0 .79-.16 1.09-.47l23-24.17c.27-.29.42-.67.41-1.07 0-.4-.18-.78-.47-1.05l-4.27-4.06 3.31-3.48 8.54 8.12-33.7 35.43-8.54-8.12 5.33-5.61Zm-6.48 20.36-.22-.21s0-.01-.01-.01l-4.53-4.31s-.01 0-.02-.01l-.21-.2 4.36-7.55 7.95 7.56-7.32 4.73Zm48.29-47.21-2.83 2.97-8.54-8.12 2.83-2.97A.27.27 0 0 1 52.3 3c.07 0 .14.01.22.08l8.1 7.7c.08.07.09.16.09.21s-.01.14-.08.22Z" style="stroke-width:0"/>
</svg>
