<svg xmlns="http://www.w3.org/2000/svg" data-name="Layer 1" viewBox="0 0 64 64">
  <path d="M35.45 50.86c0 .44.04.91.13 1.42.08.47.38.88.82 1.09.43.21.94.21 1.36-.02 2.08-1.08 4.81-1.68 7.69-1.68s5.61.6 7.69 1.68c.22.11.46.17.7.17s.46-.05.67-.16c.43-.21.73-.62.82-1.09.09-.51.13-.98.13-1.42 0-5.01-4.49-9.08-10-9.08s-10 4.07-10 9.08Zm10-6.07c3.42 0 6.28 2.15 6.88 4.97-4.14-1.41-9.61-1.41-13.75 0 .6-2.82 3.45-4.97 6.88-4.97ZM47 33.66c-.36-.75-.04-1.65.71-2 .75-.36 1.65-.04 2 .7.58 1.2 1.83 1.98 3.19 1.98s2.62-.78 3.19-1.98a1.504 1.504 0 0 1 2.71 1.3c-1.07 2.24-3.39 3.68-5.9 3.68s-4.83-1.45-5.9-3.68Zm16.36-13.27c-.4-.28-.92-.35-1.38-.17-.07.03-7.38 2.71-16.53 2.71-3.05 0-5.89-.3-8.34-.71V2.21c0-.49-.24-.95-.65-1.23a1.48 1.48 0 0 0-1.38-.17c-.07.03-7.38 2.71-16.53 2.71S2.1.82 2.03.8C1.57.63 1.05.69.65.98s-.64.74-.64 1.23V25.7c0 10.03 8.32 18.18 18.55 18.18 3 0 5.83-.71 8.34-1.95v3.19c0 10.03 8.32 18.18 18.55 18.18S64 55.14 64 45.12V21.63c0-.49-.24-.95-.65-1.23ZM3.01 25.7V4.27c2.92.86 8.71 2.24 15.55 2.24s12.63-1.39 15.55-2.24V25.7c0 2.1-.44 4.11-1.24 5.93-.25.58-.56 1.14-.88 1.68-2.7 4.52-7.7 7.56-13.43 7.56-8.57 0-15.55-6.81-15.55-15.18ZM61 45.12c0 8.37-6.97 15.18-15.55 15.18S29.9 53.49 29.9 45.12v-5.05c1.55-1.18 2.9-2.58 4-4.17a6.57 6.57 0 0 0 4.09 1.44c2.51 0 4.83-1.45 5.9-3.68.36-.75.04-1.65-.71-2-.75-.36-1.65-.04-2 .7-.58 1.2-1.83 1.98-3.19 1.98-.99 0-1.92-.41-2.58-1.1 1.07-2.3 1.69-4.84 1.69-7.53v-.43c2.47.38 5.29.67 8.34.67 6.84 0 12.63-1.39 15.55-2.24v21.43ZM28.09 23.9a1.5 1.5 0 0 0-1.41.07c-2.2 1.3-5.08 2.02-8.13 2.02s-5.93-.72-8.13-2.02a1.53 1.53 0 0 0-1.41-.07c-.45.21-.77.64-.84 1.13-.09.59-.14 1.13-.14 1.63 0 5.86 4.72 10.63 10.52 10.63s10.52-4.77 10.52-10.63c0-.51-.04-1.04-.14-1.63-.08-.49-.39-.92-.84-1.13Zm-9.54 10.39c-3.82 0-6.98-2.91-7.45-6.66 2.23.89 4.8 1.36 7.45 1.36s5.22-.48 7.45-1.36c-.47 3.75-3.63 6.66-7.45 6.66Zm10.6-17.31c-.59-1.46-1.83-2.4-3.16-2.4s-2.56.94-3.15 2.4c-.24.58-.8.94-1.39.94-.19 0-.38-.04-.57-.11a1.507 1.507 0 0 1-.83-1.96c1.06-2.6 3.39-4.28 5.94-4.28s4.88 1.68 5.94 4.28c.31.77-.06 1.65-.83 1.96-.77.31-1.65-.06-1.96-.83Zm-21.21 0c-.24.58-.8.94-1.39.94-.19 0-.38-.04-.57-.11a1.507 1.507 0 0 1-.83-1.96c1.06-2.6 3.39-4.28 5.94-4.28s4.88 1.68 5.94 4.28c.31.77-.06 1.65-.83 1.96-.77.31-1.65-.06-1.96-.83-.59-1.46-1.83-2.4-3.16-2.4s-2.56.94-3.16 2.4Z" style="stroke-width:0"/>
</svg>
