<svg xmlns="http://www.w3.org/2000/svg" viewBox="0 0 64 64">
  <path d="M62.5 20.4c-.9-.8-2.1-1.2-3.3-1.1-1.2.1-2.7.5-4.2 1-1.2.4-2.4.7-3.1.8h-1c-2.7.1-8.4.5-12.4-2.7-1.5-1.2-3.9-1.9-6.5-1.9s-4.9.7-6.5 1.9c-4.1 3.2-9.7 2.9-12.4 2.7h-1c-.7 0-1.9-.4-3.1-.8-1.4-.4-2.9-.9-4.2-1-1.2-.1-2.4.3-3.3 1.1-.9.8-1.4 2-1.4 3.2v2.3c0 11.3.9 17.4 18.2 19.2 3.3 1.8 7.8 2.6 13.6 2.6s10.3-.8 13.6-2.6c17.3-1.8 18.2-7.9 18.2-19.2v-2.3c0-1.2-.5-2.4-1.4-3.2ZM3.1 25.9v-2.3c0-.4.2-.7.4-1s.6-.4 1-.3c.9 0 2.3.5 3.6.9.6.2 1.3.4 1.9.5 0 8.3 1.3 14.1 4.1 17.9-11-2.1-11-7-11.1-15.6Zm10-1.9c2.9.1 9.4.5 14.3-3.4 1-.8 2.8-1.3 4.6-1.3s3.6.5 4.7 1.3c4.9 3.8 11.4 3.5 14.3 3.4-.2 16.1-4.5 20.6-19 20.6S13.3 40.1 13.1 24Zm47.8 1.9c0 8.6 0 13.5-11 15.6 2.8-3.8 4-9.5 4.1-17.9.6-.1 1.2-.3 1.9-.5 1.3-.4 2.7-.8 3.6-.9.4 0 .7 0 1 .3s.4.6.4 1v2.3Zm-19.1 11c-2.5.8-6.1 1.2-9.9 1.2s-7.4-.4-9.9-1.2c-.8-.2-1.6.2-1.9 1-.2.8.2 1.6 1 1.9 2.8.8 6.7 1.3 10.8 1.3s8-.5 10.8-1.3c.8-.2 1.2-1.1 1-1.9s-1.1-1.2-1.9-1Zm0-5.4c-2.5.8-6.1 1.2-9.9 1.2s-7.4-.4-9.9-1.2c-.8-.2-1.6.2-1.9 1-.2.8.2 1.6 1 1.9 2.8.8 6.7 1.3 10.8 1.3s8-.5 10.8-1.3c.8-.2 1.2-1.1 1-1.9s-1.1-1.2-1.9-1Zm0-5.3c-2.5.8-6.1 1.2-9.9 1.2s-7.4-.4-9.9-1.2c-.8-.2-1.6.2-1.9 1-.2.8.2 1.6 1 1.9 2.8.9 6.7 1.3 10.8 1.3s8-.5 10.8-1.3c.8-.2 1.2-1.1 1-1.9s-1.1-1.2-1.9-1Z"/>
</svg>
