<svg xmlns="http://www.w3.org/2000/svg" data-name="Layer 1" viewBox="0 0 64 64">
  <path d="m39.06 42.8-3.82-.56-1.71-3.46c-.42-.84-1.26-1.37-2.2-1.37s-1.78.52-2.2 1.36l-1.71 3.46-3.82.56c-.93.14-1.69.77-1.98 1.67-.29.89-.05 1.85.62 2.51L25 49.66l-.65 3.8c-.16.93.21 1.84.97 2.39a2.453 2.453 0 0 0 2.58.19l3.42-1.8 3.42 1.8c.83.44 1.82.37 2.58-.19.76-.55 1.13-1.47.97-2.39l-.65-3.8 2.76-2.69a2.453 2.453 0 0 0-1.36-4.18Zm-4.83 5.76.68 3.98-3.58-1.88-3.58 1.88.68-3.98-2.89-2.82 4-.58 1.79-3.62 1.79 3.62 4 .58-2.89 2.82ZM52.47 1.2A2.67 2.67 0 0 0 50.22 0h-9.6c-1.07 0-2.04.62-2.46 1.59L32 15.82 25.84 1.59C25.42.62 24.46 0 23.38 0h-9.6c-.91 0-1.75.45-2.25 1.2a2.54 2.54 0 0 0-.21 2.43l9.51 21.95c-.38.48-.62 1.08-.62 1.75v6.57c-3.66 3.14-5.99 7.79-5.99 12.98C14.22 56.32 21.9 64 31.34 64s17.12-7.68 17.12-17.12c0-5.19-2.33-9.84-5.99-12.98v-6.57s-.01-.08-.01-.11L52.68 3.63c.34-.8.27-1.7-.21-2.43ZM23.06 3.19l7.21 16.64-2.03 4.68h-4.4L14.6 3.19h8.45Zm22.22 43.69c0 7.68-6.25 13.93-13.93 13.93s-13.93-6.25-13.93-13.93 6.25-13.93 13.93-13.93 13.93 6.25 13.93 13.93ZM31.35 29.76c-2.87 0-5.57.72-7.95 1.97v-4.04h15.89v4.04a17.034 17.034 0 0 0-7.94-1.97Zm8.82-5.26h-8.45l2.03-4.68 7.21-16.64h8.45L40.18 24.5Z" style="stroke-width:0"/>
</svg>
