<svg xmlns="http://www.w3.org/2000/svg" data-name="Layer 1" viewBox="0 0 64 64">
  <path d="M44.81 63.99H19.2c-.83 0-1.5-.67-1.5-1.5V46.3H1.51c-.83 0-1.5-.67-1.5-1.5V19.19c0-.83.67-1.5 1.5-1.5H17.7V1.51C17.69.68 18.37 0 19.19 0H44.8c.83 0 1.5.67 1.5 1.5v16.19h16.19c.83 0 1.5.67 1.5 1.5V44.8c0 .83-.67 1.5-1.5 1.5H46.3v16.19c0 .83-.67 1.5-1.5 1.5Zm-24.11-3h22.61V44.8c0-.83.67-1.5 1.5-1.5H61V20.69H44.81c-.83 0-1.5-.67-1.5-1.5V3.01H20.7V19.2c0 .83-.67 1.5-1.5 1.5H3.01v22.61H19.2c.83 0 1.5.67 1.5 1.5V61Z" style="stroke-width:0"/>
</svg>
