<svg xmlns="http://www.w3.org/2000/svg" data-name="Layer 1" viewBox="0 0 64 64">
  <path d="M60.31 21.49H45.29V8.11c0-2.04-1.66-3.69-3.69-3.69H3.69C1.65 4.42 0 6.08 0 8.11v21.77c0 2.04 1.66 3.69 3.69 3.69H9.9V41a1.495 1.495 0 0 0 1.51 1.5c.41 0 .82-.17 1.11-.49l6.2-6.73v11.66c0 2.04 1.66 3.69 3.69 3.69H43.7l7.79 8.45a1.525 1.525 0 0 0 1.66.39c.58-.23.96-.78.96-1.4v-7.43h6.21c2.04 0 3.69-1.66 3.69-3.69V25.18c0-2.04-1.66-3.69-3.69-3.69ZM12.92 37.15v-5.08c0-.83-.67-1.51-1.51-1.51H3.69a.68.68 0 0 1-.68-.68V8.11c0-.38.31-.68.68-.68h37.89c.38 0 .68.31.68.68v21.77c0 .38-.31.68-.68.68H19.63c-.42 0-.82.18-1.11.49l-5.62 6.1Zm48.07 9.81c0 .38-.31.68-.68.68H52.6c-.83 0-1.51.67-1.51 1.51v5.08l-5.62-6.1c-.28-.31-.69-.49-1.11-.49H22.41a.68.68 0 0 1-.68-.68V33.58h19.86c2.04 0 3.69-1.66 3.69-3.69v-5.38H60.3c.38 0 .68.31.68.68v21.77ZM23.92 23.93c.37.36.56.86.56 1.5s-.19 1.12-.56 1.48c-.38.36-.88.54-1.53.54s-1.17-.18-1.54-.54c-.37-.36-.55-.85-.55-1.48s.18-1.14.55-1.5c.37-.36.88-.54 1.54-.54s1.15.18 1.53.54ZM20 16.26l-3.47-1.39c.18-.88.52-1.65 1.02-2.34.5-.68 1.17-1.22 2.02-1.62.85-.4 1.9-.59 3.16-.59 1.12 0 2.11.17 2.97.52.87.35 1.55.87 2.04 1.57.5.7.75 1.55.75 2.56s-.2 1.87-.59 2.53-.92 1.15-1.57 1.48c-.66.33-1.39.54-2.2.64l-.18 2.25h-3.22v-3.84c1-.12 1.78-.28 2.34-.49.57-.21.97-.48 1.19-.82s.34-.73.34-1.19c0-.42-.08-.77-.23-1.06s-.39-.51-.7-.66c-.31-.15-.72-.23-1.21-.23-.71 0-1.27.23-1.7.68-.43.45-.69 1.12-.78 2Z" style="stroke-width:0"/>
</svg>
