<svg xmlns="http://www.w3.org/2000/svg" data-name="Layer 1" viewBox="0 0 64 64">
  <path d="M48.21 61.33c-.41 0-.82-.17-1.11-.49L35.67 48.43H4.66C2.09 48.43 0 46.34 0 43.77V7.33c0-2.57 2.09-4.66 4.66-4.66h54.67c2.57 0 4.66 2.09 4.66 4.66v36.43c0 2.57-2.09 4.66-4.66 4.66h-9.62v11.39a1.495 1.495 0 0 1-1.51 1.5ZM4.66 5.68c-.91 0-1.65.74-1.65 1.65v36.43c0 .91.74 1.65 1.65 1.65h31.66c.42 0 .82.18 1.11.49l9.27 10.06v-9.04c0-.83.67-1.51 1.51-1.51h11.13c.91 0 1.65-.74 1.65-1.65V7.33c0-.91-.74-1.65-1.65-1.65H4.66Zm27.47 6.86c1.61 0 3.04.25 4.29.75s2.23 1.25 2.95 2.26c.72 1.01 1.08 2.24 1.08 3.7s-.28 2.7-.85 3.64a5.35 5.35 0 0 1-2.27 2.13c-.95.47-2.01.78-3.18.93l-.26 3.24h-4.64v-5.54c1.44-.17 2.56-.41 3.38-.71.82-.3 1.39-.7 1.72-1.18.33-.49.5-1.06.5-1.71 0-.61-.11-1.12-.33-1.53-.22-.41-.56-.73-1.01-.95s-1.03-.33-1.74-.33c-1.02 0-1.83.33-2.45.98-.62.66-.99 1.62-1.13 2.88l-5-2c.26-1.26.76-2.39 1.47-3.37.72-.98 1.69-1.76 2.92-2.33 1.23-.57 2.74-.86 4.56-.86Zm-.5 18.84c.93 0 1.66.26 2.2.78.54.52.81 1.25.81 2.17s-.27 1.61-.81 2.13c-.54.52-1.28.78-2.2.78s-1.69-.26-2.22-.78c-.53-.52-.8-1.23-.8-2.13s.26-1.65.8-2.17c.53-.52 1.27-.78 2.22-.78Z" style="stroke-width:0"/>
</svg>
