<svg xmlns="http://www.w3.org/2000/svg" data-name="Layer 1" viewBox="0 0 64 64">
  <path d="M26.56 48.43h10.87c5.79 0 10.49-5.14 10.49-11.46V11.49C47.93 4.85 43.09.03 36.43.03h-8.85c-6.67 0-11.51 4.82-11.51 11.46v25.48c0 6.32 4.71 11.46 10.49 11.46ZM25.22 3.32v4.47c0 .83.67 1.5 1.5 1.5s1.5-.67 1.5-1.5V3.03h2.28v4.75c0 .83.67 1.5 1.5 1.5s1.5-.67 1.5-1.5V3.03h2.28v4.75c0 .83.67 1.5 1.5 1.5s1.5-.67 1.5-1.5V3.31c3.71.92 6.15 4.02 6.15 8.17v1.92h-8.95c-.83 0-1.5.67-1.5 1.5s.67 1.5 1.5 1.5h8.95v2.22h-8.95c-.83 0-1.5.67-1.5 1.5s.67 1.5 1.5 1.5h8.95v2.22h-8.95c-.83 0-1.5.67-1.5 1.5s.67 1.5 1.5 1.5h8.95v2.22h-8.95c-.83 0-1.5.67-1.5 1.5s.67 1.5 1.5 1.5h8.95v2.22h-8.95c-.83 0-1.5.67-1.5 1.5s.67 1.5 1.5 1.5h8.94c-.15 4.52-3.44 8.15-7.48 8.15H26.57c-4.04 0-7.33-3.63-7.48-8.15h8.94c.83 0 1.5-.67 1.5-1.5s-.67-1.5-1.5-1.5h-8.95v-2.22h8.95c.83 0 1.5-.67 1.5-1.5s-.67-1.5-1.5-1.5h-8.95v-2.22h8.95c.83 0 1.5-.67 1.5-1.5s-.67-1.5-1.5-1.5h-8.95v-2.22h8.95c.83 0 1.5-.67 1.5-1.5s-.67-1.5-1.5-1.5h-8.95V16.4h8.95c.83 0 1.5-.67 1.5-1.5s-.67-1.5-1.5-1.5h-8.95v-1.92c0-4.16 2.44-7.26 6.15-8.17Zm27.5 26.74v7.84c0 8.41-6.84 15.26-15.26 15.26H33.5v7.82h12.93c.83 0 1.5.67 1.5 1.5s-.67 1.5-1.5 1.5H17.57c-.83 0-1.5-.67-1.5-1.5s.67-1.5 1.5-1.5H30.5v-7.82h-3.96c-8.41 0-15.26-6.84-15.26-15.26v-7.84c0-.83.67-1.5 1.5-1.5s1.5.67 1.5 1.5v7.84c0 6.76 5.5 12.26 12.26 12.26h10.92c6.76 0 12.26-5.5 12.26-12.26v-7.84c0-.83.67-1.5 1.5-1.5s1.5.67 1.5 1.5Z" style="stroke-width:0"/>
</svg>
