<svg xmlns="http://www.w3.org/2000/svg" data-name="Layer 1" viewBox="0 0 64 64">
  <path d="M47.28.02H16.73c-2.33 0-4.22 1.89-4.22 4.21v55.51a4.22 4.22 0 0 0 4.22 4.22h30.55a4.22 4.22 0 0 0 4.22-4.22V4.23A4.232 4.232 0 0 0 47.28.02Zm-30.55 3h30.55c.67 0 1.22.55 1.22 1.22v1.21h-8.55c-1.25 0-2.29.9-2.51 2.08H26.58a2.556 2.556 0 0 0-2.51-2.08h-8.55V4.24c0-.67.55-1.22 1.22-1.22ZM48.5 52.44H36.57c-.63-1.93-2.43-3.33-4.57-3.33s-3.93 1.4-4.56 3.33H15.51V8.45h8.15a2.556 2.556 0 0 0 2.51 2.08h11.67c1.25 0 2.29-.9 2.51-2.08h8.15v43.98Zm-14.67 1.5a1.83 1.83 0 1 1-3.662-.002 1.83 1.83 0 0 1 3.662.002Zm13.45 7.05H16.73c-.67 0-1.22-.55-1.22-1.22v-4.34h11.93c.63 1.93 2.43 3.33 4.56 3.33s3.93-1.4 4.57-3.33H48.5v4.34c0 .67-.55 1.22-1.22 1.22Z" style="stroke-width:0"/>
</svg>
