<svg xmlns="http://www.w3.org/2000/svg" data-name="Layer 1" viewBox="0 0 64 64">
  <path d="M32 19.55c-5.95 0-10.78 5.58-10.78 12.45S26.06 44.45 32 44.45 42.78 38.87 42.78 32 37.94 19.55 32 19.55Zm0 21.89c-4.29 0-7.78-4.23-7.78-9.44s3.49-9.44 7.78-9.44 7.78 4.23 7.78 9.44-3.49 9.44-7.78 9.44Zm30.5-27.42h-61c-.83 0-1.5.67-1.5 1.5v32.94c0 .83.67 1.5 1.5 1.5h60.99c.83 0 1.5-.67 1.5-1.5V15.53c0-.83-.67-1.5-1.5-1.5ZM61 17.03v9.73c-5.05-.67-9.06-4.68-9.73-9.73H61Zm0 12.76v4.41c-6.71.7-12.06 6.05-12.76 12.76H15.77c-.7-6.71-6.05-12.06-12.76-12.76v-4.41c6.71-.7 12.06-6.05 12.76-12.76h32.46c.7 6.71 6.05 12.06 12.76 12.76ZM3.01 17.03h9.73c-.67 5.05-4.68 9.06-9.73 9.73v-9.73Zm0 29.93v-9.73c5.05.67 9.06 4.68 9.73 9.73H3.01Zm57.98 0h-9.73c.67-5.05 4.68-9.06 9.73-9.73v9.73ZM30.87 29.9s.24.34 1.47.62c3.14.72 3.8 2.33 3.8 3.56 0 1.52-1.09 2.81-2.63 3.34v2.7H30.5v-2.7c-1.54-.52-2.63-1.82-2.63-3.34h3.01c0 .21.43.59 1.13.59s1.13-.38 1.13-.59c0 0-.24-.34-1.47-.62-3.14-.72-3.8-2.33-3.8-3.56 0-1.52 1.09-2.81 2.63-3.34v-2.7h3.01v2.7c1.54.52 2.63 1.82 2.63 3.34h-3.01c0-.21-.43-.59-1.13-.59s-1.13.38-1.13.59Z" style="stroke-width:0"/>
</svg>
