<svg xmlns="http://www.w3.org/2000/svg" data-name="Layer 1" viewBox="0 0 64 64">
  <path d="M41.06 29.05h-13.5c-.85 0-1.55-.69-1.55-1.55s.69-1.55 1.55-1.55h13.5c.85 0 1.55.69 1.55 1.55s-.69 1.55-1.55 1.55Zm-2.61 3.48H27.56c-.85 0-1.55.69-1.55 1.55s.69 1.55 1.55 1.55h10.89c.85 0 1.55-.69 1.55-1.55s-.69-1.55-1.55-1.55Zm-2.76 6.57h-8.13c-.85 0-1.55.69-1.55 1.55s.69 1.55 1.55 1.55h8.13c.85 0 1.55-.69 1.55-1.55s-.69-1.55-1.55-1.55Zm-20.85-9.43c1.26 0 2.13.72 2.13 1.38h3.09c0-2-1.56-3.68-3.68-4.25v-4.2h-3.09v4.2c-2.12.57-3.68 2.25-3.68 4.25 0 1.49.84 3.47 4.87 4.43.75.18 2.49.67 2.49 1.42 0 .65-.88 1.37-2.13 1.37s-2.13-.72-2.13-1.37H9.62c0 2 1.56 3.68 3.68 4.25v4.2h3.09v-4.2c2.12-.57 3.68-2.24 3.68-4.25 0-2.17-1.64-3.66-4.87-4.43-1.56-.37-2.49-.9-2.49-1.42 0-.65.88-1.38 2.13-1.38Zm48.4-9.51-1.44 2.35v27.6c0 .85-.69 1.55-1.55 1.55H1.55C.7 51.66 0 50.97 0 50.11V17.83c0-.85.69-1.55 1.55-1.55h52.02l.91-1.49c1.48-2.41 4.65-3.17 7.07-1.69 2.41 1.48 3.17 4.65 1.69 7.07Zm-6.12-3.76L46.46 33.76l3.48 2.14L60.6 18.54c.59-.96.29-2.22-.67-2.81s-2.22-.29-2.81.67ZM45.49 36.79l-.56 3.37 2.75-2.02-2.2-1.35Zm13.22-9.25-6.93 11.29s-.04.05-.06.07c-.04.06-.09.12-.14.18-.04.04-.08.08-.13.12-.03.02-.05.05-.07.07l-7.67 5.63c-.27.2-.59.3-.92.3-.28 0-.56-.08-.81-.23-.54-.33-.82-.95-.72-1.57l1.55-9.38V34c.02-.11.05-.21.09-.31.01-.03.03-.07.05-.1.02-.04.04-.09.06-.13l8.65-14.1H3.09v29.19H58.7V27.54Z" style="stroke-width:0"/>
</svg>
