<svg xmlns="http://www.w3.org/2000/svg" data-name="Layer 1" viewBox="0 0 64 64">
  <path d="M32.34 63.81c-3.98 0-7.97-.76-11.78-2.28-7.89-3.14-14.09-9.17-17.45-16.98-6.93-16.11.54-34.86 16.65-41.79C24.14.88 28.81.03 33.63.23c.68.03 1.25.5 1.4 1.16.15.66-.16 1.34-.75 1.66-12.07 6.5-17.09 20.91-11.67 33.51 5.19 12.05 18.62 18.46 31.25 14.9a1.502 1.502 0 0 1 1.49 2.48 31.615 31.615 0 0 1-10.46 7.27 31.7 31.7 0 0 1-12.56 2.61Zm-4.1-60.33c-2.51.35-4.95 1.03-7.29 2.04C6.35 11.8-.41 28.78 5.87 43.37c3.04 7.07 8.65 12.53 15.8 15.38 7.15 2.85 14.98 2.74 22.05-.3 1.96-.84 3.8-1.88 5.5-3.11-12.32 1.03-24.32-5.89-29.35-17.59-5.29-12.31-1.66-26.15 8.38-34.26Zm8.82 22.17c-.62 0-1.18-.38-1.4-.96l-1.78-4.62-4.62-1.78c-.58-.22-.96-.78-.96-1.4s.38-1.18.96-1.4l4.62-1.78 1.78-4.62c.22-.58.78-.96 1.4-.96s1.18.38 1.4.96l1.78 4.62 4.62 1.78c.58.22.96.78.96 1.4s-.38 1.18-.96 1.4l-4.62 1.78-1.78 4.62c-.22.58-.78.96-1.4.96Zm-3.09-8.76 1.61.62c.4.15.71.46.86.86l.62 1.61.62-1.61c.15-.39.46-.71.86-.86l1.61-.62-1.61-.62c-.4-.15-.71-.46-.86-.86l-.62-1.61-.62 1.61c-.15.39-.46.71-.86.86l-1.61.62Zm15.81 30.62c-.62 0-1.18-.38-1.4-.96l-3.16-8.19-8.19-3.16c-.58-.22-.96-.78-.96-1.4s.38-1.18.96-1.4l8.19-3.16 3.16-8.19c.22-.58.78-.96 1.4-.96.62 0 1.18.38 1.4.96l3.16 8.19 8.19 3.16c.58.22.96.78.96 1.4s-.38 1.18-.96 1.4l-8.19 3.16-3.16 8.19c-.22.58-.78.96-1.4.96ZM41.73 33.8l5.18 2c.4.15.71.46.86.86l2 5.18 2-5.18c.15-.39.46-.71.86-.86l5.19-2-5.19-2c-.4-.15-.71-.46-.86-.86l-2-5.19-2 5.19c-.15.39-.46.71-.86.86l-5.18 2Z" style="stroke-width:0"/>
</svg>
