<svg xmlns="http://www.w3.org/2000/svg" data-name="Layer 1" viewBox="0 0 64 64">
  <path d="M30.51 1.54c0-.83.67-1.5 1.5-1.5s1.5.67 1.5 1.5c0 3.1 1.57 4.29 3.57 5.79 2.04 1.54 4.59 3.46 4.59 7.75 0 .83-.67 1.5-1.5 1.5s-1.5-.67-1.5-1.5c0-2.79-1.5-3.92-3.4-5.35-2.12-1.6-4.76-3.59-4.76-8.19Zm-5.39 8.19c1.9 1.43 3.4 2.56 3.4 5.35 0 .83.67 1.5 1.5 1.5s1.5-.67 1.5-1.5c0-4.29-2.54-6.21-4.59-7.75-1.99-1.5-3.57-2.69-3.57-5.79 0-.83-.67-1.5-1.5-1.5s-1.5.67-1.5 1.5c0 4.6 2.64 6.59 4.76 8.19Zm-10.15 0c1.9 1.43 3.4 2.56 3.4 5.35 0 .83.67 1.5 1.5 1.5s1.5-.67 1.5-1.5c0-4.29-2.54-6.21-4.59-7.75-1.99-1.5-3.57-2.69-3.57-5.79 0-.83-.67-1.5-1.5-1.5s-1.5.67-1.5 1.5c0 4.6 2.64 6.59 4.76 8.19Zm44.61 23.71v12.44c0 4.47-3.64 8.1-8.1 8.1h-4.31c-1.24 5.68-6.3 9.95-12.35 9.95H17.05c-6.97 0-12.64-5.67-12.64-12.64V20.04c0-.83.67-1.5 1.5-1.5h40.06c.83 0 1.5.67 1.5 1.5v5.3h4.01c4.47 0 8.1 3.64 8.1 8.1ZM47.46 45.17h3.48c.08 0 .14-.06.14-.14V34.29c0-.08-.06-.14-.14-.14h-3.48v11.02Zm-3 6.12V21.54H7.41v29.75c0 5.32 4.33 9.64 9.64 9.64h17.77c5.32 0 9.64-4.33 9.64-9.64Zm12.12-17.85c0-2.81-2.29-5.1-5.1-5.1h-4.01v2.82h3.48c1.73 0 3.14 1.41 3.14 3.14v10.74c0 1.73-1.41 3.14-3.14 3.14h-3.48V51h4.01c2.81 0 5.1-2.29 5.1-5.1V33.46Z" style="stroke-width:0"/>
</svg>
