<svg xmlns="http://www.w3.org/2000/svg" data-name="Layer 1" viewBox="0 0 64 64">
  <path d="M62.66.35c-.39-.31-.89-.42-1.37-.31l-38.54 8.9c-.74.17-1.26.83-1.26 1.58v33.3C19.3 41.47 16.19 40 12.73 40c-6.62 0-12 5.38-12 12s5.38 12 12 12 12-5.38 12-12V23.19l35.29-8.15v19.88c-2.19-2.35-5.3-3.82-8.76-3.82-6.62 0-12 5.38-12 12s5.38 12 12 12 12-5.38 12-12V1.62c0-.49-.22-.96-.61-1.27ZM12.73 60.76c-4.83 0-8.76-3.93-8.76-8.76s3.93-8.76 8.76-8.76 8.76 3.93 8.76 8.76-3.93 8.76-8.76 8.76Zm38.53-8.9c-4.83 0-8.76-3.93-8.76-8.76s3.93-8.76 8.76-8.76 8.76 3.93 8.76 8.76-3.93 8.76-8.76 8.76Zm-26.52-32v-8.05l35.28-8.15v8.05l-35.29 8.15Z" style="stroke-width:0"/>
</svg>
