<svg xmlns="http://www.w3.org/2000/svg" data-name="Layer 1" viewBox="0 0 64 64">
  <path d="M34.63 55.87c-.72 0-1.43-.22-2.04-.66L16.53 43.67H4.47c-2.48 0-4.5-2.02-4.5-4.5V24.84c0-2.48 2.02-4.5 4.5-4.5h12.06L32.59 8.8c1.07-.77 2.46-.87 3.64-.27 1.17.6 1.9 1.79 1.9 3.11v40.75c0 1.32-.73 2.51-1.9 3.11-.51.26-1.05.39-1.6.39ZM4.47 23.33c-.83 0-1.5.67-1.5 1.5v14.33c0 .83.67 1.5 1.5 1.5h12.55c.31 0 .62.1.88.28l16.45 11.83c.21.15.42.09.52.04.1-.05.27-.18.27-.44V11.63c0-.26-.17-.39-.27-.44-.1-.05-.3-.12-.52.04L17.9 23.06c-.26.18-.56.28-.88.28H4.47Zm59.06 19.66c.59-.59.59-1.54 0-2.12L43.67 21.01a1.49 1.49 0 0 0-2.12 0 1.49 1.49 0 0 0 0 2.12l19.86 19.86c.29.29.68.44 1.06.44s.77-.15 1.06-.44Zm-19.86 0 19.86-19.86c.59-.59.59-1.54 0-2.12a1.49 1.49 0 0 0-2.12 0L41.55 40.87a1.49 1.49 0 0 0 0 2.12c.29.29.68.44 1.06.44s.77-.15 1.06-.44Z" style="stroke-width:0"/>
</svg>
