<svg xmlns="http://www.w3.org/2000/svg" data-name="Layer 1" viewBox="0 0 64 64">
  <path d="M62.45 2.2H14.73c-.85 0-1.55.69-1.55 1.55v2.33H1.55C.7 6.08 0 6.77 0 7.63v46.05c0 4.49 3.65 8.14 8.14 8.14h50.94c2.72 0 4.93-2.26 4.93-5.04V3.74c0-.85-.69-1.55-1.55-1.55ZM3.09 53.67V9.17h3.5v44.92c0 .85.69 1.55 1.55 1.55s1.55-.69 1.55-1.55V9.17h3.5v44.5c0 2.78-2.26 5.04-5.04 5.04s-5.04-2.26-5.04-5.04Zm57.82 3.09c0 1.08-.82 1.95-1.83 1.95H14.52c.1-.13.19-.26.28-.39.03-.04.06-.08.09-.13.14-.2.26-.41.38-.62l.09-.18c.08-.16.16-.32.23-.48.04-.08.07-.17.1-.25.06-.15.11-.29.16-.44.03-.09.06-.18.09-.28.04-.15.08-.3.12-.46.02-.09.04-.18.06-.28.03-.17.06-.34.08-.51l.03-.25c.02-.26.04-.51.04-.78V5.29H60.9v51.47ZM22.37 25.41H54.8c.85 0 1.55-.69 1.55-1.55V11.38c0-.85-.69-1.55-1.55-1.55H22.37c-.85 0-1.55.69-1.55 1.55v12.48c0 .85.69 1.55 1.55 1.55Zm1.55-12.48h29.34v9.39H23.92v-9.39Zm-1.55 33.91h12.48c.85 0 1.55-.69 1.55-1.55V31.75c0-.85-.69-1.55-1.55-1.55H22.37c-.85 0-1.55.69-1.55 1.55v13.54c0 .85.69 1.55 1.55 1.55Zm1.55-13.54h9.39v10.45h-9.39V33.3Zm32.54-1.55c0 .91-.74 1.65-1.65 1.65H42.16c-.91 0-1.65-.74-1.65-1.65s.74-1.65 1.65-1.65h12.65c.91 0 1.65.74 1.65 1.65Zm0 6.77c0 .91-.74 1.65-1.65 1.65H42.16c-.91 0-1.65-.74-1.65-1.65s.74-1.65 1.65-1.65h12.65c.91 0 1.65.74 1.65 1.65Zm0 6.77c0 .91-.74 1.65-1.65 1.65H42.16c-.91 0-1.65-.74-1.65-1.65s.74-1.65 1.65-1.65h12.65c.91 0 1.65.74 1.65 1.65Zm-35.74 6.77c0-.91.74-1.65 1.65-1.65H54.8c.91 0 1.65.74 1.65 1.65s-.74 1.65-1.65 1.65H22.37c-.91 0-1.65-.74-1.65-1.65Z" style="stroke-width:0"/>
</svg>
