<svg xmlns="http://www.w3.org/2000/svg" data-name="Layer 1" viewBox="0 0 64 64">
  <path d="M57.62 0H10.4c-.83 0-1.51.67-1.51 1.51V5.8H6.38c-.83 0-1.51.67-1.51 1.51s.67 1.51 1.51 1.51h2.51v6.64H6.38c-.83 0-1.51.67-1.51 1.51s.67 1.51 1.51 1.51h2.51v6.65H6.38c-.83 0-1.51.67-1.51 1.51s.67 1.51 1.51 1.51h2.51v6.64H6.38c-.83 0-1.51.67-1.51 1.51s.67 1.51 1.51 1.51h2.51v6.64H6.38c-.83 0-1.51.67-1.51 1.51s.67 1.51 1.51 1.51h2.51v6.65H6.38c-.83 0-1.51.67-1.51 1.51s.67 1.51 1.51 1.51h2.51v5.42c0 .83.67 1.51 1.51 1.51h47.22c.83 0 1.51-.67 1.51-1.51V1.51c0-.83-.67-1.51-1.51-1.51ZM11.9 57.08h2.51c.83 0 1.51-.67 1.51-1.51s-.67-1.51-1.51-1.51H11.9v-6.65h2.51c.83 0 1.51-.67 1.51-1.51s-.67-1.51-1.51-1.51H11.9v-6.64h2.51c.83 0 1.51-.67 1.51-1.51s-.67-1.51-1.51-1.51H11.9v-6.64h2.51c.83 0 1.51-.67 1.51-1.51s-.67-1.51-1.51-1.51H11.9v-6.65h2.51c.83 0 1.51-.67 1.51-1.51s-.67-1.51-1.51-1.51H11.9V8.76h2.51c.83 0 1.51-.67 1.51-1.51s-.67-1.51-1.51-1.51H11.9V2.96h6.94v57.98H11.9v-3.91Zm44.21 3.91H21.85V3.01h34.27v57.98ZM28.26 28.94h21.53c.83 0 1.51-.67 1.51-1.51v-11.2c0-.83-.67-1.51-1.51-1.51H28.26c-.83 0-1.51.67-1.51 1.51v11.2c0 .83.67 1.51 1.51 1.51Zm1.51-11.2h18.52v8.19H29.77v-8.19Z" style="stroke-width:0"/>
</svg>
