<svg xmlns="http://www.w3.org/2000/svg" data-name="Layer 1" viewBox="0 0 64 64">
  <path d="M62.69 56.55 39.34 33.99 54.9 18.43s.02-.02.03-.04c.03-.03.05-.06.08-.09.04-.06.08-.11.12-.17.01-.02.03-.03.03-.05l8.35-15.57c.31-.58.21-1.3-.26-1.77S62.06.16 61.48.48L45.91 8.83c-.12.07-.23.15-.33.25 0 0-.02 0-.02.02L29.84 24.82l-1.42-1.37s-.02-.01-.03-.02l-.03-.03-5.11-4.49a1.48 1.48 0 0 0-.55-.3c0-.56-.05-1.07-.13-1.52-.5-2.75-2.39-5.19-5.21-6.71-7.27-3.91-8.48-8.91-8.52-9.11C8.72.71 8.3.27 7.75.13 7.2-.01 6.62.16 6.24.59L3.96 3.18c-2.81 3.2-4.2 7.3-3.93 11.55.28 4.25 2.19 8.13 5.39 10.94 1.92 1.69 4.34 2.6 6.88 2.6.23 0 .46 0 .69-.02.4-.03.79-.08 1.18-.15.08.26.23.49.43.67l5.11 4.49s.01 0 .02.01l.03.03.88.7L6.8 47.84l-5.45 5.45a4.152 4.152 0 0 0 0 5.87l3.47 3.47c.78.78 1.83 1.22 2.93 1.22s2.15-.43 2.93-1.22l5.45-5.45 14.9-14.9 25.99 20.71c.79.63 1.73.94 2.67.94 1.19 0 2.38-.5 3.22-1.46a4.28 4.28 0 0 0-.24-5.91ZM7.41 23.41c-5.36-4.7-5.9-12.89-1.19-18.25l.67-.76c1.2 2.31 3.77 5.78 9.06 8.63 2 1.08 3.34 2.75 3.67 4.59.31 1.71-.28 3.47-1.71 5.1-2.71 3.09-7.42 3.39-10.5.69Zm10.31 4.09 2.45-2.79 2.23-2.54 2.86 2.51-4.15 4.72-.53.61-2.86-2.51Zm31.39-16.96 5.8-3.11 1.67 1.67-3.11 5.8-2.18-2.18-2.18-2.18Zm-2.49 1.76 2.55 2.55 2.55 2.55L15.09 54 10 48.91l36.62-36.62ZM8.58 60.51c-.43.43-1.19.43-1.62 0l-3.47-3.47a1.14 1.14 0 0 1 0-1.62l4.39-4.39 5.09 5.09-4.38 4.39Z" style="stroke-width:0"/>
</svg>
