<svg xmlns="http://www.w3.org/2000/svg" data-name="Layer 1" viewBox="0 0 64 64">
  <path d="M62.47 1.07a4.29 4.29 0 0 0-5.91.24L23.45 35.58s-.01.02-.02.03-.02.02-.03.02l-4.49 5.11c-.14.16-.24.35-.3.55-.56 0-1.07.05-1.52.13-2.75.5-5.19 2.39-6.71 5.21-3.92 7.28-8.92 8.49-9.12 8.53-.56.12-1 .54-1.14 1.09-.14.55.03 1.13.46 1.51l2.59 2.28C6.1 62.61 9.79 64 13.66 64a15.838 15.838 0 0 0 12-5.42 10.38 10.38 0 0 0 2.42-8.75c.26-.08.49-.23.67-.43l4.49-5.11s.01-.02.02-.03.02-.02.02-.03L62.99 6.96a4.278 4.278 0 0 0-.52-5.89ZM23.41 56.59c-4.7 5.36-12.89 5.89-18.25 1.19l-.76-.67c2.31-1.2 5.78-3.77 8.63-9.06 1.08-2 2.75-3.34 4.59-3.67 1.71-.31 3.47.28 5.1 1.71 3.08 2.71 3.39 7.42.68 10.5Zm4.08-10.31-5.33-4.68 2.51-2.86L30 43.42l-2.51 2.86ZM60.64 5.09 31.93 41.12l-.37-.32-4.86-4.26L58.71 3.4c.48-.49 1.25-.53 1.77-.07.52.45.58 1.23.16 1.76Z" style="stroke-width:0"/>
</svg>
