<svg xmlns="http://www.w3.org/2000/svg" data-name="Layer 1" viewBox="0 0 64 64">
  <path d="M54.7 6.47C48.72 1.25 40.72-.92 32.18.36 23.74 1.63 15.77 6.13 9.73 13.04.98 23.07-2.07 36.69 1.97 47.74a5.24 5.24 0 0 0 4 3.39c1.84.34 3.68-.3 4.91-1.71l6.94-7.95c.73-.83 1.8-1.16 2.87-.87a2.73 2.73 0 0 1 2.02 2.16c.44 2.27-.35 4.38-1.18 6.62-.99 2.64-2.01 5.38-.68 8.19C22.82 61.75 26.87 64 31.92 64c2.15 0 4.47-.41 6.89-1.24 5.6-1.94 10.94-5.69 15.44-10.84 6.03-6.91 9.42-15.42 9.54-23.96.12-8.63-3.11-16.26-9.09-21.49Zm-2.8 43.39c-4.14 4.74-9.02 8.18-14.11 9.95-6.5 2.25-12.04.85-14.12-3.56-.73-1.55-.18-3.2.78-5.78.91-2.43 1.94-5.18 1.32-8.31a5.871 5.871 0 0 0-4.27-4.57 5.893 5.893 0 0 0-6.02 1.83l-6.94 7.95c-.51.58-1.24.84-2 .69-.76-.14-1.38-.66-1.64-1.4-3.65-10-.83-22.39 7.19-31.58C17.64 8.73 24.94 4.59 32.65 3.43c7.62-1.14 14.72.77 20 5.38 5.28 4.61 8.13 11.39 8.02 19.1-.11 7.8-3.22 15.59-8.77 21.95ZM40.64 39.61c-3.52-1.95-8.42.14-10.92 4.65-2.51 4.52-1.68 9.78 1.83 11.73.9.5 1.88.73 2.89.73 2.96 0 6.16-2.02 8.03-5.38 2.51-4.52 1.68-9.78-1.83-11.73Zm-.89 10.22c-1.64 2.96-4.71 4.54-6.69 3.44-1.98-1.1-2.26-4.53-.62-7.49 1.29-2.32 3.44-3.79 5.27-3.79.51 0 .99.11 1.41.35 1.98 1.1 2.26 4.53.62 7.49ZM18.29 22.66c.9.79 1.44 1.88 1.52 3.07.08 1.19-.31 2.35-1.1 3.25-.79.9-1.88 1.44-3.07 1.52-.1 0-.21.01-.31.01-1.08 0-2.12-.39-2.94-1.11-1.86-1.62-2.05-4.46-.43-6.32 1.62-1.86 4.46-2.05 6.32-.43Zm12.57-5.39a4.478 4.478 0 0 1-3.38 1.53c-1.05 0-2.1-.36-2.94-1.1-.9-.79-1.44-1.88-1.52-3.07-.08-1.19.31-2.35 1.1-3.25.79-.9 1.88-1.44 3.07-1.52 1.19-.08 2.35.31 3.25 1.1.9.79 1.44 1.88 1.52 3.07.08 1.19-.31 2.35-1.1 3.25Zm9.76-.1a4.49 4.49 0 0 1-.43-6.32 4.49 4.49 0 0 1 6.32-.43c1.86 1.62 2.05 4.46.43 6.32a4.478 4.478 0 0 1-3.38 1.53c-1.05 0-2.1-.36-2.94-1.1ZM54.65 30.6a4.478 4.478 0 0 1-3.38 1.53c-1.05 0-2.1-.36-2.94-1.1-1.86-1.62-2.05-4.46-.43-6.32a4.49 4.49 0 0 1 6.32-.43 4.49 4.49 0 0 1 .43 6.32Z" style="stroke-width:0"/>
</svg>
