<svg xmlns="http://www.w3.org/2000/svg" data-name="Layer 1" viewBox="0 0 64 64">
  <path d="M64 11.72v-.21c-.01-.11-.04-.22-.07-.33-.01-.04-.01-.09-.03-.13 0-.02-.02-.03-.03-.04-.05-.11-.12-.21-.2-.31-.03-.04-.06-.09-.1-.13 0 0 0-.01-.02-.02a1.55 1.55 0 0 0-.37-.26c-.01 0-.02-.02-.03-.02-.16-.07-.32-.12-.5-.13h-.15c-.13 0-.25 0-.37.04h-.06L1.1 28.07c-.66.2-1.1.79-1.1 1.47 0 .68.45 1.28 1.11 1.46l18.61 5.32v13.86c0 .61.36 1.16.92 1.4.2.08.4.13.61.13.38 0 .75-.14 1.04-.41l7.4-6.92 10.69 9.12c.28.24.63.37.99.37.1 0 .2 0 .29-.03.46-.09.85-.38 1.06-.8l21.12-40.69s.02-.08.04-.12c.03-.07.05-.14.07-.21.03-.1.04-.2.04-.3Zm-13.61 5.07-16.04 9.15-13.31 7.59-14.03-4.01 43.38-12.73ZM22.77 46.67v-8.19l4.58 3.91-4.58 4.28Zm18.13 3.27L23.88 35.43l34.87-19.89L40.9 49.93Z" style="stroke-width:0"/>
</svg>
