<svg xmlns="http://www.w3.org/2000/svg" data-name="Layer 1" viewBox="0 0 64 64">
  <path d="M19.31 63.94h-5.38c-3.58 0-6.5-2.92-6.5-6.5V6.56c0-3.58 2.92-6.5 6.5-6.5h5.38c3.58 0 6.5 2.92 6.5 6.5v50.88c0 3.58-2.92 6.5-6.5 6.5ZM13.93 3.06c-1.93 0-3.5 1.57-3.5 3.5v50.88c0 1.93 1.57 3.5 3.5 3.5h5.38c1.93 0 3.5-1.57 3.5-3.5V6.56c0-1.93-1.57-3.5-3.5-3.5h-5.38Zm36.14 60.88h-5.38c-3.58 0-6.5-2.92-6.5-6.5V6.56c0-3.58 2.92-6.5 6.5-6.5h5.38c3.58 0 6.5 2.92 6.5 6.5v50.88c0 3.58-2.92 6.5-6.5 6.5ZM44.69 3.06c-1.93 0-3.5 1.57-3.5 3.5v50.88c0 1.93 1.57 3.5 3.5 3.5h5.38c1.93 0 3.5-1.57 3.5-3.5V6.56c0-1.93-1.57-3.5-3.5-3.5h-5.38Z" style="stroke-width:0"/>
</svg>
