<svg xmlns="http://www.w3.org/2000/svg" data-name="Layer 1" viewBox="0 0 64 64">
  <path d="M44.22 62.25c-1.22 0-2.77-.36-4.55-.77-2.35-.55-5.02-1.16-7.67-1.16s-5.36.62-7.73 1.17c-1.77.41-3.3.76-4.49.76-6.02 0-11.3-5.42-11.3-11.59 0-4.98 2.74-9.26 6.97-10.89 3.48-1.34 6.06-3.59 7.67-6.68 1.7-3.27 5.44-5.64 8.88-5.64s7.18 2.37 8.88 5.64c1.61 3.09 4.19 5.34 7.67 6.68 4.24 1.63 6.97 5.91 6.97 10.89 0 6.17-5.28 11.59-11.3 11.59ZM32 57.31c2.99 0 5.96.69 8.35 1.24 1.61.37 3 .69 3.87.69 3.92 0 8.3-3.67 8.3-8.59 0-3.73-1.98-6.91-5.05-8.09-4.18-1.61-7.29-4.34-9.25-8.1-1.2-2.3-3.87-4.03-6.22-4.03s-5.02 1.73-6.22 4.03c-1.96 3.76-5.07 6.49-9.25 8.1-3.07 1.18-5.05 4.36-5.05 8.09 0 4.92 4.38 8.59 8.3 8.59.86 0 2.23-.32 3.82-.69 2.4-.56 5.38-1.25 8.41-1.25Zm23.17-18.37c-.64 0-1.28-.07-1.93-.22-4.81-1.11-7.32-5.6-6.09-10.93.6-2.62 2.03-5.15 3.92-6.94 2.14-2.03 4.56-2.86 6.82-2.34 2.26.52 4.07 2.32 5.11 5.08.92 2.43 1.1 5.33.5 7.95-.61 2.65-1.95 4.74-3.87 6.04a7.933 7.933 0 0 1-4.46 1.35Zm1.42-17.57c-1.09 0-2.31.58-3.45 1.66-1.45 1.37-2.59 3.4-3.06 5.43-.84 3.66.7 6.61 3.84 7.33 1.44.33 2.88.08 4.03-.7 1.28-.87 2.19-2.33 2.63-4.22.47-2.03.32-4.35-.38-6.22-.66-1.76-1.75-2.93-2.98-3.21-.2-.05-.41-.07-.63-.07Zm-14.88 2.32c-.3 0-.6-.01-.9-.04-2.44-.24-4.58-1.4-6.02-3.27-1.5-1.95-2.14-4.49-1.86-7.37.55-5.71 4.79-11.73 9.99-11.23S51.13 9 50.58 14.71c-.28 2.87-1.4 5.25-3.24 6.87-1.55 1.37-3.53 2.1-5.64 2.1Zm.64-18.94c-2.87 0-6 4.1-6.43 8.54-.2 2.1.23 3.92 1.25 5.25.93 1.21 2.32 1.96 3.93 2.11 1.61.15 3.12-.31 4.26-1.32 1.26-1.11 2.03-2.81 2.24-4.91.44-4.59-2.01-9.37-4.96-9.66-.09 0-.19-.01-.28-.01Zm6.74 9.82Zm-26.81 9.12c-2.11 0-4.08-.73-5.64-2.1-1.84-1.62-2.96-4-3.24-6.87-.55-5.71 2.46-12.43 7.66-12.93 5.22-.51 9.44 5.51 9.99 11.23.56 5.76-2.68 10.14-7.88 10.64-.3.03-.6.04-.9.04Zm-5.89-9.26c.2 2.1.98 3.8 2.24 4.91 1.14 1.01 2.65 1.48 4.26 1.32 3.49-.34 5.58-3.3 5.18-7.36-.44-4.59-3.8-8.81-6.72-8.53-2.95.29-5.4 5.07-4.96 9.66ZM8.76 38.96c-3.95 0-7.22-2.82-8.27-7.4-1.21-5.28.79-11.92 5.61-13.03 2.25-.52 4.67.31 6.82 2.34 1.89 1.79 3.32 4.32 3.92 6.94 1.23 5.33-1.28 9.82-6.09 10.93-.68.16-1.34.23-1.99.23Zm-5.34-8.07c.84 3.67 3.52 5.64 6.66 4.92 3.14-.72 4.68-3.67 3.84-7.33-.47-2.03-1.61-4.06-3.06-5.43-1.37-1.29-2.85-1.88-4.08-1.59-2.65.61-4.31 5.28-3.36 9.44Z" style="stroke-width:0"/>
</svg>
