<svg xmlns="http://www.w3.org/2000/svg" data-name="Layer 1" viewBox="0 0 64 64">
  <path d="M57.78 14.31c-.07-.45-.32-.85-.7-1.1L37.79.27c-.38-.25-.84-.34-1.29-.22-.44.11-.82.4-1.03.8l-5.04 9.4c-2.15 1.44-14.25 9.53-18.49 12.26-.54.35-.82.98-.71 1.62 2.6 15.63-4.81 31.75-4.88 31.91-.34.72-.1 1.58.56 2.02l4.23 2.84 4.23 2.84a1.63 1.63 0 0 0 2.09-.25c.12-.13 12.2-13.11 27.65-16.65a1.58 1.58 0 0 0 1.22-1.28c.92-4.95 3.8-19.23 4.32-21.76l6.78-8.23c.29-.35.42-.81.35-1.26ZM43.36 43.94C29.82 47.4 19.23 57.13 16.05 60.3l-1.78-1.19L26.5 40.87a5.39 5.39 0 0 0 2.55.12c1.4-.28 2.62-1.09 3.41-2.27 1.64-2.45.99-5.79-1.47-7.43-2.45-1.64-5.79-.99-7.43 1.47a5.345 5.345 0 0 0-.81 4.02c.17.86.56 1.63 1.09 2.29L11.6 57.33l-1.78-1.19c1.73-4.15 6.7-17.64 4.75-31.48 4.49-2.93 14.11-9.36 17.09-11.35l7.85 5.26 7.85 5.26c-.71 3.51-3 14.85-4 20.12ZM26.81 37.5c-.47-.32-.8-.8-.91-1.36-.11-.56 0-1.13.32-1.6a2.15 2.15 0 0 1 1.78-.95c.41 0 .82.12 1.19.36.98.66 1.24 1.99.59 2.96-.32.47-.8.8-1.36.91-.56.11-1.13 0-1.6-.32Zm22.02-16.57-2.96-1.99-12.1-8.11 3.7-6.9 16.35 10.95-4.98 6.04Z" style="stroke-width:0"/>
</svg>
