<svg xmlns="http://www.w3.org/2000/svg" data-name="Layer 1" viewBox="0 0 64 64">
  <path d="m60.98 12.45 1.08-1.07c2.6-2.6 2.6-6.83 0-9.43-2.6-2.6-6.83-2.6-9.43 0L6.26 48.31c-.55.55-.57 1.41-.09 2.01l-4.63 6.46c-.85 1.19-.98 2.7-.43 3.97l-.66.66c-.59.59-.59 1.55 0 2.14.3.3.68.44 1.07.44s.78-.15 1.07-.44l.66-.66a4.044 4.044 0 0 0 3.98-.44l6.46-4.63c.28.22.6.35.93.35.39 0 .78-.15 1.07-.44L58.83 14.6l1.08 1.08-12.36 12.36c-.59.59-.59 1.55 0 2.15.3.3.68.44 1.07.44s.78-.15 1.07-.44l13.43-13.43a1.522 1.522 0 0 0 0-2.14l-2.16-2.16Zm-1.07-8.36a3.633 3.633 0 0 1 0 5.14l-1.08 1.07-5.14-5.14 1.08-1.07a3.633 3.633 0 0 1 5.14 0ZM5.46 60c-.42.3-.98.25-1.34-.11-.36-.36-.41-.93-.11-1.34l4.32-6.03 3.16 3.16L5.47 60Zm9.17-5.48-5.14-5.14L51.55 7.32l5.14 5.14-42.07 42.06Z" style="stroke-width:0"/>
</svg>
