<svg xmlns="http://www.w3.org/2000/svg" data-name="Layer 1" viewBox="0 0 64 64">
  <path d="M64 7.67c0-1.12-.43-2.17-1.22-2.96l-3.5-3.5a4.183 4.183 0 0 0-5.91 0L47.88 6.7 8.86 45.74s-.02.04-.04.06c-.08.09-.16.18-.22.29L.18 61.77c-.32.59-.21 1.31.26 1.79a1.514 1.514 0 0 0 1.78.26l15.68-8.41s.02-.02.04-.03c.11-.07.22-.14.32-.24l39.03-39.02 5.49-5.49C63.57 9.84 64 8.79 64 7.67ZM8.85 56.84l-1.68-1.68 3.58-6.68 4.42.75.42 3.99-6.74 3.62Zm9.52-6.07-.32-2.99c-.07-.67-.58-1.22-1.25-1.33l-3.73-.63 35.88-35.9 5.13 5.13-35.71 35.71ZM60.64 8.49l-4.42 4.42-5.13-5.13 4.42-4.42c.45-.45 1.18-.45 1.63 0l3.5 3.5c.22.22.34.51.34.82s-.12.6-.34.82Z" style="stroke-width:0"/>
</svg>
