<svg xmlns="http://www.w3.org/2000/svg" data-name="Layer 1" viewBox="0 0 64 64">
  <path d="M16.11 14.21c3.92 0 7.1-3.18 7.1-7.1S20.04 0 16.11 0s-7.1 3.18-7.1 7.1 3.18 7.1 7.1 7.1Zm0-11.21c2.26 0 4.1 1.84 4.1 4.1s-1.84 4.1-4.1 4.1-4.1-1.84-4.1-4.1S13.85 3 16.11 3Zm13.64 19.02a7.166 7.166 0 0 0-7.17-6.54H9.66c-3.75 0-6.83 2.81-7.18 6.54L1.22 35.68c-.16 1.7.41 3.4 1.56 4.66a6.111 6.111 0 0 0 4.5 1.99h.32v18.65c0 1.66 1.34 3 3 3h10.99c1.66 0 3-1.34 3-3V42.33h.36c1.71 0 3.35-.72 4.5-1.99a6.084 6.084 0 0 0 1.56-4.66l-1.26-13.66Zm-4.8 17.31h-.36v-9.26c0-.83-.67-1.5-1.5-1.5s-1.5.67-1.5 1.5v9.26h-.01v21.65H17.6V43.34c0-.83-.67-1.5-1.5-1.5s-1.5.67-1.5 1.5v17.64h-4.01V30.07c0-.83-.67-1.5-1.5-1.5s-1.5.67-1.5 1.5v9.26h-.34c-1.82 0-3.24-1.56-3.08-3.37L5.43 22.3c.2-2.16 2.01-3.82 4.19-3.82h12.92c2.17 0 3.99 1.65 4.19 3.82l1.26 13.66a3.087 3.087 0 0 1-3.08 3.37Zm22.92-25.12c3.92 0 7.1-3.18 7.1-7.1S51.8 0 47.87 0s-7.1 3.18-7.1 7.1 3.18 7.1 7.1 7.1Zm0-11.21c2.26 0 4.1 1.84 4.1 4.1s-1.84 4.1-4.1 4.1-4.1-1.84-4.1-4.1S45.61 3 47.87 3Zm14.9 32.68-1.26-13.66a7.166 7.166 0 0 0-7.17-6.54H41.42a7.16 7.16 0 0 0-7.17 6.54l-1.26 13.66c-.16 1.7.41 3.4 1.56 4.66s2.79 1.99 4.5 1.99h.32v18.65c0 1.66 1.34 3 3 3h10.99c1.66 0 3-1.34 3-3V42.33h.36c1.71 0 3.35-.72 4.5-1.99a6.084 6.084 0 0 0 1.56-4.66Zm-6.06 3.65h-.36v-9.26c0-.83-.67-1.5-1.5-1.5s-1.5.67-1.5 1.5v9.26h-.01v21.65h-3.73V43.34c0-.83-.67-1.5-1.5-1.5s-1.5.67-1.5 1.5v17.64h-4.25V30.07c0-.83-.67-1.5-1.5-1.5s-1.5.67-1.5 1.5v9.26h-.34c-1.82 0-3.24-1.56-3.08-3.37L37.2 22.3c.2-2.16 2.01-3.82 4.19-3.82h12.92c2.17 0 3.99 1.65 4.19 3.82l1.26 13.66a3.087 3.087 0 0 1-3.08 3.37Z" style="stroke-width:0"/>
</svg>
