<svg xmlns="http://www.w3.org/2000/svg" data-name="Layer 1" viewBox="0 0 64 64">
  <path d="M13.44 34.13a5.56 5.56 0 0 0 0-11.12 5.56 5.56 0 0 0 0 11.12Zm0-8.13c1.41 0 2.56 1.15 2.56 2.56s-1.15 2.56-2.56 2.56-2.56-1.15-2.56-2.56S12.03 26 13.44 26Zm37.1 8.13a5.56 5.56 0 0 0 0-11.12 5.56 5.56 0 0 0 0 11.12Zm0-8.13c1.41 0 2.56 1.15 2.56 2.56s-1.15 2.56-2.56 2.56-2.56-1.15-2.56-2.56S49.13 26 50.54 26Zm-18.55-.33a5.56 5.56 0 0 0 0-11.12 5.56 5.56 0 0 0 0 11.12Zm0-8.13c1.41 0 2.56 1.15 2.56 2.56s-1.15 2.56-2.56 2.56-2.56-1.15-2.56-2.56 1.15-2.56 2.56-2.56Zm29.17 21.88 1.08 11.26c.11 1.11-.27 2.23-1.02 3.06-.79.87-1.92 1.36-3.1 1.36h-1.38v2.33c0 .83-.67 1.5-1.5 1.5s-1.5-.67-1.5-1.5V46.54c0-.83.67-1.5 1.5-1.5s1.5.67 1.5 1.5v5.56h1.38c.34 0 .66-.14.88-.38.11-.12.29-.39.26-.76L58.18 39.7c-.1-1.02-1-1.79-2.1-1.79H45.01c-.67 0-1.27.29-1.66.75l.34 3.56c.11 1.11-.27 2.23-1.02 3.06-.1.11-.21.19-.32.28l-.52 5.4c-.04.37.15.63.26.76.22.24.54.38.88.38h1.35v-5.56c0-.83.67-1.5 1.5-1.5s1.5.67 1.5 1.5v10.89c0 .83-.67 1.5-1.5 1.5s-1.5-.67-1.5-1.5V55.1h-1.35c-1.19 0-2.32-.5-3.1-1.36a3.966 3.966 0 0 1-1.02-3.06l.39-4.03H38.2v2.33c0 .83-.67 1.5-1.5 1.5s-1.5-.67-1.5-1.5V38.09c0-.83.67-1.5 1.5-1.5s1.5.67 1.5 1.5v5.56h1.38c.34 0 .66-.14.88-.38.11-.12.29-.39.26-.76l-1.08-11.26c-.1-1.02-1-1.79-2.1-1.79H26.47c-1.1 0-2 .77-2.1 1.79l-1.08 11.26c-.04.37.15.63.26.76.22.24.54.38.88.38h1.35v-5.56c0-.83.67-1.5 1.5-1.5s1.5.67 1.5 1.5v10.89c0 .83-.67 1.5-1.5 1.5s-1.5-.67-1.5-1.5v-2.33h-1.01l.39 4.03c.11 1.11-.27 2.23-1.02 3.06-.79.87-1.92 1.36-3.1 1.36h-1.38v2.33c0 .83-.67 1.5-1.5 1.5s-1.5-.67-1.5-1.5V46.54c0-.83.67-1.5 1.5-1.5s1.5.67 1.5 1.5v5.56h1.38c.34 0 .66-.14.88-.38.11-.12.29-.39.26-.76l-.52-5.4c-.11-.1-.22-.18-.32-.28a3.966 3.966 0 0 1-1.02-3.06l.34-3.56c-.39-.46-.98-.75-1.66-.75H7.91c-1.1 0-2 .77-2.1 1.79L4.73 50.96c-.04.37.15.63.26.76.22.24.54.38.88.38h1.35v-5.56c0-.83.67-1.5 1.5-1.5s1.5.67 1.5 1.5v10.89c0 .83-.67 1.5-1.5 1.5s-1.5-.67-1.5-1.5V55.1H5.87c-1.19 0-2.32-.5-3.1-1.36a3.966 3.966 0 0 1-1.02-3.06l1.08-11.26c.25-2.57 2.43-4.5 5.08-4.5h11.07c.7 0 1.37.15 1.98.4l.42-4.35c.25-2.57 2.43-4.5 5.08-4.5h11.07c2.65 0 4.84 1.94 5.08 4.5l.42 4.35c.61-.25 1.28-.4 1.98-.4h11.07c2.65 0 4.84 1.94 5.08 4.5Zm2.47-16.19c-.27.51-.79.8-1.33.8-.24 0-.48-.06-.7-.17L31.99 8.25 2.39 23.86c-.73.39-1.64.11-2.03-.63-.39-.73-.11-1.64.63-2.03L31.3 5.23c.44-.23.96-.23 1.4 0l30.31 15.98c.73.39 1.01 1.29.63 2.03Z" style="stroke-width:0"/>
</svg>
