<svg xmlns="http://www.w3.org/2000/svg" data-name="Layer 1" viewBox="0 0 64 64">
  <path d="M36.9 13.52a6.46 6.46 0 0 0 8.1-4.2 6.446 6.446 0 0 0-6.15-8.4 6.46 6.46 0 0 0-6.15 4.5c-1.08 3.4.8 7.02 4.2 8.1Zm-1.34-7.19a3.442 3.442 0 0 1 4.32-2.25c1.81.57 2.82 2.52 2.24 4.33a3.442 3.442 0 0 1-6.34.55c-.42-.82-.5-1.75-.23-2.63Zm15.88 31.63c-1.46 0-2.86.26-4.16.72l-1.12-2.27s.04 0 .06.01c2.35.43 4.62-.97 5.3-3.25.37-1.26.19-2.63-.5-3.76a4.676 4.676 0 0 0-3.13-2.14l-5.82-1.06-.63-4.55c-.38-2.75-2.1-5.21-4.6-6.58-.63-.35-1.74-.85-1.75-.86-3.09-1.52-6.86-.24-8.4 2.83l-3.15 6.28-3.93 7.83a6.696 6.696 0 0 0-.37 5.19c.45 1.34 1.3 2.48 2.42 3.3l-1.18 1.14a12.5 12.5 0 0 0-7.94-2.84c-6.92 0-12.56 5.63-12.56 12.56s5.63 12.56 12.56 12.56c6.42 0 11.71-4.84 12.46-11.06h1.99a4.799 4.799 0 0 0 2.77 3.17c.6.25 1.24.38 1.89.38s1.33-.14 1.95-.41a4.88 4.88 0 0 0 2.61-2.81l3.02-8.52c.71-2 .45-4.14-.56-5.88h4.9l1.01 2.05c-3.43 2.24-5.7 6.11-5.7 10.51 0 6.92 5.63 12.56 12.56 12.56S64 57.43 64 50.5s-5.63-12.56-12.56-12.56ZM35.3 34.95l-2.42-1.26.85-1.75c.61.88 1.43 1.62 2.43 2.12.23.12.75.38 2.9.9h-3.75ZM12.56 60.07c-5.27 0-9.55-4.29-9.55-9.55s4.29-9.55 9.55-9.55c2.16 0 4.15.73 5.75 1.94l-6.79 6.53a1.502 1.502 0 0 0 1.04 2.58h9.42c-.72 4.56-4.67 8.05-9.42 8.05Zm3.73-11.06 4.11-3.95a9.47 9.47 0 0 1 1.59 3.95h-5.7Zm10.86 0h-2.13c-.27-2.25-1.14-4.32-2.45-6.05l1.9-1.82c1.8.87 3.46 1.66 4.53 2.17l-1.85 5.7Zm9.26-6.18-3.02 8.52c-.17.48-.52.86-.99 1.06-.47.21-.98.21-1.45 0a1.811 1.811 0 0 1-1.02-2.25l2.33-7.2c.23-.72-.1-1.5-.79-1.82-.04-.02-3.78-1.78-7.45-3.58a3.737 3.737 0 0 1-1.91-2.18c-.32-.96-.25-1.98.21-2.89l3.93-7.83 3.15-6.27a3.29 3.29 0 0 1 2.95-1.81c.5 0 1 .11 1.48.35.29.13 1.15.53 1.59.77a5.99 5.99 0 0 1 3.07 4.35l.77 5.62c.09.64.58 1.16 1.22 1.27l6.89 1.26c.47.09.86.35 1.11.76.25.4.31.87.17 1.33-.24.81-1.04 1.31-1.87 1.15-7.67-1.42-9.05-1.99-9.25-2.09a3.47 3.47 0 0 1-1.9-2.78l-.02-.2-.42-4.3a1.502 1.502 0 0 0-2.99.29l.31 3.19-2.95 6.11c-.35.73-.06 1.61.66 1.98l4.27 2.23c1.77.93 2.6 3.04 1.93 4.92Zm15.04 17.24c-5.27 0-9.55-4.29-9.55-9.55 0-3.21 1.6-6.05 4.04-7.79l4.17 8.45c.26.53.79.84 1.35.84.22 0 .45-.05.66-.15.74-.37 1.05-1.27.68-2.01l-4.17-8.46c.89-.28 1.84-.43 2.83-.43 5.27 0 9.55 4.29 9.55 9.55s-4.29 9.55-9.55 9.55Z" style="stroke-width:0"/>
</svg>
