<svg xmlns="http://www.w3.org/2000/svg" data-name="Layer 1" viewBox="0 0 64 64">
  <path d="M32.65 14.57c4.02 0 7.29-3.26 7.29-7.29S36.68 0 32.65 0s-7.29 3.26-7.29 7.29 3.26 7.29 7.29 7.29Zm0-11.57a4.29 4.29 0 1 1 0 8.58c-2.37 0-4.29-1.92-4.29-4.29S30.28 3 32.65 3ZM54.1 31.75a4.985 4.985 0 0 0-3.79-3.21l-4.76-.91-2.84-5.97a7.978 7.978 0 0 0-5.76-4.41l-9.38-1.7a12.41 12.41 0 0 0-5.68.31l-6.37 1.88a7.772 7.772 0 0 0-3.66 2.33c-1.26 1.43-3.28 3.7-4.91 5.54a5.289 5.289 0 0 0-1.33 3.91c.1 1.45.77 2.77 1.96 3.78 1.08.92 2.46 1.35 3.88 1.22 1.42-.13 2.69-.82 3.58-1.92l3.65-4.52 3.17-.97-1.07 9.18c-.01.11-.01.22-.02.33L19 47.72l-5.98 5.53a5.5 5.5 0 0 0-.78 7.15 5.51 5.51 0 0 0 4.5 2.36c1.4 0 2.75-.53 3.77-1.5l6.46-6.12a8.832 8.832 0 0 0 2.63-4.96l.26-1.61 2.59 2.49 1.13 8.07c.38 2.69 2.71 4.72 5.43 4.72 1.6 0 3.12-.7 4.16-1.91a5.49 5.49 0 0 0 1.26-4.4l-1.34-8.79a8.875 8.875 0 0 0-2.58-4.99l-3.98-3.85.39-5.83a7.129 7.129 0 0 0 4.95 3.34c2.22.37 4.42.76 6.37 1.13 1.91.37 3.83-.33 5.08-1.88a4.989 4.989 0 0 0 .8-4.9ZM26.64 49.69c-.2 1.24-.82 2.4-1.73 3.27l-6.46 6.12c-.53.5-1.25.74-1.96.67-.72-.07-1.37-.46-1.78-1.05-.7-1.01-.55-2.4.35-3.24l6.36-5.88c.25-.23.41-.53.46-.87l1.08-6.77 4.26 4.1-.59 3.65Zm24.27-14.85c-.5.62-1.29.9-2.11.74-1.97-.38-4.2-.78-6.45-1.15a4.1 4.1 0 0 1-3.14-2.46l-2.01-4.7c-.27-.64-.95-1-1.63-.89-.68.12-1.2.69-1.25 1.38l-.84 12.61c-.03.44.14.87.45 1.18l4.48 4.33c.91.88 1.51 2.04 1.7 3.29l1.34 8.79A2.477 2.477 0 0 1 39 60.81c-1.23 0-2.29-.92-2.46-2.14l-1.2-8.58c-.05-.33-.2-.64-.45-.87l-10.08-9.68a3.528 3.528 0 0 1-1.05-2.92l1.33-11.45c.06-.5-.14-1-.53-1.33s-.91-.43-1.4-.28l-5.81 1.77c-.29.09-.54.26-.73.49l-3.94 4.87c-.38.47-.92.76-1.53.82-.6.06-1.19-.13-1.73-.58-.49-.42-.79-1-.84-1.64-.04-.63.16-1.24.58-1.71 1.63-1.83 3.65-4.12 4.91-5.54.6-.68 1.39-1.18 2.26-1.44l6.37-1.88a9.3 9.3 0 0 1 4.29-.23l9.38 1.7c1.56.28 2.91 1.31 3.59 2.74l3.17 6.65c.21.43.6.74 1.07.83l5.51 1.05c.72.14 1.28.61 1.54 1.3.25.69.13 1.41-.38 2.05Z" style="stroke-width:0"/>
</svg>
