<svg xmlns="http://www.w3.org/2000/svg" data-name="Layer 1" viewBox="0 0 64 64">
  <path d="M37.89 14.68c.54.12 1.07.17 1.6.17 3.41 0 6.48-2.36 7.24-5.83.88-4-1.65-7.96-5.66-8.85a7.417 7.417 0 0 0-8.83 5.66c-.88 4 1.65 7.96 5.66 8.85Zm-2.73-8.2C35.6 4.47 37.42 3 39.48 3c.32 0 .64.04.96.1 2.38.52 3.9 2.89 3.37 5.27-.44 2.01-2.26 3.48-4.31 3.48-.32 0-.64-.04-.96-.1-2.38-.52-3.9-2.89-3.37-5.27Zm19.35 29.6a5.082 5.082 0 0 0-3.05-4l-4.55-1.95-1.52-6.57a8.066 8.066 0 0 0-4.76-5.63l-17.1-7.13c-4.18-1.74-8.99.25-10.72 4.42l-2.96 7.11c-1.14 2.73.16 5.88 2.9 7.02 1.33.55 2.79.55 4.12 0a5.342 5.342 0 0 0 2.91-2.92l1.92-4.68 2.26.94-3.36 8.08-10.59 25.46c-.57 1.37-.57 2.87 0 4.24s1.63 2.43 2.99 3a5.552 5.552 0 0 0 7.24-2.99l5.62-13.52 5.92 2.46-2.86 4.94a5.42 5.42 0 0 0-.33 4.37 5.452 5.452 0 0 0 3.01 3.18c.68.28 1.39.42 2.08.42 1.91 0 3.75-1.02 4.71-2.77l5.13-8.86c.99-1.8 1.17-3.95.49-5.9a7.268 7.268 0 0 0-4.06-4.3l-4.99-2.07 1.76-4.68c.5 2.38 2.14 4.34 4.42 5.24 2.14.85 4.24 1.72 6.09 2.52 1.81.78 3.86.51 5.43-.75a5.058 5.058 0 0 0 1.86-4.68ZM17.46 59.34a2.545 2.545 0 0 1-3.32 1.37c-.63-.26-1.11-.75-1.37-1.38s-.26-1.32 0-1.94l6.53-15.71a9.1 9.1 0 0 0 3.8 4.08l-5.65 13.58ZM50.7 38.48c-.64.52-1.5.62-2.29.28-1.87-.81-4-1.69-6.16-2.55a4.226 4.226 0 0 1-2.61-3.16l-.97-5.11c-.12-.66-.67-1.16-1.34-1.21-.66-.06-1.3.34-1.53.97l-4.15 11.04c-.28.76.08 1.6.83 1.91l6.33 2.63c1.13.47 1.98 1.37 2.38 2.53.41 1.16.3 2.39-.27 3.43l-5.13 8.86a2.397 2.397 0 0 1-3.03 1.06 2.39 2.39 0 0 1-1.34-1.41c-.23-.65-.18-1.34.12-1.9l3.7-6.38c.22-.37.26-.82.12-1.23-.14-.41-.45-.74-.84-.9l-9.32-3.88c-1.51-.63-2.68-1.8-3.3-3.31s-.62-3.17 0-4.68l5.4-12.99c.15-.37.15-.78 0-1.15-.15-.37-.44-.66-.81-.81l-5.03-2.09c-.18-.08-.38-.11-.58-.11s-.39.04-.58.11c-.37.15-.66.45-.81.82l-2.5 6.07c-.24.59-.7 1.04-1.28 1.29a2.372 2.372 0 0 1-3.1-3.1l2.96-7.11a5.208 5.208 0 0 1 6.8-2.81l17.1 7.12c1.5.63 2.62 1.95 2.99 3.54l1.69 7.31c.11.47.43.85.87 1.04l5.25 2.25c.7.3 1.16.9 1.26 1.65.1.75-.18 1.45-.84 1.99Z" style="stroke-width:0"/>
</svg>
