<svg xmlns="http://www.w3.org/2000/svg" data-name="Layer 1" viewBox="0 0 64 64">
  <path d="M32.01 3c2.26 0 4.1 1.84 4.1 4.1s-1.84 4.1-4.1 4.1-4.1-1.84-4.1-4.1S29.75 3 32.01 3m0-3c-3.92 0-7.1 3.18-7.1 7.1s3.18 7.1 7.1 7.1 7.1-3.18 7.1-7.1S35.93 0 32.01 0Zm3.85 63.97a5.33 5.33 0 0 1-3.85-1.64 5.33 5.33 0 0 1-3.85 1.64c-2.95 0-5.35-2.4-5.35-5.35V34.91l-.95 1.49a5.308 5.308 0 0 1-5.9 2.26c-1.67-.46-2.97-1.59-3.56-3.1-.62-1.59-.41-3.4.58-4.98l7.21-11.49a7.778 7.778 0 0 1 6.63-3.67h10.4c2.71 0 5.19 1.37 6.63 3.67l7.3 11.64c1.05 1.68 1.1 3.7.13 5.43a5.266 5.266 0 0 1-4.71 2.7c-1.78-.03-3.45-1-4.47-2.59l-.86-1.34v23.71c0 2.95-2.4 5.35-5.35 5.35Zm-2.35-5.35c0 1.3 1.06 2.35 2.35 2.35s2.35-1.06 2.35-2.35V29.77a1.505 1.505 0 0 1 2.77-.81l3.62 5.67c.47.73 1.23 1.2 1.99 1.21.87 0 1.63-.42 2.05-1.17.42-.75.4-1.63-.05-2.36l-7.3-11.64a4.796 4.796 0 0 0-4.09-2.26H26.8c-1.67 0-3.2.85-4.09 2.26L15.5 32.16c-.48.77-.6 1.6-.33 2.29.25.63.8 1.09 1.56 1.3 1 .27 2.03-.12 2.58-.98l3.71-5.81a1.5 1.5 0 0 1 1.69-.63 1.5 1.5 0 0 1 1.08 1.44v28.85c0 1.3 1.06 2.35 2.35 2.35s2.35-1.06 2.35-2.35V42.41c0-.83.67-1.5 1.5-1.5s1.5.67 1.5 1.5v16.21Z" style="stroke-width:0"/>
</svg>
