<svg xmlns="http://www.w3.org/2000/svg" data-name="Layer 1" viewBox="0 0 64 64">
  <path d="M45.44 27.3c1.2.61 2.48.9 3.74.9 3.01 0 5.91-1.65 7.36-4.51 2.07-4.06.45-9.04-3.61-11.1-1.2-.61-2.48-.9-3.74-.9-3.01 0-5.91 1.65-7.36 4.51-2.07 4.06-.45 9.04 3.61 11.1Zm-.94-9.74c.9-1.77 2.7-2.87 4.69-2.87.83 0 1.63.19 2.38.57 1.25.64 2.18 1.72 2.61 3.06.43 1.33.32 2.76-.32 4.01-.9 1.77-2.7 2.87-4.69 2.87-.83 0-1.63-.19-2.38-.58a5.203 5.203 0 0 1-2.61-3.06c-.43-1.34-.32-2.76.32-4.01ZM9.23 41.14c3.06 0 5.85-1.07 7.59-2.8 1.74 1.73 4.53 2.8 7.59 2.8s5.85-1.07 7.59-2.8c1.74 1.73 4.53 2.8 7.59 2.8s5.85-1.07 7.59-2.8c1.74 1.73 4.53 2.8 7.6 2.8 4.09 0 7.69-1.91 8.96-4.75a1.498 1.498 0 0 0-2.73-1.23c-.17.38-.44.73-.76 1.06-2.4-.99-9.4-3.87-12.98-5.47-.67-.3-1.3-.69-1.87-1.16-2.6-2.12-7.87-6.36-7.9-6.38-1.62-1.24-3.57-2.1-5.77-2.57-2.11-.45-8.47-2.01-8.62-2.05-1.61-.3-3.27-.14-4.79.46-.89.35-2.29.92-3.8 1.53-1.91.77-3.99 1.61-5.43 2.18-1.48.58-2.63 1.7-3.25 3.16a5.822 5.822 0 0 0 0 4.56l.04.11a5.68 5.68 0 0 0 3.18 3.11c1.44.57 3.03.54 4.45-.09l7.46-3.32 4.21.98-6.55 4.59c-.17-.22-.32-.45-.43-.69-.24-.54-.78-.89-1.37-.89s-1.13.35-1.37.89c-.79 1.75-3.35 2.98-6.23 2.98s-5.5-1.27-6.25-3.02a1.51 1.51 0 0 0-1.97-.79 1.51 1.51 0 0 0-.79 1.97c1.24 2.89 4.86 4.84 9 4.84Zm21.03-10.86c-.11-.58-.56-1.04-1.13-1.18l-7.97-1.86c-.32-.07-.65-.04-.95.09l-7.92 3.53c-.68.3-1.43.32-2.12.04s-1.23-.8-1.51-1.48l-.04-.11a2.9 2.9 0 0 1 0-2.24c.3-.71.86-1.25 1.58-1.53 1.45-.57 3.54-1.41 5.46-2.19 1.5-.61 2.9-1.17 3.78-1.52 1-.39 2.08-.5 3.05-.32.26.06 6.48 1.59 8.63 2.05 1.77.37 3.31 1.05 4.54 1.99 0 0 5.26 4.22 7.84 6.34.78.64 1.64 1.17 2.55 1.57 2.73 1.22 7.39 3.16 10.56 4.47-.58.11-1.19.18-1.82.18-2.88 0-5.44-1.22-6.23-2.98a1.503 1.503 0 0 0-2.74.01c-.79 1.75-3.35 2.98-6.23 2.98s-5.44-1.22-6.23-2.98c-.24-.54-.78-.89-1.37-.89s-1.13.35-1.37.89c-.79 1.75-3.35 2.98-6.23 2.98a9.33 9.33 0 0 1-3.1-.51l8.32-5.84c.48-.34.72-.93.61-1.51Zm33.51 18.79c-1.28 2.84-4.88 4.75-8.96 4.75-3.06 0-5.85-1.07-7.6-2.8-1.74 1.73-4.53 2.8-7.59 2.8s-5.85-1.07-7.59-2.8c-1.74 1.73-4.53 2.8-7.59 2.8s-5.85-1.07-7.59-2.8c-1.74 1.73-4.53 2.8-7.59 2.8-4.14 0-7.76-1.94-9-4.84a1.501 1.501 0 0 1 2.76-1.18c.75 1.75 3.38 3.02 6.25 3.02s5.44-1.22 6.23-2.98c.24-.54.78-.89 1.37-.89s1.13.35 1.37.89c.79 1.75 3.35 2.98 6.23 2.98s5.44-1.22 6.23-2.98c.24-.54.78-.89 1.37-.89s1.13.35 1.37.89c.79 1.75 3.35 2.98 6.23 2.98s5.44-1.22 6.23-2.98a1.503 1.503 0 0 1 2.74-.01c.79 1.75 3.35 2.98 6.23 2.98s5.44-1.22 6.23-2.98c.34-.75 1.22-1.09 1.98-.75.75.34 1.09 1.23.75 1.98Z" style="stroke-width:0"/>
</svg>
