<svg xmlns="http://www.w3.org/2000/svg" data-name="Layer 1" viewBox="0 0 64 64">
  <path d="M60.95 34.57h-2.7V5.14c0-.83-.67-1.5-1.5-1.5H28.06C26.7 1.46 24.28 0 21.52 0s-5.18 1.46-6.54 3.64H9.51c-.83 0-1.5.67-1.5 1.5v17.62l-5.53 8.82c-.99 1.58-1.2 3.39-.58 4.98.59 1.51 1.89 2.64 3.57 3.1 2.27.62 4.64-.29 5.9-2.26l.95-1.49v22.72c0 2.95 2.4 5.36 5.36 5.36 1.51 0 2.88-.63 3.85-1.64a5.352 5.352 0 0 0 3.86 1.64c2.95 0 5.36-2.4 5.36-5.36V37.56h30.23c.06 0 .12 0 .18-.01.74-.09 1.32-.72 1.32-1.49 0-.83-.67-1.5-1.5-1.5ZM21.52 3c2.6 0 4.72 2.12 4.72 4.72s-2.12 4.72-4.72 4.72-4.72-2.12-4.72-4.72S18.92 3 21.52 3Zm6.21 22.46v33.18c0 1.3-1.06 2.35-2.35 2.35s-2.35-1.06-2.35-2.35V42.43c0-.83-.67-1.5-1.5-1.5s-1.5.67-1.5 1.5v16.21c0 1.3-1.06 2.35-2.35 2.35s-2.35-1.06-2.35-2.35V30.78a1.505 1.505 0 0 0-2.77-.81l-3.71 5.82c-.55.86-1.58 1.25-2.58.98-.76-.21-1.32-.67-1.56-1.3-.27-.69-.15-1.53.33-2.3l7.21-11.5a4.796 4.796 0 0 1 4.09-2.26h25.01c1.25 0 2.27 1.02 2.27 2.27s-1.02 2.27-2.27 2.27h-12.1c-.83 0-1.5.67-1.5 1.5Zm27.53 9.1H30.73v-7.6h10.6c2.91 0 5.27-2.37 5.27-5.27s-2.37-5.27-5.27-5.27H16.32c-2.01 0-3.88.76-5.31 2.08V6.64h2.88c-.05.35-.08.71-.08 1.08 0 4.26 3.46 7.72 7.72 7.72s7.72-3.46 7.72-7.72c0-.37-.03-.72-.08-1.08h26.1v27.93Z" style="stroke-width:0"/>
</svg>
