<svg xmlns="http://www.w3.org/2000/svg" data-name="Layer 1" viewBox="0 0 64 64">
  <path d="M32.01 14.21c3.92 0 7.1-3.18 7.1-7.1S35.93 0 32.01 0s-7.1 3.18-7.1 7.1 3.18 7.1 7.1 7.1Zm0-11.21c2.26 0 4.1 1.84 4.1 4.1s-1.84 4.1-4.1 4.1-4.1-1.84-4.1-4.1S29.75 3 32.01 3Zm14.9 32.68-1.26-13.66a7.166 7.166 0 0 0-7.17-6.54H25.56a7.16 7.16 0 0 0-7.17 6.54l-1.26 13.66c-.16 1.7.41 3.4 1.56 4.66s2.79 1.99 4.5 1.99h.32v18.65c0 1.66 1.34 3 3 3H37.5c1.66 0 3-1.34 3-3V42.33h.36c1.71 0 3.35-.72 4.5-1.99a6.084 6.084 0 0 0 1.56-4.66Zm-6.06 3.65h-.36v-9.26c0-.83-.67-1.5-1.5-1.5s-1.5.67-1.5 1.5v9.26h-.01v21.65H33.5V43.34c0-.83-.67-1.5-1.5-1.5s-1.5.67-1.5 1.5v17.64h-4.01V30.07c0-.83-.67-1.5-1.5-1.5s-1.5.67-1.5 1.5v9.26h-.34c-1.82 0-3.24-1.56-3.08-3.37l1.26-13.66c.2-2.16 2.01-3.82 4.19-3.82h12.92c2.17 0 3.99 1.65 4.19 3.82l1.26 13.66a3.087 3.087 0 0 1-3.08 3.37Z" style="stroke-width:0"/>
</svg>
