<svg xmlns="http://www.w3.org/2000/svg" data-name="Layer 1" viewBox="0 0 64 64">
  <path d="M53.32 14.58H33.95c-.83 0-1.5.67-1.5 1.5v11.88c0 .83.67 1.5 1.5 1.5h19.37c.83 0 1.5-.67 1.5-1.5V16.08c0-.83-.67-1.5-1.5-1.5Zm-1.5 11.88H35.45v-8.88h16.37v8.88ZM62.35 9.12h-35.2c-1.11-2.45-3.57-4.16-6.43-4.16h-6.16c-2.86 0-5.32 1.71-6.43 4.16H1.65c-.83 0-1.5.67-1.5 1.5v43.63c0 .83.67 1.5 1.5 1.5h60.69c.83 0 1.5-.67 1.5-1.5V10.62c0-.83-.67-1.5-1.5-1.5Zm-51.85 2.9c0-2.24 1.82-4.06 4.06-4.06h6.16c2.24 0 4.06 1.82 4.06 4.06v36.66c0 2.24-1.82 4.06-4.06 4.06h-6.16c-2.24 0-4.06-1.82-4.06-4.06V12.03Zm-7.35.1H7.5v36.57c0 1.51.48 2.91 1.29 4.06H3.15V12.12Zm23.34 40.63a7.03 7.03 0 0 0 1.29-4.06V12.12h33.06v5.66H59c-.83 0-1.5.67-1.5 1.5s.67 1.5 1.5 1.5h1.84v2.46H59c-.83 0-1.5.67-1.5 1.5s.67 1.5 1.5 1.5h1.84v26.5H26.49Zm14.3-20.81h-6.84c-.83 0-1.5.67-1.5 1.5v5.02c0 .83.67 1.5 1.5 1.5h6.84c.83 0 1.5-.67 1.5-1.5v-5.02c0-.83-.67-1.5-1.5-1.5Zm-1.5 5.02h-3.84v-2.02h3.84v2.02Zm14.03-5.02h-6.84c-.83 0-1.5.67-1.5 1.5v5.02c0 .83.67 1.5 1.5 1.5h6.84c.83 0 1.5-.67 1.5-1.5v-5.02c0-.83-.67-1.5-1.5-1.5Zm-1.5 5.02h-3.84v-2.02h3.84v2.02Zm-11.03 4.97h-6.84c-.83 0-1.5.67-1.5 1.5v5.02c0 .83.67 1.5 1.5 1.5h6.84c.83 0 1.5-.67 1.5-1.5v-5.02c0-.83-.67-1.5-1.5-1.5Zm-1.5 5.02h-3.84v-2.02h3.84v2.02Zm14.03-5.02h-6.84c-.83 0-1.5.67-1.5 1.5v5.02c0 .83.67 1.5 1.5 1.5h6.84c.83 0 1.5-.67 1.5-1.5v-5.02c0-.83-.67-1.5-1.5-1.5Zm-1.5 5.02h-3.84v-2.02h3.84v2.02Z" style="stroke-width:0"/>
</svg>
