<svg xmlns="http://www.w3.org/2000/svg" data-name="Layer 1" viewBox="0 0 64 64">
  <path d="M45.92 64c-1 0-2.04-.21-3.05-.63-10.81-4.5-20.09-12.67-26.13-23C10.7 30.04 8.12 17.94 9.5 6.32c.26-2.19 1.3-4.04 2.94-5.19a6.086 6.086 0 0 1 4.93-.97c2.61.6 5.79 1.19 7.46 1.45 3.02.47 5.21 3.22 4.97 6.28-.26 3.32-.29 4.96-.17 8.31.07 1.84-1.01 3.49-2.67 4.12l-2.91 1.09c1.44 7.89 6.62 16.73 12.79 21.86l2.38-1.99c1.36-1.14 3.33-1.27 4.9-.31 2.87 1.75 4.31 2.52 7.33 3.93 2.78 1.29 4.11 4.55 3.04 7.41-.6 1.58-1.64 4.65-2.39 7.22a6.11 6.11 0 0 1-3.27 3.83c-.91.43-1.89.65-2.91.65ZM15.98 3.01c-.64 0-1.27.2-1.82.58-.93.65-1.52 1.75-1.68 3.08-1.3 10.98 1.13 22.41 6.85 32.18s14.48 17.49 24.69 21.74c1.24.52 2.49.53 3.51.05.82-.39 1.42-1.09 1.68-1.97.79-2.66 1.83-5.75 2.46-7.42.54-1.42-.11-2.98-1.49-3.63-3.11-1.44-4.68-2.29-7.63-4.09-.47-.28-1.03-.27-1.4.04l-4.23 3.55-.96-.72c-7.47-5.65-13.81-16.49-15.08-25.77l-.16-1.19 5.18-1.95c.45-.17.74-.65.72-1.2-.12-3.45-.09-5.23.18-8.65.12-1.52-.93-2.85-2.43-3.08-1.77-.27-4.97-.87-7.68-1.49-.24-.06-.48-.08-.72-.08Z" style="stroke-width:0"/>
</svg>
