<svg xmlns="http://www.w3.org/2000/svg" data-name="Layer 1" viewBox="0 0 64 64">
  <path d="M62.62 13.37H42.76V5.24c0-.83-.68-1.51-1.51-1.51H1.51C.68 3.73 0 4.4 0 5.24v53.51c0 .83.68 1.51 1.51 1.51h39.74c.83 0 1.51-.67 1.51-1.51v-9h19.86c.76 0 1.38-.62 1.38-1.38V14.75c0-.76-.62-1.38-1.38-1.38ZM7.44 57.25H3.02v-5.9h4.43v5.9Zm0-8.92H3.02v-5.9h4.43v5.9Zm0-8.92H3.02v-5.9h4.43v5.9Zm0-8.92H3.02v-5.9h4.43v5.9Zm0-8.92H3.02v-5.9h4.43v5.9Zm0-8.92H3.02v-5.9h4.43v5.9Zm53.8 25.17L49.03 25.61c-.52-.52-1.43-.52-1.95 0L34.99 37.7l-4.87-4.87c-.54-.54-1.41-.54-1.95 0l-8.11 8.11V16.13h41.17v21.69ZM35.32 6.75h4.43v5.9h-4.43v-5.9Zm-24.86 7.41V6.75H32.3v6.62H18.7c-.76 0-1.38.62-1.38 1.38v6.82h-6.86v-7.41Zm0 17.84v-7.41h6.86v14.82h-6.86V32Zm29.28 25.25h-4.43v-5.9h4.43v5.9Zm-7.44-7.41v7.41H10.46V42.43h6.86v5.95c0 .76.62 1.38 1.38 1.38h13.6v.08ZM61.24 47H20.08v-2.16l9.08-9.08 4.87 4.87c.52.52 1.43.52 1.95 0l12.09-12.09 13.18 13.18V47ZM28.1 29.27c3.02 0 5.47-2.45 5.47-5.47s-2.45-5.47-5.47-5.47-5.47 2.45-5.47 5.47 2.45 5.47 5.47 5.47Zm0-8.18c1.5 0 2.71 1.22 2.71 2.71s-1.22 2.71-2.71 2.71-2.71-1.22-2.71-2.71 1.22-2.71 2.71-2.71Z" style="stroke-width:0"/>
</svg>
