<svg xmlns="http://www.w3.org/2000/svg" data-name="Layer 1" viewBox="0 0 64 64">
  <path d="M14.64 40.35c0 1.01-.82 1.82-1.82 1.82S11 41.35 11 40.35s.82-1.82 1.82-1.82 1.82.82 1.82 1.82Zm35.88-1.82c-1.01 0-1.82.82-1.82 1.82s.82 1.82 1.82 1.82 1.82-.82 1.82-1.82-.82-1.82-1.82-1.82ZM31.11 20.98h-2.89c-.34 0-.61.3-.61.66v6.35c0 .37.27.66.61.66h14.7c.48 0 .77-.57.52-1.01-1.47-2.59-8.53-6.67-12.33-6.67Zm.16 9.32h-2.26c-.83 0-1.5.67-1.5 1.5s.67 1.5 1.5 1.5h2.26c.83 0 1.5-.67 1.5-1.5s-.67-1.5-1.5-1.5Zm32.52 3.76v5.19a3.97 3.97 0 0 1-3.96 3.96h-3.41c-1.06 2.19-3.3 3.7-5.9 3.7s-4.84-1.51-5.9-3.7H18.71c-1.06 2.19-3.3 3.7-5.9 3.7s-4.84-1.51-5.9-3.7H4.04c-2.18 0-3.96-1.77-3.96-3.96v-10.2c0-1.44 1.2-2.61 2.69-2.61h19.96v-7.13c0-1.73 1.35-3.14 3.01-3.14h5.55c4.79 0 12.67 4.05 15.54 7.84 1.86.19 6.9.75 9.11 1.3 7.26 1.82 7.84 2.99 7.84 8.74Zm-47.41 6.29c0-1.96-1.6-3.56-3.56-3.56s-3.56 1.6-3.56 3.56 1.6 3.56 3.56 3.56 3.56-1.6 3.56-3.56Zm6.36-10.9H3.09v8.63c0 .83.77 1.5 1.71 1.5h1.51c.38-3.26 3.15-5.79 6.51-5.79s6.13 2.53 6.51 5.79h3.41V29.45Zm31.35 10.9c0-1.96-1.6-3.56-3.56-3.56s-3.56 1.6-3.56 3.56 1.6 3.56 3.56 3.56 3.56-1.6 3.56-3.56Zm6.7-2.48V34.3h-3.37c-.83 0-1.5-.67-1.5-1.5s.67-1.5 1.5-1.5h3.25c-.31-1.76-1.41-2.05-5.45-3.06-2.46-.62-9.3-1.29-9.36-1.3-.47-.05-.89-.31-1.14-.71-1.73-2.85-9.1-7.04-13.42-7.04h-5.55s-.01.05-.01.14v20.26h18.27c.38-3.26 3.15-5.79 6.51-5.79s6.13 2.53 6.51 5.79h2.04c.94 0 1.71-.77 1.71-1.71Z" style="stroke-width:0"/>
</svg>
