<svg xmlns="http://www.w3.org/2000/svg" data-name="Layer 1" viewBox="0 0 64 64">
  <path d="M20.54 12.24c1.23-4.23 5.67-6.67 9.9-5.44.8.23 1.25 1.06 1.02 1.86-.23.79-1.06 1.25-1.86 1.02-2.64-.77-5.41.76-6.18 3.4a1.494 1.494 0 0 1-1.86 1.02c-.8-.23-1.25-1.06-1.02-1.86ZM59.1 44.38v7.31c0 6.77-7.27 12.28-16.21 12.28-6.48 0-12.06-2.9-14.66-7.06a14.095 14.095 0 0 1-9.29 3.52c-1.29 0-2.61-.18-3.91-.56a13.978 13.978 0 0 1-8.4-6.73 13.962 13.962 0 0 1-1.18-10.7l9.37-32.26C16.98 2.73 24.8-1.57 32.24.59c3.61 1.05 6.59 3.44 8.4 6.73s2.23 7.09 1.18 10.7l-4.29 14.79c1.68-.45 3.48-.7 5.36-.7s3.6.24 5.25.67c.14.02.28.05.41.12 6.15 1.74 10.55 6.23 10.55 11.49Zm-10.38-8.31-8.6 17.39c.89.13 1.82.21 2.77.21 7.29 0 13.21-4.16 13.21-9.28 0-3.65-3.02-6.8-7.38-8.31Zm-5.83-.96c-7.29 0-13.21 4.16-13.21 9.28 0 3.67 3.05 6.83 7.46 8.34l8.61-17.4c-.92-.14-1.87-.22-2.85-.22Zm-29.46-9.39 21.24 6.17 4.27-14.7c.82-2.84.49-5.83-.93-8.41s-3.77-4.47-6.61-5.29c-5.86-1.7-12.01 1.68-13.71 7.54l-4.27 14.7Zm13.54 28.26c-.18-.74-.29-1.5-.29-2.28v-7.31c0-4.01 2.57-7.57 6.51-9.81L12.6 28.6 8.33 43.3c-.82 2.84-.49 5.83.93 8.41 1.42 2.59 3.77 4.47 6.61 5.29 4.1 1.19 8.34-.12 11.1-3.02Zm29.14-2.5c-2.94 3.13-7.76 5.19-13.21 5.19-1.82 0-3.56-.24-5.19-.66-.13-.02-.25-.05-.37-.1-3.11-.86-5.77-2.42-7.65-4.43v.22c0 5.12 5.93 9.28 13.21 9.28s13.21-4.16 13.21-9.28v-.22Z" style="stroke-width:0"/>
</svg>
