<svg xmlns="http://www.w3.org/2000/svg" data-name="Layer 1" viewBox="0 0 64 64">
  <path d="M63.51 14.35c-2.8-5.02-15.42-.71-22.79 2.36a17.49 17.49 0 0 0-11.74-2.05c-8.34 1.45-14.29 8.59-14.57 16.73C7.93 36.05-2.36 44.53.44 49.55c.85 1.52 2.67 2.29 5.43 2.29 2.12 0 4.79-.45 8.02-1.35 2.84-.79 5.98-1.91 9.27-3.28 2.63 1.53 5.67 2.4 8.84 2.4 1 0 2.01-.09 3.03-.26 4.63-.81 8.67-3.37 11.38-7.22 2.03-2.88 3.11-6.22 3.19-9.67 2.89-2.09 5.49-4.17 7.66-6.17 5.66-5.23 7.76-9.25 6.26-11.94Zm-15.89 9.56c-.17-.33-.34-.65-.53-.96 1.58-.67 2.79-1.13 3.71-1.44-.82.68-1.9 1.48-3.18 2.4Zm-18.13-6.3c.85-.15 1.7-.22 2.54-.22 2.98 0 5.88.91 8.37 2.66 2.06 1.45 3.66 3.37 4.72 5.57-3.25 2.17-7.45 4.75-12.46 7.55-5.02 2.8-9.43 5.02-12.98 6.65-1-1.58-1.72-3.37-2.06-5.32-1.38-7.93 3.95-15.51 11.88-16.89ZM16.91 41.04c-1.45.62-2.7 1.1-3.71 1.45.75-.62 1.78-1.42 3.17-2.4.17.33.35.64.54.96Zm27.03-.65c-2.24 3.19-5.6 5.32-9.44 5.99-2.69.47-5.33.15-7.7-.77 3.25-1.48 6.61-3.17 9.98-5.05 3.38-1.89 6.59-3.86 9.56-5.85-.38 2.02-1.18 3.95-2.4 5.69ZM55.2 24.08c-4.85 4.49-11.92 9.41-19.89 13.86-7.97 4.45-15.87 7.88-22.24 9.65-7.05 1.96-9.64 1.18-10.02.49-.6-1.07 1.55-5.64 11.59-13.15v.08c.13.77.32 1.51.55 2.23-7.38 5.15-7.44 6.63-6.74 7.88.35.63.88 1.02 1.96 1.02 1.36 0 3.59-.64 7.43-2.25 4.51-1.89 10.29-4.78 16.27-8.12 5.98-3.34 11.47-6.74 15.45-9.59 6.05-4.32 6.76-5.91 5.97-7.34-.7-1.25-2-1.98-10.25 1.6-.52-.6-1.08-1.16-1.68-1.68 11.66-4.61 16.68-4.04 17.28-2.97.39.69-.31 3.31-5.68 8.28Z" style="stroke-width:0"/>
</svg>
