<svg xmlns="http://www.w3.org/2000/svg" data-name="Layer 1" viewBox="0 0 64 64">
  <path d="M62.32 28.94c-2.86-3.55-8.73-5.75-12.52-5.75-2.6 0-6.22.12-10.28.29L28.49 10.02c-.3-.36-.74-.57-1.22-.55l-8.5.31c-.5.02-.96.29-1.22.71-.26.43-.29.96-.08 1.41l5.72 12.4c-3.89.21-7.57.41-10.31.53L7 13.16c-.28-.56-.89-.89-1.52-.81l-4.05.49c-.75.09-1.32.73-1.32 1.49v16.62c0 3.24 2.53 5.89 5.76 6.04 4.18.2 10.47.48 17.35.78l-5.78 14.12c-.19.45-.14.97.13 1.38.26.41.71.67 1.2.69l9.01.37h.06c.49 0 .95-.24 1.23-.64l10.71-15.28c4.19.15 8.18.27 11.62.35.17 1.25 1.23 2.23 2.53 2.23s2.32-.93 2.52-2.14h1.63c2.77 0 5.18-1.88 5.74-4.46.4-1.84-.12-3.72-1.51-5.45ZM26.65 12.49l9.14 11.16c-3.05.15-6.24.31-9.37.48l-5.27-11.44 5.5-.2Zm27.28 26.36c-.24 0-.43-.19-.43-.43s.19-.43.43-.43.43.2.43.43-.19.43-.43.43Zm6.97-5.1c-.26 1.22-1.45 2.1-2.81 2.1-3.85 0-9.73-.15-16.25-.38L43 33.81c.48-.68.31-1.61-.37-2.09-.68-.48-1.61-.31-2.09.37l-13.46 19.2-6.05-.25 7.17-17.52c.31-.77-.05-1.64-.82-1.96-.77-.31-1.64.05-1.96.82l-.99 2.42c-7.3-.31-14.03-.62-18.42-.82a3.047 3.047 0 0 1-2.9-3.05V15.64l1.68-.2 5.84 11.6c.27.53.81.85 1.4.82 2.89-.12 7.15-.35 11.66-.59 9.07-.49 20.37-1.09 26.1-1.09 2.05 0 4.95.86 7.29 2.26h-7.24c-.83 0-1.5.67-1.5 1.5s.67 1.5 1.5 1.5h10.55c.48.79.65 1.56.49 2.31Zm-45.33-2.7c0 .87-.71 1.58-1.58 1.58s-1.58-.71-1.58-1.58.71-1.58 1.58-1.58 1.58.71 1.58 1.58Zm5.18 0c0 .87-.71 1.58-1.58 1.58s-1.58-.71-1.58-1.58.71-1.58 1.58-1.58 1.58.71 1.58 1.58Z" style="stroke-width:0"/>
</svg>
