<svg xmlns="http://www.w3.org/2000/svg" data-name="Layer 1" viewBox="0 0 64 64">
  <path d="M3.91 55.16c-.5 0-1-.11-1.48-.35C.95 54.08 0 52.35 0 50.4V13.6c0-1.95.95-3.68 2.44-4.41 1.18-.58 2.53-.43 3.61.41L29.73 28c1.12.87 1.79 2.37 1.79 4s-.67 3.13-1.79 4L6.04 54.4c-.64.5-1.38.75-2.13.75Zm0-43.31a.42.42 0 0 0-.16.04c-.38.18-.76.83-.76 1.71v36.8c0 .88.38 1.53.76 1.71.1.05.23.09.45-.08l23.68-18.4c.38-.3.63-.94.63-1.63s-.25-1.34-.63-1.63S4.2 11.97 4.2 11.97c-.12-.09-.21-.12-.29-.12Zm36.12 43.32a6 6 0 0 1-5.99-5.99V14.83c0-3.3 2.69-5.99 5.99-5.99s5.99 2.69 5.99 5.99v34.33a6 6 0 0 1-5.99 5.99Zm0-43.32c-1.65 0-2.99 1.34-2.99 2.99v34.33c0 1.65 1.34 2.99 2.99 2.99s2.99-1.34 2.99-2.99V14.83c0-1.65-1.34-2.99-2.99-2.99ZM58 55.17a6 6 0 0 1-5.99-5.99V14.83c0-3.3 2.69-5.99 5.99-5.99s5.99 2.69 5.99 5.99v34.33A6 6 0 0 1 58 55.15Zm0-43.32c-1.65 0-2.99 1.34-2.99 2.99v34.33c0 1.65 1.34 2.99 2.99 2.99s2.99-1.34 2.99-2.99V14.83c0-1.65-1.34-2.99-2.99-2.99Z" style="stroke-width:0"/>
</svg>
