<svg xmlns="http://www.w3.org/2000/svg" data-name="Layer 1" viewBox="0 0 64 64">
  <path d="M9.6 63.94a6.09 6.09 0 0 1-3.04-.82c-1.9-1.1-3.04-3.06-3.04-5.26V6.14c0-2.19 1.13-4.16 3.04-5.26 1.9-1.1 4.17-1.1 6.07 0l44.79 25.86c1.9 1.1 3.04 3.06 3.04 5.26s-1.13 4.16-3.04 5.26L12.64 63.12c-.95.55-1.99.82-3.04.82Zm0-60.88c-.53 0-1.05.14-1.54.42-.96.56-1.54 1.55-1.54 2.66v51.72c0 1.11.57 2.1 1.54 2.66.96.55 2.11.55 3.07 0l44.79-25.86c.96-.56 1.54-1.55 1.54-2.66s-.57-2.1-1.54-2.66L11.14 3.48a3.05 3.05 0 0 0-1.54-.42Z" style="stroke-width:0"/>
</svg>
