<svg xmlns="http://www.w3.org/2000/svg" data-name="Layer 1" viewBox="0 0 64 64">
  <path d="M62.45 9.48c.83 0 1.5-.67 1.5-1.5V2.61c0-.83-.67-1.5-1.5-1.5H1.55c-.82 0-1.5.67-1.5 1.5v5.37c0 .83.67 1.5 1.5 1.5h.82V43.2h-.82c-.83 0-1.5.67-1.5 1.5v5.37c0 .83.67 1.5 1.5 1.5H30.5v2.01l-7.62 6.69c-.62.55-.68 1.49-.14 2.12a1.506 1.506 0 0 0 2.12.14l5.65-4.96v3.83c0 .83.67 1.5 1.5 1.5s1.5-.67 1.5-1.5v-3.83l5.65 4.96c.28.25.64.37.99.37.42 0 .83-.17 1.13-.51.55-.62.49-1.57-.14-2.12l-7.62-6.69v-2.01h28.94c.83 0 1.5-.67 1.5-1.5V44.7c0-.83-.67-1.5-1.5-1.5h-.82V9.48h.82Zm-1.5 39.09H3.05V46.2h57.89v2.37ZM5.38 43.2V9.48h53.25V43.2H5.38ZM3.05 4.11h57.89v2.37H3.05V4.11Z" style="stroke-width:0"/>
</svg>
