<svg xmlns="http://www.w3.org/2000/svg" data-name="Layer 1" viewBox="0 0 64 64">
  <path d="M56.27 18.16h-1.88V10.6c0-.83-.67-1.5-1.5-1.5h-3.72V2.97c0-.83-.67-1.5-1.5-1.5H16.34c-.83 0-1.5.67-1.5 1.5V9.1h-3.72c-.83 0-1.5.67-1.5 1.5v7.56H7.74c-4.25 0-7.69 3.44-7.69 7.68v22.57c0 2.99 2.44 5.43 5.43 5.43h9.36v7.18c0 .83.67 1.5 1.5 1.5h31.33c.83 0 1.5-.67 1.5-1.5v-7.18h9.36c2.99 0 5.43-2.44 5.43-5.43V25.84c0-4.24-3.45-7.69-7.69-7.69Zm4.69 7.69v8.66H33.51V21.16h22.77c2.58 0 4.69 2.1 4.69 4.69ZM51.4 12.1v6.06h-2.22V12.1h2.22Zm-5.22-7.63v13.68H17.85V4.47h28.33ZM12.61 12.1h2.22v6.06h-2.22V12.1Zm33.56 47.43H17.84V45.85h28.33v13.68Zm12.36-8.68h-9.36v-5h3.72c.83 0 1.5-.67 1.5-1.5s-.67-1.5-1.5-1.5H11.11c-.83 0-1.5.67-1.5 1.5s.67 1.5 1.5 1.5h3.72v5H5.48c-1.34 0-2.43-1.09-2.43-2.43V25.85c0-2.58 2.1-4.69 4.69-4.69h22.77v14.85c0 .83.67 1.5 1.5 1.5h28.95v10.92c0 1.34-1.09 2.43-2.43 2.43Zm-5.78-24.08a1.303 1.303 0 0 1 .48-.33c.09-.04.19-.07.28-.08.2-.04.4-.04.59 0 .1 0 .19.04.28.08s.18.08.26.14c.08.05.16.12.23.19.07.06.13.14.18.22.06.08.11.17.14.26.04.09.07.19.09.28.02.1.03.2.03.3s0 .19-.03.29c-.02.1-.05.19-.09.28-.03.09-.08.18-.14.26-.05.08-.11.16-.18.23-.07.07-.15.13-.23.18-.08.06-.17.1-.26.14-.09.04-.18.07-.28.09-.1.02-.2.03-.29.03-.1 0-.2 0-.3-.03a1.653 1.653 0 0 1-.54-.23c-.08-.05-.15-.11-.22-.18a2.11 2.11 0 0 1-.19-.23c-.05-.08-.1-.17-.14-.26a1.29 1.29 0 0 1-.08-.28c-.02-.1-.03-.19-.03-.29s0-.2.03-.3c.02-.09.04-.19.08-.28.04-.09.09-.18.14-.26.06-.08.12-.16.19-.22Zm-1.85.76c.01.1.02.2.02.3 0 .09 0 .19-.02.29-.02.09-.05.19-.09.28-.04.09-.08.18-.14.26-.05.08-.12.16-.19.23-.06.07-.14.13-.22.18-.08.06-.17.1-.26.14-.09.04-.19.07-.28.09-.1.02-.2.03-.3.03-.09 0-.19 0-.29-.03s-.19-.05-.28-.09c-.09-.04-.18-.08-.26-.14-.08-.05-.16-.11-.23-.18-.07-.07-.13-.15-.18-.23-.06-.08-.1-.17-.14-.26-.04-.09-.07-.19-.09-.28-.01-.1-.03-.2-.03-.29 0-.1.02-.2.03-.3a1.653 1.653 0 0 1 .23-.54c.05-.08.11-.15.18-.22.07-.07.15-.14.23-.19.08-.05.17-.1.26-.14s.18-.06.28-.08c.19-.04.39-.04.59 0 .09.02.19.04.28.08s.18.09.26.14c.08.06.16.12.22.19a1.303 1.303 0 0 1 .33.48c.04.09.07.19.09.28Zm-4.39 0c.02.1.03.2.03.3 0 .09 0 .19-.03.29-.02.1-.05.19-.08.28-.04.09-.09.18-.14.26-.06.08-.12.16-.19.23s-.14.13-.23.18c-.08.06-.17.1-.26.14a1.358 1.358 0 0 1-.57.12c-.1 0-.2 0-.29-.03-.1-.02-.19-.05-.28-.09-.09-.04-.18-.08-.26-.14-.09-.05-.16-.11-.23-.18a2.11 2.11 0 0 1-.19-.23c-.05-.08-.1-.17-.13-.26-.04-.09-.07-.19-.09-.28-.02-.1-.03-.2-.03-.29 0-.1 0-.2.03-.3.02-.09.05-.19.09-.28.03-.09.08-.18.13-.26.06-.08.12-.16.19-.23.07-.06.14-.13.23-.18.08-.05.17-.1.26-.14s.18-.06.28-.08c.19-.04.39-.04.58 0 .1.02.19.04.28.08.09.04.18.09.26.14.09.05.16.12.23.18.07.07.13.15.19.23.05.08.1.17.14.26.03.09.06.19.08.28Zm-4.38 0a1.526 1.526 0 0 1 0 .59c-.02.09-.05.19-.09.28-.04.09-.08.18-.14.26-.05.08-.11.16-.18.23-.28.28-.67.44-1.06.44-.1 0-.2 0-.3-.03a1.518 1.518 0 0 1-.53-.23c-.09-.05-.16-.11-.23-.18a2.11 2.11 0 0 1-.19-.23c-.05-.08-.1-.17-.14-.26-.03-.09-.06-.19-.08-.28-.02-.1-.03-.2-.03-.29 0-.1 0-.2.03-.3.02-.09.05-.19.08-.28.04-.09.09-.17.14-.26.05-.08.12-.16.19-.22.07-.07.14-.14.23-.19.08-.05.16-.1.25-.14.09-.03.19-.06.28-.08.2-.04.39-.04.59 0 .1.02.19.05.28.08.09.04.18.09.26.14.08.05.16.12.23.19.07.06.13.14.18.22.06.08.1.17.14.26.04.09.07.19.09.28Z" style="stroke-width:0"/>
</svg>
