<svg xmlns="http://www.w3.org/2000/svg" data-name="Layer 1" viewBox="0 0 64 64">
  <path d="M59.95-.01H36.62v11.66h3.53c1.12 0 2.04.91 2.04 2.04s-.91 2.04-2.04 2.04h-3.53v11.66h8.66v.53c0 2.78 2.26 5.04 5.04 5.04s5.04-2.26 5.04-5.04v-.53h8.66V4.06c0-2.25-1.83-4.07-4.07-4.07Zm1.07 24.4h-8.66v3.53c0 1.12-.91 2.04-2.04 2.04s-2.04-.91-2.04-2.04v-3.53h-8.66v-5.66h.53c2.78 0 5.04-2.26 5.04-5.04s-2.26-5.04-5.04-5.04h-.53V2.99h20.33c.59 0 1.07.48 1.07 1.07v20.33ZM40.16 40.17c0 1.12-.91 2.04-2.04 2.04s-2.04-.91-2.04-2.04v-3.59h-8.66v-5.66h.53c2.78 0 5.04-2.26 5.04-5.04s-2.26-5.04-5.04-5.04h-.53v-8.73H4.09c-2.25 0-4.07 1.83-4.07 4.07v43.73a4.08 4.08 0 0 0 4.07 4.07h43.66a4.08 4.08 0 0 0 4.07-4.07V36.58H40.16v3.59ZM3.02 16.18c0-.59.48-1.07 1.07-1.07h20.33v8.73h3.53c1.12 0 2.04.91 2.04 2.04s-.91 2.04-2.04 2.04h-3.53v8.59h-5.66v-.46c0-2.78-2.26-5.04-5.04-5.04s-5.04 2.26-5.04 5.04v.46H3.02V16.18Zm21.4 44.79H4.09c-.59 0-1.07-.48-1.07-1.07V39.57h8.66v-3.53c0-1.12.91-2.04 2.04-2.04s2.04.91 2.04 2.04v3.53h8.66v5.66h-.52c-2.78 0-5.04 2.26-5.04 5.04v.06c0 2.78 2.26 5.04 5.04 5.04h.52v5.59Zm18.74-20.81v-.59h5.66V59.9c0 .59-.48 1.07-1.07 1.07H27.42v-8.66H23.9c-1.11 0-2.02-.9-2.03-2.01.02-1.11.92-2 2.03-2h3.52v-8.73h5.66v.59c0 2.78 2.26 5.04 5.04 5.04s5.04-2.26 5.04-5.04Z" style="stroke-width:0"/>
</svg>
