<svg xmlns="http://www.w3.org/2000/svg" data-name="Layer 1" viewBox="0 0 64 64">
  <path d="M26.04 3c.16 0 .32 0 .48.02 2.3.23 4.11 2.39 4.11 4.91v.87c0 3.37 2.74 6.11 6.11 6.11h9.84a2.5 2.5 0 0 1 2.5 2.5v9.84c0 3.37 2.74 6.11 6.11 6.11h.87c2.52 0 4.68 1.8 4.91 4.11.13 1.31-.28 2.56-1.16 3.54-.87.97-2.11 1.52-3.4 1.52h-1.23c-3.37 0-6.11 2.74-6.11 6.11v9.84a2.5 2.5 0 0 1-2.5 2.5h-8.79c-.06 0-.11-.05-.11-.11v-1.23c0-5.83-4.75-10.58-10.58-10.58-.36 0-.72.02-1.08.05-5.33.54-9.5 5.32-9.5 10.88v.87c0 .06-.05.11-.11.11H5.5a2.5 2.5 0 0 1-2.5-2.5v-9.84c0-.06.05-.11.11-.11h1.23c2.98 0 5.84-1.27 7.85-3.5 2-2.22 2.98-5.19 2.68-8.17-.54-5.33-5.32-9.5-10.88-9.5h-.87c-.06 0-.11-.05-.11-.11V17.4a2.5 2.5 0 0 1 2.5-2.5h9.84c3.37 0 6.11-2.74 6.11-6.11V7.56c0-1.22.48-2.36 1.35-3.23s2.02-1.35 3.23-1.35m0-2.98c-4.17 0-7.58 3.41-7.58 7.58v1.23c0 1.72-1.39 3.11-3.11 3.11H5.5c-3.04 0-5.5 2.46-5.5 5.5v9.84c0 1.72 1.39 3.11 3.11 3.11h.87c3.95 0 7.5 2.87 7.9 6.8.46 4.51-3.12 8.36-7.54 8.36H3.11C1.39 45.53 0 46.92 0 48.64v9.84c0 3.04 2.46 5.5 5.5 5.5h10.89c1.72 0 3.11-1.39 3.11-3.11V60c0-3.95 2.87-7.5 6.8-7.9.26-.03.52-.04.78-.04 4.17 0 7.58 3.41 7.58 7.58v1.23c0 1.72 1.39 3.11 3.11 3.11h8.79c3.04 0 5.5-2.46 5.5-5.5v-9.84c0-1.72 1.39-3.11 3.11-3.11h1.23c4.43 0 8-3.84 7.54-8.36-.4-3.93-3.95-6.8-7.9-6.8h-.87c-1.72 0-3.11-1.39-3.11-3.11v-9.84c0-3.04-2.46-5.5-5.5-5.5h-9.84c-1.72 0-3.11-1.39-3.11-3.11v-.87c0-3.95-2.87-7.5-6.8-7.9-.25-.03-.51-.04-.77-.04Z" style="stroke-width:0"/>
</svg>
