<svg xmlns="http://www.w3.org/2000/svg" data-name="Layer 1" viewBox="0 0 64 64">
  <path d="M50.97 13.3v10.65c0 2.62 2.14 4.76 4.78 4.76h1.87c1.86 0 3.37 1.48 3.37 3.29s-1.51 3.29-3.37 3.29h-1.87c-2.64 0-4.78 2.13-4.78 4.76V50.7h-9.59v-.3c0-4.88-3.7-9.08-8.43-9.55-.32-.03-.64-.05-.95-.05-5.17 0-9.38 4.17-9.38 9.3v.6h-9.59V40.05c0-2.62-2.14-4.76-4.78-4.76H6.38c-.96 0-1.88-.41-2.53-1.12-.63-.7-.92-1.59-.83-2.51.17-1.66 1.77-2.95 3.65-2.95h1.57c2.64 0 4.78-2.13 4.78-4.76V13.3h9.59v.6c0 5.13 4.21 9.3 9.38 9.3.32 0 .64-.02.95-.05 4.73-.47 8.43-4.67 8.43-9.55v-.3h9.59m1.23-3H40.14c-.98 0-1.77.78-1.77 1.75v1.55c0 3.28-2.41 6.23-5.72 6.56-.22.02-.44.03-.65.03-3.51 0-6.38-2.83-6.38-6.3v-1.85c0-.97-.79-1.75-1.77-1.75H11.8c-.98 0-1.77.78-1.77 1.75v11.9c0 .97-.79 1.75-1.77 1.75H6.69c-3.34.01-6.32 2.4-6.66 5.66-.38 3.75 2.62 6.94 6.34 6.94h1.87c.98 0 1.77.78 1.77 1.75v11.9c0 .97.79 1.75 1.77 1.75h12.05c.98 0 1.77-.78 1.77-1.75v-1.85c0-3.46 2.87-6.3 6.38-6.3.22 0 .43.01.65.03 3.31.33 5.72 3.28 5.72 6.56v1.55c0 .97.79 1.75 1.77 1.75h12.05c.98 0 1.77-.78 1.77-1.75v-11.9c0-.97.79-1.75 1.77-1.75h1.87c3.51 0 6.38-2.83 6.38-6.3 0-3.46-2.87-6.3-6.38-6.3h-1.87c-.98 0-1.77-.78-1.77-1.75v-11.9c0-.97-.79-1.75-1.77-1.75Z" style="stroke-width:0"/>
</svg>
