<svg xmlns="http://www.w3.org/2000/svg" data-name="Layer 1" viewBox="0 0 64 64">
  <path d="M32 48.71c-1.66 0-3-1.34-3-3V33.62c0-1.66 1.34-3 3-3 5.47 0 9.92-4.45 9.92-9.92s-4.45-9.92-9.92-9.92c-3.08 0-5.94 1.4-7.83 3.83a9.792 9.792 0 0 0-2.09 6.09c0 1.66-1.34 3-3 3s-3-1.34-3-3c0-3.58 1.16-6.96 3.35-9.78 3.04-3.9 7.62-6.14 12.57-6.14 8.78 0 15.92 7.14 15.92 15.92 0 7.75-5.57 14.23-12.92 15.63v9.38c0 1.66-1.34 3-3 3Zm3 7.51v-1.23c0-1.66-1.34-3-3-3s-3 1.34-3 3v1.23c0 1.66 1.34 3 3 3s3-1.34 3-3Z" style="stroke-width:0"/>
</svg>
