<svg xmlns="http://www.w3.org/2000/svg" data-name="Layer 1" viewBox="0 0 64 64">
  <path d="M59.75 4.25C56.74 1.23 52.45-.12 47.66.46c-4.65.56-9.22 2.88-12.87 6.53-3.65 3.65-6.54 8.86-7.72 13.93-.04.16-.06.32-.09.48-.01.04-.03.09-.04.13-1.77 7.99-3.87 14.41-7.97 19.31-1.28-.52-2.8-.26-3.83.78L1.13 55.6c-.67.67-1.04 1.56-1.04 2.5s.37 1.84 1.04 2.5l2.25 2.25c.67.67 1.56 1.04 2.5 1.04s1.84-.37 2.5-1.04l13.99-13.99a3.562 3.562 0 0 0 .78-3.83c4.89-4.11 11.31-6.2 19.31-7.98.07-.02.14-.04.21-.07C47.85 35.87 53.2 33 57 29.2c3.65-3.65 5.97-8.23 6.53-12.88.57-4.78-.77-9.08-3.79-12.1Zm.8 8.34-.16.16-3.86-3.86 1.67-1.67.07-.11c1.24 1.52 2.01 3.39 2.28 5.48Zm-12.22 19.3-2.13-2.13 3.83-3.83 2.91 2.91a26.525 26.525 0 0 1-4.62 3.05Zm-6.26 2.23c-.08 0-.17.01-.25.03l2.97-2.97 1.61 1.61c-1.46.6-2.92 1.05-4.33 1.33Zm-6.89-23.05 2.9 2.9-3.83 3.83-2.07-2.07c.85-1.66 1.86-3.24 3-4.66Zm12.83-7.63c.08 0 .16 0 .24-.01l.18.18-3.7 3.7-2.21-2.21c1.77-.86 3.62-1.43 5.49-1.65Zm8.89 2.28s-.08.04-.12.08l-1.67 1.67-3.86-3.86.16-.16c2.09.26 3.97 1.03 5.49 2.28Zm-7.06-.7 3.86 3.86-3.7 3.7-3.86-3.86 3.7-3.7Zm-1.25 8.97-3.83 3.83-3.86-3.86 3.83-3.83 3.86 3.86Zm-5.25 5.25-3.83 3.83-3.86-3.86 3.83-3.83 3.86 3.86Zm-3.8 14.35-3.86-3.86 3.83-3.83 3.86 3.86-3.83 3.83Zm-5.27-5.27-3.86-3.86 3.83-3.83 3.86 3.86-3.83 3.83Zm-1.44-9.11-2.95 2.95c.04-.19.06-.37.11-.56.31-1.32.75-2.64 1.3-3.94l1.55 1.55Zm-3.34 7.16 3.37 3.37-1.77 1.77c-.96-1.32-1.51-3.08-1.6-5.13Zm4.78 4.78 3.32 3.32c-2.03-.11-3.79-.63-5.09-1.55l1.77-1.77Zm10.52-2.8-3.86-3.86 3.83-3.83 3.86 3.86-3.83 3.83Zm1.39-9.11 3.83-3.83 3.86 3.86-3.83 3.83-3.86-3.86Zm5.25-5.25 3.7-3.7 3.86 3.86-3.7 3.7-3.86-3.86ZM36.91 9.11c1.17-1.17 2.45-2.18 3.8-3.02l2.62 2.62-3.83 3.83-3-3c.14-.14.27-.3.41-.44Zm-9.44 21.98c.52 1.25 1.22 2.37 2.15 3.3.94.94 2.06 1.64 3.3 2.15-4.39 1.47-8.21 3.34-11.48 6.03 2.7-3.27 4.56-7.09 6.04-11.48Zm-7.2 15.67L6.28 60.75c-.14.14-.3.16-.38.16s-.25-.02-.38-.16L3.27 58.5c-.14-.14-.16-.3-.16-.38s.02-.24.16-.38l13.99-13.99c.11-.11.24-.16.38-.16s.28.05.38.16L20.27 46c.21.21.21.55 0 .77ZM54.9 27.1c-.14.14-.29.27-.44.41l-3-3 3.83-3.83 2.62 2.62c-.84 1.34-1.85 2.62-3.02 3.8Zm4.02-5.62-2.21-2.21 3.7-3.7.18.18c0 .08 0 .16-.02.23-.22 1.86-.8 3.71-1.65 5.49Z" style="stroke-width:0"/>
</svg>
