<svg xmlns="http://www.w3.org/2000/svg" data-name="Layer 1" viewBox="0 0 64 64">
  <path d="M30.58 63.93c-7.75 0-14.06-6.75-14.06-15.04 0-10 12.26-30.06 12.78-30.9a1.506 1.506 0 0 1 2.56 0c.52.85 12.78 20.91 12.78 30.9 0 8.29-6.31 15.04-14.06 15.04Zm0-42.22c-3.16 5.44-11.06 19.81-11.06 27.17 0 6.64 4.96 12.04 11.06 12.04s11.06-5.4 11.06-12.04c0-7.37-7.9-21.73-11.06-27.17Zm-18.13 12.7c-4.92 0-8.93-4.27-8.93-9.51 0-6.09 7.34-18.1 7.65-18.6a1.506 1.506 0 0 1 2.56 0c.31.51 7.65 12.52 7.65 18.6 0 5.25-4.01 9.51-8.93 9.51Zm0-24.37C10.09 14.22 6.52 21.3 6.52 24.9s2.66 6.51 5.93 6.51 5.93-2.92 5.93-6.51-3.56-10.68-5.93-14.86ZM52.67 44.3c-4.3 0-7.81-3.72-7.81-8.3 0-5.14 5.86-14.82 6.53-15.91a1.506 1.506 0 0 1 2.56 0c.67 1.09 6.53 10.77 6.53 15.91 0 4.58-3.5 8.3-7.81 8.3Zm0-20.45c-1.99 3.56-4.81 9.24-4.81 12.15s2.16 5.3 4.81 5.3 4.81-2.38 4.81-5.3-2.81-8.59-4.81-12.15Zm-14.12-5.78c-3.21 0-5.81-2.76-5.81-6.15 0-3.65 4.07-10.37 4.53-11.13a1.506 1.506 0 0 1 2.56 0c.46.76 4.53 7.48 4.53 11.13 0 3.39-2.61 6.15-5.81 6.15Zm0-13.48c-1.38 2.57-2.81 5.73-2.81 7.33 0 1.74 1.26 3.15 2.81 3.15s2.81-1.41 2.81-3.15c0-1.59-1.43-4.76-2.81-7.33Z" style="stroke-width:0"/>
</svg>
