<svg xmlns="http://www.w3.org/2000/svg" data-name="Layer 1" viewBox="0 0 64 64">
  <path d="M23.75 11.91a.848.848 0 0 1 .47-1.45l4.63-.67 2.07-4.2c.31-.63 1.22-.63 1.53 0l2.07 4.2 4.63.67c.7.1.98.96.47 1.45l-3.35 3.27.79 4.61c.12.7-.61 1.23-1.24.9l-4.14-2.18-4.14 2.18a.853.853 0 0 1-1.24-.9l.79-4.61-3.35-3.27ZM64 57.33c0 .86-.7 1.56-1.56 1.56H1.56c-.86 0-1.56-.7-1.56-1.56s.7-1.56 1.56-1.56h3.98v-12.4c0-2.66 2.16-4.82 4.82-4.82h11.58v-9.8c0-2.66 2.16-4.82 4.82-4.82h9.87c2.66 0 4.82 2.16 4.82 4.82v3.76h11.58c2.66 0 4.82 2.16 4.82 4.82v18.44h4.6c.86 0 1.56.7 1.56 1.56Zm-42.07-1.56V41.66H10.35c-.94 0-1.7.76-1.7 1.7v12.4h13.28Zm16.4 0V28.75c0-.94-.76-1.7-1.7-1.7h-9.87c-.94 0-1.7.76-1.7 1.7v27.02h13.28Zm16.4 0V37.33c0-.94-.76-1.7-1.7-1.7H41.45v20.14h13.28Z" style="stroke-width:0"/>
</svg>
