<svg xmlns="http://www.w3.org/2000/svg" data-name="Layer 1" viewBox="0 0 64 64">
  <path d="M62.55 52.92a6.05 6.05 0 0 1-5.29 3.06H32.41l5.42 5.42c.6.6.6 1.56 0 2.15a1.523 1.523 0 0 1-2.16 0l-8.02-8.02c-.29-.29-.45-.67-.45-1.08s.16-.79.45-1.08l8.02-8.02c.6-.6 1.56-.6 2.15 0s.6 1.56 0 2.15l-5.42 5.42h24.85c1.11 0 2.1-.57 2.65-1.53.55-.96.55-2.1 0-3.06l-4.43-7.66c-.42-.73-.17-1.66.56-2.08.73-.42 1.66-.17 2.08.56l4.43 7.66c1.1 1.91 1.1 4.2 0 6.11ZM32 3.05c1.11 0 2.1.57 2.65 1.53l13.67 23.68-7.21-1.9a1.523 1.523 0 1 0-.77 2.95l10.98 2.88a1.514 1.514 0 0 0 1.86-1.09l2.88-10.98a1.523 1.523 0 1 0-2.95-.77l-2 7.62L37.29 3.06A6.03 6.03 0 0 0 32 0a6.03 6.03 0 0 0-5.29 3.06l-7.67 13.28c-.42.73-.17 1.66.56 2.08.73.42 1.66.17 2.08-.56l7.67-13.28c.55-.96 1.55-1.53 2.65-1.53ZM16.62 24.88a1.52 1.52 0 0 0-1.95-.91L4.02 27.88c-.79.29-1.2 1.16-.91 1.95s1.16 1.19 1.95.91l7.2-2.64L1.45 46.81c-1.1 1.91-1.1 4.2 0 6.11s3.08 3.06 5.29 3.06h11.3a1.52 1.52 0 1 0 0-3.04H6.74c-1.11 0-2.1-.57-2.65-1.53-.55-.96-.55-2.1 0-3.06L15.03 29.4l2.64 7.19a1.524 1.524 0 0 0 1.95.91c.79-.29 1.2-1.16.91-1.95L16.62 24.9Z" style="stroke-width:0"/>
</svg>
