<svg xmlns="http://www.w3.org/2000/svg" data-name="Layer 1" viewBox="0 0 64 64">
  <path d="M32 64.08C14.75 64.08.71 50.04.71 32.79S14.75 1.5 32 1.5c4.17 0 8.22.81 12.04 2.4l2-2.59c.75-.97 1.91-1.45 2.97-1.23.91.19 1.6.85 1.84 1.77l3.53 13.68c.23.88 0 1.89-.62 2.69s-1.53 1.28-2.44 1.29l-14.13.04c-.95 0-1.76-.5-2.17-1.33-.48-.97-.3-2.21.44-3.18l1.39-1.8c-1.57-.39-3.2-.58-4.84-.58-11.11 0-20.14 9.04-20.14 20.14s9.04 20.14 20.14 20.14S52.15 43.9 52.15 32.8c0-1.85-.25-3.68-.74-5.44-.83-2.96.91-6.04 3.87-6.87 2.96-.82 6.04.91 6.87 3.87.77 2.74 1.15 5.58 1.15 8.44 0 17.25-14.04 31.29-31.29 31.29ZM32 4.5C16.4 4.5 3.71 17.19 3.71 32.79S16.4 61.08 32 61.08s28.29-12.69 28.29-28.29c0-2.59-.35-5.16-1.04-7.63a2.565 2.565 0 0 0-3.17-1.78c-1.36.38-2.17 1.8-1.78 3.17.57 2.02.85 4.12.85 6.25 0 12.76-10.38 23.14-23.14 23.14S8.87 45.56 8.87 32.8 19.25 9.66 32.01 9.66c2.7 0 5.35.46 7.87 1.37l1.93.7-3.72 4.82 13.22-.04s.15-.2.17-.29l-3.3-12.74-3.44 4.45-1.18-.88c-.2-.15-.37-.25-.53-.32-3.49-1.48-7.2-2.22-11.01-2.22Z" style="stroke-width:0"/>
</svg>
