<svg xmlns="http://www.w3.org/2000/svg" data-name="Layer 1" viewBox="0 0 64 64">
  <path d="M23.54 50.15c-7.69 0-9.09-6.21-9.62-8.42-.21-.9-.14-2.76.97-3.57.43-.32 1.72-1.27 1.72-1.27.02 1.11.04 2.95.27 4.37.36 2.2 1.67 5.89 6.66 5.89 3.48 0 7.28-3.85 10.62-7.24 2.1-2.13 3.98-4.04 5.83-5.14C38.15 32.07 33 23.76 33 23.76l2.22-2.4s5.62 9.32 7.61 12.25l.64.95c.58.85.14 2.02-.85 2.28-1.67.45-4.04 2.85-6.33 5.17-3.76 3.81-8.02 8.13-12.76 8.13ZM47.08 3.94c-.06 0-.1 0-.17.02l-1.6 1.63c-.36-.32-.71-.66-1.09-.96-.26-.21-.54-.37-.87-.37-.1 0-.2.01-.3.04-.66 1.79-1.4 3.54-1.28 5.43-2.66 6.27-8.25 10.3-12.19 15.52-2.78 3.69-12.88 9.5-13.71 10.12-2.38 1.78-3.9 4.12-4.36 7.1-.09.55-.24.58-.93.77-.71.19-1.85.6-2.49.96-1.7.96-3.11 2.27-4.24 3.9-.12.17-.2.37-.34.63.4-.07.71-.13 1.12-.2l-.32.53c-1.01 1.73-1.51 3.56-1.2 5.57.25 1.59 1.16 2.62 2.64 3.2 4.02 1.55 9.15 2.25 11.67 2.25.68 0 1.16-.05 1.39-.15-.32-.76-1.97-2.23-3.65-3 .62.13 1.69.35 2.03.35h.02c-.41-.55-2.46-3.06-2.58-4.55.22.59 3.22 1.75 5.65 2.26-.14.01-.63.35-.81.7-.5.93.8 1.26 3.82 2.11 3.82 1.08 3.79 1.28 10.01 1.28 3.23 0 3.81-.61 3.81-1.16 0-2.39-2.51-2.78-4.94-2.8h-.02c-.67 0-2.3.51-2.3.51 1.52-.51 2.92-2.58 2.87-4.5 1-.42 5.42-2.89 6.16-3.68.16-.17.32-.34.52-.54 4.8 6.55 3.78 8.73 5.29 11.13.44.71 2.15 1.02 5 1.02h.29c2.75 0 4.25-.02 4.25-1.14 0-2.84-2.92-3.18-3.81-3.66-.38-.21-.56-.5-.62-.92-.28-1.87-.33-4.88-.18-6.77 0-.1 5.51-8.59 5.51-14.16 0-7.17-2.69-8.33-2.69-11.2.59-.08 1.11-.18 1.64-.22 1.17-.08 2.35-.14 3.52-.18.8-.03 1.43-.3 1.76-1.08.01-.03.03-.06.05-.08.3-.42.59-.84.9-1.26.18-.25.41-.48.55-.75.21-.41.07-.9-.28-1.2-.41-.34-.85-.65-1.31-.9-1.68-.91-3.38-1.79-5.06-2.69-.27-.14-.5-.34-.7-.57-1.1-1.23-2.38-2.2-3.87-2.92-.22-.11-.38-.25-.4-.53-.04-.48-.09-.97-.18-1.44-.26-1.38-.78-2.62-1.99-3.46m0-3c.61 0 1.21.19 1.71.54 1.71 1.19 2.76 2.94 3.22 5.36.03.15.05.3.08.44 1.36.8 2.58 1.8 3.63 2.98.72.39 1.45.77 2.18 1.15.94.49 1.88.99 2.81 1.5.62.34 1.23.75 1.8 1.23 1.46 1.21 1.88 3.22 1.03 4.88-.23.45-.51.79-.69 1.01-.03.04-.07.08-.1.12-.22.3-.44.61-.66.92l-.09.13c-.8 1.59-2.33 2.53-4.27 2.61-.43.02-.84.03-1.24.05.77 1.75 1.66 4.3 1.66 8.55 0 3.77-1.87 8.84-5.56 15.06-.06 1.37-.03 3.09.08 4.42 1.57.6 4.57 2.11 4.57 6.01 0 1.56-.92 3.41-3.5 3.93-1.04.21-2.29.21-3.75.21h-.29c-3.61 0-6.28-.41-7.54-2.43-.76-1.21-1.07-2.34-1.36-3.43-.34-1.24-.73-2.7-2.09-4.96-.81.51-1.7 1.02-2.5 1.46 3.31 1.12 3.91 3.59 3.91 5.21 0 2.76-2.29 4.16-6.81 4.16-5.79 0-6.64-.19-9.75-1.09-.32-.09-.68-.2-1.08-.31l-.27-.08c-.15-.04-.3-.09-.45-.13a3.04 3.04 0 0 1-1.75 2.2c-.64.28-1.41.4-2.59.4-2.57 0-8.09-.65-12.75-2.45-2.51-.97-4.12-2.93-4.52-5.53-.28-1.8-.1-3.59.54-5.36-.28-.78-.23-1.66.17-2.41.03-.06.06-.12.08-.17.1-.2.23-.47.44-.77 1.4-2.02 3.16-3.64 5.23-4.81.62-.35 1.45-.69 2.21-.94.79-3.07 2.55-5.64 5.25-7.67.25-.19.6-.41 1.57-1.01 2.38-1.48 9.63-5.98 11.54-8.52 1.5-1.98 3.19-3.78 4.82-5.51 2.67-2.83 5.21-5.52 6.75-8.81.04-2 .7-3.76 1.28-5.33l.19-.52c.33-.9 1.07-1.59 2-1.85.37-.1.75-.16 1.12-.16.58 0 1.14.12 1.68.36.46-.37 1.02-.6 1.61-.65h.08l.09-.02c.09 0 .18-.01.27-.01Z" style="stroke-width:0"/>
</svg>
