<svg xmlns="http://www.w3.org/2000/svg" data-name="Layer 1" viewBox="0 0 64 64">
  <path d="M60.21 55.16c-.75 0-1.49-.26-2.13-.75L34.4 36.01c-1.12-.87-1.79-2.37-1.79-4s.67-3.13 1.79-4l23.68-18.4c1.08-.83 2.43-.99 3.61-.41 1.48.72 2.44 2.46 2.44 4.41v36.8c0 1.95-.96 3.68-2.44 4.41-.47.23-.98.35-1.48.35Zm0-43.31c-.08 0-.17.03-.29.12l-23.68 18.4c-.38.3-.63.94-.63 1.63s.25 1.34.63 1.63 23.68 18.4 23.68 18.4c.22.17.34.13.45.08.38-.18.76-.83.76-1.71V13.6c0-.88-.38-1.53-.76-1.71-.05-.02-.1-.04-.16-.04ZM27.6 55.16c-.75 0-1.49-.26-2.13-.75L1.78 36C.66 35.13 0 33.63 0 32s.67-3.13 1.79-4L25.47 9.6c1.08-.83 2.42-.99 3.61-.41 1.48.72 2.44 2.46 2.44 4.41v36.8c0 1.95-.96 3.68-2.44 4.41-.48.23-.98.35-1.48.35ZM3.62 33.63l23.68 18.4c.22.17.34.13.45.08.38-.18.76-.83.76-1.71V13.6c0-.88-.38-1.53-.76-1.71-.11-.05-.23-.09-.45.08L3.62 30.37c-.38.3-.63.94-.63 1.63s.25 1.34.63 1.63Z" style="stroke-width:0"/>
</svg>
