<svg xmlns="http://www.w3.org/2000/svg" data-name="Layer 1" viewBox="0 0 64 64">
  <path d="M50.65 52.91 40.37 36.7l6.56-10.11c.55-.77 5.23-7.88-2.32-18.99-.37-.65-.79-1.27-1.27-1.86l-.04-.06C40.53 2.26 36.13 0 31.88 0c-4.59 0-8.67 2.7-11.17 5.72l-.02-.04-.3.45c-.38.49-.72.99-1.01 1.48-7.54 11.1-2.87 18.21-2.31 18.98l6.56 10.11-10.28 16.21c-.8 1.26-.72 2.89.2 4.07l4.41 5.66c.67.86 1.7 1.36 2.79 1.36h.15c1.14-.05 2.19-.65 2.81-1.61L32 49.61l8.29 12.78c.62.96 1.67 1.56 2.81 1.61h.15c1.09 0 2.12-.5 2.79-1.36l4.41-5.66c.92-1.17 1-2.81.2-4.07ZM31.88 3.05c4.08 0 7.8 2.61 9.68 5.4l-1.19 1.87c-2.29-1.31-5.39-2.48-8.48-2.48-3.5 0-6.41 1.25-8.32 2.38l-1.12-1.76c1.89-2.73 5.43-5.41 9.43-5.41Zm.01 7.84c2.55 0 5.08 1.02 6.85 2.02l-6.73 10.61-6.8-10.71c1.5-.87 3.89-1.91 6.69-1.91ZM19.6 24.91l-.06-.08c-.16-.22-3.61-5.1 1.12-13.49l1.89 2.97 7.65 12.06-4.77 7.52-5.83-8.98Zm1.56 35.83a.47.47 0 0 1-.39.22c-.09 0-.27-.01-.41-.19l-4.41-5.66a.481.481 0 0 1-.03-.56l27.42-43.23c4.73 8.39 1.28 13.27 1.13 13.48L21.15 60.73Zm26.9-5.62-4.41 5.66c-.13.17-.32.19-.41.19-.09 0-.27-.04-.39-.22l-9.03-13.92 4.73-7.29 9.53 15.03c.11.17.1.4-.03.56Z" style="stroke-width:0"/>
</svg>
