<svg xmlns="http://www.w3.org/2000/svg" data-name="Layer 1" viewBox="0 0 64 64">
  <path d="M27.66 13.31c-.43-.71-.2-1.63.51-2.06l3.06-1.85a1.49 1.49 0 0 1 1.55 0l3.06 1.85c.71.43.93 1.35.51 2.06-.28.47-.78.72-1.28.72-.26 0-.53-.07-.78-.22l-2.12-1.28h-.32l-2.12 1.28c-.71.43-1.63.2-2.06-.51Zm35.71 37.2s-.03.03-.05.04c-.13.09-.27.17-.42.22-.01 0-.02.01-.03.02l-11.62 3.48 1.65 4.17c.18.46.12.98-.16 1.39s-.74.66-1.24.66h-9.59l.33 1.58c.09.44-.02.9-.3 1.25a1.5 1.5 0 0 1-1.16.55h-17.5c-.45 0-.88-.2-1.16-.55-.28-.35-.4-.81-.3-1.25l.33-1.58h-9.59c-.5 0-.96-.25-1.24-.66s-.34-.93-.16-1.39l1.65-4.17-11.62-3.48s-.02-.01-.03-.02c-.15-.05-.29-.12-.42-.22-.02-.01-.03-.03-.05-.04-.12-.1-.23-.21-.32-.35 0-.01-.01-.02-.02-.04-.08-.14-.15-.28-.18-.44v-.02c-.02-.1-.03-.21-.03-.31 0-5.16 4.18-6.84 8.6-8.61 6.75-2.71 14.39-5.78 14.43-21.24v-.15C23.17 5.36 28.63.14 32.06.14s8.88 5.21 8.89 19.2v.23c.06 15.41 7.7 18.49 14.44 21.19 4.42 1.78 8.59 3.45 8.59 8.6 0 .11-.01.21-.03.31v.02c-.04.16-.1.31-.18.44 0 .01-.01.02-.02.04-.09.13-.19.25-.32.35ZM40.9 33.38v9.69c0 .11-.01.21-.03.31l-.96 4.47h20.78c-.7-1.91-2.89-2.88-6.47-4.32-4.46-1.79-9.98-4.03-13.32-10.15Zm-3 8.19v-7.25H26.11v7.25H37.9Zm0-17.5H26.11v7.25H37.9v-7.25Zm-11.79-4.7v1.7H37.9v-1.7c0-12.24-4.38-16.24-5.89-16.24s-5.89 4-5.89 16.24ZM3.32 47.85h20.79l-.96-4.47c-.02-.1-.03-.2-.03-.31v-9.69c-3.34 6.12-8.85 8.35-13.31 10.14-3.59 1.44-5.78 2.41-6.48 4.33Zm8.48 3 11.59 3.47.72-3.47H11.8Zm10.93 6.65.05-.22-7.13-2.14-.93 2.36h8.01Zm16.17 3.38-2.33-11.22c-.04-.2-.04-.42 0-.62l.96-4.47H26.46l.96 4.47c.04.21.04.42 0 .62l-2.33 11.22H38.9Zm9.44-5.74-7.13 2.14.05.22h8.01l-.93-2.36Zm3.85-4.29H39.88l.72 3.48 11.59-3.48Z" style="stroke-width:0"/>
</svg>
