<svg xmlns="http://www.w3.org/2000/svg" data-name="Layer 1" viewBox="0 0 64 64">
  <path d="M62.36 42.06H18.04V23.99c0-2.14-1.74-3.87-3.87-3.87s-3.87 1.74-3.87 3.87v18.07H3.02c-.83 0-1.5.67-1.5 1.5v12.87c0 .83.67 1.5 1.5 1.5h3.8v3.03c0 .83.67 1.5 1.5 1.5h11.7c.83 0 1.5-.67 1.5-1.5v-3.03h22.34v3.03c0 .83.67 1.5 1.5 1.5h11.7c.83 0 1.5-.67 1.5-1.5v-3.03h3.8c.83 0 1.5-.67 1.5-1.5V43.56c0-.83-.67-1.5-1.5-1.5ZM13.3 23.99a.87.87 0 0 1 1.74 0v18.07h-1.75V23.99Zm5.22 35.47h-8.7v-1.53h8.7v1.53Zm37.05 0h-8.7v-1.53h8.7v1.53Zm5.3-4.53H4.52v-9.87h39.34v2.07c0 .83.67 1.5 1.5 1.5s1.5-.67 1.5-1.5v-2.07h2.85v2.07c0 .83.67 1.5 1.5 1.5s1.5-.67 1.5-1.5v-2.07h2.85v2.07c0 .83.67 1.5 1.5 1.5s1.5-.67 1.5-1.5v-2.07h2.3v9.87Zm-45.2-4.94c0 .83-.67 1.5-1.5 1.5H9.18c-.83 0-1.5-.67-1.5-1.5s.67-1.5 1.5-1.5h4.99c.83 0 1.5.67 1.5 1.5Zm5.42-1.06a1.499 1.499 0 0 1 0 2.12c-.07.07-.15.13-.23.18-.08.06-.17.1-.26.14-.09.04-.18.07-.28.09a1.504 1.504 0 0 1-1.36-.41 1.55 1.55 0 0 1-.43-1.06c0-.1 0-.2.03-.3.02-.09.04-.19.08-.28.04-.09.08-.18.14-.26.05-.08.11-.16.18-.22.36-.35.87-.51 1.36-.41.1.02.19.04.28.08s.18.09.26.14c.08.05.16.12.23.19Zm4.23 0a1.499 1.499 0 0 1 0 2.12c-.07.07-.14.13-.23.18-.08.06-.17.1-.26.14a1.428 1.428 0 0 1-.57.12c-.1 0-.2 0-.29-.03-.1-.02-.19-.05-.28-.09-.09-.04-.18-.08-.26-.14-.08-.05-.16-.11-.23-.18a2.11 2.11 0 0 1-.19-.23c-.05-.08-.1-.17-.14-.26-.03-.09-.06-.18-.08-.28a1.481 1.481 0 0 1 .41-1.35c.07-.07.15-.14.23-.19.08-.05.17-.1.26-.14.09-.04.18-.06.28-.08.19-.04.39-.04.58 0 .1.02.19.04.28.08s.18.09.26.14c.09.05.16.12.23.19ZM14.17 10.64c3.5 0 6.79 1.47 9.25 4.15a1.501 1.501 0 0 1-2.21 2.03c-1.89-2.05-4.39-3.18-7.05-3.18-2.65 0-5.16 1.13-7.04 3.18-.29.32-.7.48-1.1.48-.36 0-.73-.13-1.02-.4-.61-.56-.65-1.51-.09-2.12 2.46-2.68 5.75-4.15 9.25-4.15ZM.64 12.18c-.61-.56-.65-1.51-.09-2.12 3.63-3.94 8.46-6.12 13.61-6.12s9.98 2.17 13.61 6.12c.56.61.52 1.56-.09 2.12-.29.27-.65.4-1.02.4-.4 0-.81-.16-1.1-.48-3.05-3.32-7.1-5.15-11.41-5.15S5.8 8.78 2.74 12.1c-.56.61-1.51.65-2.12.09Z" style="stroke-width:0"/>
</svg>
