<svg xmlns="http://www.w3.org/2000/svg" data-name="Layer 1" viewBox="0 0 64 64">
  <path d="M18.56 41.25c.22 0 .44.02.66.05 1.76.27 3.2 1.71 3.47 3.47a4.19 4.19 0 0 1-4.14 4.85c-.22 0-.44-.02-.66-.05-1.76-.27-3.2-1.71-3.48-3.47a4.19 4.19 0 0 1 4.14-4.85m0-3c-2.1 0-4.09.91-5.46 2.51a7.208 7.208 0 0 0-1.65 5.8c.47 3.06 2.93 5.52 5.99 5.98a7.138 7.138 0 0 0 6.56-2.42 7.208 7.208 0 0 0 1.65-5.8c-.47-3.06-2.93-5.52-5.98-5.99-.37-.06-.75-.09-1.12-.09Zm-3.76-24.97c9.81 0 18.83 3.64 25.55 10.36 6.99 6.99 10.65 16.46 10.34 26.73 0 .19-.16.34-.35.34h-2.96c-.19 0-.35-.16-.34-.36.3-9.46-3.05-17.53-9.46-23.94-6.15-6.15-13.82-9.48-22.78-9.48-.38 0-.77 0-1.15.02h-.01c-.19 0-.35-.15-.35-.34v-2.96c0-.19.15-.35.34-.35.39-.01.79-.02 1.18-.02m0-3c-.42 0-.84 0-1.27.02a3.33 3.33 0 0 0-3.25 3.35v2.96c0 1.84 1.5 3.34 3.35 3.34h.1c.36-.01.71-.02 1.06-.02 8 0 14.95 2.89 20.66 8.6 5.96 5.96 8.85 13.27 8.58 21.72-.03.9.32 1.79.94 2.44.63.64 1.5 1.01 2.4 1.01h2.96c1.82 0 3.29-1.43 3.35-3.25.33-11.1-3.65-21.38-11.22-28.94-7.25-7.25-17.07-11.24-27.67-11.24Zm-1.1 16.1c6.53 0 12.54 2.42 17.01 6.9s6.91 10.53 6.9 17.08c0 .19-.16.35-.35.35H34.3c-.19 0-.34-.16-.34-.35.02-5.76-2.1-10.39-6.01-14.31-3.9-3.9-8.52-6.02-14.24-6.02h-.07c-.19 0-.34-.15-.34-.34v-2.96c0-.19.16-.35.35-.35h.07m0-3h-.07c-1.84 0-3.34 1.51-3.34 3.35v2.96c0 1.84 1.5 3.34 3.34 3.34h.07c4.76 0 8.61 1.63 12.12 5.14 3.52 3.52 5.15 7.39 5.14 12.18a3.327 3.327 0 0 0 3.34 3.35h2.96c1.84 0 3.35-1.5 3.35-3.34.02-7.36-2.74-14.18-7.77-19.21-5.01-5.01-11.81-7.78-19.13-7.78ZM59.5 3c.83 0 1.5.67 1.5 1.5v55c0 .83-.67 1.5-1.5 1.5h-55c-.83 0-1.5-.67-1.5-1.5v-55C3 3.67 3.67 3 4.5 3h55m0-3h-55C2.02 0 0 2.02 0 4.5v55C0 61.98 2.02 64 4.5 64h55a4.5 4.5 0 0 0 4.5-4.5v-55C64 2.02 61.98 0 59.5 0Z" style="stroke-width:0"/>
</svg>
