<svg xmlns="http://www.w3.org/2000/svg" data-name="Layer 1" viewBox="0 0 64 64">
  <path d="M29.17 36.88c0 1.06 2 1.7 3.19 1.98 3.68.87 5.54 2.54 5.54 4.95s-1.85 4.24-4.36 4.82v5.2h-3.06v-5.2c-2.51-.57-4.36-2.51-4.36-4.82h3.06c0 1.05 1.3 1.94 2.83 1.94s2.83-.89 2.83-1.94-1.73-1.63-3.19-1.98c-3.67-.87-5.54-2.54-5.54-4.95s1.85-4.24 4.36-4.82v-5.2h3.06v5.2c2.51.57 4.36 2.51 4.36 4.82h-3.06c0-1.05-1.3-1.94-2.83-1.94s-2.83.89-2.83 1.94Zm25.27 26.13c-.54.58-1.22.78-2.24.78-.8 0-1.82-.12-3.16-.28-3.1-.37-8.29-1-16.75-1h-.56c-8.45 0-13.64.63-16.75 1-3.05.37-4.44.54-5.41-.49-.91-.97-.68-2.2-.3-4.25.18-.96.4-2.15.59-3.66.21-1.64.36-3.52.53-5.51.85-10.3 2.01-24.2 12.14-31.34v-6.29c0-.58.33-1.08.81-1.33l-3.92-8.31a1.5 1.5 0 0 1 .22-1.62c.39-.45 1.01-.62 1.58-.45.02 0 3.17.92 10.5.92S42.17.27 42.2.26c.57-.18 1.19 0 1.59.44.39.45.49 1.09.23 1.63l-3.92 8.31c.48.25.81.75.81 1.33v5.91c10.65 7.02 11.83 21.23 12.7 31.72.16 1.99.32 3.87.53 5.51.19 1.51.41 2.7.59 3.66.38 2.05.61 3.28-.3 4.25ZM37.93 16.88v-3.42H25.54v3.42h12.39ZM23.38 3.69l3.19 6.77h10.3l3.18-6.76c-1.83.24-4.54.47-8.33.47s-6.49-.23-8.34-.48Zm28.65 57.1c-.05-.4-.16-.97-.25-1.49-.18-1-.42-2.24-.62-3.84-.21-1.7-.37-3.61-.54-5.63-.84-10.12-1.98-23.94-12.14-29.96H25.5c-10.16 6.02-11.3 19.84-12.14 29.96-.17 2.02-.32 3.93-.54 5.63-.2 1.6-.43 2.84-.62 3.84-.1.52-.2 1.08-.25 1.49.6-.02 1.61-.14 2.65-.27 3.17-.38 8.47-1.02 17.1-1.02h.56c8.63 0 13.94.64 17.1 1.02 1.05.13 2.05.25 2.65.27Z" style="stroke-width:0"/>
</svg>
