<svg xmlns="http://www.w3.org/2000/svg" data-name="Layer 1" viewBox="0 0 64 64">
  <path d="M63.43 50c-.28-.28-.66-.44-1.06-.44H29.5v-4.24h29.7c.78 0 1.44-.6 1.5-1.39.58-7.67-2.39-15.63-8.14-21.82-6.06-6.53-14.39-10.42-23.06-10.82V9.75l7.78-3.24c.56-.23.92-.78.92-1.38s-.36-1.15-.92-1.38L28.59.12c-.1-.04-.21-.07-.32-.09-.04 0-.07 0-.11-.01-.05 0-.1-.01-.14-.01h-.09a1.554 1.554 0 0 0-.35.06c-.03 0-.06.02-.1.03-.1.04-.2.08-.29.14h-.01c-.09.06-.18.14-.25.22-.02.02-.04.05-.06.08-.05.06-.1.13-.14.19-.02.03-.04.06-.05.1-.04.07-.06.15-.09.23 0 .03-.02.06-.03.09-.03.11-.04.22-.04.34v14.36L8.84 42.99c-.3.46-.32 1.05-.06 1.53s.77.79 1.32.79h16.43v4.24H1.63c-.83 0-1.5.67-1.5 1.5 0 7.85 5.81 12.54 15.54 12.54h23.46c14.33 0 24.74-5.28 24.74-12.54 0-.4-.16-.78-.44-1.06ZM29.51 16.52c2.47 3.33 3.81 7.82 3.65 12.62-.14 4.34-1.49 8.33-3.65 11.13V16.52Zm20.85 7.63c4.83 5.21 7.48 11.76 7.4 18.17H31.72c2.66-3.3 4.26-7.94 4.43-13.08.19-5.59-1.43-10.86-4.42-14.76 7.02.9 13.66 4.31 18.62 9.66ZM29.5 6.5V3.75l3.3 1.38-3.3 1.38ZM12.84 42.32 26.5 21.36v20.96H12.84ZM39.13 60.6H15.67c-3.54 0-11.49-.82-12.45-8.04h57.39c-1.59 4.61-10.46 8.04-21.48 8.04Z" style="stroke-width:0"/>
</svg>
