<svg xmlns="http://www.w3.org/2000/svg" data-name="Layer 1" viewBox="0 0 64 64">
  <path d="M47.24 34.28a1.49 1.49 0 0 0-2.12 0l-2.65 2.65-1.45-1.45 2.65-2.65c.59-.59.59-1.54 0-2.12l-.61-.61 3.15-3.15a11.886 11.886 0 0 0 9.88-2.24l.44.44c.29.29.68.44 1.06.44s.77-.15 1.06-.44c.59-.59.59-1.54 0-2.12l-7.77-7.77 2-2c.59-.59.59-1.54 0-2.12a1.49 1.49 0 0 0-2.12 0l-2 2-6.35-6.35-1.42-1.42c-.59-.59-1.54-.59-2.12 0s-.59 1.54 0 2.12l.44.44a11.865 11.865 0 0 0-2.19 10.09l-3.07 3.07-.74-.74c-.56-.56-1.56-.56-2.12 0L28.54 23l-1.45-1.45 2.65-2.65c.59-.59.59-1.54 0-2.12L17 4.04c-.56-.56-1.56-.56-2.12 0L.48 18.39a1.49 1.49 0 0 0 0 2.12l4.16 4.16s.03.06.05.08.06.03.08.05l4.11 4.11s.03.06.05.08.06.03.08.05l4.19 4.19a1.499 1.499 0 0 0 2.12 0l2.65-2.65 1.45 1.45-2.65 2.65a1.49 1.49 0 0 0 0 2.12l1.04 1.04-1.18 1.18-.71-.71a1.49 1.49 0 0 0-2.12 0 1.49 1.49 0 0 0 0 2.12l.74.74c-2 2.31-1.93 5.8.26 7.99a5.847 5.847 0 0 0 4.16 1.72c1.43 0 2.78-.51 3.85-1.44l.73.73c.29.29.68.44 1.06.44s.77-.15 1.06-.44c.59-.59.59-1.54 0-2.12l-.71-.71 1.18-1.18 1.04 1.04a1.499 1.499 0 0 0 2.12 0l2.65-2.65L33.39 46l-2.65 2.65a1.499 1.499 0 0 0 0 2.12l4.16 4.16s.03.06.06.08.06.03.08.06l4.11 4.11s.03.06.06.08.06.03.08.06l4.19 4.19c.29.29.68.44 1.06.44s.77-.15 1.06-.44l14.38-14.38a1.499 1.499 0 0 0 0-2.12L47.24 34.27Zm-30.3 12.78a2.88 2.88 0 0 1-.27-3.75l4.03 4.03c-1.1.82-2.77.72-3.75-.27Zm1.83-5.9 1.17-1.17 4.07 4.07-1.17 1.17-4.07-4.07Zm19.39 12.78 5.07-5.07L45.36 51l-5.07 5.07-2.13-2.13Zm7.19-7.19 5.07-5.07 2.13 2.13-5.07 5.07-2.13-2.13Zm.83-9.3 2.11 2.11-5.07 5.07-2.11-2.11 5.07-5.07Zm.86-21.81 6.92 6.92a8.893 8.893 0 0 1-5.2 1.66c-2.4 0-4.65-.93-6.35-2.63a8.91 8.91 0 0 1-2.63-6.35c0-1.89.58-3.69 1.66-5.2l5.61 5.61Zm-8.75 5.41c.54.96 1.2 1.86 2 2.66.84.85 1.79 1.55 2.82 2.1l-2.17 2.17-4.78-4.79 2.13-2.13Zm-14.4-.59-2.12 2.12-.29.29-2.14-2.14 5.07-5.07 2.14 2.14-2.65 2.65ZM7.9 23.68l5.07-5.07 2.13 2.13-5.07 5.07-2.13-2.13Zm7.19-7.19 5.07-5.07 2.13 2.13-5.07 5.07-2.13-2.13Zm.83-9.3 2.11 2.11-5.07 5.07-2.11-2.11 5.07-5.07Zm-7.19 7.19 2.11 2.11-5.07 5.07-2.11-2.11 5.07-5.07Zm5.55 15.69-2.14-2.14 5.07-5.07L19.35 25l-5.07 5.07Zm5.83-1.59 4.83-4.83 1.45 1.45-4.83 4.83-1.45-1.45Zm8.12 15.54-8.26-8.26 12.25-12.25.74.74 6.9 6.9.61.61-12.25 12.25Zm5.83-1.59 4.83-4.83 1.45 1.45-1.76 1.76-3.08 3.08-1.45-1.45Zm2.51 4.63 1.19-1.19 1.22-1.22 2.11 2.11-5.07 5.07-2.11-2.11 2.65-2.65Zm7.97 13.27-2.14-2.14 5.07-5.07 2.14 2.14-5.07 5.07Zm7.19-7.19L49.59 51l5.07-5.07 2.14 2.14-5.07 5.07ZM50.05 7.66c-.83-.02-1.5-.66-1.51-1.49 0-.83.66-1.5 1.49-1.51 2.46-.01 4.85.94 6.6 2.7a9.154 9.154 0 0 1 2.7 6.6 1.496 1.496 0 1 1-2.99-.02c.01-1.69-.63-3.27-1.82-4.46a6.12 6.12 0 0 0-4.46-1.82Zm13.63 6.17a1.5 1.5 0 0 1-1.5 1.44h-.06a1.5 1.5 0 0 1-1.44-1.56c.12-2.91-.89-5.59-2.85-7.55s-4.65-2.97-7.55-2.85c-.86.04-1.53-.61-1.56-1.44A1.5 1.5 0 0 1 50.16.31c3.75-.16 7.24 1.17 9.79 3.73 2.56 2.56 3.88 6.04 3.73 9.8Z" style="stroke-width:0"/>
</svg>
