<svg xmlns="http://www.w3.org/2000/svg" data-name="Layer 1" viewBox="0 0 64 64">
  <path d="M63.23 32.28 53.6 10.75v-.03s-.05-.06-.06-.08l-.06-.12c0-.01-.02-.03-.03-.04-.02-.03-.05-.06-.08-.09s-.05-.06-.08-.09l-.03-.03c-.03-.03-.07-.06-.1-.09-.03-.02-.05-.05-.09-.07-.01 0-.03-.02-.04-.03-.04-.03-.09-.05-.13-.07-.03-.01-.05-.03-.07-.04h-.01c-.01 0-.03-.01-.04-.02-.05-.02-.1-.03-.15-.05-.03 0-.06-.02-.1-.03h-.03c-.05 0-.1-.01-.15-.02-.04 0-.08-.01-.12-.01H38.44c-.68-2.93-3.31-5.12-6.44-5.12s-5.76 2.19-6.44 5.12H11.77c-.04 0-.08 0-.13.01-.05 0-.1 0-.14.02h-.03c-.03 0-.06.02-.1.03-.05.01-.1.03-.15.05-.01 0-.03.01-.04.02h-.01c-.03.01-.05.03-.07.04-.05.02-.09.05-.14.07-.01 0-.03.02-.04.03a.5.5 0 0 0-.08.07c-.04.03-.07.06-.11.09l-.03.03c-.03.03-.05.06-.08.09s-.05.06-.08.1c0 .01-.02.03-.03.04l-.06.12c-.02.03-.04.05-.05.09v.03h-.01L.77 32.28c-.72.96-.95 2.17-.62 3.33 1.48 5.16 6.26 8.76 11.63 8.76s10.15-3.6 11.63-8.76c.33-1.15.11-2.36-.62-3.32l-8.7-19.45h11.47a6.633 6.633 0 0 0 4.94 4.94v38.51H6c-.83 0-1.5.67-1.5 1.5s.67 1.5 1.5 1.5h51.99c.83 0 1.5-.67 1.5-1.5s-.67-1.5-1.5-1.5H33.5V17.77a6.633 6.633 0 0 0 4.94-4.94h11.47l-8.7 19.45c-.72.96-.95 2.17-.62 3.32 1.48 5.16 6.26 8.76 11.63 8.76s10.15-3.6 11.63-8.76c.33-1.15.1-2.37-.62-3.33ZM11.78 15.01l7.05 15.76H4.73l7.05-15.76Zm8.74 19.77c-1.11 3.88-4.7 6.58-8.74 6.58s-7.63-2.71-8.74-6.58c-.09-.33.04-.57.13-.69s.29-.31.63-.31h15.97c.34 0 .54.2.63.31.09.12.22.36.13.69ZM32 14.95a3.62 3.62 0 1 1 0-7.24c2 0 3.62 1.62 3.62 3.62S34 14.95 32 14.95Zm27.27 15.82H45.18l7.05-15.76 7.05 15.76Zm1.7 4.01c-1.11 3.88-4.7 6.58-8.74 6.58s-7.63-2.71-8.74-6.58c-.09-.33.04-.57.13-.69s.29-.31.63-.31h15.97c.34 0 .54.2.63.31.09.12.22.36.13.69Z" style="stroke-width:0"/>
</svg>
