<svg xmlns="http://www.w3.org/2000/svg" data-name="Layer 1" viewBox="0 0 64 64">
  <path d="M62.45 60.98h-.67V30.34c.09.02.19.03.28.03.34 0 .68-.12.95-.34.35-.28.55-.71.55-1.16v-5.31c0-.71-.5-1.33-1.2-1.47l-15.04-3.03v-4.74c0-.6-.35-1.14-.9-1.38L33.5 7.33V4.94h1.81c.83 0 1.5-.67 1.5-1.5V1.58c0-.83-.67-1.5-1.5-1.5H32c-.83 0-1.5.67-1.5 1.5v5.75l-12.92 5.61c-.55.24-.9.78-.9 1.38v4.74L1.64 22.09c-.7.14-1.2.76-1.2 1.47v5.31c0 .45.2.88.55 1.16.34.28.8.39 1.23.31v30.64h-.67c-.83 0-1.5.67-1.5 1.5s.67 1.5 1.5 1.5h60.9c.83 0 1.5-.67 1.5-1.5s-.67-1.5-1.5-1.5Zm-31.95 0h-3.38v-7h3.38v7Zm3 0v-7h3.38v7H33.5Zm6.38-7h.54c.83 0 1.5-.67 1.5-1.5s-.67-1.5-1.5-1.5H23.58c-.83 0-1.5.67-1.5 1.5s.67 1.5 1.5 1.5h.54v7h-3.21v-39.2L32 16.96l11.09 4.82v39.2h-3.21v-7Zm6.21 2.18h10.2c.83 0 1.5-.67 1.5-1.5v-5.78c0-.83-.67-1.5-1.5-1.5h-10.2v-2.69h10.2c.83 0 1.5-.67 1.5-1.5v-5.78c0-.83-.67-1.5-1.5-1.5h-10.2v-8.73l12.69 2.56v31.24H46.09v-4.82Zm0-3v-2.78h8.7v2.78h-8.7Zm0-11.47v-2.78h8.7v2.78h-8.7Zm14.47-16.9v2.25l-14.47-2.92v-2.25l14.47 2.92ZM19.68 15.3 32 9.95l12.32 5.35v3.74L32.6 13.95c-.38-.17-.81-.17-1.2 0l-11.72 5.09V15.3ZM3.44 24.78l14.47-2.92v2.25L3.44 27.03v-2.25Zm1.78 4.96 12.69-2.56v8.73H7.7c-.83 0-1.5.67-1.5 1.5v5.78c0 .83.67 1.5 1.5 1.5h10.2v2.69H7.7c-.83 0-1.5.67-1.5 1.5v5.78c0 .83.67 1.5 1.5 1.5h10.2v4.82H5.22V29.74Zm12.68 9.17v2.78H9.2v-2.78h8.7Zm0 11.47v2.78H9.2v-2.78h8.7Zm14.09-29.67c-5.18 0-9.39 4.21-9.39 9.39s4.21 9.39 9.39 9.39 9.39-4.21 9.39-9.39-4.21-9.39-9.39-9.39Zm0 15.78c-3.52 0-6.39-2.87-6.39-6.39s2.87-6.39 6.39-6.39 6.39 2.87 6.39 6.39-2.87 6.39-6.39 6.39Zm4.33-6.39c0 .69-.56 1.25-1.25 1.25h-4.33v-5.18a1.25 1.25 0 0 1 2.5 0v2.68h1.83c.69 0 1.25.56 1.25 1.25Zm-.15 15.32c0 .83-.67 1.5-1.5 1.5h-5.35c-.83 0-1.5-.67-1.5-1.5s.67-1.5 1.5-1.5h5.35c.83 0 1.5.67 1.5 1.5Z" style="stroke-width:0"/>
</svg>
