<svg xmlns="http://www.w3.org/2000/svg" data-name="Layer 1" viewBox="0 0 64 64">
  <path d="M14.25 20.76c-2.47-1.4-5.59-.59-6.95 1.81-1.36 2.4-.45 5.49 2.02 6.9.81.46 1.85.69 2.92.69.82 0 1.66-.14 2.43-.42 1.29-.47 2.21-1.29 2.6-2.32 1-2.68-.76-5.38-3.01-6.66Zm.2 5.61c-.04.11-.26.35-.81.55-.93.34-2.18.31-2.85-.06-1.03-.59-1.43-1.84-.89-2.81.55-.96 1.83-1.27 2.86-.68 1.14.64 2.08 1.94 1.68 3Zm16.91-2.2c.28 0 .58-.04.89-.11 1.76-.41 2.93-2.26 3.47-3.33 1.03-2.02 1.83-5.31.7-7.94-1.45-3.39-5.54-6.29-8.66-7.3-2-.65-3.71-.6-4.94.14-1.4.84-1.82 2.29-1.08 3.78 5.85 11.86 7.28 14.76 9.62 14.76ZM26.85 8.34c2.83.92 5.89 3.44 6.82 5.63.57 1.34.32 3.56-.62 5.4-.62 1.22-1.26 1.71-1.47 1.76l.02.03c-.93-.45-3.8-6.26-7.12-13.01.48-.21 1.36-.14 2.38.19Zm35.04 45.53c-7.71-10.24-17.8-16.99-21.78-19.42-.88-4.49-.06-8.12.74-11.62.87-3.84 1.7-7.46.07-11.5C37.19 2.1 26.01-1.81 18.88.98c-1.08.42-2.57 1.52-3.23 3.23-.48 1.23-.4 2.54.21 3.76 1.55 3.11 4.04 8.15 6.54 13.22-.18-.14-.37-.3-.54-.43-2.93-2.37-4.36-3.52-4.85-3.83-2.65-1.63-5.4-2.14-7.94-1.48-2.47.64-4.59 2.34-5.99 4.8-1.94 3.42-1.65 7.46.76 10.53 2.61 3.33 6.89 4.64 11.18 3.44 2.04-.58 4.06-.39 5.67.52l11.71 6.64c.16.09.32.16.48.23 2.5 4.34 8.81 14.21 18.44 21.97a1.497 1.497 0 0 0 1.84.03c.55-.41.75-1.14.49-1.77-1.13-2.73-3.35-7.31-5.67-11.95 4.68 2.54 9.34 5 12.1 6.25.2.09.41.13.62.13a1.498 1.498 0 0 0 1.2-2.4ZM18.45 5.29c.29-.74 1.07-1.33 1.53-1.51 1.18-.46 2.51-.69 3.91-.69 5.41 0 11.83 3.36 14.25 9.36 1.28 3.16.58 6.2-.21 9.71-.84 3.69-1.79 7.87-.72 13.09.22 1.05-.17 2.36-1.32 2.71-.54.17-1.56.48-2.71-1.77-.83-1.64-3.9-7.84-7.14-14.41-2.8-5.68-5.74-11.63-7.49-15.13-.24-.47-.27-.9-.09-1.35Zm-1.12 25.6c-1.02 0-2.07.15-3.12.44-3.7 1.04-6.56-.56-8.01-2.4-1.67-2.13-1.86-4.82-.51-7.2.99-1.74 2.45-2.94 4.13-3.38 1.73-.45 3.68-.05 5.62 1.14.37.23 2.49 1.95 4.53 3.6 1.66 1.34 3.6 2.91 5.57 4.48 1.91 3.87 3.56 7.21 4.46 9.01l-7.84-4.44c-1.45-.82-3.11-1.24-4.84-1.24Zm19.16 10.88h.01c1.19-.4 2.16-1.24 2.77-2.33 2.17 4.18 5.79 11.23 8.55 16.91-5.28-5.36-9.13-11-11.33-14.58Zm9.1 3.38c-.96-1.89-1.89-3.69-2.69-5.25 3.37 2.39 7.73 5.84 11.89 10.22-2.91-1.53-6.16-3.3-9.2-4.97Z" style="stroke-width:0"/>
</svg>
