<svg xmlns="http://www.w3.org/2000/svg" data-name="Layer 1" viewBox="0 0 64 64">
  <path d="M58.92 43.56c.83 0 1.5-.67 1.5-1.5s-.67-1.5-1.5-1.5c-.35 0-.7.02-1.04.06l-7.65-29.09-1.18-4.48c-.04-.15-.11-.28-.18-.41-.01-.02-.03-.04-.04-.07-.08-.12-.18-.22-.29-.31-.02-.02-.04-.03-.06-.04-.12-.09-.25-.16-.38-.21-.14-.05-.29-.07-.44-.07h-8.62c-.83 0-1.5.67-1.5 1.5v4.48c0 .83.67 1.5 1.5 1.5h8.6l7.35 27.97c-.58.25-1.13.56-1.65.91H15.63a9.874 9.874 0 0 0-5.59-1.74c-5.46 0-9.9 4.44-9.9 9.9 0 .83.67 1.5 1.5 1.5s1.5-.67 1.5-1.5c0-3.8 3.1-6.9 6.9-6.9s6.9 3.1 6.9 6.9c0 .83.67 1.5 1.5 1.5h32.08c.83 0 1.5-.67 1.5-1.5 0-3.8 3.09-6.9 6.9-6.9ZM40.53 10.41V8.93h5.92l.39 1.48h-6.31ZM18.47 45.3h32.02a9.718 9.718 0 0 0-1.34 3.66H19.81c-.2-1.33-.67-2.56-1.34-3.66Zm40.45.09a5.08 5.08 0 1 0 .002 10.162 5.08 5.08 0 0 0-.002-10.162Zm0 7.15c-1.15 0-2.08-.93-2.08-2.08s.93-2.08 2.08-2.08 2.08.93 2.08 2.08-.93 2.08-2.08 2.08Zm-48.88-7.15a5.08 5.08 0 1 0 .002 10.162 5.08 5.08 0 0 0-.002-10.162Zm0 7.15c-1.15 0-2.08-.93-2.08-2.08s.93-2.08 2.08-2.08 2.08.93 2.08 2.08-.93 2.08-2.08 2.08Z" style="stroke-width:0"/>
</svg>
