<svg xmlns="http://www.w3.org/2000/svg" data-name="Layer 1" viewBox="0 0 64 64">
  <path d="m62.32 51.84-16.4-16.4c.52-.59.51-1.48-.05-2.04s-1.54-.59-2.12 0l-.1.1-2.12-1.51 4.41-4.36a13.96 13.96 0 0 0 13.87-3.43c3.68-3.65 5.07-9.75 3.38-14.85a1.5 1.5 0 0 0-1.08-.99c-.5-.12-1.04.03-1.41.39l-6.97 6.91-4.73-.19-.19-4.77 6.96-6.91c.35-.35.51-.86.42-1.35-.09-.49-.43-.9-.89-1.1C50.19-.84 44.25.36 40.17 4.41c-3.62 3.59-4.9 8.98-3.4 13.99l-6.24 6.17-13.54-13.53-4.94-6.76a1.9 1.9 0 0 0-.38-.37L6.26.34c-.6-.39-1.38-.31-1.89.19L.53 4.37c-.51.5-.59 1.29-.19 1.89l3.59 5.43c.1.15.22.28.37.38l6.76 4.95 13.5 13.5-12.95 12.81c-3.21-.36-6.31.66-8.46 2.78a10.24 10.24 0 0 0-3.04 7.27c-.01 2.75 1.05 5.34 2.99 7.29a10.24 10.24 0 0 0 7.27 3.04h.04c2.73 0 5.31-1.06 7.25-2.99 2.14-2.12 3.23-5.1 3.01-8.09l11.29-11.17 1.55 2.18-.1.1a1.49 1.49 0 0 0 0 2.12c.29.29.68.44 1.06.44.35 0 .7-.14.98-.39l16.4 16.4c1.02 1.03 2.39 1.59 3.84 1.59s2.81-.56 3.84-1.59l2.81-2.81c1.03-1.02 1.59-2.39 1.59-3.84s-.56-2.81-1.59-3.84ZM15.87 14.15l17.74 17.73-1.72 1.72-17.74-17.73 1.72-1.72Zm17.07 22.64 1.92-1.92 2.29-2.29 4.34 3.07-5.85 5.85-3.07-4.34.37-.37Zm6.62-16.9c.42-.42.56-1.04.35-1.59-1.55-4.15-.62-8.76 2.39-11.74 2.62-2.59 6.2-3.71 9.58-3.11l-5.64 5.6c-.3.3-.46.7-.44 1.12l.27 6.81c.03.78.66 1.41 1.44 1.44l6.76.27c.41.02.82-.14 1.12-.43l5.47-5.43c.31 3.4-.85 6.94-3.17 9.24a10.958 10.958 0 0 1-11.62 2.44c-.55-.21-1.17-.08-1.59.33l-5.44 5.38-1.18-.84c-.6-.42-1.41-.36-1.93.16l-.2.2-3.06-3.06 6.89-6.81ZM3.51 5.62l2.11-2.11 4.19 2.77 4.09 5.6-2.03 2.03-5.6-4.09L3.5 5.63Zm14.52 45.39c-.34.34-.5.82-.43 1.29.35 2.31-.42 4.66-2.06 6.29a7.24 7.24 0 0 1-5.14 2.12h-.03c-1.95 0-3.78-.77-5.15-2.16a7.292 7.292 0 0 1-2.12-5.17c0-1.95.78-3.78 2.16-5.15 1.29-1.28 3.12-1.98 5.08-1.98.5 0 1.01.04 1.52.14.49.09.98-.07 1.32-.41l13.49-13.35 3.09 3.09-.2.2a1.49 1.49 0 0 0-.16 1.93l.8 1.12L18.04 51Zm42.17 6.38-2.81 2.81c-.92.92-2.51.92-3.43 0L37.57 43.81l6.24-6.24L60.2 53.96c.46.46.71 1.07.71 1.72s-.25 1.26-.71 1.72Zm-49.74-8.27h-.02c-1.16 0-2.24.45-3.06 1.26a4.33 4.33 0 0 0-1.29 3.07c0 1.16.44 2.26 1.26 3.08a4.33 4.33 0 0 0 3.07 1.29h.02c1.16 0 2.24-.45 3.06-1.26a4.355 4.355 0 0 0-3.05-7.44Zm.93 5.31c-.25.25-.59.39-.95.39a1.347 1.347 0 0 1-1.35-1.36c0-.36.14-.7.4-.95.25-.25.59-.39.95-.39s.7.14.96.4c.52.53.52 1.39 0 1.91Z" style="stroke-width:0"/>
</svg>
