<svg xmlns="http://www.w3.org/2000/svg" data-name="Layer 1" viewBox="0 0 64 64">
  <path d="M62.72 25.81c-.3-1.5-1.33-2.67-2.75-3.16.7-1.54.62-3.35-.26-4.87a25.75 25.75 0 0 0-2.92-4.08c-2.06-2.36-4.67-4.32-7.78-5.82a5.275 5.275 0 0 0-4.51-.05c-.1.04-.2.09-.29.14-.08-.16-.16-.31-.26-.46a5.278 5.278 0 0 0-3.46-2.39c-3.5-.68-6.53-.82-8.49-.81-1.94-.01-5 .13-8.5.81a5.278 5.278 0 0 0-3.46 2.39c-.09.15-.18.3-.26.46-.09-.05-.19-.1-.29-.14a5.276 5.276 0 0 0-4.51.05c-3.1 1.5-5.72 3.46-7.78 5.82-1.1 1.27-2.09 2.64-2.92 4.08-.88 1.53-.96 3.33-.26 4.87a4.162 4.162 0 0 0-2.75 3.16c-1.61 8.08.7 15.65 3.76 18.02 2.49 1.93 5.74 3.18 9.18 4.51l1.16.45c1.39.54 2.6 1.2 3.66 1.93l-1.94 2.74c-.94 1.32-1.06 3.04-.31 4.49s2.22 2.34 3.84 2.34h6.94c1.14 1.24 2.39 2.1 4.06 2.18.12.02.26.03.4.03.12 0 .25 0 .38-.03 1.65-.09 2.89-.94 4.02-2.18h6.94c1.62 0 3.1-.9 3.84-2.34s.62-3.16-.31-4.49l-1.94-2.74c1.06-.73 2.27-1.39 3.67-1.93l1.17-.45c3.44-1.33 6.68-2.58 9.17-4.51 3.06-2.37 5.37-9.94 3.76-18.02ZM19.46 56.57c-.11-.21-.32-.78.1-1.37l1.83-2.58c1.6 1.53 2.81 3.18 3.87 4.67h-4.62c-.73 0-1.06-.5-1.18-.72Zm24.99-1.37c.42.59.21 1.16.1 1.37-.11.22-.45.72-1.18.72h-4.62c1.06-1.49 2.27-3.14 3.87-4.67l1.83 2.58Zm12.67-13.74c-2.14 1.66-5.05 2.78-8.42 4.08l-1.17.46c-6.09 2.37-9.13 6.63-11.36 9.73-1.69 2.36-2.7 3.7-3.97 3.74h-.41c-1.26-.04-2.28-1.38-3.97-3.74-2.22-3.1-5.26-7.36-11.35-9.73l-1.17-.45c-3.37-1.3-6.28-2.43-8.42-4.08-2.05-1.58-4.05-8.08-2.66-15.06.14-.71.73-.9.91-.94.23-.05.8-.12 1.23.43l14.65 18.78c.51.65 1.45.77 2.11.26.65-.51.77-1.45.26-2.1L7.05 21.88c-.58-.74-.64-1.77-.16-2.6.74-1.27 1.61-2.49 2.58-3.61 1.79-2.05 4.08-3.77 6.82-5.09.62-.3 1.33-.31 1.96-.02.62.28 1.09.83 1.27 1.49L26 35.85c.22.8 1.04 1.27 1.84 1.05.8-.22 1.27-1.04 1.05-1.84l-6.57-24.14c-.17-.63-.07-1.27.27-1.83.34-.54.87-.91 1.49-1.03 3.43-.67 6.41-.76 7.93-.75 1.47 0 4.48.08 7.91.75.62.12 1.15.49 1.49 1.03.34.55.44 1.2.27 1.82l-.08.3s0 .03-.01.04l-6.48 23.8c-.22.8.25 1.62 1.05 1.84.8.22 1.62-.25 1.84-1.05l6.48-23.83c.19-.65.64-1.18 1.26-1.46.63-.29 1.34-.28 1.96.02 2.74 1.32 5.03 3.04 6.82 5.09.98 1.12 1.85 2.34 2.58 3.61.48.84.42 1.86-.16 2.6L40.62 42.8c-.51.65-.39 1.6.26 2.1.65.51 1.6.39 2.11-.26l14.64-18.78c.43-.55 1-.48 1.23-.43.18.04.77.23.91.94 1.39 6.98-.61 13.48-2.66 15.06Z" style="stroke-width:0"/>
</svg>
