<svg xmlns="http://www.w3.org/2000/svg" data-name="Layer 1" viewBox="0 0 64 64">
  <path d="M62.64 60.82c-7.36-2.58-17.91-4.1-29.14-4.23V33.03c8.23-1.26 15.51-5.84 20.14-12.72 4.1-6.09 5.57-13.2 3.92-19.01-.18-.65-.77-1.09-1.44-1.09-8.86 0-22.35 6.18-25.11 22.28C26.19 11.39 15.38 6.97 7.88 6.97c-.67 0-1.26.44-1.44 1.09-1.65 5.81-.19 12.92 3.92 19.01 4.63 6.87 11.92 11.45 20.14 12.71v16.81c-11.23.12-21.78 1.65-29.14 4.23-.78.27-1.19 1.13-.92 1.91s1.13 1.19 1.91.92c7.38-2.59 18.19-4.07 29.65-4.07s22.27 1.48 29.65 4.07c.16.06.33.08.5.08.62 0 1.2-.39 1.42-1 .27-.78-.14-1.64-.92-1.91Zm-7.7-57.57c.94 4.76-.44 10.42-3.79 15.39-3.66 5.43-9.16 9.25-15.46 10.88l9.53-11.86c.52-.65.42-1.59-.23-2.11-.65-.52-1.59-.42-2.11.23l-9.36 11.65C34.05 12.27 44.6 3.85 54.94 3.26ZM18.65 24.26l9.65 12.01c-6.3-1.62-11.8-5.45-15.46-10.88C9.49 20.42 8.11 14.76 9.05 10c10.34.59 20.89 9.02 21.42 24.17l-9.48-11.8c-.52-.64-1.46-.75-2.11-.23-.65.52-.75 1.46-.23 2.11Z" style="stroke-width:0"/>
</svg>
