<svg xmlns="http://www.w3.org/2000/svg" data-name="Layer 1" viewBox="0 0 64 64">
  <path d="M62.37 55.71c-1.49 0-2.9-.61-3.99-1.73-.56-.58-1.59-.58-2.15 0-1.08 1.12-2.5 1.73-3.99 1.73s-2.9-.61-3.99-1.73c-.57-.58-1.59-.58-2.15 0-.12.13-.25.24-.38.36l7.04-16.53c.18-.42.16-.9-.06-1.31s-.61-.68-1.06-.76l-5.29-.91V25.7h1.24c.83 0 1.5-.67 1.5-1.5s-.67-1.5-1.5-1.5h-8.01v-3.49c0-.83-.67-1.5-1.5-1.5H33.5v-2.63h3.98c.83 0 1.5-.67 1.5-1.5s-.67-1.5-1.5-1.5H33.5v-1.33h1.79c.83 0 1.5-.67 1.5-1.5s-.67-1.5-1.5-1.5H33.5V6.73c0-.83-.67-1.5-1.5-1.5s-1.5.67-1.5 1.5v1.02h-1.79c-.83 0-1.5.67-1.5 1.5s.67 1.5 1.5 1.5h1.79v1.33h-3.98c-.83 0-1.5.67-1.5 1.5s.67 1.5 1.5 1.5h3.98v2.63h-4.58c-.83 0-1.5.67-1.5 1.5v3.49h-8.01c-.83 0-1.5.67-1.5 1.5s.67 1.5 1.5 1.5h1.24v9.13l-5.29.91c-.45.08-.84.36-1.06.76s-.24.88-.06 1.31l7.04 16.53c-.13-.11-.26-.23-.38-.35-.28-.29-.67-.46-1.08-.46s-.79.16-1.08.46c-1.08 1.12-2.5 1.73-3.99 1.73s-2.9-.61-3.99-1.73c-.56-.58-1.59-.58-2.15 0-1.08 1.12-2.5 1.73-3.99 1.73-.83 0-1.5.67-1.5 1.5s.67 1.5 1.5 1.5c1.71 0 3.34-.54 4.75-1.5h.62c1.41.96 3.04 1.5 4.75 1.5s3.34-.54 4.75-1.5h.62c1.41.96 3.04 1.5 4.75 1.5s3.34-.54 4.75-1.5h.62c1.41.96 3.04 1.5 4.75 1.5s3.34-.54 4.75-1.5h.62c1.41.96 3.04 1.5 4.75 1.5s3.35-.54 4.75-1.5h.62c1.41.96 3.04 1.5 4.75 1.5s3.34-.54 4.75-1.5h.62c1.41.96 3.04 1.5 4.75 1.5.83 0 1.5-.67 1.5-1.5s-.67-1.5-1.5-1.5ZM32.16 32.4c-.06 0-.11-.01-.17-.01s-.11 0-.17.01h-.09l-5.67.97v-2.51h11.85v2.51l-5.67-.97h-.09Zm9.72 23.3c-1.4-.06-2.73-.66-3.75-1.72-.57-.58-1.59-.58-2.15 0-.71.73-1.56 1.24-2.49 1.51V41.66l13.38 2.3-5 11.73Zm7.38-17.32-1.17 2.75-14.59-2.51v-2.96l15.76 2.71ZM27.41 20.72h9.17v1.99h-9.17v-1.99Zm-6.77 4.99h22.71v8.61l-2.43-.42v-4.53c0-.83-.67-1.5-1.5-1.5H24.57c-.83 0-1.5.67-1.5 1.5v4.53l-2.43.42v-8.61Zm-5.91 12.67 15.77-2.71v2.96l-14.59 2.51-1.17-2.75Zm15.77 3.29V55.5c-.92-.27-1.78-.78-2.49-1.51-.28-.29-.67-.46-1.08-.46-.41 0-.79.16-1.08.46-1.03 1.06-2.35 1.66-3.75 1.72l-5-11.73 13.38-2.3Z" style="stroke-width:0"/>
</svg>
