<svg xmlns="http://www.w3.org/2000/svg" data-name="Layer 1" viewBox="0 0 64 64">
  <path d="M24.04 48.02c-1.46 0-2.98-.55-4.28-1.59-1.82-1.45-3-3.57-3.32-5.97-.01-.08-.05-.36-.11-.73-.09-.6-.22-1.43-.32-2.11-.19-1.34-.36-2.51.9-2.87L25.12 32l.1-.03c1.21-.31 1.34-.07 3.46 3.89l.21.4c1.2 2.19 1.53 4.64.92 6.89-.6 2.23-2.1 3.94-4.02 4.58-.57.19-1.16.28-1.77.28Zm-5.05-10.8c.1.72.24 1.61.31 2.06.06.4.11.7.12.79.22 1.65.99 3.04 2.22 4.02 1.04.83 2.25 1.13 3.22.8.96-.32 1.73-1.26 2.07-2.52.41-1.53.19-3.14-.65-4.67l-.23-.43c-.47-.87-.84-1.56-1.11-2.05l-5.95 1.99Zm-1.64-1.03Zm-2.32-4.7c-1.01 0-1.76-1.06-2.75-2.45l-.06-.08c-1.15-1.57-2.1-3.34-2.81-5.26-1.31-3.53-1.88-7.51-1.73-12.16.05-1.69.2-3.69.88-5.62C9.91 2.08 13.62-1.06 18.1.36c1.35.43 2.68 1.23 3.95 2.38 3.83 3.47 5.69 9 4.74 14.08-.25 1.33-.62 2.68-.98 3.98-.6 2.19-1.23 4.46-1.28 6.64-.01.64-.43 1.2-1.04 1.39l-7.95 2.56c-.18.06-.35.08-.51.08Zm.95-28.46c-2.13 0-3.86 1.79-4.59 3.88-.54 1.55-.67 3.26-.71 4.72-.13 4.26.37 7.86 1.55 11.02.62 1.66 1.43 3.18 2.42 4.53l.08.12c.32.45.55.76.72.98 1.48-.48 4.56-1.47 6.14-1.98.19-2.17.76-4.26 1.32-6.29.36-1.3.7-2.54.92-3.74.76-4.08-.73-8.52-3.81-11.31-.94-.86-1.9-1.44-2.84-1.74a4.06 4.06 0 0 0-1.21-.19Zm7.05 24.39Zm16.92 36.56c-.6 0-1.2-.09-1.77-.28-1.91-.64-3.42-2.35-4.02-4.58-.61-2.26-.28-4.71.92-6.89l.21-.4c.26-.48.68-1.28 1.05-1.95.79-1.45 1.23-2.24 2.41-1.94.03 0 .06.02.09.03.05.02 7.6 2.55 8.22 2.75 1.26.36 1.1 1.48.9 2.88-.1.69-.23 1.53-.32 2.12-.06.36-.1.63-.11.71-.32 2.4-1.5 4.52-3.32 5.97-1.3 1.04-2.82 1.59-4.28 1.59Zm-.9-12.79c-.27.49-.64 1.18-1.11 2.05l-.23.43c-.84 1.53-1.07 3.14-.65 4.67.34 1.26 1.11 2.2 2.07 2.52.98.33 2.18.03 3.22-.8 1.23-.98 2-2.37 2.22-4.02.01-.08.05-.37.11-.76.07-.46.21-1.36.31-2.09-1.58-.53-4.38-1.47-5.95-1.99Zm9.91-3.75c-.16 0-.33-.03-.51-.08l-7.96-2.56a1.5 1.5 0 0 1-1.04-1.39c-.05-2.18-.67-4.45-1.28-6.64-.36-1.31-.73-2.66-.98-3.98-.95-5.08.91-10.61 4.74-14.08 1.26-1.15 2.59-1.95 3.95-2.38 4.48-1.42 8.2 1.72 9.54 5.55.68 1.93.83 3.93.88 5.62.15 4.66-.42 8.63-1.73 12.16a21.72 21.72 0 0 1-2.81 5.26c-1.04 1.46-1.79 2.53-2.81 2.53Zm-6.56-5.18c3.53 1.13 5.27 1.7 6.14 1.98.17-.21.4-.53.72-.98l.08-.12c.99-1.35 1.8-2.87 2.42-4.53 1.17-3.16 1.68-6.76 1.55-11.02-.05-1.47-.17-3.17-.71-4.72-.87-2.47-3.15-4.53-5.81-3.69-.94.3-1.9.88-2.84 1.74-3.08 2.79-4.57 7.23-3.81 11.31.22 1.2.56 2.43.92 3.74.56 2.03 1.14 4.12 1.32 6.29Z" style="stroke-width:0"/>
</svg>
