<svg xmlns="http://www.w3.org/2000/svg" data-name="Layer 1" viewBox="0 0 64 64">
  <path d="M26.96 35.52c.6.57.63 1.52.06 2.13-3.21 3.41-7.29 7.12-13.18 8.8-3.04.87-6.83 1.29-11.57 1.29h-.79a1.5 1.5 0 0 1-1.49-1.52c0-.83.68-1.49 1.5-1.49h.01c4.82.06 8.59-.34 11.51-1.17 5.19-1.48 8.88-4.86 11.81-7.97.57-.6 1.52-.63 2.13-.06Zm29.15 2.21c-.59-.59-1.54-.59-2.13 0s-.59 1.54 0 2.13l4.87 4.87h-.33c-4.8.06-8.58-.34-11.51-1.17-6.73-1.92-11.16-7.08-15.86-12.54-4.99-5.81-9.71-11.3-17.31-13.47-3.21-.92-7.25-1.34-12.36-1.29-.82.01-1.48.69-1.48 1.52 0 .83.7 1.5 1.52 1.49 4.82-.04 8.58.34 11.51 1.17 6.73 1.92 11.16 7.08 15.86 12.54 4.99 5.81 9.71 11.3 17.31 13.47 3.21.92 7.22 1.35 12.35 1.29h.33L54 52.62a1.503 1.503 0 0 0 2.12 2.13l7.44-7.44a1.499 1.499 0 0 0 0-2.12l-7.44-7.44Zm-21.85-9c.4 0 .79-.16 1.09-.47 2.89-3.04 6.53-6.35 11.67-7.82 2.93-.84 6.72-1.24 11.52-1.17h.32l-4.87 4.87a1.503 1.503 0 0 0 2.12 2.13l7.44-7.44a1.499 1.499 0 0 0 0-2.12l-7.44-7.44c-.59-.59-1.54-.59-2.13 0s-.59 1.54 0 2.13l4.88 4.88h-.31c-5.13-.07-9.15.37-12.36 1.29-5.84 1.67-9.86 5.3-13.02 8.64-.57.6-.55 1.55.06 2.13.29.28.66.41 1.03.41Z" style="stroke-width:0"/>
</svg>
