<svg xmlns="http://www.w3.org/2000/svg" data-name="Layer 1" viewBox="0 0 64 64">
  <path d="m46.81 12.86 3.67-4.94a1.5 1.5 0 0 1 2.1-.31c.67.49.8 1.43.31 2.1l-3.67 4.94a1.492 1.492 0 0 1-2.1.31 1.5 1.5 0 0 1-.31-2.1ZM32 9.99c.83 0 1.5-.67 1.5-1.5V1.51c0-.83-.67-1.5-1.5-1.5s-1.5.67-1.5 1.5v6.98c0 .83.67 1.5 1.5 1.5Zm-17.22 4.66a1.492 1.492 0 0 0 2.1.31c.67-.49.8-1.43.31-2.1l-3.67-4.94a1.5 1.5 0 0 0-2.1-.31 1.5 1.5 0 0 0-.31 2.1l3.67 4.94Zm45.69 41.7v2.78c0 2.68-2.18 4.86-4.86 4.86H8.4c-2.68 0-4.86-2.18-4.86-4.86v-2.78c0-2.68 2.18-4.86 4.86-4.86h1.61l4.22-27.84c.33-2.2 2.68-3.93 5.34-3.93h24.87c2.66 0 5.01 1.73 5.34 3.93L54 51.49h1.61c2.68 0 4.86 2.18 4.86 4.86Zm-47.43-4.86h12.55V40.06c0-3.53 2.88-6.41 6.41-6.41s6.41 2.88 6.41 6.41v11.43h12.55L46.81 24.1c-.1-.65-1.14-1.38-2.38-1.38H19.56c-1.24 0-2.28.73-2.38 1.38l-4.15 27.39Zm22.37 0V40.06c0-1.88-1.53-3.41-3.41-3.41s-3.41 1.53-3.41 3.41v11.43h6.82Zm22.06 4.86c0-1.03-.84-1.86-1.86-1.86H8.4c-1.03 0-1.86.84-1.86 1.86v2.78c0 1.03.84 1.86 1.86 1.86h47.21c1.03 0 1.86-.84 1.86-1.86v-2.78Z" style="stroke-width:0"/>
</svg>
