<svg xmlns="http://www.w3.org/2000/svg" data-name="Layer 1" viewBox="0 0 64 64">
  <path d="M31.09 48.05c-.41 0-.82-.09-1.21-.29-1.16-.57-1.92-1.91-1.92-3.4v-5.1H4.28C1.92 39.26 0 37.35 0 34.99v-5.98c0-2.36 1.92-4.27 4.28-4.27h23.69v-5.1c0-1.5.75-2.84 1.92-3.4.97-.47 2.07-.35 2.94.33l15.91 12.36c.96.74 1.51 1.86 1.51 3.08s-.55 2.33-1.51 3.08L32.83 47.45c-.52.41-1.12.61-1.73.61ZM4.28 27.74c-.7 0-1.27.57-1.27 1.27v5.98c0 .7.57 1.27 1.27 1.27h26.69v8.1c0 .3.08.49.15.61L46.9 32.71c.3-.23.35-.54.35-.71s-.04-.47-.35-.71L31.12 19.03c-.07.11-.15.31-.15.61v8.1H4.28Zm53.86 26.42a6 6 0 0 1-5.99-5.99V15.83c0-3.3 2.69-5.99 5.99-5.99s5.99 2.69 5.99 5.99v32.33a6 6 0 0 1-5.99 5.99Zm0-41.32c-1.65 0-2.99 1.34-2.99 2.99v32.33c0 1.65 1.34 2.99 2.99 2.99s2.99-1.34 2.99-2.99V15.83c0-1.65-1.34-2.99-2.99-2.99Z" style="stroke-width:0"/>
</svg>
