<svg xmlns="http://www.w3.org/2000/svg" data-name="Layer 1" viewBox="0 0 64 64">
  <path d="M44.31 48.87H32.05c-.83 0-1.5.67-1.5 1.5v2.82c0 .41.08.81.19 1.18-2.33-.22-4.49-1.24-6.17-2.91l-10.9-10.9a10.045 10.045 0 0 1-2.96-7.15V18.47a3.142 3.142 0 0 0 2.09-2.96V4.13A3.15 3.15 0 0 0 9.65.98H3.16A3.152 3.152 0 0 0 0 4.13v11.39c0 1.37.88 2.52 2.09 2.96v15.56c0 4.6 1.79 8.92 5.04 12.17l11.78 11.78c3.25 3.25 7.57 5.04 12.17 5.04h10.41c2.37 0 4.3-1.93 4.3-4.3 0-1.06-.4-2.03-1.05-2.78.64-.74 1.05-1.7 1.05-2.75v-2.82c0-.83-.67-1.5-1.5-1.5Zm-10.76 3h9.26v1.32c0 .68-.55 1.23-1.23 1.23h-6.8c-.68 0-1.23-.55-1.23-1.23v-1.32ZM3.01 4.13c0-.08.07-.15.15-.15h6.49c.08 0 .15.07.15.15v11.39c0 .08-.07.15-.15.15H3.16c-.08 0-.15-.07-.15-.15V4.13Zm38.5 55.9H31.1c-3.8 0-7.37-1.48-10.05-4.16L9.27 44.09c-2.69-2.68-4.16-6.25-4.16-10.05V18.67h2.6v14.75c0 3.5 1.36 6.79 3.84 9.27l10.9 10.9a13.06 13.06 0 0 0 9.27 3.84h9.79c.72 0 1.3.58 1.3 1.3s-.58 1.3-1.3 1.3Zm18.95-36.45h-1.18c-.46-.95-1.09-1.9-1.97-2.79-.6-.6-1.28-1.15-2.04-1.65-1.96-4.36-8.75-7.49-17.09-7.49s-15.12 3.13-17.09 7.49c-.76.5-1.44 1.05-2.04 1.65-.88.89-1.51 1.83-1.97 2.79H15.9a3.53 3.53 0 0 0-3.53 3.53v4.72a3.53 3.53 0 0 0 3.53 3.53h.86c1.4 3.46 4.34 6.44 7.77 6.44.24 1.06.74 2.01 1.49 2.71.79.74 1.78 1.14 2.79 1.14h.25l6.98-.44c.69.29 1.42.45 2.15.45s1.46-.16 2.15-.45l6.98.44c1.1.07 2.18-.33 3.04-1.14.75-.7 1.25-1.65 1.49-2.71 3.43 0 6.37-2.99 7.77-6.45h.86c1.95 0 3.53-1.59 3.53-3.53V27.1a3.53 3.53 0 0 0-3.53-3.53Zm-22.28-8.93c3.07 0 6.29.57 8.93 1.57-2.57-.45-5.51-.67-8.86-.67h-.14c-3.35 0-6.29.22-8.86.67 2.64-1 5.86-1.57 8.93-1.57ZM15.9 32.36c-.29 0-.53-.24-.53-.53v-4.72c0-.29.24-.53.53-.53h.22c-.27 1.51-.25 2.91-.24 3.99v.63c0 .39.04.78.09 1.17h-.07Zm12.97 10.3c-.34.02-.62-.17-.8-.33-.22-.21-.39-.48-.51-.79 1.02-.19 1.88-.49 2.62-.86l2.12 1.77-3.43.22Zm10.98-.6a2.6 2.6 0 0 1-3.34 0L32.6 38.8c1.13-1.3 1.78-2.86 2.4-4.34.45-1.07.91-2.17 1.54-3.16.36-.57.96-.9 1.64-.9s1.27.33 1.64.9c.63.99 1.09 2.09 1.54 3.15.62 1.48 1.28 3.04 2.4 4.34l-3.91 3.26Zm7.64.6-3.43-.22 2.12-1.77c.74.37 1.61.67 2.62.86-.12.31-.3.59-.51.79-.17.16-.46.35-.8.33Zm9.99-12.13v.67c0 3.33-2.74 7.62-5.65 7.62-5.4 0-6.32-2.19-7.71-5.51-.5-1.18-1.01-2.41-1.77-3.61-.91-1.43-2.47-2.29-4.17-2.29s-3.26.86-4.17 2.29c-.76 1.2-1.28 2.42-1.77 3.61-1.39 3.32-2.31 5.51-7.71 5.51-2.91 0-5.65-4.29-5.65-7.62v-.67c-.03-2.2-.07-5.22 2.3-7.63 2.85-2.89 8.54-4.35 16.92-4.35h.14c8.38 0 14.07 1.46 16.92 4.35 2.38 2.41 2.34 5.43 2.31 7.63Zm3.51 1.31c0 .29-.24.53-.53.53h-.07c.05-.39.08-.79.08-1.17v-.63c.02-1.08.04-2.48-.23-3.99h.22c.29 0 .53.24.53.53v4.72Z" style="stroke-width:0"/>
</svg>
