<svg xmlns="http://www.w3.org/2000/svg" data-name="Layer 1" viewBox="0 0 64 64">
  <path d="m59.1 45.78-7.48-4.25 7.11-4.56c.7-.45.9-1.38.45-2.07-.45-.7-1.38-.9-2.07-.45l-8.43 5.41-13.64-7.76L49 24.17l8.48 5.39a1.507 1.507 0 0 0 2.07-.47c.44-.7.24-1.63-.46-2.07l-7.14-4.54 7.16-4.07c.72-.41.97-1.33.56-2.05-.41-.72-1.33-.97-2.04-.56l-7.16 4.07-.25-8.45c-.02-.81-.69-1.46-1.5-1.46h-.04c-.83.02-1.48.72-1.46 1.54l.3 10.04-14.01 7.97V13.3l8.88-4.7c.73-.39 1.01-1.3.62-2.03-.39-.73-1.3-1.01-2.03-.62l-7.47 3.96V1.68c0-.83-.67-1.5-1.5-1.5s-1.5.67-1.5 1.5v8.23l-7.47-3.96c-.73-.39-1.64-.11-2.03.62-.39.73-.11 1.64.62 2.03l8.88 4.71v16.22L16.5 21.56l.3-10.04c.02-.83-.63-1.52-1.46-1.54-.78-.03-1.52.63-1.54 1.46l-.25 8.45-7.16-4.07a1.49 1.49 0 0 0-2.04.56c-.41.72-.16 1.64.56 2.05l7.16 4.07-7.14 4.54c-.7.44-.91 1.37-.46 2.07.29.45.77.7 1.27.7.28 0 .55-.08.8-.23l8.48-5.39 13.96 7.93-13.64 7.76-8.43-5.41c-.7-.45-1.62-.25-2.07.45a1.5 1.5 0 0 0 .45 2.07l7.11 4.56-7.48 4.25c-.72.41-.97 1.33-.56 2.04.28.49.78.76 1.3.76.25 0 .51-.06.74-.2l7.48-4.25.28 8.44c.03.81.69 1.45 1.5 1.45h.05c.83-.03 1.48-.72 1.45-1.55l-.33-10.02 13.69-7.78v15.65L21.65 55c-.73.39-1.02 1.29-.63 2.03a1.51 1.51 0 0 0 2.03.63l7.48-3.93v8.6c0 .83.67 1.5 1.5 1.5s1.5-.67 1.5-1.5v-8.6l7.48 3.93c.22.12.46.17.7.17.54 0 1.06-.29 1.33-.8.38-.73.1-1.64-.63-2.03l-8.87-4.66V34.69l13.69 7.79-.33 10.02c-.03.83.62 1.52 1.45 1.55h.05c.81 0 1.47-.64 1.5-1.45l.28-8.44 7.48 4.25a1.479 1.479 0 0 0 2.04-.56c.41-.72.16-1.64-.56-2.04Z" style="stroke-width:0"/>
</svg>
