<svg xmlns="http://www.w3.org/2000/svg" data-name="Layer 1" viewBox="0 0 64 64">
  <path d="M32 64c-1.41 0-2.64-.86-3.14-2.18l-6.94-18.75a1.67 1.67 0 0 0-.99-.99L2.18 35.14C.85 34.65 0 33.42 0 32s.86-2.64 2.18-3.13l18.75-6.94c.46-.17.82-.53.99-.99l6.94-18.76C29.36.86 30.59 0 32 0s2.64.86 3.13 2.18l6.94 18.75c.17.46.53.82.99.99l18.75 6.94c1.33.49 2.18 1.72 2.18 3.14s-.86 2.64-2.18 3.13l-18.75 6.94c-.46.17-.82.53-.99.99l-6.94 18.75a3.306 3.306 0 0 1-3.14 2.18Zm0-61c-.24 0-.3.17-.32.22l-6.94 18.75a4.707 4.707 0 0 1-2.77 2.77L3.22 31.68c-.05.02-.22.08-.22.32s.17.3.22.32l18.75 6.94c1.29.47 2.29 1.48 2.77 2.77l6.94 18.75c.02.05.08.22.32.22s.3-.17.32-.22l6.94-18.75a4.654 4.654 0 0 1 2.77-2.77l18.75-6.94c.05-.02.22-.08.22-.32s-.17-.3-.22-.32l-18.75-6.94a4.68 4.68 0 0 1-2.77-2.77L32.32 3.22C32.3 3.17 32.24 3 32 3Z" style="stroke-width:0"/>
</svg>
