<svg xmlns="http://www.w3.org/2000/svg" data-name="Layer 1" viewBox="0 0 64 64">
  <path d="M51.16 63.2c-1.3 0-2.43-.79-2.88-2l-1.91-5.15c-.15-.42-.48-.74-.9-.9l-5.15-1.91c-1.22-.45-2-1.58-2-2.87 0-1.3.79-2.43 2-2.88l5.15-1.91c.42-.15.74-.48.9-.9l1.91-5.15c.45-1.22 1.58-2 2.88-2 1.3 0 2.42.79 2.87 2l1.91 5.15c.15.42.48.74.9.9l5.15 1.91c1.22.45 2 1.58 2 2.88 0 1.3-.79 2.42-2 2.87l-5.15 1.91c-.42.15-.74.48-.9.9l-1.91 5.15c-.45 1.22-1.58 2-2.87 2Zm.05-22.62-2 5.15a4.548 4.548 0 0 1-2.68 2.68l-5.15 1.91 5.15 2c1.24.46 2.22 1.44 2.68 2.68l1.91 5.15 2-5.15a4.548 4.548 0 0 1 2.68-2.68l5.15-1.91-5.15-2a4.548 4.548 0 0 1-2.68-2.68l-1.91-5.15ZM21.58 53.59c-1.5 0-2.8-.91-3.32-2.31l-3.99-10.79c-.2-.55-.63-.98-1.18-1.18L2.3 35.32C.9 34.8-.01 33.5-.01 32s.91-2.8 2.31-3.32l10.79-3.99c.55-.2.98-.63 1.18-1.18l3.99-10.79c.52-1.4 1.82-2.31 3.32-2.31s2.8.91 3.32 2.31l3.99 10.78c.2.55.64.98 1.18 1.18l10.78 3.99c1.4.52 2.31 1.82 2.31 3.32s-.91 2.8-2.31 3.32L30.07 39.3c-.55.2-.98.63-1.18 1.18L24.9 51.26a3.511 3.511 0 0 1-3.32 2.31Zm0-40.15c-.14 0-.38.04-.49.34L17.1 24.56a5.02 5.02 0 0 1-2.96 2.97L3.35 31.52c-.3.11-.34.35-.34.49s.04.38.34.49l10.79 3.99c1.37.51 2.46 1.59 2.96 2.96l3.99 10.79c.11.3.35.34.49.34s.38-.04.49-.34l3.99-10.79a4.968 4.968 0 0 1 2.97-2.96l10.78-3.99c.3-.11.34-.35.34-.49s-.04-.38-.34-.49l-10.78-3.99a5.004 5.004 0 0 1-2.96-2.96l-3.99-10.78a.487.487 0 0 0-.49-.34Zm29.58 13.04c-1.3 0-2.42-.79-2.88-2l-1.91-5.15c-.15-.42-.48-.74-.9-.9l-5.15-1.91c-1.22-.45-2-1.58-2-2.88s.79-2.43 2-2.88l5.15-1.91c.42-.15.74-.48.9-.9l1.91-5.15c.45-1.22 1.58-2 2.88-2 1.3 0 2.42.79 2.87 2l1.91 5.15c.15.42.48.74.9.9l5.15 1.91c1.22.45 2 1.58 2 2.88s-.79 2.42-2 2.87l-5.15 1.91c-.42.15-.74.48-.9.9l-1.91 5.15c-.45 1.21-1.58 2-2.87 2Zm.05-22.62-2 5.15a4.548 4.548 0 0 1-2.68 2.68l-5.15 1.91 5.15 2c1.24.46 2.22 1.44 2.68 2.68l1.91 5.15 2-5.15a4.548 4.548 0 0 1 2.68-2.68l5.15-1.91-5.15-2a4.548 4.548 0 0 1-2.68-2.68l-1.91-5.15Z" style="stroke-width:0"/>
</svg>
