<svg xmlns="http://www.w3.org/2000/svg" data-name="Layer 1" viewBox="0 0 64 64">
  <path d="M36.38 23.73V9.07c0-.83-.67-1.5-1.5-1.5s-1.5.67-1.5 1.5c0 1.98-6.78 6.52-21.33 9.95a3.758 3.758 0 0 0-2.86 3.07H4.04c-2.2 0-3.99 1.79-3.99 3.99v11.83c0 2.2 1.79 3.99 3.99 3.99h5.15c.2 1.52 1.31 2.78 2.84 3.16 14.91 3.63 21.36 8.29 21.36 9.87 0 .83.67 1.5 1.5 1.5s1.5-.67 1.5-1.5V40.27c4.2-.42 7.49-3.97 7.49-8.27s-3.29-7.85-7.49-8.27ZM3.05 37.92V26.09c0-.55.45-.99.99-.99h5.1v13.82h-5.1c-.55 0-.99-.45-.99-.99Zm9.1 3.5V22.68c0-.35.25-.65.6-.74 4.66-1.1 9.44-2.55 13.48-4.24v28.8c-4.12-1.74-8.95-3.24-13.48-4.34a.756.756 0 0 1-.59-.73Zm21.24 9.01c-1.14-.88-2.56-1.73-4.17-2.55V16.32c1.61-.82 3.03-1.67 4.17-2.57v36.68Zm3-13.18v-10.5c2.54.4 4.49 2.6 4.49 5.25s-1.95 4.85-4.49 5.25ZM54.04 32c0 4.99-2.1 9.67-5.92 13.19-.29.27-.65.4-1.02.4-.4 0-.81-.16-1.1-.48-.56-.61-.52-1.56.09-2.12 3.2-2.94 4.96-6.84 4.96-10.98s-1.76-8.04-4.96-10.98a1.501 1.501 0 0 1 2.03-2.21c3.82 3.51 5.92 8.2 5.92 13.19Zm9.94 0c0 7.43-3.14 14.41-8.83 19.65-.29.27-.65.4-1.02.4-.4 0-.81-.16-1.1-.48-.56-.61-.52-1.56.09-2.12 5.07-4.67 7.87-10.86 7.87-17.44s-2.79-12.78-7.87-17.44a1.501 1.501 0 0 1 2.03-2.21c5.7 5.24 8.83 12.22 8.83 19.65Z" style="stroke-width:0"/>
</svg>
