<svg xmlns="http://www.w3.org/2000/svg" data-name="Layer 1" viewBox="0 0 64 64">
  <path d="M60.91 0H3.09C1.39 0 0 1.39 0 3.09V60.9c0 1.71 1.39 3.09 3.09 3.09H60.9c1.71 0 3.09-1.39 3.09-3.09V3.09C63.99 1.38 62.6 0 60.9 0Zm.11 60.91c0 .06-.05.11-.11.11H3.09c-.06 0-.11-.05-.11-.11V3.09c0-.06.05-.11.11-.11H60.9c.06 0 .11.05.11.11V60.9ZM26.17 26.19c0 .71 0 2.87 6.18 4.37 2.09.51 8.46 2.05 8.46 7.26 0 3.61-3.17 6.6-7.32 7.19v9.62h-2.98v-9.62c-4.15-.59-7.32-3.59-7.32-7.19h2.98c0 2.38 2.62 4.32 5.83 4.32s5.83-1.94 5.83-4.32c0-1.23-.64-3.02-6.18-4.37-5.61-1.36-8.46-3.8-8.46-7.26s3.17-6.6 7.32-7.19V9.38h2.98V19c4.15.59 7.32 3.59 7.32 7.19h-2.98c0-2.38-2.62-4.32-5.83-4.32s-5.83 1.94-5.83 4.32Z" style="stroke-width:0"/>
</svg>
