<svg xmlns="http://www.w3.org/2000/svg" data-name="Layer 1" viewBox="0 0 64 64">
  <path d="M60.85 3c.08 0 .15.07.15.15v57.7c0 .08-.07.15-.15.15H3.15c-.08 0-.15-.07-.15-.15V3.15c0-.08.07-.15.15-.15h57.7m0-3H3.15A3.15 3.15 0 0 0 0 3.15v57.7A3.15 3.15 0 0 0 3.15 64h57.7A3.15 3.15 0 0 0 64 60.85V3.15A3.15 3.15 0 0 0 60.85 0ZM25.63 57.14c-.21 0-.42-.04-.62-.14-.63-.29-.98-.98-.84-1.67l3.96-19.24H18.11c-.57 0-1.09-.33-1.35-.84s-.19-1.13.16-1.58L37.19 7.45c.43-.55 1.18-.74 1.81-.45.63.29.98.98.84 1.67l-3.96 19.24H45.9c.57 0 1.09.33 1.35.84s.19 1.13-.16 1.58L26.82 56.56c-.29.38-.73.58-1.19.58ZM21.16 33.1h8.8c.45 0 .88.2 1.16.55.28.35.4.81.31 1.25L28.4 49.59l14.44-18.68h-8.8c-.45 0-.88-.2-1.16-.55-.28-.35-.4-.81-.31-1.25l3.03-14.69L21.16 33.1Z" style="stroke-width:0"/>
</svg>
