<svg xmlns="http://www.w3.org/2000/svg" data-name="Layer 1" viewBox="0 0 64 64">
  <path d="M27.52 44.46c-.37 0-.74-.14-1.03-.41L14.8 33.03a1.5 1.5 0 0 1 2.06-2.18l10.6 10 19.63-20.82a1.5 1.5 0 0 1 2.18 2.06L28.61 44c-.3.31-.69.47-1.09.47ZM60.85 3H3.15c-.08 0-.15.07-.15.15v57.7c0 .08.07.15.15.15h57.7c.08 0 .15-.07.15-.15V3.15c0-.08-.07-.15-.15-.15m0-3A3.15 3.15 0 0 1 64 3.15v57.7A3.15 3.15 0 0 1 60.85 64H3.15A3.15 3.15 0 0 1 0 60.85V3.15A3.15 3.15 0 0 1 3.15 0h57.7Z" style="stroke-width:0"/>
</svg>
