<svg xmlns="http://www.w3.org/2000/svg" data-name="Layer 1" viewBox="0 0 64 64">
  <path d="m41.73 37.36-13.81-.66-4.9-12.93c-.22-.58-.78-.97-1.4-.97s-1.18.39-1.4.97l-4.9 12.93-13.81.66c-.62.03-1.16.44-1.35 1.04-.19.59 0 1.24.49 1.63l10.79 8.65L7.8 62.02c-.16.6.06 1.24.57 1.61.26.19.57.29.88.29.29 0 .57-.08.82-.25l11.56-7.58 11.56 7.58c.52.34 1.2.33 1.7-.04s.73-1.01.57-1.61l-3.64-13.34 10.79-8.65c.49-.39.68-1.04.49-1.63-.19-.59-.73-1-1.35-1.04Zm-12.56 9.6c-.47.37-.67.99-.51 1.56l2.86 10.47-9.08-5.95c-.25-.16-.54-.25-.82-.25s-.57.08-.82.25l-9.08 5.95 2.86-10.47c.16-.58-.04-1.19-.51-1.56l-8.46-6.79 10.84-.52c.6-.03 1.12-.41 1.33-.97l3.84-10.15 3.84 10.15c.21.56.73.94 1.33.97l10.84.52-8.46 6.79Zm.78-31.72-1.88 6.89c-.16.6.06 1.24.57 1.61.5.37 1.18.38 1.7.04l5.97-3.92 5.97 3.92c.25.16.54.25.82.25.31 0 .62-.1.88-.29.5-.37.73-1.01.57-1.61l-1.88-6.89 5.57-4.47a1.494 1.494 0 0 0-.86-2.66l-7.13-.34-2.53-6.68c-.22-.58-.78-.97-1.4-.97s-1.18.39-1.4.97l-2.53 6.68-7.13.34a1.494 1.494 0 0 0-.86 2.66l5.57 4.47Zm3.56-4.53c.6-.03 1.12-.41 1.33-.97l1.48-3.9 1.48 3.9c.21.56.73.94 1.33.97l4.16.2-3.25 2.61c-.47.37-.67.99-.51 1.56l1.1 4.02-3.48-2.28c-.5-.33-1.15-.33-1.65 0l-3.48 2.28 1.1-4.02c.16-.58-.04-1.19-.51-1.56l-3.25-2.61 4.16-.2Zm30.35 21.15c-.19-.59-.73-1-1.35-1.04l-6-.29-2.13-5.62c-.22-.58-.78-.97-1.4-.97s-1.18.39-1.4.97l-2.13 5.62-6 .29c-.62.03-1.16.44-1.35 1.04-.19.59 0 1.24.49 1.63l4.68 3.76-1.58 5.79c-.16.6.06 1.24.57 1.61.5.37 1.18.38 1.7.04l5.02-3.29L58 44.69c.25.16.54.25.82.25.31 0 .62-.1.88-.29.5-.37.73-1.01.57-1.61l-1.58-5.79 4.68-3.76c.49-.39.68-1.04.49-1.63Zm-7.82 3.67c-.47.37-.67.99-.51 1.56l.8 2.92-2.53-1.66c-.25-.16-.54-.25-.82-.25s-.57.08-.82.25l-2.53 1.66.8-2.92c.16-.58-.04-1.19-.51-1.56l-2.36-1.9 3.02-.15c.6-.03 1.12-.41 1.33-.97l1.07-2.83 1.07 2.83c.21.56.73.94 1.33.97l3.02.15-2.36 1.9Z" style="stroke-width:0"/>
</svg>
