<svg xmlns="http://www.w3.org/2000/svg" data-name="Layer 1" viewBox="0 0 64 64">
  <path d="M48.84 62.67c-.76 0-1.52-.18-2.22-.55L32 54.43l-14.62 7.69c-1.61.85-3.53.71-5.01-.36a4.715 4.715 0 0 1-1.89-4.65l2.79-16.28L1.44 29.29a4.707 4.707 0 0 1-1.2-4.88 4.736 4.736 0 0 1 3.84-3.24l16.35-2.38 7.31-14.81c.81-1.64 2.44-2.65 4.27-2.65s3.46 1.02 4.27 2.65l7.31 14.81 16.35 2.38c1.81.26 3.28 1.5 3.84 3.24.56 1.73.1 3.6-1.2 4.88L50.75 40.82l2.79 16.28c.31 1.8-.42 3.58-1.89 4.65a4.7 4.7 0 0 1-2.79.91ZM32 50.83l16.11 8.47c.54.28 1.16.24 1.65-.12s.73-.93.62-1.53L47.3 39.72l13.03-12.7c.44-.43.59-1.03.4-1.61s-.66-.98-1.27-1.07l-18.01-2.62L33.4 5.4c-.27-.55-.8-.87-1.41-.87s-1.14.33-1.41.87l-8.05 16.32-18.01 2.62c-.6.09-1.08.49-1.27 1.07s-.04 1.18.4 1.61l13.03 12.7-3.08 17.93c-.1.6.13 1.17.62 1.53.49.36 1.11.4 1.65.12l16.11-8.47Z" style="stroke-width:0"/>
</svg>
