<svg xmlns="http://www.w3.org/2000/svg" data-name="Layer 1" viewBox="0 0 64 64">
  <path d="M29.87 41.32c-.31 0-.62-.1-.88-.29-.5-.37-.73-1.01-.57-1.61l3.64-13.34-10.79-8.66a1.494 1.494 0 0 1 .86-2.66l13.81-.66 4.9-12.93c.22-.58.78-.97 1.4-.97s1.18.39 1.4.97l4.9 12.93 13.81.66a1.494 1.494 0 0 1 .86 2.66l-10.79 8.66 3.64 13.34c.16.6-.06 1.24-.57 1.61-.51.37-1.18.38-1.7.04l-11.56-7.58-11.56 7.58c-.25.16-.54.25-.82.25Zm-3.63-23.75 8.46 6.79c.47.37.67.99.51 1.56l-2.86 10.47 9.08-5.95c.5-.33 1.15-.33 1.65 0l9.08 5.95-2.86-10.47c-.16-.58.04-1.19.51-1.56l8.46-6.79-10.84-.52c-.6-.03-1.12-.41-1.33-.97L42.26 5.93l-3.84 10.15c-.21.56-.73.94-1.33.97l-10.84.52ZM3.06 63.06l19.45-19.45c.59-.59.59-1.54 0-2.12a1.49 1.49 0 0 0-2.12 0L.94 60.94a1.49 1.49 0 0 0 0 2.12c.29.29.68.44 1.06.44s.77-.15 1.06-.44Zm14-2 15.45-15.45c.59-.59.59-1.54 0-2.12a1.49 1.49 0 0 0-2.12 0L14.94 58.94a1.49 1.49 0 0 0 0 2.12c.29.29.68.44 1.06.44s.77-.15 1.06-.44Zm14-3 10.45-10.45c.59-.59.59-1.54 0-2.12a1.49 1.49 0 0 0-2.12 0L28.94 55.94a1.49 1.49 0 0 0 0 2.12c.29.29.68.44 1.06.44s.77-.15 1.06-.44Zm-26-9 15.45-15.45c.59-.59.59-1.54 0-2.12a1.49 1.49 0 0 0-2.12 0L2.94 46.94a1.49 1.49 0 0 0 0 2.12c.29.29.68.44 1.06.44s.77-.15 1.06-.44Zm3-14 10.45-10.45c.59-.59.59-1.54 0-2.12a1.49 1.49 0 0 0-2.12 0L5.94 32.94a1.49 1.49 0 0 0 0 2.12c.29.29.68.44 1.06.44s.77-.15 1.06-.44Z" style="stroke-width:0"/>
</svg>
