<svg xmlns="http://www.w3.org/2000/svg" data-name="Layer 1" viewBox="0 0 64 64">
  <path d="M49.23 14.08c-4.55-4.18-9.17-4.33-13.24-2.87.59-2 .77-4 .17-5.48-.42-1.05-1.22-1.76-2.25-2-3.26-.78-5.97 2.57-7.81 6.05.02-1.41.08-2.81.15-4.2.06-1.27.12-2.48.36-3.63.1-.48-.04-.99-.38-1.34a1.49 1.49 0 0 0-1.32-.45c-2.24.35-4.62.11-6.92-.13-.72-.07-1.39.38-1.59 1.07-1.2 4.08-1.19 8.56.05 12.63.02.08.06.16.08.24-3.78-1.83-8.54-3.18-10.8-.32-.65.83-.83 1.88-.52 2.97.45 1.53 1.81 2.97 3.49 4.16-2.41.91-4.3 2.36-4.48 4.62-.08 1.05.36 2.03 1.22 2.75 1.23 1.03 3.19 1.46 5.27 1.51-2.63 3.43-3.9 7.87-1.31 13.48 3.79 8.21 15.57 16.72 27.42 19.8 2.28.59 4.99 1.08 7.71 1.08 3.11 0 6.25-.64 8.79-2.5 4.76-3.47 6.1-10.23 6.38-15.28.68-12.22-3.82-26.04-10.49-32.15ZM32.98 6.61c.08 0 .16 0 .24.03.03 0 .08.02.16.21.44 1.09-.06 3.75-1.44 6.39-2.23 1.42-4.17 3.13-5.65 4.57.07-.34.15-.69.24-1.07 1.13-4.53 4.43-10.12 6.45-10.12ZM18.97 3.12c1.45.14 2.92.24 4.41.17-.07.72-.1 1.43-.13 2.13-.17 3.63-.35 7.38.25 11.11-.15.63-.27 1.22-.36 1.77-.5-.45-1.06-.92-1.7-1.41-.15-.12-.34-.26-.56-.41-.64-1.16-1.17-2.38-1.55-3.64-.95-3.12-1.06-6.52-.35-9.71ZM8.1 15.75c-.06-.2-.02-.24 0-.26.28-.35.81-.51 1.51-.51 2.46 0 7 1.97 10 4.28.82.63 1.48 1.21 2 1.7-2.58.35-5.01.15-7.14-.59-3.33-1.16-5.98-3.32-6.35-4.62Zm-.88 9.85c.09-1.18 2.37-2.2 5.22-2.79.34.14.69.28 1.02.39 1.18.41 2.43.67 3.73.81-1.1.69-2.23 1.49-3.31 2.38-2.93.51-5.62.17-6.52-.58-.16-.13-.15-.19-.15-.22Zm49.49 20.45c-.35 6.23-2.18 10.85-5.15 13.02s-7.94 2.5-13.97.93c-10.88-2.83-22.05-10.8-25.44-18.15-4-8.67 3.38-13.86 11.13-17.79.86-.44 1.46-.74 1.85-1.01a.36.36 0 0 0 .1-.07c.4-.29.89-.78 1.63-1.53 6.11-6.18 13.3-11.62 20.34-5.17 5.97 5.47 10.15 18.55 9.52 29.77Zm-16.1-24.26c.61.83.71 2.13.69 3.07 0 .37-.18.7-.48.91-.2.15-.44.22-.69.22-.11 0-.22-.02-.33-.05-.9-.27-2.11-.76-2.72-1.59-1.13-1.55-.62-2.77.23-3.39.51-.37 1.08-.51 1.65-.39.61.13 1.16.53 1.65 1.21ZM22.92 34.7c.61.83.71 2.13.69 3.08 0 .37-.18.7-.48.91-.2.15-.44.22-.69.22-.11 0-.22-.02-.33-.05-.9-.27-2.11-.76-2.72-1.59-.49-.67-.71-1.33-.64-1.94.06-.57.36-1.08.87-1.45.85-.62 2.17-.73 3.3.82Zm13.94.52c.61.83.71 2.13.69 3.07 0 .37-.18.7-.48.91a1.145 1.145 0 0 1-1.02.18c-.9-.27-2.11-.76-2.72-1.59-1.13-1.55-.62-2.77.23-3.39.85-.62 2.17-.73 3.3.82Zm10.33-.71c.51-.37 1.08-.51 1.65-.39.61.13 1.16.53 1.65 1.21.61.83.71 2.13.69 3.07 0 .37-.18.7-.48.91a1.145 1.145 0 0 1-1.02.18c-.9-.27-2.11-.76-2.72-1.59-.49-.67-.71-1.33-.64-1.94.06-.57.36-1.08.87-1.45ZM32.8 48.24c.61.84.71 2.13.69 3.07 0 .37-.18.7-.48.91a1.145 1.145 0 0 1-1.02.18c-.9-.27-2.11-.76-2.72-1.59-.49-.67-.71-1.33-.64-1.94.06-.57.36-1.08.87-1.45.51-.37 1.08-.51 1.64-.39.61.13 1.16.53 1.65 1.21Zm13.94.52c.61.83.71 2.13.69 3.08 0 .37-.18.7-.48.91a1.145 1.145 0 0 1-1.02.18c-.9-.27-2.11-.76-2.72-1.59-1.13-1.55-.62-2.77.23-3.39.85-.62 2.17-.73 3.3.82Z" style="stroke-width:0"/>
</svg>
