<svg xmlns="http://www.w3.org/2000/svg" data-name="Layer 1" viewBox="0 0 64 64">
  <path d="M56.04 38.99c.07-.48.11-.97.11-1.46 0-5.88-5.13-10.67-11.44-10.67-.49 0-.97.04-1.44.1l-3.36-2.23 1.87-9.27c.1-.49-.05-1-.41-1.36s-.87-.51-1.36-.41l-9.27 1.86-5.23-7.87c-.56-.84-1.94-.84-2.5 0l-5.23 7.87-9.27-1.87c-.49-.1-1 .05-1.36.41s-.51.86-.41 1.36l1.87 9.27-7.86 5.24a1.503 1.503 0 0 0 0 2.5l7.87 5.23-1.87 9.27c-.1.49.05 1 .41 1.36.36.36.86.51 1.36.41l7.62-1.53c-.1.49-.15.99-.15 1.5 0 4.05 3.26 8.24 8.72 8.24H54.3c4.73 0 9.63-3.38 9.63-9.04 0-4.41-3.39-8.1-7.89-8.91Zm-45.9 6.35 1.62-8.04c.12-.6-.13-1.21-.64-1.55l-6.83-4.54 6.83-4.54c.51-.34.76-.95.64-1.55l-1.62-8.04 8.04 1.62c.6.12 1.21-.13 1.54-.64l4.54-6.83 4.54 6.83c.34.51.94.76 1.54.64l8.04-1.62-1.62 8.04c-.12.6.13 1.21.64 1.55l2.08 1.38c-1.36.65-2.56 1.54-3.54 2.63-.28-6.22-5.41-11.19-11.69-11.19s-11.72 5.26-11.72 11.72c0 4.83 2.94 8.98 7.12 10.77-.76.51-1.43 1.13-1.98 1.84l-7.55 1.52Zm12.81-5.52c-4.19-.64-7.41-4.25-7.41-8.61 0-4.81 3.91-8.72 8.72-8.72s8.72 3.91 8.72 8.72c0 .45-.04.89-.11 1.32-.37-.04-.75-.08-1.13-.08-4.55 0-8.31 3.23-8.79 7.37Zm31.34 14.11H24.7c-4.17 0-5.72-3.21-5.72-5.24 0-2.83 2.46-5.14 5.59-5.26.44-.02.85-.22 1.12-.57.27-.34.38-.79.29-1.22-.06-.33-.09-.63-.09-.92 0-2.91 2.62-5.28 5.85-5.28.99 0 1.96.23 2.82.66.38.19.84.21 1.24.05.4-.16.71-.49.85-.9 1.11-3.22 4.34-5.38 8.05-5.38 4.65 0 8.44 3.44 8.44 7.67 0 .78-.13 1.55-.39 2.3-.16.46-.06.96.22 1.36.28.4.76.63 1.24.63 3.7 0 6.71 2.72 6.71 6.07 0 3.78-3.37 6.03-6.63 6.03Z"/>
</svg>
