<svg xmlns="http://www.w3.org/2000/svg" data-name="Layer 1" viewBox="0 0 64 64">
  <path d="M32 63.94c-.5 0-.97-.25-1.25-.67l-7.21-10.85-12.77 2.57c-.49.1-1-.05-1.36-.41-.36-.35-.51-.86-.41-1.36l2.57-12.77-10.84-7.2a1.503 1.503 0 0 1 0-2.5l10.85-7.21-2.57-12.77c-.1-.49.05-1 .41-1.36.36-.35.86-.51 1.36-.41l12.77 2.57L30.75.73c.55-.84 1.94-.84 2.5 0l7.21 10.85 12.77-2.57c.49-.1 1 .05 1.36.41.36.35.51.86.41 1.36l-2.57 12.77 10.85 7.21a1.503 1.503 0 0 1 0 2.5l-10.85 7.21L55 53.24c.1.49-.05 1-.41 1.36-.36.35-.86.51-1.36.41l-12.77-2.57-7.21 10.85c-.28.42-.75.67-1.25.67Zm-7.77-14.69c.5 0 .97.25 1.25.67L32 59.73l6.52-9.81c.34-.51.95-.76 1.54-.64l11.55 2.32-2.32-11.55c-.12-.6.13-1.21.64-1.55l9.81-6.52-9.81-6.52c-.51-.34-.76-.95-.64-1.55l2.32-11.55-11.55 2.32c-.6.12-1.21-.13-1.54-.64L32 4.23l-6.52 9.81c-.34.51-.94.76-1.54.64l-11.55-2.32 2.32 11.55c.12.6-.13 1.21-.64 1.55l-9.81 6.52 9.81 6.52c.51.34.76.95.64 1.55L12.39 51.6l11.55-2.32c.1-.02.2-.03.3-.03Zm7.77-.99c-8.97 0-16.26-7.3-16.26-16.26S23.04 15.74 32 15.74 48.26 23.04 48.26 32 40.96 48.26 32 48.26Zm0-29.53c-7.31 0-13.26 5.95-13.26 13.26S24.69 45.25 32 45.25s13.26-5.95 13.26-13.26S39.31 18.73 32 18.73Z" style="stroke-width:0"/>
</svg>
