<svg xmlns="http://www.w3.org/2000/svg" data-name="Layer 1" viewBox="0 0 64 64">
  <path d="M63.45 12.3 51.73.58C51.15 0 50.2 0 49.61.58a1.49 1.49 0 0 0 0 2.12l2.05 2.05-9.48 9.48-2.05-2.05a1.499 1.499 0 0 0-2.12 0L25 25.19l-3.91 3.91s-.02.01-.03.02c0 0-.01.02-.02.03l-3.89 3.89s-.02.01-.03.02c0 0-.01.02-.02.03l-3.89 3.89s-.02.01-.03.02c0 0-.01.02-.02.03l-3.72 3.72a1.49 1.49 0 0 0 0 2.12l1.71 1.71-2.25 2.25a1.499 1.499 0 0 0 0 2.12l1.99 1.99L.55 61.3a1.49 1.49 0 0 0 0 2.12c.29.29.68.44 1.06.44s.77-.15 1.06-.44L13 53.09l1.99 1.99a1.499 1.499 0 0 0 2.12 0l2.25-2.25 1.78 1.78a1.499 1.499 0 0 0 2.12 0l28.58-28.58c.59-.59.59-1.54 0-2.12l-2.05-2.05 9.48-9.48 2.05 2.05c.29.29.68.44 1.06.44s.77-.15 1.06-.44c.59-.59.59-1.54 0-2.12Zm-24.38 3.07.99.99-10.89 10.89-.99-.99 10.89-10.89Zm-6.09 15.69-1.69-1.69 10.89-10.89 3.37 3.37-10.89 10.89-1.69-1.69ZM16.06 51.9l-3.98-3.98 1.19-1.19 2 2 1.98 1.98-1.19 1.19Zm6.15-.47-1.78-1.78-6.1-6.1-1.71-1.71 1.62-1.62 3.65 3.65c.29.29.68.44 1.06.44s.77-.15 1.06-.44c.59-.59.59-1.54 0-2.12l-3.65-3.65 1.82-1.82 3.65 3.65c.29.29.68.44 1.06.44s.77-.15 1.06-.44c.59-.59.59-1.54 0-2.12l-3.65-3.65 1.82-1.82 3.65 3.65c.29.29.68.44 1.06.44s.77-.15 1.06-.44c.59-.59.59-1.54 0-2.12l-3.65-3.65 1.82-1.82 9.59 9.59-13.44 13.44Zm26.46-26.46L37.78 35.86l-.99-.99 10.89-10.89.99.99Zm-.99-5.23-3.37-3.37 9.48-9.48 3.37 3.37-9.48 9.48Z" style="stroke-width:0"/>
</svg>
