<svg xmlns="http://www.w3.org/2000/svg" data-name="Layer 1" viewBox="0 0 64 64">
  <path d="M34.49 6.27c-6.85-4.03-14.83-2.57-21.35 3.91-4.18 4.15-10.06 12.18-9.42 19.15v.03c.11 1.18.41 2.33.93 3.43.03.09.08.18.13.27 0 .02.02.04.04.07l.05.09c2.28 3.99 2.98 8.29 1.7 10.46L.46 54.08c-.2.34-.26.75-.16 1.14.1.38.35.71.69.92l6.23 3.66a1.488 1.488 0 0 0 2.05-.53l6.12-10.41c1.28-2.17 5.34-3.66 10.03-3.6h.25c8.47-.35 13.91-11.73 15.79-18.42 2.49-8.84-.12-16.53-6.98-20.56ZM12.81 47.34l-5.36 9.12-3.64-2.14 5.36-9.12c1.75-2.98 1.26-7.85-1.21-12.6l16.46 9.67c-5.4.16-9.85 2.1-11.6 5.07Zm25.77-21.33c-1.48 5.28-5.12 12.71-9.87 15.3L6.69 28.37c-.05-5.41 4.68-12.2 8.57-16.07 2.64-2.62 9.64-8.2 17.72-3.45 8.08 4.75 6.61 13.58 5.61 17.16Zm-11.79-.96a1.497 1.497 0 0 1-1.88.98 1.514 1.514 0 0 1-1.01-1.84 1.49 1.49 0 0 1 1.8-1.05c.03 0 .08.02.11.03.79.25 1.23 1.09.98 1.88Zm13.18 15.17a1.51 1.51 0 0 1-1.99-.75c-.33-.74-.03-1.64.71-1.99.74-.35 1.61-.08 1.97.65l.05.11c.34.76 0 1.64-.75 1.98Zm-5.01-10.97c.54.63.46 1.58-.18 2.11a1.505 1.505 0 0 1-2.12-.17c-.53-.62-.48-1.57.13-2.11a1.48 1.48 0 0 1 2.08.09c.01.02.06.07.08.09ZM41.88 45a1.518 1.518 0 0 1-1.93-.89c-.29-.78.1-1.66.88-1.95.78-.29 1.63.09 1.92.86l.02.05a1.5 1.5 0 0 1-.89 1.93Zm4.68 13.68c0 .07-.03.16-.04.22-.18.66-.78 1.11-1.45 1.11-.06 0-.13 0-.2-.01-.75-.1-1.3-.73-1.3-1.49 0-.1 0-.2.03-.29a1.498 1.498 0 0 1 2.96.45ZM50.4 45.7c-.28.49-.8.78-1.33.78a1.4 1.4 0 0 1-.68-.17c-.72-.38-1.02-1.24-.66-1.97l.06-.11c.4-.72 1.32-.98 2.04-.57.72.41.98 1.32.57 2.04Zm5.43-16.03c-4.37 0-7.92 3.55-7.92 7.92s3.55 7.92 7.92 7.92 7.92-3.55 7.92-7.92-3.55-7.92-7.92-7.92Zm0 12.84c-2.71 0-4.92-2.21-4.92-4.92s2.21-4.92 4.92-4.92 4.92 2.21 4.92 4.92-2.21 4.92-4.92 4.92Zm-12.3 7.37a1.518 1.518 0 0 1-1.93-.89c-.29-.78.1-1.66.88-1.95.78-.29 1.63.09 1.92.86l.02.05a1.5 1.5 0 0 1-.89 1.93Zm4.31.87a1.518 1.518 0 0 1-1.93-.89c-.29-.78.1-1.66.88-1.95.78-.29 1.63.09 1.92.86l.02.05a1.5 1.5 0 0 1-.89 1.93ZM31.13 25.81c.54.63.46 1.58-.18 2.11a1.505 1.505 0 0 1-2.12-.17c-.53-.62-.48-1.57.13-2.11a1.48 1.48 0 0 1 2.08.09c.01.02.06.07.08.09ZM47.52 54.3c-.2.8-1.02 1.29-1.83 1.09l-1.87-.48c-.8-.2-1.29-1.02-1.09-1.83s1.02-1.29 1.83-1.09l1.87.48c.8.2 1.29 1.02 1.09 1.83Z" style="stroke-width:0"/>
</svg>
