<svg xmlns="http://www.w3.org/2000/svg" data-name="Layer 1" viewBox="0 0 64 64">
  <path d="M63.82 16.33 57.34 3.04c-.17-.36-.48-.63-.86-.76-.37-.13-.79-.1-1.15.07l-7.67 3.74s-.03.02-.04.03c-.15.08-.28.17-.4.29l-3.49 3.76-27.7 13.51-.7-1.43 1.39-.68a1.5 1.5 0 0 0 .69-2.01l-2.07-4.25c-.17-.36-.48-.63-.86-.76-.37-.13-.79-.1-1.15.07L1.01 20.65a1.5 1.5 0 0 0-.69 2.01l2.07 4.25c.17.36.48.63.86.76a1.517 1.517 0 0 0 1.15-.07l1.4-.68.7 1.43-1.4.68a1.5 1.5 0 0 0-.69 2.01l.04.09-3.28 1.6c-.36.17-.63.48-.76.86s-.1.79.07 1.15l3.37 6.91c.26.53.79.84 1.35.84.22 0 .45-.05.66-.15l3.28-1.6.04.09c.17.36.48.63.86.76a1.517 1.517 0 0 0 1.15-.07l21.99-10.73L19.07 56h-.84c-.83 0-1.5.67-1.5 1.5s.67 1.5 1.5 1.5h3.44a1.498 1.498 0 0 0 .73-2.81l12.17-21.75L32.31 56h-.37c-.83 0-1.5.67-1.5 1.5s.67 1.5 1.5 1.5h3.44c.83 0 1.5-.67 1.5-1.5s-.67-1.5-1.5-1.5h-.06l2.49-23.8 13.43 24c-.46.26-.77.74-.77 1.3 0 .83.67 1.5 1.5 1.5h3.44c.83 0 1.5-.67 1.5-1.5s-.67-1.5-1.5-1.5h-.84L38.9 27.99l10.92-5.32 5.11-.43s.06-.01.09-.02c.07 0 .13-.02.2-.04.05-.02.1-.03.15-.05l.09-.03 7.67-3.74c.36-.17.63-.48.76-.86s.1-.79-.07-1.15ZM3.67 22.69l9.63-4.7.76 1.56-1.38.67-6.84 3.34-1.39.68-.76-1.56Zm8.96.89.69 1.42-4.14 2.02-.69-1.42 4.14-2.02Zm37.68-3.98-3.87-7.94 1.49-1.6 4.56 9.35-2.18.19Zm-39.1 18.55-3.46-7.09 36.2-17.65 3.46 7.09-36.2 17.65Zm-3.4-.12-1.93.94-2.06-4.21 1.93-.94.41.84 1.65 3.38Zm47.67-19.31L50.31 8.13l4.97-2.42 5.17 10.59-4.97 2.42Z" style="stroke-width:0"/>
</svg>
