<svg xmlns="http://www.w3.org/2000/svg" data-name="Layer 1" viewBox="0 0 64 64">
  <path d="M37.78 52.74c0 3.19-2.59 5.78-5.78 5.78s-5.78-2.59-5.78-5.78c0-2.37 1.43-4.41 3.47-5.3V28.62c0-1.28 1.03-2.31 2.31-2.31s2.31 1.03 2.31 2.31v18.82c2.04.89 3.47 2.93 3.47 5.3Zm5.46 0c0 6.2-5.05 11.25-11.25 11.25-.57 0-1.14-.04-1.71-.13-4.38-.65-8.06-3.97-9.17-8.24-1.03-3.97.16-8.18 3.1-11V7.79C24.23 3.5 27.71.01 32 .01c.34 0 .68.02 1.01.06 3.86.5 6.76 3.88 6.76 7.88v36.66s.01.02.03.03c2.19 2.11 3.45 5.06 3.45 8.1Zm-3 0c0-2.28-.94-4.41-2.53-5.94-.58-.56-.95-1.32-.95-2.13v-25.9h-3.87c-.83 0-1.5-.67-1.5-1.5s.67-1.5 1.5-1.5h3.87V14.3h-3.87c-.83 0-1.5-.67-1.5-1.5s.67-1.5 1.5-1.5h3.87V9.83h-3.87c-.83 0-1.5-.67-1.5-1.5s.67-1.5 1.5-1.5h3.73c-.44-1.94-1.98-3.52-4.01-3.78a4.776 4.776 0 0 0-5.4 4.73v36.98c0 .76-.35 1.47-.9 1.99-2.1 1.99-3.09 5.04-2.3 8.11.81 3.14 3.5 5.55 6.71 6.03.43.06.85.09 1.26.09 4.55 0 8.25-3.7 8.25-8.25Z" style="stroke-width:0"/>
</svg>
