<svg xmlns="http://www.w3.org/2000/svg" data-name="Layer 1" viewBox="0 0 64 64">
  <path d="M32 0C14.36 0 0 14.36 0 32s14.36 32 32 32 32-14.36 32-32S49.64 0 32 0Zm19.39 10.46c-5.56 3.52-12.38 5.46-19.39 5.46s-13.83-1.94-19.39-5.46C17.75 5.83 24.55 3 32 3s14.25 2.83 19.39 7.46Zm-40.97 2.19c6.14 4.05 13.75 6.28 21.58 6.28s15.43-2.24 21.56-6.29C58.18 17.78 61 24.57 61 32s-2.81 14.21-7.42 19.35C47.44 47.3 39.83 45.07 32 45.07s-15.43 2.24-21.56 6.29C5.82 46.22 3 39.43 3 32s2.81-14.21 7.42-19.35Zm2.18 40.89c5.56-3.52 12.38-5.46 19.39-5.46s13.83 1.94 19.39 5.46C46.24 58.17 39.44 61 31.99 61s-14.25-2.83-19.39-7.46Z" style="stroke-width:0"/>
</svg>
