<svg xmlns="http://www.w3.org/2000/svg" data-name="Layer 1" viewBox="0 0 64 64">
  <path d="M44.96 62.24c-.26 0-.53-.03-.79-.1l-6.9-1.61c-1.2-.29-2.46-1.24-3.06-2.32l-7.32-13.24c-.08-.15-.42-.51-.58-.6l-2.94-1.81c-.1-.05-.44-.14-.57-.14l-1.66.1-.88 1.58a3.501 3.501 0 0 1-2.99 1.79c-.52.02-1.11-.12-1.59-.36l-4.08-1.99c-1.04-.51-2.07-1.6-2.5-2.66l-1.5-3.61c-.09-.23-.43-.72-.6-.88L.95 30.62c-.91-.87-1.21-2.03-.8-3.09.42-1.07 1.43-1.72 2.69-1.74l12.65-.22.48-22.3c.02-.82.68-1.47 1.5-1.47h15.19c.82 0 1.49.66 1.5 1.47l.19 10.62 7.98 2.32c.29.08.89.14 1.25.15l8.42-.38c.88-.05 2.08.13 2.91.41l3.35 1.13c1.47.5 2.6 2.04 2.63 3.59l.09 5.27c0 .15.12.53.2.66l1.99 3.06c.63.97.94 2.45.76 3.59l-.81 4.98c-.2 1.23-1.11 2.58-2.17 3.23l-11.51 7.02c-.11.07-.36.36-.43.48l-2.23 4.73c-.03.07-.04.27-.03.36l1.04 3.96c.25.95.07 1.92-.49 2.64a2.88 2.88 0 0 1-2.29 1.13h-.06ZM22.79 39.42c.69 0 1.58.24 2.14.57l2.96 1.83c.57.36 1.28 1.1 1.62 1.69l7.32 13.24c.19.34.74.76 1.13.85l6.92 1.62.02.1s0-.05-.01-.11l-1.04-3.97c-.19-.72-.1-1.7.22-2.38l2.23-4.74c.29-.62.99-1.4 1.58-1.76l11.51-7.02c.31-.19.71-.79.77-1.15l.81-4.98c.07-.41-.08-1.12-.31-1.47s-1.99-3.06-1.99-3.06c-.39-.6-.68-1.53-.69-2.25l-.09-5.27c0-.29-.32-.71-.59-.81l-3.35-1.13c-.48-.16-1.31-.28-1.81-.25l-8.38.38h-.13c-.61 0-1.56-.11-2.13-.27l-8.65-2.51c-.81-.22-1.46-1.08-1.48-1.94l-.17-9.84H18.95l-.48 22.06c-.04.94-.78 1.67-1.69 1.68l-13.41.24 5.68 5.44c.48.45 1.06 1.3 1.31 1.91l1.5 3.61c.16.39.66.92 1.04 1.11l4.09 2c.07.04.15.06.21.05.17 0 .34-.1.42-.25l1.01-1.81c.4-.71 1.24-1.24 2.06-1.29l1.94-.11h.15Zm11.57-24.84Zm-.71-.89h.04-.04Z" style="stroke-width:0"/>
</svg>
