<svg xmlns="http://www.w3.org/2000/svg" data-name="Layer 1" viewBox="0 0 64 64">
  <path d="m63.17 30.11-1.99-3.06c-.08-.13-.2-.51-.2-.66l-.09-5.27c-.03-1.55-1.16-3.1-2.63-3.59l-3.35-1.13c-.83-.28-2.03-.46-2.91-.41l-8.42.38c-.37-.01-.96-.07-1.25-.15l-7.98-2.32-.19-10.62c-.01-.82-.68-1.47-1.5-1.47H17.47c-.82 0-1.48.65-1.5 1.47l-.48 22.3-12.65.22c-1.27.02-2.27.67-2.69 1.74-.41 1.06-.11 2.22.8 3.09l6.03 5.77c.17.16.51.65.6.88l1.5 3.61c.43 1.05 1.46 2.15 2.5 2.66l4.08 1.99c.49.25 1.06.38 1.59.36 1.25-.02 2.39-.71 2.99-1.79l.88-1.58 1.66-.1c.14 0 .48.09.57.14l2.94 1.81c.15.1.49.46.58.6l7.32 13.24c.6 1.08 1.86 2.03 3.06 2.32l6.9 1.61c.26.07.53.1.79.1H45a2.97 2.97 0 0 0 2.29-1.13c.56-.73.73-1.69.49-2.64l-1.04-3.96c-.01-.09 0-.29.03-.36L49 49.43c.07-.13.32-.41.43-.48l11.51-7.02c1.06-.65 1.97-2 2.17-3.23l.81-4.98c.19-1.14-.12-2.62-.76-3.59Zm-2.2 3.11-.81 4.98c-.06.36-.46.96-.77 1.15l-11.51 7.02c-.59.36-1.28 1.14-1.58 1.76l-2.23 4.74c-.32.68-.41 1.66-.22 2.38l1.04 3.97c.02.06.01.1.01.11l-.02-.1-6.92-1.62c-.39-.09-.93-.51-1.13-.85l-7.32-13.24c-.33-.59-1.04-1.34-1.62-1.69L24.93 40c-.56-.34-1.45-.57-2.14-.57h-.15l-1.94.11c-.81.05-1.66.58-2.06 1.29l-1.01 1.81a.51.51 0 0 1-.42.25c-.07 0-.14-.01-.21-.05l-4.09-2c-.38-.19-.89-.72-1.04-1.11l-1.5-3.61c-.25-.62-.83-1.46-1.31-1.91l-5.68-5.44 13.41-.24c.9-.02 1.64-.74 1.69-1.68l.48-22.06h12.25l.17 9.84c.01.86.67 1.72 1.48 1.94l8.65 2.51c.57.17 1.52.28 2.13.27h.13l8.38-.38c.5-.02 1.33.09 1.81.25l3.35 1.13c.27.09.58.52.59.81l.09 5.27c.01.72.3 1.64.69 2.25l1.99 3.06c.23.35.38 1.06.31 1.47Zm-7.13 1.56c.06.2 0 .41-.16.54l-2.63 2.11.89 3.25c.05.2-.02.41-.19.54-.09.06-.19.1-.29.1-.1 0-.19-.03-.27-.08l-2.82-1.85-2.82 1.85c-.17.11-.4.11-.57-.01a.505.505 0 0 1-.19-.54l.89-3.25-2.63-2.11a.49.49 0 0 1-.16-.54c.06-.2.24-.33.45-.34l3.36-.16 1.19-3.15c.15-.39.79-.39.94 0l1.19 3.15 3.36.16c.21 0 .39.15.45.34Z" style="stroke-width:0"/>
</svg>
