<svg xmlns="http://www.w3.org/2000/svg" data-name="Layer 1" viewBox="0 0 64 64">
  <path d="M43.26 3.11h2.36c4.93.05 6.49 5.46 3.88 7.86 3.11.35 4.8 6.64 1.93 8.91 3.82 1.25 3.82 8.17.72 9.5 2.06.56 3.11 2.63 3.09 5.25-.01 2.63-2.32 5.25-5.25 5.25H35.54c0 5.25 3.94 7.51 3.94 13.13 0 3.3 0 7.88-6.57 7.88-1.21-2.92-1.93-8.66-5.25-13.13-4.01-5.38-8.83-13.13-13.7-13.13h-2.08a3.15 3.15 0 0 1-3.15-3.15V11.51a3.15 3.15 0 0 1 3.15-3.15h2.08c9.74 0 10.3-5.25 22.89-5.25h6.39m0-3h-6.39c-7.34 0-11.04 1.67-14.31 3.14-2.61 1.18-4.67 2.11-8.58 2.11h-2.08c-3.39 0-6.15 2.76-6.15 6.15v19.97c0 3.39 2.76 6.15 6.15 6.15h2.08c2.67 0 6.83 5.77 9.58 9.58.58.81 1.15 1.6 1.71 2.34 1.99 2.67 2.95 6.09 3.72 8.83.39 1.4.73 2.61 1.17 3.66a3.007 3.007 0 0 0 2.77 1.85c9.57 0 9.57-7.9 9.57-10.88 0-3.58-1.3-6.13-2.35-8.17-.36-.69-.68-1.33-.94-1.96h10.8c4.45 0 8.23-3.77 8.25-8.24.01-2.28-.6-4.26-1.71-5.72.61-1.28.91-2.81.84-4.46-.09-2.12-.79-3.97-1.93-5.34.58-1.66.62-3.61.06-5.57-.42-1.46-1.12-2.71-2-3.65.41-1.5.33-3.15-.28-4.72-1.19-3.1-4.09-5.04-7.58-5.07h-2.39Z" style="stroke-width:0"/>
</svg>
