<svg xmlns="http://www.w3.org/2000/svg" data-name="Layer 1" viewBox="0 0 64 64">
  <path d="M32.93 3.11c6.57 0 6.57 4.58 6.57 7.88 0 5.63-3.94 7.88-3.94 13.13h14.45c2.93 0 5.24 2.63 5.25 5.25.01 2.63-1.03 4.69-3.09 5.25 3.09 1.33 3.09 8.24-.72 9.5 2.87 2.28 1.17 8.56-1.93 8.91 2.61 2.4 1.05 7.81-3.88 7.86h-8.75c-12.59 0-13.15-5.25-22.89-5.25h-2.08a3.15 3.15 0 0 1-3.15-3.15V32.52a3.15 3.15 0 0 1 3.15-3.15H14c4.86 0 9.69-7.75 13.7-13.13 3.33-4.47 4.04-10.22 5.25-13.13m0-3c-1.21 0-2.31.73-2.77 1.85-.44 1.05-.78 2.26-1.17 3.66-.77 2.75-1.73 6.16-3.72 8.83-.55.74-1.12 1.53-1.71 2.34-2.75 3.82-6.92 9.58-9.58 9.58h-2.08c-3.39 0-6.15 2.76-6.15 6.15v19.97c0 3.39 2.76 6.15 6.15 6.15H14c3.91 0 5.97.93 8.58 2.11 3.26 1.47 6.97 3.14 14.31 3.14h8.78c3.49-.03 6.4-1.98 7.58-5.07.61-1.58.68-3.23.28-4.72.89-.94 1.58-2.19 2-3.65.56-1.96.52-3.91-.06-5.57 1.15-1.37 1.84-3.22 1.93-5.34.07-1.65-.23-3.18-.84-4.46 1.11-1.46 1.72-3.44 1.71-5.72-.02-4.47-3.8-8.24-8.25-8.24h-10.8c.26-.63.59-1.27.94-1.96 1.05-2.04 2.35-4.59 2.35-8.17 0-2.98 0-10.88-9.57-10.88Z" style="stroke-width:0"/>
</svg>
