<svg xmlns="http://www.w3.org/2000/svg" data-name="Layer 1" viewBox="0 0 64 64">
  <path d="M63.31 61.19 48.02 45.9l11.44-11.44a1.499 1.499 0 0 0 0-2.12l-3.22-3.22c-3.35-3.35-8.61-3.61-12.27-.82L27.23 12.86c.58-1.13.89-2.38.89-3.68 0-2.17-.84-4.2-2.38-5.73L22.99.69a1.499 1.499 0 0 0-2.12 0L.69 20.86a1.49 1.49 0 0 0 0 2.12l2.75 2.75a8.072 8.072 0 0 0 5.74 2.38c1.3 0 2.56-.31 3.68-.89L28.3 43.96a9.276 9.276 0 0 0-1.92 5.66c0 2.5.97 4.84 2.74 6.61l3.22 3.22a1.499 1.499 0 0 0 2.12 0L45.9 48.01 61.19 63.3c.29.29.68.44 1.06.44s.77-.15 1.06-.44c.59-.59.59-1.54 0-2.12ZM5.57 23.61l-1.69-1.69L21.92 3.87l1.69 1.69c.97.97 1.5 2.25 1.5 3.61s-.53 2.65-1.5 3.61L12.79 23.6c-.96.97-2.25 1.5-3.61 1.5s-2.65-.53-3.61-1.5Zm19.83-8.36 16.38 15.1-11.41 11.41-15.1-16.38 10.14-10.14Zm8 41.01-2.16-2.16c-1.2-1.2-1.86-2.79-1.86-4.49s.66-3.29 1.86-4.49l.14-.14L45 31.36l.14-.14c1.2-1.2 2.79-1.86 4.49-1.86s3.29.66 4.49 1.86l2.16 2.16-22.87 22.87Z" style="stroke-width:0"/>
</svg>
