<svg xmlns="http://www.w3.org/2000/svg" data-name="Layer 1" viewBox="0 0 64 64">
  <path d="M58.04 8.65c-1.19-1.63-2.9-2.51-4.82-2.51-.2 0-.41.01-.61.03C53.53 3.15 51.26 0 46.7 0h-9.69C23.07 0 22.44 5.82 11.66 5.82h-2.3c-1.93 0-3.49 1.56-3.49 3.49v22.11c0 1.93 1.56 3.49 3.49 3.49h2.3c5.39 0 10.73 8.58 15.17 14.55 3.68 4.95 4.47 11.31 5.82 14.54 7.27 0 7.27-5.07 7.27-8.73 0-6.23-4.36-8.73-4.36-14.54h16c3.25 0 5.8-2.91 5.82-5.82.01-2.91-1.14-5.2-3.43-5.82 2.58-1.11 3.22-5.73 1.56-8.53 1.32-.45 2.41-1.35 3.15-2.66 1.52-2.71 1.26-6.68-.61-9.24Zm-7.03.03.03.03c-.01 0-.03-.01-.04-.01 0 0 0-.01.02-.02Zm5.02 7.74c-.53.94-1.33 1.39-2.38 1.42 1.29-2.41.28-7.01-1.61-8.61.14.01.29.01.44-.02 1.32-.27 2.37.13 3.14 1.2 1.18 1.62 1.37 4.32.42 6.01Z" style="stroke-width:0"/>
</svg>
