<svg xmlns="http://www.w3.org/2000/svg" data-name="Layer 1" viewBox="0 0 64 64">
  <path d="M58.42 55.36h-.16L1.36 49.2c-.83-.09-1.44-.84-1.35-1.67l1.23-11.34c.09-.83.84-1.44 1.67-1.35 3.26.35 6.2-2.01 6.55-5.27.35-3.26-2.01-6.2-5.27-6.55-.83-.09-1.44-.84-1.35-1.67l1.23-11.34c.04-.4.24-.77.56-1.02.31-.25.71-.37 1.12-.33l56.91 6.15c.4.04.77.24 1.02.56.25.31.37.72.33 1.12l-1.23 11.34c-.09.83-.84 1.44-1.67 1.35-1.58-.17-3.13.28-4.37 1.28s-2.01 2.41-2.18 3.99c-.35 3.26 2.01 6.2 5.27 6.55.83.09 1.44.84 1.35 1.67l-1.23 11.34c-.04.4-.24.77-.56 1.02-.27.22-.61.34-.95.34ZM3.19 46.34l53.88 5.82.91-8.45c-4.13-1.17-6.95-5.2-6.47-9.61a8.998 8.998 0 0 1 8.37-8l.91-8.45-53.87-5.81-.91 8.45a8.93 8.93 0 0 1 4.54 3.01 8.933 8.933 0 0 1 1.93 6.6 8.998 8.998 0 0 1-8.37 8l-.91 8.45Zm49.84-12.07h.01-.01Zm4.41-12.49c.09-.83-.51-1.58-1.35-1.67l-45.71-4.94c-.83-.09-1.58.51-1.67 1.35-.09.83.51 1.58 1.35 1.67l45.72 4.94h.17c.77 0 1.42-.58 1.51-1.36Zm-2.77 25.63c.09-.83-.51-1.58-1.35-1.67L7.6 40.8c-.83-.09-1.58.51-1.67 1.35-.09.83.51 1.58 1.35 1.67L53 48.76h.17c.77 0 1.42-.58 1.51-1.36Zm-12.1-20.3.33-3.02c.09-.83-.51-1.58-1.35-1.67-.83-.09-1.58.51-1.67 1.35l-.33 3.02c-.09.83.51 1.58 1.35 1.67h.17c.77 0 1.42-.58 1.51-1.36Zm-.82 7.6.41-3.8c.09-.83-.51-1.58-1.35-1.67-.83-.09-1.58.51-1.67 1.35l-.41 3.8c-.09.83.51 1.58 1.35 1.67h.17c.77 0 1.42-.58 1.51-1.36Zm-.74 6.82.33-3.02c.09-.83-.51-1.58-1.35-1.67a1.51 1.51 0 0 0-1.67 1.35l-.33 3.02c-.09.83.51 1.58 1.35 1.67h.17c.77 0 1.42-.58 1.51-1.36Z" style="stroke-width:0"/>
</svg>
