<svg xmlns="http://www.w3.org/2000/svg" data-name="Layer 1" viewBox="0 0 64 64">
  <path d="m52.17 19.49 1.19-1.51c.47-.6.67-1.34.58-2.09-.09-.75-.47-1.42-1.07-1.89l-3.43-2.68a2.835 2.835 0 0 0-3.98.49l-1.18 1.51a26.762 26.762 0 0 0-7.35-2.53v-2h4.73c.83 0 1.5-.67 1.5-1.5v-5.7c0-.83-.67-1.5-1.5-1.5H22.33c-.83 0-1.5.67-1.5 1.5v5.69c0 .83.67 1.5 1.5 1.5h4.73v2c-12.45 2.33-21.9 13.26-21.9 26.37 0 14.8 12.04 26.83 26.83 26.83s26.83-12.04 26.83-26.83c0-6.76-2.52-12.94-6.66-17.67Zm-4.44-5.7 3.16 2.47-.83 1.07c-.99-.9-2.04-1.73-3.16-2.47l.83-1.06ZM23.84 3.09h16.33v2.69H23.84V3.09Zm6.23 5.69h3.88v1.62c-.64-.05-1.29-.08-1.94-.08s-1.3.03-1.94.08V8.78Zm1.94 52.21c-13.14 0-23.83-10.69-23.83-23.83s10.69-23.83 23.83-23.83 23.83 10.69 23.83 23.83-10.69 23.83-23.83 23.83Zm21.14-23.83c0 11.66-9.49 21.14-21.14 21.14s-21.14-9.49-21.14-21.14c0-6.45 2.89-12.47 7.93-16.5.65-.52 1.59-.41 2.11.23.52.65.42 1.59-.23 2.11-4.32 3.47-6.8 8.63-6.8 14.17 0 10 8.14 18.14 18.14 18.14s18.14-8.14 18.14-18.14-7.34-17.32-16.64-18.08v2.22c0 .83-.67 1.5-1.5 1.5s-1.5-.67-1.5-1.5v-3.79c0-.83.67-1.5 1.5-1.5 11.66 0 21.14 9.49 21.14 21.14ZM22.64 26.4a.642.642 0 0 1 0-.68c.12-.21.35-.35.6-.35.17 0 .34.07.47.19 3.53 3.37 9.56 9.14 10.18 9.93.91 1.15.73 2.65-.43 3.56-.47.37-1 .56-1.55.56-.74 0-1.44-.36-1.95-1.01-.65-.82-5.33-8.8-7.31-12.2Z" style="stroke-width:0"/>
</svg>
