<svg xmlns="http://www.w3.org/2000/svg" data-name="Layer 1" viewBox="0 0 64 64">
  <path d="M43.18.17c-4.07-.16-7.66.92-10.41 3.1-.48.38-1.05.38-1.53 0C28.48 1.09 24.88.02 20.82.17 12.57.49 5.97 7.92 6.1 16.73c.07 4.47.78 6.32 1.86 9.13 1.33 3.47 3.35 8.71 5.64 23.43l.18 1.17c.96 6.35 1.91 11.33 4.49 12.85.51.3 1.06.45 1.62.45.4 0 .81-.08 1.22-.23 3.08-1.15 4.26-6.32 5.61-12.29 1.14-5.04 2.71-11.93 5.27-11.93s4.13 6.9 5.27 11.93c1.36 5.98 2.53 11.14 5.61 12.29.98.37 1.97.29 2.84-.22 2.58-1.52 3.53-6.5 4.49-12.85l.18-1.17c2.29-14.72 4.31-19.96 5.64-23.43 1.08-2.81 1.79-4.66 1.86-9.13C58.03 7.92 51.43.49 43.18.17Zm10.06 24.6c-1.38 3.59-3.46 9-5.81 24.04L47.25 50c-.48 3.18-1.49 9.8-3.04 10.71-.06.03-.1.06-.27 0-1.57-.59-2.82-6.11-3.74-10.15-1.59-7.01-3.24-14.27-8.2-14.27s-6.6 7.25-8.2 14.27c-.92 4.04-2.17 9.56-3.74 10.15-.17.06-.21.04-.27 0-1.56-.91-2.56-7.53-3.04-10.71l-.18-1.19c-2.34-15.04-4.43-20.46-5.81-24.04-1.03-2.69-1.6-4.17-1.66-8.1-.11-7.19 5.2-13.25 11.83-13.51.22 0 .44-.01.65-.01 3.06 0 5.74.85 7.78 2.46 1.03.83 2.29 2.07 3.5 3.28 2.8 2.78 4.45 4.36 5.93 4.51h.15c.77 0 1.45-.58 1.52-1.35.08-.83-.49-1.55-1.32-1.63-.7-.21-2.79-2.28-4.17-3.66-.28-.28-.56-.55-.84-.83.16-.1.33-.2.48-.32 2.18-1.73 5.1-2.58 8.43-2.45 6.64.25 11.94 6.32 11.83 13.51-.06 3.93-.63 5.41-1.66 8.1Z" style="stroke-width:0"/>
</svg>
