<svg xmlns="http://www.w3.org/2000/svg" data-name="Layer 1" viewBox="0 0 64 64">
  <path d="M54.6 20.57c-.1-.14-.23-.27-.37-.36-.15-.14-.28-.29-.43-.42-9.93-8.68-4.35-17.02-4.12-17.37.32-.46.36-1.06.1-1.55s-.77-.81-1.33-.81H9.21c-.76 0-1.4.57-1.49 1.33-.04.32-.9 7.9.67 16 2.15 11.09 7.85 17.68 16.49 19.05 7.5 1.19 13.03 4.22 16.45 9.01 5.3 7.43 3.73 16.74 3.71 16.83-.13.7.26 1.39.91 1.66.18.07.37.11.56.11.49 0 .96-.24 1.25-.66.83-1.23 19.71-29.75 6.83-42.8Zm-43.84-7.89h34.72c.64 2.3 1.92 4.77 4.19 7.27H12.12c-.7-2.43-1.12-4.93-1.36-7.27Zm-.17-9.63h35.45c-.63 1.6-1.24 3.92-1.06 6.63H10.54c-.14-2.84-.04-5.23.05-6.63Zm2.57 19.9h39.59c1.86 2.02 2.84 4.52 3.19 7.27H18.33c-.05 0-.11.01-.16.02-2.26-1.92-3.87-4.48-5.01-7.28Zm10.96 10.27h31.97c-.05 2.35-.45 4.81-1.08 7.27H40.94c-3.83-3.61-9.04-5.98-15.58-7.01-.43-.07-.83-.16-1.24-.25ZM43.8 43.73c-.06-.08-.13-.16-.19-.24h10.53c-.83 2.54-1.83 5.01-2.87 7.27h-4.11c-.68-2.32-1.73-4.73-3.36-7.03Zm4.06 10.02h1.96c-.55 1.09-1.09 2.11-1.6 3.02-.06-.94-.18-1.95-.36-3.02Z" style="stroke-width:0"/>
</svg>
