<svg xmlns="http://www.w3.org/2000/svg" data-name="Layer 1" viewBox="0 0 64 64">
  <path d="M55.99 48.23c1.04 0 1.89.85 1.89 1.89s-.85 1.89-1.89 1.89-1.89-.85-1.89-1.89.85-1.89 1.89-1.89Zm7.57-11.47-4.83 5.96c3.01 1.12 5.16 4.01 5.16 7.4 0 4.36-3.54 7.9-7.9 7.9s-7.9-3.54-7.9-7.9c0-1.85.64-3.55 1.71-4.9H26.91v1.83c0 .48-.36.89-.83.96l-1.68.24 1.02 1.36c.29.39.25.93-.09 1.27l-4.71 4.71c-.34.34-.88.38-1.27.09l-1.36-1.02-.24 1.68c-.07.48-.48.83-.96.83h-6.65c-.48 0-.89-.36-.96-.83l-.24-1.68-1.36 1.02c-.39.29-.93.25-1.27-.09L1.6 50.88a.973.973 0 0 1-.09-1.27l1.02-1.36-1.68-.24a.963.963 0 0 1-.85-.96V40.4c0-.48.36-.89.83-.96l1.68-.24-1.02-1.36a.973.973 0 0 1 .09-1.27l4.71-4.71c.34-.34.88-.38 1.27-.09l1.36 1.02.24-1.68c.07-.48.48-.83.96-.83h6.65c.48 0 .89.36.96.83l.24 1.68 1.36-1.02c.39-.29.93-.25 1.27.09l4.71 4.71c.34.34.38.88.09 1.27l-1.02 1.36 1.68.24c.48.07.83.48.83.96v1.83h7.21v-9.97H23.42c-.4 0-.78-.16-1.06-.44l-2.63-2.65H7.16l-2.63 2.65c-.29.3-.68.44-1.06.44s-.76-.14-1.06-.43a1.49 1.49 0 0 1 0-2.12l3.07-3.1c.28-.28.67-.44 1.07-.44h1.56l.95-11.23H8.6c-.83 0-1.5-.67-1.5-1.5v-2.73c0-2.21 1.79-4 4-4h20.31c2.21 0 4 1.79 4 4v2.73c0 .83-.67 1.5-1.5 1.5h-.08l2.92 11.23h10.63v-5.62c0-.83.67-1.5 1.5-1.5h1.3v-.39c0-3.55 2.85-6.64 2.97-6.77l2.19 2.05s-2.16 2.37-2.16 4.72v.39h1.3c.83 0 1.5.67 1.5 1.5v5.62h6.42c.83 0 1.5.67 1.5 1.5v8.16c0 .34-.12.68-.33.94Zm-42.21 8.45a8.895 8.895 0 0 0 .14-1.48c0-.25-.01-.51-.04-.76-.02-.24-.06-.48-.1-.72-.7-3.72-3.97-6.55-7.89-6.55-4.43 0-8.03 3.6-8.03 8.03s3.6 8.03 8.03 8.03c3.92 0 7.19-2.82 7.89-6.54ZM60.9 29.16h-1.4v5.16h1.4v-5.16Zm-10.52-3h2.6v-4.12h-2.6v4.12ZM10.1 11.93h22.31V10.7c0-.55-.45-1-1-1H11.1c-.55 0-1 .45-1 1v1.23Zm24.03 17.33v-1.4l-3.4-12.93H12.07l-.95 11.23h9.26c.4 0 .78.16 1.07.44l2.63 2.65h5.37l-1.18-1.87-.82.51c-.25.16-.52.23-.8.23-.5 0-.99-.25-1.27-.7-.44-.7-.23-1.63.47-2.07l4.17-2.63c.7-.44 1.63-.23 2.07.47.44.7.23 1.63-.47 2.07l-.82.51 2.18 3.46h1.14Zm3 12.97h18.15l3.97-4.91H58c-.83 0-1.5-.67-1.5-1.5v-6.66H37.13v13.06Zm18.86 3.01a4.89 4.89 0 1 0 .002 9.782 4.89 4.89 0 0 0-.002-9.782Zm-4.32-13.78h-9.43c-.83 0-1.5.67-1.5 1.5s.67 1.5 1.5 1.5h9.43c.83 0 1.5-.67 1.5-1.5s-.67-1.5-1.5-1.5Zm0 5.49h-9.43c-.83 0-1.5.67-1.5 1.5s.67 1.5 1.5 1.5h9.43c.83 0 1.5-.67 1.5-1.5s-.67-1.5-1.5-1.5Z" style="stroke-width:0"/>
</svg>
