<svg xmlns="http://www.w3.org/2000/svg" viewBox="0 0 64 64">
  <path d="M54.6 6.4H41.9V1.5c0-.8-.7-1.5-1.5-1.5H23.7c-.8 0-1.5.7-1.5 1.5v4.9H9.5c-.8 0-1.5.7-1.5 1.5v6.7c0 .8.7 1.5 1.5 1.5h1l1.9 46.5c0 .8.7 1.4 1.5 1.4h36.2c.8 0 1.5-.6 1.5-1.4l1.9-46.5h1c.8 0 1.5-.7 1.5-1.5V7.9c0-.8-.7-1.5-1.5-1.5ZM25.2 3h13.7v3.4H25.2V3ZM10.9 9.4H53v3.7H10.9V9.4ZM48.7 61H15.4l-1.9-45h37l-1.9 45ZM23 59.1c.8 0 1.5-.7 1.5-1.5l-1-36.7c0-.8-.7-1.5-1.5-1.5s-1.5.7-1.5 1.5l1 36.7c0 .8.7 1.5 1.5 1.5Zm9 0c.8 0 1.5-.7 1.5-1.5V20.9c0-.8-.7-1.5-1.5-1.5s-1.5.7-1.5 1.5v36.7c0 .8.7 1.5 1.5 1.5Zm9 0c.8 0 1.5-.6 1.5-1.5l1-36.7c0-.8-.6-1.5-1.5-1.5-.8 0-1.5.6-1.5 1.5l-1 36.7c0 .8.6 1.5 1.5 1.5Z"/>
</svg>
