<svg xmlns="http://www.w3.org/2000/svg" data-name="Layer 1" viewBox="0 0 64 64">
  <path d="M55.43 49.79c-2.78-2.26-6.8-7.39-8.91-10.84h3.91a2.995 2.995 0 0 0 1.39-5.65c-1.78-.93-6.75-6.59-9.32-10.46h1.4c1.32 0 2.48-.86 2.87-2.12.39-1.26-.09-2.62-1.18-3.36-2.04-1.43-9.94-11.79-10.6-14.26a2.997 2.997 0 0 0-5.98 0c-.67 2.47-8.57 12.83-10.61 14.26a3.033 3.033 0 0 0-1.16 3.37 2.98 2.98 0 0 0 2.84 2.11h1.4c-2.56 3.86-7.54 9.52-9.32 10.46a2.995 2.995 0 0 0 1.39 5.65h3.92c-2.11 3.44-6.13 8.58-8.92 10.84a2.998 2.998 0 0 0 1.89 5.33h15.14l-.18 7.32c0 .4.14.79.43 1.08s.67.45 1.07.45h10.14c.4 0 .79-.16 1.07-.45s.44-.68.43-1.08l-.18-7.32H53.5a2.998 2.998 0 0 0 1.89-5.33Zm-19.9 11.18h-7.07l.14-5.85h6.79l.14 5.85Zm-3.54-8.85H10.46c3.01-2.44 11.43-12.47 11.43-16.17h-8.32c2.91-1.52 12.47-12.52 12.47-16.11h-5.96c2.41-1.63 11.91-13.83 11.91-16.55 0 2.72 9.51 14.92 11.91 16.55h-5.96c0 3.59 9.57 14.59 12.47 16.11h-8.32c0 3.7 8.42 13.73 11.43 16.17H31.98Z" style="stroke-width:0"/>
</svg>
