<svg xmlns="http://www.w3.org/2000/svg" data-name="Layer 1" viewBox="0 0 64 64">
  <path d="M62.84 19.91C61 15.26 57.03 11.45 51.93 9.46c-.36-.14-.73-.27-1.1-.39l4.62-3.67c.37-.29.58-.75.57-1.22A1.48 1.48 0 0 0 55.38 3 15.28 15.28 0 0 0 49.06.46c-5.36-.88-11.31.68-16.32 4.3-.35.25-.68.51-1.01.78a22.811 22.811 0 0 0-8.17-4.37c-9.42-2.8-19.3.75-22.98 8.27a1.496 1.496 0 0 0 .99 2.11l13.46 3.3c-.06.05-.12.1-.18.16-6.9 6.4-8.84 16.22-4.52 22.84.25.38.66.63 1.11.67h.15c.4 0 .79-.16 1.07-.45l16.42-16.76c0 1.54-.19 3.13-.52 4.88-.54 2.89-1.5 5.9-2.51 9.09-2.76 8.71-5.9 18.58-.43 27.95.27.46.76.74 1.3.74h10.12c.52 0 1-.27 1.28-.71.27-.44.3-.99.07-1.46-3-6-3.7-12.51-1.91-17.9.46-1.52.9-3.07 1.32-4.64.01-.05.03-.09.04-.14 1.68-6.35 2.81-12.98 1.73-19.1L61.9 27.5a1.488 1.488 0 0 0 1.32-.18c.39-.26.63-.69.65-1.16.11-2.15-.25-4.31-1.03-6.24ZM48.59 3.42c1.13.17 2.24.51 3.28 1l-4.8 3.8c-4.04-.51-8.01.25-11.19 2.08-.58-.93-1.24-1.8-1.97-2.63.2-.16.38-.33.59-.48 4.37-3.15 9.5-4.53 14.09-3.77ZM12.31 11.1l1.49-.86c.72-.42.96-1.33.54-2.05s-1.33-.96-2.05-.54l-4.18 2.43-3.86-.94c3.61-5.08 11.16-7.26 18.46-5.09 3.49 1.04 6.5 2.94 8.74 5.41-.5-.08-1-.14-1.5-.17-4.04-.27-8.2.89-11.86 3.22l-5.78-1.42Zm-.35 23.42c-2.25-5.32-.32-12.43 4.94-17.31 3.43-3.18 7.71-4.95 11.89-4.95.32 0 .65.01.97.03 1.12.06 2.24.29 3.31.66L17.98 28.36l.13-1.85a1.5 1.5 0 0 0-2.99-.21l-.37 5.36-2.79 2.85Zm15.85 26.45c-1.35-2.57-1.98-5.2-2.14-7.85h2.6c.83 0 1.5-.67 1.5-1.5s-.67-1.5-1.5-1.5h-2.59c.3-4.64 1.78-9.33 3.25-13.93.95-2.98 1.83-5.81 2.42-8.61h2.08c.83 0 1.5-.67 1.5-1.5s-.67-1.5-1.5-1.5h-1.56c.28-2.11.32-4.1 0-6.1l3.08-3.14c3.17 6.47 2.19 14.4.25 22.02h-2.17c-.83 0-1.5.67-1.5 1.5s.67 1.5 1.5 1.5h1.36c-.25.89-.51 1.78-.77 2.65-1.81 5.44-1.4 11.88 1.09 17.97H27.8Zm28.51-38.5L54.7 18.7a1.51 1.51 0 0 0-1.97-.79 1.51 1.51 0 0 0-.79 1.97l.56 1.31-13.82-4.63c-.3-.89-.66-1.77-1.09-2.62-.11-.33-.23-.65-.36-.97 3.7-2.19 8.81-2.58 13.6-.71 4.32 1.69 7.68 4.88 9.22 8.78.38.93.63 1.92.75 2.94l-4.49-1.51Z" style="stroke-width:0"/>
</svg>
