<svg xmlns="http://www.w3.org/2000/svg" data-name="Layer 1" viewBox="0 0 64 64">
  <path d="M59.58 37.67c.77-.88 1.72-1.98 1.72-3.44s-.95-2.56-1.72-3.44c-.38-.43-.8-.92-.91-1.24-.12-.36-.06-1-.01-1.63.1-1.14.21-2.57-.62-3.71-.84-1.15-2.23-1.48-3.36-1.74-.58-.13-1.23-.29-1.52-.5-.28-.21-.63-.77-.93-1.28-.6-1-1.34-2.23-2.71-2.68-.61-.2-1.81-.3-2.79-.36-.03-.38-.05-.78-.05-1.15s.24-.95.48-1.51c.43-1.02.96-2.29.54-3.59-.43-1.34-1.64-2.06-2.61-2.65-.48-.29-1.02-.62-1.22-.88-.2-.27-.35-.9-.48-1.45-.26-1.09-.57-2.45-1.7-3.27-1.12-.81-2.5-.7-3.61-.61-.57.05-1.22.1-1.55 0-.3-.1-.77-.5-1.18-.86C34.5.94 33.43 0 32 0s-2.5.93-3.36 1.67c-.41.36-.88.77-1.18.87-.33.11-.98.06-1.55 0-1.11-.09-2.5-.21-3.62.61-1.13.82-1.44 2.18-1.7 3.27-.13.55-.27 1.18-.48 1.45-.19.27-.74.59-1.22.88-.97.58-2.17 1.31-2.61 2.65-.42 1.3.11 2.57.54 3.59.24.56.48 1.14.48 1.51s-.02.77-.05 1.15c-.98.05-2.18.16-2.79.36-1.37.44-2.11 1.68-2.71 2.68-.3.5-.64 1.07-.93 1.28-.29.21-.95.37-1.52.5-1.12.26-2.52.59-3.36 1.74-.83 1.14-.71 2.57-.62 3.71.05.62.11 1.27-.01 1.63-.1.32-.53.81-.91 1.24-.77.88-1.72 1.98-1.72 3.44s.95 2.56 1.72 3.44c.38.43.8.92.91 1.24.12.36.06 1 .01 1.63-.09 1.14-.21 2.57.62 3.71.84 1.15 2.23 1.48 3.36 1.74.58.13 1.23.29 1.52.5.28.21.63.77.93 1.27.6 1 1.34 2.23 2.71 2.68 1.32.43 2.58-.09 3.68-.56.59-.25 1.2-.5 1.59-.5s1 .25 1.59.5c.82.34 1.71.72 2.66.72.33 0 .68-.05 1.02-.16.26-.08.49-.2.71-.32l-.3 12.31c0 .4.14.79.43 1.08s.67.45 1.07.45h10.14c.4 0 .79-.16 1.07-.45s.44-.68.43-1.08l-.3-12.31c.22.12.45.23.71.32 1.32.43 2.58-.09 3.68-.56.59-.25 1.2-.5 1.59-.5s1 .25 1.59.5c1.1.46 2.36.99 3.68.56 1.37-.44 2.11-1.68 2.71-2.68.3-.5.64-1.07.93-1.27.29-.21.95-.37 1.52-.5 1.12-.26 2.52-.59 3.36-1.74.83-1.14.71-2.56.62-3.71-.05-.62-.11-1.27.01-1.63.1-.32.53-.81.91-1.24Zm-31.11 23.3.33-13.66c.73-.5 2.2-1.35 3.21-1.91 1 .56 2.48 1.4 3.21 1.91l.33 13.66h-7.07Zm28.85-25.26c-.56.65-1.2 1.38-1.5 2.29-.3.93-.22 1.92-.15 2.8.05.58.12 1.46-.05 1.7-.18.25-1.01.44-1.62.58-.85.2-1.82.43-2.61 1-.78.56-1.28 1.41-1.73 2.15-.32.54-.77 1.27-1.07 1.37-.26.08-1.06-.25-1.59-.47-.82-.34-1.75-.74-2.75-.74s-1.93.39-2.75.73c-.53.22-1.32.56-1.59.47-.46-.15-.78-.51-1.3-1.13-.41-.48-.86-1.02-1.5-1.48-1.16-.84-4.07-2.43-4.39-2.61a1.51 1.51 0 0 0-1.43 0c-.33.18-3.23 1.76-4.39 2.61-.64.46-1.09 1.01-1.5 1.48-.53.62-.85.98-1.3 1.13-.26.08-1.06-.25-1.59-.47-.82-.34-1.75-.74-2.75-.74s-1.93.39-2.75.73c-.53.22-1.33.56-1.59.47-.3-.1-.75-.83-1.07-1.37-.45-.74-.96-1.59-1.73-2.15-.78-.57-1.75-.8-2.6-1-.61-.14-1.44-.34-1.62-.58-.17-.24-.1-1.12-.05-1.7.07-.88.16-1.87-.15-2.8-.29-.9-.93-1.64-1.5-2.29-.44-.51-.99-1.13-.99-1.47s.55-.97.99-1.47c.56-.65 1.2-1.38 1.5-2.28.3-.93.22-1.92.15-2.8-.05-.58-.12-1.46.05-1.7.18-.25 1.01-.44 1.62-.58.85-.2 1.82-.43 2.6-1 .78-.56 1.28-1.41 1.73-2.15.32-.54.77-1.27 1.07-1.37.34-.11 1.87-.23 3.26-.27.74-.02 1.36-.58 1.45-1.31 0-.06.2-1.57.2-2.78 0-.97-.38-1.88-.71-2.67-.2-.47-.53-1.26-.45-1.5.09-.27.82-.71 1.3-1 .72-.44 1.54-.93 2.09-1.69.56-.77.78-1.71.97-2.53.13-.54.32-1.37.54-1.53.22-.16 1.05-.09 1.6-.04.85.07 1.82.15 2.73-.14.88-.29 1.59-.91 2.22-1.45.46-.4 1.08-.94 1.39-.94s.93.54 1.39.94c.63.55 1.34 1.17 2.22 1.45.91.3 1.87.22 2.73.15.55-.05 1.39-.11 1.6.04.22.16.42.99.54 1.53.19.83.41 1.77.97 2.53.55.76 1.37 1.25 2.09 1.69.48.29 1.21.73 1.3 1 .08.24-.25 1.03-.45 1.5-.33.8-.71 1.7-.71 2.67 0 1.21.19 2.72.2 2.78.09.74.71 1.29 1.45 1.31 1.4.03 2.92.16 3.26.26.3.1.75.83 1.07 1.37.45.74.96 1.59 1.73 2.15.78.57 1.75.8 2.6 1 .61.14 1.44.34 1.62.58.17.24.1 1.12.05 1.7-.07.88-.16 1.87.15 2.8.29.9.93 1.64 1.5 2.28.44.51.99 1.13.99 1.47s-.55.97-.99 1.47Z" style="stroke-width:0"/>
</svg>
