<svg xmlns="http://www.w3.org/2000/svg" data-name="Layer 1" viewBox="0 0 64 64">
  <path d="M32 45.5c-.83 0-1.5-.67-1.5-1.5V25.07c0-.83.67-1.5 1.5-1.5s1.5.67 1.5 1.5V44c0 .83-.67 1.5-1.5 1.5Zm1.5 4.85v-.74c0-.83-.67-1.5-1.5-1.5s-1.5.67-1.5 1.5v.74c0 .83.67 1.5 1.5 1.5s1.5-.67 1.5-1.5Zm29.78 7.69a4.64 4.64 0 0 0 0-4.72L36.1 5.97C35.25 4.48 33.71 3.6 32 3.6s-3.25.89-4.1 2.37L.71 53.32a4.687 4.687 0 0 0 0 4.72A4.663 4.663 0 0 0 4.8 60.4h54.37c1.71 0 3.24-.88 4.09-2.36ZM33.5 7.47l27.19 47.34c.45.78.15 1.47 0 1.73s-.6.86-1.5.86H4.81c-.9 0-1.35-.6-1.5-.86-.15-.26-.45-.95 0-1.73L30.5 7.47c.45-.78 1.2-.87 1.5-.87s1.05.08 1.5.87Z" style="stroke-width:0"/>
</svg>
