<svg xmlns="http://www.w3.org/2000/svg" data-name="Layer 1" viewBox="0 0 64 64">
  <path d="M50.89 42.38c0 .83-.67 1.5-1.5 1.5h-2.71c-.83 0-1.5-.67-1.5-1.5s.67-1.5 1.5-1.5h2.71c.83 0 1.5.67 1.5 1.5Zm12.99-.68v8.76c0 .83-.67 1.5-1.5 1.5h-5.64c-.64 1.99-2.49 3.45-4.69 3.45s-4.05-1.45-4.69-3.45H36.68c-.64 1.99-2.49 3.45-4.69 3.45s-4.05-1.45-4.69-3.45H16.62c-.64 1.99-2.49 3.45-4.69 3.45s-4.05-1.45-4.69-3.45H1.77c-.83 0-1.5-.67-1.5-1.5V20.03c0-.83.67-1.5 1.5-1.5h37.9c.83 0 1.5.67 1.5 1.5v7.89h13.78c.63 0 1.19.39 1.41.98l2.92 7.83c2.57.22 4.6 2.35 4.6 4.98Zm-9.97-10.79h-7.37v5.76h9.52l-2.15-5.76Zm-12.74 0v5.76h2.36v-5.76h-2.36Zm-37.9 9.91h34.9V21.53H3.27v19.29Zm0 8.14h3.99c.64-1.99 2.49-3.45 4.69-3.45s4.05 1.46 4.69 3.45h10.68c.64-1.99 2.49-3.45 4.69-3.45s4.05 1.46 4.69 3.45h1.48v-5.14H3.27v5.14Zm10.62 1.5c0-1.07-.87-1.95-1.95-1.95s-1.95.87-1.95 1.95.87 1.95 1.95 1.95 1.95-.87 1.95-1.95Zm20.05 0c0-1.07-.87-1.95-1.95-1.95s-1.95.87-1.95 1.95.87 1.95 1.95 1.95 1.95-.87 1.95-1.95Zm20.05 0c0-1.07-.87-1.95-1.95-1.95s-1.95.87-1.95 1.95.87 1.95 1.95 1.95 1.95-.87 1.95-1.95Zm6.88-8.76c0-1.12-.91-2.02-2.02-2.02H41.17v9.28h6.19c.64-1.99 2.49-3.45 4.69-3.45s4.05 1.46 4.69 3.45h4.14V41.7Z" style="stroke-width:0"/>
</svg>
