<svg xmlns="http://www.w3.org/2000/svg" data-name="Layer 1" viewBox="0 0 64 64">
  <path d="M62.49 14.35c-.83 0-1.51.67-1.51 1.51-.08 1.61-8.01 7.97-17.81 7.97h-9.7V21.7c.73-.11 1.29-.73 1.29-1.49 0-.83-.68-1.51-1.51-1.51h-2.57c-.83 0-1.51.68-1.51 1.51 0 .76.56 1.38 1.29 1.49v2.13H26.4V21.7c.73-.11 1.29-.73 1.29-1.49 0-.83-.68-1.51-1.51-1.51h-2.57c-.83 0-1.51.68-1.51 1.51 0 .76.56 1.38 1.29 1.49v2.13h-4.06V21.7c.73-.11 1.29-.73 1.29-1.49 0-.83-.68-1.51-1.51-1.51h-2.57c-.83 0-1.51.68-1.51 1.51 0 .76.56 1.38 1.29 1.49v2.13H3.02v-.02c0-.83-.68-1.51-1.51-1.51S0 22.98 0 23.81v9.76c0 .83.68 1.51 1.51 1.51s1.51-.68 1.51-1.51v-.02h4.02A7.945 7.945 0 0 0 5.3 38.5c0 4.39 3.58 7.97 7.97 7.97h3.03v1.66c0 .83.68 1.51 1.51 1.51s1.51-.68 1.51-1.51v-1.66h4.06v1.66c0 .83.68 1.51 1.51 1.51s1.51-.68 1.51-1.51v-1.66h4.06v1.66c0 .83.68 1.51 1.51 1.51s1.51-.68 1.51-1.51v-1.66h3.03c4.4 0 7.97-3.58 7.97-7.97 0-1.87-.65-3.59-1.74-4.95h.43c9.57 0 17.57 6.32 17.81 7.97 0 .83.68 1.51 1.51 1.51S64 42.35 64 41.52V15.86c0-.83-.68-1.5-1.51-1.5ZM30.46 26.84v3.69H26.4v-3.69h4.06Zm-7.08 0v3.69h-4.06v-3.69h4.06Zm-20.36 0H16.3v3.69H3.02v-3.69Zm10.25 16.62c-2.73 0-4.95-2.22-4.95-4.95s2.22-4.95 4.95-4.95h3.03v9.91h-3.03Zm6.05 0v-9.91h4.06v9.91h-4.06Zm7.08 0v-9.91h4.06v9.91H26.4Zm10.11 0h-3.03v-9.91h3.03c2.73 0 4.95 2.22 4.95 4.95s-2.22 4.95-4.95 4.95Zm24.47-6.5c-1.11-.93-2.39-1.79-3.65-2.5-2.58-1.46-7.84-3.92-14.16-3.92h-9.7v-3.69h9.7c5.84 0 13.6-2.79 17.81-6.23v16.34Z" style="stroke-width:0"/>
</svg>
