<svg xmlns="http://www.w3.org/2000/svg" data-name="Layer 1" viewBox="0 0 64 64">
  <path d="M63.15 31.77a5.888 5.888 0 0 0-4.91-4.41c-1.13-.16-2.72-.3-4.5-.35-.16-1.03-.4-2.04-.74-3.03-.03-.1-.06-.2-.11-.29-.02-.05-.04-.11-.06-.16 1.29-.64 2.54-1.51 3.65-2.62 2.16-2.16 3.28-4.64 3.23-7.18-.04-2.35-1.06-4.59-2.95-6.48-1.89-1.89-4.13-2.91-6.48-2.95-2.56-.05-5.02 1.07-7.17 3.23a13.818 13.818 0 0 0-2.63 3.65c-.05-.02-.1-.04-.14-.06-.1-.05-.2-.09-.31-.12-.99-.34-1.99-.58-3.01-.74-.05-1.78-.19-3.38-.35-4.5A5.89 5.89 0 0 0 32.26.85C27-.46 17.28-.8 13.47 3.86c-.29.36-.4.84-.3 1.29.93 4.05 5.12 5.35 12.96 7.05-2.05 1.07-4.03 2.52-5.88 4.38-3.47 3.47-6.33 8.78-8 14.26-2.37.14-4.87.97-6.74 1.93-1.47.75-4.94 2.79-5.47 5.6-.08.44.03.89.32 1.24.28.34.71.54 1.15.55 1.36 0 2.69.66 4.22 1.43 1.44.72 3.1 1.53 5.05 1.86l.06.39c0 .18.02.36.08.53.42 2.43 1.32 4.5 2.78 5.96 1.59 1.59 3.96 2.57 6.89 2.94.33 1.95 1.14 3.59 1.86 5.03.76 1.53 1.42 2.85 1.43 4.22 0 .45.2.87.55 1.15.27.22.61.34.96.34.09 0 .19 0 .28-.03 2.81-.53 4.85-4.01 5.6-5.47.95-1.86 1.78-4.34 1.92-6.69 5.64-1.71 10.82-4.61 14.26-8.05 1.85-1.85 3.3-3.83 4.38-5.88 1.7 7.84 3 12.02 7.05 12.96.11.03.23.04.34.04.34 0 .68-.12.95-.34 4.66-3.81 4.32-13.53 3.01-18.76ZM14.45 34l2.84 1.62-.03 4.89-3.66 1.3c-.12-2.35.19-5.05.84-7.81Zm4.86-11.5 4.05 4.05-1.32 4.76-3.22 1.72-3.54-2.01c.98-3.01 2.35-5.96 4.03-8.52Zm15.05-9.45h.08c1.23 0 2.46.19 3.66.52l-.11 3.86-4.13.44-3.69-4.12c1.39-.44 2.79-.68 4.2-.69Zm11.42 5.17c1.48 1.48 2.63 3.06 3.48 4.71l-3.44.1-4.85-4.85.1-3.44c1.65.85 3.23 2.01 4.71 3.48Zm-14.96 7.85 7.11 7.11-1.26 4.56L32.11 39l-.46-.46L25 31.89l1.26-4.56 4.56-1.26Zm-10.53 9.58 2.75-1.47 6.78 6.78-1.47 2.75-5.3.03-2.79-2.79.03-5.3Zm1.9 14.73 1.3-3.64 4.89-.03L30 49.56c-.23.05-.46.11-.69.16-2.59.56-5.01.77-7.12.66Zm10.78-1.66-2.01-3.54 1.72-3.22 4.76-1.32 4.04 4.04c-2.48 1.63-5.42 3.03-8.51 4.04Zm7-17.75-6.95-6.95 1.28-3.18 4.59-.49 4.75 4.75-.49 4.59-3.18 1.28Zm6.6-4.96 3.86-.11c.34 1.23.52 2.47.52 3.73 0 1.41-.25 2.82-.69 4.2l-4.12-3.69.44-4.13ZM45.21 9.66c1.54-1.54 3.23-2.35 4.9-2.35h.1c1.56.03 3.09.75 4.41 2.07s2.04 2.85 2.07 4.41c.03 1.7-.78 3.43-2.35 5-.86.86-1.81 1.53-2.79 2.03-.95-1.65-2.17-3.24-3.65-4.72-1.48-1.48-3.06-2.7-4.72-3.65.51-1 1.18-1.95 2.03-2.79Zm-16.82-.04C21.11 8.07 17.45 7.1 16.37 5.18c3.09-2.63 10.55-2.56 15.13-1.41 1.13.28 2 1.26 2.17 2.42.16 1.12.27 2.47.31 3.88-1.5.04-2.98.29-4.44.73-.11-.58-.54-1.06-1.14-1.19ZM27.25 15l4.26 4.75-1.36 3.39-4.67 1.29-4.36-4.36c.4-.48.82-.94 1.24-1.37 1.55-1.55 3.2-2.78 4.89-3.7ZM3.88 37.52c.65-.66 1.64-1.4 2.98-2.08 1.54-.79 3.14-1.29 4.56-1.51-.48 2.19-.76 4.36-.8 6.41-1.25-.31-2.39-.87-3.57-1.45-1.02-.51-2.06-1.03-3.17-1.37Zm10.17 7.32 4.32-1.54 2.33 2.33-1.53 4.3c-1.42-.37-2.57-.95-3.36-1.74-.82-.82-1.4-1.97-1.76-3.36Zm14.51 12.3c-.68 1.34-1.42 2.33-2.08 2.98-.34-1.11-.86-2.15-1.37-3.17-.58-1.17-1.13-2.3-1.44-3.54 1.94-.03 4.04-.28 6.27-.76.04 0 .08-.02.11-.03-.22 1.41-.72 2.99-1.5 4.52Zm16.74-15.5c-.42.42-.88.84-1.37 1.24l-4.36-4.36 1.29-4.67 3.39-1.36L49 36.75c-.92 1.69-2.15 3.34-3.7 4.89Zm13.52 6c-1.92-1.08-2.89-4.74-4.44-12.02-.13-.6-.61-1.03-1.19-1.14.44-1.46.69-2.95.73-4.45 1.42.04 2.76.15 3.88.31 1.17.17 2.14 1.04 2.42 2.17 1.15 4.58 1.21 12.04-1.41 15.13Z" style="stroke-width:0"/>
</svg>
