<svg xmlns="http://www.w3.org/2000/svg" data-name="Layer 1" viewBox="0 0 64 64">
  <path d="M58.82 9.83H35.27l7.99-6.39c.65-.52.75-1.46.24-2.11-.52-.65-1.46-.75-2.11-.23l-10.4 8.31L20.6 1.1c-.65-.52-1.59-.41-2.11.23-.52.65-.41 1.59.24 2.11l7.99 6.39H5.18c-3.12 0-5.66 2.54-5.66 5.67v42.07c0 3.12 2.54 5.66 5.67 5.66h53.64c3.12 0 5.66-2.54 5.66-5.66V15.5c0-3.12-2.54-5.66-5.66-5.66Zm2.66 47.74c0 1.47-1.2 2.66-2.66 2.66H5.18c-1.47 0-2.67-1.2-2.67-2.66V15.5c0-1.47 1.2-2.66 2.67-2.66h53.64c1.47 0 2.66 1.19 2.66 2.66v42.07ZM40.46 14.98H11.22c-3.82 0-6.94 3.11-6.94 6.94v29.24c0 3.82 3.11 6.94 6.94 6.94h29.24c3.82 0 6.93-3.11 6.93-6.94V21.92c0-3.82-3.11-6.94-6.93-6.94Zm3.93 36.17a3.94 3.94 0 0 1-3.93 3.94H11.22c-2.17 0-3.94-1.77-3.94-3.94V21.91c0-2.17 1.77-3.94 3.94-3.94h29.24a3.94 3.94 0 0 1 3.93 3.94v29.24Zm13.78-14.81h-7.46c-.83 0-1.5.67-1.5 1.5v16.44c0 .83.67 1.5 1.5 1.5h7.46c.83 0 1.5-.67 1.5-1.5V37.84c0-.83-.67-1.5-1.5-1.5Zm-5.96 8.48h4.46v2.48h-4.46v-2.48Zm0-5.48h4.46v2.48h-4.46v-2.48Zm4.46 13.44h-4.46V50.3h4.46v2.48Zm-2.23-27.62c2.19 0 3.96-1.78 3.96-3.96s-1.78-3.96-3.96-3.96-3.96 1.78-3.96 3.96 1.78 3.96 3.96 3.96Zm0-4.93a.96.96 0 1 1 0 1.92.96.96 0 0 1 0-1.92Zm0 14.05c2.19 0 3.96-1.78 3.96-3.96s-1.78-3.96-3.96-3.96-3.96 1.78-3.96 3.96 1.78 3.96 3.96 3.96Zm0-4.93a.96.96 0 1 1 0 1.92.96.96 0 0 1 0-1.92Z" style="stroke-width:0"/>
</svg>
