<svg xmlns="http://www.w3.org/2000/svg" data-name="Layer 1" viewBox="0 0 64 64">
  <path d="M33.5 3.16V1.67c0-.83-.67-1.5-1.5-1.5s-1.5.67-1.5 1.5v1.49C15.33 3.94 3.24 16.53 3.24 31.89c0 .83.67 1.5 1.5 1.5H30.5v23.24c0 3.97 3.23 7.21 7.21 7.21s7.21-3.23 7.21-7.21c0-.83-.67-1.5-1.5-1.5s-1.5.67-1.5 1.5c0 2.32-1.89 4.21-4.21 4.21s-4.21-1.89-4.21-4.21V33.39h25.77c.83 0 1.5-.67 1.5-1.5 0-15.36-12.1-27.94-27.27-28.73Zm-8.04 3.81c-3.66 4.7-6.14 13.29-6.36 23.42H6.28c.65-11.28 8.6-20.64 19.18-23.42Zm-3.35 23.42C22.43 18.62 26.4 6.13 32 6.13s9.58 12.49 9.89 24.26H22.11Zm22.79 0c-.22-10.13-2.7-18.72-6.36-23.42C49.12 9.75 57.07 19.1 57.72 30.39H44.89Z" style="stroke-width:0"/>
</svg>
