<svg xmlns="http://www.w3.org/2000/svg" data-name="Layer 1" viewBox="0 0 64 64">
  <path d="M32 3c15.99 0 29 13.01 29 29S47.99 61 32 61 3 47.99 3 32 16.01 3 32 3m0-3C14.33 0 0 14.33 0 32s14.33 32 32 32 32-14.33 32-32S49.67 0 32 0Zm0 10.78c2.18 0 3.96 1.78 3.96 3.96S34.18 18.7 32 18.7s-3.96-1.78-3.96-3.96 1.78-3.96 3.96-3.96m0-3c-3.84 0-6.96 3.12-6.96 6.96S28.16 21.7 32 21.7s6.96-3.12 6.96-6.96S35.84 7.78 32 7.78Zm14.44 18.74c.99 0 1.86.7 1.94 1.57.07.68-.25 1.14-.44 1.36-.19.21-.62.57-1.29.57h-5.96c-1.55 0-2.99.83-3.76 2.17-.75 1.3-.77 2.92-.06 4.24l6.89 13.93c.03.06.06.11.09.17.23.4.3.88.17 1.33-.12.45-.41.83-.83 1.07-.33.19-.62.29-.88.29-.72 0-1.51-.79-1.99-1.59l-4.01-8.25c-.03-.06-.06-.13-.1-.19-.86-1.5-2.48-2.43-4.2-2.43s-3.34.93-4.2 2.43l-.09.18-3.9 7.93c-.67 1.13-1.54 1.88-2.19 1.88-.23 0-.51-.09-.81-.26-.4-.23-.69-.61-.81-1.06-.12-.45-.06-.92.17-1.33.03-.06.06-.11.09-.17l6.84-13.84c.72-1.34.7-2.97-.06-4.29a4.397 4.397 0 0 0-3.81-2.2h-5.86a1.734 1.734 0 0 1-1.73-1.93c.08-.86.95-1.57 1.94-1.57h28.87m0-3H17.59c-2.48 0-4.69 1.81-4.93 4.28a4.745 4.745 0 0 0 4.72 5.21h5.86c1.08 0 1.75 1.17 1.21 2.1l-6.87 13.91a4.744 4.744 0 0 0 1.74 6.48c.82.47 1.59.66 2.31.66 2.16 0 3.86-1.77 4.83-3.46l3.95-8.03c.36-.62.98-.93 1.61-.93s1.25.31 1.61.93l4.06 8.36c.95 1.64 2.61 3.18 4.64 3.18.75 0 1.56-.21 2.4-.7a4.744 4.744 0 0 0 1.74-6.48l-6.92-13.99c-.52-.9.13-2.02 1.17-2.02h5.96a4.74 4.74 0 0 0 4.72-5.21c-.24-2.47-2.45-4.28-4.93-4.28Z" style="stroke-width:0"/>
</svg>
