<svg xmlns="http://www.w3.org/2000/svg" data-name="Layer 1" viewBox="0 0 64 64">
  <path d="M49.94 22.61H20.33v-7.93c0-6.44 5.24-11.67 11.67-11.67s11.67 5.24 11.67 11.67c0 .83.67 1.5 1.5 1.5s1.5-.67 1.5-1.5C46.67 6.59 40.09 0 32 0S17.33 6.58 17.33 14.67v7.93h-3.27c-2.85 0-5.16 2.32-5.16 5.16v31.06c0 2.85 2.32 5.16 5.16 5.16h35.87c2.85 0 5.16-2.32 5.16-5.16V27.76c0-2.85-2.32-5.16-5.16-5.16Zm2.16 36.22c0 1.19-.97 2.16-2.16 2.16H14.06c-1.19 0-2.16-.97-2.16-2.16V27.77c0-1.19.97-2.16 2.16-2.16h35.87c1.19 0 2.16.97 2.16 2.16v31.06ZM32 33.5c-3.36 0-6.1 2.74-6.1 6.1 0 1.14.32 2.24.92 3.2l-.88 5.68c-.13.87.12 1.75.69 2.41.57.67 1.4 1.05 2.28 1.05h6.2c.88 0 1.71-.38 2.28-1.05.57-.67.82-1.55.69-2.41l-.88-5.68c.59-.95.92-2.06.92-3.2 0-3.36-2.74-6.1-6.1-6.1Zm3.1 15.44h-6.2l1.09-7c-.66-.57-1.09-1.4-1.09-2.34 0-1.71 1.39-3.1 3.1-3.1s3.1 1.39 3.1 3.1c0 .94-.43 1.77-1.09 2.34l1.09 7Z" style="stroke-width:0"/>
</svg>
