<svg xmlns="http://www.w3.org/2000/svg" data-name="Layer 1" viewBox="0 0 64 64">
  <path d="m61.9 61.97-.33-1.11c-1.95-8-9.06-13.58-17.29-13.58H19.72c-8.23 0-15.34 5.59-17.27 13.51l-.35 1.18c-.14.45-.05.95.24 1.33.28.38.73.6 1.2.6h56.92c.47 0 .92-.22 1.2-.6.28-.38.37-.87.24-1.33ZM22.72 50.28h4.38v3.37c0 .67.44 1.25 1.08 1.44h.02l-1.54 5.81H24.4l-1.68-10.62Zm8.36 5.66.5.15a1.523 1.523 0 0 0 .84 0l.5-.15 1.31 4.96h-4.47l1.31-4.96Zm4.73-.85h.02c.64-.19 1.08-.78 1.08-1.45v-3.37h4.38l-1.68 10.62h-2.26l-1.54-5.81Zm-1.9-4.81v2.24l-1.9.56-1.9-.56v-2.24h3.8Zm-14.22 0 1.68 10.62H5.53c1.84-6.27 7.56-10.6 14.15-10.62ZM42.65 60.9l1.68-10.62c6.57.02 12.27 4.31 14.15 10.62H42.65ZM10.17 13.01l2.64 1.4.31 2.18c.17 1.21.94 2.21 2 2.69-.5 1.62-.77 3.34-.77 5.12 0 9.75 7.9 17.65 17.65 17.65s17.65-7.9 17.65-17.65c0-1.78-.28-3.5-.77-5.12a3.467 3.467 0 0 0 2-2.69l.31-2.18 2.64-1.4c.5-.26.8-.78.79-1.34 0-.56-.33-1.07-.83-1.32-.15-.07-20.11-7.48-21.8-7.48-.34 0-1.36 0-21.63 7.41a1.502 1.502 0 0 0-.42 2.59c.07.05.14.1.22.15ZM32 39.07c-8.08 0-14.65-6.57-14.65-14.65 0-1.52.24-2.98.67-4.35 2.73.65 6.54 1.54 8.94 2.01 1.67.32 3.36.49 5.04.49s3.37-.16 5.04-.49c2.4-.46 6.21-1.35 8.95-2.01.43 1.38.67 2.84.67 4.35 0 8.08-6.57 14.65-14.65 14.65Zm0-33.19c1.55.35 10.02 3.36 16.56 5.73 0 .04-.02.07-.03.1l-.63 4.45c-.03.21-.17.38-.36.42-2.29.56-7.96 1.92-11.09 2.53-2.96.57-5.97.57-8.94 0-3.14-.61-8.8-1.97-11.08-2.53a.494.494 0 0 1-.36-.42l-.63-4.45s-.02-.06-.02-.1C23.23 8.78 30.6 6.2 32 5.87Zm-4.36 7.91-.35-3.73c-.03-.34.16-.65.47-.79l3.93-1.71a.815.815 0 0 1 .62 0l3.93 1.71c.31.13.5.45.47.79l-.35 3.73c-.02.18-.1.35-.23.48l-3.58 3.5c-.15.15-.35.22-.54.22s-.39-.07-.54-.22l-3.58-3.5a.804.804 0 0 1-.23-.48Z" style="stroke-width:0"/>
</svg>
