<svg xmlns="http://www.w3.org/2000/svg" data-name="Layer 1" viewBox="0 0 64 64">
  <path d="M60.73 64H3.27c-.48 0-.93-.23-1.21-.61-.29-.38-.37-.88-.24-1.34l.36-1.19c1.95-8 9.12-13.63 17.43-13.63H44.4c8.31 0 15.48 5.64 17.45 13.71l.34 1.12c.14.46.05.95-.24 1.34-.29.38-.74.61-1.21.61ZM5.29 60.97h53.43c-1.9-6.38-7.67-10.72-14.32-10.72H19.61c-6.67 0-12.46 4.37-14.32 10.72ZM60.38 6.48 32.42.05C32.28.02 32.14 0 32 0s-.28.02-.42.05L3.62 6.48c-.85.19-1.45.95-1.45 1.82s.6 1.62 1.45 1.82l1.77.41v12.51l-2.03 7.3a1.51 1.51 0 0 0 1.46 1.92h4.17c.47 0 .92-.22 1.21-.6.29-.38.38-.87.25-1.32l-2.03-7.3V11.23l7.28 1.67v4.09a17.71 17.71 0 0 0-1.51 7.17c0 9.84 7.98 17.81 17.81 17.81s17.81-7.98 17.81-17.81c0-2.55-.55-4.98-1.51-7.17V12.9l12.08-2.78c.85-.19 1.45-.95 1.45-1.82s-.6-1.62-1.45-1.82ZM32 38.94c-8.15 0-14.79-6.63-14.79-14.79 0-2.02.41-3.95 1.15-5.71l9.83 1.13c1.68.14 2.75.21 3.81.21s2.13-.07 3.81-.21l9.83-1.13c.74 1.76 1.15 3.69 1.15 5.71 0 8.15-6.63 14.79-14.79 14.79Z" style="stroke-width:0"/>
</svg>
