<svg xmlns="http://www.w3.org/2000/svg" data-name="Layer 1" viewBox="0 0 64 64">
  <path d="M48.16 20.37c4.87 0 8.81-3.94 8.81-8.81s-3.94-8.81-8.81-8.81-8.81 3.94-8.81 8.81 3.94 8.81 8.81 8.81Zm0-14.62c3.2 0 5.81 2.61 5.81 5.81s-2.61 5.81-5.81 5.81-5.81-2.61-5.81-5.81 2.61-5.81 5.81-5.81ZM15.84 20.37c4.87 0 8.81-3.94 8.81-8.81s-3.95-8.8-8.81-8.8-8.81 3.94-8.81 8.81 3.94 8.81 8.81 8.81Zm0-14.62c3.2 0 5.81 2.61 5.81 5.81s-2.61 5.81-5.81 5.81-5.81-2.61-5.81-5.81 2.61-5.81 5.81-5.81Zm47.97 25.34-.16-.52c-1-4.11-4.77-8.35-9.36-8.35H42.03c-2.8 0-5.29 1.6-7.03 3.75-.96-.27-1.96-.43-3.01-.43s-2.06.16-3.01.43c-1.75-2.16-4.23-3.75-7.02-3.75H9.7c-4.58 0-8.36 4.25-9.34 8.28l-.18.59a1.492 1.492 0 0 0 1.43 1.93H21.6c-.37 1.1-.58 2.27-.58 3.49 0 6.05 4.91 10.96 10.96 10.96s10.96-4.91 10.96-10.96c0-1.22-.21-2.39-.58-3.49h19.99a1.492 1.492 0 0 0 1.43-1.93ZM3.69 30.02c1.06-2.49 3.39-4.8 6.02-4.8h12.26c1.57 0 3.02.83 4.17 2.03-1.15.73-2.15 1.67-2.96 2.76H3.69ZM32 44.46c-4.39 0-7.96-3.57-7.96-7.96s3.57-7.96 7.96-7.96 7.96 3.57 7.96 7.96-3.57 7.96-7.96 7.96Zm8.82-14.44a10.96 10.96 0 0 0-2.96-2.76c1.15-1.2 2.61-2.03 4.18-2.03H54.3c2.61 0 4.93 2.28 6.01 4.8H40.82ZM50.91 60c-1.17-4.78-5.52-9.87-11.28-9.87H24.38c-5.77 0-10.12 5.08-11.26 9.79l-.22.73a1.492 1.492 0 0 0 1.43 1.93h35.34a1.492 1.492 0 0 0 1.43-1.93l-.2-.66Zm-34.55-.41c1.25-3.34 4.35-6.45 8.02-6.45h15.25c3.65 0 6.74 3.08 8.02 6.45H16.36Z" style="stroke-width:0"/>
</svg>
