<svg xmlns="http://www.w3.org/2000/svg" data-name="Layer 1" viewBox="0 0 64 64">
  <path d="M61.57 60.86c-1.95-8-9.06-13.58-17.29-13.58H19.72c-8.23 0-15.34 5.59-17.27 13.51l-.35 1.18c-.14.45-.05.95.24 1.33.28.38.73.6 1.2.6h56.92c.47 0 .92-.22 1.2-.6.28-.38.37-.87.24-1.33l-.33-1.11Zm-56.04.04a14.745 14.745 0 0 1 14.19-10.62h24.56c6.59 0 12.31 4.3 14.19 10.62H5.53Zm9.28-40.43c-.3 1.27-.46 2.59-.46 3.95 0 9.75 7.9 17.65 17.65 17.65s17.65-7.9 17.65-17.65c0-1.36-.17-2.68-.47-3.95 8.26-3.18 13.16-7.99 13.16-10.49 0-.65-.27-1.23-.77-1.64-1.36-1.1-3.87-.58-9.38.57-1.88.39-4.02.83-6.32 1.24-.51-1.33-.97-2.51-1.06-2.71C41.95.22 41.55-.05 40.38-.03c-1.89.03-3.39.47-4.72.86-1.15.34-2.24.65-3.52.7-1.28-.05-2.37-.37-3.52-.7C27.3.45 25.8 0 23.91-.03c-1.16-.02-1.57.25-4.44 7.48-.08.21-.56 1.42-1.07 2.76-2.4-.42-4.64-.88-6.59-1.29-5.51-1.15-8.02-1.68-9.38-.57-.5.4-.77.98-.77 1.64 0 2.49 4.9 7.31 13.16 10.48Zm31.84 3.95c0 8.08-6.57 14.65-14.65 14.65S17.35 32.5 17.35 24.42c0-1.02.12-2 .32-2.96 4.15 1.28 8.97 2.11 14.33 2.11s10.18-.84 14.33-2.11c.2.96.32 1.94.32 2.96ZM24.62 3.02c1.15.11 2.13.4 3.17.7 1.29.38 2.63.77 4.31.83h.1c1.68-.06 3.02-.45 4.31-.83 1.03-.3 2.02-.59 3.17-.7.95 1.84 3.16 7.53 4.25 10.45-7.73 1.49-15.84 1.5-23.57 0 1.1-2.91 3.31-8.6 4.25-10.45ZM11.2 11.86c1.83.38 3.9.81 6.12 1.21-.25.67-.42 1.16-.44 1.27-.13.79.39 1.54 1.17 1.71l.78.16c4.36.91 8.84 1.37 13.33 1.37s8.97-.46 13.33-1.37l.78-.16c.78-.17 1.3-.92 1.17-1.71-.02-.11-.2-.62-.46-1.32 2.12-.39 4.09-.79 5.84-1.16 2.23-.47 4.69-.98 6.08-1.1-2.19 2.81-11.9 9.81-26.88 9.81S7.21 13.5 5.09 10.76c1.39.12 3.86.63 6.11 1.1Z" style="stroke-width:0"/>
</svg>
