<svg xmlns="http://www.w3.org/2000/svg" data-name="Layer 1" viewBox="0 0 64 64">
  <path d="M32 5.22c8.76 0 15.9 7.13 15.9 15.9s-7.13 15.9-15.9 15.9-15.9-7.13-15.9-15.9S23.23 5.22 32 5.22m0-3c-10.44 0-18.9 8.46-18.9 18.9s8.46 18.9 18.9 18.9 18.9-8.46 18.9-18.9S42.44 2.22 32 2.22Zm30.47 61.06H1.53A1.492 1.492 0 0 1 .1 61.35l.38-1.26C2.53 51.65 10.1 45.7 18.86 45.7h26.29c8.76 0 16.33 5.95 18.4 14.46l.36 1.19a1.492 1.492 0 0 1-1.43 1.93Zm-58.95-3h56.96C58.5 53.4 52.3 48.7 45.15 48.7H18.86c-7.17 0-13.39 4.73-15.33 11.58Z" style="stroke-width:0"/>
</svg>
