<svg xmlns="http://www.w3.org/2000/svg" data-name="Layer 1" viewBox="0 0 64 64">
  <path d="M50.2.1C43.59.1 38 6.72 38 14.56v19.07c0 3.67 2.29 6.81 5.5 8.04-.03 3.87-.26 6.58-.46 8.98-.21 2.54-.4 4.74-.23 7.37.21 3.42 2.58 5.9 5.64 5.9h2.97c.82 0 1.48-.66 1.48-1.48V2.53c0-1.21-.83-2.43-2.7-2.43Zm-9.25 33.53V14.56c0-6.13 4.09-11.33 8.99-11.5v36.22H46.5c-3.06 0-5.55-2.53-5.55-5.65Zm8.99 27.34h-1.5c-1.71 0-2.6-1.62-2.69-3.13-.15-2.42.02-4.42.23-6.94.19-2.23.42-4.94.47-8.66h3.49v18.74ZM16.27 16.81V1.51c0-.81.66-1.48 1.48-1.48s1.48.66 1.48 1.48v15.3c0 .82-.66 1.48-1.48 1.48s-1.48-.66-1.48-1.48Zm6.64 1.48c.82 0 1.48-.66 1.48-1.48V1.51c0-.81-.66-1.48-1.48-1.48s-1.48.66-1.48 1.48v15.3c0 .82.66 1.48 1.48 1.48Zm6.65-16.78v21.11c0 3.5-1.96 6.55-4.84 8.11.14 7.15.67 12.69 1.07 16.85.72 7.36 1.12 11.41-1.4 14.88-1.06 1.46-2.73 1.46-4.06 1.46s-3 0-4.06-1.46c-2.52-3.46-2.12-7.52-1.4-14.88.41-4.17.93-9.7 1.07-16.85a9.224 9.224 0 0 1-4.84-8.11V1.51c0-.81.66-1.48 1.48-1.48s1.48.66 1.48 1.48v21.11c0 3.46 2.82 6.28 6.28 6.28s6.28-2.82 6.28-6.28V1.51c0-.81.66-1.48 1.48-1.48s1.48.66 1.48 1.48Zm-7.77 30.21c-.48.08-.96.13-1.46.13s-.98-.05-1.46-.13c-.17 6.81-.67 12.11-1.07 16.15-.65 6.64-1.01 10.3.85 12.85.18.25.94.25 1.68.25s1.5 0 1.68-.25c1.86-2.56 1.5-6.21.85-12.85-.39-4.04-.9-9.34-1.07-16.15Z" style="stroke-width:0"/>
</svg>
