<svg xmlns="http://www.w3.org/2000/svg" data-name="Layer 1" viewBox="0 0 64 64">
  <path d="M59.1 25.33c-3.56-2.89-5.04-16.91-5.04-23.77 0-.83-.67-1.5-1.5-1.5h-9.94c-.16 0-.31.03-.45.08a1.226 1.226 0 0 0-.44.23c-.02.02-.04.03-.06.05-.11.09-.21.2-.29.32 0 .01-.01.02-.02.04-.08.12-.13.26-.17.4 0 .01-.01.02-.02.04l-.42 1.77c-1.29 2.55-5.63 4.93-8.74 4.93s-7.45-2.38-8.74-4.93l-.42-1.77-.02-.04c-.04-.14-.1-.28-.17-.4 0-.01-.01-.02-.02-.04-.08-.12-.18-.23-.29-.32-.02-.02-.04-.03-.06-.05a1.36 1.36 0 0 0-.37-.21c-.02 0-.05-.01-.07-.02a1.33 1.33 0 0 0-.45-.08h-9.94c-.83 0-1.5.67-1.5 1.5 0 6.86-1.48 20.87-5.04 23.77a1.5 1.5 0 0 0-.55 1.16v35.95c0 .83.67 1.5 1.5 1.5h52.31c.83 0 1.5-.67 1.5-1.5V26.49c0-.45-.2-.88-.55-1.16Zm-8-22.27c.16 4.74 1 19.34 5.56 24.08v3.05H37.33c.07-.35.14-.71.22-1.06l6.04-25.17c.13-.3.24-.59.33-.9h7.18Zm5.56 33.75H36.89v-2.05c0-.53.02-1.05.05-1.58h19.72v3.62ZM32.01 10.9c2.25 0 5.07-.94 7.42-2.46l-4.8 19.98c-.19.78-.74 2.92-.74 3.26v23.3c0 2.28.73 4.37 1.91 5.95h-7.57c1.18-1.58 1.91-3.66 1.91-5.95v-23.3c0-.34-.56-2.48-.74-3.26L24.6 8.44c2.35 1.52 5.17 2.46 7.42 2.46ZM20.55 36.81H7.35v-3.62h19.72c.03.52.05 1.05.05 1.58v2.05h-6.57ZM12.9 3.06h7.18c.08.31.2.61.33.9l6.04 25.17c.08.35.15.7.22 1.06H7.35v-3.05c4.55-4.74 5.4-19.34 5.56-24.08ZM7.34 39.81h5.07v21.12H7.34V39.81Zm8.07 21.12V39.81h3.62v21.12h-3.62Zm6.62 0V39.81h5.07v15.17c0 3.28-2.01 5.95-4.48 5.95h-.6Zm14.84-5.95V39.81h5.07v21.12h-.6c-2.47 0-4.48-2.67-4.48-5.95Zm8.07 5.95V39.81h3.62v21.12h-3.62Zm6.62 0V39.81h5.07v21.12h-5.07Z" style="stroke-width:0"/>
</svg>
