<svg xmlns="http://www.w3.org/2000/svg" data-name="Layer 1" viewBox="0 0 64 64">
  <path d="M63.13 17.99c-.46-.27-1.03-.27-1.49-.01l-10.73 6.01v-4.23c0-3.59-2.92-6.5-6.5-6.5H6.63c-3.59-.01-6.5 2.91-6.5 6.49v24.49c0 3.59 2.92 6.5 6.5 6.5H44.4c3.59 0 6.5-2.92 6.5-6.5v-4.23l10.73 6.01c.23.13.48.19.73.19s.52-.07.76-.21c.46-.27.74-.76.74-1.29V19.28c0-.53-.28-1.02-.74-1.29ZM47.9 44.25c0 1.93-1.57 3.5-3.5 3.5H6.63c-1.93 0-3.5-1.57-3.5-3.5V19.76c0-1.93 1.57-3.5 3.5-3.5H44.4c1.93 0 3.5 1.57 3.5 3.5v24.49Zm12.97-2.09-9.97-5.58v-9.15l9.97-5.58v20.32Zm-25.9-11.41L22.38 22.4c-.46-.31-1.05-.33-1.54-.07s-.79.77-.79 1.32v16.7c0 .55.3 1.06.79 1.32a1.498 1.498 0 0 0 1.54-.07l12.59-8.35a1.503 1.503 0 0 0 0-2.5Zm-11.92 6.8V26.44l8.37 5.55-8.37 5.55Z" style="stroke-width:0"/>
</svg>
