<svg xmlns="http://www.w3.org/2000/svg" data-name="Layer 1" viewBox="0 0 64 64">
  <path d="M57.92 15.58c0 1.07-.87 1.94-1.94 1.94s-1.94-.87-1.94-1.94.87-1.94 1.94-1.94 1.94.87 1.94 1.94Zm1.9-7.42c-1.07 0-1.94.87-1.94 1.94s.87 1.94 1.94 1.94 1.94-.87 1.94-1.94-.87-1.94-1.94-1.94ZM44.31 9.35c1.07 0 1.94-.87 1.94-1.94s-.87-1.94-1.94-1.94-1.94.87-1.94 1.94.87 1.94 1.94 1.94Zm3.84-5.48c1.07 0 1.94-.87 1.94-1.94s-.87-1.94-1.94-1.94-1.94.87-1.94 1.94.87 1.94 1.94 1.94Zm5.12 45.21a1.5 1.5 0 0 1-1.48 1.24c-.09 0-.18 0-.27-.02l-14.81-2.64c.24.5.6.96 1.09 1.3.25.18.55.32.94.44.72.22 1.17.95 1.03 1.7-.4 2.26-1.27 4.36-2.58 6.22A15.672 15.672 0 0 1 24.37 64c-1.92 0-3.81-.36-5.59-1.04l-.12.15c-.3.39-.75.6-1.2.6-.3 0-.6-.09-.86-.27l-3.77-2.64c-.66-.47-.84-1.37-.4-2.05l.1-.16C8.82 54.3 7.7 48.16 9.69 42.85l-4.57-.81c-.21.6-.76 1.01-1.39 1.01-.09 0-.18 0-.27-.02a1.51 1.51 0 0 1-1.22-1.74l.44-2.48c.15-.82.93-1.36 1.74-1.22.74.13 1.25.78 1.24 1.5l5.41.96c1.37-2.17 3.23-3.98 5.46-5.26.67-.39 1.53-.2 1.98.43.25.35.51.61.8.82 1.52 1.07 3.63.69 4.69-.83.9-1.29.78-3.06-.28-4.21-.33-.36-.47-.87-.36-1.35.36-1.61 1.01-3.1 1.94-4.42 2.03-2.9 5.21-4.81 8.73-5.23 1.76-.21 3.52-.03 5.19.49L53.36 1.5c.49-.65 1.4-.8 2.07-.33l2.62 1.84c.67.47.84 1.38.39 2.06l-13 19.77c2.97 3.89 3.44 9.3.95 13.68-1.02 1.8-2.44 3.28-4.21 4.39-.39.25-.88.3-1.31.14-1.43-.52-3.04-.02-3.9 1.22-.08.11-.13.23-.2.35l15.27 2.72c.82.15 1.36.93 1.22 1.74ZM34.65 31.69l1.84 1.29L55.13 4.63l-.23-.16-20.25 27.22Zm-20.27 8.94 19.35 3.45c.19-.53.44-1.05.78-1.53 1.49-2.13 4.12-3.11 6.62-2.55 1.1-.8 1.99-1.79 2.66-2.97 1.67-2.94 1.53-6.62-.13-9.47l-5.5 8.37c-.22.34-.57.57-.97.65a1.463 1.463 0 0 1-1.14-.24l-4.38-3.06c-.33-.23-.56-.59-.62-.99-.06-.4.04-.81.28-1.14l5.98-8.04c-.94-.18-1.9-.23-2.88-.11a9.466 9.466 0 0 0-6.62 3.97c-.57.81-1 1.71-1.29 2.67 1.5 2.16 1.54 5.11 0 7.3a6.39 6.39 0 0 1-8.88 1.57c-.2-.14-.39-.29-.57-.46-1.02.72-1.9 1.6-2.66 2.58Zm2.76 19.52 4.68-6.22-1.83-1.28-4.24 6.53 1.39.97Zm16.29-13.07-20.7-3.69c-1.77 4.13-1.12 8.99 1.54 12.55l4.05-6.24c.22-.34.57-.58.97-.66s.81.01 1.15.24l4.38 3.06c.33.23.56.59.62 1 .06.4-.04.81-.28 1.14l-4.48 5.95c1.65.51 3.4.67 5.17.46 3.58-.42 6.81-2.36 8.88-5.31a12.37 12.37 0 0 0 1.82-3.87c-.17-.09-.32-.19-.48-.3a6.365 6.365 0 0 1-2.65-4.35Z" style="stroke-width:0"/>
</svg>
