<svg xmlns="http://www.w3.org/2000/svg" data-name="Layer 1" viewBox="0 0 64 64">
  <path d="M63.87 26.87a4.984 4.984 0 0 0-4.58-4.29l-6.7-.52 4-5.41a4.979 4.979 0 0 0 .46-5.23c-.86-1.7-2.62-2.8-4.49-2.8-.83 0-1.64.21-2.4.61l-5.92 3.19.44-6.71c.09-1.41-.38-2.74-1.32-3.75a5.096 5.096 0 0 0-3.72-1.6c-1.83 0-3.47.97-4.37 2.59l-3.26 5.88-3.26-5.88c-.9-1.62-2.53-2.59-4.37-2.59-1.41 0-2.77.58-3.72 1.6-.94 1.01-1.41 2.34-1.32 3.75l.44 6.71-5.92-3.19c-.76-.41-1.56-.61-2.4-.61-1.87 0-3.63 1.1-4.49 2.8-.85 1.69-.68 3.69.46 5.23l4 5.41-6.7.52a4.984 4.984 0 0 0-4.58 4.29c-.34 2.35.97 4.57 3.19 5.41l6.29 2.39-5.36 4.06c-1.75 1.33-2.43 3.52-1.73 5.59.69 2.06 2.59 3.44 4.73 3.44.36 0 .72-.04 1.08-.11l6.58-1.39-2.31 6.32c-.57 1.57-.36 3.24.58 4.58a5.068 5.068 0 0 0 4.16 2.18c1.31 0 2.56-.52 3.51-1.46l4.78-4.73 1.47 6.56c.52 2.31 2.53 3.93 4.9 3.93s4.39-1.61 4.9-3.93l1.47-6.56 4.78 4.73c.96.94 2.2 1.46 3.51 1.46 1.65 0 3.21-.81 4.16-2.18.94-1.35 1.15-3.02.58-4.58l-2.31-6.32 6.58 1.39c.36.08.72.11 1.08.11 2.14 0 4.04-1.38 4.73-3.44.7-2.07.02-4.27-1.73-5.59l-5.36-4.06 6.29-2.39a4.999 4.999 0 0 0 3.19-5.41Zm-4.25 2.61-6.54 2.49c-2.09.79-2.49 3.58-.71 4.93l5.58 4.23c1.6 1.21.64 3.64-1.19 3.64-.15 0-.3-.02-.46-.05l-6.85-1.45a3.21 3.21 0 0 0-.6-.06c-1.91 0-3.36 1.93-2.66 3.83l2.41 6.57c.54 1.47-.64 2.73-1.92 2.73-.48 0-.98-.18-1.4-.6l-4.98-4.92c-.57-.56-1.29-.82-1.99-.82-1.26 0-2.48.83-2.79 2.23l-1.53 6.83c-.24 1.06-1.11 1.58-1.98 1.58s-1.74-.53-1.98-1.58l-1.53-6.83c-.31-1.4-1.54-2.23-2.79-2.23-.7 0-1.42.26-1.99.82l-4.98 4.92c-.42.42-.92.6-1.4.6-1.28 0-2.46-1.26-1.92-2.73l2.41-6.57c.7-1.9-.75-3.83-2.66-3.83-.2 0-.4.02-.6.06l-6.85 1.45c-.16.03-.31.05-.46.05-1.83 0-2.78-2.44-1.19-3.64l5.58-4.23c1.78-1.35 1.38-4.14-.71-4.93L4.4 29.48c-2.02-.77-1.59-3.74.56-3.91l6.98-.54c2.23-.17 3.4-2.73 2.07-4.53l-4.16-5.63c-1.06-1.44.1-3.24 1.61-3.24.32 0 .65.08.98.26l6.16 3.32c.44.24.9.34 1.35.34 1.56 0 2.96-1.3 2.84-3.04l-.46-6.98c-.09-1.33.98-2.16 2.05-2.16.67 0 1.34.32 1.74 1.05l3.39 6.12c.54.98 1.52 1.47 2.49 1.47s1.95-.49 2.49-1.47l3.39-6.12c.4-.73 1.07-1.05 1.74-1.05 1.07 0 2.14.83 2.05 2.16l-.46 6.98c-.11 1.73 1.29 3.04 2.84 3.04.45 0 .91-.11 1.35-.34l6.16-3.32c.33-.18.66-.26.98-.26 1.51 0 2.68 1.8 1.61 3.24l-4.16 5.63c-1.33 1.8-.16 4.36 2.07 4.53l6.98.54c2.16.17 2.58 3.14.56 3.91Zm-13.69-1.75c0 2.15-1.75 3.9-3.9 3.9s-3.9-1.75-3.9-3.9 1.75-3.9 3.9-3.9 3.9 1.75 3.9 3.9Zm-17.61 12c0 2.15-1.75 3.9-3.9 3.9s-3.9-1.75-3.9-3.9 1.75-3.9 3.9-3.9 3.9 1.75 3.9 3.9Zm4.68-12c0 1.29-1.05 2.34-2.34 2.34s-2.34-1.05-2.34-2.34 1.05-2.34 2.34-2.34S33 26.44 33 27.73Zm8.92 14.8c0 1.29-1.05 2.34-2.34 2.34s-2.34-1.05-2.34-2.34 1.05-2.34 2.34-2.34 2.34 1.05 2.34 2.34ZM20.97 28.71c0 1.29-1.05 2.34-2.34 2.34s-2.34-1.05-2.34-2.34 1.05-2.34 2.34-2.34 2.34 1.05 2.34 2.34Zm14.36-10c0 1.29-1.05 2.34-2.34 2.34s-2.34-1.05-2.34-2.34 1.05-2.34 2.34-2.34 2.34 1.05 2.34 2.34Z" style="stroke-width:0"/>
</svg>
