<svg xmlns="http://www.w3.org/2000/svg" data-name="Layer 1" viewBox="0 0 64 64">
  <path d="M63.3 52.84c-.15-1.78-1.09-3.41-2.66-4.59-8.09-6.12-18.26-9.5-28.63-9.5h-.03c-10.36 0-20.52 3.36-28.61 9.46C1.8 49.39.85 51.02.7 52.8c-.14 1.59.39 3.1 1.48 4.26 1.58 1.68 3.4 3.79 4.32 4.92 1.73 2.13 4.85 2.58 7.12 1.01 2.35-1.63 3.55-2.36 6.1-3.73 1.48-.79 2.28-2.4 2.01-3.99l-.42-2.47c6.4-2.27 15-2.26 21.39.01l-.42 2.47c-.27 1.6.53 3.2 2 4 2.54 1.37 3.74 2.1 6.1 3.74.91.63 1.96.94 3.01.94 1.54 0 3.08-.67 4.11-1.94.92-1.13 2.75-3.24 4.32-4.91a5.491 5.491 0 0 0 1.49-4.26Zm-3.67 2.2c-1.64 1.75-3.49 3.88-4.47 5.08-.76.94-2.09 1.12-3.08.43-2.44-1.69-3.75-2.5-6.38-3.92-.34-.18-.53-.52-.47-.85l.83-4.86-1.1-.46c-3.76-1.56-8.37-2.34-12.98-2.34s-9.19.78-12.94 2.33l-1.11.46.83 4.86c.06.32-.13.66-.47.85-2.64 1.42-3.95 2.22-6.39 3.91-1 .69-2.32.5-3.08-.44-.97-1.2-2.82-3.33-4.46-5.08-.5-.53-.74-1.22-.68-1.95.08-.92.61-1.79 1.49-2.45 7.57-5.71 17.09-8.86 26.8-8.86H32c9.72 0 19.25 3.17 26.82 8.9.88.67 1.41 1.54 1.48 2.45.06.73-.18 1.42-.68 1.95ZM25.41 21.29c.1.02.2.03.3.03h12.56c.1 0 .21-.01.3-.03 2.83-.16 5.09-2.49 5.09-5.36s-2.42-5.39-5.39-5.39-5.39 2.42-5.39 5.39c0 .86.22 1.67.58 2.39h-2.95c.36-.72.58-1.53.58-2.39 0-2.97-2.42-5.39-5.39-5.39s-5.39 2.42-5.39 5.39 2.26 5.2 5.09 5.36Zm10.47-5.36a2.39 2.39 0 1 1 4.78 0 2.39 2.39 0 0 1-4.78 0Zm-10.17-2.39a2.39 2.39 0 1 1 0 4.78 2.39 2.39 0 0 1 0-4.78ZM17.9 29.26h7.39l5.64 5.64a1.499 1.499 0 0 0 2.12 0l5.64-5.64h7.39c2.83 0 5.14-2.3 5.14-5.14V7.74c0-2.83-2.3-5.14-5.14-5.14H17.89c-2.83 0-5.14 2.3-5.14 5.14v16.38c0 2.83 2.3 5.14 5.14 5.14ZM15.76 7.74c0-1.18.96-2.14 2.14-2.14h28.19c1.18 0 2.14.96 2.14 2.14v16.38c0 1.18-.96 2.14-2.14 2.14h-8.01c-.4 0-.78.16-1.06.44L32 31.72l-5.02-5.02c-.28-.28-.66-.44-1.06-.44h-8.01c-1.18 0-2.14-.96-2.14-2.14V7.74Z" style="stroke-width:0"/>
</svg>
