<svg xmlns="http://www.w3.org/2000/svg" data-name="Layer 1" viewBox="0 0 64 64">
  <path d="M64 32C64 14.36 49.64 0 32 0c-2.5 0-4.93.3-7.26.84-.06.01-.12.02-.18.04C10.49 4.25 0 16.92 0 32c0 .8.04 1.59.1 2.38v.03c0 .1 0 .21.03.3a31.88 31.88 0 0 0 8.46 19.06c.09.12.18.22.29.31C14.71 60.18 22.92 64 32 64c6.67 0 12.86-2.05 17.99-5.56.02 0 .03-.01.05-.02.11-.06.2-.14.29-.22C58.59 52.41 64 42.82 64 31.99Zm-3 0c0 2.74-.39 5.39-1.1 7.91-1.65 1.22-4.98 1.54-9.09.85 2.86-4.38 3.54-12.09 3.15-18.09-.3-4.72-1.19-8.87-2.55-12.2C57.3 15.78 61 23.46 61 32ZM44.4 5.79c3.45 2.1 6.02 8.78 6.56 17.07.49 7.56-.92 14.56-3.38 17.19-6.1-1.65-11.69-4.87-13.85-8.09 2.75-5.4 1.82-14.71-.65-21.47-.75-2.06-2.13-5.14-4.18-7.32a28.842 28.842 0 0 1 15.5 2.62ZM12.84 41.82c-1.4 1.68-3.38 4.4-4.25 7.26-3.07-4.2-5.04-9.26-5.48-14.74.11-4.04 4.61-9.6 11.5-14.19 6.31-4.2 13.07-6.48 16.58-5.67 1.62 6.1 1.62 12.56-.08 16.04-6.07.32-13.64 5.78-18.27 11.3ZM24.89 3.89c1.89.81 3.84 3.54 5.29 7.45-5.22-.28-12.24 2.98-17.24 6.32-3.94 2.63-7.11 5.49-9.31 8.33C5.92 15.18 14.24 6.58 24.89 3.89ZM11.2 52.18c-.22-2.04 1.17-5.08 3.81-8.28 2.37 4.67 8.7 9.11 14.09 11.77 4.25 2.1 8.31 3.41 11.87 3.89-2.83.92-5.84 1.43-8.98 1.43-8.15 0-15.52-3.39-20.8-8.82Zm37.24 3.69c-3.56 1.9-10.6.78-18.01-2.88-6.79-3.36-12.15-8.07-13.2-11.52 4.47-4.46 10.04-7.69 13.93-7.95 2.93 4.5 9.96 8.03 16.46 9.64.02 0 .04.01.06.02.81.2 1.61.37 2.4.51 1.27.22 2.95.44 4.71.44 1.24 0 2.51-.11 3.72-.4a29.14 29.14 0 0 1-10.07 12.14Z" style="stroke-width:0"/>
</svg>
