<svg xmlns="http://www.w3.org/2000/svg" data-name="Layer 1" viewBox="0 0 64 64">
  <path d="M34.63 55.87c-.72 0-1.43-.22-2.04-.66L16.53 43.67H4.47c-2.48 0-4.5-2.02-4.5-4.5V24.84c0-2.48 2.02-4.5 4.5-4.5h12.06L32.59 8.8c1.07-.77 2.46-.87 3.64-.27 1.17.6 1.9 1.79 1.9 3.11v40.75c0 1.32-.73 2.51-1.9 3.11-.51.26-1.05.39-1.6.39ZM4.47 23.33c-.83 0-1.5.67-1.5 1.5v14.33c0 .83.67 1.5 1.5 1.5h12.55c.31 0 .62.1.88.28l16.45 11.83c.21.15.42.09.52.04.1-.05.27-.18.27-.44V11.63c0-.26-.17-.39-.27-.44-.1-.05-.3-.12-.52.04L17.9 23.06c-.26.18-.56.28-.88.28H4.47Zm39.26 17.26c2.6-2.12 4.09-5.26 4.09-8.61s-1.48-6.47-4.07-8.59c-.64-.53-1.59-.43-2.11.21-.53.64-.43 1.59.21 2.11 1.89 1.55 2.97 3.83 2.97 6.27s-1.09 4.74-2.99 6.29c-.64.52-.74 1.47-.22 2.11a1.497 1.497 0 0 0 2.11.21Zm5.14 6.3c4.5-3.67 7.08-9.11 7.08-14.91s-2.55-11.17-7-14.84c-.64-.53-1.58-.44-2.11.2-.53.64-.44 1.58.2 2.11 3.75 3.1 5.91 7.66 5.91 12.53s-2.18 9.48-5.98 12.58c-.64.52-.74 1.47-.21 2.11a1.497 1.497 0 0 0 2.11.21Zm5.09 6.24C60.34 47.92 64 40.21 64 31.98s-3.62-15.85-9.93-21.05c-.64-.53-1.59-.44-2.11.2-.53.64-.44 1.58.2 2.11C57.78 17.88 61 24.71 61 31.98s-3.26 14.18-8.94 18.82c-.64.52-.74 1.47-.21 2.11a1.497 1.497 0 0 0 2.11.21Z" style="stroke-width:0"/>
</svg>
