<svg xmlns="http://www.w3.org/2000/svg" data-name="Layer 1" viewBox="0 0 64 64">
  <path d="M61.82 29.58V13.93c0-2.58-2.1-4.68-4.68-4.68h-1.22a5.161 5.161 0 0 0-5.09-4.38c-.36 0-.72.04-1.08.11h-.06l-.06.03-16.75 4.24H10.05C4.71 9.24.35 13.43.03 18.68c0 .1-.03.2-.03.3v35.47c0 2.58 2.1 4.68 4.68 4.68h52.45c2.58 0 4.68-2.1 4.68-4.68V43.86c1.3-.81 2.18-2.24 2.18-3.89v-6.52c0-1.64-.88-3.08-2.18-3.89Zm-3.04 24.88c0 .91-.74 1.64-1.64 1.64H4.68c-.91 0-1.64-.74-1.64-1.64V18.99a1.62 1.62 0 0 1 .81-1.4c.25-.15.53-.24.83-.24h52.45c.91 0 1.64.74 1.64 1.64v9.89H44.46c-2.53 0-4.59 2.06-4.59 4.59v6.52c0 2.53 2.06 4.59 4.59 4.59h14.31v9.89ZM20.89 12.28l-8 2.03H5.12a7.007 7.007 0 0 1 4.92-2.03h10.84Zm24.37-3.04 5.12-1.3c.15-.03.3-.05.44-.05.87 0 1.64.54 1.96 1.34.06.16.11.32.14.5l.13 1.02.2 1.52.27 2.03H25.26l8-2.03 6-1.52 6-1.52Zm11.87 3.04c.91 0 1.64.74 1.64 1.64v.7c-.51-.19-1.06-.31-1.64-.31h-.54l-.27-2.03h.81Zm3.83 27.7c0 .52-.26.99-.66 1.27-.25.18-.56.28-.89.28H44.47c-.85 0-1.55-.69-1.55-1.55v-6.52c0-.85.69-1.55 1.55-1.55h14.94c.33 0 .63.11.89.28.4.28.66.74.66 1.27v6.52Zm-10.11-3.26c0 1.61-1.3 2.91-2.91 2.91s-2.91-1.3-2.91-2.91 1.3-2.91 2.91-2.91 2.91 1.3 2.91 2.91Zm-30.86-3.45c0 1.06 1.99 1.69 3.17 1.97 3.65.87 5.51 2.52 5.51 4.92s-1.84 4.22-4.34 4.79v5.17h-3.04v-5.17c-2.49-.57-4.34-2.5-4.34-4.79h3.04c0 1.04 1.29 1.93 2.82 1.93s2.82-.88 2.82-1.93-1.72-1.62-3.17-1.97c-3.65-.87-5.51-2.52-5.51-4.92s1.84-4.22 4.34-4.79v-5.17h3.04v5.17c2.49.57 4.34 2.5 4.34 4.79h-3.04c0-1.04-1.29-1.93-2.82-1.93s-2.82.88-2.82 1.93Z" style="stroke-width:0"/>
</svg>
