<svg xmlns="http://www.w3.org/2000/svg" data-name="Layer 1" viewBox="0 0 64 64">
  <path d="M63.13 5.51 58.5.88c-.59-.58-1.54-.59-2.12 0L40.25 17.01.87 56.37a1.49 1.49 0 0 0 0 2.12l4.63 4.63a1.499 1.499 0 0 0 2.12 0L47 23.76 63.13 7.63a1.499 1.499 0 0 0 0-2.12ZM45.94 20.58l-2.51-2.51L57.44 4.06l2.51 2.51-14.01 14.01ZM2.82 23.45l5.17 2.01c.83.31 1.49.96 1.79 1.79l1.91 5.15c.22.58.77.97 1.4.98h.01c.62 0 1.17-.38 1.4-.96l2.01-5.17c.31-.83.96-1.49 1.79-1.79l5.15-1.91c.58-.22.97-.77.98-1.4 0-.62-.38-1.18-.96-1.41l-5.18-2.01c-.83-.31-1.48-.96-1.79-1.79l-1.91-5.15c-.22-.58-.77-.97-1.4-.98-.63-.01-1.18.38-1.41.96l-2.01 5.18c-.31.83-.96 1.49-1.79 1.79l-5.15 1.91c-.58.22-.97.77-.98 1.4 0 .62.38 1.18.96 1.41Zm6.22-1.9a6.041 6.041 0 0 0 3.56-3.54l.57-1.47.54 1.44a6.041 6.041 0 0 0 3.54 3.56l1.47.57-1.45.54a6.041 6.041 0 0 0-3.56 3.54l-.57 1.47-.53-1.44a6.041 6.041 0 0 0-3.54-3.56l-1.47-.57 1.44-.54Zm49.34 24.43-5.18-2.01c-.83-.31-1.48-.96-1.79-1.79l-1.91-5.15c-.22-.58-.77-.97-1.4-.98-.63 0-1.18.38-1.41.96l-2.01 5.18c-.31.83-.96 1.48-1.79 1.79l-5.15 1.91c-.58.22-.97.77-.98 1.39 0 .62.38 1.18.96 1.41l5.17 2.01c.83.31 1.49.96 1.79 1.79l1.91 5.15c.22.58.77.97 1.4.98H48c.62 0 1.17-.38 1.4-.96l2.01-5.17c.31-.83.96-1.49 1.79-1.79l5.15-1.91c.58-.22.97-.77.98-1.39 0-.62-.38-1.18-.96-1.41Zm-6.22 1.9a6.041 6.041 0 0 0-3.56 3.54l-.57 1.47-.53-1.44a6.041 6.041 0 0 0-3.54-3.56l-1.47-.57 1.45-.53a6.041 6.041 0 0 0 3.56-3.54l.57-1.47.53 1.44a6.041 6.041 0 0 0 3.54 3.56l1.47.57-1.45.54ZM22.31 12.41l3.31 1.29c.38.14.69.44.83.83l1.22 3.29c.22.58.77.97 1.39.98h.01c.62 0 1.17-.38 1.4-.96l1.29-3.31c.14-.38.44-.69.83-.83l3.29-1.22c.58-.22.97-.77.98-1.39s-.38-1.18-.96-1.41l-3.32-1.29c-.38-.14-.68-.44-.83-.83l-1.22-3.29c-.22-.58-.77-.97-1.4-.98-.63 0-1.18.38-1.41.96l-1.29 3.31c-.14.38-.44.68-.83.83l-3.29 1.22c-.58.22-.97.77-.98 1.39 0 .62.38 1.18.96 1.41Zm6.8-3.43c.43.91 1.17 1.64 2.07 2.07-.91.44-1.64 1.17-2.07 2.06a4.422 4.422 0 0 0-2.07-2.07c.91-.44 1.64-1.17 2.07-2.07Z" style="stroke-width:0"/>
</svg>
