<svg xmlns="http://www.w3.org/2000/svg" data-name="Layer 1" viewBox="0 0 64 64">
  <path d="M54.8 22.79c-3.06 0-5.85-1.07-7.59-2.8-1.74 1.73-4.53 2.8-7.59 2.8s-5.85-1.07-7.6-2.8c-1.74 1.73-4.53 2.8-7.59 2.8s-5.85-1.07-7.59-2.8c-1.74 1.73-4.53 2.8-7.6 2.8-4.14 0-7.76-1.94-9-4.84A1.501 1.501 0 0 1 3 16.77c.75 1.75 3.38 3.02 6.25 3.02s5.44-1.22 6.23-2.98c.24-.54.78-.89 1.37-.89.59 0 1.13.35 1.37.89.79 1.75 3.35 2.98 6.23 2.98s5.44-1.22 6.23-2.98c.24-.54.78-.89 1.37-.89s1.13.35 1.37.89c.79 1.75 3.35 2.98 6.23 2.98s5.44-1.22 6.23-2.98c.24-.54.78-.89 1.37-.89s1.13.35 1.37.89c.79 1.75 3.35 2.98 6.23 2.98s5.44-1.22 6.23-2.98c.34-.76 1.23-1.09 1.98-.75.76.34 1.09 1.23.75 1.98-1.28 2.84-4.88 4.75-8.96 4.75Zm8.96 20.6a1.498 1.498 0 0 0-2.73-1.23c-.79 1.75-3.35 2.98-6.23 2.98s-5.44-1.22-6.23-2.98c-.24-.54-.78-.89-1.37-.89s-1.13.35-1.37.89c-.79 1.75-3.35 2.98-6.23 2.98s-5.44-1.22-6.23-2.98c-.24-.54-.78-.89-1.37-.89s-1.13.35-1.37.89c-.79 1.75-3.35 2.98-6.23 2.98s-5.44-1.22-6.23-2.98c-.24-.54-.78-.89-1.37-.89-.59 0-1.13.35-1.37.89-.79 1.75-3.35 2.98-6.23 2.98s-5.5-1.27-6.25-3.02a1.51 1.51 0 0 0-1.97-.79 1.51 1.51 0 0 0-.79 1.97c1.24 2.89 4.86 4.84 9 4.84 3.06 0 5.85-1.07 7.6-2.8 1.74 1.73 4.53 2.8 7.59 2.8s5.85-1.07 7.59-2.8c1.74 1.73 4.53 2.8 7.6 2.8s5.85-1.07 7.59-2.8c1.74 1.73 4.53 2.8 7.59 2.8 4.09 0 7.69-1.91 8.96-4.75Zm0-12.67a1.498 1.498 0 0 0-2.73-1.23c-.79 1.75-3.35 2.98-6.23 2.98s-5.44-1.22-6.23-2.98c-.24-.54-.78-.89-1.37-.89s-1.13.35-1.37.89c-.79 1.75-3.35 2.98-6.23 2.98s-5.44-1.22-6.23-2.98c-.24-.54-.78-.89-1.37-.89s-1.13.35-1.37.89c-.79 1.75-3.35 2.98-6.23 2.98s-5.44-1.22-6.23-2.98c-.24-.54-.78-.89-1.37-.89-.59 0-1.13.35-1.37.89-.79 1.75-3.35 2.98-6.23 2.98s-5.5-1.27-6.25-3.02a1.51 1.51 0 0 0-1.97-.79 1.51 1.51 0 0 0-.79 1.97c1.24 2.89 4.86 4.84 9 4.84 3.06 0 5.85-1.07 7.6-2.8 1.74 1.73 4.53 2.8 7.59 2.8s5.85-1.07 7.59-2.8c1.74 1.73 4.53 2.8 7.6 2.8s5.85-1.07 7.59-2.8c1.74 1.73 4.53 2.8 7.59 2.8 4.09 0 7.69-1.91 8.96-4.75Z" style="stroke-width:0"/>
</svg>
