<svg xmlns="http://www.w3.org/2000/svg" data-name="Layer 1" viewBox="0 0 64 64">
  <path d="M63.53 50.96 19.39 6.81l-2.72-2.72L13.04.47c-.56-.56-1.56-.56-2.12 0-14.5 14.5-14.5 38.11 0 52.61 7.25 7.25 16.78 10.88 26.31 10.88s19.05-3.63 26.31-10.88c.59-.59.59-1.54 0-2.12Zm-6.84-2.59c-5.35 4.83-12.21 7.48-19.47 7.48-7.76 0-15.06-3.02-20.55-8.51C5.69 36.36 5.35 18.71 15.64 7.32L56.7 48.38Zm-43.65 2.59C.06 37.98-.28 17.07 12.01 3.67l1.51 1.51C2.06 17.75 2.41 37.3 14.55 49.45c6.06 6.06 14.11 9.39 22.68 9.39 8.06 0 15.67-2.96 21.59-8.36l1.51 1.51c-13.4 12.29-34.3 11.94-47.29-1.04Zm7.8-11.27c1.35-1.35 4.36-1.4 4.49-1.4.09 0 .2.04.27.11s.11.17.11.27c0 .13-.05 3.13-1.4 4.49-.67.67-1.36 1.02-2.05 1.06h-.12c-.6 0-1.17-.25-1.64-.72-.84-.84-1.19-2.28.34-3.81Zm-4.02-15.85c-.84-.84-1.19-2.28.34-3.81 1.35-1.35 4.36-1.4 4.49-1.4.09 0 .2.04.27.11s.11.17.11.27c0 .13-.05 3.13-1.4 4.49-.76.76-1.5 1.06-2.16 1.06s-1.23-.3-1.65-.72Zm23.33 23.33c-.5-.5-.75-1.11-.72-1.75.04-.7.39-1.39 1.06-2.05 1.35-1.35 4.36-1.4 4.49-1.4.11 0 .2.04.27.11s.11.17.11.27c0 .13-.05 3.13-1.4 4.49-.67.67-1.36 1.02-2.05 1.06h-.12c-.6 0-1.17-.25-1.64-.72Z" style="stroke-width:0"/>
</svg>
