<svg xmlns="http://www.w3.org/2000/svg" data-name="Layer 1" viewBox="0 0 64 64">
  <path d="M1.59 39.57c-.83 0-1.5-.67-1.5-1.5V25.93c0-.83.67-1.5 1.5-1.5s1.5.67 1.5 1.5v12.14c0 .83-.67 1.5-1.5 1.5Zm7.03 2.04V22.4c0-.83-.67-1.5-1.5-1.5s-1.5.67-1.5 1.5v19.21c0 .83.67 1.5 1.5 1.5s1.5-.67 1.5-1.5Zm5.53 5.26V17.13c0-.83-.67-1.5-1.5-1.5s-1.5.67-1.5 1.5v29.74c0 .83.67 1.5 1.5 1.5s1.5-.67 1.5-1.5Zm5.53 6.26V10.86c0-.83-.67-1.5-1.5-1.5s-1.5.67-1.5 1.5v42.27c0 .83.67 1.5 1.5 1.5s1.5-.67 1.5-1.5ZM25.21 49V14.99c0-.83-.67-1.5-1.5-1.5s-1.5.67-1.5 1.5v34.02c0 .83.67 1.5 1.5 1.5s1.5-.67 1.5-1.5Zm5.53 9.38V5.61c0-.83-.67-1.5-1.5-1.5s-1.5.67-1.5 1.5v52.78c0 .83.67 1.5 1.5 1.5s1.5-.67 1.5-1.5Zm5.53-10.27V15.89c0-.83-.67-1.5-1.5-1.5s-1.5.67-1.5 1.5v32.23c0 .83.67 1.5 1.5 1.5s1.5-.67 1.5-1.5Zm5.53-6.51V22.39c0-.83-.67-1.5-1.5-1.5s-1.5.67-1.5 1.5V41.6c0 .83.67 1.5 1.5 1.5s1.5-.67 1.5-1.5Zm5.53-4.62V27c0-.83-.67-1.5-1.5-1.5s-1.5.67-1.5 1.5v9.98c0 .83.67 1.5 1.5 1.5s1.5-.67 1.5-1.5Zm5.53 9.88V17.12c0-.83-.67-1.5-1.5-1.5s-1.5.67-1.5 1.5v29.74c0 .83.67 1.5 1.5 1.5s1.5-.67 1.5-1.5Zm5.53-5.26V22.39c0-.83-.67-1.5-1.5-1.5s-1.5.67-1.5 1.5V41.6c0 .83.67 1.5 1.5 1.5s1.5-.67 1.5-1.5Zm5.53-3.54V25.92c0-.83-.67-1.5-1.5-1.5s-1.5.67-1.5 1.5v12.14c0 .83.67 1.5 1.5 1.5s1.5-.67 1.5-1.5Z" style="stroke-width:0"/>
</svg>
