<svg xmlns="http://www.w3.org/2000/svg" data-name="Layer 1" viewBox="0 0 64 64">
  <path d="M63.76 41.15c-1.28 2.84-4.88 4.75-8.96 4.75-3.06 0-5.85-1.07-7.59-2.8-1.74 1.73-4.53 2.8-7.59 2.8s-5.85-1.07-7.6-2.8c-1.74 1.73-4.53 2.8-7.59 2.8s-5.85-1.07-7.59-2.8c-1.74 1.73-4.53 2.8-7.6 2.8-4.14 0-7.76-1.94-9-4.84A1.501 1.501 0 0 1 3 39.88c.75 1.75 3.38 3.02 6.25 3.02s5.44-1.22 6.23-2.98a1.503 1.503 0 0 1 2.74.01c.79 1.75 3.35 2.98 6.23 2.98s5.44-1.22 6.23-2.98a1.503 1.503 0 0 1 2.74-.01c.79 1.75 3.35 2.98 6.23 2.98s5.44-1.22 6.23-2.98c.24-.54.78-.88 1.37-.88s1.13.35 1.37.88c.79 1.75 3.35 2.98 6.23 2.98s5.44-1.22 6.23-2.98c.34-.76 1.23-1.09 1.98-.75.76.34 1.09 1.23.75 1.98ZM9.23 25.91c3.06 0 5.85-1.07 7.6-2.8 1.52 1.51 3.83 2.51 6.42 2.75-.32.37-.63.74-.94 1.1-1.73 2.03-3.36 3.94-5.18 5.29-2.57 1.89-4.73 1.98-5.89 1.42-.56-.26-.75-.6-.75-.73 0-.07.11-.21.34-.35.41-.24.67-.66.72-1.13.05-.47-.12-.94-.47-1.26-2.4-2.23-7.16-.58-10.42 2.11-.64.53-.73 1.47-.2 2.11.53.64 1.47.73 2.11.2 1.86-1.54 3.73-2.25 5-2.42-.07.28-.1.58-.08.88.06 1.36.98 2.59 2.46 3.29 2.53 1.2 5.88.56 8.96-1.72 2.1-1.55 3.92-3.69 5.68-5.75 3.42-4.01 6.65-7.8 11.78-7.8 2.42 0 4.57.78 5.94 2.05-2.69 0-4.99.89-6.51 2.64-1.52 1.75-1.97 4.09-1.17 6.1.74 1.87 2.42 3.34 4.6 4.04 2.55.82 5.39.46 7.58-.95l.59-.38c1.95-1.27 3.33-2.12 4.52-2.29-.08.31-.1.64-.08.98.1 1.38 1.07 2.61 2.58 3.28.8.36 1.68.53 2.6.53 2.01 0 4.23-.84 6.3-2.44.65-.51.77-1.45.27-2.1-.51-.65-1.45-.77-2.1-.27-2.5 1.94-4.66 2.07-5.84 1.54-.57-.25-.79-.59-.81-.76 0-.12.15-.31.41-.47a1.51 1.51 0 0 0-.09-2.59c-3.36-1.84-6.29.06-9.39 2.07l-.58.38c-1.45.93-3.33 1.16-5.04.62-1.32-.42-2.32-1.26-2.73-2.29-.38-.96-.13-2.12.65-3.02 1.33-1.53 3.79-2 6.76-1.28.51.12 1.06-.03 1.43-.41.37-.38.51-.92.38-1.44-.07-.28-.17-.54-.27-.81.31-.23.6-.46.86-.72 1.74 1.73 4.53 2.8 7.59 2.8 4.09 0 7.69-1.91 8.96-4.75a1.498 1.498 0 0 0-2.73-1.23c-.79 1.75-3.35 2.98-6.23 2.98s-5.44-1.22-6.23-2.98c-.24-.54-.78-.89-1.37-.89s-1.13.35-1.37.89c-.23.52-.64.98-1.14 1.39-1.92-1.99-4.94-3.22-8.33-3.22-4.3 0-7.51 2.05-10.21 4.64-.56.1-1.14.16-1.73.16-2.88 0-5.44-1.22-6.23-2.98-.24-.54-.78-.89-1.37-.89s-1.13.35-1.37.89c-.79 1.75-3.35 2.98-6.23 2.98s-5.5-1.27-6.25-3.02a1.51 1.51 0 0 0-1.97-.79 1.51 1.51 0 0 0-.79 1.97c1.24 2.89 4.86 4.84 9 4.84Z" style="stroke-width:0"/>
</svg>
