<svg xmlns="http://www.w3.org/2000/svg" data-name="Layer 1" viewBox="0 0 64 64">
  <path d="M36.57 58.67h-.01c-.77 0-1.41-.6-1.48-1.36l-3.09-33.96-3.09 33.96a1.49 1.49 0 0 1-1.48 1.36c-.78.02-1.42-.57-1.5-1.34l-3.23-30.5-2.97 23.54c-.09.74-.72 1.3-1.47 1.31h-.02c-.74 0-1.37-.54-1.48-1.28l-3.26-21.64-2.95 15.71c-.13.7-.74 1.21-1.45 1.22h-.02c-.7 0-1.31-.49-1.46-1.18l-2.03-9.28H1.51c-.83 0-1.5-.67-1.5-1.5s.67-1.5 1.5-1.5h5.25c.71 0 1.31.49 1.46 1.18l.71 3.26 3.22-17.16c.13-.71.75-1.22 1.47-1.22h.03a1.5 1.5 0 0 1 1.46 1.28l2.97 19.68 3.23-25.63c.1-.76.72-1.32 1.5-1.31.76 0 1.4.58 1.48 1.34l2.99 28.22 3.21-35.18c.07-.77.72-1.36 1.49-1.36s1.42.59 1.49 1.36l3.21 35.18 2.99-28.22c.08-.76.71-1.33 1.48-1.34h.01c.75 0 1.39.56 1.49 1.31l3.23 25.64 2.97-19.69c.11-.72.72-1.26 1.46-1.28h.03c.72 0 1.34.51 1.47 1.22l3.23 17.18.72-3.27c.15-.69.76-1.18 1.46-1.18h5.25c.83 0 1.5.67 1.5 1.5s-.67 1.5-1.5 1.5h-4.05l-2.04 9.28a1.5 1.5 0 0 1-1.49 1.18c-.71-.01-1.32-.52-1.45-1.22l-2.96-15.72-3.27 21.65c-.11.73-.74 1.28-1.48 1.28h-.02c-.75 0-1.38-.57-1.47-1.31l-2.97-23.55-3.23 30.5c-.08.76-.72 1.34-1.49 1.34Z" style="stroke-width:0"/>
</svg>
