<svg xmlns="http://www.w3.org/2000/svg" data-name="Layer 1" viewBox="0 0 64 64">
  <path d="M62.34 36.71h-5.48c2.96-4.03 5.25-8.3 6.3-13.13 2.89-13.17-3.96-20.26-10.7-22.33-6.82-2.1-15.79.1-20.47 7.92C27.33 1.35 18.36-.85 11.53 1.24 4.8 3.31-2.05 10.4.84 23.58c1.06 4.82 3.34 9.09 6.3 13.13H1.66c-.83 0-1.5.67-1.5 1.5s.67 1.5 1.5 1.5h7.83c2.75 3.31 5.89 6.51 9.11 9.78 4.12 4.19 8.39 8.53 12.22 13.45.28.37.72.58 1.18.58s.9-.21 1.18-.58c3.83-4.93 8.09-9.26 12.22-13.45 3.22-3.27 6.35-6.47 9.11-9.78h7.83c.83 0 1.5-.67 1.5-1.5s-.67-1.5-1.5-1.5ZM3.77 22.94C1.32 11.77 6.63 5.89 12.42 4.11c1.33-.41 2.76-.62 4.21-.62 5.45 0 11.32 2.96 13.98 9.61a1.499 1.499 0 0 0 2.78 0c3.37-8.44 11.89-10.93 18.19-9 5.79 1.78 11.1 7.66 8.65 18.82-1.11 5.07-3.7 9.48-7.13 13.77h-9.67l-3.03-7.86a1.52 1.52 0 0 0-1.44-.96c-.63.02-1.19.43-1.39 1.03l-4.75 14.58-5.48-27.25a1.499 1.499 0 0 0-2.94.01L20.32 36.7h-9.44C7.45 32.41 4.86 28 3.75 22.93Zm39.5 24.44c-3.77 3.83-7.65 7.78-11.26 12.23-3.61-4.45-7.5-8.4-11.26-12.23-2.59-2.64-5.07-5.16-7.31-7.67h8.14a1.5 1.5 0 0 0 1.47-1.21l2.85-14.32 5.13 25.5c.13.67.7 1.16 1.38 1.2h.09c.65 0 1.22-.42 1.43-1.04l5.21-15.99 1.88 4.88c.22.58.78.96 1.4.96h8.16c-2.24 2.52-4.71 5.04-7.31 7.67Z" style="stroke-width:0"/>
</svg>
