<svg xmlns="http://www.w3.org/2000/svg" data-name="Layer 1" viewBox="0 0 64 64">
  <path d="m63.42 61.3-6.58-6.58c3.03-3.41 4.41-6.96 4.07-10.55-.56-5.94-5.68-10.59-9.88-13.45-.02-.01-.03-.02-.05-.03a1.5 1.5 0 0 0-2.27.87l-.12.29c-1.98 4.92-2.86 8.93-2.65 11.97l-3.46-3.46c3.03-3.41 4.41-6.96 4.07-10.55-.56-5.94-5.67-10.59-9.88-13.45-.02-.01-.04-.03-.06-.04a1.494 1.494 0 0 0-2.26.87c-.03.07-.07.17-.12.3-1.98 4.92-2.86 8.92-2.65 11.97L28.12 26c3.03-3.41 4.41-6.96 4.07-10.55C31.63 9.51 26.51 4.86 22.31 2c-.02-.01-.03-.02-.05-.03a1.5 1.5 0 0 0-2.27.87l-.12.29c-1.98 4.92-2.86 8.93-2.65 11.97l-2.07-2.07c.66-2.15-.19-5.21-.93-6.57C10.65-.12 4.7.08 2.16.17h-.4s-.08.01-.09.01C.85.19.19.94.18 1.76v.4c-.1 2.54-.3 8.49 6.27 12.06 1.02.56 2.99 1.17 4.82 1.17.61 0 1.21-.08 1.75-.25l2.07 2.07c-3.04-.2-7.05.68-11.97 2.65-.13.05-.23.09-.29.12a1.5 1.5 0 0 0-.87 2.27c.01.02.02.04.04.05 2.86 4.2 7.51 9.32 13.45 9.88.36.03.72.05 1.08.05 3.23 0 6.4-1.39 9.48-4.11l3.46 3.46c-3.04-.2-7.05.68-11.97 2.65-.13.05-.23.09-.29.12a1.5 1.5 0 0 0-.87 2.27c.01.02.02.03.03.05 2.86 4.2 7.51 9.32 13.45 9.88.36.03.72.05 1.08.05 3.23 0 6.4-1.39 9.48-4.11l3.46 3.46c-3.04-.2-7.05.68-11.97 2.65-.13.05-.23.09-.29.12-.15.04-.3.11-.44.2-.69.45-.88 1.38-.43 2.07.01.02.02.04.04.05 2.86 4.2 7.51 9.31 13.45 9.88.36.03.72.05 1.08.05 3.23 0 6.4-1.39 9.48-4.11l6.57 6.57c.29.29.68.44 1.06.44s.77-.15 1.06-.44c.59-.59.59-1.54 0-2.12Zm-12.55-27c3.28 2.49 6.67 6.02 7.06 10.16.25 2.69-.82 5.42-3.19 8.15l-.04-.04c-2.77-2.74-4.44-4.39-5.45-7.24-.56-1.6-.71-4.79 1.62-11.03ZM36.51 19.94c3.28 2.49 6.67 6.02 7.06 10.16.25 2.69-.82 5.42-3.19 8.15l-.04-.04c-2.77-2.74-4.44-4.39-5.45-7.24-.56-1.6-.71-4.79 1.62-11.03ZM22.15 5.58c3.28 2.49 6.67 6.02 7.06 10.16.25 2.69-.82 5.42-3.19 8.15l-.03-.03c-2.77-2.74-4.44-4.4-5.45-7.25-.56-1.6-.71-4.79 1.62-11.03Zm-6.41 23.63c-4.13-.39-7.67-3.78-10.16-7.06 6.24-2.33 9.43-2.19 11.03-1.62 2.85 1.01 4.5 2.68 7.25 5.45l.03.03c-2.73 2.37-5.46 3.45-8.15 3.19ZM7.89 11.58C3.52 9.21 3.12 5.56 3.14 3.14c2.42-.03 6.07.37 8.44 4.74.77 1.42.97 3.74.68 4.37-.63.3-2.95.1-4.37-.68ZM30.1 43.56c-4.14-.39-7.67-3.78-10.16-7.06 6.24-2.33 9.43-2.19 11.03-1.62 2.85 1.01 4.5 2.68 7.24 5.45l.03.03c-2.73 2.37-5.46 3.45-8.15 3.19Zm14.36 14.36c-4.14-.39-7.67-3.78-10.16-7.06 6.23-2.33 9.43-2.19 11.03-1.62 2.85 1.01 4.5 2.68 7.25 5.45l.03.03c-2.73 2.37-5.46 3.45-8.15 3.19Z" style="stroke-width:0"/>
</svg>
