<svg xmlns="http://www.w3.org/2000/svg" data-name="Layer 1" viewBox="0 0 64 64">
  <path d="M27.34 3a4.09 4.09 0 0 1 3.92 2.98c.6 2.17-.67 4.42-2.83 5.03-.36.1-.73.15-1.1.15a4.09 4.09 0 0 1-3.92-2.98c-.6-2.17.67-4.42 2.83-5.03.36-.1.73-.15 1.1-.15m0-3a7.08 7.08 0 1 0 6.81 5.18A7.072 7.072 0 0 0 27.34 0ZM49.5 58.59c-2.2 0-4.28-1.26-5.27-3.37l-3.82-8.18-9.05.89c-2.34.22-4.61-.48-6.41-1.97a8.7 8.7 0 0 1-3.14-5.92l-1.61-16.9c-.17-1.79.37-3.53 1.51-4.92a6.639 6.639 0 0 1 4.54-2.4l4.82-.48c2.5-.23 4.95.75 6.59 2.63l4.2 4.83 4.68-.4c1.73-.15 3.4.61 4.42 2.04a4.889 4.889 0 0 1 .52 4.84c-.77 1.79-2.4 2.95-4.29 3.1-1.93.16-4.09.37-6.25.6-2.27.25-4.47-.6-5.97-2.29l.58 4.43 6.8-.64a7.597 7.597 0 0 1 7.76 4.65l4.77 11.38c.62 1.49.61 3.12-.04 4.6a5.792 5.792 0 0 1-3.37 3.14 5.8 5.8 0 0 1-1.99.35Zm-8.17-14.65c.58 0 1.11.33 1.36.87l4.26 9.14a2.83 2.83 0 0 0 3.52 1.47 2.823 2.823 0 0 0 1.66-3.75l-4.77-11.38a4.623 4.623 0 0 0-4.71-2.82l-8.25.78c-.8.07-1.53-.5-1.63-1.3L31.32 25.8c-.09-.67.28-1.31.9-1.57s1.34-.08 1.76.44l3.11 3.87A3.962 3.962 0 0 0 40.64 30c2.19-.24 4.38-.45 6.33-.61.79-.06 1.45-.52 1.75-1.22.31-.72.24-1.41-.17-1.98s-1.04-.86-1.73-.8l-5.44.46c-.47.04-.94-.15-1.26-.51l-4.7-5.4c-1-1.15-2.52-1.76-4.04-1.62l-4.82.48c-1 .09-1.89.57-2.53 1.33a3.73 3.73 0 0 0-.84 2.72l1.61 16.9a5.75 5.75 0 0 0 2.06 3.89c1.18.98 2.69 1.44 4.21 1.29l10.11-1h.15Zm5.36-20.05Zm-6.85 27.23a1.499 1.499 0 1 0-2.82-1.02c-2.34 6.45-8.52 10.79-15.39 10.79-9.02 0-16.36-7.34-16.36-16.36 0-7.41 4.99-13.91 12.14-15.81.8-.21 1.28-1.03 1.06-1.83a1.49 1.49 0 0 0-1.83-1.06C8.18 28.08 2.26 35.77 2.26 44.54c0 10.67 8.68 19.36 19.36 19.36 8.13 0 15.44-5.13 18.21-12.77Z" style="stroke-width:0"/>
</svg>
