<svg xmlns="http://www.w3.org/2000/svg" data-name="Layer 1" viewBox="0 0 64 64">
  <path d="M55.67 56.47h-3.32c.18-.08.37-.17.54-.27 2.4-1.39 3.23-4.47 1.84-6.87s-5.75-9.96-5.75-9.96a6.127 6.127 0 0 0-5.29-3.06h-2.32a6.653 6.653 0 0 0-1.93-4.34c1.03-.84 1.71-2.11 1.71-3.54 0-2.53-2.06-4.59-4.59-4.59h-1.87v-.35c0-3.53-2.87-6.39-6.39-6.39h-1.48c-3.53 0-6.39 2.87-6.39 6.39v3.92c0 .94.24 1.83.65 2.61h-1.21V16.21c0-.83-.67-1.5-1.5-1.5H9.58c-.83 0-1.5.67-1.5 1.5v4.48c0 .83.67 1.5 1.5 1.5h7.29v13.08c-7.2.75-12.84 6.86-12.84 14.26 0 7.91 6.43 14.34 14.34 14.34 7.4 0 13.51-5.63 14.26-12.84h6.85l1.64 2.77a5.927 5.927 0 0 0-1.71 4.15c0 3.26 2.66 5.92 5.92 5.92 2.74 0 5.05-1.88 5.72-4.42h4.65c.83 0 1.5-.67 1.5-1.5s-.67-1.5-1.5-1.5Zm-12-4.18-2.08-3.5c-.06-.1-.13-.18-.21-.26v-1.88h.29l3.06 5.44c-.37.03-.72.11-1.06.21Zm2.71-11.41 5.75 9.96a2.027 2.027 0 1 1-3.52 2.01l-4.75-8.44c-.27-.47-.77-.76-1.31-.76h-1.17v-4.32h2.3c1.11 0 2.14.6 2.7 1.56ZM23.4 27.42V23.5c0-1.87 1.52-3.39 3.39-3.39h1.48c1.87 0 3.39 1.52 3.39 3.39v.35h-3.79c-.83 0-1.5.67-1.5 1.5s.67 1.5 1.5 1.5h8.66c.88 0 1.59.71 1.59 1.59s-.71 1.59-1.59 1.59H26c-1.44 0-2.61-1.17-2.61-2.61Zm2.61 5.61h8.71a3.66 3.66 0 0 1 3.66 3.65v11.36H32.6c-.7-6.71-6.05-12.06-12.76-12.76v-2.26h6.17ZM11.05 19.21v-1.48h5.79v1.48h-5.79Zm7.29 41.68C12.09 60.89 7 55.8 7 49.55s5.09-11.34 11.34-11.34 11.34 5.09 11.34 11.34-5.09 11.34-11.34 11.34Zm26.96 0c-1.61 0-2.92-1.31-2.92-2.92s1.31-2.92 2.92-2.92 2.92 1.31 2.92 2.92-1.31 2.92-2.92 2.92ZM27.89 15.77c3.92 0 7.1-3.18 7.1-7.1s-3.18-7.1-7.1-7.1-7.1 3.18-7.1 7.1 3.18 7.1 7.1 7.1Zm0-11.21c2.26 0 4.1 1.84 4.1 4.1s-1.84 4.1-4.1 4.1-4.1-1.84-4.1-4.1 1.84-4.1 4.1-4.1Z" style="stroke-width:0"/>
</svg>
