<svg xmlns="http://www.w3.org/2000/svg" data-name="Layer 1" viewBox="0 0 64 64">
  <path d="M32 53.96c-1.96 0-3.92-.75-5.41-2.24-2.98-2.98-2.98-7.84 0-10.82 1.45-1.45 3.37-2.24 5.41-2.24s3.97.8 5.41 2.24c2.98 2.98 2.98 7.84 0 10.82A7.632 7.632 0 0 1 32 53.96Zm0-12.3c-1.24 0-2.41.48-3.29 1.36a4.666 4.666 0 0 0 0 6.58 4.666 4.666 0 0 0 6.58 0 4.666 4.666 0 0 0 0-6.58A4.622 4.622 0 0 0 32 41.66Zm0-15.19c7.22 0 14 3 19.14 8.47.12.13.11.34-.02.46l-1.96 1.81c-.06.05-.13.08-.21.08-.08 0-.17-.03-.23-.1-4.51-4.78-10.43-7.41-16.72-7.41s-12.22 2.63-16.73 7.41c-.06.07-.15.1-.23.1-.07 0-.15-.03-.21-.08l-1.96-1.81a.33.33 0 0 1-.02-.46c5.14-5.46 11.92-8.47 19.14-8.47m0-3c-8.05 0-15.62 3.34-21.33 9.41-.6.64-.93 1.51-.9 2.4s.42 1.73 1.07 2.32l1.96 1.81a3.312 3.312 0 0 0 4.65-.17c3.93-4.17 9.1-6.47 14.54-6.47s10.61 2.3 14.54 6.47a3.312 3.312 0 0 0 4.65.17l1.96-1.81c.65-.59 1.04-1.44 1.07-2.32.03-.88-.3-1.76-.9-2.4-5.7-6.07-13.28-9.41-21.32-9.41Zm0-11.93c10.89 0 21.12 4.56 28.85 12.84.12.13.11.33-.02.45l-1.96 1.81c-.06.05-.13.08-.21.08-.08 0-.17-.03-.23-.1-7.1-7.6-16.48-11.78-26.44-11.78S12.65 19.02 5.54 26.62c-.06.07-.15.1-.23.1-.07 0-.15-.03-.21-.08l-1.96-1.81c-.13-.12-.14-.33-.02-.45 7.73-8.28 17.97-12.84 28.85-12.84m0-3c-11.72 0-22.74 4.9-31.05 13.79-.6.64-.92 1.51-.89 2.39.03.88.42 1.72 1.07 2.32l1.96 1.81a3.312 3.312 0 0 0 4.66-.18c6.53-6.99 15.14-10.83 24.25-10.83s17.72 3.85 24.24 10.83a3.312 3.312 0 0 0 4.66.18l1.96-1.81c.66-.6 1.03-1.43 1.07-2.32a3.3 3.3 0 0 0-.89-2.39C54.7 13.43 43.68 8.54 31.96 8.54Z" style="stroke-width:0"/>
</svg>
