<svg xmlns="http://www.w3.org/2000/svg" data-name="Layer 1" viewBox="0 0 64 64">
  <path d="M26.39 44.94c-.27.55-.82.86-1.39.86-.23 0-.47-.05-.69-.16a21.072 21.072 0 0 1-7.72-6.56c-.5-.69-.34-1.66.35-2.17.69-.5 1.66-.34 2.17.35 1.71 2.37 3.98 4.31 6.58 5.59.77.38 1.08 1.31.7 2.08Zm-1.52 4.01a23.72 23.72 0 0 1-10.55-8.23c-.5-.7-1.47-.85-2.17-.35s-.85 1.47-.35 2.17c3.02 4.19 7.14 7.41 11.93 9.3a1.543 1.543 0 0 0 2.01-.87c.32-.8-.07-1.7-.87-2.01Zm20.67-16.48c2.12 3.46 4.85 12.99 5.05 17.59a3.108 3.108 0 0 1-3.1 3.24 3.1 3.1 0 0 1-2.67-1.52L38.21 40.6l.97 21.78A1.551 1.551 0 0 1 37.63 64h-7.95c-.42 0-.83-.17-1.12-.48s-.45-.72-.43-1.14l1.38-30.88c-1.79 1.29-3.97 2.68-6.71 2.75h-.28c-4.21 0-13.51-2.36-17.47-4.43a3.104 3.104 0 0 1-1.58-3.47 3.109 3.109 0 0 1 2.98-2.38l21.82-.22a6.211 6.211 0 0 1 3.4-2.81c-.23-2.21-.37-4.82.96-7.26C34.56 10.13 41.41 3.03 45.3.54c.43-.29.95-.47 1.5-.5h.24c1.7.01 3.08 1.4 3.08 3.1 0 .59-.17 1.15-.46 1.62L39 23.67c.74 1.25 1.05 2.76.76 4.3 0 .02-.01.04-.02.06 2.03.91 4.36 2.09 5.81 4.46ZM34.76 20.7h.05c.68.13 1.31.37 1.89.7L47.01 3.13C43.46 5.38 37 12.15 35.36 15.16c-.91 1.67-.79 3.68-.59 5.55Zm-1.68 9.14c.19.04.39.05.58.05 1.46 0 2.76-1.04 3.04-2.52a3.1 3.1 0 0 0-2.47-3.62c-.19-.04-.39-.05-.58-.05-1.46 0-2.76 1.04-3.04 2.52a3.1 3.1 0 0 0 2.47 3.62Zm-5.25-.95c-.24-.65-.36-1.33-.37-2.03l-20.97.22c3.65 1.91 12.47 4.07 16.04 4.07h.2c1.9-.05 3.58-1.16 5.1-2.26Zm7.02 6.02-1.13-1.92h-.05c-.37 0-.74-.04-1.11-.1l-1.25 28h4.71l-1.16-25.98Zm12.64 15.28c-.18-4.2-2.8-13.18-4.59-16.1-.99-1.62-2.8-2.52-4.51-3.29-.45.53-.98.98-1.58 1.33l10.68 18.06Zm.71-36.46c-.68.52-.81 1.49-.29 2.17a17.92 17.92 0 0 1 2.1 18.26c-.35.78 0 1.7.78 2.05a1.54 1.54 0 0 0 2.05-.77 21.004 21.004 0 0 0-2.47-21.42c-.52-.68-1.49-.81-2.17-.29Zm4.77-5.72a1.548 1.548 0 1 0-2.22 2.16c6.87 7.06 8.69 17.43 4.65 26.42-.35.78 0 1.7.78 2.05a1.54 1.54 0 0 0 2.05-.77C62.81 27.72 60.75 16 52.98 8.02ZM31.56 5.87c-7.7.77-14.34 5.7-17.32 12.84-.33.79.04 1.7.84 2.03a1.552 1.552 0 0 0 2.03-.83c2.54-6.1 8.2-10.29 14.76-10.95.85-.09 1.47-.85 1.39-1.7s-.83-1.48-1.7-1.39ZM8.81 21.39a1.548 1.548 0 0 0 1.91-1.07C13.4 10.84 21.47 4.08 31.28 3.09c.85-.09 1.47-.85 1.39-1.7-.09-.85-.85-1.47-1.7-1.39-11.08 1.12-20.2 8.77-23.23 19.48-.23.82.25 1.68 1.07 1.91Z" style="stroke-width:0"/>
</svg>
