<svg xmlns="http://www.w3.org/2000/svg" data-name="Layer 1" viewBox="0 0 64 64">
  <path d="M10.4 63.72h-.04a10.24 10.24 0 0 1-7.27-3.04c-1.94-1.95-3-4.54-2.99-7.29a10.24 10.24 0 0 1 3.04-7.27c2.14-2.12 5.25-3.14 8.46-2.78l25.18-24.91c-1.5-5-.22-10.4 3.4-13.99C44.27.38 50.21-.82 55.32 1.36c.46.2.79.61.89 1.1.09.49-.06 1-.42 1.35l-6.96 6.91.19 4.77 4.73.19 6.97-6.91c.37-.37.9-.51 1.41-.39.5.12.91.49 1.08.99 1.69 5.09.3 11.2-3.38 14.85-3.65 3.62-9 4.92-13.87 3.43l-25.27 25c.23 3-.87 5.97-3.01 8.09a10.222 10.222 0 0 1-7.25 2.99Zm-.06-17.46c-1.96 0-3.79.7-5.08 1.98a7.267 7.267 0 0 0-2.16 5.15c0 1.95.74 3.78 2.12 5.17a7.267 7.267 0 0 0 5.15 2.16h.03c1.94 0 3.76-.75 5.14-2.12a7.28 7.28 0 0 0 2.06-6.29c-.07-.47.09-.96.43-1.29l26.45-26.17c.42-.41 1.04-.54 1.59-.33 4.01 1.54 8.57.58 11.62-2.44 2.31-2.29 3.47-5.84 3.17-9.24l-5.47 5.43c-.3.29-.7.45-1.12.43l-6.76-.27c-.78-.03-1.41-.66-1.44-1.44l-.27-6.81c-.02-.42.14-.83.44-1.12l5.64-5.6c-3.39-.6-6.97.52-9.58 3.11-3.01 2.98-3.94 7.59-2.39 11.74.21.55.07 1.18-.35 1.59L13.18 45.99c-.35.34-.84.5-1.32.41-.51-.09-1.02-.14-1.52-.14Zm.11 11.56h-.02a4.29 4.29 0 0 1-3.07-1.29 4.284 4.284 0 0 1-1.26-3.08c0-1.16.46-2.25 1.29-3.07.82-.81 1.91-1.26 3.06-1.26h.02c1.16 0 2.25.46 3.07 1.29a4.355 4.355 0 0 1-.02 6.15c-.82.82-1.91 1.26-3.06 1.26Zm0-5.7c-.36 0-.7.14-.95.39-.26.25-.4.59-.4.95s.14.7.39.96.59.4.96.4a1.346 1.346 0 0 0 .95-2.3c-.25-.26-.59-.4-.96-.4Zm-2.01-.67Z" style="stroke-width:0"/>
</svg>
